<svg xmlns="http://www.w3.org/2000/svg" id="Calque_1" data-name="Calque 1" viewBox="0 0 566.93 467.72"><defs><style>.cls-1{fill:#fff}</style></defs><path d="M237.26 452.02c-58.27 0-113.06-22.69-154.26-63.9-41.21-41.2-63.9-95.99-63.9-154.26V15.7h310.57c58.27 0 113.06 22.69 154.26 63.9s63.9 95.99 63.9 154.26-22.69 113.06-63.9 154.26c-41.2 41.2-95.99 63.9-154.26 63.9h-92.41Z" style="fill:#9b1670"/><path d="M329.67 20.63c28.79 0 56.71 5.64 83 16.75 25.39 10.74 48.19 26.12 67.78 45.7 19.59 19.59 34.96 42.39 45.7 67.78 11.12 26.28 16.75 54.21 16.75 83s-5.64 56.71-16.75 83c-10.74 25.39-26.12 48.19-45.7 67.78-19.59 19.59-42.39 34.96-67.78 45.7-26.28 11.12-54.21 16.75-83 16.75h-92.41c-28.79 0-56.71-5.64-83-16.75-25.39-10.74-48.19-26.12-67.78-45.7-19.59-19.59-34.96-42.39-45.7-67.78-11.12-26.28-16.75-54.21-16.75-83V20.63h305.64m0-9.86H14.17v223.09c0 123.21 99.88 223.09 223.09 223.09h92.41c123.21 0 223.09-99.88 223.09-223.09 0-123.21-99.88-223.09-223.09-223.09Z" class="cls-1"/><path d="m169.76 306.66 94.65-72.25c23.48-18.42 32.87-30.35 32.87-45.52 0-16.26-11.2-26.01-28.54-26.01s-30.35 10.11-50.21 32.87l-47.32-39.38c27.09-35.04 54.19-54.19 102.96-54.19 55.27 0 93.2 32.87 93.2 80.56v.72c0 40.46-20.95 61.41-58.52 88.51l-43.35 30.35h104.4v57.08H169.77v-52.74Z" class="cls-1"/></svg>