<?xml version="1.0" encoding="utf-8"?>
<!-- Generator: Adobe Illustrator 27.6.1, SVG Export Plug-In . SVG Version: 6.00 Build 0)  -->
<svg version="1.1" id="Cartouche" xmlns="http://www.w3.org/2000/svg" xmlns:xlink="http://www.w3.org/1999/xlink" x="0px" y="0px"
	 viewBox="0 0 512 512" style="enable-background:new 0 0 512 512;" xml:space="preserve">
<style type="text/css">
	.st0{fill:#A2559D;}
	.st1{fill:#FFFFFF;}
</style>
<rect class="st0" width="512" height="512"/>
<g>
	<path class="st1" d="M120.87,157.59v69.81h117.78v42.12H120.87v124.8H67.83V114.3h183.69v43.29H120.87z"/>
	<path class="st1" d="M279.2,394.32v-26.13c0-13,1.56-24.7,4.68-35.1c3.12-10.4,7.54-19.89,13.26-28.47
		c5.72-8.58,12.67-16.51,20.86-23.79c8.19-7.28,17.48-14.43,27.89-21.45l21.45-14.04c6.24-4.42,11.9-8.32,16.97-11.7
		c5.07-3.38,9.36-7.02,12.87-10.92c3.51-3.9,6.24-8.38,8.19-13.46c1.95-5.07,2.92-11.24,2.92-18.52c0-26.52-13.52-39.78-40.56-39.78
		c-12.74,0-23.79,2.86-33.15,8.58c-9.36,5.72-18.2,12.09-26.52,19.11l-23.4-40.17c16.12-10.66,31.33-18.14,45.63-22.43
		c14.3-4.29,29.38-6.44,45.24-6.44c25.74,0,46.34,6.76,61.82,20.28c15.46,13.52,23.21,33.67,23.21,60.45
		c0,11.7-1.95,21.84-5.85,30.42c-3.9,8.58-9.04,16.25-15.41,23.01c-6.37,6.76-13.52,12.87-21.45,18.33
		c-7.93,5.46-15.93,10.92-23.99,16.38l-25.74,17.55c-12.74,8.32-22.3,16.96-28.67,25.93c-6.37,8.97-10.08,18.01-11.12,27.11h133.38
		v45.24H279.2z"/>
	<path class="st1" d="M 511.988281 397.050781 L 511.988281 334.609375 C 485.996094 419.289062 419.222656 486.058594 334.484375 511.992188 L 397.039062 511.992188 C 445.324219 485.308594 485.246094 445.335938 511.988281 397.050781 "/>
	<path class="st1" d="M 177.402344 0.0078125 L 114.960938 0.0078125 C 66.667969 26.691406 26.703125 66.664062 0.0117188 114.949219 L 0.0117188 177.390625 C 26.003906 92.710938 92.777344 25.941406 177.402344 0.0078125 "/>
	<path class="st1" d="M 511.988281 177.390625 L 511.988281 114.949219 C 485.296875 66.664062 445.324219 26.691406 397.039062 0.0078125 L 334.597656 0.0078125 C 419.277344 26 486.050781 92.710938 511.988281 177.390625 "/>
	<path class="st1" d="M 0.0117188 334.609375 L 0.0117188 397.050781 C 26.75 445.335938 66.667969 485.308594 114.953125 511.992188 L 177.507812 511.992188 C 92.777344 486.058594 25.996094 419.289062 0.0117188 334.609375 "/>
</g>
</svg>
