<svg xmlns="http://www.w3.org/2000/svg" data-name="Calque 1" viewBox="0 0 566.93 467.72"><path d="M237.26 452.02c-58.27 0-113.06-22.69-154.26-63.9-41.2-41.2-63.9-95.99-63.9-154.26V15.7h310.57c58.27 0 113.06 22.69 154.26 63.9 41.2 41.2 63.9 95.99 63.9 154.26s-22.69 113.06-63.9 154.26c-41.21 41.2-95.99 63.9-154.26 63.9h-92.41Z" style="fill:#fd0"/><path d="M329.67 20.63c28.79 0 56.71 5.64 83 16.75 25.39 10.74 48.19 26.12 67.78 45.7 19.59 19.59 34.96 42.39 45.7 67.78 11.12 26.28 16.75 54.21 16.75 83s-5.64 56.71-16.75 83c-10.74 25.39-26.12 48.19-45.7 67.78-19.59 19.59-42.39 34.96-67.78 45.7-26.28 11.12-54.21 16.75-83 16.75h-92.41c-28.79 0-56.71-5.64-83-16.75-25.39-10.74-48.19-26.12-67.78-45.7-19.59-19.59-34.96-42.39-45.7-67.78-11.12-26.28-16.75-54.21-16.75-83V20.63h305.64m0-9.86H14.17v223.09c0 123.21 99.88 223.09 223.09 223.09h92.41c123.21 0 223.09-99.88 223.09-223.09S452.88 10.77 329.67 10.77Z" style="fill:#000"/><path d="m168.41 327.94 40.1-46.96c20.23 17.34 39.74 27.46 61.41 27.46 23.12 0 36.85-11.56 36.85-29.62v-.72c0-18.42-15.17-29.26-37.21-29.26-15.53 0-28.54 5.42-40.46 12.64L187.56 238l7.22-127.88h169.07v57.8H250.06l-2.17 38.29c11.56-5.42 23.48-9.03 40.46-9.03 45.52 0 86.7 25.29 86.7 80.2v.72c0 55.99-42.99 89.95-104.4 89.95-44.8 0-75.86-15.53-102.23-40.1Z" style="fill:#0d1637"/></svg>