<?xml version="1.0" encoding="utf-8"?>
<!-- Generator: Adobe Illustrator 27.6.1, SVG Export Plug-In . SVG Version: 6.00 Build 0)  -->
<svg version="1.1" id="Cartouche" xmlns="http://www.w3.org/2000/svg" xmlns:xlink="http://www.w3.org/1999/xlink" x="0px" y="0px"
	 viewBox="0 0 512 512" style="enable-background:new 0 0 512 512;" xml:space="preserve">
<style type="text/css">
	.st0{fill:#AFCA0B;}
	.st1{fill:#1D1D1B;}
</style>
<rect class="st0" width="512" height="512"/>
<g>
	<path class="st1" d="M120.87,157.59v69.81h117.78v42.12H120.87v124.8H67.83V114.3h183.69v43.29H120.87z"/>
	<path class="st1" d="M468.35,301.89c0,14.3-2.34,27.43-7.02,39.39c-4.68,11.96-11.31,22.23-19.89,30.81s-18.86,15.21-30.81,19.89
		c-11.96,4.68-25.09,7.02-39.39,7.02c-17.94,0-34.71-3.45-50.31-10.33c-15.6-6.89-29.38-19.3-41.34-37.25l40.56-29.25
		c4.16,10.4,10.27,19.11,18.33,26.13c8.06,7.02,18.72,10.53,31.98,10.53c14.56,0,25.74-4.88,33.54-14.62s11.7-22.94,11.7-39.58
		c0-18.46-3.97-31.91-11.89-40.37c-7.93-8.45-18.53-12.68-31.79-12.68c-13.52,0-24.25,3.58-32.17,10.73
		c-7.93,7.15-14.24,15.67-18.92,25.54l-39.39-13.65l8.58-159.9h160.29v45.24H333.02l-3.9,73.71h1.17
		c6.5-8.06,14.04-13.91,22.62-17.55c8.58-3.64,17.42-5.46,26.52-5.46c13,0,24.89,2.02,35.68,6.04c10.79,4.03,20.15,9.95,28.08,17.75
		c7.93,7.8,14.1,17.42,18.53,28.86C466.14,274.33,468.35,287.33,468.35,301.89z"/>
	<path class="st1" d="M 511.988281 397.050781 L 511.988281 334.609375 C 485.996094 419.289062 419.222656 486.058594 334.484375 511.992188 L 397.039062 511.992188 C 445.324219 485.308594 485.246094 445.335938 511.988281 397.050781 "/>
	<path class="st1" d="M 177.402344 0.0078125 L 114.960938 0.0078125 C 66.667969 26.691406 26.703125 66.664062 0.0117188 114.949219 L 0.0117188 177.390625 C 26.003906 92.710938 92.777344 25.941406 177.402344 0.0078125 "/>
	<path class="st1" d="M 511.988281 177.390625 L 511.988281 114.949219 C 485.296875 66.664062 445.324219 26.691406 397.039062 0.0078125 L 334.597656 0.0078125 C 419.277344 26 486.050781 92.710938 511.988281 177.390625 "/>
	<path class="st1" d="M 0.0117188 334.609375 L 0.0117188 397.050781 C 26.75 445.335938 66.667969 485.308594 114.953125 511.992188 L 177.507812 511.992188 C 92.777344 486.058594 25.996094 419.289062 0.0117188 334.609375 "/>
</g>
</svg>
