<svg xmlns="http://www.w3.org/2000/svg" id="Calque_1" data-name="Calque 1" viewBox="0 0 566.93 467.72"><defs><style>.cls-1{fill:#fff}</style></defs><path d="M237.26 452.02c-58.27 0-113.06-22.69-154.26-63.9-41.2-41.2-63.9-95.99-63.9-154.26V15.7h310.57c58.27 0 113.06 22.69 154.26 63.9 41.21 41.2 63.9 95.99 63.9 154.26s-22.69 113.06-63.9 154.26c-41.2 41.2-95.99 63.9-154.26 63.9h-92.41Z" style="fill:#291f6c"/><path d="M329.67 20.63c28.79 0 56.71 5.64 83 16.75 25.39 10.74 48.19 26.12 67.78 45.7 19.59 19.59 34.96 42.39 45.7 67.78 11.12 26.28 16.75 54.21 16.75 83s-5.64 56.71-16.75 83c-10.74 25.39-26.11 48.19-45.7 67.78-19.59 19.59-42.39 34.96-67.78 45.7-26.28 11.12-54.21 16.75-83 16.75h-92.41c-28.79 0-56.71-5.64-83-16.75-25.39-10.74-48.19-26.12-67.78-45.7-19.59-19.59-34.96-42.39-45.7-67.78-11.12-26.28-16.75-54.21-16.75-83V20.63h305.64m0-9.86H14.17v223.09c0 123.21 99.88 223.09 223.09 223.09h92.41c123.21 0 223.09-99.88 223.09-223.09 0-123.21-99.88-223.09-223.09-223.09Z" class="cls-1"/><path d="M204.88 333.33c-18.79-18.79-31.07-47.32-31.07-94.65v-.72c0-78.75 38.29-138.72 117.41-138.72 35.4 0 59.97 9.75 84.17 27.82l-32.87 49.13c-15.53-11.56-29.98-19.15-50.21-19.15-36.49 0-45.88 33.96-47.69 54.19 16.26-12.64 32.87-19.51 54.55-19.51 44.43 0 83.45 28.18 83.45 78.75v.72c0 56.36-45.16 91.04-100.43 91.04-35.76 0-58.88-10.84-77.31-28.9Zm109.82-58.16v-.72c0-18.42-14.09-32.51-36.13-32.51s-35.04 13.73-35.04 32.15v.72c0 18.42 13.73 32.87 35.76 32.87s35.4-14.09 35.4-32.51Z" class="cls-1"/></svg>