<?xml version="1.0" encoding="utf-8"?>
<!-- Generator: Adobe Illustrator 27.6.1, SVG Export Plug-In . SVG Version: 6.00 Build 0)  -->
<svg version="1.1" id="Cartouche" xmlns="http://www.w3.org/2000/svg" xmlns:xlink="http://www.w3.org/1999/xlink" x="0px" y="0px"
	 viewBox="0 0 512 512" style="enable-background:new 0 0 512 512;" xml:space="preserve">
<style type="text/css">
	.st0{fill:#00ACE5;}
	.st1{fill:#FFFFFF;}
</style>
<rect class="st0" width="512" height="512"/>
<g>
	<path class="st1" d="M120.87,157.59v69.81h117.78v42.12H120.87v124.8H67.83V114.3h183.69v43.29H120.87z"/>
	<path class="st1" d="M374.75,399c-14.04,0-27.04-2.6-39-7.8c-11.96-5.2-22.3-13.13-31-23.79c-8.71-10.66-15.54-24.05-20.47-40.17
		c-4.94-16.12-7.41-35.23-7.41-57.33c0-18.72,1.82-37.57,5.46-56.55c3.64-18.98,9.95-36.14,18.92-51.48
		c8.97-15.34,20.93-27.89,35.88-37.64c14.95-9.75,33.6-14.62,55.96-14.62c11.7,0,22.55,0.98,32.57,2.93
		c10.01,1.95,20.99,6.18,32.95,12.67l-21.84,38.61c-12.74-9.1-26.65-13.65-41.73-13.65c-13.26,0-24.05,3.12-32.37,9.36
		c-8.32,6.24-15.01,14.17-20.08,23.79c-5.07,9.62-8.65,20.22-10.72,31.79c-2.08,11.57-3.51,22.81-4.29,33.73h0.78
		c5.72-10.66,13.52-18.52,23.4-23.59c9.88-5.07,20.67-7.6,32.37-7.6c12.22,0,23.46,2.02,33.74,6.04
		c10.27,4.03,19.11,9.75,26.52,17.16c7.41,7.41,13.19,16.25,17.36,26.52c4.16,10.27,6.24,21.65,6.24,34.12
		c0,14.3-2.21,27.43-6.63,39.39c-4.42,11.96-10.72,22.23-18.91,30.81c-8.19,8.58-18.01,15.28-29.45,20.08
		C401.53,396.59,388.79,399,374.75,399z M416.87,310.08c0-16.64-3.31-29.51-9.95-38.61c-6.63-9.1-17.23-13.65-31.78-13.65
		c-14.04,0-24.44,4.81-31.2,14.43c-6.76,9.62-10.14,22.23-10.14,37.83c0,14.04,3.44,25.93,10.34,35.68
		c6.89,9.75,17.22,14.62,31,14.62c6.5,0,12.28-1.3,17.35-3.9c5.07-2.6,9.42-6.17,13.07-10.73c3.64-4.55,6.43-9.88,8.38-15.99
		C415.9,323.67,416.87,317.1,416.87,310.08z"/>
	<path class="st1" d="M 511.988281 397.050781 L 511.988281 334.609375 C 485.996094 419.289062 419.222656 486.058594 334.484375 511.992188 L 397.039062 511.992188 C 445.324219 485.308594 485.246094 445.335938 511.988281 397.050781 "/>
	<path class="st1" d="M 177.402344 0.0078125 L 114.960938 0.0078125 C 66.667969 26.691406 26.703125 66.664062 0.0117188 114.949219 L 0.0117188 177.390625 C 26.003906 92.710938 92.777344 25.941406 177.402344 0.0078125 "/>
	<path class="st1" d="M 511.988281 177.390625 L 511.988281 114.949219 C 485.296875 66.664062 445.324219 26.691406 397.039062 0.0078125 L 334.597656 0.0078125 C 419.277344 26 486.050781 92.710938 511.988281 177.390625 "/>
	<path class="st1" d="M 0.0117188 334.609375 L 0.0117188 397.050781 C 26.75 445.335938 66.667969 485.308594 114.953125 511.992188 L 177.507812 511.992188 C 92.777344 486.058594 25.996094 419.289062 0.0117188 334.609375 "/>
</g>
</svg>
