<svg xmlns="http://www.w3.org/2000/svg" id="Calque_1" data-name="Calque 1" viewBox="0 0 566.93 467.72"><defs><style>.cls-1{fill:#fff}</style></defs><path d="M237.26 452.03c-58.28 0-113.07-22.69-154.27-63.9-41.21-41.21-63.9-96-63.9-154.27V15.68h310.58c58.28 0 113.07 22.69 154.27 63.9 41.21 41.21 63.9 96 63.9 154.27s-22.69 113.07-63.9 154.28c-41.21 41.21-96 63.9-154.27 63.9h-92.41Z" style="fill:#e50076"/><path d="M329.67 20.59c28.79 0 56.72 5.64 83.01 16.76 25.39 10.74 48.2 26.12 67.79 45.71 19.59 19.59 34.97 42.4 45.71 67.79 11.12 26.29 16.76 54.21 16.76 83.01s-5.64 56.72-16.76 83.01c-10.74 25.39-26.12 48.2-45.71 67.79-19.59 19.59-42.4 34.97-67.79 45.71-26.29 11.12-54.21 16.76-83.01 16.76h-92.41c-28.79 0-56.72-5.64-83.01-16.76-25.39-10.74-48.2-26.12-67.79-45.71s-34.97-42.4-45.71-67.79c-11.12-26.29-16.76-54.21-16.76-83.01V20.59h305.67m0-9.82H14.17v223.09c0 123.21 99.88 223.09 223.09 223.09h92.41c123.21 0 223.09-99.88 223.09-223.09 0-123.21-99.88-223.09-223.09-223.09Z" class="cls-1"/><path d="M176.12 287.45v-.72c0-30.71 15.9-49.13 42.99-60.69-19.15-10.84-34.32-27.82-34.32-55.27v-.72c0-40.1 38.29-70.08 95.01-70.08s95.37 29.98 95.37 70.08v.72c0 27.46-15.17 44.43-34.68 55.27 25.65 11.92 43.35 28.9 43.35 59.97v.72c0 45.52-43.35 74.78-104.04 74.78s-103.68-29.98-103.68-74.06Zm140.17-6.86v-.72c0-16.62-14.81-27.82-36.49-27.82s-36.49 11.2-36.49 27.82v.72c0 15.17 13 28.54 36.49 28.54s36.49-13.37 36.49-28.54Zm-5.06-101.51v-.72c0-14.09-11.92-26.73-31.43-26.73s-31.07 12.64-31.07 26.73v.72c0 15.9 12.28 27.82 31.07 27.82s31.43-11.92 31.43-27.82Z" class="cls-1"/></svg>