<svg xmlns="http://www.w3.org/2000/svg" id="Calque_1" data-name="Calque 1" viewBox="0 0 566.93 467.72"><defs><style>.cls-2{fill:#fff}</style></defs><path d="M237.26 452.02c-58.27 0-113.06-22.69-154.26-63.9-41.21-41.2-63.9-95.99-63.9-154.26V15.7h310.57c58.27 0 113.06 22.69 154.26 63.9 41.21 41.2 63.9 95.99 63.9 154.26s-22.69 113.06-63.9 154.26c-41.2 41.2-95.99 63.9-154.26 63.9h-92.41Z" style="fill:#e94f35"/><path d="M329.67 20.63c28.79 0 56.71 5.64 83 16.75 25.39 10.74 48.19 26.12 67.78 45.7 19.59 19.59 34.96 42.39 45.7 67.78 11.12 26.28 16.75 54.21 16.75 83s-5.64 56.71-16.75 83c-10.74 25.39-26.12 48.19-45.7 67.78-19.59 19.59-42.39 34.96-67.78 45.7-26.28 11.12-54.21 16.75-83 16.75h-92.41c-28.79 0-56.71-5.64-83-16.75-25.39-10.74-48.19-26.12-67.78-45.7-19.59-19.59-34.96-42.39-45.7-67.78-11.12-26.28-16.75-54.21-16.75-83V20.63h305.64m0-9.86H14.17v223.09c0 123.21 99.88 223.09 223.09 223.09h92.41c123.21 0 223.09-99.88 223.09-223.09 0-123.21-99.88-223.09-223.09-223.09Z" class="cls-2"/><path d="M309.66 251.32c-15.53 14.45-33.96 20.59-53.83 20.59-48.77 0-84.89-30.71-84.89-80.2v-.72c0-55.63 42.99-91.76 100.79-91.76 36.85 0 58.52 10.11 77.67 29.26s30.34 47.32 30.34 93.93v.72c0 82.37-41.18 139.08-116.68 139.08-37.93 0-65.02-11.92-88.51-29.98l32.87-48.41c17.7 13.73 34.32 20.23 54.19 20.23 36.85 0 46.24-32.51 48.05-52.74Zm.72-62.5v-.72c0-19.51-14.09-34.68-36.12-34.68s-35.4 14.81-35.4 34.32v.72c0 19.15 14.09 33.24 36.12 33.24s35.4-14.45 35.4-32.87Z" class="cls-2"/></svg>