<?xml version="1.0" encoding="utf-8"?>
<!-- Generator: Adobe Illustrator 27.6.1, SVG Export Plug-In . SVG Version: 6.00 Build 0)  -->
<svg version="1.1" id="Cartouche" xmlns="http://www.w3.org/2000/svg" xmlns:xlink="http://www.w3.org/1999/xlink" x="0px" y="0px"
	 viewBox="0 0 512 512" style="enable-background:new 0 0 512 512;" xml:space="preserve">
<style type="text/css">
	.st0{fill:#EE7BAE;}
	.st1{fill:#FFFFFF;}
</style>
<rect class="st0" width="512" height="512"/>
<g>
	<path class="st1" d="M101.1,173.97l-50.57,42.12l-18.6-40.17l76.14-61.62h31.97v280.02H101.1V173.97z"/>
	<path class="st1" d="M327.2,253.53c0,30.68-2.08,55.51-6.25,74.49c-4.17,18.98-9.64,33.73-16.42,44.26
		c-6.79,10.53-14.44,17.62-22.96,21.25c-8.53,3.64-17.15,5.46-25.87,5.46c-8.91,0-17.63-1.75-26.16-5.26
		c-8.53-3.51-16.08-10.4-22.67-20.67c-6.59-10.27-11.92-24.76-15.98-43.49c-4.07-18.72-6.1-43.29-6.1-73.71
		c0-32.76,2.47-58.82,7.41-78.19c4.94-19.37,11.04-34.06,18.31-44.07c7.27-10.01,15.06-16.51,23.39-19.5
		c8.33-2.99,15.98-4.49,22.96-4.49c4.84,0,9.93,0.58,15.26,1.76c5.33,1.17,10.61,3.58,15.84,7.21c5.23,3.64,10.22,8.71,14.97,15.21
		c4.75,6.5,8.91,15.08,12.5,25.74c3.58,10.66,6.44,23.66,8.57,39C326.13,213.88,327.2,232.21,327.2,253.53z M286.51,254.7
		c0-15.34-0.29-29.44-0.87-42.31s-1.89-23.98-3.92-33.34c-2.03-9.36-5.09-16.64-9.15-21.84c-4.07-5.2-9.59-7.8-16.56-7.8
		c-6.98,0-12.5,2.6-16.57,7.8c-4.07,5.2-7.12,12.48-9.15,21.84c-2.03,9.36-3.34,20.47-3.92,33.34s-0.87,26.98-0.87,42.31
		c0,13,0.1,25.81,0.29,38.42c0.19,12.61,1.21,23.79,3.05,33.54c1.84,9.75,4.84,17.62,9.01,23.59c4.16,5.98,10.22,8.97,18.16,8.97
		c7.94,0,13.95-2.99,18.02-8.97c4.07-5.98,7.07-13.84,9.01-23.59c1.93-9.75,3-20.87,3.2-33.34
		C286.41,280.83,286.51,267.96,286.51,254.7z"/>
	<path class="st1" d="M424.27,173.97l-50.57,42.12l-18.6-40.17l76.14-61.62h31.97v280.02h-38.94V173.97z"/>
</g>
</svg>
