<?xml version="1.0" encoding="utf-8"?>
<!-- Generator: Adobe Illustrator 27.6.1, SVG Export Plug-In . SVG Version: 6.00 Build 0)  -->
<svg version="1.1" id="Cartouche" xmlns="http://www.w3.org/2000/svg" xmlns:xlink="http://www.w3.org/1999/xlink" x="0px" y="0px"
	 viewBox="0 0 512 512" style="enable-background:new 0 0 512 512;" xml:space="preserve">
<style type="text/css">
	.st0{fill:#354093;}
	.st1{fill:#FFFFFF;}
</style>
<rect class="st0" width="512" height="512"/>
<g>
	<path class="st1" d="M370.08,306.57c0,15.6-3.12,29.25-9.36,40.95c-6.24,11.7-14.5,21.32-24.76,28.86
		c-10.27,7.54-22.04,13.2-35.29,16.96c-13.26,3.77-27.04,5.66-41.34,5.66c-7.8,0-15.34-0.2-22.62-0.58
		c-7.28-0.39-14.76-1.11-22.42-2.14c-7.67-1.04-15.6-2.27-23.79-3.71c-8.19-1.43-16.97-3.18-26.33-5.27V115.47
		c12.48-1.3,26.19-2.4,41.15-3.31c14.95-0.91,29.44-1.36,43.48-1.36c10.92,0,22.16,0.85,33.74,2.53c11.57,1.69,22.1,4.94,31.59,9.75
		c9.49,4.81,17.22,11.57,23.21,20.28c5.98,8.71,8.97,20.08,8.97,34.12c0,5.2-0.91,10.47-2.73,15.79c-1.82,5.33-4.36,10.33-7.6,15.02
		c-3.25,4.68-7.02,8.84-11.31,12.48c-4.29,3.64-9.04,6.5-14.23,8.58v0.78c19.24,5.46,33.99,14.69,44.26,27.69
		C364.94,270.82,370.08,287.07,370.08,306.57z M291.3,183.72c0-22.62-14.43-33.93-43.29-33.93c-9.88,0-20.15,0.78-30.81,2.34v74.1
		h24.18c5.2,0,10.14-0.2,14.82-0.58c4.68-0.39,9.1-1.49,13.26-3.32c6.5-2.86,11.76-7.41,15.79-13.65
		C289.28,202.44,291.3,194.12,291.3,183.72z M314.31,308.91c0-10.14-1.82-18.2-5.46-24.18c-3.64-5.98-8.19-10.46-13.65-13.46
		c-5.46-2.99-11.5-4.88-18.13-5.66c-6.63-0.78-12.94-1.17-18.92-1.17H217.2v89.7c7.02,2.6,13.97,4.29,20.87,5.07
		c6.89,0.78,13.71,1.17,20.48,1.17c17.68,0,31.39-4.22,41.14-12.67C309.43,339.27,314.31,326.33,314.31,308.91z"/>
</g>
</svg>
