<?xml version="1.0" encoding="utf-8"?>
<!-- Generator: Adobe Illustrator 27.6.1, SVG Export Plug-In . SVG Version: 6.00 Build 0)  -->
<svg version="1.1" id="Cartouche" xmlns="http://www.w3.org/2000/svg" xmlns:xlink="http://www.w3.org/1999/xlink" x="0px" y="0px"
	 viewBox="0 0 512 512" style="enable-background:new 0 0 512 512;" xml:space="preserve">
<style type="text/css">
	.st0{fill:#248BCB;}
	.st1{fill:#FFFFFF;}
</style>
<rect class="st0" width="512" height="512"/>
<g>
	<path class="st1" d="M120.87,157.59v69.81h117.78v42.12H120.87v124.8H67.83V114.3h183.69v43.29H120.87z"/>
	<path class="st1" d="M464.45,242.22c0,20.28-2.08,39.85-6.24,58.7c-4.16,18.85-10.79,35.56-19.89,50.12
		c-9.1,14.56-21,26.2-35.68,34.91c-14.69,8.71-32.57,13.06-53.62,13.06c-11.44,0-23.34-1.17-35.69-3.51
		c-12.35-2.34-25.16-7.8-38.42-16.38l23.01-40.17c7.54,7.28,15.34,12.35,23.4,15.21c8.06,2.86,16.51,4.29,25.35,4.29
		c13.78,0,25.02-3.25,33.74-9.75c8.71-6.5,15.47-14.75,20.28-24.77c4.81-10.01,8.12-21.12,9.94-33.34
		c1.82-12.22,2.86-24.18,3.12-35.88h-0.78c-4.42,8.84-11.38,16.32-20.87,22.43c-9.49,6.11-19.7,9.17-30.62,9.17
		c-14.04,0-26.33-2.4-36.85-7.21c-10.53-4.81-19.37-11.18-26.52-19.11c-7.15-7.93-12.55-17.16-16.18-27.69
		c-3.64-10.53-5.46-21.51-5.46-32.96c0-10.92,1.88-21.77,5.65-32.56c3.77-10.79,9.36-20.41,16.77-28.86
		c7.41-8.45,16.7-15.27,27.88-20.48c11.18-5.2,24.31-7.8,39.39-7.8c14.82,0,28.28,2.73,40.37,8.19
		c12.09,5.46,22.42,13.72,31.01,24.76c8.58,11.05,15.21,24.83,19.89,41.34C462.11,200.43,464.45,219.86,464.45,242.22z
		 M404.39,198.15c0-14.82-3.25-26.84-9.75-36.08c-6.5-9.23-16.12-13.84-28.86-13.84c-6.24,0-11.77,1.3-16.58,3.9
		c-4.81,2.6-8.84,6.18-12.09,10.73c-3.25,4.55-5.72,9.82-7.41,15.79c-1.69,5.98-2.54,12.48-2.54,19.5c0,14.82,3.12,26.59,9.36,35.29
		c6.24,8.71,15.99,13.06,29.25,13.06c12.74,0,22.36-4.48,28.86-13.46C401.14,224.08,404.39,212.45,404.39,198.15z"/>
		<path class="st1" d="M 511.988281 397.050781 L 511.988281 334.609375 C 485.996094 419.289062 419.222656 486.058594 334.484375 511.992188 L 397.039062 511.992188 C 445.324219 485.308594 485.246094 445.335938 511.988281 397.050781 "/>
	<path class="st1" d="M 177.402344 0.0078125 L 114.960938 0.0078125 C 66.667969 26.691406 26.703125 66.664062 0.0117188 114.949219 L 0.0117188 177.390625 C 26.003906 92.710938 92.777344 25.941406 177.402344 0.0078125 "/>
	<path class="st1" d="M 511.988281 177.390625 L 511.988281 114.949219 C 485.296875 66.664062 445.324219 26.691406 397.039062 0.0078125 L 334.597656 0.0078125 C 419.277344 26 486.050781 92.710938 511.988281 177.390625 "/>
	<path class="st1" d="M 0.0117188 334.609375 L 0.0117188 397.050781 C 26.75 445.335938 66.667969 485.308594 114.953125 511.992188 L 177.507812 511.992188 C 92.777344 486.058594 25.996094 419.289062 0.0117188 334.609375 "/>
</g>
</svg>
