<?xml version="1.0" encoding="utf-8"?>
<!-- Generator: Adobe Illustrator 27.6.1, SVG Export Plug-In . SVG Version: 6.00 Build 0)  -->
<svg version="1.1" id="Cartouche" xmlns="http://www.w3.org/2000/svg" xmlns:xlink="http://www.w3.org/1999/xlink" x="0px" y="0px"
	 viewBox="0 0 512 512" style="enable-background:new 0 0 512 512;" xml:space="preserve">
<style type="text/css">
	.st0{fill:#D3D800;}
	.st1{fill:#1D1D1B;}
</style>
<rect class="st0" width="512" height="512"/>
<g>
	<path class="st1" d="M266.92,399c-18.98,0-36.79-2.92-53.43-8.78c-16.64-5.85-31.2-14.62-43.68-26.32
		c-12.48-11.7-22.36-26.45-29.64-44.27c-7.28-17.81-10.92-38.8-10.92-62.98c0-22.36,3.25-42.57,9.75-60.65
		c6.5-18.07,15.8-33.47,27.89-46.21c12.09-12.74,26.84-22.62,44.27-29.64c17.42-7.02,37.05-10.53,58.89-10.53
		c10.66,0,20.93,0.85,30.81,2.54c9.88,1.69,19.31,4.55,28.28,8.58c8.97,4.03,17.48,9.56,25.54,16.58
		c8.06,7.02,15.6,15.99,22.62,26.91l-48.36,24.96c-6.5-13.26-14.3-23.33-23.4-30.23c-9.1-6.89-21.45-10.33-37.05-10.33
		c-15.08,0-27.88,2.93-38.41,8.78c-10.53,5.85-19.05,13.65-25.55,23.4c-6.5,9.75-11.18,20.93-14.04,33.54
		c-2.86,12.61-4.29,25.68-4.29,39.19c0,14.3,1.43,27.89,4.29,40.76c2.86,12.87,7.67,24.05,14.43,33.54
		c6.76,9.49,15.79,17.03,27.1,22.62c11.31,5.59,25.28,8.38,41.93,8.38c9.1,0,17.48-0.84,25.15-2.54c7.67-1.69,14.75-3.96,21.25-6.83
		v-58.11l-56.55,2.73v-42.9h109.59v120.9c-8.84,4.42-17.42,8.32-25.74,11.7c-8.32,3.38-16.77,6.18-25.35,8.38s-17.42,3.9-26.52,5.07
		C286.68,398.41,277.06,399,266.92,399z"/>
</g>
</svg>
