<svg xmlns="http://www.w3.org/2000/svg" id="Calque_1" data-name="Calque 1" viewBox="0 0 566.93 467.72"><defs><style>.cls-1{fill:#fff}</style></defs><path d="M237.42 451.26c-58.07 0-112.67-22.61-153.73-63.68-41.06-41.06-63.68-95.66-63.68-153.73V16.45H329.5c58.07 0 112.67 22.61 153.73 63.68 41.06 41.06 63.68 95.66 63.68 153.73s-22.61 112.67-63.68 153.73c-41.06 41.06-95.66 63.68-153.73 63.68h-92.09Z" style="fill:#127c29"/><path d="M329.51 21.37c28.69 0 56.52 5.62 82.71 16.69 25.3 10.7 48.03 26.02 67.55 45.54s34.84 42.24 45.54 67.55c11.08 26.19 16.69 54.02 16.69 82.71s-5.62 56.52-16.69 82.71c-10.7 25.3-26.02 48.03-45.54 67.55s-42.24 34.84-67.55 45.54c-26.19 11.08-54.02 16.69-82.71 16.69h-92.09c-28.69 0-56.52-5.62-82.71-16.69-25.3-10.7-48.03-26.02-67.55-45.54s-34.84-42.24-45.54-67.55c-11.08-26.19-16.69-54.02-16.69-82.71V21.37h304.58m0-9.82H15.1v222.32c0 122.78 99.53 222.32 222.32 222.32h92.09c122.78 0 222.32-99.53 222.32-222.32 0-122.78-99.53-222.32-222.32-222.32Z" class="cls-1"/><path d="m142.22 167.11-42.48 10.08-13.32-54 73.8-20.88h50.76v253.8h-68.76v-189ZM247.33 303.55l94.32-72c23.4-18.36 32.76-30.24 32.76-45.36 0-16.2-11.16-25.92-28.44-25.92s-30.24 10.08-50.04 32.76l-47.16-39.24c27-34.92 54-54 102.6-54 55.08 0 92.88 32.76 92.88 80.28v.72c0 40.32-20.88 61.2-58.32 88.2l-43.2 30.24h104.04v56.88H247.33v-52.56Z" class="cls-1"/></svg>