<svg xmlns="http://www.w3.org/2000/svg" id="Calque_1" data-name="Calque 1" viewBox="0 0 566.93 467.72"><defs><style>.cls-1{fill:#fff}.cls-2{fill:#484f54}</style></defs><path d="M237.26 445.57c-116.74 0-211.71-94.97-211.71-211.71V22.15h304.12c116.74 0 211.71 94.97 211.71 211.71s-94.97 211.71-211.71 211.71h-92.41Z" class="cls-1"/><path d="M329.67 33.53c27.05 0 53.29 5.29 77.97 15.73 23.85 10.09 45.28 24.54 63.68 42.94 18.41 18.41 32.85 39.83 42.94 63.68 10.44 24.68 15.73 50.92 15.73 77.97s-5.29 53.29-15.73 77.97c-10.09 23.85-24.54 45.28-42.94 63.68-18.41 18.41-39.83 32.85-63.68 42.94-24.68 10.44-50.92 15.73-77.97 15.73h-92.41c-27.05 0-53.29-5.29-77.97-15.73-23.85-10.09-45.28-24.54-63.68-42.94-18.41-18.41-32.85-39.83-42.94-63.68-10.44-24.68-15.73-50.92-15.73-77.97V33.53h292.74m0-22.76H14.17v223.09c0 123.21 99.88 223.09 223.09 223.09h92.41c123.21 0 223.09-99.88 223.09-223.09 0-123.21-99.88-223.09-223.09-223.09Z" class="cls-2"/><path d="M329.67 20.63c28.79 0 56.71 5.64 83 16.75 25.39 10.74 48.19 26.12 67.78 45.7 19.59 19.59 34.96 42.39 45.7 67.78 11.12 26.28 16.75 54.21 16.75 83s-5.64 56.71-16.75 83c-10.74 25.39-26.12 48.19-45.7 67.78-19.59 19.59-42.39 34.96-67.78 45.7-26.28 11.12-54.21 16.75-83 16.75h-92.41c-28.79 0-56.71-5.64-83-16.75-25.39-10.74-48.19-26.12-67.78-45.7-19.59-19.59-34.96-42.39-45.7-67.78-11.12-26.28-16.75-54.21-16.75-83V20.63h305.64m0-9.86H14.17v223.09c0 123.21 99.88 223.09 223.09 223.09h92.41c123.21 0 223.09-99.88 223.09-223.09 0-123.21-99.88-223.09-223.09-223.09Z" class="cls-1"/><path d="m138.14 183.16-25.58 6.07-8.02-32.51 44.43-12.57h30.56v152.81h-41.4V183.17ZM198.17 273.11l26.66-26.44c10.84 11.05 22.11 17.34 36.2 17.34 11.92 0 19.29-6.07 19.29-15.39v-.43c0-9.75-8.67-15.61-24.71-15.61h-17.77l-5.85-21.89 34.68-31.43H208.8v-34.03h109.46v29.91l-36.2 31.21c21.68 4.77 39.23 16.69 39.23 42.7v.43c0 30.78-24.71 50.5-58.52 50.5-29.26 0-49.64-10.62-64.59-26.88ZM336.02 265.31l56.79-43.35c14.09-11.05 19.72-18.21 19.72-27.31 0-9.75-6.72-15.61-17.12-15.61s-18.21 6.07-30.13 19.72l-28.39-23.62c16.26-21.03 32.51-32.51 61.77-32.51 33.16 0 55.92 19.72 55.92 48.33v.43c0 24.28-12.57 36.85-35.11 53.1l-26.01 18.21h62.64v34.25H336.02V265.3ZM115.38 401.34s125.76-83.21 385.05-53.98l-42.08 47.23-49.48 30.36-49.48 12.37-68.59 4.5h-64.1l-57.35-11.24-53.98-29.24Z" class="cls-2"/></svg>