<svg xmlns="http://www.w3.org/2000/svg" id="Calque_1" data-name="Calque 1" viewBox="0 0 566.93 467.72"><defs><style>.cls-1,.cls-2{fill:#484f54;stroke-width:0}.cls-2{fill:#fff}</style></defs><path d="M237.26 445.57c-116.74 0-211.71-94.97-211.71-211.71V22.15h304.12c116.74 0 211.71 94.97 211.71 211.71s-94.97 211.71-211.71 211.71z" class="cls-2"/><path d="M329.67 33.53c27.05 0 53.29 5.29 77.97 15.73 23.85 10.09 45.28 24.54 63.68 42.94 18.41 18.41 32.85 39.83 42.94 63.68 10.44 24.68 15.73 50.92 15.73 77.97s-5.29 53.29-15.73 77.97c-10.09 23.85-24.54 45.28-42.94 63.68-18.41 18.41-39.83 32.85-63.68 42.94-24.68 10.44-50.92 15.73-77.97 15.73h-92.41c-27.05 0-53.29-5.29-77.97-15.73-23.85-10.09-45.28-24.54-63.68-42.94-18.41-18.41-32.85-39.83-42.94-63.68-10.44-24.68-15.73-50.92-15.73-77.97V33.53h292.74m-.01-22.76H14.17v223.09c0 123.21 99.88 223.09 223.09 223.09h92.41c123.21 0 223.09-99.88 223.09-223.09S452.88 10.77 329.67 10.77" class="cls-1"/><path d="M329.67 20.63c28.79 0 56.71 5.64 83 16.75 25.39 10.74 48.19 26.12 67.78 45.7 19.59 19.59 34.96 42.39 45.7 67.78 11.12 26.28 16.75 54.21 16.75 83s-5.64 56.71-16.75 83c-10.74 25.39-26.11 48.19-45.7 67.78s-42.39 34.96-67.78 45.7c-26.28 11.12-54.21 16.75-83 16.75h-92.41c-28.79 0-56.71-5.64-83-16.75-25.39-10.74-48.19-26.11-67.78-45.7s-34.96-42.39-45.7-67.78c-11.12-26.28-16.75-54.21-16.75-83V20.63zm0-9.86H14.17v223.09c0 123.21 99.88 223.09 223.09 223.09h92.41c123.21 0 223.09-99.88 223.09-223.09S452.88 10.77 329.67 10.77" class="cls-2"/><path d="m119.28 183.16-25.58 6.07-8.02-32.51 44.43-12.57h30.56v152.81h-41.4V183.17ZM258.86 267.48h-73.7l-6.72-29.7 78.68-93.64h42.27v91.9h19.29v31.43h-19.29v29.48h-40.53v-29.48Zm0-31.22v-43.78l-36.41 43.78zM333.64 221.52v-.43c0-42.92 27.31-78.9 70.44-78.9s70.01 35.55 70.01 78.46v.43c0 42.92-27.09 78.9-70.44 78.9s-70.01-35.55-70.01-78.46m98.19 0v-.43c0-24.28-11.27-41.83-28.18-41.83s-27.74 17.12-27.74 41.4v.43c0 24.28 11.27 41.62 28.18 41.62s27.74-17.12 27.74-41.18ZM115.38 401.34s125.76-83.21 385.05-53.98l-42.08 47.23-49.48 30.36-49.48 12.37-68.59 4.5h-64.1l-57.35-11.24-53.98-29.24Z" class="cls-1"/></svg>