<?xml version="1.0" encoding="utf-8"?>
<!-- Generator: Adobe Illustrator 27.6.1, SVG Export Plug-In . SVG Version: 6.00 Build 0)  -->
<svg version="1.1" id="Cartouche" xmlns="http://www.w3.org/2000/svg" xmlns:xlink="http://www.w3.org/1999/xlink" x="0px" y="0px"
	 viewBox="0 0 512 512" style="enable-background:new 0 0 512 512;" xml:space="preserve">
<style type="text/css">
	.st0{fill:#74B95B;}
	.st1{fill:#1D1D1B;}
</style>
<rect class="st0" width="512" height="512"/>
<g>
	<path class="st1" d="M156.55,173.97l-67.86,42.12l-24.96-40.17l102.18-61.62h42.9v280.02h-52.26V173.97z"/>
	<path class="st1" d="M462.31,301.89c0,14.3-2.34,27.43-7.02,39.39c-4.68,11.96-11.31,22.23-19.89,30.81
		c-8.58,8.58-18.86,15.21-30.81,19.89c-11.96,4.68-25.09,7.02-39.39,7.02c-17.94,0-34.71-3.45-50.31-10.33
		c-15.6-6.89-29.38-19.3-41.34-37.25l40.56-29.25c4.16,10.4,10.27,19.11,18.33,26.13c8.06,7.02,18.72,10.53,31.98,10.53
		c14.56,0,25.74-4.88,33.54-14.62s11.7-22.94,11.7-39.58c0-18.46-3.97-31.91-11.89-40.37c-7.93-8.45-18.53-12.68-31.79-12.68
		c-13.52,0-24.25,3.58-32.17,10.73c-7.93,7.15-14.24,15.67-18.92,25.54L275.5,274.2l8.58-159.9h160.29v45.24H326.98l-3.9,73.71h1.17
		c6.5-8.06,14.04-13.91,22.62-17.55c8.58-3.64,17.42-5.46,26.52-5.46c13,0,24.89,2.02,35.68,6.04c10.79,4.03,20.15,9.95,28.08,17.75
		c7.93,7.8,14.1,17.42,18.53,28.86C460.1,274.33,462.31,287.33,462.31,301.89z"/>
</g>
</svg>
