<svg xmlns="http://www.w3.org/2000/svg" xml:space="preserve" id="Calque_1" x="0" y="0" version="1.1" viewBox="0 0 2363 1949"><style>.st0{fill:#fff}.st1{fill:#50545a}</style><path d="M974.5 1899.3c-509.9 0-924.8-414.9-924.8-924.8V49.7h1328.5c509.9 0 924.8 414.9 924.8 924.8s-414.9 924.8-924.8 924.8z" class="st0"/><path d="M1378.2 99.4c118.2 0 232.8 23.1 340.6 68.7 104.2 44.1 197.8 107.2 278.2 187.6s143.5 174 187.6 278.2c45.6 107.8 68.7 222.4 68.7 340.6s-23.1 232.8-68.7 340.6c-44.1 104.2-107.2 197.8-187.6 278.2s-174 143.5-278.2 187.6c-107.8 45.6-222.4 68.7-340.6 68.7H974.5c-118.2 0-232.8-23.1-340.6-68.7-104.2-44.1-197.8-107.2-278.2-187.6s-143.5-174-187.6-278.2c-45.6-107.8-68.7-222.4-68.7-340.6V99.4zm0-99.4H0v974.5C0 1512.7 436.3 1949 974.5 1949h403.7c538.2 0 974.5-436.3 974.5-974.5S1916.4 0 1378.2 0" class="st1"/><path d="M1378.2 43.1c125.8 0 247.7 24.6 362.5 73.2 110.9 46.9 210.5 114.1 296.1 199.6 85.6 85.6 152.7 185.2 199.6 296.1 48.6 114.8 73.2 236.8 73.2 362.6s-24.6 247.7-73.2 362.5c-46.9 110.9-114.1 210.5-199.6 296.1-85.6 85.6-185.2 152.7-296.1 199.6-114.8 48.6-236.8 73.2-362.5 73.2H974.5c-125.8 0-247.7-24.6-362.5-73.2-110.9-46.9-210.5-114.1-296.1-199.6S163.2 1448 116.2 1337C67.6 1222.2 43 1100.2 43 974.5V43.1zm0-43.1H0v974.5C0 1512.7 436.3 1949 974.5 1949h403.7c538.2 0 974.5-436.3 974.5-974.5S1916.4 0 1378.2 0" class="st0"/><path d="m519 753-111.7 26.5-35-142 194.1-54.9h133.5v667.5H519zM783.2 1158.3l105.1-123.1c53 45.4 104.1 72 161 72 60.6 0 96.6-30.3 96.6-77.6v-1.9c0-48.3-39.8-76.7-97.5-76.7-40.7 0-74.8 14.2-106 33.1l-108.9-61.5 18.9-335.2h443.1v151.5H997.1l-5.7 100.4c30.3-14.2 61.5-23.7 106-23.7 119.3 0 227.2 66.3 227.2 210.2v1.9c0 146.8-112.7 235.8-273.6 235.8-117.3-.1-198.7-40.8-267.8-105.2M1366.9 927.3v-1.9c0-187.5 119.3-344.6 307.7-344.6s305.8 155.3 305.8 342.7v1.9c0 187.5-118.4 344.6-307.7 344.6-188.4 0-305.8-155.3-305.8-342.7m428.9 0v-1.9c0-106-49.2-182.7-123.1-182.7-72.9 0-121.2 74.8-121.2 180.8v1.9c0 106 49.2 181.8 123.1 181.8 73.8 0 121.2-74.8 121.2-179.9M442.1 1706.1s549.3-363.5 1682-235.8l-183.8 206.3-216.1 132.6-216.1 54-299.6 19.6h-280L678 1833.7z" class="st1"/></svg>