<svg xmlns="http://www.w3.org/2000/svg" id="Calque_1" data-name="Calque 1" viewBox="0 0 566.93 467.72"><defs><style>.cls-1{fill:#fff}.cls-2{fill:#484f54}</style></defs><path d="M237.26 445.57c-116.74 0-211.71-94.97-211.71-211.71V22.15h304.12c116.74 0 211.71 94.97 211.71 211.71s-94.97 211.71-211.71 211.71h-92.41Z" class="cls-1"/><path d="M329.67 33.53c27.05 0 53.29 5.29 77.97 15.73 23.85 10.09 45.28 24.54 63.68 42.94 18.41 18.41 32.85 39.83 42.94 63.68 10.44 24.68 15.73 50.92 15.73 77.97s-5.29 53.29-15.73 77.97c-10.09 23.85-24.54 45.28-42.94 63.68-18.41 18.41-39.83 32.85-63.68 42.94-24.68 10.44-50.92 15.73-77.97 15.73h-92.41c-27.05 0-53.29-5.29-77.97-15.73-23.85-10.09-45.28-24.54-63.68-42.94-18.41-18.41-32.85-39.83-42.94-63.68-10.44-24.68-15.73-50.92-15.73-77.97V33.53h292.74m0-22.76H14.17v223.09c0 123.21 99.88 223.09 223.09 223.09h92.41c123.21 0 223.09-99.88 223.09-223.09 0-123.21-99.88-223.09-223.09-223.09Z" class="cls-2"/><path d="M329.67 20.63c28.79 0 56.71 5.64 83 16.75 25.39 10.74 48.19 26.11 67.78 45.7 19.59 19.59 34.96 42.39 45.7 67.78 11.12 26.28 16.75 54.21 16.75 83s-5.64 56.71-16.75 83c-10.74 25.39-26.11 48.19-45.7 67.78-19.59 19.59-42.39 34.96-67.78 45.7-26.28 11.12-54.21 16.75-83 16.75h-92.41c-28.79 0-56.71-5.64-83-16.75-25.39-10.74-48.19-26.11-67.78-45.7-19.59-19.59-34.96-42.39-45.7-67.78-11.12-26.28-16.75-54.21-16.75-83V20.63h305.64m0-9.86H14.17v223.09c0 123.21 99.88 223.09 223.09 223.09h92.41c123.21 0 223.09-99.88 223.09-223.09 0-123.21-99.88-223.09-223.09-223.09Z" class="cls-1"/><path d="m136.51 183.16-25.58 6.07-8.02-32.51 44.43-12.57h30.56v152.81h-41.4V183.17ZM196.98 275.93l24.06-28.18c12.14 10.4 23.84 16.47 36.85 16.47 13.87 0 22.11-6.94 22.11-17.77v-.43c0-11.05-9.1-17.56-22.33-17.56-9.32 0-17.12 3.25-24.28 7.59l-24.93-14.09 4.33-76.73h101.44v34.68h-68.28l-1.3 22.98c6.94-3.25 14.09-5.42 24.28-5.42 27.31 0 52.02 15.17 52.02 48.12v.43c0 33.6-25.79 53.97-62.64 53.97-26.88 0-45.52-9.32-61.34-24.06ZM335.26 255.12v-.43c0-18.42 9.54-29.48 25.79-36.41-11.49-6.5-20.59-16.69-20.59-33.16v-.43c0-24.06 22.98-42.05 57.01-42.05s57.22 17.99 57.22 42.05v.43c0 16.47-9.1 26.66-20.81 33.16 15.39 7.15 26.01 17.34 26.01 35.98v.43c0 27.31-26.01 44.87-62.42 44.87s-62.21-17.99-62.21-44.43Zm84.1-4.12v-.43c0-9.97-8.89-16.69-21.89-16.69s-21.89 6.72-21.89 16.69v.43c0 9.1 7.8 17.12 21.89 17.12s21.89-8.02 21.89-17.12Zm-3.03-60.91v-.43c0-8.45-7.15-16.04-18.86-16.04s-18.64 7.59-18.64 16.04v.43c0 9.54 7.37 16.69 18.64 16.69s18.86-7.15 18.86-16.69ZM115.38 401.34s125.76-83.21 385.05-53.98l-42.08 47.23-49.48 30.36-49.48 12.37-68.59 4.5h-64.1l-57.35-11.24-53.98-29.24Z" class="cls-2"/></svg>