<svg xmlns="http://www.w3.org/2000/svg" id="Calque_1" data-name="Calque 1" viewBox="0 0 566.93 467.72"><defs><style>.cls-1,.cls-2{fill:#484f54;stroke-width:0}.cls-2{fill:#fff}</style></defs><path d="M237.26 445.57c-116.74 0-211.71-94.97-211.71-211.71V22.15h304.12c116.74 0 211.71 94.97 211.71 211.71s-94.97 211.71-211.71 211.71z" class="cls-2"/><path d="M329.67 33.53c27.05 0 53.29 5.29 77.97 15.73 23.85 10.09 45.28 24.54 63.68 42.94 18.41 18.41 32.85 39.83 42.94 63.68 10.44 24.68 15.73 50.92 15.73 77.97s-5.29 53.29-15.73 77.97c-10.09 23.85-24.54 45.28-42.94 63.68-18.41 18.41-39.83 32.85-63.68 42.94-24.68 10.44-50.92 15.73-77.97 15.73h-92.41c-27.05 0-53.29-5.29-77.97-15.73-23.85-10.09-45.28-24.54-63.68-42.94-18.41-18.41-32.85-39.83-42.94-63.68-10.44-24.68-15.73-50.92-15.73-77.97V33.53h292.74m-.01-22.76H14.17v223.09c0 123.21 99.88 223.09 223.09 223.09h92.41c123.21 0 223.09-99.88 223.09-223.09S452.88 10.77 329.67 10.77" class="cls-1"/><path d="M329.67 20.63c28.79 0 56.71 5.64 83 16.75 25.39 10.74 48.19 26.12 67.78 45.7 19.59 19.59 34.96 42.39 45.7 67.78 11.12 26.28 16.75 54.21 16.75 83s-5.64 56.71-16.75 83c-10.74 25.39-26.11 48.19-45.7 67.78s-42.39 34.96-67.78 45.7c-26.28 11.12-54.21 16.75-83 16.75h-92.41c-28.79 0-56.71-5.64-83-16.75-25.39-10.74-48.19-26.12-67.78-45.7-19.59-19.59-34.96-42.39-45.7-67.78-11.12-26.28-16.75-54.21-16.75-83V20.63zm0-9.86H14.17v223.09c0 123.21 99.88 223.09 223.09 223.09h92.41c123.21 0 223.09-99.88 223.09-223.09S452.88 10.77 329.67 10.77" class="cls-2"/><path d="m137.16 183.16-25.58 6.07-8.02-32.51 44.43-12.57h30.56v152.81h-41.4V183.17ZM199.37 255.12v-.43c0-18.42 9.54-29.48 25.79-36.41-11.49-6.5-20.59-16.69-20.59-33.16v-.43c0-24.06 22.98-42.05 57.01-42.05s57.22 17.99 57.22 42.05v.43c0 16.47-9.1 26.66-20.81 33.16 15.39 7.15 26.01 17.34 26.01 35.98v.43c0 27.31-26.01 44.87-62.42 44.87s-62.21-17.99-62.21-44.43Zm84.09-4.12v-.43c0-9.97-8.89-16.69-21.89-16.69s-21.89 6.72-21.89 16.69v.43c0 9.1 7.8 17.12 21.89 17.12s21.89-8.02 21.89-17.12m-3.03-60.9v-.43c0-8.45-7.15-16.04-18.86-16.04s-18.64 7.59-18.64 16.04v.43c0 9.54 7.37 16.69 18.64 16.69s18.86-7.15 18.86-16.69M337 265.31l56.79-43.35c14.09-11.05 19.72-18.21 19.72-27.31 0-9.75-6.72-15.61-17.12-15.61s-18.21 6.07-30.13 19.72l-28.39-23.62c16.26-21.03 32.51-32.51 61.77-32.51 33.16 0 55.92 19.72 55.92 48.33v.43c0 24.28-12.57 36.85-35.11 53.1l-26.01 18.21h62.64v34.25H337V265.3ZM115.38 401.34s125.76-83.21 385.05-53.98l-42.08 47.23-49.48 30.36-49.48 12.37-68.59 4.5h-64.1l-57.35-11.24-53.98-29.24Z" class="cls-1"/></svg>