<svg xmlns="http://www.w3.org/2000/svg" id="Calque_1" data-name="Calque 1" viewBox="0 0 566.93 467.72"><defs><style>.cls-1{fill:#fff}.cls-2{fill:#484f54}</style></defs><path d="M237.26 445.57c-116.74 0-211.71-94.97-211.71-211.71V22.15h304.12c116.74 0 211.71 94.97 211.71 211.71s-94.97 211.71-211.71 211.71z" class="cls-1"/><path d="M329.67 33.53c27.05 0 53.29 5.29 77.97 15.73 23.85 10.09 45.28 24.54 63.68 42.94 18.41 18.41 32.85 39.83 42.94 63.68 10.44 24.68 15.73 50.92 15.73 77.97s-5.29 53.29-15.73 77.97c-10.09 23.85-24.54 45.28-42.94 63.68-18.41 18.41-39.83 32.85-63.68 42.94-24.68 10.44-50.92 15.73-77.97 15.73h-92.41c-27.05 0-53.29-5.29-77.97-15.73-23.85-10.09-45.28-24.54-63.68-42.94-18.41-18.41-32.85-39.83-42.94-63.68-10.44-24.68-15.73-50.92-15.73-77.97V33.53h292.74m0-22.76H14.17v223.09c0 123.21 99.88 223.09 223.09 223.09h92.41c123.21 0 223.09-99.88 223.09-223.09S452.88 10.77 329.67 10.77Z" class="cls-2"/><path d="M329.67 20.63c28.79 0 56.71 5.64 83 16.75 25.39 10.74 48.19 26.12 67.78 45.7 19.59 19.59 34.96 42.39 45.7 67.78 11.12 26.28 16.75 54.21 16.75 83s-5.64 56.71-16.75 83c-10.74 25.39-26.11 48.19-45.7 67.78s-42.39 34.96-67.78 45.7c-26.28 11.12-54.21 16.75-83 16.75h-92.41c-28.79 0-56.71-5.64-83-16.75-25.39-10.74-48.19-26.12-67.78-45.7-19.59-19.59-34.96-42.39-45.7-67.78-11.12-26.28-16.75-54.21-16.75-83V20.63zm0-9.86H14.17v223.09c0 123.21 99.88 223.09 223.09 223.09h92.41c123.21 0 223.09-99.88 223.09-223.09S452.88 10.77 329.67 10.77" class="cls-1"/><path d="M133.58 183.16 108 189.23l-8.02-32.51 44.43-12.57h30.56v152.81h-41.4V183.17Zm148.69 50.29c-9.32 8.67-20.37 12.36-32.3 12.36-29.26 0-50.94-18.42-50.94-48.12v-.43c0-33.38 25.79-55.05 60.47-55.05 22.11 0 35.11 6.07 46.6 17.56 11.05 11.05 18.21 28.39 18.21 56.36v.43c0 49.42-24.71 83.45-70.01 83.45-22.76 0-39.02-7.15-53.1-17.99l19.72-29.04c10.62 8.24 20.59 12.14 32.51 12.14 22.11 0 27.74-19.51 28.83-31.65Zm.43-37.5v-.43c0-11.7-8.45-20.81-21.68-20.81s-21.24 8.89-21.24 20.59v.43c0 11.49 8.45 19.94 21.68 19.94s21.24-8.67 21.24-19.72m53.76 79.98 24.06-28.18c12.14 10.4 23.84 16.47 36.85 16.47 13.87 0 22.11-6.94 22.11-17.77v-.43c0-11.05-9.1-17.56-22.33-17.56-9.32 0-17.12 3.25-24.28 7.59l-24.93-14.09 4.33-76.73h101.44v34.68h-68.28l-1.3 22.98c6.94-3.25 14.09-5.42 24.28-5.42 27.31 0 52.02 15.17 52.02 48.12v.43c0 33.6-25.79 53.97-62.64 53.97-26.88 0-45.52-9.32-61.34-24.06ZM115.38 401.34s125.76-83.21 385.05-53.98l-42.08 47.23-49.48 30.36-49.48 12.37-68.59 4.5h-64.1l-57.35-11.24-53.98-29.24Z" class="cls-2"/></svg>