<svg xmlns="http://www.w3.org/2000/svg" id="Calque_1" data-name="Calque 1" viewBox="0 0 566.93 467.72"><defs><style>.cls-1{fill:#fff}.cls-3{fill:#8c2223}</style></defs><path d="M237.26 456.03c-58.27 0-113.06-22.69-154.26-63.9-41.2-41.21-63.9-95.99-63.9-154.26V19.71h310.57c58.27 0 113.06 22.69 154.26 63.9 41.21 41.2 63.9 95.99 63.9 154.26s-22.69 113.06-63.9 154.26c-41.2 41.2-95.99 63.9-154.26 63.9h-92.41Z" style="fill:#e7343f"/><path d="M329.67 24.64c28.79 0 56.71 5.64 83 16.75 25.39 10.74 48.19 26.12 67.78 45.7 19.59 19.59 34.96 42.39 45.7 67.78 11.12 26.28 16.75 54.21 16.75 83s-5.64 56.71-16.75 83c-10.74 25.39-26.11 48.19-45.7 67.78-19.59 19.59-42.39 34.96-67.78 45.7-26.28 11.12-54.21 16.75-83 16.75h-92.41c-28.79 0-56.71-5.64-83-16.75-25.39-10.74-48.19-26.11-67.78-45.7-19.59-19.59-34.96-42.39-45.7-67.78-11.12-26.28-16.75-54.21-16.75-83V24.64h305.64m0-9.86H14.17v223.09c0 123.21 99.88 223.09 223.09 223.09h92.41c123.21 0 223.09-99.88 223.09-223.09 0-123.21-99.88-223.09-223.09-223.09Z" class="cls-1"/><path d="m220.83 283.99 57.92-44.22c14.37-11.28 20.12-18.57 20.12-27.86 0-9.95-6.85-15.92-17.47-15.92s-18.57 6.19-30.73 20.12l-28.96-24.1c16.58-21.45 33.16-33.16 63.01-33.16 33.83 0 57.04 20.12 57.04 49.3v.44c0 24.76-12.82 37.58-35.82 54.17l-26.53 18.57h63.89v34.93H220.82v-32.28ZM360.55 239.33v-.44c0-43.77 27.86-80.47 71.85-80.47s71.41 36.26 71.41 80.03v.44c0 43.77-27.64 80.47-71.85 80.47s-71.41-36.26-71.41-80.03Zm100.15 0v-.44c0-24.76-11.5-42.67-28.74-42.67s-28.3 17.47-28.3 42.23v.44c0 24.76 11.5 42.45 28.74 42.45s28.3-17.47 28.3-42.01ZM70.59 281.49h108.56l-6.07 33.44H64.52l6.07-33.44ZM82.73 223.13h78.22l-6.07 33.44H76.66l6.07-33.44ZM94.86 164.77h108.56l-6.07 33.44H88.79l6.07-33.44Z" class="cls-3"/><path d="m231.59 273.23 57.92-44.22c14.37-11.28 20.12-18.57 20.12-27.86 0-9.95-6.85-15.92-17.47-15.92s-18.57 6.19-30.73 20.12l-28.96-24.1c16.58-21.45 33.16-33.16 63.01-33.16 33.83 0 57.04 20.12 57.04 49.3v.44c0 24.76-12.82 37.58-35.82 54.17l-26.53 18.57h63.89v34.93H231.58v-32.28ZM371.31 228.57v-.44c0-43.77 27.86-80.47 71.85-80.47s71.41 36.26 71.41 80.03v.44c0 43.77-27.64 80.47-71.85 80.47s-71.41-36.26-71.41-80.03Zm100.15 0v-.44c0-24.76-11.5-42.67-28.74-42.67s-28.3 17.47-28.3 42.23v.44c0 24.76 11.5 42.45 28.74 42.45s28.3-17.47 28.3-42.01ZM81.36 270.73h108.56l-6.07 33.44H75.29l6.07-33.44ZM93.49 212.37h78.22l-6.07 33.44H87.42l6.07-33.44ZM105.63 154h108.56l-6.07 33.44H99.56l6.07-33.44Z" class="cls-1"/></svg>