<svg xmlns="http://www.w3.org/2000/svg" id="Calque_1" data-name="Calque 1" viewBox="0 0 566.93 467.72"><defs><style>.cls-1{fill:#fff}.cls-2{fill:#484f54}</style></defs><path d="M237.26 445.57c-116.74 0-211.71-94.97-211.71-211.71V22.15h304.12c116.74 0 211.71 94.97 211.71 211.71s-94.97 211.71-211.71 211.71h-92.41Z" class="cls-1"/><path d="M329.67 33.53c27.05 0 53.29 5.29 77.97 15.73 23.85 10.09 45.28 24.54 63.68 42.94 18.41 18.41 32.85 39.83 42.94 63.68 10.44 24.68 15.73 50.92 15.73 77.97s-5.29 53.29-15.73 77.97c-10.09 23.85-24.54 45.28-42.94 63.69-18.41 18.41-39.83 32.85-63.68 42.94-24.68 10.44-50.92 15.73-77.97 15.73h-92.41c-27.05 0-53.29-5.29-77.97-15.73-23.85-10.09-45.28-24.54-63.68-42.94-18.41-18.41-32.85-39.83-42.94-63.69-10.44-24.68-15.73-50.92-15.73-77.97V33.53h292.74m0-22.76H14.17v223.09c0 123.21 99.88 223.09 223.09 223.09h92.41c123.21 0 223.09-99.88 223.09-223.09 0-123.21-99.88-223.09-223.09-223.09Z" class="cls-2"/><path d="M329.67 20.63c28.79 0 56.71 5.64 83 16.75 25.39 10.74 48.19 26.12 67.78 45.7 19.59 19.59 34.96 42.39 45.7 67.78 11.12 26.28 16.75 54.21 16.75 83s-5.64 56.71-16.75 83c-10.74 25.39-26.12 48.19-45.7 67.78-19.59 19.59-42.39 34.96-67.78 45.7-26.28 11.12-54.21 16.75-83 16.75h-92.41c-28.79 0-56.71-5.64-83-16.75-25.39-10.74-48.19-26.12-67.78-45.7-19.59-19.59-34.96-42.39-45.7-67.78-11.12-26.28-16.75-54.21-16.75-83V20.63h305.64m0-9.86H14.17v223.09c0 123.21 99.88 223.09 223.09 223.09h92.41c123.21 0 223.09-99.88 223.09-223.09 0-123.21-99.88-223.09-223.09-223.09Z" class="cls-1"/><path d="m75.39 265.31 56.79-43.35c14.09-11.05 19.72-18.21 19.72-27.31 0-9.75-6.72-15.61-17.12-15.61s-18.21 6.07-30.13 19.72l-28.39-23.63c16.26-21.02 32.51-32.51 61.77-32.51 33.16 0 55.92 19.72 55.92 48.34v.43c0 24.28-12.57 36.85-35.11 53.1l-26.01 18.21h62.64v34.25H75.39v-31.64ZM209.12 221.52v-.43c0-42.92 27.31-78.9 70.44-78.9s70.01 35.55 70.01 78.46v.43c0 42.92-27.09 78.9-70.44 78.9s-70.01-35.55-70.01-78.46Zm98.19 0v-.43c0-24.28-11.27-41.83-28.18-41.83s-27.74 17.12-27.74 41.4v.43c0 24.28 11.27 41.62 28.18 41.62s27.74-17.12 27.74-41.18ZM382.73 282.65c-11.27-11.27-18.64-28.39-18.64-56.79v-.43c0-47.25 22.98-83.23 70.44-83.23 21.24 0 35.98 5.85 50.5 16.69l-19.72 29.48c-9.32-6.94-17.99-11.49-30.13-11.49-21.89 0-27.53 20.38-28.61 32.51 9.75-7.59 19.72-11.71 32.73-11.71 26.66 0 50.07 16.91 50.07 47.25v.43c0 33.81-27.09 54.62-60.26 54.62-21.46 0-35.33-6.5-46.38-17.34Zm65.89-34.9v-.43c0-11.05-8.45-19.51-21.68-19.51s-21.02 8.24-21.02 19.29v.43c0 11.05 8.24 19.72 21.46 19.72s21.24-8.45 21.24-19.51ZM115.38 401.34s125.76-83.21 385.05-53.98l-42.08 47.23-49.48 30.36-49.48 12.37-68.59 4.5h-64.1l-57.35-11.24-53.98-29.24Z" class="cls-2"/></svg>