<?xml version="1.0" encoding="utf-8"?>
<!-- Generator: Adobe Illustrator 27.6.1, SVG Export Plug-In . SVG Version: 6.00 Build 0)  -->
<svg version="1.1" id="Cartouche" xmlns="http://www.w3.org/2000/svg" xmlns:xlink="http://www.w3.org/1999/xlink" x="0px" y="0px"
	 viewBox="0 0 512 512" style="enable-background:new 0 0 512 512;" xml:space="preserve">
<style type="text/css">
	.st0{fill:#F2E500;}
	.st1{fill:#1D1D1B;}
</style>
<rect class="st0" width="512" height="512"/>
<g>
	<path class="st1" d="M26.41,394.32v-26.13c0-13,1.16-24.7,3.49-35.1c2.33-10.4,5.62-19.89,9.88-28.47
		c4.26-8.58,9.45-16.51,15.55-23.79c6.1-7.28,13.03-14.43,20.78-21.45l15.98-14.04c4.65-4.42,8.86-8.32,12.64-11.7
		c3.78-3.38,6.97-7.02,9.59-10.92c2.62-3.9,4.65-8.38,6.1-13.46c1.45-5.07,2.18-11.24,2.18-18.52c0-26.52-10.08-39.78-30.22-39.78
		c-9.49,0-17.73,2.86-24.7,8.58c-6.97,5.72-13.56,12.09-19.76,19.11l-17.44-40.17c12.01-10.66,23.34-18.14,34-22.43
		c10.65-4.29,21.89-6.44,33.71-6.44c19.18,0,34.53,6.76,46.06,20.28c11.52,13.52,17.29,33.67,17.29,60.45
		c0,11.7-1.45,21.84-4.36,30.42c-2.91,8.58-6.73,16.25-11.48,23.01c-4.75,6.76-10.08,12.87-15.98,18.33
		c-5.91,5.46-11.87,10.92-17.87,16.38l-19.18,17.55c-9.5,8.32-16.62,16.96-21.36,25.94c-4.75,8.97-7.51,18.01-8.28,27.1h99.39v45.24
		H26.41z"/>
	<path class="st1" d="M188,394.32v-26.13c0-13,1.16-24.7,3.49-35.1c2.33-10.4,5.62-19.89,9.88-28.47
		c4.26-8.58,9.45-16.51,15.55-23.79c6.1-7.28,13.03-14.43,20.78-21.45l15.98-14.04c4.65-4.42,8.86-8.32,12.64-11.7
		c3.78-3.38,6.97-7.02,9.59-10.92c2.62-3.9,4.65-8.38,6.1-13.46c1.45-5.07,2.18-11.24,2.18-18.52c0-26.52-10.08-39.78-30.22-39.78
		c-9.49,0-17.73,2.86-24.7,8.58c-6.97,5.72-13.56,12.09-19.76,19.11l-17.44-40.17c12.01-10.66,23.34-18.14,34-22.43
		c10.65-4.29,21.89-6.44,33.71-6.44c19.18,0,34.53,6.76,46.06,20.28c11.53,13.52,17.29,33.67,17.29,60.45
		c0,11.7-1.45,21.84-4.36,30.42c-2.91,8.58-6.73,16.25-11.48,23.01c-4.75,6.76-10.08,12.87-15.98,18.33
		c-5.91,5.46-11.87,10.92-17.87,16.38l-19.18,17.55c-9.49,8.32-16.61,16.96-21.36,25.94c-4.75,8.97-7.51,18.01-8.28,27.1H324v45.24
		H188z"/>
	<path class="st1" d="M489.66,316.71c0,12.74-1.89,24.18-5.67,34.32s-8.96,18.79-15.55,25.93c-6.59,7.15-14.39,12.61-23.39,16.38
		c-9.01,3.77-18.84,5.65-29.5,5.65c-8.72,0-17.29-1.56-25.72-4.68c-8.43-3.12-15.98-7.93-22.67-14.43
		c-6.68-6.5-12.06-14.56-16.13-24.18c-4.07-9.62-6.1-20.93-6.1-33.93c0-18.46,3.92-33.34,11.77-44.66
		c7.85-11.31,17.97-20.08,30.37-26.32c-5.04-3.38-9.79-7.15-14.24-11.31c-4.46-4.16-8.33-8.84-11.62-14.04
		c-3.3-5.2-5.86-11.11-7.7-17.75c-1.84-6.63-2.76-13.97-2.76-22.03c0-12.48,1.89-23.46,5.67-32.96c3.78-9.49,8.81-17.42,15.11-23.79
		c6.29-6.37,13.46-11.18,21.51-14.43c8.04-3.25,16.42-4.88,25.14-4.88c9.1,0,17.63,1.69,25.57,5.07
		c7.94,3.38,14.87,8.19,20.78,14.43c5.91,6.24,10.56,13.72,13.95,22.43c3.39,8.71,5.09,18.4,5.09,29.05c0,8.84-1.07,16.64-3.2,23.4
		c-2.13,6.76-4.9,12.74-8.28,17.94c-3.39,5.2-7.27,9.62-11.62,13.26c-4.36,3.64-8.77,6.89-13.22,9.75
		c5.81,3.64,11.28,7.67,16.42,12.09c5.13,4.42,9.64,9.56,13.51,15.41c3.87,5.85,6.93,12.42,9.16,19.7
		C488.54,299.42,489.66,307.61,489.66,316.71z M450.13,319.83c0-7.54-1.12-13.97-3.34-19.3c-2.23-5.33-5.14-10.01-8.72-14.04
		c-3.59-4.03-7.66-7.47-12.21-10.33c-4.55-2.86-9.15-5.59-13.8-8.19c-8.33,5.2-14.87,12.03-19.62,20.48
		c-4.75,8.45-7.12,18.92-7.12,31.39c0,12.48,3.05,22.17,9.15,29.06c6.1,6.89,13.61,10.33,22.52,10.33c4.46,0,8.67-0.91,12.64-2.73
		c3.97-1.82,7.51-4.42,10.61-7.8c3.1-3.38,5.52-7.47,7.27-12.29C449.26,331.6,450.13,326.07,450.13,319.83z M389.1,183.33
		c0,6.5,0.97,12.16,2.91,16.97c1.93,4.81,4.41,9.04,7.41,12.67c3,3.64,6.44,6.76,10.32,9.36c3.87,2.6,7.75,5.07,11.62,7.41
		c6.97-4.68,12.5-10.79,16.57-18.33c4.07-7.54,6.1-16.9,6.1-28.08c0-10.92-2.62-19.5-7.85-25.74c-5.23-6.24-11.53-9.36-18.89-9.36
		c-7.56,0-14.15,3.12-19.76,9.36C391.91,163.83,389.1,172.41,389.1,183.33z"/>
</g>
</svg>
