<svg xmlns="http://www.w3.org/2000/svg" id="Calque_1" data-name="Calque 1" viewBox="0 0 566.93 467.72"><defs><style>.cls-1{fill:#fff}.cls-3{fill:#92502a}</style></defs><path d="M237.26 452.02c-58.27 0-113.06-22.69-154.26-63.9-41.21-41.2-63.9-95.99-63.9-154.26V15.7h310.57c58.27 0 113.06 22.69 154.26 63.9 41.21 41.2 63.9 95.99 63.9 154.26s-22.69 113.06-63.9 154.26c-41.2 41.2-95.99 63.9-154.26 63.9h-92.41Z" style="fill:#f08046"/><path d="M329.67 20.63c28.79 0 56.71 5.64 83 16.75 25.39 10.74 48.19 26.12 67.78 45.7 19.59 19.59 34.96 42.39 45.7 67.78 11.12 26.28 16.75 54.21 16.75 83s-5.64 56.71-16.75 83c-10.74 25.39-26.12 48.19-45.7 67.78-19.59 19.59-42.39 34.96-67.78 45.7-26.28 11.12-54.21 16.75-83 16.75h-92.41c-28.79 0-56.71-5.64-83-16.75-25.39-10.74-48.19-26.11-67.78-45.7-19.59-19.59-34.96-42.39-45.7-67.78-11.12-26.28-16.75-54.21-16.75-83V20.63h305.64m0-9.86H14.17v223.09c0 123.21 99.88 223.09 223.09 223.09h92.41c123.21 0 223.09-99.88 223.09-223.09 0-123.21-99.88-223.09-223.09-223.09Z" class="cls-1"/><path d="m224.85 279.98 57.92-44.22c14.37-11.28 20.12-18.57 20.12-27.86 0-9.95-6.85-15.92-17.47-15.92s-18.57 6.19-30.73 20.12L225.73 188c16.58-21.45 33.16-33.16 63.01-33.16 33.83 0 57.04 20.12 57.04 49.3v.44c0 24.76-12.82 37.58-35.82 54.17l-26.53 18.57h63.89v34.93H224.84v-32.28ZM359.49 287.94l27.19-26.97c11.05 11.28 22.55 17.69 36.92 17.69 12.16 0 19.68-6.19 19.68-15.7v-.44c0-9.95-8.84-15.92-25.2-15.92h-18.13l-5.97-22.33 35.37-32.06h-59.03V157.5h111.65v30.51l-36.92 31.84c22.11 4.86 40.02 17.02 40.02 43.55v.44c0 31.39-25.2 51.51-59.69 51.51-29.85 0-50.63-10.83-65.88-27.41ZM86.65 277.48h108.56l-6.07 33.44H80.58l6.07-33.44ZM98.78 219.12H177l-6.07 33.44H92.71l6.07-33.44ZM110.92 160.75h108.56l-6.07 33.44H104.85l6.07-33.44Z" class="cls-3"/><path d="M97.41 266.72h108.56l-6.07 33.44H91.34l6.07-33.44ZM109.55 208.35h78.22l-6.07 33.44h-78.22l6.07-33.44ZM121.68 149.99h108.56l-6.07 33.44H115.61l6.07-33.44ZM235.61 269.22 293.53 225c14.37-11.28 20.12-18.57 20.12-27.86 0-9.95-6.85-15.92-17.47-15.92s-18.57 6.19-30.73 20.12l-28.96-24.1c16.58-21.45 33.16-33.16 63.01-33.16 33.83 0 57.04 20.12 57.04 49.3v.44c0 24.76-12.82 37.58-35.82 54.17l-26.53 18.57h63.89v34.93H235.6v-32.28ZM370.25 277.18l27.19-26.97c11.05 11.28 22.55 17.69 36.92 17.69 12.16 0 19.68-6.19 19.68-15.7v-.44c0-9.95-8.84-15.92-25.2-15.92h-18.13l-5.97-22.33 35.37-32.06h-59.03v-34.71h111.65v30.51l-36.92 31.84c22.11 4.86 40.02 17.02 40.02 43.55v.44c0 31.39-25.2 51.51-59.69 51.51-29.85 0-50.63-10.83-65.88-27.41Z" class="cls-1"/></svg>