<svg xmlns="http://www.w3.org/2000/svg" id="Calque_1" data-name="Calque 1" viewBox="0 0 566.93 467.72"><defs><style>.cls-2{fill:#006867}.cls-3{fill:#fff}</style></defs><path d="M237.26 452.02c-58.27 0-113.06-22.69-154.26-63.9-41.21-41.2-63.9-95.99-63.9-154.26V15.7h310.57c58.27 0 113.06 22.69 154.26 63.9 41.21 41.2 63.9 95.99 63.9 154.26s-22.69 113.06-63.9 154.26c-41.2 41.2-95.99 63.9-154.26 63.9h-92.41Z" style="fill:#00a7a7"/><path d="M329.67 20.63c28.79 0 56.71 5.64 83 16.75 25.39 10.74 48.19 26.12 67.78 45.7 19.59 19.59 34.96 42.39 45.7 67.78 11.12 26.28 16.75 54.21 16.75 83s-5.64 56.71-16.75 83c-10.74 25.39-26.12 48.19-45.7 67.78-19.59 19.59-42.39 34.96-67.78 45.7-26.28 11.12-54.21 16.75-83 16.75h-92.41c-28.79 0-56.71-5.64-83-16.75-25.39-10.74-48.19-26.11-67.78-45.7-19.59-19.59-34.96-42.39-45.7-67.78-11.12-26.28-16.75-54.21-16.75-83V20.63h305.64m0-9.86H14.17v223.09c0 123.21 99.88 223.09 223.09 223.09h92.41c123.21 0 223.09-99.88 223.09-223.09 0-123.21-99.88-223.09-223.09-223.09Z" class="cls-3"/><path d="M70.59 277.48h108.56l-6.07 33.44H64.52l6.07-33.44ZM82.73 219.12h78.22l-6.07 33.44H76.66l6.07-33.44ZM94.86 160.75h108.56l-6.07 33.44H88.79l6.07-33.44ZM218.98 279.98l57.92-44.22c14.37-11.28 20.12-18.57 20.12-27.86 0-9.95-6.85-15.92-17.47-15.92s-18.57 6.19-30.73 20.12L219.86 188c16.58-21.45 33.16-33.16 63.01-33.16 33.83 0 57.04 20.12 57.04 49.3v.44c0 24.76-12.82 37.58-35.82 54.17l-26.53 18.57h63.89v34.93H218.97v-32.28ZM431.44 282.19h-75.17l-6.85-30.29 80.25-95.51h43.11v93.74h19.68v32.06h-19.68v30.07h-41.34v-30.07Zm0-31.84v-44.66l-37.14 44.66h37.14Z" class="cls-2"/><path d="M81.36 266.72h108.56l-6.07 33.44H75.29l6.07-33.44ZM93.49 208.35h78.22l-6.07 33.44H87.42l6.07-33.44ZM105.63 149.99h108.56l-6.07 33.44H99.56l6.07-33.44ZM229.75 269.22 287.67 225c14.37-11.28 20.12-18.57 20.12-27.86 0-9.95-6.85-15.92-17.47-15.92s-18.57 6.19-30.73 20.12l-28.96-24.1c16.58-21.45 33.16-33.16 63.01-33.16 33.83 0 57.04 20.12 57.04 49.3v.44c0 24.76-12.82 37.58-35.82 54.17l-26.53 18.57h63.89v34.93H229.74v-32.28ZM442.2 271.43h-75.17l-6.85-30.29 80.25-95.51h43.11v93.74h19.68v32.06h-19.68v30.07H442.2v-30.07Zm0-31.84v-44.66l-37.14 44.66h37.14Z" class="cls-3"/></svg>