<svg id="Calque_1" data-name="Calque 1" xmlns="http://www.w3.org/2000/svg" viewBox="0 0 528.8 436.4"><defs><style>.cls-1{fill:#e5bb24;}.cls-2{fill:#ae7616;}.cls-3{fill:#fff;}</style></defs><path class="cls-1" d="M223.1,441.2A218.17,218.17,0,0,1,4.9,223.1V4.9H315.5A218.21,218.21,0,0,1,469.8,377.4a216.79,216.79,0,0,1-154.3,63.9H223.1Z" transform="translate(-4.9 -4.9)"/><path class="cls-2" d="M56.4,267.2H165l-6.1,33.5H50.3Zm12.2-58.3h78.2l-6.1,33.4H62.5Zm12.1-58.4H189.3L183.2,184H74.6ZM204.8,269.7l57.9-44.2c14.4-11.3,20.1-18.6,20.1-27.9s-6.8-15.9-17.5-15.9-18.6,6.2-30.7,20.1l-29-24.1c16.6-21.4,33.2-33.2,63-33.2s57,20.1,57,49.3v.4c0,24.8-12.8,37.6-35.8,54.2L263.3,267h63.9v34.9H204.7V269.6Z" transform="translate(-4.9 -4.9)"/><path class="cls-3" d="M67.2,256.5H175.8l-6.1,33.4H61.1Zm12.1-58.4h78.3l-6.1,33.5H73.3Zm12.2-58.3H200l-6,33.4H85.4ZM215.6,259l57.9-44.2c14.4-11.3,20.1-18.6,20.1-27.9S286.8,171,276.1,171s-18.6,6.2-30.7,20.1l-29-24.1c16.6-21.4,33.2-33.2,63-33.2s57,20.1,57,49.3v.4c0,24.8-12.8,37.6-35.8,54.2l-26.5,18.6H338v34.9H215.5V258.9Z" transform="translate(-4.9 -4.9)"/><path class="cls-2" d="M336.2,287.1l25.2-29.5c12.7,10.9,24.9,17.2,38.5,17.2s23.1-7.3,23.1-18.6v-.5c0-11.6-9.5-18.4-23.4-18.4s-17.9,3.4-25.4,7.9l-26.1-14.7,4.5-80.3H458.7v36.3H387.3l-1.4,24a55.76,55.76,0,0,1,25.4-5.7c28.6,0,54.4,15.9,54.4,50.4v.4c0,35.1-27,56.5-65.5,56.5s-47.6-9.7-64.2-25.2Z" transform="translate(-4.9 -4.9)"/><path class="cls-3" d="M345.2,275l25.2-29.5c12.7,10.9,24.9,17.2,38.5,17.2s23.1-7.3,23.1-18.6v-.5c0-11.6-9.5-18.4-23.4-18.4s-17.9,3.4-25.4,7.9l-26.1-14.7,4.5-80.3H467.7v36.3H396.3l-1.4,24a56.07,56.07,0,0,1,25.4-5.7c28.6,0,54.4,15.9,54.4,50.4v.4c0,35.1-27,56.5-65.5,56.5s-47.6-9.8-64.2-25.2Z" transform="translate(-4.9 -4.9)"/></svg>