<?xml version="1.0" encoding="utf-8"?>
<!-- Generator: Adobe Illustrator 27.6.1, SVG Export Plug-In . SVG Version: 6.00 Build 0)  -->
<svg version="1.1" id="Cartouche" xmlns="http://www.w3.org/2000/svg" xmlns:xlink="http://www.w3.org/1999/xlink" x="0px" y="0px"
	 viewBox="0 0 512 512" style="enable-background:new 0 0 512 512;" xml:space="preserve">
<style type="text/css">
	.st0{fill:#D3D400;}
	.st1{fill:#1D1D1B;}
</style>
<rect class="st0" width="512" height="512"/>
<g>
	<path class="st1" d="M164.75,307.35c0,14.3-1.94,27.1-5.81,38.42c-3.88,11.31-9.25,20.93-16.13,28.86
		c-6.88,7.93-15.02,13.98-24.41,18.14c-9.4,4.16-19.62,6.24-30.66,6.24c-15.11,0-28.33-3.9-39.67-11.7
		c-11.33-7.8-21.27-20.67-29.79-38.61l28.77-28.86c4.45,11.44,9.74,20.74,15.84,27.88c6.1,7.15,14.77,10.73,26.01,10.73
		c12.01,0,21.26-4.49,27.75-13.46c6.49-8.97,9.74-20.6,9.74-34.91c0-14.82-3.44-25.67-10.32-32.56
		c-6.88-6.89-15.84-10.33-26.88-10.33c-8.53,0-15.69,0.78-21.51,2.34v-43.29h9.59c4.45,0,8.76-0.2,12.93-0.58
		c4.16-0.39,8.09-1.49,11.77-3.32c4.84-2.34,8.72-6.37,11.62-12.09c2.91-5.72,4.36-13.91,4.36-24.57c0-11.44-2.76-20.21-8.28-26.33
		c-5.52-6.11-13.03-9.17-22.52-9.17c-4.85,0-9.35,0.78-13.51,2.34c-4.17,1.56-7.99,3.58-11.48,6.04c-3.49,2.47-6.64,5.2-9.44,8.19
		c-2.81,2.99-5.38,5.79-7.7,8.38l-17.15-39c9.88-8.58,20.1-15.14,30.66-19.69c10.56-4.55,21.75-6.83,33.57-6.83
		c8.72,0,16.9,1.37,24.56,4.1c7.65,2.73,14.39,7.02,20.2,12.87c5.81,5.85,10.41,13.13,13.8,21.84c3.39,8.71,5.09,19.18,5.09,31.4
		c0,7.28-0.87,13.98-2.62,20.08c-1.74,6.11-4.07,11.64-6.97,16.58c-2.91,4.94-6.25,9.23-10.03,12.87c-3.78,3.64-7.7,6.63-11.77,8.97
		v1.17c5.04,1.3,9.93,3.71,14.68,7.21c4.75,3.51,9.05,8.06,12.93,13.65c3.87,5.59,6.97,12.29,9.3,20.08
		C163.58,288.24,164.75,297.21,164.75,307.35z"/>
	<path class="st1" d="M326.33,307.35c0,14.3-1.94,27.1-5.81,38.42c-3.88,11.31-9.26,20.93-16.13,28.86
		c-6.88,7.93-15.02,13.98-24.41,18.14c-9.4,4.16-19.62,6.24-30.66,6.24c-15.11,0-28.33-3.9-39.67-11.7
		c-11.33-7.8-21.27-20.67-29.79-38.61l28.77-28.86c4.45,11.44,9.74,20.74,15.84,27.88c6.1,7.15,14.77,10.73,26.01,10.73
		c12.01,0,21.26-4.49,27.75-13.46c6.49-8.97,9.73-20.6,9.73-34.91c0-14.82-3.44-25.67-10.32-32.56
		c-6.88-6.89-15.84-10.33-26.88-10.33c-8.53,0-15.69,0.78-21.51,2.34v-43.29h9.59c4.45,0,8.76-0.2,12.93-0.58
		c4.16-0.39,8.09-1.49,11.77-3.32c4.84-2.34,8.72-6.37,11.62-12.09c2.91-5.72,4.36-13.91,4.36-24.57c0-11.44-2.76-20.21-8.28-26.33
		c-5.52-6.11-13.03-9.17-22.52-9.17c-4.85,0-9.35,0.78-13.51,2.34c-4.17,1.56-7.99,3.58-11.48,6.04c-3.49,2.47-6.64,5.2-9.44,8.19
		c-2.81,2.99-5.38,5.79-7.7,8.38l-17.15-39c9.88-8.58,20.1-15.14,30.66-19.69c10.56-4.55,21.75-6.83,33.57-6.83
		c8.72,0,16.9,1.37,24.56,4.1c7.65,2.73,14.38,7.02,20.2,12.87s10.41,13.13,13.8,21.84c3.39,8.71,5.09,19.18,5.09,31.4
		c0,7.28-0.87,13.98-2.62,20.08c-1.74,6.11-4.07,11.64-6.97,16.58c-2.91,4.94-6.25,9.23-10.03,12.87c-3.78,3.64-7.7,6.63-11.77,8.97
		v1.17c5.04,1.3,9.93,3.71,14.68,7.21c4.75,3.51,9.05,8.06,12.93,13.65c3.88,5.59,6.98,12.29,9.3,20.08S326.33,297.21,326.33,307.35
		z"/>
	<path class="st1" d="M349.58,394.32v-26.13c0-13,1.16-24.7,3.49-35.1c2.33-10.4,5.62-19.89,9.88-28.47
		c4.26-8.58,9.45-16.51,15.55-23.79c6.1-7.28,13.03-14.43,20.78-21.45l15.98-14.04c4.65-4.42,8.86-8.32,12.64-11.7
		c3.78-3.38,6.97-7.02,9.59-10.92c2.62-3.9,4.65-8.38,6.1-13.46c1.45-5.07,2.18-11.24,2.18-18.52c0-26.52-10.08-39.78-30.22-39.78
		c-9.5,0-17.73,2.86-24.7,8.58c-6.97,5.72-13.56,12.09-19.76,19.11l-17.44-40.17c12.01-10.66,23.34-18.14,34-22.43
		c10.65-4.29,21.89-6.44,33.71-6.44c19.18,0,34.53,6.76,46.06,20.28c11.53,13.52,17.29,33.67,17.29,60.45
		c0,11.7-1.45,21.84-4.36,30.42c-2.91,8.58-6.73,16.25-11.48,23.01c-4.75,6.76-10.08,12.87-15.98,18.33
		c-5.91,5.46-11.87,10.92-17.87,16.38l-19.18,17.55c-9.5,8.32-16.62,16.96-21.36,25.94c-4.75,8.97-7.51,18.01-8.28,27.1h99.39v45.24
		H349.58z"/>
</g>
</svg>
