<?xml version="1.0" encoding="utf-8"?>
<!-- Generator: Adobe Illustrator 27.6.1, SVG Export Plug-In . SVG Version: 6.00 Build 0)  -->
<svg version="1.1" id="Cartouche" xmlns="http://www.w3.org/2000/svg" xmlns:xlink="http://www.w3.org/1999/xlink" x="0px" y="0px"
	 viewBox="0 0 512 512" style="enable-background:new 0 0 512 512;" xml:space="preserve">
<style type="text/css">
	.st0{fill:#D3D800;}
	.st1{fill:#1D1D1B;}
</style>
<rect class="st0" width="512" height="512"/>
<g>
	<path class="st1" d="M241.96,307.35c0,14.3-2.6,27.11-7.8,38.42c-5.2,11.31-12.42,20.93-21.65,28.86
		c-9.23,7.93-20.15,13.98-32.76,18.13c-12.61,4.16-26.33,6.24-41.15,6.24c-20.28,0-38.03-3.9-53.24-11.7s-28.54-20.67-39.97-38.61
		l38.61-28.86c5.98,11.44,13.06,20.74,21.25,27.88c8.19,7.15,19.82,10.73,34.9,10.73c16.12,0,28.53-4.49,37.25-13.46
		c8.71-8.97,13.06-20.6,13.06-34.91c0-14.82-4.62-25.67-13.84-32.57c-9.23-6.89-21.25-10.33-36.08-10.33
		c-11.44,0-21.06,0.78-28.86,2.34v-43.29h12.87c5.98,0,11.76-0.2,17.35-0.58c5.59-0.39,10.85-1.49,15.79-3.32
		c6.5-2.34,11.7-6.37,15.6-12.09c3.9-5.72,5.85-13.91,5.85-24.57c0-11.44-3.7-20.21-11.11-26.33c-7.41-6.11-17.49-9.17-30.23-9.17
		c-6.5,0-12.55,0.78-18.13,2.34c-5.59,1.56-10.73,3.58-15.41,6.04c-4.68,2.47-8.91,5.2-12.67,8.19c-3.77,2.99-7.21,5.79-10.33,8.38
		l-23.01-39c13.26-8.58,26.97-15.14,41.15-19.69c14.17-4.55,29.18-6.83,45.04-6.83c11.7,0,22.68,1.37,32.96,4.1
		c10.27,2.73,19.31,7.02,27.1,12.87c7.8,5.85,13.97,13.13,18.52,21.84c4.55,8.71,6.83,19.18,6.83,31.4c0,7.28-1.17,13.98-3.51,20.08
		c-2.34,6.11-5.46,11.64-9.36,16.58c-3.9,4.94-8.38,9.23-13.46,12.87c-5.07,3.64-10.33,6.63-15.79,8.97v1.17
		c6.76,1.3,13.32,3.71,19.7,7.21c6.37,3.51,12.15,8.06,17.35,13.65c5.2,5.59,9.36,12.28,12.48,20.08
		C240.4,288.24,241.96,297.21,241.96,307.35z"/>
	<path class="st1" d="M462.31,301.89c0,14.3-2.34,27.43-7.02,39.39c-4.68,11.96-11.31,22.23-19.89,30.81
		c-8.58,8.58-18.86,15.21-30.81,19.89c-11.96,4.68-25.09,7.02-39.39,7.02c-17.94,0-34.71-3.45-50.31-10.33
		c-15.6-6.89-29.38-19.3-41.34-37.25l40.56-29.25c4.16,10.4,10.27,19.11,18.33,26.13c8.06,7.02,18.72,10.53,31.98,10.53
		c14.56,0,25.74-4.88,33.54-14.62s11.7-22.94,11.7-39.58c0-18.46-3.97-31.91-11.89-40.37c-7.93-8.45-18.53-12.68-31.79-12.68
		c-13.52,0-24.25,3.58-32.17,10.73c-7.93,7.15-14.24,15.67-18.92,25.54L275.5,274.2l8.58-159.9h160.29v45.24H326.98l-3.9,73.71h1.17
		c6.5-8.06,14.04-13.91,22.62-17.55c8.58-3.64,17.42-5.46,26.52-5.46c13,0,24.89,2.02,35.68,6.04c10.79,4.03,20.15,9.95,28.08,17.75
		c7.93,7.8,14.1,17.42,18.53,28.86C460.1,274.33,462.31,287.33,462.31,301.89z"/>
</g>
</svg>
