<?xml version="1.0" encoding="utf-8"?>
<!-- Generator: Adobe Illustrator 27.6.1, SVG Export Plug-In . SVG Version: 6.00 Build 0)  -->
<svg version="1.1" id="Cartouche" xmlns="http://www.w3.org/2000/svg" xmlns:xlink="http://www.w3.org/1999/xlink" x="0px" y="0px"
	 viewBox="0 0 512 512" style="enable-background:new 0 0 512 512;" xml:space="preserve">
<style type="text/css">
	.st0{fill:#D3D800;}
	.st1{fill:#1D1D1B;}
</style>
<rect class="st0" width="512" height="512"/>
<g>
	<path class="st1" d="M241.96,307.35c0,14.3-2.6,27.11-7.8,38.42c-5.2,11.31-12.42,20.93-21.65,28.86
		c-9.23,7.93-20.15,13.98-32.76,18.13c-12.61,4.16-26.33,6.24-41.15,6.24c-20.28,0-38.03-3.9-53.24-11.7s-28.54-20.67-39.97-38.61
		l38.61-28.86c5.98,11.44,13.06,20.74,21.25,27.88c8.19,7.15,19.82,10.73,34.9,10.73c16.12,0,28.53-4.49,37.25-13.46
		c8.71-8.97,13.06-20.6,13.06-34.91c0-14.82-4.62-25.67-13.84-32.57c-9.23-6.89-21.25-10.33-36.08-10.33
		c-11.44,0-21.06,0.78-28.86,2.34v-43.29h12.87c5.98,0,11.76-0.2,17.35-0.58c5.59-0.39,10.85-1.49,15.79-3.32
		c6.5-2.34,11.7-6.37,15.6-12.09c3.9-5.72,5.85-13.91,5.85-24.57c0-11.44-3.7-20.21-11.11-26.33c-7.41-6.11-17.49-9.17-30.23-9.17
		c-6.5,0-12.55,0.78-18.13,2.34c-5.59,1.56-10.73,3.58-15.41,6.04c-4.68,2.47-8.91,5.2-12.67,8.19c-3.77,2.99-7.21,5.79-10.33,8.38
		l-23.01-39c13.26-8.58,26.97-15.14,41.15-19.69c14.17-4.55,29.18-6.83,45.04-6.83c11.7,0,22.68,1.37,32.96,4.1
		c10.27,2.73,19.31,7.02,27.1,12.87c7.8,5.85,13.97,13.13,18.52,21.84c4.55,8.71,6.83,19.18,6.83,31.4c0,7.28-1.17,13.98-3.51,20.08
		c-2.34,6.11-5.46,11.64-9.36,16.58c-3.9,4.94-8.38,9.23-13.46,12.87c-5.07,3.64-10.33,6.63-15.79,8.97v1.17
		c6.76,1.3,13.32,3.71,19.7,7.21c6.37,3.51,12.15,8.06,17.35,13.65c5.2,5.59,9.36,12.28,12.48,20.08
		C240.4,288.24,241.96,297.21,241.96,307.35z"/>
	<path class="st1" d="M368.71,399c-14.04,0-27.04-2.6-39-7.8c-11.96-5.2-22.3-13.13-31-23.79c-8.71-10.66-15.54-24.05-20.47-40.17
		c-4.94-16.12-7.41-35.23-7.41-57.33c0-18.72,1.82-37.57,5.46-56.55c3.64-18.98,9.95-36.14,18.92-51.48
		c8.97-15.34,20.93-27.89,35.88-37.64c14.95-9.75,33.6-14.62,55.96-14.62c11.7,0,22.55,0.98,32.57,2.93
		c10.01,1.95,20.99,6.18,32.95,12.67l-21.84,38.61c-12.74-9.1-26.65-13.65-41.73-13.65c-13.26,0-24.05,3.12-32.37,9.36
		c-8.32,6.24-15.01,14.17-20.08,23.79c-5.07,9.62-8.65,20.22-10.72,31.79c-2.08,11.57-3.51,22.81-4.29,33.73h0.78
		c5.72-10.66,13.52-18.52,23.4-23.59c9.88-5.07,20.67-7.6,32.37-7.6c12.22,0,23.46,2.02,33.74,6.04
		c10.27,4.03,19.11,9.75,26.52,17.16c7.41,7.41,13.19,16.25,17.36,26.52c4.16,10.27,6.24,21.65,6.24,34.12
		c0,14.3-2.21,27.43-6.63,39.39c-4.42,11.96-10.72,22.23-18.91,30.81c-8.19,8.58-18.01,15.28-29.45,20.08
		C395.49,396.59,382.75,399,368.71,399z M410.83,310.08c0-16.64-3.31-29.51-9.95-38.61c-6.63-9.1-17.23-13.65-31.78-13.65
		c-14.04,0-24.44,4.81-31.2,14.43c-6.76,9.62-10.14,22.23-10.14,37.83c0,14.04,3.44,25.93,10.34,35.68
		c6.89,9.75,17.22,14.62,31,14.62c6.5,0,12.28-1.3,17.35-3.9c5.07-2.6,9.42-6.17,13.07-10.73c3.64-4.55,6.43-9.88,8.38-15.99
		C409.86,323.67,410.83,317.1,410.83,310.08z"/>
</g>
</svg>
