<?xml version="1.0" encoding="utf-8"?>
<!-- Generator: Adobe Illustrator 27.6.1, SVG Export Plug-In . SVG Version: 6.00 Build 0)  -->
<svg version="1.1" id="Cartouche" xmlns="http://www.w3.org/2000/svg" xmlns:xlink="http://www.w3.org/1999/xlink" x="0px" y="0px"
	 viewBox="0 0 512 512" style="enable-background:new 0 0 512 512;" xml:space="preserve">
<style type="text/css">
	.st0{fill:#F8AE4C;}
	.st1{fill:#1D1D1B;}
</style>
<rect class="st0" width="512" height="512"/>
<g>
	<path class="st1" d="M164.75,307.35c0,14.3-1.94,27.1-5.81,38.42c-3.88,11.31-9.25,20.93-16.13,28.86
		c-6.88,7.93-15.02,13.98-24.41,18.14c-9.4,4.16-19.62,6.24-30.66,6.24c-15.11,0-28.33-3.9-39.67-11.7
		c-11.33-7.8-21.27-20.67-29.79-38.61l28.77-28.86c4.45,11.44,9.74,20.74,15.84,27.88c6.1,7.15,14.77,10.73,26.01,10.73
		c12.01,0,21.26-4.49,27.75-13.46c6.49-8.97,9.74-20.6,9.74-34.91c0-14.82-3.44-25.67-10.32-32.56
		c-6.88-6.89-15.84-10.33-26.88-10.33c-8.53,0-15.69,0.78-21.51,2.34v-43.29h9.59c4.45,0,8.76-0.2,12.93-0.58
		c4.16-0.39,8.09-1.49,11.77-3.32c4.84-2.34,8.72-6.37,11.62-12.09c2.91-5.72,4.36-13.91,4.36-24.57c0-11.44-2.76-20.21-8.28-26.33
		c-5.52-6.11-13.03-9.17-22.52-9.17c-4.85,0-9.35,0.78-13.51,2.34c-4.17,1.56-7.99,3.58-11.48,6.04c-3.49,2.47-6.64,5.2-9.44,8.19
		c-2.81,2.99-5.38,5.79-7.7,8.38l-17.15-39c9.88-8.58,20.1-15.14,30.66-19.69c10.56-4.55,21.75-6.83,33.57-6.83
		c8.72,0,16.9,1.37,24.56,4.1c7.65,2.73,14.39,7.02,20.2,12.87c5.81,5.85,10.41,13.13,13.8,21.84c3.39,8.71,5.09,19.18,5.09,31.4
		c0,7.28-0.87,13.98-2.62,20.08c-1.74,6.11-4.07,11.64-6.97,16.58c-2.91,4.94-6.25,9.23-10.03,12.87c-3.78,3.64-7.7,6.63-11.77,8.97
		v1.17c5.04,1.3,9.93,3.71,14.68,7.21c4.75,3.51,9.05,8.06,12.93,13.65c3.87,5.59,6.97,12.29,9.3,20.08
		C163.58,288.24,164.75,297.21,164.75,307.35z"/>
	<path class="st1" d="M259.2,399c-10.46,0-20.15-2.6-29.06-7.8c-8.91-5.2-16.61-13.13-23.1-23.79
		c-6.49-10.66-11.58-24.05-15.26-40.17c-3.68-16.12-5.52-35.23-5.52-57.33c0-18.72,1.35-37.57,4.07-56.55
		c2.71-18.98,7.41-36.14,14.1-51.48c6.68-15.34,15.59-27.89,26.74-37.64c11.14-9.75,25.04-14.62,41.7-14.62
		c8.72,0,16.81,0.98,24.27,2.93c7.46,1.95,15.64,6.18,24.56,12.67l-16.28,38.61c-9.49-9.1-19.86-13.65-31.1-13.65
		c-9.88,0-17.92,3.12-24.12,9.36c-6.2,6.24-11.19,14.17-14.97,23.79c-3.78,9.62-6.44,20.22-7.99,31.79
		c-1.55,11.57-2.62,22.81-3.2,33.73h0.58c4.26-10.66,10.07-18.52,17.44-23.59c7.36-5.07,15.4-7.6,24.12-7.6
		c9.1,0,17.48,2.02,25.14,6.04c7.65,4.03,14.24,9.75,19.76,17.16c5.52,7.41,9.83,16.25,12.93,26.52c3.1,10.27,4.65,21.65,4.65,34.12
		c0,14.3-1.65,27.43-4.94,39.39c-3.3,11.96-7.99,22.23-14.09,30.81c-6.1,8.58-13.42,15.28-21.94,20.08
		C279.15,396.59,269.66,399,259.2,399z M290.58,310.08c0-16.64-2.47-29.51-7.41-38.61c-4.94-9.1-12.84-13.65-23.69-13.65
		c-10.46,0-18.21,4.81-23.25,14.43c-5.04,9.62-7.56,22.23-7.56,37.83c0,14.04,2.57,25.94,7.7,35.69
		c5.13,9.75,12.83,14.62,23.1,14.62c4.84,0,9.16-1.3,12.93-3.9c3.78-2.6,7.02-6.17,9.74-10.72c2.71-4.55,4.79-9.88,6.25-15.99
		C289.86,323.67,290.58,317.1,290.58,310.08z"/>
	<path class="st1" d="M424.27,173.97l-50.57,42.12l-18.6-40.17l76.14-61.62h31.97v280.02h-38.94V173.97z"/>
</g>
</svg>
