<svg xmlns="http://www.w3.org/2000/svg" id="Calque_1" data-name="Calque 1" viewBox="0 0 566.93 467.72"><defs><style>.cls-1{fill:#008e8c}.cls-2{fill:#fff}</style></defs><path d="M237.26 445.57c-116.74 0-211.71-94.97-211.71-211.71V22.15h304.12c116.74 0 211.71 94.97 211.71 211.71s-94.97 211.71-211.71 211.71h-92.41Z" class="cls-2"/><path d="M329.67 33.53c27.05 0 53.29 5.29 77.97 15.73 23.85 10.09 45.28 24.54 63.68 42.94 18.41 18.41 32.85 39.83 42.94 63.68 10.44 24.68 15.73 50.92 15.73 77.97s-5.29 53.29-15.73 77.97c-10.09 23.85-24.54 45.28-42.94 63.68-18.41 18.41-39.83 32.85-63.68 42.94-24.68 10.44-50.92 15.73-77.97 15.73h-92.41c-27.05 0-53.29-5.29-77.97-15.73-23.85-10.09-45.28-24.54-63.68-42.94-18.41-18.41-32.85-39.83-42.94-63.68-10.44-24.68-15.73-50.92-15.73-77.97V33.53h292.74m0-22.76H14.17v223.09c0 123.21 99.88 223.09 223.09 223.09h92.41c123.21 0 223.09-99.88 223.09-223.09 0-123.21-99.88-223.09-223.09-223.09Z" class="cls-1"/><path d="M329.67 20.63c28.79 0 56.71 5.64 83 16.75 25.39 10.74 48.19 26.11 67.78 45.7 19.59 19.59 34.96 42.39 45.7 67.78 11.12 26.28 16.75 54.21 16.75 83s-5.64 56.71-16.75 83c-10.74 25.39-26.11 48.19-45.7 67.78-19.59 19.59-42.39 34.96-67.78 45.7-26.28 11.12-54.21 16.75-83 16.75h-92.41c-28.79 0-56.71-5.64-83-16.75-25.39-10.74-48.19-26.12-67.78-45.7-19.59-19.59-34.96-42.39-45.7-67.78-11.12-26.28-16.75-54.21-16.75-83V20.63h305.64m0-9.86H14.17v223.09c0 123.21 99.88 223.09 223.09 223.09h92.41c123.21 0 223.09-99.88 223.09-223.09 0-123.21-99.88-223.09-223.09-223.09Z" class="cls-2"/><path d="m87.61 318.93 39.99-44.07c16.26 18.42 33.16 28.9 54.29 28.9 17.88 0 28.94-10.12 28.94-25.65v-.72c0-16.26-13-26.01-37.06-26.01h-26.66l-8.78-36.49 52.02-52.38h-86.81v-56.72h164.19v49.85l-54.29 52.02c32.51 7.95 58.85 27.82 58.85 71.17v.72c0 51.3-37.06 84.17-87.78 84.17-43.89 0-74.45-17.7-96.89-44.8ZM284.63 288.95v-.72c0-30.71 14.31-49.13 38.69-60.69-17.23-10.84-30.89-27.82-30.89-55.27v-.72c0-40.1 34.46-70.08 85.51-70.08s85.83 29.98 85.83 70.08v.72c0 27.46-13.65 44.43-31.21 55.27 23.08 11.92 39.01 28.9 39.01 59.97v.72c0 45.52-39.01 74.78-93.63 74.78s-93.31-29.98-93.31-74.06Zm126.15-6.86v-.72c0-16.62-13.33-27.82-32.84-27.82s-32.84 11.2-32.84 27.82v.72c0 15.17 11.7 28.54 32.84 28.54s32.84-13.37 32.84-28.54Zm-4.55-101.51v-.72c0-14.09-10.73-26.73-28.29-26.73s-27.96 12.64-27.96 26.73v.72c0 15.9 11.05 27.82 27.96 27.82s28.29-11.92 28.29-27.82Z" class="cls-1"/></svg>