<?xml version="1.0" encoding="utf-8"?>
<!-- Generator: Adobe Illustrator 27.6.1, SVG Export Plug-In . SVG Version: 6.00 Build 0)  -->
<svg version="1.1" id="Cartouche" xmlns="http://www.w3.org/2000/svg" xmlns:xlink="http://www.w3.org/1999/xlink" x="0px" y="0px"
	 viewBox="0 0 512 512" style="enable-background:new 0 0 512 512;" xml:space="preserve">
<style type="text/css">
	.st0{fill:#A2559D;}
	.st1{fill:#FFFFFF;}
</style>
<rect class="st0" width="512" height="512"/>
<g>
	<path class="st1" d="M221.68,338.94v57.33h-49.14v-57.33H50.47v-49.53L157.72,114.3h63.96v178.23h30.03v46.41H221.68z
		 M172.54,159.54L93.37,293.31h79.17V159.54z"/>
	<path class="st1" d="M273.16,394.32v-26.13c0-13,1.56-24.7,4.68-35.1c3.12-10.4,7.54-19.89,13.26-28.47
		c5.72-8.58,12.67-16.51,20.86-23.79c8.19-7.28,17.48-14.43,27.89-21.45l21.45-14.04c6.24-4.42,11.9-8.32,16.97-11.7
		c5.07-3.38,9.36-7.02,12.87-10.92c3.51-3.9,6.24-8.38,8.19-13.46c1.95-5.07,2.92-11.24,2.92-18.52c0-26.52-13.52-39.78-40.56-39.78
		c-12.74,0-23.79,2.86-33.15,8.58c-9.36,5.72-18.2,12.09-26.52,19.11l-23.4-40.17c16.12-10.66,31.33-18.14,45.63-22.43
		c14.3-4.29,29.38-6.44,45.24-6.44c25.74,0,46.34,6.76,61.82,20.28c15.46,13.52,23.21,33.67,23.21,60.45
		c0,11.7-1.95,21.84-5.85,30.42c-3.9,8.58-9.04,16.25-15.41,23.01c-6.37,6.76-13.52,12.87-21.45,18.33
		c-7.93,5.46-15.93,10.92-23.99,16.38l-25.74,17.55c-12.74,8.32-22.3,16.96-28.67,25.93c-6.37,8.97-10.08,18.01-11.12,27.11h133.38
		v45.24H273.16z"/>
</g>
</svg>
