<?xml version="1.0" encoding="utf-8"?>
<!-- Generator: Adobe Illustrator 27.6.1, SVG Export Plug-In . SVG Version: 6.00 Build 0)  -->
<svg version="1.1" id="Cartouche" xmlns="http://www.w3.org/2000/svg" xmlns:xlink="http://www.w3.org/1999/xlink" x="0px" y="0px"
	 viewBox="0 0 512 512" style="enable-background:new 0 0 512 512;" xml:space="preserve">
<style type="text/css">
	.st0{fill:#6D1C74;}
	.st1{fill:#FFFFFF;}
</style>
<rect class="st0" width="512" height="512"/>
<g>
	<path class="st1" d="M174.1,157.98v236.34h-53.04V157.98H41.5V114.3h212.16v43.68H174.1z"/>
	<path class="st1" d="M461.92,307.35c0,14.3-2.6,27.11-7.8,38.42c-5.2,11.31-12.42,20.93-21.64,28.86
		c-9.23,7.93-20.15,13.98-32.76,18.13c-12.61,4.16-26.33,6.24-41.14,6.24c-20.28,0-38.03-3.9-53.24-11.7s-28.54-20.67-39.97-38.61
		l38.61-28.86c5.98,11.44,13.07,20.74,21.25,27.88c8.19,7.15,19.82,10.73,34.91,10.73c16.12,0,28.53-4.49,37.25-13.46
		c8.71-8.97,13.06-20.6,13.06-34.91c0-14.82-4.62-25.67-13.84-32.57c-9.23-6.89-21.25-10.33-36.08-10.33
		c-11.44,0-21.06,0.78-28.86,2.34v-43.29h12.87c5.98,0,11.76-0.2,17.35-0.58c5.59-0.39,10.85-1.49,15.79-3.32
		c6.5-2.34,11.7-6.37,15.6-12.09c3.9-5.72,5.85-13.91,5.85-24.57c0-11.44-3.71-20.21-11.12-26.33c-7.41-6.11-17.49-9.17-30.22-9.17
		c-6.5,0-12.55,0.78-18.13,2.34c-5.59,1.56-10.73,3.58-15.41,6.04c-4.68,2.47-8.91,5.2-12.67,8.19c-3.77,2.99-7.21,5.79-10.33,8.38
		l-23.01-39c13.26-8.58,26.97-15.14,41.15-19.69c14.17-4.55,29.18-6.83,45.04-6.83c11.7,0,22.68,1.37,32.96,4.1
		c10.27,2.73,19.3,7.02,27.1,12.87c7.8,5.85,13.97,13.13,18.53,21.84c4.55,8.71,6.83,19.18,6.83,31.4c0,7.28-1.17,13.98-3.51,20.08
		c-2.34,6.11-5.46,11.64-9.36,16.58c-3.9,4.94-8.38,9.23-13.46,12.87c-5.07,3.64-10.33,6.63-15.79,8.97v1.17
		c6.76,1.3,13.32,3.71,19.7,7.21c6.37,3.51,12.15,8.06,17.35,13.65c5.2,5.59,9.36,12.28,12.48,20.08
		C460.36,288.24,461.92,297.21,461.92,307.35z"/>
	<path class="st1" d="M 511.988281 397.050781 L 511.988281 334.609375 C 485.996094 419.289062 419.222656 486.058594 334.484375 511.992188 L 397.039062 511.992188 C 445.324219 485.308594 485.246094 445.335938 511.988281 397.050781 "/>
	<path class="st1" d="M 177.402344 0.0078125 L 114.960938 0.0078125 C 66.667969 26.691406 26.703125 66.664062 0.0117188 114.949219 L 0.0117188 177.390625 C 26.003906 92.710938 92.777344 25.941406 177.402344 0.0078125 "/>
	<path class="st1" d="M 511.988281 177.390625 L 511.988281 114.949219 C 485.296875 66.664062 445.324219 26.691406 397.039062 0.0078125 L 334.597656 0.0078125 C 419.277344 26 486.050781 92.710938 511.988281 177.390625 "/>
	<path class="st1" d="M 0.0117188 334.609375 L 0.0117188 397.050781 C 26.75 445.335938 66.667969 485.308594 114.953125 511.992188 L 177.507812 511.992188 C 92.777344 486.058594 25.996094 419.289062 0.0117188 334.609375 "/>
</g>
</svg>
