<?xml version="1.0" encoding="UTF-8"?>
<svg version="1.1" xmlns="http://www.w3.org/2000/svg" viewBox="0 0 512 512">
	<rect fill="#053148" width="512" height="512" />
	<g fill="#FFFFFF">
		<g id="corners">
			<path class="st1" d="M 511.988281 397.050781 L 511.988281 334.609375 C 485.996094 419.289062 419.222656 486.058594 334.484375 511.992188 L 397.039062 511.992188 C 445.324219 485.308594 485.246094 445.335938 511.988281 397.050781 "/>
			<path class="st1" d="M 177.402344 0.0078125 L 114.960938 0.0078125 C 66.667969 26.691406 26.703125 66.664062 0.0117188 114.949219 L 0.0117188 177.390625 C 26.003906 92.710938 92.777344 25.941406 177.402344 0.0078125 "/>
			<path class="st1" d="M 511.988281 177.390625 L 511.988281 114.949219 C 485.296875 66.664062 445.324219 26.691406 397.039062 0.0078125 L 334.597656 0.0078125 C 419.277344 26 486.050781 92.710938 511.988281 177.390625 "/>
			<path class="st1" d="M 0.0117188 334.609375 L 0.0117188 397.050781 C 26.75 445.335938 66.667969 485.308594 114.953125 511.992188 L 177.507812 511.992188 C 92.777344 486.058594 25.996094 419.289062 0.0117188 334.609375 "/>
		</g>
		<g id="route-name">
			<path
				d="M174.2063 156.2575v235.8857h-52.9422V156.2575H41.8478v-43.5931H253.6226v43.5931h-79.4163Z" />
			<path
				d="m 318.9127 112.9379 h 57.1584 l 102.1083 279.133 h -54.9387 l -25.5271 -76.5813 h -102.1083 l -25.5271 76.5813 h -53.8289 l 102.6633 -279.133 z m 28.3017 49.9442 h -0.555 l -37.7356 112.6521 h 75.4714 l -37.1807 -112.6521 z"
			/>
		</g>
	</g>
</svg>