<?xml version="1.0" encoding="UTF-8"?>
<svg version="1.1" xmlns="http://www.w3.org/2000/svg" viewBox="0 0 512 512">
  <rect fill="#29235C" width="512" height="512" />
  <g id="owl">
    <path fill="#004F9A" id="owl-body"
      d="M191.7837 0.0000c-16.5699 32.9338 -25.8254 70.1526 -25.8254 109.5115c0.0000 135.3318 109.6332 244.9425 244.9859 244.9425c35.9587 0.0000 70.2615 -7.6965 101.0558 -21.7239V0.0000H191.7837Z" />
    <g id="owl-left-eye">
      <path fill="#FFFFFF"
        d="M283.9682 28.1589c0.0000 29.9115 24.2687 54.0748 54.0853 54.0748c29.9166 0.0000 54.1802 -24.1632 54.1802 -54.0748c0.0000 -10.3262 -2.9188 -19.9731 -7.9881 -28.1589h-92.2846c-5.0693 8.1861 -7.9932 17.8330 -7.9932 28.1589Z" />
      <path fill="#1D1D1B"
        d="M350.4330 28.1589c0.0000 6.8198 -5.5586 12.3715 -12.2794 12.3715c-6.9204 0.0000 -12.4735 -5.5513 -12.4735 -12.3715c0.0000 -6.8183 5.5531 -12.3755 12.4735 -12.3755c6.7208 0.0000 12.2794 5.5572 12.2794 12.3755Z" />

    </g>
    <g id="owl-right-eye">
      <path fill="#FFFFFF"
        d="M437.6483 0.0000c-5.0696 8.1861 -7.9936 17.8330 -7.9936 28.1589c0.0000 29.9115 24.2687 54.0748 54.0853 54.0748c10.4279 0.0000 19.9778 -2.9223 28.2600 -7.9906V0.0000h-74.3521Z" />
      <path fill="#1D1D1B"
        d="M496.1187 28.1589c0.0000 6.8198 -5.5582 12.3715 -12.2790 12.3715c-6.9204 0.0000 -12.3787 -5.5513 -12.3787 -12.3715c0.0000 -6.8183 5.4586 -12.3755 12.3787 -12.3755c6.7208 0.0000 12.2790 5.5572 12.2790 12.3755Z" />
    </g>
    <path fill="#E94E1B"
      d="M449.7321 112.4349c0.0000 21.4354 -38.7879 94.2170 -38.7879 94.2170c0.0000 0.0000 -38.7827 -72.7816 -38.7827 -94.2170s17.3483 -38.7751 38.7827 -38.7751c21.4396 0.0000 38.7879 17.3397 38.7879 38.7751Z" />
  </g>
  <g fill="#FFDE00" id="route-short-name">
    <path
      d="M233.3955 407.6513L94.7247 179.7582h-0.8787v227.8931H38.5937V102.4031h67.6262l138.5763 227.7928h0.8732V102.4031h55.2578V407.6513h-67.5320Z" />
    <g id="route-full-name">
      <path
        d="M76.4032 487.5456l-24.2687 -39.8522h-0.1945v39.8522h-9.5499v-53.3907h11.7952l24.1639 39.8477h0.1945v-39.8477h9.6495v53.3907h-11.7900Z" />
      <path
        d="M139.4495 468.5455c0.0000 2.7286 -0.3893 5.4575 -1.2669 7.7969c-0.8736 2.4345 -2.1409 4.5794 -3.7975 6.3302c-1.6567 1.7560 -3.6075 3.1179 -5.9472 4.1905c-2.4350 0.9726 -5.0641 1.5564 -8.0877 1.5564c-2.7291 0.0000 -5.2590 -0.4837 -7.5043 -1.4615c-2.2401 -0.8730 -4.1861 -2.1401 -5.7472 -3.8960c-1.5574 -1.6563 -2.9243 -3.6016 -3.8023 -6.0416c-0.8732 -2.3338 -1.3622 -5.0624 -1.3622 -7.9858c0.0000 -3.1179 0.4890 -5.8464 1.4618 -8.2810c0.9728 -2.3404 2.2401 -4.3857 3.8968 -6.0409c1.6567 -1.6563 3.6075 -3.0230 6.0428 -3.9008c2.3394 -0.8730 4.8740 -1.3619 7.6980 -1.3619s5.3586 0.4889 7.5987 1.3619c2.2453 0.8778 4.1913 2.1449 5.8476 3.8012c1.5618 1.6556 2.8291 3.7009 3.7027 5.9453c0.8776 2.4353 1.2669 5.0639 1.2669 7.9873Zm-10.2282 0.1937c0.0000 -3.8953 -0.6835 -7.0132 -2.2453 -9.2529c-1.4618 -2.0452 -3.6023 -3.2182 -6.2369 -3.2182c-2.5295 0.0000 -4.6751 1.1730 -6.2369 3.2182c-1.5567 2.2397 -2.3350 5.3576 -2.3350 9.2529c0.0000 1.9511 0.1945 3.6075 0.5838 5.2635c0.4846 1.5564 1.0728 2.8234 1.8512 3.9957c0.6835 1.1667 1.5567 2.0452 2.6295 2.6290c0.9780 0.6826 2.2409 0.8778 3.5075 0.8778c2.6343 0.0000 4.6799 -1.1722 6.2369 -3.5068c1.5618 -2.3397 2.2453 -5.4575 2.2453 -9.2595Z" />
      <path
        d="M176.2866 462.0157c-0.4835 -1.6571 -1.3622 -3.0179 -2.5346 -4.0905c-1.0677 -1.0726 -2.6295 -1.5571 -4.5803 -1.5571c-1.8504 0.0000 -3.3130 0.3900 -4.3806 1.1682c-1.1725 0.6833 -1.9508 1.6563 -2.5346 2.8227c-0.6835 1.1730 -1.0721 2.5349 -1.3670 3.9964c-0.1945 1.4615 -0.3893 3.0230 -0.3893 4.4838c0.0000 1.7515 0.1945 3.4079 0.4890 4.9694c0.2893 1.4615 0.7783 2.7286 1.4618 3.7961c0.6791 0.9778 1.6567 1.8556 2.9243 2.5341c1.2669 0.5837 2.8236 0.8778 4.5799 0.8778c1.8512 0.0000 3.6030 -0.1945 5.2590 -0.5837c1.5618 -0.2944 3.2181 -0.9726 4.7748 -1.8508l2.7291 7.2084c-2.3350 1.0726 -4.5803 1.7552 -6.7208 2.0452c-2.0508 0.3893 -4.1913 0.5837 -6.4307 0.5837c-6.1425 0.0000 -10.9176 -1.7508 -14.3302 -5.0639c-3.4078 -3.4112 -5.1641 -8.0854 -5.1641 -14.0318c0.0000 -2.8234 0.4890 -5.4524 1.2673 -7.8917c0.8780 -2.4345 2.0456 -4.5794 3.6078 -6.3302c1.6559 -1.7560 3.7016 -3.1179 6.0417 -4.0956c2.4350 -1.0675 5.2590 -1.5564 8.3778 -1.5564c1.4614 0.0000 2.8284 0.0948 4.2909 0.3893c1.3614 0.2937 2.7288 0.6833 4.0913 1.3667c1.3666 0.5837 2.6339 1.3619 3.8016 2.5290c1.1677 1.0726 2.2401 2.4393 3.2133 4.0956l-8.4771 4.1853Z" />
      <path
        d="M220.5279 486.2793c-2.0456 0.8778 -3.9917 1.4615 -5.7480 1.7508c-1.7556 0.2944 -3.4126 0.3893 -4.8748 0.3893c-2.7243 0.0000 -4.9696 -0.4837 -6.8204 -1.2619c-1.7512 -0.8778 -3.1185 -2.0504 -4.2858 -3.3175c-1.0728 -1.4567 -1.7563 -3.1179 -2.2398 -4.9687c-0.3897 -1.8515 -0.5842 -3.7968 -0.5842 -5.7468v-15.6838h-6.0421v-6.8242h6.0421v-7.9865l9.8392 -4.8738v12.8603h12.9625v6.8242h-12.9625v16.1727c0.0000 0.6786 0.0996 1.3612 0.1945 2.2397c0.0996 0.8778 0.2945 1.6563 0.7791 2.3397c0.3938 0.6786 0.8776 1.2671 1.6611 1.7508c0.7783 0.4889 1.8512 0.6833 3.3130 0.6833c0.8732 0.0000 1.8512 -0.0996 2.7243 -0.2944c0.7838 -0.2893 1.7563 -0.8730 3.1185 -1.6563l2.9240 7.6024Z" />
      <path
        d="M251.5170 487.5456c0.0000 -0.3885 -0.0949 -0.7826 -0.0949 -1.3659c-0.0996 -0.4837 -0.1945 -1.0726 -0.1945 -1.6563s-0.0996 -1.1682 -0.0996 -1.7508c-0.0949 -0.5885 -0.0949 -0.9778 -0.0949 -1.3667c-0.2945 0.7782 -0.7835 1.4615 -1.4618 2.2397c-0.6835 0.7833 -1.4618 1.4615 -2.4398 2.1449c-0.8732 0.7782 -2.0456 1.3667 -3.2133 1.8508c-1.2673 0.3893 -2.6295 0.5837 -4.0913 0.5837c-1.7556 0.0000 -3.5126 -0.2893 -5.0693 -0.7789c-1.5618 -0.4882 -3.0229 -1.2663 -4.0913 -2.3389c-1.1725 -0.9726 -2.0508 -2.1401 -2.7291 -3.6016c-0.6835 -1.3667 -0.9780 -2.9234 -0.9780 -4.7738c0.0000 -2.8286 0.6842 -4.9687 1.9508 -6.4302c1.2673 -1.5622 2.8247 -2.6338 4.7748 -3.3123c1.8512 -0.6833 3.8968 -1.1722 6.1421 -1.1722c2.2401 -0.0948 4.1861 -0.0948 6.0421 -0.0948h4.4806v-2.8286c0.0000 -2.1401 -0.3893 -3.6016 -1.1677 -4.5801c-0.7827 -0.9719 -2.1453 -1.4608 -4.2909 -1.4608c-1.8512 0.0000 -3.8019 0.2944 -5.8476 0.7833c-2.0456 0.4837 -4.1913 1.3619 -6.4314 2.6290l-2.8236 -7.0139c3.1177 -1.2671 5.9417 -2.1449 8.2826 -2.8286c2.2398 -0.4837 4.5799 -0.8778 7.1145 -0.8778c5.1641 0.0000 8.8661 1.1722 11.2062 3.4119c2.3401 2.1449 3.5075 5.4568 3.5075 9.7425v9.7425c0.0000 2.4393 0.0996 4.9687 0.2945 7.3080c0.0949 2.4345 0.6791 4.9687 1.7512 7.7961h-10.4279Zm-1.1677 -15.6878h-6.9204c-2.1405 0.0000 -3.7968 0.2944 -4.9696 0.9719c-1.1677 0.6841 -1.7512 1.9511 -1.7512 3.9016c0.0000 0.2886 0.0949 0.7782 0.2893 1.3619c0.1945 0.4889 0.4890 1.0719 0.8780 1.4615c0.3893 0.4889 0.9728 0.8778 1.6567 1.1675c0.6842 0.3941 1.5567 0.5878 2.6299 0.5878c2.5343 0.0000 4.5799 -0.8771 5.9469 -2.2448c1.4618 -1.4608 2.2401 -3.3116 2.2401 -5.6461v-1.5615Z" />
      <path
        d="M298.5874 487.5456v-22.6069c0.0000 -0.9726 -0.0996 -1.9456 -0.1941 -2.7238c-0.1952 -0.9778 -0.4894 -1.7567 -0.8787 -2.4393c-0.3893 -0.5837 -1.0728 -1.1675 -1.7512 -1.4623c-0.7835 -0.4830 -1.7563 -0.6778 -2.8291 -0.6778c-2.0456 0.0000 -3.5075 0.4837 -4.6751 1.4615c-1.1725 0.8730 -2.0508 2.0452 -2.6343 3.5060c-0.4838 1.1682 -0.7783 2.3353 -0.9728 3.5075c-0.1945 1.2671 -0.2945 2.4345 -0.2945 3.7016v17.7331h-9.9389v-37.1232h9.9389v6.7246h0.0996c0.9728 -2.1449 2.4350 -3.9957 4.2858 -5.4575c1.9508 -1.4615 4.1913 -2.2397 6.8204 -2.2397c1.9508 0.0000 3.5126 0.1945 4.9751 0.6826c1.3614 0.3900 2.5291 1.0733 3.5071 1.8515c0.9728 0.7782 1.7512 1.7508 2.3350 2.8234c0.5886 1.0726 1.0728 2.1449 1.3670 3.4119c0.5838 -1.0726 1.1677 -2.1449 1.8512 -3.2175c0.6835 -0.9726 1.5567 -1.8508 2.5346 -2.8242c0.9728 -0.7774 2.0456 -1.4608 3.3130 -1.8501c1.1677 -0.5837 2.6295 -0.8778 4.2858 -0.8778c2.7291 0.0000 4.8748 0.3893 6.5311 1.2671c1.7512 0.8778 3.0185 1.9456 3.9964 3.3123c0.8732 1.4615 1.5567 3.1179 1.8512 4.9687c0.3893 1.8508 0.4838 3.7016 0.4838 5.8464v22.7017h-9.8392v-22.6069c0.0000 -0.9726 -0.0996 -1.9456 -0.1945 -2.7238c-0.1945 -0.9778 -0.4890 -1.7567 -0.9780 -2.4393c-0.3886 -0.5837 -0.9728 -1.1675 -1.7512 -1.4623c-0.6831 -0.4830 -1.6567 -0.6778 -2.7288 -0.6778c-2.0456 0.0000 -3.6078 0.4837 -4.6806 1.4615c-1.1677 0.8730 -2.0456 2.0452 -2.6295 3.5060c-0.4890 1.1682 -0.8780 2.3353 -0.9725 3.5075c-0.1952 1.2671 -0.2949 2.4345 -0.2949 3.7016v17.7331h-9.9389Z" />
      <path
        d="M383.2729 467.2784c0.0000 6.7246 -1.7556 11.9866 -5.3638 15.6886c-3.6023 3.6016 -8.7661 5.4524 -15.2975 5.4524c-3.2181 0.0000 -6.0417 -0.2893 -8.5767 -0.7782c-2.5346 -0.5837 -4.7748 -1.1675 -6.9204 -1.8508v-51.6355h9.9440v22.9917h0.0949c1.0728 -2.1449 2.5346 -3.9957 4.3858 -5.4575s4.1913 -2.2397 7.0153 -2.2397c2.4398 0.0000 4.5810 0.4889 6.4314 1.4615c1.8559 0.8778 3.4126 2.2397 4.6799 3.8012c1.1677 1.5556 2.0456 3.5068 2.7291 5.6461c0.5838 2.1449 0.8780 4.4853 0.8780 6.9198Zm-10.3330 0.5837c0.0000 -1.3619 -0.0949 -2.7286 -0.2893 -3.8960c-0.1945 -1.2671 -0.5886 -2.3397 -1.1725 -3.3123s-1.3622 -1.6563 -2.3346 -2.1449c-0.9783 -0.5837 -2.1453 -0.8730 -3.7078 -0.8730c-1.3622 0.0000 -2.5291 0.1945 -3.5075 0.7774c-0.9728 0.3900 -1.7512 1.0733 -2.4350 1.9456c-0.8776 1.0733 -1.5618 2.4400 -1.9508 3.9964c-0.3893 1.5615 -0.4838 3.2175 -0.4838 4.8738v11.2040c1.8512 0.7774 3.8968 0.9726 6.0421 0.9726c1.9460 0.0000 3.5075 -0.1952 4.8696 -0.9726c1.1732 -0.6833 2.2401 -1.5615 3.0236 -2.8286c0.6787 -1.1675 1.2673 -2.6297 1.5567 -4.2849c0.2945 -1.6563 0.3893 -3.4072 0.3893 -5.4575Z" />
      <path
        d="M419.9103 487.5456v-6.9183h-0.0949c-0.9772 2.2397 -2.3401 4.0905 -4.2909 5.5520c-1.8512 1.4615 -4.0913 2.2397 -6.8204 2.2397c-2.6295 0.0000 -4.8696 -0.4837 -6.5263 -1.2619c-1.6567 -0.8778 -3.0236 -2.0504 -3.9961 -3.4119c-0.9736 -1.4615 -1.5622 -3.0230 -1.9515 -4.9687c-0.2893 -1.8508 -0.4838 -3.7023 -0.4838 -5.6520v-22.7025h9.8392v22.5073c0.0000 1.9511 0.3893 3.7023 1.2673 5.0690c0.6835 1.4615 2.2401 2.1401 4.5803 2.1401c1.9508 0.0000 3.5075 -0.4837 4.6799 -1.3619c1.0677 -0.8778 1.9460 -2.0452 2.6295 -3.5068c0.3893 -1.1722 0.7783 -2.3404 0.9728 -3.6067c0.0996 -1.1675 0.1945 -2.3397 0.1945 -3.6067v-17.6342h9.8440v37.1232h-9.8440Z" />
      <path
        d="M471.7555 476.3424c0.0000 1.7508 -0.3893 3.4072 -1.1677 4.9679c-0.8780 1.4623 -1.9508 2.6297 -3.3130 3.7023c-1.3670 1.1675 -3.0236 1.9456 -4.8748 2.5334c-1.8504 0.5845 -3.8019 0.8738 -5.9417 0.8738c-2.4405 0.0000 -4.8751 -0.2893 -7.3101 -0.7782c-2.4398 -0.3893 -4.9696 -1.4615 -7.6987 -2.9234l3.7968 -7.5980c1.6567 1.3626 3.5126 2.3404 5.3638 3.0186c1.8512 0.5837 3.7027 0.9778 5.5531 0.9778c1.4618 0.0000 2.7291 -0.2944 3.8968 -0.8778c1.1725 -0.6833 1.6567 -1.6563 1.6567 -3.1186c0.0000 -1.0719 -0.2893 -1.8501 -0.7783 -2.4338c-0.5838 -0.6833 -1.6567 -1.1722 -3.1185 -1.5615l-4.7748 -1.2671c-1.3622 -0.4889 -2.6295 -0.8778 -3.8968 -1.4615c-1.2673 -0.4837 -2.3401 -1.0726 -3.3130 -1.9456c-0.8780 -0.7833 -1.6567 -1.7567 -2.2453 -3.0230c-0.4838 -1.1675 -0.7783 -2.6290 -0.7783 -4.2849c0.0000 -2.2448 0.4890 -3.9957 1.3670 -5.4575c0.9728 -1.4623 2.2401 -2.6290 3.7023 -3.6075c1.3622 -0.8723 3.0185 -1.6556 4.7748 -2.0452c1.6570 -0.3885 3.4078 -0.5830 5.0641 -0.5830c2.7299 0.0000 4.9751 0.1945 6.8256 0.7782c1.7512 0.4889 3.7023 1.1722 5.6480 2.0452l-3.7023 7.2131c-1.3622 -0.8778 -2.6295 -1.6563 -3.8961 -2.0452c-1.1680 -0.4889 -2.6299 -0.6833 -4.3862 -0.6833c-0.5838 0.0000 -1.2673 0.0000 -1.8504 0.0948c-0.5842 0.1945 -1.1680 0.3893 -1.6570 0.7833c-0.4882 0.1945 -0.9728 0.6778 -1.3622 1.1675c-0.2945 0.4889 -0.3941 1.1675 -0.3941 1.8508c0.0000 1.3619 0.3941 2.2397 1.2681 2.8234c0.8776 0.4889 1.9504 0.9778 3.1177 1.3667l4.0964 1.0726c1.3622 0.3893 2.7291 0.7774 3.8968 1.2671c1.2673 0.4837 2.4350 1.1675 3.4082 1.9456c0.8776 0.7833 1.6611 1.7552 2.2453 2.9234c0.4835 1.0726 0.7780 2.6338 0.7780 4.2901Z" />
    </g>
  </g>
</svg>