<svg xmlns="http://www.w3.org/2000/svg" id="Calque_1" data-name="Calque 1" viewBox="0 0 566.93 467.72"><defs><style>.cls-1{fill:#fff}</style></defs><path d="M105.41 462.18c-27.72 0-50.27-22.55-50.27-50.27V5.54h406.37c27.72 0 50.27 22.55 50.27 50.27v356.11c0 27.72-22.55 50.27-50.27 50.27h-356.1Z" style="fill:#e40428"/><path d="M461.52 10.45c25.05 0 45.35 20.31 45.35 45.35v356.11c0 25.05-20.31 45.35-45.35 45.35H105.41c-25.05 0-45.35-20.31-45.35-45.35V10.45h401.46m0-9.82H50.23v411.28c0 30.43 24.75 55.18 55.18 55.18h356.11c30.42 0 55.18-24.75 55.18-55.18V55.8c0-30.42-24.75-55.18-55.18-55.18Z" class="cls-1"/><path d="M249.98 104.19h67.32l107.28 253.8H349.7l-18-45.36h-97.56l-18 45.36h-73.08l106.92-253.8Zm61.2 154.08-28.08-71.28-28.44 71.28h56.52Z" class="cls-1"/></svg>