<?xml version="1.0" encoding="utf-8"?>
<!-- Generator: Adobe Illustrator 27.6.1, SVG Export Plug-In . SVG Version: 6.00 Build 0)  -->
<svg version="1.1" id="Cartouche" xmlns="http://www.w3.org/2000/svg" xmlns:xlink="http://www.w3.org/1999/xlink" x="0px" y="0px"
	 viewBox="0 0 512 512" style="enable-background:new 0 0 512 512;" xml:space="preserve">
<style type="text/css">
	.st0{fill:#0090D7;}
	.st1{fill:#FFFFFF;}
</style>
<rect class="st0" width="512" height="512"/>
<g>
	<path class="st1" d="M120.87,157.59v69.81h117.78v42.12H120.87v124.8H67.83V114.3h183.69v43.29H120.87z"/>
	<path class="st1" d="M467.18,316.71c0,12.74-2.53,24.18-7.6,34.32c-5.07,10.14-12.03,18.79-20.87,25.93
		c-8.84,7.15-19.31,12.61-31.4,16.38c-12.09,3.77-25.29,5.66-39.58,5.66c-11.7,0-23.21-1.56-34.52-4.68
		c-11.31-3.12-21.45-7.93-30.42-14.43c-8.97-6.5-16.18-14.56-21.64-24.18c-5.46-9.62-8.19-20.93-8.19-33.93
		c0-18.46,5.27-33.34,15.79-44.66c10.53-11.31,24.11-20.08,40.76-26.33c-6.76-3.38-13.13-7.15-19.11-11.31
		c-5.98-4.16-11.18-8.84-15.6-14.04c-4.42-5.2-7.87-11.11-10.33-17.75c-2.47-6.63-3.7-13.97-3.7-22.03c0-12.48,2.53-23.46,7.6-32.96
		c5.07-9.49,11.83-17.42,20.28-23.79c8.45-6.37,18.07-11.18,28.86-14.43c10.79-3.25,22.04-4.88,33.74-4.88
		c12.22,0,23.66,1.69,34.32,5.07c10.66,3.38,19.95,8.19,27.88,14.43c7.93,6.24,14.17,13.72,18.72,22.43
		c4.54,8.71,6.82,18.4,6.82,29.05c0,8.84-1.43,16.64-4.29,23.4c-2.87,6.76-6.57,12.74-11.12,17.94c-4.55,5.2-9.75,9.62-15.6,13.26
		c-5.85,3.64-11.77,6.89-17.75,9.75c7.8,3.64,15.14,7.67,22.04,12.09c6.89,4.42,12.93,9.55,18.13,15.41
		c5.2,5.85,9.29,12.42,12.29,19.69C465.68,299.42,467.18,307.61,467.18,316.71z M414.14,319.83c0-7.54-1.5-13.97-4.49-19.3
		c-2.99-5.33-6.89-10.01-11.7-14.04c-4.81-4.03-10.27-7.47-16.38-10.33c-6.11-2.86-12.29-5.59-18.53-8.19
		c-11.18,5.2-19.96,12.03-26.32,20.48c-6.37,8.45-9.56,18.91-9.56,31.39s4.1,22.17,12.29,29.05c8.19,6.89,18.26,10.33,30.23,10.33
		c5.98,0,11.63-0.91,16.96-2.73c5.33-1.82,10.07-4.42,14.23-7.8c4.16-3.38,7.41-7.47,9.75-12.29
		C412.97,331.6,414.14,326.07,414.14,319.83z M332.24,183.33c0,6.5,1.3,12.16,3.9,16.97c2.6,4.81,5.91,9.04,9.94,12.67
		c4.03,3.64,8.64,6.76,13.85,9.36c5.2,2.6,10.4,5.07,15.6,7.41c9.36-4.68,16.77-10.79,22.23-18.33c5.46-7.54,8.19-16.9,8.19-28.08
		c0-10.92-3.51-19.5-10.53-25.74c-7.02-6.24-15.47-9.36-25.35-9.36c-10.14,0-18.98,3.12-26.52,9.36
		C336.01,163.83,332.24,172.41,332.24,183.33z"/>
	<path class="st1" d="M 511.988281 397.050781 L 511.988281 334.609375 C 485.996094 419.289062 419.222656 486.058594 334.484375 511.992188 L 397.039062 511.992188 C 445.324219 485.308594 485.246094 445.335938 511.988281 397.050781 "/>
	<path class="st1" d="M 177.402344 0.0078125 L 114.960938 0.0078125 C 66.667969 26.691406 26.703125 66.664062 0.0117188 114.949219 L 0.0117188 177.390625 C 26.003906 92.710938 92.777344 25.941406 177.402344 0.0078125 "/>
	<path class="st1" d="M 511.988281 177.390625 L 511.988281 114.949219 C 485.296875 66.664062 445.324219 26.691406 397.039062 0.0078125 L 334.597656 0.0078125 C 419.277344 26 486.050781 92.710938 511.988281 177.390625 "/>
	<path class="st1" d="M 0.0117188 334.609375 L 0.0117188 397.050781 C 26.75 445.335938 66.667969 485.308594 114.953125 511.992188 L 177.507812 511.992188 C 92.777344 486.058594 25.996094 419.289062 0.0117188 334.609375 "/>
</g>
</svg>
