<?xml version="1.0" encoding="UTF-8"?>
<svg version="1.1" xmlns="http://www.w3.org/2000/svg" viewBox="0 0 512 512">
	<rect fill="#123E8B" width="512" height="512" />
	<g fill="#FFFFFF">
		<g id="corners">
			<path class="st1" d="M 511.988281 397.050781 L 511.988281 334.609375 C 485.996094 419.289062 419.222656 486.058594 334.484375 511.992188 L 397.039062 511.992188 C 445.324219 485.308594 485.246094 445.335938 511.988281 397.050781 "/>
			<path class="st1" d="M 177.402344 0.0078125 L 114.960938 0.0078125 C 66.667969 26.691406 26.703125 66.664062 0.0117188 114.949219 L 0.0117188 177.390625 C 26.003906 92.710938 92.777344 25.941406 177.402344 0.0078125 "/>
			<path class="st1" d="M 511.988281 177.390625 L 511.988281 114.949219 C 485.296875 66.664062 445.324219 26.691406 397.039062 0.0078125 L 334.597656 0.0078125 C 419.277344 26 486.050781 92.710938 511.988281 177.390625 "/>
			<path class="st1" d="M 0.0117188 334.609375 L 0.0117188 397.050781 C 26.75 445.335938 66.667969 485.308594 114.953125 511.992188 L 177.507812 511.992188 C 92.777344 486.058594 25.996094 419.289062 0.0117188 334.609375 "/>		</g>
		<g id="route-name">
			<polygon
				points="422.81,429.19,355.69,429.19,355.69,141.64,354.71,141.64,290.53,429.19,220.11,429.19,157.33,141.64,156.34,141.64,156.34,429.19,89.22,429.19,89.22,85.09,194.18,85.09,256.51,356.35,257.49,356.35,318.83,85.09,422.81,85.09,422.81,429.19" />
		</g>
	</g>
</svg>