<?xml version="1.0" encoding="utf-8"?>
<!-- Generator: Adobe Illustrator 27.6.1, SVG Export Plug-In . SVG Version: 6.00 Build 0)  -->
<svg version="1.1" id="Cartouche" xmlns="http://www.w3.org/2000/svg" xmlns:xlink="http://www.w3.org/1999/xlink" x="0px" y="0px"
	 viewBox="0 0 512 512" style="enable-background:new 0 0 512 512;" xml:space="preserve">
<style type="text/css">
	.st0{fill:#9BD5E3;}
	.st1{fill:#1D1D1B;}
</style>
<rect class="st0" width="512" height="512"/>
<g>
	<path class="st1" d="M167.36,301.89c0,14.3-1.74,27.43-5.23,39.39c-3.49,11.96-8.43,22.23-14.82,30.81
		c-6.39,8.58-14.05,15.21-22.96,19.89c-8.91,4.68-18.7,7.02-29.35,7.02c-13.37,0-25.86-3.45-37.49-10.33
		c-11.62-6.89-21.9-19.3-30.81-37.25l30.22-29.25c3.1,10.4,7.65,19.11,13.66,26.13c6,7.02,13.95,10.53,23.83,10.53
		c10.85,0,19.18-4.88,24.99-14.62c5.81-9.75,8.72-22.94,8.72-39.58c0-18.46-2.96-31.91-8.86-40.37
		c-5.91-8.45-13.8-12.67-23.69-12.67c-10.08,0-18.07,3.58-23.98,10.73c-5.91,7.15-10.61,15.67-14.09,25.54L28.16,274.2l6.39-159.9
		h119.44v45.24H66.52l-2.91,73.71h0.87c4.84-8.06,10.46-13.91,16.86-17.55c6.39-3.64,12.98-5.46,19.76-5.46
		c9.69,0,18.55,2.02,26.59,6.04c8.04,4.03,15.01,9.95,20.92,17.75c5.91,7.8,10.51,17.42,13.8,28.86
		C165.71,274.33,167.36,287.33,167.36,301.89z"/>
	<path class="st1" d="M188,394.32v-26.13c0-13,1.16-24.7,3.49-35.1c2.33-10.4,5.62-19.89,9.88-28.47
		c4.26-8.58,9.45-16.51,15.55-23.79c6.1-7.28,13.03-14.43,20.78-21.45l15.98-14.04c4.65-4.42,8.86-8.32,12.64-11.7
		c3.78-3.38,6.97-7.02,9.59-10.92c2.62-3.9,4.65-8.38,6.1-13.46c1.45-5.07,2.18-11.24,2.18-18.52c0-26.52-10.08-39.78-30.22-39.78
		c-9.49,0-17.73,2.86-24.7,8.58c-6.97,5.72-13.56,12.09-19.76,19.11l-17.44-40.17c12.01-10.66,23.34-18.14,34-22.43
		c10.65-4.29,21.89-6.44,33.71-6.44c19.18,0,34.53,6.76,46.06,20.28c11.53,13.52,17.29,33.67,17.29,60.45
		c0,11.7-1.45,21.84-4.36,30.42c-2.91,8.58-6.73,16.25-11.48,23.01c-4.75,6.76-10.08,12.87-15.98,18.33
		c-5.91,5.46-11.87,10.92-17.87,16.38l-19.18,17.55c-9.49,8.32-16.61,16.96-21.36,25.94c-4.75,8.97-7.51,18.01-8.28,27.1H324v45.24
		H188z"/>
	<path class="st1" d="M487.62,242.22c0,20.28-1.55,39.85-4.65,58.69c-3.1,18.85-8.04,35.56-14.82,50.12
		c-6.78,14.56-15.65,26.2-26.59,34.91C430.61,394.64,417.29,399,401.6,399c-8.53,0-17.39-1.17-26.59-3.51
		c-9.2-2.34-18.74-7.8-28.62-16.38l17.15-40.17c5.62,7.28,11.43,12.35,17.44,15.21c6,2.86,12.3,4.29,18.89,4.29
		c10.27,0,18.65-3.25,25.14-9.75c6.49-6.5,11.52-14.75,15.11-24.76c3.58-10.01,6.05-21.12,7.41-33.35
		c1.35-12.22,2.13-24.18,2.33-35.88h-0.58c-3.3,8.84-8.48,16.32-15.55,22.42c-7.08,6.11-14.68,9.17-22.81,9.17
		c-10.46,0-19.62-2.4-27.46-7.21c-7.85-4.81-14.44-11.18-19.76-19.11c-5.33-7.93-9.35-17.16-12.06-27.69
		c-2.71-10.53-4.07-21.51-4.07-32.96c0-10.92,1.4-21.77,4.21-32.56c2.81-10.79,6.97-20.41,12.5-28.86
		c5.52-8.45,12.45-15.27,20.78-20.48c8.33-5.2,18.11-7.8,29.35-7.8c11.04,0,21.07,2.73,30.08,8.19c9.01,5.46,16.71,13.72,23.1,24.76
		c6.39,11.05,11.33,24.83,14.82,41.34C485.88,200.43,487.62,219.86,487.62,242.22z M442.87,198.15c0-14.82-2.42-26.84-7.27-36.08
		c-4.84-9.23-12.02-13.84-21.51-13.84c-4.65,0-8.77,1.3-12.35,3.9c-3.59,2.6-6.59,6.18-9.01,10.73c-2.42,4.55-4.26,9.82-5.52,15.79
		c-1.26,5.98-1.89,12.48-1.89,19.5c0,14.82,2.32,26.59,6.97,35.29c4.65,8.71,11.92,13.06,21.8,13.06c9.49,0,16.66-4.48,21.51-13.46
		C440.44,224.08,442.87,212.45,442.87,198.15z"/>
</g>
</svg>
