<?xml version="1.0" encoding="utf-8"?>
<!-- Generator: Adobe Illustrator 27.6.1, SVG Export Plug-In . SVG Version: 6.00 Build 0)  -->
<svg version="1.1" id="Cartouche" xmlns="http://www.w3.org/2000/svg" xmlns:xlink="http://www.w3.org/1999/xlink" x="0px" y="0px"
	 viewBox="0 0 512 512" style="enable-background:new 0 0 512 512;" xml:space="preserve">
<style type="text/css">
	.st0{fill:#008F5B;}
	.st1{fill:#FFFFFF;}
</style>
<rect class="st0" width="512" height="512"/>
<g>
	<path class="st1" d="M120.87,157.59v69.81h117.78v42.12H120.87v124.8H67.83V114.3h183.69v43.29H120.87z"/>
	<path class="st1" d="M468.74,157.98c-16.12,17.68-29.38,34.32-39.78,49.92c-10.4,15.6-18.72,32.24-24.96,49.92
		c-6.24,17.68-10.72,37.38-13.46,59.08c-2.73,21.71-4.36,47.52-4.88,77.42h-58.89c1.3-29.12,4.22-54.73,8.78-76.83
		c4.55-22.1,10.85-42.18,18.92-60.25c8.06-18.07,17.81-34.77,29.25-50.12c11.44-15.34,24.7-30.55,39.78-45.63H275.69V114.3h193.05
		V157.98z"/>
	<path class="st1" d="M 511.988281 397.050781 L 511.988281 334.609375 C 485.996094 419.289062 419.222656 486.058594 334.484375 511.992188 L 397.039062 511.992188 C 445.324219 485.308594 485.246094 445.335938 511.988281 397.050781 "/>
	<path class="st1" d="M 177.402344 0.0078125 L 114.960938 0.0078125 C 66.667969 26.691406 26.703125 66.664062 0.0117188 114.949219 L 0.0117188 177.390625 C 26.003906 92.710938 92.777344 25.941406 177.402344 0.0078125 "/>
	<path class="st1" d="M 511.988281 177.390625 L 511.988281 114.949219 C 485.296875 66.664062 445.324219 26.691406 397.039062 0.0078125 L 334.597656 0.0078125 C 419.277344 26 486.050781 92.710938 511.988281 177.390625 "/>
	<path class="st1" d="M 0.0117188 334.609375 L 0.0117188 397.050781 C 26.75 445.335938 66.667969 485.308594 114.953125 511.992188 L 177.507812 511.992188 C 92.777344 486.058594 25.996094 419.289062 0.0117188 334.609375 "/>
</g>
</svg>
