<?xml version="1.0" encoding="utf-8"?>
<!-- Generator: Adobe Illustrator 27.6.1, SVG Export Plug-In . SVG Version: 6.00 Build 0)  -->
<svg version="1.1" id="Cartouche" xmlns="http://www.w3.org/2000/svg" xmlns:xlink="http://www.w3.org/1999/xlink" x="0px" y="0px"
	 viewBox="0 0 512 512" style="enable-background:new 0 0 512 512;" xml:space="preserve">
<style type="text/css">
	.st0{fill:#0069B3;}
	.st1{fill:#FFFFFF;}
</style>
<rect class="st0" width="512" height="512"/>
<g>
	<path class="st1" d="M56.32,394.32v-26.13c0-13,1.56-24.7,4.68-35.1c3.12-10.4,7.54-19.89,13.26-28.47
		c5.72-8.58,12.67-16.51,20.86-23.79c8.19-7.28,17.48-14.43,27.89-21.45l21.45-14.04c6.24-4.42,11.9-8.32,16.97-11.7
		c5.07-3.38,9.36-7.02,12.87-10.92c3.51-3.9,6.24-8.38,8.19-13.46c1.95-5.07,2.92-11.24,2.92-18.52c0-26.52-13.52-39.78-40.56-39.78
		c-12.74,0-23.79,2.86-33.15,8.58c-9.36,5.72-18.2,12.09-26.52,19.11l-23.4-40.17c16.12-10.66,31.33-18.14,45.63-22.43
		c14.3-4.29,29.38-6.44,45.24-6.44c25.74,0,46.34,6.76,61.81,20.28c15.47,13.52,23.2,33.67,23.2,60.45c0,11.7-1.95,21.84-5.85,30.42
		c-3.9,8.58-9.04,16.25-15.41,23.01c-6.37,6.76-13.52,12.87-21.45,18.33c-7.93,5.46-15.93,10.92-23.99,16.38l-25.74,17.55
		c-12.74,8.32-22.3,16.96-28.67,25.93c-6.37,8.97-10.08,18.01-11.12,27.11h133.38v45.24H56.32z"/>
	<path class="st1" d="M368.71,399c-14.04,0-27.04-2.6-39-7.8c-11.96-5.2-22.3-13.13-31-23.79c-8.71-10.66-15.54-24.05-20.47-40.17
		c-4.94-16.12-7.41-35.23-7.41-57.33c0-18.72,1.82-37.57,5.46-56.55c3.64-18.98,9.95-36.14,18.92-51.48
		c8.97-15.34,20.93-27.89,35.88-37.64c14.95-9.75,33.6-14.62,55.96-14.62c11.7,0,22.55,0.98,32.57,2.93
		c10.01,1.95,20.99,6.18,32.95,12.67l-21.84,38.61c-12.74-9.1-26.65-13.65-41.73-13.65c-13.26,0-24.05,3.12-32.37,9.36
		c-8.32,6.24-15.01,14.17-20.08,23.79c-5.07,9.62-8.65,20.22-10.72,31.79c-2.08,11.57-3.51,22.81-4.29,33.73h0.78
		c5.72-10.66,13.52-18.52,23.4-23.59c9.88-5.07,20.67-7.6,32.37-7.6c12.22,0,23.46,2.02,33.74,6.04
		c10.27,4.03,19.11,9.75,26.52,17.16c7.41,7.41,13.19,16.25,17.36,26.52c4.16,10.27,6.24,21.65,6.24,34.12
		c0,14.3-2.21,27.43-6.63,39.39c-4.42,11.96-10.72,22.23-18.91,30.81c-8.19,8.58-18.01,15.28-29.45,20.08
		C395.49,396.59,382.75,399,368.71,399z M410.83,310.08c0-16.64-3.31-29.51-9.95-38.61c-6.63-9.1-17.23-13.65-31.78-13.65
		c-14.04,0-24.44,4.81-31.2,14.43c-6.76,9.62-10.14,22.23-10.14,37.83c0,14.04,3.44,25.93,10.34,35.68
		c6.89,9.75,17.22,14.62,31,14.62c6.5,0,12.28-1.3,17.35-3.9c5.07-2.6,9.42-6.17,13.07-10.73c3.64-4.55,6.43-9.88,8.38-15.99
		C409.86,323.67,410.83,317.1,410.83,310.08z"/>
</g>
</svg>
