<?xml version="1.0" encoding="utf-8"?>
<!-- Generator: Adobe Illustrator 27.6.1, SVG Export Plug-In . SVG Version: 6.00 Build 0)  -->
<svg version="1.1" id="Cartouche" xmlns="http://www.w3.org/2000/svg" xmlns:xlink="http://www.w3.org/1999/xlink" x="0px" y="0px"
	 viewBox="0 0 512 512" style="enable-background:new 0 0 512 512;" xml:space="preserve">
<style type="text/css">
	.st0{fill:#D3D800;}
	.st1{fill:#1D1D1B;}
</style>
<rect class="st0" width="512" height="512"/>
<g>
	<path class="st1" d="M241.96,307.35c0,14.3-2.6,27.11-7.8,38.42c-5.2,11.31-12.42,20.93-21.65,28.86
		c-9.23,7.93-20.15,13.98-32.76,18.13c-12.61,4.16-26.33,6.24-41.15,6.24c-20.28,0-38.03-3.9-53.24-11.7s-28.54-20.67-39.97-38.61
		l38.61-28.86c5.98,11.44,13.06,20.74,21.25,27.88c8.19,7.15,19.82,10.73,34.9,10.73c16.12,0,28.53-4.49,37.25-13.46
		c8.71-8.97,13.06-20.6,13.06-34.91c0-14.82-4.62-25.67-13.84-32.57c-9.23-6.89-21.25-10.33-36.08-10.33
		c-11.44,0-21.06,0.78-28.86,2.34v-43.29h12.87c5.98,0,11.76-0.2,17.35-0.58c5.59-0.39,10.85-1.49,15.79-3.32
		c6.5-2.34,11.7-6.37,15.6-12.09c3.9-5.72,5.85-13.91,5.85-24.57c0-11.44-3.7-20.21-11.11-26.33c-7.41-6.11-17.49-9.17-30.23-9.17
		c-6.5,0-12.55,0.78-18.13,2.34c-5.59,1.56-10.73,3.58-15.41,6.04c-4.68,2.47-8.91,5.2-12.67,8.19c-3.77,2.99-7.21,5.79-10.33,8.38
		l-23.01-39c13.26-8.58,26.97-15.14,41.15-19.69c14.17-4.55,29.18-6.83,45.04-6.83c11.7,0,22.68,1.37,32.96,4.1
		c10.27,2.73,19.31,7.02,27.1,12.87c7.8,5.85,13.97,13.13,18.52,21.84c4.55,8.71,6.83,19.18,6.83,31.4c0,7.28-1.17,13.98-3.51,20.08
		c-2.34,6.11-5.46,11.64-9.36,16.58c-3.9,4.94-8.38,9.23-13.46,12.87c-5.07,3.64-10.33,6.63-15.79,8.97v1.17
		c6.76,1.3,13.32,3.71,19.7,7.21c6.37,3.51,12.15,8.06,17.35,13.65c5.2,5.59,9.36,12.28,12.48,20.08
		C240.4,288.24,241.96,297.21,241.96,307.35z"/>
	<path class="st1" d="M461.14,316.71c0,12.74-2.53,24.18-7.6,34.32c-5.07,10.14-12.03,18.79-20.87,25.93
		c-8.84,7.15-19.31,12.61-31.4,16.38c-12.09,3.77-25.29,5.66-39.58,5.66c-11.7,0-23.21-1.56-34.52-4.68
		c-11.31-3.12-21.45-7.93-30.42-14.43c-8.97-6.5-16.18-14.56-21.64-24.18c-5.46-9.62-8.19-20.93-8.19-33.93
		c0-18.46,5.27-33.34,15.79-44.66c10.53-11.31,24.11-20.08,40.76-26.33c-6.76-3.38-13.13-7.15-19.11-11.31
		c-5.98-4.16-11.18-8.84-15.6-14.04c-4.42-5.2-7.87-11.11-10.33-17.75c-2.47-6.63-3.7-13.97-3.7-22.03c0-12.48,2.53-23.46,7.6-32.96
		c5.07-9.49,11.83-17.42,20.28-23.79c8.45-6.37,18.07-11.18,28.86-14.43c10.79-3.25,22.04-4.88,33.74-4.88
		c12.22,0,23.66,1.69,34.32,5.07c10.66,3.38,19.95,8.19,27.88,14.43c7.93,6.24,14.17,13.72,18.72,22.43
		c4.54,8.71,6.82,18.4,6.82,29.05c0,8.84-1.43,16.64-4.29,23.4c-2.87,6.76-6.57,12.74-11.12,17.94c-4.55,5.2-9.75,9.62-15.6,13.26
		c-5.85,3.64-11.77,6.89-17.75,9.75c7.8,3.64,15.14,7.67,22.04,12.09c6.89,4.42,12.93,9.55,18.13,15.41
		c5.2,5.85,9.29,12.42,12.29,19.69C459.64,299.42,461.14,307.61,461.14,316.71z M408.1,319.83c0-7.54-1.5-13.97-4.49-19.3
		c-2.99-5.33-6.89-10.01-11.7-14.04c-4.81-4.03-10.27-7.47-16.38-10.33c-6.11-2.86-12.29-5.59-18.53-8.19
		c-11.18,5.2-19.96,12.03-26.32,20.48c-6.37,8.45-9.56,18.91-9.56,31.39s4.1,22.17,12.29,29.05c8.19,6.89,18.26,10.33,30.23,10.33
		c5.98,0,11.63-0.91,16.96-2.73c5.33-1.82,10.07-4.42,14.23-7.8c4.16-3.38,7.41-7.47,9.75-12.29
		C406.93,331.6,408.1,326.07,408.1,319.83z M326.2,183.33c0,6.5,1.3,12.16,3.9,16.97c2.6,4.81,5.91,9.04,9.94,12.67
		c4.03,3.64,8.64,6.76,13.85,9.36c5.2,2.6,10.4,5.07,15.6,7.41c9.36-4.68,16.77-10.79,22.23-18.33c5.46-7.54,8.19-16.9,8.19-28.08
		c0-10.92-3.51-19.5-10.53-25.74c-7.02-6.24-15.47-9.36-25.35-9.36c-10.14,0-18.98,3.12-26.52,9.36
		C329.97,163.83,326.2,172.41,326.2,183.33z"/>
</g>
</svg>
