<?xml version="1.0" encoding="utf-8"?>
<!-- Generator: Adobe Illustrator 27.6.1, SVG Export Plug-In . SVG Version: 6.00 Build 0)  -->
<svg version="1.1" id="Cartouche" xmlns="http://www.w3.org/2000/svg" xmlns:xlink="http://www.w3.org/1999/xlink" x="0px" y="0px"
	 viewBox="0 0 512 512" style="enable-background:new 0 0 512 512;" xml:space="preserve">
<style type="text/css">
	.st0{fill:#98C21D;}
	.st1{fill:#1D1D1B;}
</style>
<rect class="st0" width="512" height="512"/>
<g>
	<path class="st1" d="M276.67,249.24c0,19.76-2.58,38.74-7.73,56.94c-5.16,18.2-13.24,34.12-24.26,47.77
		c-11.03,13.65-25.11,24.57-42.24,32.76C185.31,394.9,164.76,399,140.8,399c-15.82,0-30.86-0.91-45.11-2.73
		c-14.26-1.82-29.9-4.81-46.91-8.97V115.47c17.01-1.82,32.35-3.05,46.01-3.71c13.66-0.65,27.68-0.97,42.06-0.97
		c9.35,0,19.29,0.58,29.83,1.75c10.54,1.17,21.03,3.45,31.45,6.82c10.42,3.38,20.37,8.26,29.83,14.62
		c9.46,6.37,17.79,14.62,24.98,24.77s12.94,22.62,17.25,37.44C274.51,211.02,276.67,228.7,276.67,249.24z M225.27,251.19
		c0-16.12-1.56-30.42-4.67-42.9c-3.12-12.48-8.21-23.01-15.28-31.59c-7.07-8.58-16.18-15.14-27.32-19.69
		c-11.14-4.55-24.62-6.83-40.44-6.83c-4.56,0-10.6,0.26-18.15,0.78c-7.55,0.52-14.8,1.3-21.75,2.34v200.07
		c6.95,2.34,13.72,3.97,20.31,4.88c6.59,0.91,14.43,1.37,23.54,1.37c15.1,0,27.98-2.4,38.64-7.21
		c10.66-4.81,19.35-11.76,26.06-20.87c6.71-9.1,11.56-20.41,14.56-33.93C223.77,284.08,225.27,268.61,225.27,251.19z"/>
	<path class="st1" d="M311.18,394.32v-26.13c0-13,1.44-24.7,4.31-35.1c2.88-10.4,6.95-19.89,12.22-28.47
		c5.27-8.58,11.68-16.51,19.23-23.79c7.55-7.28,16.11-14.43,25.7-21.45l19.77-14.04c5.75-4.42,10.96-8.32,15.64-11.7
		c4.67-3.38,8.63-7.02,11.86-10.92s5.75-8.38,7.55-13.46c1.8-5.07,2.7-11.24,2.7-18.52c0-26.52-12.46-39.78-37.38-39.78
		c-11.74,0-21.93,2.86-30.55,8.58c-8.63,5.72-16.78,12.09-24.44,19.11l-21.57-40.17c14.86-10.66,28.88-18.14,42.06-22.43
		c13.18-4.29,27.08-6.44,41.7-6.44c23.72,0,42.71,6.76,56.97,20.28c14.25,13.52,21.39,33.67,21.39,60.45
		c0,11.7-1.8,21.84-5.39,30.42c-3.59,8.58-8.33,16.25-14.2,23.01c-5.88,6.76-12.46,12.87-19.77,18.33
		c-7.31,5.46-14.68,10.92-22.11,16.38l-23.72,17.55c-11.74,8.32-20.55,16.96-26.42,25.94c-5.88,8.97-9.29,18.01-10.24,27.1H479.4
		v45.24H311.18z"/>
</g>
</svg>
