<?xml version="1.0" encoding="utf-8"?>
<!-- Generator: Adobe Illustrator 27.6.1, SVG Export Plug-In . SVG Version: 6.00 Build 0)  -->
<svg version="1.1" id="Cartouche" xmlns="http://www.w3.org/2000/svg" xmlns:xlink="http://www.w3.org/1999/xlink" x="0px" y="0px"
	 viewBox="0 0 512 512" style="enable-background:new 0 0 512 512;" xml:space="preserve">
<style type="text/css">
	.st0{fill:#C29FCB;}
	.st1{fill:#1D1D1B;}
</style>
<rect class="st0" width="512" height="512"/>
<g>
	<path class="st1" d="M56.32,394.32v-26.13c0-13,1.56-24.7,4.68-35.1c3.12-10.4,7.54-19.89,13.26-28.47
		c5.72-8.58,12.67-16.51,20.86-23.79c8.19-7.28,17.48-14.43,27.89-21.45l21.45-14.04c6.24-4.42,11.9-8.32,16.97-11.7
		c5.07-3.38,9.36-7.02,12.87-10.92c3.51-3.9,6.24-8.38,8.19-13.46c1.95-5.07,2.92-11.24,2.92-18.52c0-26.52-13.52-39.78-40.56-39.78
		c-12.74,0-23.79,2.86-33.15,8.58c-9.36,5.72-18.2,12.09-26.52,19.11l-23.4-40.17c16.12-10.66,31.33-18.14,45.63-22.43
		c14.3-4.29,29.38-6.44,45.24-6.44c25.74,0,46.34,6.76,61.81,20.28c15.47,13.52,23.2,33.67,23.2,60.45c0,11.7-1.95,21.84-5.85,30.42
		c-3.9,8.58-9.04,16.25-15.41,23.01c-6.37,6.76-13.52,12.87-21.45,18.33c-7.93,5.46-15.93,10.92-23.99,16.38l-25.74,17.55
		c-12.74,8.32-22.3,16.96-28.67,25.93c-6.37,8.97-10.08,18.01-11.12,27.11h133.38v45.24H56.32z"/>
	<path class="st1" d="M459.97,253.53c0,30.68-2.8,55.51-8.38,74.49c-5.59,18.98-12.94,33.73-22.04,44.26
		c-9.1,10.53-19.37,17.62-30.81,21.25c-11.44,3.64-23.01,5.46-34.71,5.46c-11.96,0-23.66-1.75-35.1-5.26
		c-11.44-3.51-21.58-10.4-30.42-20.67c-8.84-10.27-15.99-24.77-21.45-43.49s-8.19-43.29-8.19-73.71c0-32.76,3.32-58.82,9.95-78.19
		c6.63-19.37,14.82-34.06,24.57-44.07c9.75-10.01,20.21-16.51,31.4-19.5c11.18-2.99,21.45-4.49,30.81-4.49
		c6.5,0,13.32,0.58,20.48,1.76c7.15,1.17,14.23,3.58,21.25,7.21c7.02,3.64,13.71,8.71,20.08,15.21c6.37,6.5,11.96,15.08,16.77,25.74
		c4.81,10.66,8.64,23.66,11.51,39C458.54,213.88,459.97,232.21,459.97,253.53z M405.37,254.7c0-15.34-0.39-29.44-1.17-42.31
		s-2.54-23.98-5.26-33.34c-2.73-9.36-6.83-16.64-12.29-21.84c-5.46-5.2-12.87-7.8-22.23-7.8c-9.36,0-16.77,2.6-22.23,7.8
		c-5.46,5.2-9.56,12.48-12.29,21.84c-2.73,9.36-4.49,20.47-5.26,33.34c-0.78,12.87-1.17,26.98-1.17,42.31
		c0,13,0.13,25.81,0.39,38.42c0.26,12.61,1.62,23.79,4.09,33.54c2.47,9.75,6.5,17.62,12.09,23.59c5.59,5.98,13.71,8.97,24.38,8.97
		c10.66,0,18.72-2.99,24.18-8.97c5.46-5.98,9.49-13.84,12.09-23.59c2.6-9.75,4.03-20.87,4.29-33.34
		C405.24,280.83,405.37,267.96,405.37,254.7z"/>
</g>
</svg>
