<?xml version="1.0" encoding="utf-8"?>
<!-- Generator: Adobe Illustrator 27.6.1, SVG Export Plug-In . SVG Version: 6.00 Build 0)  -->
<svg version="1.1" id="Cartouche" xmlns="http://www.w3.org/2000/svg" xmlns:xlink="http://www.w3.org/1999/xlink" x="0px" y="0px"
	 viewBox="0 0 512 512" style="enable-background:new 0 0 512 512;" xml:space="preserve">
<style type="text/css">
	.st0{fill:#75462D;}
	.st1{fill:#FFFFFF;}
</style>
<rect class="st0" width="512" height="512"/>
<g>
	<path class="st1" d="M276.67,249.24c0,19.76-2.58,38.74-7.73,56.94c-5.16,18.2-13.24,34.12-24.26,47.77
		c-11.03,13.65-25.11,24.57-42.24,32.76C185.31,394.9,164.76,399,140.8,399c-15.82,0-30.86-0.91-45.11-2.73
		c-14.26-1.82-29.9-4.81-46.91-8.97V115.47c17.01-1.82,32.35-3.05,46.01-3.71c13.66-0.65,27.68-0.97,42.06-0.97
		c9.35,0,19.29,0.58,29.83,1.75c10.54,1.17,21.03,3.45,31.45,6.82c10.42,3.38,20.37,8.26,29.83,14.62
		c9.46,6.37,17.79,14.62,24.98,24.77s12.94,22.62,17.25,37.44C274.51,211.02,276.67,228.7,276.67,249.24z M225.27,251.19
		c0-16.12-1.56-30.42-4.67-42.9c-3.12-12.48-8.21-23.01-15.28-31.59c-7.07-8.58-16.18-15.14-27.32-19.69
		c-11.14-4.55-24.62-6.83-40.44-6.83c-4.56,0-10.6,0.26-18.15,0.78c-7.55,0.52-14.8,1.3-21.75,2.34v200.07
		c6.95,2.34,13.72,3.97,20.31,4.88c6.59,0.91,14.43,1.37,23.54,1.37c15.1,0,27.98-2.4,38.64-7.21
		c10.66-4.81,19.35-11.76,26.06-20.87c6.71-9.1,11.56-20.41,14.56-33.93C223.77,284.08,225.27,268.61,225.27,251.19z"/>
	<path class="st1" d="M403.56,173.97l-62.55,42.12l-23.01-40.17l94.18-61.62h39.54v280.02h-48.17V173.97z"/>
</g>
</svg>
