<?xml version="1.0" encoding="utf-8"?>
<!-- Generator: Adobe Illustrator 27.6.1, SVG Export Plug-In . SVG Version: 6.00 Build 0)  -->
<svg version="1.1" id="Cartouche" xmlns="http://www.w3.org/2000/svg" xmlns:xlink="http://www.w3.org/1999/xlink" x="0px" y="0px"
	 viewBox="0 0 512 512" style="enable-background:new 0 0 512 512;" xml:space="preserve">
<style type="text/css">
	.st0{fill:#E83278;}
	.st1{fill:#FFFFFF;}
</style>
<rect class="st0" width="512" height="512"/>
<g>
	<path class="st1" d="M26.41,394.32v-26.13c0-13,1.16-24.7,3.49-35.1c2.33-10.4,5.62-19.89,9.88-28.47
		c4.26-8.58,9.45-16.51,15.55-23.79c6.1-7.28,13.03-14.43,20.78-21.45l15.98-14.04c4.65-4.42,8.86-8.32,12.64-11.7
		c3.78-3.38,6.97-7.02,9.59-10.92c2.62-3.9,4.65-8.38,6.1-13.46c1.45-5.07,2.18-11.24,2.18-18.52c0-26.52-10.08-39.78-30.22-39.78
		c-9.49,0-17.73,2.86-24.7,8.58c-6.97,5.72-13.56,12.09-19.76,19.11l-17.44-40.17c12.01-10.66,23.34-18.14,34-22.43
		c10.65-4.29,21.89-6.44,33.71-6.44c19.18,0,34.53,6.76,46.06,20.28c11.52,13.52,17.29,33.67,17.29,60.45
		c0,11.7-1.45,21.84-4.36,30.42c-2.91,8.58-6.73,16.25-11.48,23.01c-4.75,6.76-10.08,12.87-15.98,18.33
		c-5.91,5.46-11.87,10.92-17.87,16.38l-19.18,17.55c-9.5,8.32-16.62,16.96-21.36,25.94c-4.75,8.97-7.51,18.01-8.28,27.1h99.39v45.24
		H26.41z"/>
	<path class="st1" d="M188,394.32v-26.13c0-13,1.16-24.7,3.49-35.1c2.33-10.4,5.62-19.89,9.88-28.47
		c4.26-8.58,9.45-16.51,15.55-23.79c6.1-7.28,13.03-14.43,20.78-21.45l15.98-14.04c4.65-4.42,8.86-8.32,12.64-11.7
		c3.78-3.38,6.97-7.02,9.59-10.92c2.62-3.9,4.65-8.38,6.1-13.46c1.45-5.07,2.18-11.24,2.18-18.52c0-26.52-10.08-39.78-30.22-39.78
		c-9.49,0-17.73,2.86-24.7,8.58c-6.97,5.72-13.56,12.09-19.76,19.11l-17.44-40.17c12.01-10.66,23.34-18.14,34-22.43
		c10.65-4.29,21.89-6.44,33.71-6.44c19.18,0,34.53,6.76,46.06,20.28c11.53,13.52,17.29,33.67,17.29,60.45
		c0,11.7-1.45,21.84-4.36,30.42c-2.91,8.58-6.73,16.25-11.48,23.01c-4.75,6.76-10.08,12.87-15.98,18.33
		c-5.91,5.46-11.87,10.92-17.87,16.38l-19.18,17.55c-9.49,8.32-16.61,16.96-21.36,25.94c-4.75,8.97-7.51,18.01-8.28,27.1H324v45.24
		H188z"/>
	<path class="st1" d="M490.53,301.89c0,14.3-1.74,27.43-5.23,39.39c-3.49,11.96-8.43,22.23-14.82,30.81
		c-6.39,8.58-14.05,15.21-22.96,19.89c-8.91,4.68-18.7,7.02-29.35,7.02c-13.37,0-25.87-3.45-37.49-10.33
		c-11.62-6.89-21.9-19.3-30.8-37.25l30.22-29.25c3.1,10.4,7.65,19.11,13.66,26.13c6,7.02,13.95,10.53,23.83,10.53
		c10.85,0,19.18-4.88,24.99-14.62s8.72-22.94,8.72-39.58c0-18.46-2.96-31.91-8.86-40.37c-5.91-8.45-13.8-12.67-23.68-12.67
		c-10.08,0-18.07,3.58-23.98,10.73c-5.91,7.15-10.61,15.67-14.09,25.54l-29.35-13.65l6.39-159.9h119.44v45.24h-87.47l-2.91,73.71
		h0.87c4.84-8.06,10.46-13.91,16.86-17.55c6.39-3.64,12.98-5.46,19.76-5.46c9.69,0,18.55,2.02,26.59,6.04
		c8.04,4.03,15.01,9.95,20.92,17.75c5.91,7.8,10.51,17.42,13.8,28.86C488.88,274.33,490.53,287.33,490.53,301.89z"/>
</g>
</svg>
