<?xml version="1.0" encoding="utf-8"?>
<!-- Generator: Adobe Illustrator 27.6.1, SVG Export Plug-In . SVG Version: 6.00 Build 0)  -->
<svg version="1.1" id="Cartouche" xmlns="http://www.w3.org/2000/svg" xmlns:xlink="http://www.w3.org/1999/xlink" x="0px" y="0px"
	 viewBox="0 0 512 512" style="enable-background:new 0 0 512 512;" xml:space="preserve">
<style type="text/css">
	.st0{fill:#009F61;}
	.st1{fill:#FFFFFF;}
</style>
<rect class="st0" width="512" height="512"/>
<g>
	<path class="st1" d="M338.1,189.18c-6.5-13.26-14.3-23.33-23.4-30.23c-9.1-6.89-21.45-10.33-37.05-10.33
		c-15.08,0-27.89,2.93-38.42,8.78c-10.53,5.85-19.05,13.65-25.55,23.4c-6.5,9.75-11.18,20.93-14.04,33.54
		c-2.86,12.61-4.29,25.68-4.29,39.19c0,14.3,1.43,27.82,4.29,40.56c2.86,12.74,7.67,23.86,14.43,33.35
		c6.76,9.49,15.79,16.96,27.1,22.42s25.28,8.19,41.93,8.19c15.86,0,29.45-2.34,40.75-7.02c11.31-4.68,21.77-9.88,31.4-15.6
		l18.72,40.95c-7.8,3.64-15.47,6.89-23.01,9.75c-7.54,2.86-15.21,5.27-23.01,7.21c-7.8,1.95-15.93,3.38-24.38,4.29
		c-8.45,0.91-17.62,1.37-27.49,1.37c-18.98,0-36.79-2.92-53.43-8.78c-16.64-5.85-31.2-14.62-43.68-26.32
		c-12.48-11.7-22.36-26.45-29.64-44.27c-7.28-17.81-10.92-38.8-10.92-62.98c0-22.36,3.25-42.57,9.75-60.65
		c6.5-18.07,15.8-33.47,27.89-46.21c12.09-12.74,26.84-22.62,44.27-29.64c17.42-7.02,37.05-10.53,58.89-10.53
		c10.66,0,20.93,0.85,30.81,2.54c9.88,1.69,19.3,4.55,28.27,8.58c8.97,4.03,17.48,9.56,25.55,16.58
		c8.06,7.02,15.6,15.99,22.62,26.91L338.1,189.18z"/>
</g>
</svg>
