<svg xmlns="http://www.w3.org/2000/svg" id="Calque_1" data-name="Calque 1" viewBox="0 0 566.93 467.72"><defs><style>.cls-2{fill:#fff}</style></defs><path d="M105.41 452.36c-22.3 0-40.44-18.14-40.44-40.44V15.36h396.55c22.3 0 40.44 18.14 40.44 40.44v356.11c0 22.3-18.14 40.44-40.44 40.44H105.41Z" style="fill:#00569d"/><path d="M461.52 20.27c19.59 0 35.53 15.94 35.53 35.53v356.11c0 19.59-15.94 35.54-35.53 35.54H105.41c-19.59 0-35.53-15.94-35.53-35.54V20.27h391.64m0-9.82H60.06v401.46c0 25.05 20.31 45.35 45.35 45.35h356.11c25.05 0 45.35-20.31 45.35-45.35V55.8c0-25.05-20.31-45.35-45.35-45.35Z" class="cls-2"/><path d="M177.09 105.98h129.24c31.68 0 54 7.92 68.76 22.32 10.08 10.44 16.2 23.76 16.2 41.04v.72c0 29.16-16.56 46.44-38.88 56.16 30.6 10.08 50.04 27.36 50.04 61.56v.72c0 43.2-35.28 69.48-95.4 69.48H177.09v-252Zm145.44 77.76c0-14.04-11.16-21.6-31.68-21.6h-45.72v44.28h43.92c21.24 0 33.48-7.2 33.48-21.96v-.72Zm-24.12 71.64h-53.28v46.44h54c21.6 0 33.48-8.28 33.48-23.04v-.72c0-13.68-10.8-22.68-34.2-22.68Z" class="cls-2"/></svg>