<svg xmlns="http://www.w3.org/2000/svg" id="Calque_1" data-name="Calque 1" viewBox="0 0 566.93 467.72"><defs><style>.cls-1{fill:#fff}</style></defs><path d="M105.41 462.18c-27.72 0-50.27-22.55-50.27-50.27V5.54h406.37c27.72 0 50.27 22.55 50.27 50.27v356.11c0 27.72-22.55 50.27-50.27 50.27h-356.1Z" style="fill:#379e32"/><path d="M461.52 10.45c25.05 0 45.35 20.31 45.35 45.35v356.11c0 25.05-20.31 45.35-45.35 45.35H105.41c-25.05 0-45.35-20.31-45.35-45.35V10.45h401.46m0-9.82H50.23v411.28c0 30.43 24.75 55.18 55.18 55.18h356.11c30.42 0 55.18-24.75 55.18-55.18V55.8c0-30.42-24.75-55.18-55.18-55.18Z" class="cls-1"/><path d="M158.37 232.71v-.72c0-73.44 56.16-131.04 132.48-131.04 51.48 0 84.6 21.6 106.92 52.2l-52.56 40.68c-14.4-17.64-30.96-29.52-55.08-29.52-35.28 0-60.12 30.24-60.12 66.96v.72c0 37.8 24.84 67.32 60.12 67.32 26.28 0 41.76-12.24 56.88-30.6l52.56 37.44c-23.76 32.76-55.8 56.88-111.24 56.88-72 0-129.96-55.08-129.96-130.32Z" class="cls-1"/></svg>