<?xml version="1.0" encoding="UTF-8"?>
<svg id="Calque_2" data-name="Calque 2" xmlns="http://www.w3.org/2000/svg" viewBox="0 0 70.14 70.83">
  <defs>
    <style>
      .cls-1 {
        fill: #2e2c7d;
      }

      .cls-2 {
        fill: #ffde06;
      }
    </style>
  </defs>
  <g id="Calque_1-2" data-name="Calque 1">
    <path class="cls-1" d="m8.41,20.84C17.04,12.04,48.97,3.67,63.87.14c3.65-.86,6.94,2.37,6.15,6.03-3.24,14.97-11.01,47.05-19.64,55.84-11.37,11.59-29.99,11.77-41.58.4-11.59-11.37-11.77-29.99-.4-41.58"/>
    <path class="cls-2" d="m32.07,38.33c0-6.06,3.71-11.21,8.94-13.44-1.73-.7-3.59-1.11-5.57-1.11-8.04,0-14.55,6.51-14.55,14.55s6.51,14.55,14.55,14.55c1.98,0,3.88-.41,5.57-1.11-5.24-2.18-8.94-7.38-8.94-13.44"/>
  </g>
</svg>