<?xml version="1.0" encoding="UTF-8"?>
<svg id="Calque_2" xmlns="http://www.w3.org/2000/svg" viewBox="0 0 37.59 26.58">
  <defs>
    <style>
      .cls-1 {
        fill: #fff;
      }

      .cls-2 {
        fill: #e50063;
      }
    </style>
  </defs>
  <g id="Calque_1-2" data-name="Calque_1">
    <g>
      <path class="cls-2" d="M37.59,18.61V0H8.05C3.61,0,0,3.57,0,7.97v18.61h29.53c4.45,0,8.06-3.57,8.06-7.98"/>
      <path class="cls-1" d="M15.51,16.48c0-1.24.69-1.99,1.57-2.51v-.06c-.73-.6-1.25-1.37-1.25-2.45,0-1.78,1.26-2.89,3.02-2.89s2.86,1.13,2.86,2.86c0,.98-.57,1.76-1.22,2.24v.07c.9.54,1.62,1.34,1.62,2.71,0,1.65-1.34,2.89-3.34,2.89-1.88,0-3.28-1.16-3.28-2.84M20.01,16.35c0-.87-.75-1.19-1.89-1.73-.37.39-.65.96-.65,1.57,0,.88.63,1.39,1.37,1.39.66,0,1.17-.38,1.17-1.22M19.88,11.6c0-.78-.4-1.29-1.07-1.29-.53,0-.97.38-.97,1.14s.6,1.19,1.53,1.6c.34-.47.51-.95.51-1.45"/>
    </g>
  </g>
</svg>