<?xml version="1.0" encoding="UTF-8"?>
<svg id="Calque_2" data-name="Calque 2" xmlns="http://www.w3.org/2000/svg" viewBox="0 0 19.298 13.64801">
  <g id="Calque_1-2" data-name="Calque 1">
    <g>
      <path d="M19.298,9.55396V0H4.135C1.851,0,0,1.83301,0,4.09497V13.64801H15.163c2.284,0,4.135-1.83301,4.135-4.09406" style="fill: #1bb8d1;"/>
      <path d="M7.94381,4.42004h1.69727c1.00977,0,1.80957,.29883,1.80957,1.34473,0,.47314-.23926,.99609-.63574,1.16211v.0332c.49365,.14941,.875,.54785,.875,1.27002,0,1.104-.85254,1.59375-1.90674,1.59375h-1.83936V4.42004Zm1.65234,2.1499c.50098,0,.71777-.24072,.71777-.61426,0-.39014-.23145-.54785-.70996-.54785h-.49365v1.16211h.48584Zm.09766,2.26611c.56787,0,.85938-.23242,.85938-.68896s-.28369-.63086-.85938-.63086h-.5835v1.31982h.5835Z" style="fill: #fff;"/>
    </g>
  </g>
</svg>