<?xml version="1.0" encoding="UTF-8"?>
<svg id="Calque_2" data-name="Calque 2" xmlns="http://www.w3.org/2000/svg" viewBox="0 0 19.298 13.64801">
  <g id="Calque_1-2" data-name="Calque 1">
    <g>
      <path d="M19.298,9.55396V0H4.135C1.851,0,0,1.83301,0,4.09497V13.64801H15.163c2.284,0,4.135-1.83301,4.135-4.09406" style="fill: #91a0c0;"/>
      <g>
        <path d="M5.83196,9.13348l.61279-.83838c.34424,.33203,.81494,.51465,1.22656,.51465,.44092,0,.64258-.18262,.64258-.47314,0-.31543-.26172-.41504-.6875-.60596l-.62061-.29883c-.51611-.22412-.9873-.69727-.9873-1.47754,0-.90479,.73291-1.63525,1.76465-1.63525,.5835,0,1.15918,.24072,1.57764,.67236l-.60547,.83838c-.3291-.25732-.66553-.39844-.97217-.39844-.35889,0-.59033,.15771-.59033,.43994,0,.31543,.30615,.42334,.73975,.61426l.60596,.27393c.60547,.26562,.96436,.71387,.96436,1.46924,0,.90479-.68018,1.69336-1.854,1.69336-.6582,0-1.30859-.24902-1.81689-.78857Z" style="fill: #fff;"/>
        <path d="M10.25774,8.78485h1.03174v-2.94678h-.88965v-.79688c.51611-.10791,.85986-.24902,1.19629-.48975h.85254v4.2334h.88232v1.0376h-3.07324v-1.0376Z" style="fill: #fff;"/>
      </g>
    </g>
  </g>
</svg>