<?xml version="1.0" encoding="UTF-8"?>
<svg id="Calque_2" data-name="Calque 2" xmlns="http://www.w3.org/2000/svg" viewBox="0 0 19.117 13.52002">
  <g id="Calque_1-2" data-name="Calque 1">
    <g>
      <path d="M19.117,9.46399V0H4.097C1.834,0,0,1.81604,0,4.05603V13.52002H15.021c2.262,0,4.096-1.81592,4.096-4.05603" style="fill: #9e5049;"/>
      <path d="M7.73207,9.07642l.53076-.81348c.2915,.30713,.64307,.52295,1.0166,.52295,.45605,0,.74756-.20752,.74756-.58936,0-.43994-.22412-.70557-1.24072-.70557v-.90479c.82959,0,1.09131-.27393,1.09131-.67236,0-.35693-.20166-.54785-.56055-.54785-.3291,0-.57568,.15771-.86719,.44824l-.5835-.78027c.44141-.42334,.92725-.68066,1.50293-.68066,1.00928,0,1.66748,.52295,1.66748,1.46094,0,.53125-.27686,.92139-.78516,1.16211v.0332c.5459,.17432,.93457,.59766,.93457,1.27832,0,.98779-.82227,1.53564-1.78711,1.53564-.77002,0-1.31592-.29883-1.66699-.74707Z" style="fill: #fff;"/>
    </g>
  </g>
</svg>