<?xml version="1.0" encoding="UTF-8"?>
<svg id="Calque_2" data-name="Calque 2" xmlns="http://www.w3.org/2000/svg" viewBox="0 0 65.56 66.19">
  <defs>
    <style>
      .cls-1 {
        fill: #fff;
      }

      .cls-2 {
        fill: #ffde0d;
      }

      .cls-3 {
        fill: #e5362a;
      }
    </style>
  </defs>
  <g id="Calque_1-2" data-name="Calque 1">
    <path class="cls-3" d="m7.87,19.5C15.93,11.24,45.76,3.46,59.69.13c3.42-.8,6.47,2.2,5.77,5.63-3.05,13.97-10.27,43.99-18.34,52.19-10.65,10.83-28.04,11.02-38.87.38-10.83-10.64-11.02-28-.38-38.83"/>
    <rect class="cls-2" x="41.7" y="38.15" width="4.88" height="5.82"/>
    <path class="cls-1" d="m29.18,39.23c1.08,0,2.06-.56,2.86-1.69v-2.95c-.28-.75-.75-1.31-1.31-1.78s-1.17-.7-1.83-.7c-.42,0-.84.09-1.22.28-.38.19-.7.47-.94.8-.28.33-.47.75-.66,1.17-.14.42-.23.94-.23,1.41,0,1.08.28,1.92.89,2.53.66.61,1.45.94,2.44.94m-1.64,5.06c-1.12,0-2.2-.23-3.14-.66-.94-.42-1.78-1.03-2.48-1.78-.7-.75-1.22-1.69-1.64-2.77-.38-1.08-.56-2.25-.56-3.52s.19-2.35.52-3.42c.38-1.08.84-1.97,1.5-2.72.66-.75,1.41-1.36,2.3-1.83.89-.42,1.88-.66,2.95-.66s2.06.23,2.96.75c.89.47,1.59,1.17,2.06,2.06v-8.91h6v16.46c0,.56.09.99.24,1.17.19.23.47.38.89.38v5.06c-1.03.19-1.88.33-2.53.33-2.06,0-3.24-.75-3.56-2.3l-.14-.61c-.56,1.03-1.36,1.73-2.3,2.2-.94.52-1.97.75-3.05.75"/>
  </g>
</svg>