<?xml version="1.0" encoding="UTF-8"?>
<svg id="Calque_2" data-name="Calque 2" xmlns="http://www.w3.org/2000/svg" viewBox="0 0 19.298 13.64801">
  <g id="Calque_1-2" data-name="Calque 1">
    <g>
      <path d="M19.298,9.55399V0H4.135C1.851,0,0,1.83401,0,4.095V13.64801H15.163c2.284,0,4.135-1.83301,4.135-4.09402" style="fill: #6b84ad;"/>
      <g>
        <path d="M3.84319,9.13513l.61279-.83887c.34424,.33203,.81494,.51465,1.22607,.51465,.44141,0,.64307-.18262,.64307-.47266,0-.31641-.26172-.41602-.6875-.60645l-.62061-.29883c-.51611-.22363-.9873-.69727-.9873-1.47754,0-.9043,.73291-1.63477,1.76465-1.63477,.5835,0,1.15918,.24023,1.57764,.67188l-.60547,.83789c-.3291-.25684-.66553-.39844-.97217-.39844-.35889,0-.59082,.1582-.59082,.44043,0,.31543,.30664,.42285,.74023,.61426l.60596,.27344c.60547,.26562,.96436,.71484,.96436,1.46973,0,.90527-.68018,1.69336-1.854,1.69336-.6582,0-1.30859-.24902-1.81689-.78809Z" style="fill: #fff;"/>
        <path d="M8.26897,8.78552h1.03174v-2.94629h-.88965v-.79688c.51611-.1084,.85986-.24902,1.19629-.48926h.85254v4.23242h.88232v1.03809h-3.07324v-1.03809Z" style="fill: #fff;"/>
        <path d="M12.01458,9.03552c1.16602-1.14648,2.03369-2.08398,2.03369-2.81445,0-.49805-.24707-.75586-.64307-.75586-.3291,0-.59082,.25-.82275,.52344l-.59814-.66406c.46387-.58105,.90479-.87109,1.57764-.87109,.94238,0,1.59277,.67188,1.59277,1.68457,0,.94629-.77783,1.80176-1.57764,2.66504,.24658-.02539,.57568-.05859,.79248-.05859h1.0166v1.0791h-3.37158v-.78809Z" style="fill: #fff;"/>
      </g>
    </g>
  </g>
</svg>