<?xml version="1.0" encoding="UTF-8"?><svg id="uuid-8622d4cb-2c5c-4292-b935-619fcd6b4b25" xmlns="http://www.w3.org/2000/svg" viewBox="0 0 35.579 25.16199"><defs><style>.uuid-1612f563-a4e0-49da-bb25-cd074ac30cc6{fill:#b4c4d9;}.uuid-1612f563-a4e0-49da-bb25-cd074ac30cc6,.uuid-03718044-06a6-4ad8-b021-290bf04507ad{stroke-width:0px;}.uuid-03718044-06a6-4ad8-b021-290bf04507ad{fill:#fff;}</style></defs><g id="uuid-faeb4e3c-ba46-4443-a1df-ff43ba186ef3"><path class="uuid-1612f563-a4e0-49da-bb25-cd074ac30cc6" d="m35.579,17.61298V0H7.624C3.414,0,0,3.37903,0,7.54901v17.61298h27.955c4.21,0,7.624-3.38,7.624-7.54901"/><path class="uuid-03718044-06a6-4ad8-b021-290bf04507ad" d="m10.42198,18.29218c-.58838,0-1.17383-.12012-1.75732-.35938-.5835-.24023-1.10498-.59961-1.56445-1.08008l1.15771-1.54688c.32178.30664.67773.55664,1.06836.75098.39014.19336.77393.29102,1.15088.29102.42236,0,.7373-.08691.94434-.26074.20654-.17383.31006-.4082.31006-.7041,0-.15332-.03027-.28613-.08984-.39844s-.14697-.21191-.26172-.29883c-.11523-.08691-.25293-.16895-.41357-.24512s-.33789-.16113-.53076-.25293l-1.17139-.55078c-.22998-.10254-.45264-.23535-.66846-.39844-.21631-.16309-.40918-.35449-.5791-.57422s-.30566-.47461-.40674-.76562-.15137-.62012-.15137-.98828c0-.4082.07812-.79297.23438-1.15625.15625-.3623.37646-.67871.66162-.94922.28467-.27051.62207-.48242,1.01318-.63574.39014-.15332.81982-.22949,1.28857-.22949.52393,0,1.04053.1123,1.55078.33691.50977.22461.95752.55078,1.34375.98047l-1.03369,1.42383c-.29443-.25488-.58838-.45215-.88232-.58984s-.62012-.20605-.97852-.20605c-.34961,0-.62744.0791-.83398.2373s-.31006.37988-.31006.66602c0,.15332.03418.2832.10352.39062.06885.10742.16504.2041.28906.29102s.26904.16797.43457.24512c.16504.07617.34424.16016.5376.25195l1.15771.52148c.55127.24414.98535.58203,1.30225,1.01074s.47559.99512.47559,1.69922c0,.41895-.07568.81445-.22754,1.1875-.15137.37305-.37207.69922-.66162.97949-.28906.28125-.64551.50586-1.06787.67383-.42285.16895-.90088.25293-1.43359.25293Z"/><path class="uuid-03718044-06a6-4ad8-b021-290bf04507ad" d="m15.2462,18.10858v-1.82227h1.90186v-5.62109h-1.64014v-1.39355c.47803-.10156.88232-.22461,1.21289-.36719.33105-.14258.65234-.31641.96484-.52051h1.48877v7.90234h1.64014v1.82227h-5.56836Z"/><path class="uuid-03718044-06a6-4ad8-b021-290bf04507ad" d="m24.90782,18.29218c-.71631,0-1.32275-.125-1.81934-.375-.49609-.25-.90479-.58398-1.22656-1.00293l.9375-1.4248c.26611.28613.55811.52148.875.70508s.66357.27539,1.04053.27539c.43213,0,.77637-.09961,1.03369-.29883s.38623-.48242.38623-.84961c0-.21484-.03467-.4082-.10352-.58203s-.19092-.31934-.36523-.43652c-.1748-.11719-.41357-.20898-.7168-.27539s-.69385-.09961-1.17139-.09961v-1.59277c.39502,0,.72363-.03125.98535-.0918.26172-.06152.47314-.15039.63428-.26855.16064-.11719.27539-.25488.34424-.41309s.10352-.33496.10352-.52832c0-.33691-.0918-.59961-.27588-.78906-.18359-.18848-.4502-.2832-.79932-.2832-.3125,0-.59473.07617-.84766.22949s-.5166.3623-.79248.62793l-1.02002-1.37793c.4043-.3877.8291-.69141,1.2749-.91113s.93945-.3291,1.48193-.3291c.4502,0,.86133.05859,1.2334.17578s.68945.29102.95117.52051.46631.50781.61328.83496c.14697.32617.2207.7041.2207,1.13281,0,.51074-.12646.94238-.37939,1.29395-.25244.35254-.61328.6416-1.08154.86523v.06152c.50488.16406.9209.44238,1.24707.83496s.48926.90625.48926,1.53906c0,.44922-.0874.84961-.26172,1.20215-.1748.35254-.40918.64844-.70312.88867-.29395.23926-.63867.42383-1.03369.55078-.39502.12793-.81299.19141-1.25439.19141Z"/></g></svg>