<?xml version="1.0" encoding="UTF-8"?><svg id="uuid-79ae84a4-4740-4111-b74a-336785b6122e" xmlns="http://www.w3.org/2000/svg" viewBox="0 0 46.31604 32.755"><defs><style>.uuid-cef87e78-a6db-42cd-bba6-910e81245116{fill:#fff;}.uuid-cef87e78-a6db-42cd-bba6-910e81245116,.uuid-163d07b9-55b6-4640-ae46-08c30bc31ec5{stroke-width:0px;}.uuid-163d07b9-55b6-4640-ae46-08c30bc31ec5{fill:#f193bd;}</style></defs><g id="uuid-46c561a6-b30a-481b-b853-d15f3bfe57cf"><path class="uuid-163d07b9-55b6-4640-ae46-08c30bc31ec5" d="m46.31604,22.92799V0H9.92499C4.44501,0,0,4.399,0,9.827v22.92801h36.39099c5.48102,0,9.92505-4.40001,9.92505-9.82701"/><path class="uuid-cef87e78-a6db-42cd-bba6-910e81245116" d="m21.23206,23.55785c.04834-1.05859.13623-2.03418.2627-2.92676.12695-.8916.30762-1.74219.54297-2.55371s.53711-1.60547.90527-2.38379c.36768-.77734.82373-1.58203,1.3667-2.41309h-5.15918v-2.49414h8.00098v1.80957c-.66357.89844-1.19775,1.74023-1.60205,2.52441s-.71826,1.5957-.94141,2.43359-.38281,1.7373-.47949,2.69531c-.09668.95898-.16895,2.06152-.21729,3.30859h-2.6792Z"/></g></svg>