<?xml version="1.0" encoding="UTF-8"?>
<svg id="Calque_2" data-name="Calque 2" xmlns="http://www.w3.org/2000/svg" viewBox="0 0 19.298 13.64801">
  <g id="Calque_1-2" data-name="Calque 1">
    <g>
      <path d="M19.298,9.55396V0H4.135C1.851,0,0,1.83301,0,4.09497V13.64801H15.163c2.284,0,4.135-1.83301,4.135-4.09406" style="fill: #91a0c0;"/>
      <g>
        <path d="M5.83196,9.13409l.61279-.83887c.34424,.33203,.81494,.51465,1.22656,.51465,.44092,0,.64258-.18262,.64258-.47266,0-.31641-.26172-.41602-.6875-.60645l-.62061-.29883c-.51611-.22363-.9873-.69727-.9873-1.47754,0-.9043,.73291-1.63477,1.76465-1.63477,.5835,0,1.15918,.24023,1.57764,.67188l-.60547,.83789c-.3291-.25684-.66553-.39844-.97217-.39844-.35889,0-.59033,.1582-.59033,.44043,0,.31543,.30615,.42285,.73975,.61426l.60596,.27344c.60547,.26562,.96436,.71484,.96436,1.46973,0,.90527-.68018,1.69336-1.854,1.69336-.6582,0-1.30859-.24902-1.81689-.78809Z" style="fill: #fff;"/>
        <path d="M12.17962,5.63019h-2.10107v-1.07812h3.33447v.79688c-1.12891,1.47656-1.30859,2.42383-1.39795,4.47363h-1.15918c.08252-1.72656,.39648-2.79785,1.32373-4.19238Z" style="fill: #fff;"/>
      </g>
    </g>
  </g>
</svg>