<?xml version="1.0" encoding="UTF-8"?>
<svg id="Calque_2" data-name="Calque 2" xmlns="http://www.w3.org/2000/svg" viewBox="0 0 19.117 13.52002">
  <g id="Calque_1-2" data-name="Calque 1">
    <g>
      <path d="M19.117,9.46399V0H4.097C1.834,0,0,1.81604,0,4.05603V13.52002H15.021c2.262,0,4.096-1.81592,4.096-4.05603" style="fill: #e50063;"/>
      <path d="M7.8517,8.93567c1.16602-1.14551,2.03369-2.0835,2.03369-2.81396,0-.49805-.24707-.75537-.64307-.75537-.3291,0-.59082,.24902-.82275,.52295l-.59814-.66406c.46387-.58105,.90479-.87158,1.57764-.87158,.94238,0,1.59277,.67236,1.59277,1.68506,0,.94629-.77783,1.80127-1.57764,2.66455,.24658-.0249,.57568-.05811,.79248-.05811h1.0166v1.0791h-3.37158v-.78857Z" style="fill: #fff;"/>
    </g>
  </g>
</svg>