<?xml version="1.0" encoding="UTF-8"?>
<svg id="Calque_2" data-name="Calque 2" xmlns="http://www.w3.org/2000/svg" viewBox="0 0 19.298 13.64801">
  <g id="Calque_1-2" data-name="Calque 1">
    <g>
      <path d="M19.298,9.55396V0H4.135C1.851,0,0,1.83301,0,4.09497V13.64801H15.163c2.284,0,4.135-1.83301,4.135-4.09406" style="fill: #6b84ad;"/>
      <g>
        <path d="M5.83196,9.13434l.61279-.83838c.34424,.33203,.81494,.51465,1.22656,.51465,.44092,0,.64258-.18262,.64258-.47314,0-.31543-.26172-.41504-.6875-.60596l-.62061-.29883c-.51611-.22412-.9873-.69727-.9873-1.47754,0-.90479,.73291-1.63525,1.76465-1.63525,.5835,0,1.15918,.24072,1.57764,.67236l-.60547,.83838c-.3291-.25732-.66553-.39844-.97217-.39844-.35889,0-.59033,.15771-.59033,.43994,0,.31543,.30615,.42334,.73975,.61426l.60596,.27393c.60547,.26562,.96436,.71387,.96436,1.46924,0,.90479-.68018,1.69336-1.854,1.69336-.6582,0-1.30859-.24902-1.81689-.78857Z" style="fill: #fff;"/>
        <path d="M10.02629,9.03473c1.16602-1.14551,2.03369-2.0835,2.03369-2.81396,0-.49805-.24707-.75537-.64307-.75537-.3291,0-.59082,.24902-.82275,.52295l-.59814-.66406c.46387-.58105,.90479-.87158,1.57764-.87158,.94238,0,1.59277,.67236,1.59277,1.68506,0,.94629-.77783,1.80127-1.57764,2.66455,.24658-.0249,.57568-.05811,.79248-.05811h1.0166v1.0791h-3.37158v-.78857Z" style="fill: #fff;"/>
      </g>
    </g>
  </g>
</svg>