<?xml version="1.0" encoding="UTF-8"?>
<svg id="Calque_2" data-name="Calque 2" xmlns="http://www.w3.org/2000/svg" viewBox="0 0 19.117 13.52002">
  <g id="Calque_1-2" data-name="Calque 1">
    <g>
      <path d="M19.117,9.46399V0H4.097C1.834,0,0,1.81604,0,4.05603V13.52002H15.021c2.262,0,4.096-1.81598,4.096-4.05603" style="fill: #fd0;"/>
      <path d="M7.7394,9.07544l.52344-.80518c.28418,.29053,.61279,.51465,1.00195,.51465,.4707,0,.77002-.26562,.77002-.78027,0-.49805-.29932-.77197-.71777-.77197-.26904,0-.40381,.06641-.68799,.26562l-.5083-.36523,.12695-2.68115h2.729v1.0791h-1.73438l-.06738,.92139c.17188-.08301,.32129-.10791,.50098-.10791,.82227,0,1.51758,.51465,1.51758,1.62695,0,1.17871-.82227,1.85107-1.75684,1.85107-.77783,0-1.31592-.32373-1.69727-.74707Z" style="fill: #1d1d1b;"/>
    </g>
  </g>
</svg>