<?xml version="1.0" encoding="UTF-8"?>
<svg id="Calque_2" data-name="Calque 2" xmlns="http://www.w3.org/2000/svg" viewBox="0 0 19.298 13.64801">
  <g id="Calque_1-2" data-name="Calque 1">
    <g>
      <path d="M19.298,9.55396V0H4.135C1.851,0,0,1.83398,0,4.09497V13.64801H15.163c2.284,0,4.135-1.83301,4.135-4.09406" style="fill: #86b5e2;"/>
      <path d="M7.80954,7.15918c0-1.80127,1.0918-2.83887,2.31787-2.83887,.63574,0,1.14404,.31543,1.48047,.70557l-.61328,.78027c-.23926-.24902-.49316-.37354-.8374-.37354-.64307,0-1.15869,.63086-1.15869,1.67676,0,1.0791,.45605,1.70166,1.13623,1.70166,.39648,0,.70312-.17432,.93457-.44824l.60596,.76367c-.42627,.53955-.96484,.79688-1.57764,.79688-1.24121,0-2.28809-.93799-2.28809-2.76416Z" style="fill: #fff;"/>
    </g>
  </g>
</svg>