<?xml version="1.0" encoding="UTF-8"?>
<svg id="Calque_2" data-name="Calque 2" xmlns="http://www.w3.org/2000/svg" viewBox="0 0 19.298 13.64801">
  <g id="Calque_1-2" data-name="Calque 1">
    <g>
      <path d="M19.298,9.55396V0H4.135C1.851,0,0,1.83301,0,4.09497V13.64801H15.163c2.284,0,4.135-1.83301,4.135-4.09406" style="fill: #b4c4d9;"/>
      <g>
        <path d="M5.83196,9.13477l.61279-.83838c.34424,.33203,.81494,.51465,1.22656,.51465,.44092,0,.64258-.18262,.64258-.47314,0-.31543-.26172-.41504-.6875-.60596l-.62061-.29883c-.51611-.22412-.9873-.69727-.9873-1.47754,0-.90479,.73291-1.63525,1.76465-1.63525,.5835,0,1.15918,.24072,1.57764,.67236l-.60547,.83838c-.3291-.25732-.66553-.39844-.97217-.39844-.35889,0-.59033,.15771-.59033,.43994,0,.31543,.30615,.42334,.73975,.61426l.60596,.27393c.60547,.26562,.96436,.71387,.96436,1.46924,0,.90479-.68018,1.69336-1.854,1.69336-.6582,0-1.30859-.24902-1.81689-.78857Z" style="fill: #fff;"/>
        <path d="M9.90667,9.17627l.53076-.81348c.2915,.30713,.64307,.52295,1.0166,.52295,.45605,0,.74756-.20752,.74756-.58936,0-.43994-.22412-.70557-1.24072-.70557v-.90479c.82959,0,1.09131-.27393,1.09131-.67236,0-.35693-.20166-.54785-.56055-.54785-.3291,0-.57568,.15771-.86719,.44824l-.5835-.78027c.44141-.42334,.92725-.68066,1.50293-.68066,1.00928,0,1.66748,.52295,1.66748,1.46094,0,.53125-.27686,.92139-.78516,1.16211v.0332c.5459,.17432,.93457,.59766,.93457,1.27832,0,.98779-.82227,1.53564-1.78711,1.53564-.77002,0-1.31592-.29883-1.66699-.74707Z" style="fill: #fff;"/>
      </g>
    </g>
  </g>
</svg>