<?xml version="1.0" encoding="UTF-8"?>
<svg id="Calque_2" data-name="Calque 2" xmlns="http://www.w3.org/2000/svg" viewBox="0 0 19.298 13.64801">
  <g id="Calque_1-2" data-name="Calque 1">
    <g>
      <path d="M19.298,9.55396V0H4.135C1.851,0,0,1.83301,0,4.09497V13.64801H15.163c2.284,0,4.135-1.83301,4.135-4.09406" style="fill: #b4c4d9;"/>
      <g>
        <path d="M5.83196,9.13348l.61279-.83789c.34424,.33203,.81494,.51465,1.22656,.51465,.44092,0,.64258-.18262,.64258-.47363,0-.31445-.26172-.41406-.6875-.60547l-.62061-.29883c-.51611-.22461-.9873-.69727-.9873-1.47754,0-.90527,.73291-1.63574,1.76465-1.63574,.5835,0,1.15918,.24121,1.57764,.67285l-.60547,.83887c-.3291-.25781-.66553-.39844-.97217-.39844-.35889,0-.59033,.15723-.59033,.43945,0,.31543,.30615,.42383,.73975,.61426l.60596,.27441c.60547,.26562,.96436,.71289,.96436,1.46875,0,.9043-.68018,1.69336-1.854,1.69336-.6582,0-1.30859-.24902-1.81689-.78906Z" style="fill: #fff;"/>
        <path d="M10.0634,9.27509l.61328-.76367c.15674,.19922,.45605,.37402,.7251,.37402,.51611,0,.90479-.39844,.94971-1.57812-.24707,.34961-.65039,.54883-.92725,.54883-.81494,0-1.42822-.50684-1.42822-1.62695,0-1.10449,.73291-1.77734,1.6001-1.77734,.91992,0,1.81689,.75586,1.81689,2.62305,0,1.95117-.92725,2.84766-1.9292,2.84766-.64258,0-1.11377-.29883-1.42041-.64746Zm1.58496-2.32422c.23926,0,.50098-.1416,.68066-.48926-.10498-.81445-.40381-1.04688-.70312-1.04688-.30615,0-.56787,.23242-.56787,.81445,0,.53906,.25391,.72168,.59033,.72168Z" style="fill: #fff;"/>
      </g>
    </g>
  </g>
</svg>