<?xml version="1.0" encoding="UTF-8"?>
<svg id="Calque_2" data-name="Calque 2" xmlns="http://www.w3.org/2000/svg" viewBox="0 0 19.051 13.47302">
  <g id="Calque_1-2" data-name="Calque 1">
    <g>
      <path d="M19.051,9.43097V0H4.082C1.827,0,0,1.80902,0,4.04199V13.47302H14.968c2.255,0,4.083-1.81,4.083-4.04205" style="fill: #f5a580;"/>
      <path d="M7.84659,7.17578c0-1.94336,.92334-2.83691,1.9209-2.83691,.64062,0,1.10986,.30615,1.41504,.64551l-.61035,.76074c-.15674-.19043-.45459-.37207-.72266-.37207-.50635,0-.90088,.39697-.94531,1.57129,.24561-.34766,.64746-.5459,.93066-.5459,.8042,0,1.41455,.50439,1.41455,1.62109,0,1.10791-.72949,1.76953-1.59326,1.76953-.91602,0-1.80957-.75244-1.80957-2.61328Zm1.08691,.62012c.09717,.80225,.39502,1.03369,.69287,1.03369,.30518,0,.57324-.23145,.57324-.81006,0-.5376-.26074-.71973-.5957-.71973-.23828,0-.49902,.14893-.67041,.49609Z" style="fill: #fff;"/>
    </g>
  </g>
</svg>