<?xml version="1.0" encoding="UTF-8"?><svg id="uuid-7316fca1-5076-4166-90e8-916cff698276" xmlns="http://www.w3.org/2000/svg" viewBox="0 0 35.579 25.16199"><defs><style>.uuid-7c40c5f4-7c6b-4e13-865b-ba44ea6cb03e{fill:#fff;}.uuid-7c40c5f4-7c6b-4e13-865b-ba44ea6cb03e,.uuid-27734adf-5a29-46d8-b45a-a564467e1389{stroke-width:0px;}.uuid-27734adf-5a29-46d8-b45a-a564467e1389{fill:#6b84ad;}</style></defs><g id="uuid-0365065d-6e01-4539-9014-01d6036081b8"><path class="uuid-27734adf-5a29-46d8-b45a-a564467e1389" d="m35.579,17.61298V0H7.624C3.414,0,0,3.37903,0,7.54901v17.61298h27.955c4.21,0,7.624-3.38,7.624-7.54901"/><path class="uuid-7c40c5f4-7c6b-4e13-865b-ba44ea6cb03e" d="m10.42198,18.29456c-.58838,0-1.17383-.12012-1.75732-.35938-.5835-.24023-1.10498-.59961-1.56445-1.08008l1.15771-1.54688c.32178.30664.67773.55664,1.06836.75098.39014.19336.77393.29102,1.15088.29102.42236,0,.7373-.08691.94434-.26074.20654-.17383.31006-.4082.31006-.7041,0-.15332-.03027-.28613-.08984-.39844s-.14697-.21191-.26172-.29883c-.11523-.08691-.25293-.16895-.41357-.24512s-.33789-.16113-.53076-.25293l-1.17139-.55078c-.22998-.10254-.45264-.23535-.66846-.39844-.21631-.16309-.40918-.35449-.5791-.57422s-.30566-.47461-.40674-.76562-.15137-.62012-.15137-.98828c0-.4082.07812-.79297.23438-1.15625.15625-.3623.37646-.67871.66162-.94922.28467-.27051.62207-.48242,1.01318-.63574.39014-.15332.81982-.22949,1.28857-.22949.52393,0,1.04053.1123,1.55078.33691.50977.22461.95752.55078,1.34375.98047l-1.03369,1.42383c-.29443-.25488-.58838-.45215-.88232-.58984s-.62012-.20605-.97852-.20605c-.34961,0-.62744.0791-.83398.2373s-.31006.37988-.31006.66602c0,.15332.03418.2832.10352.39062.06885.10742.16504.2041.28906.29102s.26904.16797.43457.24512c.16504.07617.34424.16016.5376.25195l1.15771.52148c.55127.24414.98535.58203,1.30225,1.01074s.47559.99512.47559,1.69922c0,.41895-.07568.81445-.22754,1.1875-.15137.37305-.37207.69922-.66162.97949-.28906.28125-.64551.50586-1.06787.67383-.42285.16895-.90088.25293-1.43359.25293Z"/><path class="uuid-7c40c5f4-7c6b-4e13-865b-ba44ea6cb03e" d="m15.2462,18.11096v-1.82227h1.90186v-5.62109h-1.64014v-1.39355c.47803-.10156.88232-.22461,1.21289-.36719.33105-.14258.65234-.31641.96484-.52051h1.48877v7.90234h1.64014v1.82227h-5.56836Z"/><path class="uuid-7c40c5f4-7c6b-4e13-865b-ba44ea6cb03e" d="m25.61095,18.11096v-2.32812h-3.79053v-1.54688l3.19775-5.84961h2.48096v5.68164h1.00635v1.71484h-1.00635v2.32812h-1.88818Zm-1.84668-4.04297h1.84668v-1.57715c0-.31641.00928-.68164.02783-1.0957.01807-.41309.03662-.77344.05469-1.0791h-.05469c-.11035.26562-.22559.53613-.34473.81152-.11963.27539-.24365.55078-.37207.82715l-1.15771,2.11328Z"/></g></svg>