<?xml version="1.0" encoding="UTF-8"?>
<svg id="Calque_2" data-name="Calque 2" xmlns="http://www.w3.org/2000/svg" viewBox="0 0 19.298 13.64801">
  <g id="Calque_1-2" data-name="Calque 1">
    <g>
      <path d="M19.298,9.55396V0H4.135C1.851,0,0,1.83301,0,4.09497V13.64801H15.163c2.284,0,4.135-1.83301,4.135-4.09406" style="fill: #6b84ad;"/>
      <g>
        <path d="M5.83196,9.13348l.61279-.83838c.34424,.33203,.81494,.51465,1.22656,.51465,.44092,0,.64258-.18262,.64258-.47314,0-.31543-.26172-.41504-.6875-.60596l-.62061-.29883c-.51611-.22412-.9873-.69727-.9873-1.47754,0-.90479,.73291-1.63525,1.76465-1.63525,.5835,0,1.15918,.24072,1.57764,.67236l-.60547,.83838c-.3291-.25732-.66553-.39844-.97217-.39844-.35889,0-.59033,.15771-.59033,.43994,0,.31543,.30615,.42334,.73975,.61426l.60596,.27393c.60547,.26562,.96436,.71387,.96436,1.46924,0,.90479-.68018,1.69336-1.854,1.69336-.6582,0-1.30859-.24902-1.81689-.78857Z" style="fill: #fff;"/>
        <path d="M9.91399,9.17499l.52344-.80518c.28418,.29053,.61279,.51465,1.00195,.51465,.4707,0,.77002-.26562,.77002-.78027,0-.49805-.29932-.77197-.71777-.77197-.26904,0-.40381,.06641-.68799,.26562l-.5083-.36523,.12695-2.68115h2.729v1.0791h-1.73438l-.06738,.92139c.17188-.08301,.32129-.10791,.50098-.10791,.82227,0,1.51758,.51465,1.51758,1.62695,0,1.17871-.82227,1.85107-1.75684,1.85107-.77783,0-1.31592-.32373-1.69727-.74707Z" style="fill: #fff;"/>
      </g>
    </g>
  </g>
</svg>