<?xml version="1.0" encoding="UTF-8"?>
<svg id="Calque_2" data-name="Calque 2" xmlns="http://www.w3.org/2000/svg" viewBox="0 0 19.298 13.64801">
  <g id="Calque_1-2" data-name="Calque 1">
    <g>
      <path d="M19.298,9.55396V0H4.135C1.851,0,0,1.83301,0,4.09497V13.64801H15.163c2.284,0,4.135-1.83301,4.135-4.09406" style="fill: #6b84ad;"/>
      <g>
        <path d="M5.83196,9.13446l.61279-.83887c.34424,.33203,.81494,.51465,1.22656,.51465,.44092,0,.64258-.18262,.64258-.47266,0-.31641-.26172-.41602-.6875-.60645l-.62061-.29883c-.51611-.22363-.9873-.69727-.9873-1.47754,0-.9043,.73291-1.63477,1.76465-1.63477,.5835,0,1.15918,.24023,1.57764,.67188l-.60547,.83789c-.3291-.25684-.66553-.39844-.97217-.39844-.35889,0-.59033,.1582-.59033,.44043,0,.31543,.30615,.42285,.73975,.61426l.60596,.27344c.60547,.26562,.96436,.71484,.96436,1.46973,0,.90527-.68018,1.69336-1.854,1.69336-.6582,0-1.30859-.24902-1.81689-.78809Z" style="fill: #fff;"/>
        <path d="M10.0634,8.47821c0-.63086,.35156-1.0127,.80029-1.27832v-.0332c-.37402-.30762-.63574-.69727-.63574-1.24512,0-.9043,.64307-1.46875,1.54004-1.46875,.875,0,1.45801,.57227,1.45801,1.45215,0,.49805-.2915,.89648-.62061,1.1377v.0332c.45605,.27344,.82275,.67969,.82275,1.37695,0,.83887-.68066,1.46973-1.69727,1.46973-.95703,0-1.66748-.58887-1.66748-1.44434Zm2.28809-.06641c0-.43945-.38135-.60547-.96484-.87988-.18652,.19922-.32861,.48926-.32861,.79688,0,.44824,.32129,.70605,.69531,.70605,.33643,0,.59814-.19141,.59814-.62305Zm-.06738-2.41602c0-.39844-.20166-.65527-.5459-.65527-.26904,0-.49365,.19043-.49365,.58105,0,.40625,.30664,.60547,.77783,.81348,.17188-.24121,.26172-.48145,.26172-.73926Z" style="fill: #fff;"/>
      </g>
    </g>
  </g>
</svg>