<?xml version="1.0" encoding="UTF-8"?>
<svg id="Calque_2" data-name="Calque 2" xmlns="http://www.w3.org/2000/svg" viewBox="0 0 19.298 13.64801">
  <g id="Calque_1-2" data-name="Calque 1">
    <g>
      <path d="M19.298,9.55396V0H4.135C1.851,0,0,1.83301,0,4.09497V13.64801H15.163c2.284,0,4.135-1.83301,4.135-4.09406" style="fill: #c2ddb2;"/>
      <path d="M7.59665,7.15833c0-1.80127,1.0918-2.83887,2.39258-2.83887,.71045,0,1.21875,.31543,1.55518,.70557l-.61328,.78027c-.23926-.24072-.49316-.37354-.9043-.37354-.71777,0-1.24121,.63086-1.24121,1.67676,0,1.0791,.44092,1.70166,1.3457,1.70166,.17188,0,.35889-.0498,.46338-.14111v-.87158h-.77734v-1.0542h1.80908v2.52344c-.33643,.36523-.93457,.65576-1.62207,.65576-1.34619,0-2.40771-.93799-2.40771-2.76416Z" style="fill: #000;"/>
    </g>
  </g>
</svg>