<?xml version="1.0" encoding="UTF-8"?><svg id="Calque_1" xmlns="http://www.w3.org/2000/svg" viewBox="0 0 16.87 16.87"><defs><style>.cls-1{fill:#fff;}.cls-2{fill:#0a78aa;}</style></defs><path class="cls-2" d="m16.87,8.43c0,4.66-3.78,8.43-8.43,8.43S0,13.09,0,8.43,3.78,0,8.43,0s8.43,3.78,8.43,8.43"/><path class="cls-1" d="m7.13,7.24c0-1.19.33-2.59,1.37-2.59.75,0,1.3.68,1.3,1.74-.01,1.38-1.05,2.07-1.82,2.75-1.5,1.32-2.72,2.43-2.74,5.03h6.36v-1.96h-4.1c.63-1.16,1.65-1.8,2.5-2.59.86-.79,1.55-1.72,1.55-3.41,0-2.2-1.39-3.52-2.97-3.52-2.08,0-3.21,1.98-3.15,4.55h1.68Z"/></svg>