<?xml version="1.0" encoding="UTF-8"?><svg id="Calque_1" xmlns="http://www.w3.org/2000/svg" viewBox="0 0 16.87 16.87"><defs><style>.cls-1{fill:#fff;}.cls-2{fill:#76b82f;}</style></defs><path class="cls-2" d="m16.87,8.43c0,4.66-3.78,8.43-8.43,8.43S0,13.09,0,8.43,3.78,0,8.43,0s8.43,3.78,8.43,8.43"/><path class="cls-1" d="m7.83,8.95c.84,0,1.97-.03,1.97,1.64,0,1.04-.61,1.73-1.38,1.73-1,0-1.46-.98-1.49-2.18h-1.64c-.04,2.54,1.25,4.02,3.16,4.02,1.66,0,3.16-1.31,3.16-3.63,0-1.23-.57-2.24-1.51-2.51v-.03c.79-.29,1.19-1.21,1.19-2.26,0-1.97-1.49-3.06-2.85-3.06-1.75,0-2.88,1.56-2.94,3.82h1.64c-.01-1.14.45-1.97,1.31-1.97.63,0,1.2.54,1.2,1.47,0,1.26-1.07,1.45-1.81,1.37v1.58Z"/></svg>