<?xml version="1.0" encoding="UTF-8"?><svg id="Calque_1" xmlns="http://www.w3.org/2000/svg" viewBox="0 0 16.87 16.87"><defs><style>.cls-1{fill:#fff;}.cls-2{fill:#dedd25;}.cls-3{fill:#1e1e1c;}.cls-4{fill:#33275c;}</style></defs><path class="cls-2" d="m16.87,8.43c0,4.66-3.78,8.43-8.43,8.43S0,13.09,0,8.43,3.78,0,8.43,0s8.43,3.78,8.43,8.43"/><polygon class="cls-3" points="6.66 12.68 6.66 7.14 10.08 12.68 11.8 12.68 11.8 4.19 10.21 4.19 10.21 9.86 6.73 4.19 5.06 4.19 5.06 12.68 6.66 12.68"/><rect class="cls-4" x="12.65" y="14.2" width=".72" height=".19"/><rect class="cls-4" x="4.8" y="13.57" width="7.59" height=".18"/><path class="cls-4" d="m3.98,14.06h-.39c-.05,0-.1-.04-.1-.1s.04-.1.1-.1h.39v.19Z"/><path class="cls-4" d="m3.98,13.47h-.39c-.05,0-.1-.04-.1-.1s.04-.1.1-.1h.39v.19Z"/><path class="cls-4" d="m4.06,13.11c.46,0,.83.25.83.56s-.37.56-.83.56v-1.12Z"/><polygon class="cls-1" points="4.39 13.66 4.18 13.58 4.44 13.77 4.47 13.64 4.76 13.78 4.41 13.55 4.39 13.66"/><path class="cls-4" d="m12.29,13.57h.73c0-.11-.04-.19-.08-.25-.07-.09-.16-.13-.28-.13-.1,0-.19.04-.26.1-.07.07-.11.16-.12.27m.39.82c-.19,0-.35-.06-.46-.18-.11-.12-.17-.29-.17-.5s.06-.4.17-.52c.11-.12.26-.18.44-.18s.32.06.43.18c.11.12.17.29.17.51v.06h-.98c0,.14.05.25.12.33.07.08.17.11.28.11"/></svg>