<?xml version="1.0" encoding="UTF-8"?><svg id="Calque_1" xmlns="http://www.w3.org/2000/svg" viewBox="0 0 16.87 16.86"><defs><style>.cls-1{fill:#fff;}.cls-2{fill:#86846c;}</style></defs><path class="cls-2" d="m16.87,8.43c0,4.66-3.78,8.43-8.43,8.43S0,13.09,0,8.43,3.78,0,8.43,0s8.43,3.77,8.43,8.43"/><path class="cls-1" d="m7,3.47h-1.23c-.16,1.52-1.16,2-2.24,1.97v1.52h1.92v6.43h1.55V3.47Z"/><polygon class="cls-1" points="10.85 13.39 12.32 13.39 12.32 11.09 13.34 11.09 13.34 9.44 12.32 9.44 12.32 3.47 10.94 3.47 7.62 9.25 7.62 11.09 10.85 11.09 10.85 13.39"/><polyline class="cls-2" points="10.94 5.99 10.97 5.99 10.97 9.44 8.96 9.44 10.94 5.99"/></svg>