<svg id="Calque_1" data-name="Calque 1" xmlns="http://www.w3.org/2000/svg" viewBox="0 0 138 121"><defs><style>.cls-1{fill:#005da7;}.cls-2{fill:#fff;}</style></defs><rect class="cls-1" width="138" height="121"/><path class="cls-2" d="M157.39,32.79l26.12-14.15h7.17V88.13h11.56V102h-42V88.13h12.84V40.27l-11.33,7.48-4.36-15Z" transform="translate(-136)"/><path class="cls-2" d="M208.52,97.31l3-11.16a24,24,0,0,0,13.25,4.24q12.15,0,12.14-13.65a14.78,14.78,0,0,0-2.2-8.4,6.84,6.84,0,0,0-6-3.28h-7.28V53.26h6.89a5.72,5.72,0,0,0,5.13-3.12,14.9,14.9,0,0,0,1.87-7.75c0-4.08-.92-7.08-2.76-9A10,10,0,0,0,225,30.55a21.63,21.63,0,0,0-6.1,1A20,20,0,0,0,213.41,34l-2.73-12a32.51,32.51,0,0,1,17.14-4.46q11.3,0,18.19,5.34t6.91,15.57a22.67,22.67,0,0,1-2.56,11.14,15.2,15.2,0,0,1-7.11,6.7A14.46,14.46,0,0,1,251.72,64a31,31,0,0,1,2.77,13.59q0,12.38-7.16,19t-18.7,6.59a35.38,35.38,0,0,1-20.11-5.81Z" transform="translate(-136)"/></svg>