<svg id="Calque_1" data-name="Calque 1" xmlns="http://www.w3.org/2000/svg" viewBox="0 0 138 121"><defs><style>.cls-1{fill:#3793ac;}.cls-2{fill:#fff;}</style></defs><rect class="cls-1" width="138" height="121"/><path class="cls-2" d="M156.4,62.45q0-22.73,6.91-33.85t19.52-11.13a41.05,41.05,0,0,1,9.82,1.27,22.94,22.94,0,0,1,8,3.34l-4.3,12.3a37.58,37.58,0,0,0-6.22-3.32,17.51,17.51,0,0,0-6-.87,8.86,8.86,0,0,0-5,1.43,11.26,11.26,0,0,0-3.52,3.79,23.35,23.35,0,0,0-2.27,6A50.84,50.84,0,0,0,172,48.71c-.25,2.51-.44,5.34-.55,8.49A16.1,16.1,0,0,1,177,52.44a14.07,14.07,0,0,1,6.8-1.8q8.77,0,13.8,6.38t5,18.9c0,8.35-1.86,15.41-5.58,20.12s-9.28,7.07-16.68,7.07A23.1,23.1,0,0,1,170.15,101a18.93,18.93,0,0,1-7.44-6.8A35.55,35.55,0,0,1,158,81.58a98.16,98.16,0,0,1-1.6-19.15ZM171.16,69q.34,11.33,2.41,16.34c1.38,3.35,3.32,5,5.84,5a6.9,6.9,0,0,0,6-3.41c1.55-2.28,2.32-5.86,2.32-10.77q0-13.77-8.08-13.77a7.39,7.39,0,0,0-5,2A14.15,14.15,0,0,0,171.15,69Z" transform="translate(-136)"/><path class="cls-2" d="M209.28,32.46V18.63H252.8V30.06l-9.75,27.33a137.33,137.33,0,0,0-6.4,23.82,156.46,156.46,0,0,0-1.8,20.75H217.24a118.41,118.41,0,0,1,1.95-22.1,166,166,0,0,1,7.29-24.94l8.13-22.45H209.28Z" transform="translate(-136)"/></svg>