<svg id="Calque_1" data-name="Calque 1" xmlns="http://www.w3.org/2000/svg" viewBox="0 0 138 121"><defs><style>.cls-1{fill:#3793ac;}.cls-2{fill:#fff;}</style></defs><rect class="cls-1" width="138" height="121"/><path class="cls-2" d="M156.93,32.46V18.63h43.52V30.06L190.7,57.39a137.33,137.33,0,0,0-6.4,23.82A156.46,156.46,0,0,0,182.5,102H164.89a118.41,118.41,0,0,1,2-22.1,166,166,0,0,1,7.29-24.94l8.13-22.45H156.93Z" transform="translate(-136)"/><path class="cls-2" d="M206.84,87.08V72.67l25.74-54h18.19v56h4.88V87.08h-4.88V102H233.16V87.08Zm13-12.49h13.31V43.27Z" transform="translate(-136)"/></svg>