<svg id="Calque_1" data-name="Calque 1" xmlns="http://www.w3.org/2000/svg" viewBox="0 0 138 121"><defs><style>.cls-1{fill:#ee8250;}.cls-2{fill:#fff;}</style></defs><rect class="cls-1" width="138" height="121"/><path class="cls-2" d="M156.17,97.31l3-11.16a24,24,0,0,0,13.25,4.24q12.15,0,12.14-13.65a14.78,14.78,0,0,0-2.2-8.4,6.84,6.84,0,0,0-6-3.28h-7.28V53.26H176a5.72,5.72,0,0,0,5.13-3.12A14.9,14.9,0,0,0,183,42.39c0-4.08-.92-7.08-2.76-9a10,10,0,0,0-7.58-2.86,21.63,21.63,0,0,0-6.1,1A20,20,0,0,0,161.06,34l-2.73-12a32.51,32.51,0,0,1,17.14-4.46q11.28,0,18.19,5.34t6.91,15.57A22.67,22.67,0,0,1,198,49.52a15.2,15.2,0,0,1-7.11,6.7A14.46,14.46,0,0,1,199.36,64a31,31,0,0,1,2.77,13.59q0,12.38-7.16,19t-18.7,6.59a35.35,35.35,0,0,1-20.1-5.81Z" transform="translate(-136)"/><path class="cls-2" d="M208.76,62.45q0-22.73,6.92-33.85T235.2,17.47A41.05,41.05,0,0,1,245,18.74a22.94,22.94,0,0,1,8,3.34l-4.3,12.3a37.18,37.18,0,0,0-6.22-3.32,17.51,17.51,0,0,0-6-.87,8.86,8.86,0,0,0-5,1.43A11.26,11.26,0,0,0,228,35.41a23.35,23.35,0,0,0-2.27,6,50.84,50.84,0,0,0-1.28,7.35c-.25,2.51-.44,5.34-.55,8.49a16.1,16.1,0,0,1,5.46-4.76,14.07,14.07,0,0,1,6.8-1.8q8.77,0,13.8,6.38t5,18.9c0,8.35-1.86,15.41-5.58,20.12s-9.28,7.07-16.68,7.07A23.1,23.1,0,0,1,222.52,101a18.93,18.93,0,0,1-7.44-6.8,35.55,35.55,0,0,1-4.74-12.64,98.16,98.16,0,0,1-1.6-19.15ZM223.52,69q.34,11.33,2.41,16.34t5.84,5a6.91,6.91,0,0,0,6-3.41c1.55-2.28,2.32-5.86,2.32-10.77q0-13.77-8.08-13.77a7.39,7.39,0,0,0-5,2A14.32,14.32,0,0,0,223.51,69Z" transform="translate(-136)"/></svg>