<svg id="Calque_1" data-name="Calque 1" xmlns="http://www.w3.org/2000/svg" viewBox="0 0 138 121"><defs><style>.cls-1{fill:#005da7;}.cls-2{fill:#fff;}</style></defs><rect class="cls-1" width="138" height="121"/><path class="cls-2" d="M157.39,32.79l26.12-14.15h7.17V88.13h11.56V102h-42V88.13h12.84V40.27l-11.33,7.48-4.36-15Z" transform="translate(-136)"/><path class="cls-2" d="M208.41,79.7a25.45,25.45,0,0,1,10.23-20.92,27.5,27.5,0,0,1-6-7.87,23.75,23.75,0,0,1-2.18-10.72q0-10.39,5.52-16.56t15.8-6.16c6.85,0,11.78,2,15.57,6S253,32.6,253,39a22.61,22.61,0,0,1-2.35,10.84,27,27,0,0,1-6.54,7.82A28.07,28.07,0,0,1,252,66.35q2.92,5.06,2.93,13.13,0,10.86-5.87,17.26t-17.61,6.39q-11,0-17.05-6.13t-6-17.29Zm15,.81q0,6,2.21,9.59a7,7,0,0,0,6.28,3.54A6.73,6.73,0,0,0,238.05,90a18.27,18.27,0,0,0,2.15-9.38,15.47,15.47,0,0,0-.87-5.08,7.44,7.44,0,0,0-1.1-2c-.5-.66-.92-1.17-1.25-1.54a11.74,11.74,0,0,0-1.57-1.37c-.72-.54-1.24-.92-1.57-1.13l-1.71-1c-.81-.48-1.34-.8-1.57-1a24.13,24.13,0,0,0-2.67,2.27,22.69,22.69,0,0,0-2.18,2.62A11.35,11.35,0,0,0,224,76a16.09,16.09,0,0,0-.58,4.5Zm1.1-40.21a11.65,11.65,0,0,0,.7,4.21,8.27,8.27,0,0,0,2.18,3.2A21.58,21.58,0,0,0,230,49.83a34.24,34.24,0,0,0,3.17,1.8,27.92,27.92,0,0,0,3-2.76,13.22,13.22,0,0,0,2.09-3.49,12.39,12.39,0,0,0,1-5.08q0-12.15-7.5-12.14a6,6,0,0,0-5.35,3.08c-1.28,2.05-1.92,5.08-1.92,9.06Z" transform="translate(-136)"/></svg>