<svg id="Calque_1" data-name="Calque 1" xmlns="http://www.w3.org/2000/svg" viewBox="0 0 138 121"><defs><style>.cls-1{fill:#ee8250;}.cls-2{fill:#fff;}</style></defs><rect class="cls-1" width="138" height="121"/><path class="cls-2" d="M156.17,97.31l3-11.16a24,24,0,0,0,13.25,4.24q12.15,0,12.14-13.65a14.78,14.78,0,0,0-2.2-8.4,6.84,6.84,0,0,0-6-3.28h-7.28V53.26H176a5.72,5.72,0,0,0,5.13-3.12A14.9,14.9,0,0,0,183,42.39c0-4.08-.92-7.08-2.76-9a10,10,0,0,0-7.58-2.86,21.63,21.63,0,0,0-6.1,1A20,20,0,0,0,161.06,34l-2.73-12a32.51,32.51,0,0,1,17.14-4.46q11.28,0,18.19,5.34t6.91,15.57A22.67,22.67,0,0,1,198,49.52a15.2,15.2,0,0,1-7.11,6.7A14.46,14.46,0,0,1,199.36,64a31,31,0,0,1,2.77,13.59q0,12.38-7.16,19t-18.7,6.59a35.35,35.35,0,0,1-20.1-5.81Z" transform="translate(-136)"/><path class="cls-2" d="M209.1,23.3A25.25,25.25,0,0,1,217.53,19a35.41,35.41,0,0,1,10.52-1.54q11.77,0,17.92,6.48t6.14,18.15a39.15,39.15,0,0,1-2.85,14.78,114.22,114.22,0,0,1-9.06,17l-8.66,14.2h24.11V102H211.49l-.58-11.66L222.47,72a131.57,131.57,0,0,0,9.3-16.44,27.85,27.85,0,0,0,2.5-11.11q0-5.91-2.61-9.42a8.66,8.66,0,0,0-7.38-3.52q-5.34,0-11.45,5.35c-.16-.47-.8-2.76-2-6.88s-1.73-6.35-1.77-6.7Z" transform="translate(-136)"/></svg>