<svg id="Calque_1" data-name="Calque 1" xmlns="http://www.w3.org/2000/svg" viewBox="0 0 138 121"><defs><style>.cls-1{fill:#3793ac;}.cls-2{fill:#fff;}</style></defs><rect class="cls-1" width="138" height="121"/><path class="cls-2" d="M156.4,62.45q0-22.73,6.91-33.85t19.52-11.13a41.05,41.05,0,0,1,9.82,1.27,22.94,22.94,0,0,1,8,3.34l-4.3,12.3a37.58,37.58,0,0,0-6.22-3.32,17.51,17.51,0,0,0-6-.87,8.86,8.86,0,0,0-5,1.43,11.26,11.26,0,0,0-3.52,3.79,23.35,23.35,0,0,0-2.27,6A50.84,50.84,0,0,0,172,48.71c-.25,2.51-.44,5.34-.55,8.49A16.1,16.1,0,0,1,177,52.44a14.07,14.07,0,0,1,6.8-1.8q8.77,0,13.8,6.38t5,18.9c0,8.35-1.86,15.41-5.58,20.12s-9.28,7.07-16.68,7.07A23.1,23.1,0,0,1,170.15,101a18.93,18.93,0,0,1-7.44-6.8A35.55,35.55,0,0,1,158,81.58a98.16,98.16,0,0,1-1.6-19.15ZM171.16,69q.34,11.33,2.41,16.34c1.38,3.35,3.32,5,5.84,5a6.9,6.9,0,0,0,6-3.41c1.55-2.28,2.32-5.86,2.32-10.77q0-13.77-8.08-13.77a7.39,7.39,0,0,0-5,2A14.15,14.15,0,0,0,171.15,69Z" transform="translate(-136)"/><path class="cls-2" d="M208.41,79.7a25.45,25.45,0,0,1,10.23-20.92,27.5,27.5,0,0,1-6-7.87,23.75,23.75,0,0,1-2.18-10.72q0-10.39,5.52-16.56t15.8-6.16c6.85,0,11.78,2,15.57,6S253,32.6,253,39a22.61,22.61,0,0,1-2.35,10.84,27,27,0,0,1-6.54,7.82A28.07,28.07,0,0,1,252,66.35q2.92,5.06,2.93,13.13,0,10.86-5.87,17.26t-17.61,6.39q-11,0-17.05-6.13t-6-17.29Zm15,.81q0,6,2.21,9.59a7,7,0,0,0,6.28,3.54A6.73,6.73,0,0,0,238.05,90a18.27,18.27,0,0,0,2.15-9.38,15.47,15.47,0,0,0-.87-5.08,7.44,7.44,0,0,0-1.1-2c-.5-.66-.92-1.17-1.25-1.54a11.74,11.74,0,0,0-1.57-1.37c-.72-.54-1.24-.92-1.57-1.13l-1.71-1c-.81-.48-1.34-.8-1.57-1a24.13,24.13,0,0,0-2.67,2.27,22.69,22.69,0,0,0-2.18,2.62A11.35,11.35,0,0,0,224,76a16.09,16.09,0,0,0-.58,4.5Zm1.1-40.21a11.65,11.65,0,0,0,.7,4.21,8.27,8.27,0,0,0,2.18,3.2A21.58,21.58,0,0,0,230,49.83a34.24,34.24,0,0,0,3.17,1.8,27.92,27.92,0,0,0,3-2.76,13.22,13.22,0,0,0,2.09-3.49,12.39,12.39,0,0,0,1-5.08q0-12.15-7.5-12.14a6,6,0,0,0-5.35,3.08c-1.28,2.05-1.92,5.08-1.92,9.06Z" transform="translate(-136)"/></svg>