<svg id="Calque_1" data-name="Calque 1" xmlns="http://www.w3.org/2000/svg" viewBox="0 0 138 121"><defs><style>.cls-1{fill:#ee8250;}.cls-2{fill:#fff;}</style></defs><rect class="cls-1" width="138" height="121"/><path class="cls-2" d="M154.49,87.08V72.67l25.74-54h18.19v56h4.88V87.08h-4.88V102H180.81V87.08Zm13-12.49h13.31V43.27Z" transform="translate(-136)"/><path class="cls-2" d="M208.52,60.35q0-15.94,2.44-25.31t7.44-13.47q5-4.09,13.36-4.1c5.57,0,10.33,1.42,13.68,4.25s5.77,7.32,7.26,13.47,2.24,14.54,2.24,25.16q0,23.16-5.43,33t-17.75,9.81q-8.31,0-13.33-4.15T211,85.45Q208.52,76.08,208.52,60.35Zm14.53,0A125.2,125.2,0,0,0,224,78c.64,4.24,1.57,7.19,2.79,8.83a6.23,6.23,0,0,0,9.94,0q1.83-2.49,2.76-8.83a128.49,128.49,0,0,0,.93-17.62,130.27,130.27,0,0,0-.93-17.71c-.62-4.24-1.54-7.2-2.76-8.85a6.21,6.21,0,0,0-9.94,0Q225,36.28,224,42.64A125.76,125.76,0,0,0,223.05,60.35Z" transform="translate(-136)"/></svg>