<svg id="Calque_1" data-name="Calque 1" xmlns="http://www.w3.org/2000/svg" viewBox="0 0 138 121"><defs><style>.cls-1{fill:#ee8250;}.cls-2{fill:#fff;}</style></defs><rect class="cls-1" width="138" height="121"/><path class="cls-2" d="M156.17,97.31l3-11.16a24,24,0,0,0,13.25,4.24q12.15,0,12.14-13.65a14.78,14.78,0,0,0-2.2-8.4,6.84,6.84,0,0,0-6-3.28h-7.28V53.26H176a5.72,5.72,0,0,0,5.13-3.12A14.9,14.9,0,0,0,183,42.39c0-4.08-.92-7.08-2.76-9a10,10,0,0,0-7.58-2.86,21.63,21.63,0,0,0-6.1,1A20,20,0,0,0,161.06,34l-2.73-12a32.51,32.51,0,0,1,17.14-4.46q11.28,0,18.19,5.34t6.91,15.57A22.67,22.67,0,0,1,198,49.52a15.2,15.2,0,0,1-7.11,6.7A14.46,14.46,0,0,1,199.36,64a31,31,0,0,1,2.77,13.59q0,12.38-7.16,19t-18.7,6.59a35.35,35.35,0,0,1-20.1-5.81Z" transform="translate(-136)"/><path class="cls-2" d="M208.64,44.72q0-13.08,5.58-20.16t16.68-7.09a23.1,23.1,0,0,1,10.17,2.09,19,19,0,0,1,7.44,6.77,35.2,35.2,0,0,1,4.74,12.58A98.47,98.47,0,0,1,254.85,58q0,22.78-6.91,33.93t-19.52,11.16a42,42,0,0,1-9.94-1.26,21.09,21.09,0,0,1-7.9-3.37l4.07-12.66A32.62,32.62,0,0,0,221,89.09a18.22,18.22,0,0,0,6.13,1,8.73,8.73,0,0,0,5.11-1.53,11.54,11.54,0,0,0,3.54-3.93,24.83,24.83,0,0,0,2.24-6,48.55,48.55,0,0,0,1.25-7.12c.23-2.35.39-5,.46-7.81a15.7,15.7,0,0,1-5.55,4.59,14.81,14.81,0,0,1-6.71,1.68q-8.78,0-13.8-6.36t-5-18.86Zm14.88-.23q0,13.65,8.14,13.65a7.39,7.39,0,0,0,4.76-1.86,12.22,12.22,0,0,0,3.43-4.42q-.4-11.69-2.27-16.68t-5.69-5a6.9,6.9,0,0,0-6,3.43q-2.35,3.44-2.35,10.87Z" transform="translate(-136)"/></svg>