<svg id="Calque_1" data-name="Calque 1" xmlns="http://www.w3.org/2000/svg" viewBox="0 0 138 121"><defs><style>.cls-1{fill:#e7619c;}.cls-2{fill:#fff;}</style></defs><rect class="cls-1" width="138" height="121"/><path class="cls-2" d="M183.29,97.31l3-11.68A24.11,24.11,0,0,0,200,90.39q5.52,0,8.48-3.37t3-9.94q0-5.52-2.87-8.77a9.93,9.93,0,0,0-7.87-3.25H188.11l-1.19-1.35,3.27-45.07h34.54V31.71H204.2L202.68,53H208q10.41,0,15.71,6.73T229,77.91q0,12.38-7.07,18.8t-18.55,6.42a35.44,35.44,0,0,1-20.1-5.81Z" transform="translate(-136)"/></svg>