<svg id="Calque_1" data-name="Calque 1" xmlns="http://www.w3.org/2000/svg" viewBox="0 0 24.95 10.58"><defs><style>.cls-1{fill:#00b1eb;}.cls-2{fill:#fff;}.cls-3{fill:none;stroke:#fff;stroke-linecap:round;stroke-width:1.09px;}</style></defs><rect class="cls-1" width="24.95" height="10.58"/><path class="cls-2" d="M820.85,412.31c-1.18,0-2-.67-2-2.79s.87-3.1,2.23-3.1a3.46,3.46,0,0,1,1.27.2l-.23.85a3.43,3.43,0,0,0-.92-.14c-.75,0-1.2.43-1.2,2.14,0,1.52.39,1.94,1.11,1.94a4.36,4.36,0,0,0,1.18-.18l.2.82a4.13,4.13,0,0,1-1.63.26" transform="translate(-817.17 -403.84)"/><path class="cls-2" d="M831,409.78c.53,1.32.83,1.54,1.12,1.54h.1l0,1a.85.85,0,0,1-.23,0c-.85,0-1.33-.41-2.08-2.32h-.63l-1.11-.18v-3.33c.65,0,1.18-.06,1.75-.06,1.38,0,2,.47,2,1.71,0,.9-.33,1.46-.95,1.65m-1.07-2.49a4.72,4.72,0,0,0-.63,0v2l.6,0c.6,0,.92-.23.92-1s-.19-1-.89-1" transform="translate(-817.17 -403.84)"/><path class="cls-2" d="M832.83,409.36c0-2.22.82-2.94,2.11-2.94,1.14,0,2.12.58,2.12,2.92s-1,3-2.12,3-2.11-.65-2.11-2.95m1.15,0c0,1.7.41,2.06,1,2.06s1-.35,1-2.06-.41-2.06-1-2.06-1,.35-1,2.06" transform="translate(-817.17 -403.84)"/><polyline class="cls-2" points="20.56 8.38 20.56 2.66 21.68 2.66 21.68 7.42 23.61 7.42 23.61 8.38"/><path class="cls-3" d="M828.7,408.4c0,2.53-1.27,3.38-3,3.38a2.46,2.46,0,0,1-2.46-2.71A2,2,0,0,1,825.2,407a1.52,1.52,0,0,1,1.62,1.53,1.28,1.28,0,0,1-1.26,1.4c-.57,0-1-.89-.41-1.18" transform="translate(-817.17 -403.84)"/></svg>