<svg id="Calque_1" data-name="Calque 1" xmlns="http://www.w3.org/2000/svg" viewBox="0 0 138 121"><defs><style>.cls-1{fill:#005da7;}.cls-2{fill:#fff;}</style></defs><rect class="cls-1" width="138" height="121"/><path class="cls-2" d="M157.39,32.79l26.12-14.15h7.17V88.13h11.56V102h-42V88.13h12.84V40.27l-11.33,7.48-4.36-15Z" transform="translate(-136)"/><path class="cls-2" d="M208.76,62.45q0-22.73,6.92-33.85T235.2,17.47A41.05,41.05,0,0,1,245,18.74a22.94,22.94,0,0,1,8,3.34l-4.3,12.3a37.18,37.18,0,0,0-6.22-3.32,17.51,17.51,0,0,0-6-.87,8.86,8.86,0,0,0-5,1.43A11.26,11.26,0,0,0,228,35.41a23.35,23.35,0,0,0-2.27,6,50.84,50.84,0,0,0-1.28,7.35c-.25,2.51-.44,5.34-.55,8.49a16.1,16.1,0,0,1,5.46-4.76,14.07,14.07,0,0,1,6.8-1.8q8.77,0,13.8,6.38t5,18.9c0,8.35-1.86,15.41-5.58,20.12s-9.28,7.07-16.68,7.07A23.1,23.1,0,0,1,222.52,101a18.93,18.93,0,0,1-7.44-6.8,35.55,35.55,0,0,1-4.74-12.64,98.16,98.16,0,0,1-1.6-19.15ZM223.52,69q.34,11.33,2.41,16.34t5.84,5a6.91,6.91,0,0,0,6-3.41c1.55-2.28,2.32-5.86,2.32-10.77q0-13.77-8.08-13.77a7.39,7.39,0,0,0-5,2A14.32,14.32,0,0,0,223.51,69Z" transform="translate(-136)"/></svg>