<svg id="Calque_1" data-name="Calque 1" xmlns="http://www.w3.org/2000/svg" viewBox="0 0 138 121"><defs><style>.cls-1{fill:#3793ac;}.cls-2{fill:#fff;}</style></defs><rect class="cls-1" width="138" height="121"/><path class="cls-2" d="M156.4,62.45q0-22.73,6.91-33.85t19.52-11.13a41.05,41.05,0,0,1,9.82,1.27,22.94,22.94,0,0,1,8,3.34l-4.3,12.3a37.58,37.58,0,0,0-6.22-3.32,17.51,17.51,0,0,0-6-.87,8.86,8.86,0,0,0-5,1.43,11.26,11.26,0,0,0-3.52,3.79,23.35,23.35,0,0,0-2.27,6A50.84,50.84,0,0,0,172,48.71c-.25,2.51-.44,5.34-.55,8.49A16.1,16.1,0,0,1,177,52.44a14.07,14.07,0,0,1,6.8-1.8q8.77,0,13.8,6.38t5,18.9c0,8.35-1.86,15.41-5.58,20.12s-9.28,7.07-16.68,7.07A23.1,23.1,0,0,1,170.15,101a18.93,18.93,0,0,1-7.44-6.8A35.55,35.55,0,0,1,158,81.58a98.16,98.16,0,0,1-1.6-19.15ZM171.16,69q.34,11.33,2.41,16.34c1.38,3.35,3.32,5,5.84,5a6.9,6.9,0,0,0,6-3.41c1.55-2.28,2.32-5.86,2.32-10.77q0-13.77-8.08-13.77a7.39,7.39,0,0,0-5,2A14.15,14.15,0,0,0,171.15,69Z" transform="translate(-136)"/><path class="cls-2" d="M208.64,97.31l3-11.68a24.11,24.11,0,0,0,13.71,4.76q5.52,0,8.48-3.37t3-9.94q0-5.52-2.87-8.77A9.93,9.93,0,0,0,226,65.06H213.46l-1.19-1.35,3.27-45.07h34.54V31.71H229.55L228,53h5.32q10.41,0,15.71,6.73t5.29,18.2q0,12.38-7.07,18.8t-18.55,6.42a35.44,35.44,0,0,1-20.1-5.81Z" transform="translate(-136)"/></svg>