<?xml version="1.0" encoding="utf-8"?>
<!-- Generator: Adobe Illustrator 24.0.0, SVG Export Plug-In . SVG Version: 6.00 Build 0)  -->
<svg version="1.1" id="Calque_1" xmlns="http://www.w3.org/2000/svg" xmlns:xlink="http://www.w3.org/1999/xlink" x="0px" y="0px"
	 viewBox="0 0 697.3 227.3" style="enable-background:new 0 0 697.3 227.3;" xml:space="preserve">
<style type="text/css">
	.st0{fill:#505365;}
	.st1{fill:#FFFFFF;}
</style>
<rect class="st0" width="697.3" height="227.3"/>
<path class="st1" d="M80.2,41.6H113l36.9,128.8l-28.6,0.4l-6.9-28.6h-36l-6.9,28.6l-28.6-0.4L80.2,41.6z M110.2,123.1L96.6,66.4
	l-14,56.8H110.2z"/>
<path class="st1" d="M162.9,90.4h-12.2V73.8l6.4-1.5h5.8V61.8l3.5-12.2h23.5v22.8h22.6v18h-22.6V137c0,10.6,3.3,14.7,11.3,14.7
	c3.6,0,7.3-0.7,11.6-1.8l3.3,18.6c-8,2.4-15.6,4-23.8,4c-20.6,0-29.3-10.2-29.3-33.9V90.4z"/>
<path class="st1" d="M266.1,70.6c26.4,0,39.1,14.7,39.1,44.4c0,2.9-0.2,5.8-0.4,7.8c-11.1,1.1-29.1,2.9-55.3,3.3v2.6
	c0.2,19.5,6.4,25.3,19.1,25.3c9.1,0,22-1.8,32.9-4.7l3.3,18.2c-11.3,3.5-23.3,5.1-36.6,5.1c-30.6,0-46.4-14.4-46.4-48.4
	C221.9,86.9,236.6,70.6,266.1,70.6 M278.6,111.3c-0.4-19.4-5.1-25.3-13.8-25.3c-7.6,0-14,4.4-15.5,26.9
	C260.1,112.9,276.1,111.9,278.6,111.3"/>
<path class="st1" d="M323.8,36h26.9v100.4c0,12.4,2.7,14.9,7.1,14.9c2.2,0,4.4-0.4,7.7-1.3l3.3,18.7c-6.2,2-13.1,3.6-21.1,3.6
	c-15.8,0-23.8-5.3-23.8-33.8V36z"/>
<path class="st1" d="M374.8,45.6c0-8.2,4.2-11.6,15.7-11.6c11.3,0,15.5,3.4,15.5,11.6c0,8.2-4.2,11.4-15.5,11.4
	C379.2,57.1,374.8,53.8,374.8,45.6 M377,72.4h26.9v98.3H377V72.4z"/>
<path class="st1" d="M465.3,70.6c26.4,0,39.1,14.7,39.1,44.4c0,2.9-0.2,5.8-0.4,7.8c-11.1,1.1-29.1,2.9-55.3,3.3v2.6
	c0.2,19.5,6.4,25.3,19.1,25.3c9.1,0,22-1.8,32.9-4.7l3.3,18.2c-11.3,3.5-23.3,5.1-36.6,5.1c-30.6,0-46.4-14.4-46.4-48.4
	C421,86.9,435.8,70.6,465.3,70.6 M477.8,111.3C477.4,91.9,472.7,86,464,86c-7.6,0-14,4.4-15.5,26.9
	C459.3,112.9,475.3,111.9,477.8,111.3"/>
<path class="st1" d="M523,72.4h24v10.2c8.7-7.6,16.6-12,26.4-12c4,0,8.6,0.5,12.4,1.6L582,93.3c-3.8-0.9-8-1.6-12.2-1.6
	c-6.4,0-13.1,2.2-19.8,8.2v70.8H523V72.4z"/>
<path class="st1" d="M591.3,150.8c6.7,2.6,20.7,4.9,30.2,4.9c9.7,0,15.8-3.5,15.8-10.4c0-15.8-46.9-11.3-46.9-44.4
	c0-20.9,13.8-30.4,38.2-30.4c10.6,0,20.6,1.4,27.8,4l-3.3,16.9c-4.5-1.8-16-3.8-25.8-3.8c-9.1,0-13.6,3.8-13.6,9.8
	c0,16.4,47.3,13.6,47.3,45.5c0,20.8-15.3,29.5-40.9,29.5c-10.9,0-23.1-1.3-32.2-4.4L591.3,150.8z"/>
</svg>
