<svg id="Calque_1" data-name="Calque 1" xmlns="http://www.w3.org/2000/svg" viewBox="0 0 138 121"><defs><style>.cls-1{fill:#3793ac;}.cls-2{fill:#fff;}</style></defs><rect class="cls-1" width="138" height="121"/><path class="cls-2" d="M156.93,32.46V18.63h43.52V30.06L190.7,57.39a137.33,137.33,0,0,0-6.4,23.82A156.46,156.46,0,0,0,182.5,102H164.89a118.41,118.41,0,0,1,2-22.1,166,166,0,0,1,7.29-24.94l8.13-22.45H156.93Z" transform="translate(-136)"/><path class="cls-2" d="M208.64,97.31l3-11.68a24.11,24.11,0,0,0,13.71,4.76q5.52,0,8.48-3.37t3-9.94q0-5.52-2.87-8.77A9.93,9.93,0,0,0,226,65.06H213.46l-1.19-1.35,3.27-45.07h34.54V31.71H229.55L228,53h5.32q10.41,0,15.71,6.73t5.29,18.2q0,12.38-7.07,18.8t-18.55,6.42a35.44,35.44,0,0,1-20.1-5.81Z" transform="translate(-136)"/></svg>