<?xml version="1.0" encoding="UTF-8" standalone="no"?>
<!-- Created with Inkscape (http://www.inkscape.org/) -->

<svg
   width="30.817257mm"
   height="11.377439mm"
   viewBox="0 0 30.817257 11.377439"
   version="1.1"
   id="svg1"
   xml:space="preserve"
   xmlns="http://www.w3.org/2000/svg"
   xmlns:svg="http://www.w3.org/2000/svg"><defs
     id="defs1"><clipPath
       clipPathUnits="userSpaceOnUse"
       id="clipPath1928"><path
         d="M 0,1434.33 H 382.677 V 0 H 0 Z"
         id="path1928" /></clipPath><clipPath
       clipPathUnits="userSpaceOnUse"
       id="clipPath1930"><path
         d="M 0,1434.33 H 382.677 V 0 H 0 Z"
         id="path1930" /></clipPath><clipPath
       clipPathUnits="userSpaceOnUse"
       id="clipPath1932"><path
         d="M 0,1434.33 H 382.677 V 0 H 0 Z"
         transform="translate(-45.634801,-1227.7726)"
         id="path1932" /></clipPath><clipPath
       clipPathUnits="userSpaceOnUse"
       id="clipPath1934"><path
         d="M 0,1434.33 H 382.677 V 0 H 0 Z"
         transform="translate(-74.167502,-1226.4077)"
         id="path1934" /></clipPath><clipPath
       clipPathUnits="userSpaceOnUse"
       id="clipPath1936"><path
         d="M 0,1434.33 H 382.677 V 0 H 0 Z"
         transform="translate(-79.219704,-1231.9771)"
         id="path1936" /></clipPath><clipPath
       clipPathUnits="userSpaceOnUse"
       id="clipPath1938"><path
         d="M 0,1434.33 H 382.677 V 0 H 0 Z"
         transform="translate(-85.9297,-1222.814)"
         id="path1938" /></clipPath><clipPath
       clipPathUnits="userSpaceOnUse"
       id="clipPath1940"><path
         d="M 0,1434.33 H 382.677 V 0 H 0 Z"
         transform="translate(-91.105502,-1229.2339)"
         id="path1940" /></clipPath><clipPath
       clipPathUnits="userSpaceOnUse"
       id="clipPath1942"><path
         d="M 0,1434.33 H 382.677 V 0 H 0 Z"
         transform="translate(-105.3784,-1223.1841)"
         id="path1942" /></clipPath><clipPath
       clipPathUnits="userSpaceOnUse"
       id="clipPath1944"><path
         d="M 0,1434.33 H 382.677 V 0 H 0 Z"
         transform="translate(-72.864302,-1216.4282)"
         id="path1944" /></clipPath><clipPath
       clipPathUnits="userSpaceOnUse"
       id="clipPath1946"><path
         d="M 0,1434.33 H 382.677 V 0 H 0 Z"
         transform="translate(-78.354999,-1215.8384)"
         id="path1946" /></clipPath><clipPath
       clipPathUnits="userSpaceOnUse"
       id="clipPath1948"><path
         d="M 0,1434.33 H 382.677 V 0 H 0 Z"
         transform="translate(-86.3281,-1209.4185)"
         id="path1948" /></clipPath><clipPath
       clipPathUnits="userSpaceOnUse"
       id="clipPath1950"><path
         d="M 0,1434.33 H 382.677 V 0 H 0 Z"
         transform="translate(-91.5034,-1215.8384)"
         id="path1950" /></clipPath></defs><g
     id="layer-MC0"
     transform="matrix(0.26458333,0,0,0.26458335,-9.4477432,-69.983369)"><path
       id="path1927"
       d="m 26.781,1203.756 h 87.356 v 32.196 H 26.781 Z"
       style="fill:#fbc707;fill-opacity:1;fill-rule:nonzero;stroke:none"
       transform="matrix(1.3333333,0,0,-1.3333333,0,1912.44)"
       clip-path="url(#clipPath1928)" /><path
       id="path1929"
       d="m 32.312,1203.701 h 32.411 v 32.251 H 32.312 Z"
       style="fill:#231f20;fill-opacity:1;fill-rule:nonzero;stroke:none"
       transform="matrix(1.3333333,0,0,-1.3333333,0,1912.44)"
       clip-path="url(#clipPath1930)" /><path
       id="path1931"
       d="M 0,0 H -5.785 V 3.868 H 10.71 V 0 H 4.958 V -19.271 H 0 Z"
       style="fill:#ffffff;fill-opacity:1;fill-rule:nonzero;stroke:none"
       transform="matrix(1.3333333,0,0,-1.3333333,60.8464,275.40987)"
       clip-path="url(#clipPath1932)" /><path
       id="path1933"
       d="m 0,0 c 1.344,0 1.729,0.466 1.729,1.879 0,1.331 -0.316,1.797 -1.633,1.797 -0.315,0 -0.603,-0.013 -1.221,-0.054 V 0.042 C -0.672,0.014 -0.398,0 0,0 m -3.183,5.048 c 1.633,0.082 2.648,0.11 3.142,0.11 3.004,0 3.868,-0.933 3.868,-3.265 0,-2.428 -0.987,-3.402 -3.388,-3.402 -0.672,0 -0.823,0 -1.564,0.041 v -3.114 h -2.058 z"
       style="fill:#231f20;fill-opacity:1;fill-rule:nonzero;stroke:none"
       transform="matrix(1.3333333,0,0,-1.3333333,98.89,277.22973)"
       clip-path="url(#clipPath1934)" /><path
       id="path1935"
       d="m 0,0 h 2.03 v -7.572 c 0,-0.933 0.206,-1.125 0.535,-1.125 0.165,0 0.33,0.028 0.577,0.096 l 0.246,-1.413 C 2.922,-10.165 2.401,-10.288 1.797,-10.288 0.604,-10.288 0,-9.89 0,-7.737 Z"
       style="fill:#231f20;fill-opacity:1;fill-rule:nonzero;stroke:none"
       transform="matrix(1.3333333,0,0,-1.3333333,105.62627,269.80387)"
       clip-path="url(#clipPath1936)" /><path
       id="path1937"
       d="M 0,0 C 0.453,0 0.933,0.274 1.235,0.617 V 2.346 C 0.137,2.181 -0.741,2.03 -0.741,1.001 -0.741,0.329 -0.466,0 0,0 M 1.235,3.292 V 4.17 c 0,0.617 -0.329,0.974 -1.18,0.974 -0.535,0 -1.33,-0.096 -2.03,-0.302 L -2.236,6.2 c 0.768,0.234 1.646,0.357 2.469,0.357 2.278,0 3.032,-0.933 3.032,-2.511 L 3.251,0.988 c 0,-0.453 0.124,-0.604 0.33,-0.604 0.096,0 0.219,0.028 0.342,0.069 L 4.129,-0.796 C 3.718,-1.029 3.402,-1.125 2.881,-1.125 c -0.631,0 -1.084,0.302 -1.317,0.864 -0.617,-0.535 -1.331,-0.864 -2.236,-0.864 -1.152,0 -2.03,0.617 -2.03,2.03 0,1.893 1.742,2.236 3.937,2.387"
       style="fill:#231f20;fill-opacity:1;fill-rule:nonzero;stroke:none"
       transform="matrix(1.3333333,0,0,-1.3333333,114.57293,282.02133)"
       clip-path="url(#clipPath1938)" /><path
       id="path1939"
       d="m 0,0 h 1.811 v -0.48 c 0.836,0.411 1.44,0.617 2.25,0.617 1.262,0 1.975,-0.645 1.975,-2.016 v -5.529 h -2.03 v 5.144 c 0,0.59 -0.275,0.892 -0.823,0.892 -0.371,0 -0.755,-0.137 -1.153,-0.343 V -7.408 H 0 Z"
       style="fill:#231f20;fill-opacity:1;fill-rule:nonzero;stroke:none"
       transform="matrix(1.3333333,0,0,-1.3333333,121.474,273.46147)"
       clip-path="url(#clipPath1940)" /><path
       id="path1941"
       d="m 0,0 c 1.18,0 1.797,0.343 1.797,1.44 0,0.947 -0.59,1.372 -1.344,1.372 H -1.07 V 0.055 C -0.48,0.014 -0.22,0 0,0 m 0.466,4.143 c 0.645,0 1.07,0.494 1.07,1.372 0,0.974 -0.466,1.33 -1.481,1.33 -0.412,0 -0.563,-0.013 -1.125,-0.068 V 4.143 Z m -3.593,4.088 c 1.44,0.109 2.4,0.151 3.168,0.151 2.428,0 3.416,-0.755 3.416,-2.374 0,-1.234 -0.562,-1.893 -1.29,-2.181 V 3.8 c 1.07,-0.302 1.756,-1.18 1.756,-2.469 0,-2.058 -1.166,-2.826 -3.855,-2.826 -1.234,0 -1.344,0.027 -3.195,0.151 z"
       style="fill:#231f20;fill-opacity:1;fill-rule:nonzero;stroke:none"
       transform="matrix(1.3333333,0,0,-1.3333333,140.50453,281.52787)"
       clip-path="url(#clipPath1942)" /><path
       id="path1943"
       d="M 0,0 H -2.4 V 1.605 H 4.445 V 0 H 2.058 V -7.998 H 0 Z"
       style="fill:#231f20;fill-opacity:1;fill-rule:nonzero;stroke:none"
       transform="matrix(1.3333333,0,0,-1.3333333,97.1524,290.53573)"
       clip-path="url(#clipPath1944)" /><path
       id="path1945"
       d="m 0,0 h 1.811 v -0.769 c 0.658,0.577 1.248,0.906 1.989,0.906 0.302,0 0.645,-0.041 0.933,-0.123 L 4.445,-1.578 c -0.288,0.069 -0.604,0.124 -0.92,0.124 -0.48,0 -0.987,-0.165 -1.495,-0.618 V -7.408 H 0 Z"
       style="fill:#231f20;fill-opacity:1;fill-rule:nonzero;stroke:none"
       transform="matrix(1.3333333,0,0,-1.3333333,104.47333,291.32213)"
       clip-path="url(#clipPath1946)" /><path
       id="path1947"
       d="M 0,0 C 0.453,0 0.933,0.274 1.235,0.617 V 2.346 C 0.137,2.181 -0.741,2.03 -0.741,1.001 -0.741,0.329 -0.466,0 0,0 M 1.235,3.292 V 4.17 c 0,0.617 -0.329,0.974 -1.18,0.974 -0.535,0 -1.33,-0.096 -2.03,-0.302 L -2.236,6.2 c 0.768,0.234 1.646,0.357 2.469,0.357 2.278,0 3.032,-0.933 3.032,-2.511 L 3.251,0.988 c 0,-0.453 0.124,-0.604 0.33,-0.604 0.096,0 0.219,0.028 0.342,0.069 L 4.129,-0.796 C 3.718,-1.029 3.402,-1.125 2.881,-1.125 c -0.631,0 -1.084,0.302 -1.317,0.864 -0.617,-0.535 -1.331,-0.864 -2.236,-0.864 -1.152,0 -2.03,0.617 -2.03,2.03 0,1.893 1.742,2.236 3.937,2.387"
       style="fill:#231f20;fill-opacity:1;fill-rule:nonzero;stroke:none"
       transform="matrix(1.3333333,0,0,-1.3333333,115.10413,299.882)"
       clip-path="url(#clipPath1948)" /><path
       id="path1949"
       d="m 0,0 h 1.811 v -0.48 c 0.782,0.411 1.372,0.617 2.126,0.617 0.754,0 1.235,-0.261 1.537,-0.686 0.754,0.398 1.399,0.686 2.29,0.686 1.262,0 1.907,-0.713 1.907,-2.016 v -5.529 h -2.03 v 5.144 c 0,0.494 -0.192,0.892 -0.782,0.892 -0.37,0 -0.741,-0.165 -1.07,-0.357 0.041,-0.137 0.068,-0.343 0.068,-0.521 v -5.158 h -2.03 v 5.131 c 0,0.507 -0.192,0.891 -0.782,0.891 -0.329,0 -0.672,-0.123 -1.015,-0.315 V -7.408 H 0 Z"
       style="fill:#231f20;fill-opacity:1;fill-rule:nonzero;stroke:none"
       transform="matrix(1.3333333,0,0,-1.3333333,122.00453,291.32213)"
       clip-path="url(#clipPath1950)" /></g></svg>
