<svg id="Calque_1" data-name="Calque 1" xmlns="http://www.w3.org/2000/svg" viewBox="0 0 138 121"><defs><style>.cls-1{fill:#e7619c;}.cls-2{fill:#fff;}</style></defs><rect class="cls-1" width="138" height="121"/><path class="cls-2" d="M183.29,44.72q0-13.08,5.58-20.16t16.68-7.09a23.1,23.1,0,0,1,10.17,2.09,19,19,0,0,1,7.44,6.77,35.2,35.2,0,0,1,4.74,12.58A97.69,97.69,0,0,1,229.5,58q0,22.78-6.91,33.93t-19.52,11.16a42,42,0,0,1-9.94-1.26,21.09,21.09,0,0,1-7.9-3.37l4.07-12.66a32.62,32.62,0,0,0,6.36,3.26,18.22,18.22,0,0,0,6.13,1,8.73,8.73,0,0,0,5.11-1.53,11.54,11.54,0,0,0,3.54-3.93,24.83,24.83,0,0,0,2.24-6,48.55,48.55,0,0,0,1.25-7.12c.23-2.35.39-5,.46-7.81a15.7,15.7,0,0,1-5.55,4.59,14.81,14.81,0,0,1-6.71,1.68q-8.77,0-13.8-6.36t-5-18.86Zm14.88-.23q0,13.65,8.13,13.65a7.39,7.39,0,0,0,4.76-1.86,12.22,12.22,0,0,0,3.43-4.42q-.41-11.69-2.27-16.68t-5.69-5a6.9,6.9,0,0,0-6,3.43q-2.36,3.44-2.35,10.87Z" transform="translate(-136)"/></svg>