<svg id="Calque_1" data-name="Calque 1" xmlns="http://www.w3.org/2000/svg" viewBox="0 0 138 121"><defs><style>.cls-1{fill:#005da7;}.cls-2{fill:#fff;}</style></defs><rect class="cls-1" width="138" height="121"/><path class="cls-2" d="M157.39,32.79l26.12-14.15h7.17V88.13h11.56V102h-42V88.13h12.84V40.27l-11.33,7.48-4.36-15Z" transform="translate(-136)"/><path class="cls-2" d="M208.64,97.31l3-11.68a24.11,24.11,0,0,0,13.71,4.76q5.52,0,8.48-3.37t3-9.94q0-5.52-2.87-8.77A9.93,9.93,0,0,0,226,65.06H213.46l-1.19-1.35,3.27-45.07h34.54V31.71H229.55L228,53h5.32q10.41,0,15.71,6.73t5.29,18.2q0,12.38-7.07,18.8t-18.55,6.42a35.44,35.44,0,0,1-20.1-5.81Z" transform="translate(-136)"/></svg>