<svg id="Calque_1" data-name="Calque 1" xmlns="http://www.w3.org/2000/svg" viewBox="0 0 138 121"><defs><style>.cls-1{fill:#005da7;}.cls-2{fill:#fff;}</style></defs><rect class="cls-1" width="138" height="121"/><path class="cls-2" d="M157.39,32.79l26.12-14.15h7.17V88.13h11.56V102h-42V88.13h12.84V40.27l-11.33,7.48-4.36-15Z" transform="translate(-136)"/><path class="cls-2" d="M209.1,23.3A25.25,25.25,0,0,1,217.53,19a35.41,35.41,0,0,1,10.52-1.54q11.77,0,17.92,6.48t6.14,18.15a39.15,39.15,0,0,1-2.85,14.78,114.22,114.22,0,0,1-9.06,17l-8.66,14.2h24.11V102H211.49l-.58-11.66L222.47,72a131.57,131.57,0,0,0,9.3-16.44,27.85,27.85,0,0,0,2.5-11.11q0-5.91-2.61-9.42a8.66,8.66,0,0,0-7.38-3.52q-5.34,0-11.45,5.35c-.16-.47-.8-2.76-2-6.88s-1.73-6.35-1.77-6.7Z" transform="translate(-136)"/></svg>