<?xml version="1.0" encoding="UTF-8"?>
<svg id="Calque_1" data-name="Calque 1" xmlns="http://www.w3.org/2000/svg" viewBox="0 0 274 121">
  <defs>
    <style>
      .cls-1, .cls-2, .cls-3 {
        stroke-width: 0px;
      }

      .cls-2 {
        fill: #ffffff;
      }

      .cls-3 {
        fill: #ee8250;
      }
    </style>
  </defs>
  <rect class="cls-3" width="274" height="121"/>
  <rect class="cls-1" x="15" width="121" height="121"/>
  <g>
    <path class="cls-2" d="m38.4,101.96V18.64h50.55v13.83h-32.71v25.1h27.6v13.83h-27.6v30.56h-17.84Z"/>
    <path class="cls-2" d="m94.93,49.49c3.25-8.17,4.88-16.27,4.88-24.29,0-1.59-.1-3.78-.29-6.57h17.77c.09.97.13,2.36.13,4.18,0,5.85-.66,10.93-1.98,15.25s-3.4,8.55-6.25,12.7l-14.26-1.28Z"/>
  </g>
  <g>
    <path class="cls-2" d="m159.13,101.96V18.52h16.85l27.89,53.34V18.63h17.61v84.02h-16.62l-28.12-52.35v51.66h-17.61Z"/>
    <path class="cls-2" d="m233.63,20.72c0-2.52.77-4.34,2.32-5.44,1.55-1.1,4.18-1.65,7.9-1.65s6.24.55,7.79,1.65c1.55,1.1,2.32,2.91,2.32,5.44s-.77,4.27-2.29,5.35c-1.53,1.08-4.14,1.62-7.82,1.62s-6.3-.54-7.87-1.62c-1.57-1.08-2.35-2.87-2.35-5.35Zm1.45,81.24V37.69h17.61v64.27h-17.61Z"/>
  </g>
</svg>