<svg id="Calque_1" data-name="Calque 1" xmlns="http://www.w3.org/2000/svg" viewBox="0 0 138 121"><defs><style>.cls-1{fill:#3793ac;}.cls-2{fill:#fff;}</style></defs><rect class="cls-1" width="138" height="121"/><path class="cls-2" d="M156.4,62.45q0-22.73,6.91-33.85t19.52-11.13a41.05,41.05,0,0,1,9.82,1.27,22.94,22.94,0,0,1,8,3.34l-4.3,12.3a37.58,37.58,0,0,0-6.22-3.32,17.51,17.51,0,0,0-6-.87,8.86,8.86,0,0,0-5,1.43,11.26,11.26,0,0,0-3.52,3.79,23.35,23.35,0,0,0-2.27,6A50.84,50.84,0,0,0,172,48.71c-.25,2.51-.44,5.34-.55,8.49A16.1,16.1,0,0,1,177,52.44a14.07,14.07,0,0,1,6.8-1.8q8.77,0,13.8,6.38t5,18.9c0,8.35-1.86,15.41-5.58,20.12s-9.28,7.07-16.68,7.07A23.1,23.1,0,0,1,170.15,101a18.93,18.93,0,0,1-7.44-6.8A35.55,35.55,0,0,1,158,81.58a98.16,98.16,0,0,1-1.6-19.15ZM171.16,69q.34,11.33,2.41,16.34c1.38,3.35,3.32,5,5.84,5a6.9,6.9,0,0,0,6-3.41c1.55-2.28,2.32-5.86,2.32-10.77q0-13.77-8.08-13.77a7.39,7.39,0,0,0-5,2A14.15,14.15,0,0,0,171.15,69Z" transform="translate(-136)"/><path class="cls-2" d="M208.64,44.72q0-13.08,5.58-20.16t16.68-7.09a23.1,23.1,0,0,1,10.17,2.09,19,19,0,0,1,7.44,6.77,35.2,35.2,0,0,1,4.74,12.58A98.47,98.47,0,0,1,254.85,58q0,22.78-6.91,33.93t-19.52,11.16a42,42,0,0,1-9.94-1.26,21.09,21.09,0,0,1-7.9-3.37l4.07-12.66A32.62,32.62,0,0,0,221,89.09a18.22,18.22,0,0,0,6.13,1,8.73,8.73,0,0,0,5.11-1.53,11.54,11.54,0,0,0,3.54-3.93,24.83,24.83,0,0,0,2.24-6,48.55,48.55,0,0,0,1.25-7.12c.23-2.35.39-5,.46-7.81a15.7,15.7,0,0,1-5.55,4.59,14.81,14.81,0,0,1-6.71,1.68q-8.78,0-13.8-6.36t-5-18.86Zm14.88-.23q0,13.65,8.14,13.65a7.39,7.39,0,0,0,4.76-1.86,12.22,12.22,0,0,0,3.43-4.42q-.4-11.69-2.27-16.68t-5.69-5a6.9,6.9,0,0,0-6,3.43q-2.35,3.44-2.35,10.87Z" transform="translate(-136)"/></svg>