<svg id="Calque_1" data-name="Calque 1" xmlns="http://www.w3.org/2000/svg" viewBox="0 0 496.4 213.25"><defs><style>.cls-1{fill:#e63312;}.cls-2{fill:#fff;}</style></defs><polygon class="cls-1" points="0 212.65 496.37 213.25 496.4 0.5 0.3 0 0 212.65"/><path class="cls-2" d="M293.34,487.11c-25.29-.07-56-10-56-56.15.17-49.63,33.34-62.07,60.49-61.87,10,0,21.41,2.46,27.67,6l-4.57,19.42c-6.7-3.32-17-5.22-23.14-5.29-15,.07-37.45,8.65-37.51,40.95,0,31.93,21.21,37,35.56,37,8.15.1,20-2.86,28.37-6.72l4.17,19.66c-8.38,3.23-20.45,7.05-35,7.05" transform="translate(-61.15 -318.75)"/><polygon class="cls-2" points="277.01 51.66 299.25 51.63 299.22 166.82 276.95 166.82 277.01 51.66"/><polygon class="cls-2" points="447.84 52.73 423.05 98.71 397.33 51.67 381.45 51.94 309.57 51.77 309.44 71.03 335.45 71 335.25 166.93 357.46 166.9 357.49 71.03 383.28 71.06 410.35 122.29 385.2 168.86 410.35 168.89 472.1 52.97 447.84 52.73"/><path class="cls-2" d="M318,429.79c.13,14.1-10.24,25.48-23.07,25.38-12.43.23-22.67-11.31-22.77-25.48,0-14,10.27-25.35,23-25.28,12.56-.16,23,11.31,22.87,25.38" transform="translate(-61.15 -318.75)"/><path class="cls-2" d="M222.81,429.68c-.1,10.24-7.45,18.43-16.57,18.43s-16.4-8.32-16.5-18.43c.1-10.05,7.42-18.46,16.57-18.3,9.11-.1,16.5,8.12,16.5,18.3" transform="translate(-61.15 -318.75)"/><path class="cls-2" d="M163.16,429.63c-.13,7.38-5.4,13.44-12,13.34s-12.13-6-12-13.34c-.14-7.42,5.3-13.37,12.06-13.41s12,6,12,13.41" transform="translate(-61.15 -318.75)"/></svg>