<svg version="1.1" id="Layer_1" xmlns="http://www.w3.org/2000/svg" xmlns:xlink="http://www.w3.org/1999/xlink" x="0px" y="0px"
	 width="100%" viewBox="0 0 1347 1085" enable-background="new 0 0 1347 1088" xml:space="preserve">
<path fill="#E68800" opacity="1.000000" stroke="none" 
	d="
M1.000000,1089.000000 
	C1.000000,726.374695 1.000000,363.749420 1.000000,1.062061 
	C449.907379,1.062061 898.814758,1.062061 1348.000000,1.062061 
	C1348.000000,363.365997 1348.000000,725.732056 1347.549072,1088.549072 
	C898.398743,1089.000000 449.699371,1089.000000 1.000000,1089.000000 
M1033.140259,239.319290 
	C1011.368286,233.441605 989.215027,230.053635 966.702026,228.727692 
	C920.218384,225.989975 874.539856,229.907013 830.250671,245.118591 
	C787.747192,259.716858 750.575989,282.622650 723.277649,318.857788 
	C678.899231,377.764709 670.616943,443.541931 692.846924,512.498535 
	C712.191833,572.505615 752.307861,614.261536 813.419128,633.417542 
	C848.346436,644.365906 884.463135,645.802429 920.749756,642.974670 
	C960.737061,639.858521 996.064270,625.681396 1025.395508,597.780212 
	C1030.620605,592.809875 1035.734985,587.723267 1041.444092,582.160706 
	C1041.444092,584.556091 1041.515015,586.349854 1041.433105,588.136658 
	C1040.625732,605.762756 1040.231201,623.421936 1038.859985,641.004700 
	C1037.019653,664.603699 1033.565674,687.975647 1025.019897,710.273560 
	C1015.882690,734.114990 1001.355347,753.286804 976.692383,762.440735 
	C949.209229,772.641541 921.259277,772.899353 893.589111,762.953552 
	C877.021057,756.998230 863.721375,746.602234 856.407227,730.176208 
	C853.409729,723.444397 852.143982,715.941467 849.999146,708.471313 
	C795.992676,708.471313 741.252197,708.471313 686.515747,708.471313 
	C686.363647,709.261108 686.155579,709.749451 686.196899,710.215759 
	C686.784485,716.848328 687.258667,723.495300 688.043640,730.105225 
	C691.994690,763.375732 704.266602,792.689392 728.694153,816.391418 
	C757.155518,844.007629 791.090393,861.588135 829.295349,870.926575 
	C886.718750,884.962646 944.751648,885.887634 1002.822388,875.962158 
	C1073.747070,863.839844 1128.094238,826.841919 1164.637695,764.557007 
	C1192.683472,716.755798 1205.030518,664.223083 1209.904907,609.641357 
	C1213.545044,568.881042 1212.820435,528.135132 1208.042603,487.469177 
	C1202.744385,442.373932 1191.600220,398.908112 1172.435303,357.610199 
	C1144.323975,297.033813 1098.314575,257.538239 1033.140259,239.319290 
M344.999756,791.500000 
	C344.999756,816.916687 344.999756,842.333374 344.999756,867.618896 
	C403.065430,867.618896 460.443787,867.618896 517.622375,867.618896 
	C517.622375,659.887451 517.622375,452.537292 517.622375,244.999756 
	C515.754333,244.999756 514.263672,244.999756 512.773071,244.999756 
	C467.618195,244.999741 422.463043,244.943634 377.308990,245.134247 
	C374.494293,245.146133 371.123230,246.423126 368.964386,248.242676 
	C346.142975,267.477417 322.677338,285.786133 296.975800,301.106628 
	C265.889648,319.636810 232.343201,332.312439 197.964020,343.007660 
	C194.518707,344.079498 193.348328,345.557098 193.359695,349.213989 
	C193.493439,392.202362 193.442474,435.191284 193.457840,478.180084 
	C193.458389,479.721619 193.641083,481.263092 193.775238,483.377533 
	C248.455536,465.488373 299.208252,441.763092 344.999756,406.374115 
	C344.999756,535.020569 344.999756,662.760315 344.999756,791.500000 
z"/>
<path fill="#FFFFFF" opacity="1.000000" stroke="none" 
	d="
M1033.517334,239.474640 
	C1098.314575,257.538239 1144.323975,297.033813 1172.435303,357.610199 
	C1191.600220,398.908112 1202.744385,442.373932 1208.042603,487.469177 
	C1212.820435,528.135132 1213.545044,568.881042 1209.904907,609.641357 
	C1205.030518,664.223083 1192.683472,716.755798 1164.637695,764.557007 
	C1128.094238,826.841919 1073.747070,863.839844 1002.822388,875.962158 
	C944.751648,885.887634 886.718750,884.962646 829.295349,870.926575 
	C791.090393,861.588135 757.155518,844.007629 728.694153,816.391418 
	C704.266602,792.689392 691.994690,763.375732 688.043640,730.105225 
	C687.258667,723.495300 686.784485,716.848328 686.196899,710.215759 
	C686.155579,709.749451 686.363647,709.261108 686.515747,708.471313 
	C741.252197,708.471313 795.992676,708.471313 849.999146,708.471313 
	C852.143982,715.941467 853.409729,723.444397 856.407227,730.176208 
	C863.721375,746.602234 877.021057,756.998230 893.589111,762.953552 
	C921.259277,772.899353 949.209229,772.641541 976.692383,762.440735 
	C1001.355347,753.286804 1015.882690,734.114990 1025.019897,710.273560 
	C1033.565674,687.975647 1037.019653,664.603699 1038.859985,641.004700 
	C1040.231201,623.421936 1040.625732,605.762756 1041.433105,588.136658 
	C1041.515015,586.349854 1041.444092,584.556091 1041.444092,582.160706 
	C1035.734985,587.723267 1030.620605,592.809875 1025.395508,597.780212 
	C996.064270,625.681396 960.737061,639.858521 920.749756,642.974670 
	C884.463135,645.802429 848.346436,644.365906 813.419128,633.417542 
	C752.307861,614.261536 712.191833,572.505615 692.846924,512.498535 
	C670.616943,443.541931 678.899231,377.764709 723.277649,318.857788 
	C750.575989,282.622650 787.747192,259.716858 830.250671,245.118591 
	C874.539856,229.907013 920.218384,225.989975 966.702026,228.727692 
	C989.215027,230.053635 1011.368286,233.441605 1033.517334,239.474640 
M843.194580,433.759033 
	C844.160828,444.665619 843.960632,455.830505 846.308533,466.431091 
	C853.834961,500.412842 873.326294,524.163025 907.819946,533.664001 
	C924.257385,538.191467 941.075195,538.392883 957.845825,535.966797 
	C993.188049,530.853943 1019.065918,513.110535 1030.443359,478.253662 
	C1039.636597,450.088440 1038.534668,421.778137 1026.993652,394.302338 
	C1016.774780,369.974091 998.807312,353.790253 973.419006,346.499298 
	C950.153809,339.818054 926.674988,340.029022 903.518005,347.122070 
	C879.603821,354.447083 862.407349,369.729828 852.148010,392.624084 
	C846.423035,405.399780 844.000916,418.936127 843.194580,433.759033 
z"/>
<path fill="#FFFFFF" opacity="1.000000" stroke="none" 
	d="
M344.999756,791.000000 
	C344.999756,662.760315 344.999756,535.020569 344.999756,406.374115 
	C299.208252,441.763092 248.455536,465.488373 193.775238,483.377533 
	C193.641083,481.263092 193.458389,479.721619 193.457840,478.180084 
	C193.442474,435.191284 193.493439,392.202362 193.359695,349.213989 
	C193.348328,345.557098 194.518707,344.079498 197.964020,343.007660 
	C232.343201,332.312439 265.889648,319.636810 296.975800,301.106628 
	C322.677338,285.786133 346.142975,267.477417 368.964386,248.242676 
	C371.123230,246.423126 374.494293,245.146133 377.308990,245.134247 
	C422.463043,244.943634 467.618195,244.999741 512.773071,244.999756 
	C514.263672,244.999756 515.754333,244.999756 517.622375,244.999756 
	C517.622375,452.537292 517.622375,659.887451 517.622375,867.618896 
	C460.443787,867.618896 403.065430,867.618896 344.999756,867.618896 
	C344.999756,842.333374 344.999756,816.916687 344.999756,791.000000 
z"/>
<path fill="#E6880B" opacity="1.000000" stroke="none" 
	d="
M843.196045,433.289795 
	C844.000916,418.936127 846.423035,405.399780 852.148010,392.624084 
	C862.407349,369.729828 879.603821,354.447083 903.518005,347.122070 
	C926.674988,340.029022 950.153809,339.818054 973.419006,346.499298 
	C998.807312,353.790253 1016.774780,369.974091 1026.993652,394.302338 
	C1038.534668,421.778137 1039.636597,450.088440 1030.443359,478.253662 
	C1019.065918,513.110535 993.188049,530.853943 957.845825,535.966797 
	C941.075195,538.392883 924.257385,538.191467 907.819946,533.664001 
	C873.326294,524.163025 853.834961,500.412842 846.308533,466.431091 
	C843.960632,455.830505 844.160828,444.665619 843.196045,433.289795 
z"/>
</svg>