<?xml version="1.0" encoding="UTF-8"?><svg id="a" xmlns="http://www.w3.org/2000/svg" viewBox="0 0 65.31 52.7"><defs><style>.b{fill:#fff;}.c{fill:#dc649a;}</style></defs><rect class="c" width="65.31" height="52.7"/><path class="b" d="M16.23,18.46c-2.23,1.85-5.73,3.24-7.11,3.62v-6.48c3.37-1.05,5.3-1.98,8.42-4.67h6.82v29.22h-8.12V18.46Z"/><path class="b" d="M42.75,31.8c.08,2.23,1.6,3.33,3.62,3.33s2.9-1.05,3.37-1.89c.51-1.01,.63-2.32,.63-3.07,0-2.31-.93-4.55-3.79-4.55-2.02,0-3.11,1.26-3.32,2.57l-8.08-.08,.59-17.14h21.05v5.73h-13.72l-.51,7.16c.46-.76,1.14-1.85,3.03-2.74,1.22-.63,2.53-.88,3.92-.88,4.21,0,9.05,2.57,9.05,9.64,0,1.81-.42,5.56-3.2,8.12-2.53,2.36-6.06,2.78-8.59,2.78s-7.33-.42-9.98-3.33c-1.98-2.15-2.06-4.34-2.1-5.64h8.04Z"/></svg>