<svg version="1.1" id="Layer_1" xmlns="http://www.w3.org/2000/svg" xmlns:xlink="http://www.w3.org/1999/xlink" x="0px" y="0px"
	 width="100%" viewBox="0 0 1347 1085" enable-background="new 0 0 1347 1088" xml:space="preserve">
<path fill="#E67900" opacity="1.000000" stroke="none" 
	d="
M1.000000,1089.000000 
	C1.000000,726.374695 1.000000,363.749420 1.000000,1.062061 
	C449.907379,1.062061 898.814758,1.062061 1348.000000,1.062061 
	C1348.000000,363.365997 1348.000000,725.732056 1347.549072,1088.549072 
	C898.398743,1089.000122 449.699371,1089.000000 1.000000,1089.000000 
M1283.751831,673.936157 
	C1283.587158,673.118774 1283.373291,672.307861 1283.264893,671.483093 
	C1279.514160,642.936523 1268.273438,617.813110 1248.521606,596.772095 
	C1225.056152,571.774963 1195.406982,557.820618 1162.596558,549.982483 
	C1151.014526,547.215698 1139.198853,545.427307 1125.841553,542.877502 
	C1127.861084,541.066833 1128.946777,539.327881 1130.409302,538.910950 
	C1137.916016,536.771179 1145.649902,535.376770 1153.068481,532.988953 
	C1213.713013,513.469666 1253.078247,474.832458 1261.403198,409.649231 
	C1265.064331,380.983612 1260.592896,353.119202 1246.305786,327.572357 
	C1225.330566,290.066254 1193.433350,265.299377 1153.746948,250.037735 
	C1115.811401,235.449387 1076.061401,230.590179 1035.855957,230.279556 
	C1009.287842,230.074326 982.629822,231.743256 956.137756,234.029999 
	C926.184021,236.615524 897.159851,243.904938 869.879761,256.945190 
	C841.824402,270.356018 817.121277,287.998138 799.847717,314.568939 
	C780.398010,344.487213 773.546265,377.366821 776.834534,412.641235 
	C780.273315,449.531097 795.329712,480.370148 824.507141,503.709290 
	C849.951050,524.061951 879.674683,533.802979 911.525574,538.064331 
	C913.020203,538.264343 914.454468,538.914612 915.916870,539.355164 
	C915.858887,539.849121 915.800903,540.343079 915.742920,540.837036 
	C914.194458,541.204163 912.659546,541.647034 911.095520,541.927124 
	C882.795105,546.994324 855.483948,555.057251 830.209412,569.076843 
	C800.223877,585.709595 776.785217,608.595581 763.365662,640.663879 
	C753.475159,664.298950 750.502563,688.977966 752.745544,714.454224 
	C755.634888,747.272949 767.240601,776.409729 788.712646,801.469482 
	C810.257629,826.614197 837.633362,843.218201 868.157227,855.059326 
	C914.713684,873.120117 963.489990,878.608276 1012.898743,879.917908 
	C1044.057861,880.744019 1075.134277,879.108887 1105.955811,874.058228 
	C1137.456055,868.896545 1167.893921,860.350830 1196.096069,845.012390 
	C1234.781250,823.972534 1262.890137,793.723694 1276.527344,751.225708 
	C1284.515137,726.333008 1286.580933,700.784119 1283.751831,673.936157 
M336.416046,346.912384 
	C367.851654,333.159546 400.152100,331.296295 432.907043,340.940308 
	C461.638611,349.399719 481.299133,368.204803 491.551056,396.328064 
	C494.816101,405.284729 496.573822,414.790863 499.052124,424.162231 
	C560.018433,424.162231 621.387451,424.162231 683.560059,424.162231 
	C682.027954,410.625214 680.901611,397.543488 678.947083,384.586700 
	C677.788330,376.905670 675.772827,369.276001 673.373962,361.872314 
	C654.954041,305.021759 616.928345,265.593231 563.737366,240.154510 
	C520.585876,219.517181 474.365112,211.564667 427.044434,208.961472 
	C384.035034,206.595444 341.246765,208.119019 298.869690,216.760300 
	C217.980148,233.254837 157.179810,277.869659 115.114441,348.347290 
	C85.698738,397.631256 72.281616,451.869110 68.074867,508.580292 
	C65.272797,546.355042 66.107193,584.093201 71.831841,621.649353 
	C77.655884,659.857422 88.117554,696.594116 105.758942,731.113037 
	C132.175217,782.801758 170.832108,821.936340 223.871872,846.397339 
	C274.625702,869.804138 328.479156,878.470215 383.775269,879.918213 
	C414.598022,880.725403 445.312408,878.807739 475.842957,874.178589 
	C509.367676,869.095520 541.898132,860.633911 572.598572,845.985901 
	C609.050964,828.593384 639.220764,804.021851 659.808167,768.683350 
	C674.289062,743.826721 681.901978,716.791504 684.940247,688.384583 
	C685.904236,679.371948 686.023865,670.269043 686.538879,661.045288 
	C623.802673,661.045288 562.047180,661.045288 500.306854,661.045288 
	C499.132568,667.164429 498.209595,673.065979 496.852600,678.866028 
	C488.833710,713.139893 469.574829,737.698853 435.210785,748.496338 
	C412.440216,755.651123 389.072723,756.438599 365.623413,752.443420 
	C324.822083,745.492126 296.220001,722.197693 277.673187,685.811584 
	C259.833405,650.812683 253.970108,612.989502 252.338821,574.356201 
	C251.221405,547.892883 251.938065,521.424194 254.982361,495.046295 
	C258.217438,467.015686 263.794464,439.581085 275.197968,413.629089 
	C287.894562,384.734222 306.610565,361.185394 336.416046,346.912384 
z"/>
<path fill="#000000" opacity="1.000000" stroke="none" 
	d="
M1283.836548,674.377686 
	C1286.580933,700.784119 1284.515137,726.333008 1276.527344,751.225708 
	C1262.890137,793.723694 1234.781250,823.972534 1196.096069,845.012390 
	C1167.893921,860.350830 1137.456055,868.896545 1105.955811,874.058228 
	C1075.134277,879.108887 1044.057861,880.744019 1012.898743,879.917908 
	C963.489990,878.608276 914.713684,873.120117 868.157227,855.059326 
	C837.633362,843.218201 810.257629,826.614197 788.712646,801.469482 
	C767.240601,776.409729 755.634888,747.272949 752.745544,714.454224 
	C750.502563,688.977966 753.475159,664.298950 763.365662,640.663879 
	C776.785217,608.595581 800.223877,585.709595 830.209412,569.076843 
	C855.483948,555.057251 882.795105,546.994324 911.095520,541.927124 
	C912.659546,541.647034 914.194458,541.204163 915.742920,540.837036 
	C915.800903,540.343079 915.858887,539.849121 915.916870,539.355164 
	C914.454468,538.914612 913.020203,538.264343 911.525574,538.064331 
	C879.674683,533.802979 849.951050,524.061951 824.507141,503.709290 
	C795.329712,480.370148 780.273315,449.531097 776.834534,412.641235 
	C773.546265,377.366821 780.398010,344.487213 799.847717,314.568939 
	C817.121277,287.998138 841.824402,270.356018 869.879761,256.945190 
	C897.159851,243.904938 926.184021,236.615524 956.137756,234.029999 
	C982.629822,231.743256 1009.287842,230.074326 1035.855957,230.279556 
	C1076.061401,230.590179 1115.811401,235.449387 1153.746948,250.037735 
	C1193.433350,265.299377 1225.330566,290.066254 1246.305786,327.572357 
	C1260.592896,353.119202 1265.064331,380.983612 1261.403198,409.649231 
	C1253.078247,474.832458 1213.713013,513.469666 1153.068481,532.988953 
	C1145.649902,535.376770 1137.916016,536.771179 1130.409302,538.910950 
	C1128.946777,539.327881 1127.861084,541.066833 1125.841553,542.877502 
	C1139.198853,545.427307 1151.014526,547.215698 1162.596558,549.982483 
	C1195.406982,557.820618 1225.056152,571.774963 1248.521606,596.772095 
	C1268.273438,617.813110 1279.514160,642.936523 1283.264893,671.483093 
	C1283.373291,672.307861 1283.587158,673.118774 1283.836548,674.377686 
M1110.732422,636.813660 
	C1101.834595,622.305908 1089.428833,611.776123 1073.946655,604.936096 
	C1047.194946,593.117310 1019.245056,591.895996 990.782166,596.132446 
	C950.292786,602.159058 922.525330,629.323242 916.905273,669.507996 
	C911.539856,707.871887 929.436829,748.418274 975.193909,762.063416 
	C999.449463,769.296631 1024.090698,769.718811 1048.786621,765.526123 
	C1069.743286,761.968140 1088.533081,753.671997 1103.071899,737.366882 
	C1126.008179,711.643860 1129.439453,669.392456 1110.732422,636.813660 
M986.930054,338.359253 
	C964.950623,345.490753 947.989746,358.341827 939.454102,380.533234 
	C934.458252,393.521393 933.448792,407.057983 935.113037,420.779358 
	C938.306519,447.109497 950.649597,467.158569 975.498047,478.246063 
	C992.287781,485.737701 1010.061035,487.265137 1028.186646,486.257385 
	C1040.061646,485.597168 1051.621704,483.439514 1062.476318,478.457184 
	C1087.064941,467.170868 1099.256592,447.157196 1103.242676,421.036530 
	C1108.781860,384.738434 1088.018188,350.195557 1053.119141,338.994598 
	C1031.470947,332.046539 1009.592346,332.295349 986.930054,338.359253 
z"/>
<path fill="#000000" opacity="1.000000" stroke="none" 
	d="
M336.058716,347.029144 
	C306.610565,361.185394 287.894562,384.734222 275.197968,413.629089 
	C263.794464,439.581085 258.217438,467.015686 254.982361,495.046295 
	C251.938065,521.424194 251.221405,547.892883 252.338821,574.356201 
	C253.970108,612.989502 259.833405,650.812683 277.673187,685.811584 
	C296.220001,722.197693 324.822083,745.492126 365.623413,752.443420 
	C389.072723,756.438599 412.440216,755.651123 435.210785,748.496338 
	C469.574829,737.698853 488.833710,713.139893 496.852600,678.866028 
	C498.209595,673.065979 499.132568,667.164429 500.306854,661.045288 
	C562.047180,661.045288 623.802673,661.045288 686.538879,661.045288 
	C686.023865,670.269043 685.904236,679.371948 684.940247,688.384583 
	C681.901978,716.791504 674.289062,743.826721 659.808167,768.683350 
	C639.220764,804.021851 609.050964,828.593384 572.598572,845.985901 
	C541.898132,860.633911 509.367676,869.095520 475.842957,874.178589 
	C445.312408,878.807739 414.598022,880.725403 383.775269,879.918213 
	C328.479156,878.470215 274.625702,869.804138 223.871872,846.397339 
	C170.832108,821.936340 132.175217,782.801758 105.758942,731.113037 
	C88.117554,696.594116 77.655884,659.857422 71.831841,621.649353 
	C66.107193,584.093201 65.272797,546.355042 68.074867,508.580292 
	C72.281616,451.869110 85.698738,397.631256 115.114441,348.347290 
	C157.179810,277.869659 217.980148,233.254837 298.869690,216.760300 
	C341.246765,208.119019 384.035034,206.595444 427.044434,208.961472 
	C474.365112,211.564667 520.585876,219.517181 563.737366,240.154510 
	C616.928345,265.593231 654.954041,305.021759 673.373962,361.872314 
	C675.772827,369.276001 677.788330,376.905670 678.947083,384.586700 
	C680.901611,397.543488 682.027954,410.625214 683.560059,424.162231 
	C621.387451,424.162231 560.018433,424.162231 499.052124,424.162231 
	C496.573822,414.790863 494.816101,405.284729 491.551056,396.328064 
	C481.299133,368.204803 461.638611,349.399719 432.907043,340.940308 
	C400.152100,331.296295 367.851654,333.159546 336.058716,347.029144 
z"/>
<path fill="#F18B01" opacity="1.000000" stroke="none" 
	d="
M1110.902588,637.136841 
	C1129.439453,669.392456 1126.008179,711.643860 1103.071899,737.366882 
	C1088.533081,753.671997 1069.743286,761.968140 1048.786621,765.526123 
	C1024.090698,769.718811 999.449463,769.296631 975.193909,762.063416 
	C929.436829,748.418274 911.539856,707.871887 916.905273,669.507996 
	C922.525330,629.323242 950.292786,602.159058 990.782166,596.132446 
	C1019.245056,591.895996 1047.194946,593.117310 1073.946655,604.936096 
	C1089.428833,611.776123 1101.834595,622.305908 1110.902588,637.136841 
z"/>
<path fill="#F18B01" opacity="1.000000" stroke="none" 
	d="
M987.320129,338.257385 
	C1009.592346,332.295349 1031.470947,332.046539 1053.119141,338.994598 
	C1088.018188,350.195557 1108.781860,384.738434 1103.242676,421.036530 
	C1099.256592,447.157196 1087.064941,467.170868 1062.476318,478.457184 
	C1051.621704,483.439514 1040.061646,485.597168 1028.186646,486.257385 
	C1010.061035,487.265137 992.287781,485.737701 975.498047,478.246063 
	C950.649597,467.158569 938.306519,447.109497 935.113037,420.779358 
	C933.448792,407.057983 934.458252,393.521393 939.454102,380.533234 
	C947.989746,358.341827 964.950623,345.490753 987.320129,338.257385 
z"/>
</svg>