<?xml version="1.0" encoding="UTF-8"?><svg id="a" xmlns="http://www.w3.org/2000/svg" viewBox="0 0 51.04 41.19"><defs><style>.b{fill:#fff;}.c{fill:#56543c;}</style></defs><rect class="c" width="51.04" height="41.19"/><path class="b" d="M12.64,14.35c-.44,.38-.92,.72-1.45,1.02-.53,.31-1.06,.58-1.58,.82s-1.02,.45-1.47,.63c-.45,.18-.81,.3-1.07,.36v-5.08c.66-.2,1.26-.4,1.8-.61,.54-.21,1.06-.45,1.57-.73,.51-.27,1.02-.6,1.53-.97s1.08-.82,1.7-1.35h5.35V31.35h-6.37V14.35Z"/><path class="b" d="M32.57,19.21c-.71-.07-1.37-.22-2-.48-.63-.25-1.17-.6-1.63-1.04-.46-.44-.83-.97-1.11-1.58-.28-.62-.41-1.32-.41-2.11,0-1.12,.24-2.05,.73-2.79,.48-.74,1-1.29,1.55-1.67,.26-.18,.58-.36,.94-.56s.81-.38,1.34-.54,1.16-.3,1.9-.41c.74-.11,1.61-.17,2.62-.17,.77,0,1.53,.04,2.28,.13,.75,.09,1.46,.24,2.14,.46,.68,.22,1.31,.52,1.88,.89,.57,.37,1.08,.86,1.52,1.45,.68,.88,1.02,1.91,1.02,3.1,0,.48-.08,1-.23,1.55-.15,.55-.42,1.08-.81,1.58-.39,.51-.9,.96-1.53,1.35-.64,.4-1.44,.68-2.41,.86v.17c1.87,.2,3.31,.79,4.31,1.78,1,.99,1.5,2.26,1.5,3.8,0,.97-.18,1.86-.54,2.69-.36,.83-.92,1.55-1.68,2.16-.76,.62-1.74,1.1-2.95,1.45-1.21,.35-2.65,.53-4.32,.53-1.91,0-3.52-.19-4.82-.58-1.3-.38-2.34-.89-3.14-1.52-.79-.63-1.35-1.34-1.68-2.13s-.5-1.61-.5-2.44c0-1.41,.48-2.64,1.43-3.71,.96-1.07,2.49-1.78,4.6-2.13v-.1Zm3.79,8.48c.75,0,1.37-.1,1.86-.3,.49-.2,.89-.46,1.19-.77,.3-.32,.5-.67,.61-1.04s.17-.73,.17-1.06c0-.86-.31-1.62-.92-2.28-.62-.66-1.61-.99-2.97-.99-.7,0-1.29,.1-1.77,.3s-.86,.46-1.15,.78c-.3,.32-.51,.67-.63,1.05-.12,.39-.18,.75-.18,1.11,0,.29,.05,.62,.15,.99,.1,.38,.29,.73,.56,1.06,.28,.33,.66,.6,1.15,.82,.5,.22,1.14,.33,1.93,.33m.03-10.4c.73,0,1.3-.12,1.72-.36,.42-.24,.73-.52,.92-.83,.2-.31,.32-.62,.38-.94,.05-.32,.08-.54,.08-.68,0-.26-.05-.56-.15-.89-.1-.33-.26-.64-.5-.92-.23-.29-.55-.52-.96-.71-.41-.19-.92-.28-1.53-.28-.84,0-1.56,.23-2.18,.68-.62,.45-.92,1.15-.92,2.1,0,.77,.24,1.44,.71,2s1.28,.84,2.43,.84"/></svg>