<?xml version="1.0" encoding="UTF-8"?><svg id="a" xmlns="http://www.w3.org/2000/svg" viewBox="0 0 51.04 41.19"><defs><style>.b{fill:#f9bb77;}</style></defs><rect class="b" width="51.04" height="41.19"/><path d="M12.65,14.08c-.44,.38-.92,.72-1.45,1.02-.53,.31-1.06,.58-1.58,.82s-1.02,.45-1.47,.63c-.45,.18-.81,.3-1.07,.36v-5.08c.66-.2,1.26-.4,1.8-.61,.54-.21,1.06-.45,1.57-.73,.51-.27,1.02-.6,1.53-.97s1.08-.82,1.7-1.35h5.35V31.08h-6.37V14.08Z"/><path d="M32.75,24.48c.02,.75,.27,1.4,.76,1.95,.48,.55,1.34,.83,2.57,.83,.68,0,1.25-.09,1.72-.28s.83-.42,1.11-.71c.27-.29,.47-.61,.58-.97,.11-.36,.17-.72,.17-1.07,0-.73-.19-1.29-.56-1.7-.38-.41-.83-.7-1.35-.88s-1.06-.28-1.6-.31c-.54-.03-.97-.05-1.3-.05-.37,0-.71,0-1.02,.02-.31,.01-.57,.03-.79,.05v-4.09c.44,.02,.96,.04,1.55,.05,.59,.01,1.23-.04,1.91-.15,.7-.09,1.25-.28,1.63-.58,.38-.3,.67-.6,.84-.93,.18-.32,.28-.61,.31-.89,.03-.28,.05-.45,.05-.51,0-.79-.29-1.42-.86-1.88-.57-.46-1.32-.69-2.24-.69-.29,0-.59,.03-.92,.1-.33,.07-.64,.19-.92,.38s-.53,.46-.74,.81c-.21,.35-.33,.8-.35,1.35h-6.37c.04-1.19,.32-2.22,.82-3.09,.51-.87,1.19-1.58,2.05-2.14,.86-.56,1.86-.97,3-1.24,1.14-.26,2.36-.4,3.66-.4,1.47,0,2.78,.15,3.93,.46,1.14,.31,2.1,.73,2.87,1.27,.77,.54,1.35,1.18,1.75,1.93,.4,.75,.59,1.55,.59,2.41,0,.7-.13,1.36-.4,1.98s-.63,1.17-1.09,1.65c-.46,.48-1.02,.89-1.67,1.2-.65,.32-1.37,.52-2.16,.61v.17c.31,.04,.79,.13,1.43,.25,.64,.12,1.29,.37,1.94,.74,.65,.38,1.22,.92,1.71,1.65,.49,.73,.73,1.71,.73,2.94,0,.84-.17,1.68-.5,2.54-.33,.86-.97,1.63-1.92,2.31-.29,.2-.62,.41-1.01,.64s-.87,.45-1.46,.64c-.58,.2-1.29,.36-2.12,.48-.83,.12-1.8,.18-2.92,.18-1.91,0-3.51-.21-4.8-.63-1.29-.42-2.37-1.09-3.25-2.01-.4-.42-.71-.83-.94-1.24-.23-.41-.4-.8-.51-1.17-.11-.37-.18-.73-.21-1.07-.03-.34-.06-.64-.08-.91h6.4Z"/></svg>