<?xml version="1.0" encoding="UTF-8"?><svg id="Calque_1" xmlns="http://www.w3.org/2000/svg" viewBox="0 50 1181.15 1002.35"><defs><style>.cls-1{fill:#fff;}.cls-2{fill:#4e55a2;}</style></defs><rect class="cls-2" width="100%" height="100%"/><g><path class="cls-1" d="M105.56,686.12c4.05-2.76,8.1-5.92,12.16-9.52,4.05-3.58,8.1-7.31,12.16-11.18,4.05-3.31,8.1-6.75,12.16-10.35,4.05-3.58,8.36-7.31,12.92-11.18,2.53-2.76,5.19-5.24,7.98-7.45,2.78-2.2,5.7-4.68,8.74-7.45,2.53-2.2,5.19-4.55,7.98-7.04,2.78-2.48,5.7-4.83,8.74-7.04,5.57-4.41,11.14-8.97,16.72-13.66,5.57-4.68,11.14-9.52,16.72-14.49,13.17-11.04,25.84-22.07,38.01-33.12,12.16-11.04,24.32-22.36,36.49-33.95,12.16-11.04,23.81-22.63,34.97-34.78,11.14-12.14,21.78-24.84,31.93-38.09,4.56-6.07,8.61-12.28,12.16-18.63,3.54-6.34,6.33-12.83,8.36-19.46,2.53-6.07,4.43-12.14,5.7-18.22,1.26-6.07,1.9-11.86,1.9-17.39,0-7.17-1.02-13.66-3.04-19.46-2.03-5.8-5.32-11.18-9.88-16.15-4.56-4.97-10.64-8.69-18.24-11.18-7.6-2.48-16.47-3.73-26.6-3.73-9.12,0-17.36,1.38-24.7,4.14-7.35,2.77-13.81,7.18-19.38,13.25-5.07,5.52-9,11.88-11.78,19.04-2.79,7.18-4.18,14.63-4.18,22.36l-155.83-1.66c1.52-27.04,7.47-51.05,17.86-72.04,10.38-20.97,25.46-38.63,45.23-52.99,19.25-14.35,41.68-25.11,67.27-32.29,25.58-7.17,54.09-10.76,85.52-10.76,39.53,0,72.97,3.87,100.34,11.59,27.36,7.74,48.65,19.04,63.85,33.95,14.69,14.9,26.22,30.64,34.59,47.2,8.36,16.56,13.55,33.68,15.58,51.34v12.01c0,.83,.25,1.53,.76,2.07v4.97c0,11.59-2.03,23.6-6.08,36.02-4.06,12.42-10.14,25.25-18.24,38.5-8.11,13.8-17.23,27.47-27.36,40.99-10.14,13.53-21.28,27.2-33.45,40.99-7.6,8.28-15.33,16.56-23.18,24.84-7.86,8.28-16.09,16.56-24.7,24.84-4.06,3.87-8.24,7.87-12.54,12.01-4.31,4.14-8.49,8.42-12.54,12.83-4.56,3.87-9,7.74-13.3,11.59-4.31,3.87-8.49,7.74-12.54,11.59-6.08,5.52-12.04,10.76-17.86,15.73-5.83,4.97-11.53,9.94-17.1,14.9-5.58,4.97-11.02,9.81-16.34,14.49-5.32,4.7-10.77,9.25-16.34,13.66l245.52-1.66v104.33H105.56v-104.33Z"/><path class="cls-1" d="M696.18,306.46c3.54-.83,7.09-1.79,10.64-2.9,3.54-1.1,6.96-2.34,10.26-3.73,3.29-1.37,6.71-2.9,10.26-4.55,10.13-4.41,20.14-9.24,30.03-14.49,9.88-5.24,19.63-11.18,29.26-17.8,9.62-6.62,18.74-13.38,27.37-20.29,8.61-6.9,16.72-13.93,24.32-21.12,.5-.54,1.01-1.1,1.52-1.66,.5,0,.88-.13,1.14-.41,.25-.27,.63-.69,1.14-1.24l125.42-1.66V790.45h-149.75V373.12c-1.02,1.66-2.03,2.9-3.04,3.73-1.02,.83-2.03,1.8-3.04,2.9-1.52,.56-2.79,1.24-3.8,2.07-1.02,.83-2.03,1.8-3.04,2.9-1.02,.56-2.03,1.24-3.04,2.07-1.02,.83-2.03,1.53-3.04,2.07-1.52,1.11-2.79,1.94-3.8,2.48-1.02,.56-2.03,1.38-3.04,2.48-7.6,5.52-15.46,10.91-23.56,16.15-8.11,5.25-16.47,10.35-25.08,15.32-8.62,4.97-17.75,9.11-27.37,12.42-9.63,3.31-19.51,6.35-29.65,9.11v-139.11c3.04,0,6.33-.41,9.88-1.24Z"/></g></svg>