<svg version="1.1" id="Layer_1" xmlns="http://www.w3.org/2000/svg" xmlns:xlink="http://www.w3.org/1999/xlink" x="0px" y="0px"
	 width="100%" viewBox="0 0 1348 1085" enable-background="new 0 0 1348 1088" xml:space="preserve">
<path fill="#3FA435" opacity="1.000000" stroke="none" 
	d="
M1.000000,1089.000000 
	C1.000000,726.374695 1.000000,363.749359 1.000000,1.062029 
	C450.240753,1.062029 899.481506,1.062029 1349.000000,1.062029 
	C1349.000000,363.365997 1349.000000,725.732056 1348.549072,1088.549072 
	C899.065430,1089.000122 450.032715,1089.000000 1.000000,1089.000000 
M255.778030,602.699036 
	C254.921768,590.916748 253.642700,579.146912 253.293060,567.349609 
	C252.438568,538.518494 253.746170,509.764557 257.979370,481.199524 
	C262.097473,453.411316 268.952972,426.413849 282.329498,401.468018 
	C295.174377,377.513611 312.814453,358.294922 337.956879,346.856812 
	C363.276917,335.337891 389.907013,332.944122 417.045685,337.160126 
	C453.394653,342.806976 479.840698,361.738525 492.669739,397.141632 
	C495.865814,405.961639 497.523956,415.338989 499.893341,424.477112 
	C561.064026,424.477112 622.439636,424.477112 683.972290,424.477112 
	C683.546631,396.709839 679.346497,370.066040 668.390930,344.807373 
	C645.902710,292.959595 607.019409,257.928040 555.722595,235.878952 
	C519.416260,220.273270 481.189301,212.786575 441.976288,209.801498 
	C395.144073,206.236374 348.481812,206.948868 302.214203,216.046143 
	C247.031067,226.896454 198.794632,251.066589 159.315826,291.536560 
	C110.007538,342.082825 83.678421,403.715057 73.011253,472.702271 
	C66.490433,514.874084 65.716705,557.213013 69.915726,599.666870 
	C73.703941,637.967407 82.000763,675.177063 97.066711,710.688538 
	C121.559631,768.420105 159.649185,813.939514 216.406357,842.482727 
	C261.584045,865.202576 309.968658,875.473389 360.015350,878.915161 
	C392.129456,881.123596 424.226471,880.491943 456.259399,877.046814 
	C490.471313,873.367310 523.923340,866.434082 556.038696,853.839661 
	C585.324097,842.355042 611.989746,826.583008 634.137878,803.989441 
	C667.592041,769.862610 683.158875,727.905029 686.801758,680.973999 
	C687.321472,674.278259 686.873718,667.507385 686.873718,660.584900 
	C625.008423,660.584900 563.223511,660.584900 501.296509,660.584900 
	C499.848846,667.672607 498.700562,674.723328 496.950287,681.621277 
	C488.505005,714.904907 468.921539,738.113159 435.556000,748.530457 
	C418.005554,754.009949 399.946747,755.173645 381.713806,754.001160 
	C343.437836,751.539795 312.227295,735.792114 289.926361,704.091370 
	C268.749115,673.987854 260.154144,639.493164 255.778030,602.699036 
M1224.296265,495.803802 
	C1260.872803,460.157288 1276.000366,417.092438 1267.954102,366.548950 
	C1261.756226,327.617126 1240.551514,297.765137 1209.113525,274.959930 
	C1170.430786,246.899414 1125.912720,234.827576 1079.295654,229.147995 
	C1044.968506,224.965759 1010.545776,224.807068 976.105530,227.980484 
	C940.436279,231.267151 905.695801,238.509125 872.833130,253.122162 
	C816.958679,277.967804 778.907349,318.061981 766.566406,379.498444 
	C764.396606,390.300476 763.635620,401.385529 762.191467,412.592285 
	C820.891663,412.592285 878.304382,412.592285 935.758301,412.592285 
	C936.175537,409.024384 936.497559,405.716309 936.957275,402.427429 
	C940.454346,377.410309 952.309204,358.318146 976.213623,348.172516 
	C994.998718,340.199707 1014.702087,339.304504 1034.588257,342.266815 
	C1053.115356,345.026703 1070.001221,351.782684 1082.893433,365.991272 
	C1104.143311,389.410950 1105.260498,428.471680 1085.713867,455.760162 
	C1071.525513,475.568268 1051.165894,484.877899 1027.993774,488.949921 
	C1001.964539,493.523987 975.666687,493.904510 949.323364,493.180481 
	C942.271362,492.986633 935.209473,493.151184 928.284790,493.151184 
	C928.284790,530.076538 928.284790,566.841370 928.284790,603.852783 
	C929.374207,603.852783 930.179871,603.871521 930.984497,603.850159 
	C951.442444,603.305664 971.903870,602.222839 992.357300,602.355591 
	C1013.867188,602.495117 1035.194336,604.889465 1055.734985,611.984985 
	C1090.006592,623.823608 1107.583496,646.988403 1108.092041,681.085754 
	C1108.656494,718.933044 1088.742920,747.670410 1053.350220,758.429626 
	C1026.301758,766.652100 998.772705,766.770813 971.603882,758.841064 
	C948.700500,752.156128 932.667542,737.503357 925.571045,714.338684 
	C923.105347,706.290100 922.100220,697.794128 920.391602,689.322021 
	C863.178833,689.322021 805.450500,689.322021 747.687927,689.322021 
	C748.566284,713.256958 751.834900,736.457703 761.444275,758.239075 
	C780.292236,800.961243 812.372620,830.826477 853.753235,851.162537 
	C886.932068,867.467957 922.601990,874.672913 959.098938,877.762695 
	C1008.029114,881.905151 1056.887207,881.239929 1105.455566,873.000244 
	C1147.612183,865.848328 1186.513550,851.034973 1220.568115,824.553955 
	C1240.348022,809.173096 1256.293213,790.762207 1266.991455,767.973816 
	C1279.991333,740.282532 1283.628418,710.985840 1281.613892,680.826721 
	C1280.168091,659.180054 1275.014404,638.450073 1264.302979,619.371765 
	C1245.658569,586.163208 1216.441772,566.238770 1180.991333,555.204956 
	C1162.988770,549.601746 1144.224487,546.445435 1125.375732,542.083740 
	C1125.090942,539.437073 1125.103149,539.528320 1129.378540,538.959045 
	C1165.119141,534.200500 1196.987549,520.868958 1224.296265,495.803802 
z"/>
<path fill="#FFFFFF" opacity="1.000000" stroke="none" 
	d="
M255.822052,603.149414 
	C260.154144,639.493164 268.749115,673.987854 289.926361,704.091370 
	C312.227295,735.792114 343.437836,751.539795 381.713806,754.001160 
	C399.946747,755.173645 418.005554,754.009949 435.556000,748.530457 
	C468.921539,738.113159 488.505005,714.904907 496.950287,681.621277 
	C498.700562,674.723328 499.848846,667.672607 501.296509,660.584900 
	C563.223511,660.584900 625.008423,660.584900 686.873718,660.584900 
	C686.873718,667.507385 687.321472,674.278259 686.801758,680.973999 
	C683.158875,727.905029 667.592041,769.862610 634.137878,803.989441 
	C611.989746,826.583008 585.324097,842.355042 556.038696,853.839661 
	C523.923340,866.434082 490.471313,873.367310 456.259399,877.046814 
	C424.226471,880.491943 392.129456,881.123596 360.015350,878.915161 
	C309.968658,875.473389 261.584045,865.202576 216.406357,842.482727 
	C159.649185,813.939514 121.559631,768.420105 97.066711,710.688538 
	C82.000763,675.177063 73.703941,637.967407 69.915726,599.666870 
	C65.716705,557.213013 66.490433,514.874084 73.011253,472.702271 
	C83.678421,403.715057 110.007538,342.082825 159.315826,291.536560 
	C198.794632,251.066589 247.031067,226.896454 302.214203,216.046143 
	C348.481812,206.948868 395.144073,206.236374 441.976288,209.801498 
	C481.189301,212.786575 519.416260,220.273270 555.722595,235.878952 
	C607.019409,257.928040 645.902710,292.959595 668.390930,344.807373 
	C679.346497,370.066040 683.546631,396.709839 683.972290,424.477112 
	C622.439636,424.477112 561.064026,424.477112 499.893341,424.477112 
	C497.523956,415.338989 495.865814,405.961639 492.669739,397.141632 
	C479.840698,361.738525 453.394653,342.806976 417.045685,337.160126 
	C389.907013,332.944122 363.276917,335.337891 337.956879,346.856812 
	C312.814453,358.294922 295.174377,377.513611 282.329498,401.468018 
	C268.952972,426.413849 262.097473,453.411316 257.979370,481.199524 
	C253.746170,509.764557 252.438568,538.518494 253.293060,567.349609 
	C253.642700,579.146912 254.921768,590.916748 255.822052,603.149414 
z"/>
<path fill="#FFFFFF" opacity="1.000000" stroke="none" 
	d="
M1224.013428,496.017395 
	C1196.987549,520.868958 1165.119141,534.200500 1129.378540,538.959045 
	C1125.103149,539.528320 1125.090942,539.437073 1125.375732,542.083740 
	C1144.224487,546.445435 1162.988770,549.601746 1180.991333,555.204956 
	C1216.441772,566.238770 1245.658569,586.163208 1264.302979,619.371765 
	C1275.014404,638.450073 1280.168091,659.180054 1281.613892,680.826721 
	C1283.628418,710.985840 1279.991333,740.282532 1266.991455,767.973816 
	C1256.293213,790.762207 1240.348022,809.173096 1220.568115,824.553955 
	C1186.513550,851.034973 1147.612183,865.848328 1105.455566,873.000244 
	C1056.887207,881.239929 1008.029114,881.905151 959.098938,877.762695 
	C922.601990,874.672913 886.932068,867.467957 853.753235,851.162537 
	C812.372620,830.826477 780.292236,800.961243 761.444275,758.239075 
	C751.834900,736.457703 748.566284,713.256958 747.687927,689.322021 
	C805.450500,689.322021 863.178833,689.322021 920.391602,689.322021 
	C922.100220,697.794128 923.105347,706.290100 925.571045,714.338684 
	C932.667542,737.503357 948.700500,752.156128 971.603882,758.841064 
	C998.772705,766.770813 1026.301758,766.652100 1053.350220,758.429626 
	C1088.742920,747.670410 1108.656494,718.933044 1108.092041,681.085754 
	C1107.583496,646.988403 1090.006592,623.823608 1055.734985,611.984985 
	C1035.194336,604.889465 1013.867188,602.495117 992.357300,602.355591 
	C971.903870,602.222839 951.442444,603.305664 930.984497,603.850159 
	C930.179871,603.871521 929.374207,603.852783 928.284790,603.852783 
	C928.284790,566.841370 928.284790,530.076538 928.284790,493.151184 
	C935.209473,493.151184 942.271362,492.986633 949.323364,493.180481 
	C975.666687,493.904510 1001.964539,493.523987 1027.993774,488.949921 
	C1051.165894,484.877899 1071.525513,475.568268 1085.713867,455.760162 
	C1105.260498,428.471680 1104.143311,389.410950 1082.893433,365.991272 
	C1070.001221,351.782684 1053.115356,345.026703 1034.588257,342.266815 
	C1014.702087,339.304504 994.998718,340.199707 976.213623,348.172516 
	C952.309204,358.318146 940.454346,377.410309 936.957275,402.427429 
	C936.497559,405.716309 936.175537,409.024384 935.758301,412.592285 
	C878.304382,412.592285 820.891663,412.592285 762.191467,412.592285 
	C763.635620,401.385529 764.396606,390.300476 766.566406,379.498444 
	C778.907349,318.061981 816.958679,277.967804 872.833130,253.122162 
	C905.695801,238.509125 940.436279,231.267151 976.105530,227.980484 
	C1010.545776,224.807068 1044.968506,224.965759 1079.295654,229.147995 
	C1125.912720,234.827576 1170.430786,246.899414 1209.113525,274.959930 
	C1240.551514,297.765137 1261.756226,327.617126 1267.954102,366.548950 
	C1276.000366,417.092438 1260.872803,460.157288 1224.013428,496.017395 
z"/>
</svg>