<?xml version="1.0" encoding="UTF-8"?><svg id="a" xmlns="http://www.w3.org/2000/svg" viewBox="0 0 51.04 41.19"><defs><style>.b{fill:#fff;}.c{fill:#e67900;}</style></defs><rect class="c" width="51.04" height="41.19"/><path class="b" d="M21.08,19.53c-2.13-.72-3.94-2.63-3.94-4.9,0-4.89,4.07-6.6,8.61-6.6s7.88,1.84,7.88,5.88c0,2.82-1.77,4.5-3.78,5.26v.07c2.5,.79,4.63,2.2,4.63,5.65,0,4.93-4.2,6.86-9,6.86s-8.93-1.84-8.93-6.54c0-3.35,2.07-4.93,4.53-5.65v-.03Zm4.34,8.08c1.74,0,3.15-1.08,3.15-2.96,0-2.04-1.9-2.86-3.45-3.32-1.48,.69-2.66,1.64-2.66,3.42,0,1.64,1.35,2.86,2.96,2.86m.1-9.92c1.61-.92,2.59-1.74,2.59-3.28,0-1.64-1.41-2.43-2.76-2.43-1.48,0-2.69,1.12-2.69,2.69,0,1.74,1.44,2.4,2.86,3.02"/></svg>