<svg version="1.1" id="Layer_1" xmlns="http://www.w3.org/2000/svg" xmlns:xlink="http://www.w3.org/1999/xlink" x="0px" y="0px"
	 width="100%" viewBox="0 0 1348 1085" enable-background="new 0 0 1348 1088" xml:space="preserve">
<path fill="#D9B6D7" opacity="1.000000" stroke="none" 
	d="
M1.000000,1089.000000 
	C1.000000,726.374695 1.000000,363.749359 1.000000,1.062029 
	C450.240753,1.062029 899.481506,1.062029 1349.000000,1.062029 
	C1349.000000,363.365997 1349.000000,725.732056 1348.549072,1088.549072 
	C899.065430,1089.000000 450.032715,1089.000000 1.000000,1089.000000 
M588.000000,628.500000 
	C588.000000,500.747131 588.000000,372.994293 588.000000,245.254105 
	C586.921814,245.122772 586.442017,245.013260 585.962219,245.013168 
	C539.298706,245.003418 492.635040,244.963104 445.972046,245.122620 
	C443.794556,245.130051 441.339630,246.550690 439.492554,247.946518 
	C419.716431,262.891174 400.595032,278.773804 380.205292,292.818573 
	C346.245514,316.210571 308.071198,330.844818 268.869080,342.843018 
	C264.742371,344.106018 263.663177,345.931854 263.678314,350.061584 
	C263.833435,392.391541 263.773376,434.722229 263.773376,477.052734 
	C263.773376,478.780060 263.773346,480.507416 263.773346,483.179443 
	C318.685181,465.251068 369.434570,441.420013 415.203613,406.012665 
	C415.203613,560.531555 415.203613,714.118835 415.203613,867.705444 
	C472.949554,867.705444 530.346313,867.705444 588.000000,867.705444 
	C588.000000,788.107483 588.000000,708.803772 588.000000,628.500000 
M910.000000,756.500000 
	C910.000000,793.591187 910.000000,830.682312 910.000000,867.673096 
	C968.014587,867.673096 1025.411499,867.673096 1082.665283,867.673096 
	C1082.665283,659.956299 1082.665283,452.566681 1082.665283,245.114044 
	C1081.679810,245.065628 1081.025146,245.005386 1080.370605,245.005325 
	C1034.040405,245.000488 987.709961,244.957626 941.380310,245.125275 
	C939.042664,245.133743 936.387695,246.534683 934.427551,248.012787 
	C914.636475,262.936768 895.516296,278.820801 875.125183,292.863068 
	C841.162415,316.251312 802.981445,330.857605 763.789490,342.894196 
	C760.091736,344.029816 758.628784,345.439484 758.649048,349.653625 
	C758.853149,392.149780 758.773376,434.647369 758.773376,477.144531 
	C758.773376,478.791199 758.773376,480.437836 758.773376,483.134583 
	C813.527771,465.382355 864.315002,441.459045 910.000000,406.188385 
	C910.000000,523.188843 910.000000,639.344421 910.000000,756.500000 
z"/>
<path fill="#000000" opacity="1.000000" stroke="none" 
	d="
M588.000000,629.000000 
	C588.000000,708.803772 588.000000,788.107483 588.000000,867.705444 
	C530.346313,867.705444 472.949554,867.705444 415.203613,867.705444 
	C415.203613,714.118835 415.203613,560.531555 415.203613,406.012665 
	C369.434570,441.420013 318.685181,465.251068 263.773346,483.179443 
	C263.773346,480.507416 263.773376,478.780060 263.773376,477.052734 
	C263.773376,434.722229 263.833435,392.391541 263.678314,350.061584 
	C263.663177,345.931854 264.742371,344.106018 268.869080,342.843018 
	C308.071198,330.844818 346.245514,316.210571 380.205292,292.818573 
	C400.595032,278.773804 419.716431,262.891174 439.492554,247.946518 
	C441.339630,246.550690 443.794556,245.130051 445.972046,245.122620 
	C492.635040,244.963104 539.298706,245.003418 585.962219,245.013168 
	C586.442017,245.013260 586.921814,245.122772 588.000000,245.254105 
	C588.000000,372.994293 588.000000,500.747131 588.000000,629.000000 
z"/>
<path fill="#000000" opacity="1.000000" stroke="none" 
	d="
M910.000000,756.000000 
	C910.000000,639.344421 910.000000,523.188843 910.000000,406.188385 
	C864.315002,441.459045 813.527771,465.382355 758.773376,483.134583 
	C758.773376,480.437836 758.773376,478.791199 758.773376,477.144531 
	C758.773376,434.647369 758.853149,392.149780 758.649048,349.653625 
	C758.628784,345.439484 760.091736,344.029816 763.789490,342.894196 
	C802.981445,330.857605 841.162415,316.251312 875.125183,292.863068 
	C895.516296,278.820801 914.636475,262.936768 934.427551,248.012787 
	C936.387695,246.534683 939.042664,245.133743 941.380310,245.125275 
	C987.709961,244.957626 1034.040405,245.000488 1080.370605,245.005325 
	C1081.025146,245.005386 1081.679810,245.065628 1082.665283,245.114044 
	C1082.665283,452.566681 1082.665283,659.956299 1082.665283,867.673096 
	C1025.411499,867.673096 968.014587,867.673096 910.000000,867.673096 
	C910.000000,830.682312 910.000000,793.591187 910.000000,756.000000 
z"/>
</svg>