<?xml version="1.0" encoding="UTF-8"?><svg id="a" xmlns="http://www.w3.org/2000/svg" viewBox="0 0 11.34 9.15"><defs><style>.b{fill:#ffe500;}.c{fill:#1d1d1b;}</style></defs><rect class="b" width="11.34" height="9.15"/><path class="c" d="M6.25,3.16c-.02-.23-.12-.37-.25-.45-.12-.07-.25-.09-.33-.09-.4,0-.61,.3-.72,.58-.12,.31-.12,.71-.12,.99,.12-.18,.43-.63,1.3-.63,1.01,0,1.68,.66,1.68,1.66,0,1.41-1.17,1.86-2.08,1.86-.61,0-1.31-.17-1.74-.82-.3-.44-.48-1.01-.48-1.82,0-1.32,.53-2.66,2.25-2.66,.68,0,1.77,.2,1.82,1.39h-1.33Zm-.5,1.26c-.52,0-.81,.35-.81,.88,0,.64,.41,.83,.78,.83,.51,0,.8-.34,.8-.85,0-.18-.04-.85-.77-.85Z"/></svg>