<?xml version="1.0" encoding="UTF-8"?><svg id="a" xmlns="http://www.w3.org/2000/svg" viewBox="0 0 51.04 41.19"><defs><style>.b{fill:#ffe500;}</style></defs><rect class="b" width="51.04" height="41.19"/><path d="M12.65,14.08c-.44,.38-.92,.72-1.45,1.02-.53,.31-1.06,.58-1.58,.82s-1.02,.45-1.47,.63c-.45,.18-.81,.3-1.07,.36v-5.08c.66-.2,1.26-.4,1.8-.61,.54-.21,1.06-.45,1.57-.73,.51-.27,1.02-.6,1.53-.97s1.08-.82,1.7-1.35h5.35V31.08h-6.37V14.08Z"/><path d="M26.67,26.32c1.3-.95,2.54-1.86,3.71-2.75,1.18-.89,2.25-1.74,3.23-2.54,.98-.8,1.84-1.56,2.57-2.28,.74-.71,1.31-1.37,1.73-1.96,.22-.35,.41-.74,.58-1.17,.17-.43,.25-.91,.25-1.44s-.09-.91-.26-1.22c-.18-.31-.4-.54-.66-.71s-.54-.27-.83-.31c-.29-.04-.53-.07-.73-.07-.62,0-1.1,.11-1.45,.33-.35,.22-.62,.48-.81,.77-.19,.3-.3,.59-.35,.89-.04,.3-.08,.52-.1,.68h-6.43c0-.18,.01-.42,.03-.73,.02-.31,.09-.65,.2-1.04s.28-.8,.5-1.25c.22-.45,.53-.92,.92-1.4,.48-.59,1.07-1.06,1.77-1.4,.69-.34,1.41-.6,2.14-.79,.74-.19,1.45-.31,2.14-.36,.69-.05,1.28-.08,1.77-.08,3.54,0,6.04,.93,7.49,2.8,.44,.55,.75,1.14,.94,1.77,.19,.63,.28,1.27,.28,1.93,0,1.19-.27,2.29-.81,3.32-.54,1.02-1.29,2.03-2.24,3.02s-2.1,1.98-3.42,2.99c-1.32,1-2.77,2.07-4.36,3.22h10.89v4.55H26.67v-4.75Z"/></svg>