<?xml version="1.0" encoding="UTF-8"?>
<svg id="Calque_2" data-name="Calque 2" xmlns="http://www.w3.org/2000/svg" viewBox="0 0 13.89543 11.01538">
  <defs>
    <style>
      .cls-1 {
        fill: #C95E8E;
      }

      .cls-1, .cls-2, .cls-3 {
        stroke-width: 0px;
      }

      .cls-2 {
        fill: #fff;
      }

      .cls-3 {
        fill: #1d1d1b;
      }
    </style>
  </defs>
  <g id="tableau_OD" data-name="tableau OD">
    <g>
      <g>
        <rect class="cls-2" x=".18128" y=".18126" width="13.5332" height="10.65283"/>
        <path class="cls-1" d="M13.53318.36224v10.29089H.36225V.36224h13.17093M13.89543,0H0v11.01538h13.89543V0h0Z"/>
      </g>
      <g>
        <path class="cls-3" d="M2.77796,3.2111v3.25537h1.83154v.85059H1.61536V3.2111h1.1626Z"/>
        <path class="cls-3" d="M8.2218,3.2111v.84521h-1.96191v.80518h1.83154v.85059h-1.83154v.7998h1.96191v.80518h-3.12451V3.2111h3.12451Z"/>
        <path class="cls-3" d="M10.67786,3.2111c.00781.00781.01611.01123.02588.01123h.08203c.19287.00391.37695.0249.55273.0625.17627.0376.34521.09082.50781.15869.15869.07178.27881.17871.36035.32031.08105.14209.12158.31885.12158.53027,0,.1665-.02344.31104-.0708.43408s-.12012.22217-.21826.29785c-.09473.07568-.20068.1377-.31787.18701s-.2417.08496-.37402.10791c.2002.00732.36279.04541.48779.11328.12451.06787.21143.1665.26074.29492s.08984.2627.12207.40283c.03174.13965.05566.28516.0708.43652v.03418c0,.00342.00195.00732.00586.01123.00732.06055.01416.12158.01953.18408.00586.0625.01221.12598.02002.18994.00732.06055.01904.11816.03418.17334.01465.05469.03174.10645.05078.15576h-1.24756c-.01514-.03027-.02734-.06592-.03711-.10791-.00928-.0415-.01758-.08691-.02539-.13574-.00391-.04932-.00781-.09961-.01123-.15039-.00391-.05127-.00781-.10303-.01123-.15625v-.03369c-.00391-.00391-.00586-.00879-.00586-.01416v-.08252c-.00781-.10938-.021-.21436-.03955-.31445-.01904-.1001-.04346-.1958-.07373-.28662s-.08154-.15869-.15332-.2041-.1626-.06787-.27197-.06787l-.5332-.01172v1.56543h-1.1626V3.2111h1.83154ZM10.00891,4.95231h.44775c.00781.00732.01611.01123.02588.01123h.08203c.06787-.00391.13428-.01416.19873-.03125.06396-.01709.12646-.03857.18701-.06543.05664-.02979.1001-.07373.13037-.13037s.04541-.13037.04541-.22119c0-.0752-.01514-.1416-.04541-.19824s-.07568-.104-.13623-.14209c-.06055-.03369-.12842-.06006-.2041-.0791s-.15674-.02832-.24365-.02832l-.48779-.01123v.896Z"/>
      </g>
    </g>
  </g>
</svg>