<?xml version="1.0" encoding="UTF-8"?><svg id="a" xmlns="http://www.w3.org/2000/svg" viewBox="0 0 65.2 65.2"><defs><style>.b{fill:#fff;}.c{fill:#3AAA35;}</style></defs><path class="c" d="M65.2,32.6c0,18-14.6,32.6-32.6,32.6S0,50.6,0,32.6,14.59,0,32.6,0s32.6,14.59,32.6,32.6"/><path class="b" d="M19.29,13.06c2.15-.37,6.83-.74,11.19-.74,5.04,0,8.03,.32,10.82,1.73,2.73,1.26,4.78,3.83,4.78,7.25,0,2.99-1.63,5.88-5.77,7.46v.1c4.36,1.21,6.93,4.41,6.93,8.61,0,3.31-1.57,5.93-3.94,7.72-2.68,2-7.09,3.2-14.65,3.2-4.31,0-7.41-.31-9.35-.63V13.06Zm9.4,13.13h1.89c4.04,0,5.99-1.42,5.99-3.68,0-2.1-1.58-3.41-4.78-3.41-1.57,0-2.47,.1-3.1,.21v6.88Zm0,15.12c.68,.11,1.52,.11,2.73,.11,3.15,0,5.83-1.26,5.83-4.36s-2.73-4.15-6.3-4.15h-2.26v8.4Z"/></svg>