<svg version="1.1" id="Layer_1" xmlns="http://www.w3.org/2000/svg" xmlns:xlink="http://www.w3.org/1999/xlink" x="0px" y="0px"
	 width="100%" viewBox="0 11 1348 1088" enable-background="new 0 11 1348 1088" xml:space="preserve">
<path fill="#A0180E" opacity="1.000000" stroke="none" 
	d="
M1349.000000,11.000000 
	C1349.000000,373.625336 1349.000000,736.250671 1349.000000,1098.937988 
	C899.759277,1098.937988 450.518524,1098.937988 1.000000,1098.937988 
	C1.000000,736.633972 1.000000,374.267883 1.459705,11.450708 
	C450.946259,10.999737 899.973145,10.999868 1349.000000,11.000000 
M375.160370,310.683350 
	C388.372986,301.870361 401.585602,293.057343 415.031525,284.088745 
	C415.031525,437.516876 415.031525,591.047668 415.031525,744.773132 
	C472.821442,744.773132 530.210083,744.773132 587.624268,744.773132 
	C587.624268,537.065247 587.624268,329.584259 587.624268,122.000595 
	C539.929443,122.000595 492.609985,121.971344 445.291046,122.108459 
	C443.414917,122.113892 441.298279,123.383026 439.707184,124.602760 
	C421.482819,138.573746 403.829315,153.346725 385.067719,166.547287 
	C349.629608,191.481323 309.759094,207.212158 268.598907,219.854050 
	C264.805023,221.019302 263.448364,222.460999 263.466675,226.625275 
	C263.654419,269.280853 263.581665,311.937561 263.581665,354.593933 
	C263.581665,356.224609 263.581665,357.855255 263.581665,360.190887 
	C302.938354,348.002747 339.620819,331.552246 375.160370,310.683350 
M770.757141,356.268036 
	C820.636841,339.027313 867.598389,316.172943 910.155273,283.179504 
	C910.155273,437.592316 910.155273,591.160156 910.155273,744.684570 
	C967.980591,744.684570 1025.378784,744.684570 1082.662231,744.684570 
	C1082.662231,536.972473 1082.662231,329.575714 1082.662231,122.172493 
	C1081.839600,122.096313 1081.351685,122.011620 1080.863770,122.011536 
	C1034.197632,122.003647 987.531433,121.970482 940.865784,122.106400 
	C938.815857,122.112366 936.478455,123.279709 934.767151,124.562576 
	C913.736816,140.327881 893.393677,157.089523 871.697632,171.868362 
	C838.706360,194.341278 801.524719,208.090958 763.626709,219.850403 
	C759.875610,221.014313 758.443176,222.394302 758.462402,226.599625 
	C758.657654,269.264893 758.581604,311.931366 758.581604,354.597504 
	C758.581604,356.228333 758.581604,357.859131 758.581604,360.053253 
	C762.805115,358.786346 766.424316,357.700714 770.757141,356.268036 
M673.500000,830.999268 
	C652.076965,830.999268 630.653992,830.999268 609.315674,830.999268 
	C609.315674,893.671265 609.315674,955.725769 609.315674,1017.664429 
	C626.697571,1017.664429 643.761108,1017.664429 661.264709,1017.664429 
	C661.264709,993.265869 661.264709,969.201416 661.264709,945.147034 
	C670.365723,945.147034 679.034302,944.839172 687.672424,945.221069 
	C699.826477,945.758301 705.200500,950.737854 706.872925,962.670288 
	C708.119812,971.566406 708.861206,980.532288 710.014832,989.442871 
	C711.244385,998.940430 712.693909,1008.409485 714.029968,1017.769531 
	C733.448059,1017.769531 751.867676,1017.769531 770.432800,1017.769531 
	C769.240784,1012.677002 767.851440,1007.878967 767.021057,1002.986084 
	C764.238281,986.590515 761.980042,970.099976 758.906006,953.761475 
	C755.682617,936.629517 746.795654,928.864624 729.541016,926.858337 
	C726.621033,926.518799 723.707092,926.126587 720.985352,925.783325 
	C727.646301,923.714294 734.458801,922.107300 740.865845,919.502930 
	C754.561707,913.935669 763.017395,903.913391 764.626831,888.865234 
	C765.050354,884.905273 765.033997,880.881104 764.977234,876.889832 
	C764.609436,851.072266 748.224365,833.509949 722.429993,832.080872 
	C706.482300,831.197266 690.478577,831.325317 673.500000,830.999268 
M365.500000,1018.001343 
	C377.364288,1018.001343 389.228607,1018.001343 401.917053,1018.001343 
	C378.243927,984.586731 355.205963,952.068726 332.185120,919.574829 
	C354.334137,890.023315 376.218903,860.824402 398.573456,830.998657 
	C380.528809,830.998657 363.545380,831.320007 346.585724,830.824768 
	C340.625610,830.650818 337.429504,832.598389 334.353271,837.533752 
	C323.728912,854.578979 312.583282,871.299316 301.289307,888.676941 
	C300.032990,886.718323 299.052185,885.215820 298.097504,883.696838 
	C287.743835,867.222961 277.335175,850.783020 267.107941,834.230957 
	C265.594299,831.781250 263.994171,830.914429 261.151093,830.933472 
	C242.323792,831.059387 223.495239,830.998657 204.667099,830.998657 
	C202.746338,830.998657 200.825592,830.998657 197.999115,830.998657 
	C220.220322,861.362427 241.879440,890.958191 263.588287,920.621887 
	C240.026749,953.049011 216.690582,985.166077 192.832520,1018.001343 
	C195.186676,1018.001343 196.623993,1018.001343 198.061310,1018.001343 
	C215.056625,1018.001343 232.053024,1017.901123 249.046341,1018.085815 
	C252.445267,1018.122742 254.327713,1017.059326 256.101349,1014.163513 
	C268.770721,993.478088 281.633392,972.911072 294.690002,951.895325 
	C295.687927,953.406250 296.527649,954.600708 297.289581,955.842834 
	C309.288544,975.405090 321.321869,994.946533 333.214813,1014.573059 
	C334.770721,1017.140686 336.429321,1018.179199 339.509460,1018.086792 
	C347.833008,1017.837158 356.168976,1018.001343 365.500000,1018.001343 
M1114.686523,858.933594 
	C1108.716309,845.857666 1098.370850,837.586365 1085.075806,833.126709 
	C1062.452759,825.538025 1039.318115,825.144104 1016.065369,829.713562 
	C1000.140259,832.843079 986.193909,839.623901 975.710571,852.583130 
	C959.782654,872.272522 957.415649,915.386841 994.814270,930.974792 
	C999.553772,932.950317 1004.458435,934.627014 1009.415222,935.966553 
	C1025.938599,940.431580 1042.554688,944.555054 1059.064697,949.067444 
	C1066.660156,951.143433 1072.218262,955.570923 1072.842285,964.168640 
	C1073.445435,972.476501 1070.934448,979.630493 1063.162354,983.407166 
	C1051.438599,989.104187 1039.226440,988.881470 1027.421021,983.652527 
	C1017.093018,979.077942 1014.540039,969.599182 1013.796631,959.362000 
	C1013.785828,959.213440 1013.661865,959.073120 1013.529297,958.804443 
	C996.471130,958.804443 979.352112,958.804443 962.253418,958.804443 
	C960.076233,984.641052 975.170410,1007.305664 1001.152954,1015.664001 
	C1028.989624,1024.618774 1057.237793,1024.664185 1085.163574,1015.907349 
	C1108.165039,1008.694702 1127.603882,991.367065 1126.212891,958.782654 
	C1125.418091,940.161926 1117.926758,925.549072 1100.619385,918.165466 
	C1087.567261,912.597107 1073.579346,909.189392 1059.941040,905.039429 
	C1049.622070,901.899536 1039.076294,899.466858 1028.862183,896.033203 
	C1021.872498,893.683594 1018.379822,887.833923 1018.293823,880.554382 
	C1018.208740,873.342163 1021.681702,867.720764 1028.021362,864.226685 
	C1035.544678,860.080139 1043.609497,859.805969 1051.766968,861.895691 
	C1059.629028,863.909790 1064.239136,869.213745 1065.972778,877.018433 
	C1066.643188,880.037048 1066.932007,883.140442 1067.389160,886.168823 
	C1084.750488,886.168823 1101.853638,886.168823 1119.308960,886.168823 
	C1119.711182,876.840271 1118.403076,868.082825 1114.686523,858.933594 
M1305.689087,872.990234 
	C1302.157471,850.721924 1288.608154,837.536804 1267.508057,831.676025 
	C1244.089844,825.171204 1220.444092,825.071655 1196.941528,831.152039 
	C1183.294678,834.682556 1171.462524,841.499084 1162.508667,852.814514 
	C1147.082520,872.309448 1144.885742,913.359558 1178.919434,929.626099 
	C1184.432983,932.261292 1190.319214,934.284790 1196.221191,935.907349 
	C1212.882568,940.487976 1229.703125,944.495117 1246.338867,949.162659 
	C1255.768433,951.808289 1259.836548,957.376709 1259.955322,965.952942 
	C1260.082764,975.152100 1255.517578,981.847046 1246.758179,985.015198 
	C1238.360229,988.052612 1229.736328,987.929565 1221.162598,986.076294 
	C1210.311646,983.730835 1203.632080,977.085999 1201.696045,965.988953 
	C1201.278442,963.594116 1200.969116,961.180298 1200.633179,958.931885 
	C1183.261719,958.931885 1166.196045,958.931885 1149.152100,958.931885 
	C1147.976196,985.945679 1162.135010,1007.227234 1187.931519,1015.592224 
	C1215.917847,1024.667236 1244.339478,1024.708252 1272.408203,1015.826050 
	C1295.645874,1008.472656 1314.500488,990.930359 1313.220093,959.032104 
	C1312.464111,940.201538 1304.919678,925.500732 1287.401611,918.053772 
	C1274.492798,912.566406 1260.685547,909.148682 1247.193237,905.092590 
	C1237.494263,902.176758 1227.525879,900.120178 1217.915894,896.956360 
	C1209.345337,894.134766 1205.028564,888.125061 1205.262085,880.323792 
	C1205.510132,872.037231 1209.692261,865.760864 1217.527222,863.215759 
	C1222.754517,861.517700 1228.595093,860.916870 1234.119995,861.096313 
	C1244.309448,861.427185 1251.045776,867.741089 1253.096680,877.735657 
	C1253.660156,880.481873 1253.925659,883.289246 1254.331909,886.095947 
	C1271.638672,886.095947 1288.882568,886.095947 1306.556030,886.095947 
	C1306.305298,881.778503 1306.074951,877.811890 1305.689087,872.990234 
M127.499954,1018.142456 
	C144.252136,1018.142456 161.004303,1018.142456 177.746490,1018.142456 
	C177.746490,1005.727539 177.746490,993.969482 177.746490,981.729614 
	C147.431946,981.729614 117.368263,981.729614 87.380234,981.729614 
	C87.380234,968.190247 87.380234,955.139404 87.380234,941.710205 
	C115.345657,941.710205 142.932755,941.710205 170.487549,941.710205 
	C170.487549,929.745422 170.487549,918.170532 170.487549,906.165527 
	C142.585175,906.165527 115.004829,906.165527 87.306229,906.165527 
	C87.306229,893.166260 87.306229,880.605896 87.306229,867.563599 
	C117.010284,867.563599 146.411362,867.563599 175.760529,867.563599 
	C175.760529,855.466064 175.760529,843.854919 175.760529,832.090698 
	C129.115234,832.090698 82.710693,832.090698 36.205490,832.090698 
	C36.205490,894.191040 36.205490,956.057678 36.205490,1018.142456 
	C66.535347,1018.142456 96.517639,1018.142456 127.499954,1018.142456 
M880.499939,867.813477 
	C899.260376,867.813477 918.020874,867.813477 936.778931,867.813477 
	C936.778931,855.509399 936.778931,843.898682 936.778931,832.247437 
	C890.034119,832.247437 843.512512,832.247437 797.185547,832.247437 
	C797.185547,894.386902 797.185547,956.136047 797.185547,1017.836426 
	C844.580261,1017.836426 891.646362,1017.836426 938.765015,1017.836426 
	C938.765015,1005.771240 938.765015,994.013428 938.765015,981.770142 
	C908.471130,981.770142 878.408997,981.770142 848.360229,981.770142 
	C848.360229,968.229614 848.360229,955.180237 848.360229,941.751587 
	C876.306152,941.751587 903.894165,941.751587 931.507568,941.751587 
	C931.507568,929.787903 931.507568,918.212708 931.507568,906.207397 
	C903.624390,906.207397 876.042358,906.207397 848.288269,906.207397 
	C848.288269,893.210876 848.288269,880.650696 848.288269,867.813477 
	C858.882141,867.813477 869.191040,867.813477 880.499939,867.813477 
M477.000854,961.518555 
	C477.000854,958.064392 477.000854,954.610229 477.000854,950.420532 
	C490.947632,950.420532 504.397125,950.483459 517.845703,950.401672 
	C529.883118,950.328552 541.980835,949.588684 553.084290,944.670776 
	C573.396851,935.674011 583.658569,919.159180 585.525024,897.449036 
	C587.517883,874.268066 580.009583,851.913086 557.621948,839.377380 
	C545.793274,832.754028 532.768433,831.111389 519.530334,831.045898 
	C489.545929,830.897583 459.560303,830.995911 429.575165,831.009216 
	C428.135803,831.009827 426.696533,831.156372 425.277893,831.233765 
	C425.277893,893.617065 425.277893,955.660706 425.277893,1017.706665 
	C442.618134,1017.706665 459.677948,1017.706665 477.000854,1017.706665 
	C477.000854,999.114136 477.000854,980.814575 477.000854,961.518555 
z"/>
<path fill="#FFFFFF" opacity="1.000000" stroke="none" 
	d="
M374.838196,310.855774 
	C339.620819,331.552246 302.938354,348.002747 263.581665,360.190887 
	C263.581665,357.855255 263.581665,356.224609 263.581665,354.593933 
	C263.581665,311.937561 263.654419,269.280853 263.466675,226.625275 
	C263.448364,222.460999 264.805023,221.019302 268.598907,219.854050 
	C309.759094,207.212158 349.629608,191.481323 385.067719,166.547287 
	C403.829315,153.346725 421.482819,138.573746 439.707184,124.602760 
	C441.298279,123.383026 443.414917,122.113892 445.291046,122.108459 
	C492.609985,121.971344 539.929443,122.000595 587.624268,122.000595 
	C587.624268,329.584259 587.624268,537.065247 587.624268,744.773132 
	C530.210083,744.773132 472.821442,744.773132 415.031525,744.773132 
	C415.031525,591.047668 415.031525,437.516876 415.031525,284.088745 
	C401.585602,293.057343 388.372986,301.870361 374.838196,310.855774 
z"/>
<path fill="#FFFFFF" opacity="1.000000" stroke="none" 
	d="
M770.400330,356.441559 
	C766.424316,357.700714 762.805115,358.786346 758.581604,360.053253 
	C758.581604,357.859131 758.581604,356.228333 758.581604,354.597504 
	C758.581604,311.931366 758.657654,269.264893 758.462402,226.599625 
	C758.443176,222.394302 759.875610,221.014313 763.626709,219.850403 
	C801.524719,208.090958 838.706360,194.341278 871.697632,171.868362 
	C893.393677,157.089523 913.736816,140.327881 934.767151,124.562576 
	C936.478455,123.279709 938.815857,122.112366 940.865784,122.106400 
	C987.531433,121.970482 1034.197632,122.003647 1080.863770,122.011536 
	C1081.351685,122.011620 1081.839600,122.096313 1082.662231,122.172493 
	C1082.662231,329.575714 1082.662231,536.972473 1082.662231,744.684570 
	C1025.378784,744.684570 967.980591,744.684570 910.155273,744.684570 
	C910.155273,591.160156 910.155273,437.592316 910.155273,283.179504 
	C867.598389,316.172943 820.636841,339.027313 770.400330,356.441559 
z"/>
<path fill="#FFFEFE" opacity="1.000000" stroke="none" 
	d="
M674.000000,830.999268 
	C690.478577,831.325317 706.482300,831.197266 722.429993,832.080872 
	C748.224365,833.509949 764.609436,851.072266 764.977234,876.889832 
	C765.033997,880.881104 765.050354,884.905273 764.626831,888.865234 
	C763.017395,903.913391 754.561707,913.935669 740.865845,919.502930 
	C734.458801,922.107300 727.646301,923.714294 720.985352,925.783325 
	C723.707092,926.126587 726.621033,926.518799 729.541016,926.858337 
	C746.795654,928.864624 755.682617,936.629517 758.906006,953.761475 
	C761.980042,970.099976 764.238281,986.590515 767.021057,1002.986084 
	C767.851440,1007.878967 769.240784,1012.677002 770.432800,1017.769531 
	C751.867676,1017.769531 733.448059,1017.769531 714.029968,1017.769531 
	C712.693909,1008.409485 711.244385,998.940430 710.014832,989.442871 
	C708.861206,980.532288 708.119812,971.566406 706.872925,962.670288 
	C705.200500,950.737854 699.826477,945.758301 687.672424,945.221069 
	C679.034302,944.839172 670.365723,945.147034 661.264709,945.147034 
	C661.264709,969.201416 661.264709,993.265869 661.264709,1017.664429 
	C643.761108,1017.664429 626.697571,1017.664429 609.315674,1017.664429 
	C609.315674,955.725769 609.315674,893.671265 609.315674,830.999268 
	C630.653992,830.999268 652.076965,830.999268 674.000000,830.999268 
M684.311890,865.412476 
	C676.696045,865.412476 669.080200,865.412476 661.297485,865.412476 
	C661.297485,880.903137 661.297485,895.925110 661.297485,910.969604 
	C673.051453,910.969604 684.522827,911.371521 695.952576,910.853455 
	C706.781799,910.362610 713.834412,902.340942 714.863831,890.658447 
	C715.905151,878.840820 710.495605,869.920959 700.043396,867.276917 
	C695.264709,866.068115 690.197693,865.998718 684.311890,865.412476 
z"/>
<path fill="#FFFEFE" opacity="1.000000" stroke="none" 
	d="
M365.000000,1018.001343 
	C356.168976,1018.001343 347.833008,1017.837158 339.509460,1018.086792 
	C336.429321,1018.179199 334.770721,1017.140686 333.214813,1014.573059 
	C321.321869,994.946533 309.288544,975.405090 297.289581,955.842834 
	C296.527649,954.600708 295.687927,953.406250 294.690002,951.895325 
	C281.633392,972.911072 268.770721,993.478088 256.101349,1014.163513 
	C254.327713,1017.059326 252.445267,1018.122742 249.046341,1018.085815 
	C232.053024,1017.901123 215.056625,1018.001343 198.061310,1018.001343 
	C196.623993,1018.001343 195.186676,1018.001343 192.832520,1018.001343 
	C216.690582,985.166077 240.026749,953.049011 263.588287,920.621887 
	C241.879440,890.958191 220.220322,861.362427 197.999115,830.998657 
	C200.825592,830.998657 202.746338,830.998657 204.667099,830.998657 
	C223.495239,830.998657 242.323792,831.059387 261.151093,830.933472 
	C263.994171,830.914429 265.594299,831.781250 267.107941,834.230957 
	C277.335175,850.783020 287.743835,867.222961 298.097504,883.696838 
	C299.052185,885.215820 300.032990,886.718323 301.289307,888.676941 
	C312.583282,871.299316 323.728912,854.578979 334.353271,837.533752 
	C337.429504,832.598389 340.625610,830.650818 346.585724,830.824768 
	C363.545380,831.320007 380.528809,830.998657 398.573456,830.998657 
	C376.218903,860.824402 354.334137,890.023315 332.185120,919.574829 
	C355.205963,952.068726 378.243927,984.586731 401.917053,1018.001343 
	C389.228607,1018.001343 377.364288,1018.001343 365.000000,1018.001343 
z"/>
<path fill="#FFFEFE" opacity="1.000000" stroke="none" 
	d="
M1114.823242,859.291870 
	C1118.403076,868.082825 1119.711182,876.840271 1119.308960,886.168823 
	C1101.853638,886.168823 1084.750488,886.168823 1067.389160,886.168823 
	C1066.932007,883.140442 1066.643188,880.037048 1065.972778,877.018433 
	C1064.239136,869.213745 1059.629028,863.909790 1051.766968,861.895691 
	C1043.609497,859.805969 1035.544678,860.080139 1028.021362,864.226685 
	C1021.681702,867.720764 1018.208740,873.342163 1018.293823,880.554382 
	C1018.379822,887.833923 1021.872498,893.683594 1028.862183,896.033203 
	C1039.076294,899.466858 1049.622070,901.899536 1059.941040,905.039429 
	C1073.579346,909.189392 1087.567261,912.597107 1100.619385,918.165466 
	C1117.926758,925.549072 1125.418091,940.161926 1126.212891,958.782654 
	C1127.603882,991.367065 1108.165039,1008.694702 1085.163574,1015.907349 
	C1057.237793,1024.664185 1028.989624,1024.618774 1001.152954,1015.664001 
	C975.170410,1007.305664 960.076233,984.641052 962.253418,958.804443 
	C979.352112,958.804443 996.471130,958.804443 1013.529297,958.804443 
	C1013.661865,959.073120 1013.785828,959.213440 1013.796631,959.362000 
	C1014.540039,969.599182 1017.093018,979.077942 1027.421021,983.652527 
	C1039.226440,988.881470 1051.438599,989.104187 1063.162354,983.407166 
	C1070.934448,979.630493 1073.445435,972.476501 1072.842285,964.168640 
	C1072.218262,955.570923 1066.660156,951.143433 1059.064697,949.067444 
	C1042.554688,944.555054 1025.938599,940.431580 1009.415222,935.966553 
	C1004.458435,934.627014 999.553772,932.950317 994.814270,930.974792 
	C957.415649,915.386841 959.782654,872.272522 975.710571,852.583130 
	C986.193909,839.623901 1000.140259,832.843079 1016.065369,829.713562 
	C1039.318115,825.144104 1062.452759,825.538025 1085.075806,833.126709 
	C1098.370850,837.586365 1108.716309,845.857666 1114.823242,859.291870 
z"/>
<path fill="#FFFEFE" opacity="1.000000" stroke="none" 
	d="
M1305.766846,873.417725 
	C1306.074951,877.811890 1306.305298,881.778503 1306.556030,886.095947 
	C1288.882568,886.095947 1271.638672,886.095947 1254.331909,886.095947 
	C1253.925659,883.289246 1253.660156,880.481873 1253.096680,877.735657 
	C1251.045776,867.741089 1244.309448,861.427185 1234.119995,861.096313 
	C1228.595093,860.916870 1222.754517,861.517700 1217.527222,863.215759 
	C1209.692261,865.760864 1205.510132,872.037231 1205.262085,880.323792 
	C1205.028564,888.125061 1209.345337,894.134766 1217.915894,896.956360 
	C1227.525879,900.120178 1237.494263,902.176758 1247.193237,905.092590 
	C1260.685547,909.148682 1274.492798,912.566406 1287.401611,918.053772 
	C1304.919678,925.500732 1312.464111,940.201538 1313.220093,959.032104 
	C1314.500488,990.930359 1295.645874,1008.472656 1272.408203,1015.826050 
	C1244.339478,1024.708252 1215.917847,1024.667236 1187.931519,1015.592224 
	C1162.135010,1007.227234 1147.976196,985.945679 1149.152100,958.931885 
	C1166.196045,958.931885 1183.261719,958.931885 1200.633179,958.931885 
	C1200.969116,961.180298 1201.278442,963.594116 1201.696045,965.988953 
	C1203.632080,977.085999 1210.311646,983.730835 1221.162598,986.076294 
	C1229.736328,987.929565 1238.360229,988.052612 1246.758179,985.015198 
	C1255.517578,981.847046 1260.082764,975.152100 1259.955322,965.952942 
	C1259.836548,957.376709 1255.768433,951.808289 1246.338867,949.162659 
	C1229.703125,944.495117 1212.882568,940.487976 1196.221191,935.907349 
	C1190.319214,934.284790 1184.432983,932.261292 1178.919434,929.626099 
	C1144.885742,913.359558 1147.082520,872.309448 1162.508667,852.814514 
	C1171.462524,841.499084 1183.294678,834.682556 1196.941528,831.152039 
	C1220.444092,825.071655 1244.089844,825.171204 1267.508057,831.676025 
	C1288.608154,837.536804 1302.157471,850.721924 1305.766846,873.417725 
z"/>
<path fill="#FFFEFE" opacity="1.000000" stroke="none" 
	d="
M126.999947,1018.142456 
	C96.517639,1018.142456 66.535347,1018.142456 36.205490,1018.142456 
	C36.205490,956.057678 36.205490,894.191040 36.205490,832.090698 
	C82.710693,832.090698 129.115234,832.090698 175.760529,832.090698 
	C175.760529,843.854919 175.760529,855.466064 175.760529,867.563599 
	C146.411362,867.563599 117.010284,867.563599 87.306229,867.563599 
	C87.306229,880.605896 87.306229,893.166260 87.306229,906.165527 
	C115.004829,906.165527 142.585175,906.165527 170.487549,906.165527 
	C170.487549,918.170532 170.487549,929.745422 170.487549,941.710205 
	C142.932755,941.710205 115.345657,941.710205 87.380234,941.710205 
	C87.380234,955.139404 87.380234,968.190247 87.380234,981.729614 
	C117.368263,981.729614 147.431946,981.729614 177.746490,981.729614 
	C177.746490,993.969482 177.746490,1005.727539 177.746490,1018.142456 
	C161.004303,1018.142456 144.252136,1018.142456 126.999947,1018.142456 
z"/>
<path fill="#FFFEFE" opacity="1.000000" stroke="none" 
	d="
M879.999878,867.813477 
	C869.191040,867.813477 858.882141,867.813477 848.288269,867.813477 
	C848.288269,880.650696 848.288269,893.210876 848.288269,906.207397 
	C876.042358,906.207397 903.624390,906.207397 931.507568,906.207397 
	C931.507568,918.212708 931.507568,929.787903 931.507568,941.751587 
	C903.894165,941.751587 876.306152,941.751587 848.360229,941.751587 
	C848.360229,955.180237 848.360229,968.229614 848.360229,981.770142 
	C878.408997,981.770142 908.471130,981.770142 938.765015,981.770142 
	C938.765015,994.013428 938.765015,1005.771240 938.765015,1017.836426 
	C891.646362,1017.836426 844.580261,1017.836426 797.185547,1017.836426 
	C797.185547,956.136047 797.185547,894.386902 797.185547,832.247437 
	C843.512512,832.247437 890.034119,832.247437 936.778931,832.247437 
	C936.778931,843.898682 936.778931,855.509399 936.778931,867.813477 
	C918.020874,867.813477 899.260376,867.813477 879.999878,867.813477 
z"/>
<path fill="#FFFEFE" opacity="1.000000" stroke="none" 
	d="
M477.000854,962.016785 
	C477.000854,980.814575 477.000854,999.114136 477.000854,1017.706665 
	C459.677948,1017.706665 442.618134,1017.706665 425.277893,1017.706665 
	C425.277893,955.660706 425.277893,893.617065 425.277893,831.233765 
	C426.696533,831.156372 428.135803,831.009827 429.575165,831.009216 
	C459.560303,830.995911 489.545929,830.897583 519.530334,831.045898 
	C532.768433,831.111389 545.793274,832.754028 557.621948,839.377380 
	C580.009583,851.913086 587.517883,874.268066 585.525024,897.449036 
	C583.658569,919.159180 573.396851,935.674011 553.084290,944.670776 
	C541.980835,949.588684 529.883118,950.328552 517.845703,950.401672 
	C504.397125,950.483459 490.947632,950.420532 477.000854,950.420532 
	C477.000854,954.610229 477.000854,958.064392 477.000854,962.016785 
M525.196167,871.216736 
	C521.704529,869.760620 518.259216,867.196960 514.712952,867.048706 
	C502.330048,866.531250 489.912262,866.848328 477.288055,866.848328 
	C477.288055,882.361633 477.288055,898.543030 477.288055,914.773682 
	C488.026489,914.773682 498.501770,915.226501 508.918915,914.642700 
	C518.770691,914.090576 527.904907,911.087769 531.204224,900.291748 
	C534.358826,889.969116 534.365234,879.922729 525.196167,871.216736 
z"/>
<path fill="#A11A10" opacity="1.000000" stroke="none" 
	d="
M684.786682,865.412537 
	C690.197693,865.998718 695.264709,866.068115 700.043396,867.276917 
	C710.495605,869.920959 715.905151,878.840820 714.863831,890.658447 
	C713.834412,902.340942 706.781799,910.362610 695.952576,910.853455 
	C684.522827,911.371521 673.051453,910.969604 661.297485,910.969604 
	C661.297485,895.925110 661.297485,880.903137 661.297485,865.412476 
	C669.080200,865.412476 676.696045,865.412476 684.786682,865.412537 
z"/>
<path fill="#A0190F" opacity="1.000000" stroke="none" 
	d="
M525.476440,871.451050 
	C534.365234,879.922729 534.358826,889.969116 531.204224,900.291748 
	C527.904907,911.087769 518.770691,914.090576 508.918915,914.642700 
	C498.501770,915.226501 488.026489,914.773682 477.288055,914.773682 
	C477.288055,898.543030 477.288055,882.361633 477.288055,866.848328 
	C489.912262,866.848328 502.330048,866.531250 514.712952,867.048706 
	C518.259216,867.196960 521.704529,869.760620 525.476440,871.451050 
z"/>
</svg>