<?xml version="1.0" encoding="UTF-8"?><svg id="a" xmlns="http://www.w3.org/2000/svg" viewBox="0 0 65.3 52.7"><defs><style>.b{fill:#fff;}.c{fill:#104c77;}</style></defs><rect class="c" width="65.3" height="52.7"/><path class="b" d="M6.05,34.06c6.61-4.88,12.21-9.09,14.35-12.17,.55-.88,1.05-1.98,1.05-3.33,0-2.61-2.1-2.95-3.16-2.95-3.16,0-3.37,2.61-3.45,3.41H6.64c0-.93,.08-3.2,2.1-5.64,2.48-2.99,7.49-3.37,9.98-3.37,4.46,0,7.66,1.14,9.56,3.58,1.09,1.39,1.56,3.03,1.56,4.71,0,6.06-5.72,10.19-13.81,16h13.89v5.81H6.05v-6.06Z"/><path class="b" d="M34.12,34.06c6.61-4.88,12.21-9.09,14.35-12.17,.55-.88,1.05-1.98,1.05-3.33,0-2.61-2.1-2.95-3.16-2.95-3.16,0-3.37,2.61-3.45,3.41h-8.21c0-.93,.08-3.2,2.1-5.64,2.48-2.99,7.49-3.37,9.98-3.37,4.46,0,7.66,1.14,9.56,3.58,1.09,1.39,1.56,3.03,1.56,4.71,0,6.06-5.72,10.19-13.81,16h13.89v5.81h-23.87v-6.06Z"/></svg>