<?xml version="1.0" encoding="UTF-8"?><svg id="a" xmlns="http://www.w3.org/2000/svg" viewBox="0 0 65.3 52.7"><defs><style>.b{fill:#fff;}.c{fill:#13a538;}</style></defs><rect class="c" width="65.3" height="52.7"/><path class="b" d="M22.44,11.49c2.69-.8,5.29-1.22,8.53-1.22,5.46,0,11.52,1.64,11.52,8.03,0,3.36-2.14,5.55-5.38,6.43v.09c3.53,.71,5.84,3.03,5.84,6.68,0,7.23-7.1,9.12-12.82,9.12-3.28,0-6.47-.25-8.57-1.01l.38-6.18c1.89,1.09,4.5,1.39,7.27,1.39,2.31,0,5.93-.71,5.93-3.74s-3.49-3.36-5.34-3.36c-1.26,0-2.35,.04-3.28,.08v-5.21c1.34,.13,2.27,.08,3.36,.08,1.81,0,4.79-.84,4.79-3.24,0-2.82-2.69-3.36-5.04-3.36-2.61,0-5.13,.42-6.81,1.18l-.38-5.76Z"/></svg>