<svg version="1.1" id="Layer_1" xmlns="http://www.w3.org/2000/svg" xmlns:xlink="http://www.w3.org/1999/xlink" x="0px" y="0px"
	 width="100%" viewBox="0 0 1347 1085" enable-background="new 0 0 1347 1088" xml:space="preserve">
<path fill="#0072BC" opacity="1.000000" stroke="none" 
	d="
M1.000000,1089.000000 
	C1.000000,726.374695 1.000000,363.749420 1.000000,1.062061 
	C449.907379,1.062061 898.814758,1.062061 1348.000000,1.062061 
	C1348.000000,363.365997 1348.000000,725.732056 1347.549072,1088.549072 
	C898.398743,1089.000000 449.699371,1089.000000 1.000000,1089.000000 
M647.479431,309.024963 
	C623.800903,275.381744 592.141968,251.835403 554.599304,235.804291 
	C518.242493,220.279541 480.020569,212.749207 440.794403,209.779816 
	C393.955902,206.234177 347.277954,206.918732 301.015869,216.083206 
	C242.817520,227.612213 192.751556,253.924225 152.334946,297.890961 
	C106.753136,347.476532 82.292336,406.737213 72.039330,472.499054 
	C65.439064,514.832520 64.691338,557.348389 68.933220,599.971863 
	C72.745567,638.279175 81.088310,675.494568 96.168343,711.002991 
	C123.426231,775.186096 167.459824,823.031372 232.447739,850.444458 
	C276.414185,868.990295 322.524292,877.352173 369.890137,879.544800 
	C401.197174,880.994141 432.453552,880.014160 463.605072,876.068420 
	C501.291962,871.294861 537.891602,862.657898 572.361755,846.288269 
	C609.334106,828.730408 639.882751,803.835815 660.477417,767.873779 
	C677.207703,738.659363 684.710632,706.873108 686.192688,673.484985 
	C686.380615,669.251221 686.218445,665.001892 686.218445,660.577515 
	C624.008667,660.577515 562.222839,660.577515 500.288116,660.577515 
	C498.841400,667.672729 497.695465,674.725464 495.946533,681.625366 
	C487.818939,713.690369 469.271393,736.645142 437.375122,747.619751 
	C424.201721,752.152283 410.537537,753.993835 396.647675,754.328674 
	C344.874420,755.577087 304.843872,735.595093 279.681519,689.200317 
	C261.840851,656.305237 255.471329,620.401245 253.027740,583.592896 
	C251.115631,554.791016 251.924377,526.019714 254.941406,497.319641 
	C257.858582,469.569305 263.253662,442.368561 274.151947,416.532715 
	C285.405304,389.855011 301.362091,366.678925 327.088959,352.123749 
	C361.420441,332.700409 397.920624,330.525391 435.173737,341.922394 
	C460.793823,349.760468 479.166138,366.617310 489.323578,391.470520 
	C493.620514,401.984314 496.026367,413.271027 499.385223,424.519470 
	C559.953064,424.519470 621.343811,424.519470 682.731689,424.519470 
	C682.936157,387.416016 674.084167,346.851776 647.479431,309.024963 
M857.499756,374.613129 
	C932.093445,374.613129 1006.687134,374.613129 1082.131592,374.613129 
	C996.345764,539.404602 910.968811,703.410583 825.388000,867.808411 
	C827.005676,867.912964 827.667786,867.993225 828.329895,867.993286 
	C892.819214,867.999756 957.308533,867.974121 1021.797668,868.080933 
	C1024.873291,868.086060 1026.058594,866.837158 1027.244507,864.325623 
	C1103.828857,702.143188 1180.480591,539.992615 1257.036499,377.796814 
	C1258.257202,375.210419 1258.910278,372.103058 1258.919312,369.235992 
	C1259.040894,330.576111 1259.000732,291.915741 1259.000732,253.255478 
	C1259.000732,251.639099 1259.000732,250.022720 1259.000732,248.251343 
	C1094.303101,248.251343 930.091370,248.251343 765.754089,248.251343 
	C765.754089,290.386444 765.754089,332.268402 765.754089,374.613098 
	C796.245850,374.613098 826.372803,374.613098 857.499756,374.613129 
z"/>
<path fill="#FEFFFF" opacity="1.000000" stroke="none" 
	d="
M647.692810,309.314209 
	C674.084167,346.851776 682.936157,387.416016 682.731689,424.519470 
	C621.343811,424.519470 559.953064,424.519470 499.385223,424.519470 
	C496.026367,413.271027 493.620514,401.984314 489.323578,391.470520 
	C479.166138,366.617310 460.793823,349.760468 435.173737,341.922394 
	C397.920624,330.525391 361.420441,332.700409 327.088959,352.123749 
	C301.362091,366.678925 285.405304,389.855011 274.151947,416.532715 
	C263.253662,442.368561 257.858582,469.569305 254.941406,497.319641 
	C251.924377,526.019714 251.115631,554.791016 253.027740,583.592896 
	C255.471329,620.401245 261.840851,656.305237 279.681519,689.200317 
	C304.843872,735.595093 344.874420,755.577087 396.647675,754.328674 
	C410.537537,753.993835 424.201721,752.152283 437.375122,747.619751 
	C469.271393,736.645142 487.818939,713.690369 495.946533,681.625366 
	C497.695465,674.725464 498.841400,667.672729 500.288116,660.577515 
	C562.222839,660.577515 624.008667,660.577515 686.218445,660.577515 
	C686.218445,665.001892 686.380615,669.251221 686.192688,673.484985 
	C684.710632,706.873108 677.207703,738.659363 660.477417,767.873779 
	C639.882751,803.835815 609.334106,828.730408 572.361755,846.288269 
	C537.891602,862.657898 501.291962,871.294861 463.605072,876.068420 
	C432.453552,880.014160 401.197174,880.994141 369.890137,879.544800 
	C322.524292,877.352173 276.414185,868.990295 232.447739,850.444458 
	C167.459824,823.031372 123.426231,775.186096 96.168343,711.002991 
	C81.088310,675.494568 72.745567,638.279175 68.933220,599.971863 
	C64.691338,557.348389 65.439064,514.832520 72.039330,472.499054 
	C82.292336,406.737213 106.753136,347.476532 152.334946,297.890961 
	C192.751556,253.924225 242.817520,227.612213 301.015869,216.083206 
	C347.277954,206.918732 393.955902,206.234177 440.794403,209.779816 
	C480.020569,212.749207 518.242493,220.279541 554.599304,235.804291 
	C592.141968,251.835403 623.800903,275.381744 647.692810,309.314209 
z"/>
<path fill="#FEFFFF" opacity="1.000000" stroke="none" 
	d="
M856.999756,374.613098 
	C826.372803,374.613098 796.245850,374.613098 765.754089,374.613098 
	C765.754089,332.268402 765.754089,290.386444 765.754089,248.251343 
	C930.091370,248.251343 1094.303101,248.251343 1259.000732,248.251343 
	C1259.000732,250.022720 1259.000732,251.639099 1259.000732,253.255478 
	C1259.000732,291.915741 1259.040894,330.576111 1258.919312,369.235992 
	C1258.910278,372.103058 1258.257202,375.210419 1257.036499,377.796814 
	C1180.480591,539.992615 1103.828857,702.143188 1027.244507,864.325623 
	C1026.058594,866.837158 1024.873291,868.086060 1021.797668,868.080933 
	C957.308533,867.974121 892.819214,867.999756 828.329895,867.993286 
	C827.667786,867.993225 827.005676,867.912964 825.388000,867.808411 
	C910.968811,703.410583 996.345764,539.404602 1082.131592,374.613129 
	C1006.687134,374.613129 932.093445,374.613129 856.999756,374.613098 
z"/>
</svg>