<?xml version="1.0" encoding="UTF-8"?><svg id="a" xmlns="http://www.w3.org/2000/svg" viewBox="0 0 11.34 9.15"><defs><style>.b{fill:#fff;}.c{fill:#e30613;}</style></defs><rect class="c" width="11.34" height="9.15"/><g><path class="b" d="M4.23,3.36c-.07-.53-.44-.73-.85-.73-.88,0-1.15,.81-1.15,1.77,0,.32,0,1.65,1.14,1.65,.77,0,.85-.56,.88-.77h1.52c0,1.65-1.68,1.79-2.37,1.79-.51,0-1.42-.09-2-.7-.58-.61-.68-1.45-.68-2,0-.72,.17-1.44,.66-2.01,.54-.61,1.23-.77,2-.77,.85,0,1.5,.2,1.92,.64,.42,.45,.43,.93,.44,1.12h-1.5Z"/><path class="b" d="M6.33,5.92c1.15-.85,2.12-1.58,2.49-2.11,.09-.15,.18-.34,.18-.58,0-.45-.36-.51-.55-.51-.55,0-.58,.45-.6,.59h-1.42c0-.16,.01-.55,.36-.98,.43-.52,1.3-.58,1.73-.58,.77,0,1.33,.2,1.66,.62,.19,.24,.27,.53,.27,.82,0,1.05-.99,1.77-2.39,2.77h2.41v1.01H6.33v-1.05Z"/></g></svg>