<svg version="1.1" id="Layer_1" xmlns="http://www.w3.org/2000/svg" xmlns:xlink="http://www.w3.org/1999/xlink" x="0px" y="0px"
	 width="100%" viewBox="0 0 1393 1085" enable-background="new 0 0 1393 1088" xml:space="preserve">
<path fill="#009EE3" opacity="1.000000" stroke="none" 
	d="
M1.000000,1088.000000 
	C1.000000,725.726501 1.000000,363.453033 1.000000,1.000000 
	C449.699371,1.000000 898.398743,1.000000 1347.549072,1.466985 
	C1348.000000,363.851898 1348.000000,725.769836 1348.000000,1088.000000 
	C898.582886,1088.000000 449.791443,1088.000000 1.000000,1088.000000 
M129.228271,421.824036 
	C118.520699,458.885742 113.391571,496.800812 112.559563,535.280457 
	C111.882668,566.586304 113.646393,597.748840 118.868385,628.722656 
	C125.791634,669.787354 138.296951,708.823364 159.203598,744.973633 
	C185.814346,790.987061 223.058807,825.232117 271.617798,847.275513 
	C319.262665,868.903931 369.629150,877.757324 421.401825,879.753296 
	C461.544373,881.300903 501.497345,878.827209 541.013855,871.002991 
	C574.563660,864.360107 606.782959,853.971802 636.465881,836.687683 
	C670.058655,817.127014 696.348022,790.597168 713.057312,755.115723 
	C724.225281,731.401062 729.819214,706.277161 731.816772,680.290955 
	C732.307617,673.904846 731.889954,667.448853 731.889954,660.749023 
	C670.089600,660.749023 608.320557,660.749023 546.360779,660.749023 
	C544.902527,667.867981 543.757996,675.068237 541.932556,682.091553 
	C533.376343,715.010803 514.040955,738.329102 480.872070,748.440552 
	C455.061401,756.308777 428.765350,756.639038 402.592194,750.389282 
	C362.259552,740.758423 336.358948,714.360535 319.826599,677.541443 
	C304.100891,642.518982 299.320404,605.249084 298.136292,567.414856 
	C297.240570,538.795044 298.672363,510.227844 302.862274,481.829681 
	C306.410889,457.778107 311.970184,434.307648 322.034424,412.089508 
	C336.273468,380.654846 357.364349,355.770874 390.662201,343.651398 
	C420.415741,332.821991 450.735107,332.132660 481.011871,341.710358 
	C503.181458,348.723480 520.143921,362.437439 531.450134,382.872803 
	C538.600586,395.796753 542.198914,409.873474 544.327759,424.531982 
	C605.887146,424.531982 667.276611,424.531982 729.573853,424.531982 
	C728.375732,412.916016 727.583313,401.661469 725.999329,390.519501 
	C720.352356,350.799316 703.037842,316.636078 675.785400,287.438660 
	C647.750427,257.402832 612.953979,238.387650 574.199280,226.071823 
	C539.319702,214.987457 503.384766,210.000336 466.945526,208.517624 
	C423.959656,206.768524 381.213013,208.424591 338.995728,217.912903 
	C285.374725,229.964188 239.144333,254.930161 201.194885,294.974426 
	C166.917114,331.144379 143.724976,373.532776 129.228271,421.824036 
M1094.500000,244.999664 
	C1079.833862,244.999664 1065.164551,244.840515 1050.504395,245.137741 
	C1047.668823,245.195251 1044.290771,246.349976 1042.143066,248.160950 
	C1020.518311,266.395081 998.318604,283.816681 974.182251,298.670868 
	C942.175415,318.368835 907.426392,331.700378 871.746765,342.837646 
	C867.815186,344.064850 866.343140,345.660065 866.362000,349.983948 
	C866.547424,392.481598 866.473877,434.980438 866.473877,477.478912 
	C866.473877,479.209290 866.473938,480.939667 866.473938,483.422119 
	C921.473877,465.463043 972.318970,441.640625 1018.274475,406.095062 
	C1018.274475,560.683289 1018.274475,714.249939 1018.274475,867.747559 
	C1076.025879,867.747559 1133.295532,867.747559 1190.702026,867.747559 
	C1190.702026,660.111389 1190.702026,452.727997 1190.702026,244.999664 
	C1158.770020,244.999664 1127.135010,244.999664 1094.500000,244.999664 
z"/>
<path fill="#FEFFFF" opacity="1.000000" stroke="none" 
	d="
M129.394333,421.455933 
	C143.724976,373.532776 166.917114,331.144379 201.194885,294.974426 
	C239.144333,254.930161 285.374725,229.964188 338.995728,217.912903 
	C381.213013,208.424591 423.959656,206.768524 466.945526,208.517624 
	C503.384766,210.000336 539.319702,214.987457 574.199280,226.071823 
	C612.953979,238.387650 647.750427,257.402832 675.785400,287.438660 
	C703.037842,316.636078 720.352356,350.799316 725.999329,390.519501 
	C727.583313,401.661469 728.375732,412.916016 729.573853,424.531982 
	C667.276611,424.531982 605.887146,424.531982 544.327759,424.531982 
	C542.198914,409.873474 538.600586,395.796753 531.450134,382.872803 
	C520.143921,362.437439 503.181458,348.723480 481.011871,341.710358 
	C450.735107,332.132660 420.415741,332.821991 390.662201,343.651398 
	C357.364349,355.770874 336.273468,380.654846 322.034424,412.089508 
	C311.970184,434.307648 306.410889,457.778107 302.862274,481.829681 
	C298.672363,510.227844 297.240570,538.795044 298.136292,567.414856 
	C299.320404,605.249084 304.100891,642.518982 319.826599,677.541443 
	C336.358948,714.360535 362.259552,740.758423 402.592194,750.389282 
	C428.765350,756.639038 455.061401,756.308777 480.872070,748.440552 
	C514.040955,738.329102 533.376343,715.010803 541.932556,682.091553 
	C543.757996,675.068237 544.902527,667.867981 546.360779,660.749023 
	C608.320557,660.749023 670.089600,660.749023 731.889954,660.749023 
	C731.889954,667.448853 732.307617,673.904846 731.816772,680.290955 
	C729.819214,706.277161 724.225281,731.401062 713.057312,755.115723 
	C696.348022,790.597168 670.058655,817.127014 636.465881,836.687683 
	C606.782959,853.971802 574.563660,864.360107 541.013855,871.002991 
	C501.497345,878.827209 461.544373,881.300903 421.401825,879.753296 
	C369.629150,877.757324 319.262665,868.903931 271.617798,847.275513 
	C223.058807,825.232117 185.814346,790.987061 159.203598,744.973633 
	C138.296951,708.823364 125.791634,669.787354 118.868385,628.722656 
	C113.646393,597.748840 111.882668,566.586304 112.559563,535.280457 
	C113.391571,496.800812 118.520699,458.885742 129.394333,421.455933 
z"/>
<path fill="#FFFFFF" opacity="1.000000" stroke="none" 
	d="
M1095.000000,244.999664 
	C1127.135010,244.999664 1158.770020,244.999664 1190.702026,244.999664 
	C1190.702026,452.727997 1190.702026,660.111389 1190.702026,867.747559 
	C1133.295532,867.747559 1076.025879,867.747559 1018.274475,867.747559 
	C1018.274475,714.249939 1018.274475,560.683289 1018.274475,406.095062 
	C972.318970,441.640625 921.473877,465.463043 866.473938,483.422119 
	C866.473938,480.939667 866.473877,479.209290 866.473877,477.478912 
	C866.473877,434.980438 866.547424,392.481598 866.362000,349.983948 
	C866.343140,345.660065 867.815186,344.064850 871.746765,342.837646 
	C907.426392,331.700378 942.175415,318.368835 974.182251,298.670868 
	C998.318604,283.816681 1020.518311,266.395081 1042.143066,248.160950 
	C1044.290771,246.349976 1047.668823,245.195251 1050.504395,245.137741 
	C1065.164551,244.840515 1079.833862,244.999664 1095.000000,244.999664 
z"/>
</svg>