<?xml version="1.0" encoding="UTF-8"?><svg id="a" xmlns="http://www.w3.org/2000/svg" viewBox="0 0 11.34 9.15"><defs><style>.b{fill:#95c11f;}.c{fill:#1d1d1b;}</style></defs><rect class="b" width="11.34" height="9.15"/><g><path class="c" d="M2.82,3.21c-.39,.32-.99,.56-1.23,.63v-1.12c.58-.18,.92-.34,1.46-.81h1.18V6.97h-1.41V3.21Z"/><path class="c" d="M6.49,2.42c.44-.54,1.09-.65,1.55-.65,.96,0,1.39,.38,1.61,.66,.34,.4,.6,.98,.6,1.98,0,1.45-.57,2.66-2.19,2.66-.58,0-1.17-.18-1.55-.61-.55-.63-.63-1.54-.63-2.04s.08-1.37,.61-2Zm1.57,3.69c.23,0,.45-.11,.56-.3,.22-.39,.22-1.23,.22-1.34,0-.25-.02-.85-.12-1.22-.05-.18-.17-.52-.63-.52-.41,0-.77,.17-.77,1.71,0,1.08,.15,1.67,.74,1.67Z"/></g></svg>