<svg version="1.1" id="Layer_1" xmlns="http://www.w3.org/2000/svg" xmlns:xlink="http://www.w3.org/1999/xlink" x="0px" y="0px"
	 width="100%" viewBox="0 0 1347 1085" enable-background="new 0 0 1347 1088" xml:space="preserve">
<path fill="#E5007D" opacity="1.000000" stroke="none" 
	d="
M1.000000,1089.000000 
	C1.000000,726.374695 1.000000,363.749420 1.000000,1.062061 
	C449.907379,1.062061 898.814758,1.062061 1348.000000,1.062061 
	C1348.000000,363.365997 1348.000000,725.732056 1347.549072,1088.549072 
	C898.398743,1089.000122 449.699371,1089.000000 1.000000,1089.000000 
M253.656570,590.830750 
	C253.483490,589.342407 253.236740,587.858459 253.148071,586.365112 
	C250.911133,548.689148 251.959991,511.129730 258.158783,473.858551 
	C262.629303,446.978790 270.024811,420.964874 283.797699,397.142731 
	C296.628387,374.950195 313.781006,357.307709 337.448486,346.666290 
	C362.328400,335.479675 388.404724,333.563812 415.132843,336.962616 
	C454.841095,342.012054 483.680847,366.887482 494.200928,405.375397 
	C495.936981,411.726685 497.131989,418.225861 498.567505,424.614288 
	C560.054993,424.614288 621.314209,424.614288 682.717712,424.614288 
	C682.825317,423.722961 682.979248,423.086151 682.967590,422.452393 
	C682.360107,389.521362 675.701355,358.066010 659.848206,328.920410 
	C635.318787,283.823486 597.861267,253.486847 550.916382,234.200836 
	C515.964111,219.841644 479.327545,212.669342 441.801208,209.809998 
	C394.472168,206.203720 347.286530,206.806427 300.533783,216.129669 
	C238.356018,228.528915 185.978378,257.851715 144.697723,306.432037 
	C100.644585,358.275085 78.502625,419.197937 70.124947,485.799530 
	C65.328087,523.934021 65.039009,562.155273 68.942993,600.416260 
	C72.729988,637.530640 80.699997,673.622009 94.970818,708.174072 
	C122.096161,773.849182 166.575623,822.785767 232.810608,850.665222 
	C276.611938,869.101868 322.587921,877.440552 369.776062,879.579773 
	C401.072815,880.998535 432.334534,880.081665 463.491455,876.113647 
	C495.642273,872.019165 527.054993,865.131531 557.178833,852.987915 
	C590.726562,839.464172 620.473022,820.444885 643.694702,792.221741 
	C670.715515,759.381409 683.004578,720.990540 685.945435,679.142029 
	C686.372009,673.070984 686.501892,666.979065 686.782104,660.601074 
	C624.090881,660.601074 562.187927,660.601074 500.246399,660.601074 
	C498.807922,667.678162 497.682587,674.572937 495.986969,681.324402 
	C488.135376,712.587463 470.396881,735.457581 439.486572,746.824768 
	C425.767975,751.869751 411.479462,753.870605 396.901825,754.263000 
	C342.589111,755.724915 301.959351,733.628296 277.241608,684.518127 
	C262.576874,655.381714 256.368378,623.993347 253.656570,590.830750 
M964.259033,582.780701 
	C977.103943,567.976318 993.739990,560.952087 1012.908569,559.510864 
	C1050.414307,556.690918 1081.650391,572.199463 1094.034058,611.184082 
	C1105.230713,646.432190 1103.156250,681.629761 1089.524048,715.766602 
	C1080.911011,737.334961 1064.951050,752.018799 1041.949829,757.723999 
	C1024.377441,762.082642 1006.655823,762.130676 989.112427,757.220520 
	C963.628723,750.088135 947.591736,733.662048 941.443665,707.880005 
	C940.105103,702.266846 939.592163,696.456726 938.679504,690.612915 
	C881.785767,690.612915 825.029968,690.612915 768.000793,690.612915 
	C768.000793,693.349792 767.935791,695.806091 768.010864,698.257996 
	C768.820618,724.706543 774.046265,750.090271 786.469604,773.686584 
	C807.730103,814.067993 841.092224,840.489441 882.993469,856.904114 
	C925.199646,873.438232 969.295471,879.908020 1014.340332,880.978699 
	C1050.799194,881.845398 1086.877319,878.985962 1122.097656,868.853699 
	C1182.384033,851.510498 1227.529053,815.836060 1253.291748,757.974548 
	C1277.645020,703.279053 1281.990845,646.235596 1269.209106,587.996094 
	C1259.678101,544.568726 1238.100952,508.356781 1202.143311,481.309265 
	C1147.555176,440.247681 1058.455200,431.053955 996.100769,464.433075 
	C972.336914,477.154175 952.198792,493.202667 938.264160,516.502563 
	C937.802856,517.273804 937.253479,517.992371 936.745178,518.735535 
	C936.433838,518.632812 936.122498,518.530029 935.811218,518.427307 
	C939.302002,468.425171 942.792847,418.423065 946.318665,367.918823 
	C1043.824341,367.918823 1140.886230,367.918823 1237.875244,367.918823 
	C1237.875244,327.005188 1237.875244,286.628174 1237.875244,246.365784 
	C1088.426758,246.365784 939.369690,246.365784 790.062378,246.365784 
	C785.885925,368.426880 781.721741,490.130310 777.537231,612.427063 
	C835.389221,613.008606 892.470398,613.582458 949.701172,614.157776 
	C952.110596,602.537781 956.278564,592.150391 964.259033,582.780701 
z"/>
<path fill="#FFFEFF" opacity="1.000000" stroke="none" 
	d="
M253.688400,591.292725 
	C256.368378,623.993347 262.576874,655.381714 277.241608,684.518127 
	C301.959351,733.628296 342.589111,755.724915 396.901825,754.263000 
	C411.479462,753.870605 425.767975,751.869751 439.486572,746.824768 
	C470.396881,735.457581 488.135376,712.587463 495.986969,681.324402 
	C497.682587,674.572937 498.807922,667.678162 500.246399,660.601074 
	C562.187927,660.601074 624.090881,660.601074 686.782104,660.601074 
	C686.501892,666.979065 686.372009,673.070984 685.945435,679.142029 
	C683.004578,720.990540 670.715515,759.381409 643.694702,792.221741 
	C620.473022,820.444885 590.726562,839.464172 557.178833,852.987915 
	C527.054993,865.131531 495.642273,872.019165 463.491455,876.113647 
	C432.334534,880.081665 401.072815,880.998535 369.776062,879.579773 
	C322.587921,877.440552 276.611938,869.101868 232.810608,850.665222 
	C166.575623,822.785767 122.096161,773.849182 94.970818,708.174072 
	C80.699997,673.622009 72.729988,637.530640 68.942993,600.416260 
	C65.039009,562.155273 65.328087,523.934021 70.124947,485.799530 
	C78.502625,419.197937 100.644585,358.275085 144.697723,306.432037 
	C185.978378,257.851715 238.356018,228.528915 300.533783,216.129669 
	C347.286530,206.806427 394.472168,206.203720 441.801208,209.809998 
	C479.327545,212.669342 515.964111,219.841644 550.916382,234.200836 
	C597.861267,253.486847 635.318787,283.823486 659.848206,328.920410 
	C675.701355,358.066010 682.360107,389.521362 682.967590,422.452393 
	C682.979248,423.086151 682.825317,423.722961 682.717712,424.614288 
	C621.314209,424.614288 560.054993,424.614288 498.567505,424.614288 
	C497.131989,418.225861 495.936981,411.726685 494.200928,405.375397 
	C483.680847,366.887482 454.841095,342.012054 415.132843,336.962616 
	C388.404724,333.563812 362.328400,335.479675 337.448486,346.666290 
	C313.781006,357.307709 296.628387,374.950195 283.797699,397.142731 
	C270.024811,420.964874 262.629303,446.978790 258.158783,473.858551 
	C251.959991,511.129730 250.911133,548.689148 253.148071,586.365112 
	C253.236740,587.858459 253.483490,589.342407 253.688400,591.292725 
z"/>
<path fill="#FFFFFF" opacity="1.000000" stroke="none" 
	d="
M964.052856,583.073120 
	C956.278564,592.150391 952.110596,602.537781 949.701172,614.157776 
	C892.470398,613.582458 835.389221,613.008606 777.537231,612.427063 
	C781.721741,490.130310 785.885925,368.426880 790.062378,246.365784 
	C939.369690,246.365784 1088.426758,246.365784 1237.875244,246.365784 
	C1237.875244,286.628174 1237.875244,327.005188 1237.875244,367.918823 
	C1140.886230,367.918823 1043.824341,367.918823 946.318665,367.918823 
	C942.792847,418.423065 939.302002,468.425171 935.811218,518.427307 
	C936.122498,518.530029 936.433838,518.632812 936.745178,518.735535 
	C937.253479,517.992371 937.802856,517.273804 938.264160,516.502563 
	C952.198792,493.202667 972.336914,477.154175 996.100769,464.433075 
	C1058.455200,431.053955 1147.555176,440.247681 1202.143311,481.309265 
	C1238.100952,508.356781 1259.678101,544.568726 1269.209106,587.996094 
	C1281.990845,646.235596 1277.645020,703.279053 1253.291748,757.974548 
	C1227.529053,815.836060 1182.384033,851.510498 1122.097656,868.853699 
	C1086.877319,878.985962 1050.799194,881.845398 1014.340332,880.978699 
	C969.295471,879.908020 925.199646,873.438232 882.993469,856.904114 
	C841.092224,840.489441 807.730103,814.067993 786.469604,773.686584 
	C774.046265,750.090271 768.820618,724.706543 768.010864,698.257996 
	C767.935791,695.806091 768.000793,693.349792 768.000793,690.612915 
	C825.029968,690.612915 881.785767,690.612915 938.679504,690.612915 
	C939.592163,696.456726 940.105103,702.266846 941.443665,707.880005 
	C947.591736,733.662048 963.628723,750.088135 989.112427,757.220520 
	C1006.655823,762.130676 1024.377441,762.082642 1041.949829,757.723999 
	C1064.951050,752.018799 1080.911011,737.334961 1089.524048,715.766602 
	C1103.156250,681.629761 1105.230713,646.432190 1094.034058,611.184082 
	C1081.650391,572.199463 1050.414307,556.690918 1012.908569,559.510864 
	C993.739990,560.952087 977.103943,567.976318 964.052856,583.073120 
z"/>
</svg>