<svg version="1.1" id="Layer_1" xmlns="http://www.w3.org/2000/svg" xmlns:xlink="http://www.w3.org/1999/xlink" x="0px" y="0px"
	 width="100%" viewBox="0 0 1348 1085" enable-background="new 0 0 1348 1088" xml:space="preserve">
<path fill="#FFE500" opacity="1.000000" stroke="none" 
	d="
M1.000000,1089.000000 
	C1.000000,726.374695 1.000000,363.749359 1.000000,1.062029 
	C450.240753,1.062029 899.481506,1.062029 1349.000000,1.062029 
	C1349.000000,363.365997 1349.000000,725.732056 1348.549072,1088.549072 
	C899.065430,1089.000122 450.032715,1089.000000 1.000000,1089.000000 
M464.485138,734.018188 
	C461.008881,736.297729 457.674011,738.837708 454.033173,740.814026 
	C432.270447,752.627014 408.703491,755.494568 384.429321,754.298157 
	C335.268127,751.875305 299.938232,728.247864 277.993378,684.367981 
	C262.768768,653.925476 256.569580,621.193054 254.168732,587.625916 
	C251.751404,553.828369 252.618195,520.065125 257.096008,486.450623 
	C261.048798,456.777374 268.005249,427.931976 282.247131,401.311218 
	C296.114471,375.390533 315.584656,355.220337 343.404144,344.359558 
	C369.875580,334.025055 397.256378,332.456238 424.872681,338.479248 
	C455.392822,345.135590 478.271576,362.113068 490.477203,391.407135 
	C494.832794,401.860718 497.146210,413.165161 500.448151,424.270874 
	C561.055420,424.270874 622.422302,424.270874 683.999756,424.270874 
	C683.688538,419.219482 683.384094,414.581818 683.120056,409.941864 
	C681.270752,377.448120 672.293518,347.141357 655.147949,319.390564 
	C629.569275,277.990509 592.776245,250.410385 547.959717,232.827225 
	C512.952820,219.092773 476.432343,212.434036 439.075134,209.691940 
	C393.566650,206.351547 348.251221,207.309845 303.316406,215.963242 
	C234.220230,229.269577 177.878906,263.377380 135.276337,319.639191 
	C95.399002,372.301971 76.415352,432.703186 70.002541,497.614288 
	C66.407448,534.004272 66.626595,570.417114 70.817757,606.782898 
	C75.146309,644.340759 83.826492,680.783508 99.233826,715.396423 
	C120.579308,763.349548 151.534409,803.355835 196.776413,831.225281 
	C244.044342,860.342651 296.310211,873.159180 350.930695,878.057373 
	C388.360718,881.413879 425.745117,880.601562 463.052155,876.108582 
	C499.732513,871.691101 535.417297,863.428955 569.194580,848.089661 
	C604.292358,832.150696 634.149597,809.702332 655.625427,777.156189 
	C673.613953,749.894836 682.860229,719.601746 686.044006,687.326721 
	C686.902161,678.626648 687.105896,669.862000 687.623474,660.895142 
	C624.953186,660.895142 563.197998,660.895142 501.099121,660.895142 
	C497.194672,689.217224 488.526550,715.121765 464.485138,734.018188 
M1183.499878,400.305328 
	C1208.587402,400.305328 1233.674927,400.305328 1259.270630,400.305328 
	C1258.495972,392.843018 1257.973511,386.060211 1257.061768,379.330170 
	C1253.243408,351.145599 1243.857666,325.147797 1226.398804,302.389374 
	C1203.758301,272.876312 1173.324951,254.819412 1138.459595,243.942047 
	C1082.515015,226.488266 1025.459717,224.319778 968.149597,235.219391 
	C894.687439,249.190903 839.057251,288.755951 802.700684,354.534515 
	C778.236694,398.796356 766.351624,446.844604 761.071289,496.694672 
	C756.052490,544.075806 756.746216,591.425537 763.914673,638.594421 
	C770.470886,681.734985 783.646606,722.601868 805.131714,760.776794 
	C834.015015,812.097046 875.774719,847.580261 932.066895,865.513245 
	C971.571350,878.098267 1012.115601,881.803650 1053.347046,879.202209 
	C1092.567627,876.727722 1130.307739,868.171936 1165.906860,851.210999 
	C1213.553955,828.509827 1249.692749,794.234314 1269.721069,744.813049 
	C1288.298950,698.970642 1291.589478,651.242126 1281.854126,603.072144 
	C1268.044312,534.743591 1228.789307,486.890411 1162.784302,462.678833 
	C1119.880371,446.941010 1075.607178,445.299347 1030.939087,453.644684 
	C995.115295,460.337677 963.836914,475.918457 939.125122,503.257568 
	C932.849609,510.200317 927.325562,517.822144 921.000122,525.700012 
	C921.000122,523.459412 920.951416,521.846375 921.007385,520.237000 
	C921.701538,500.275360 921.780090,480.266907 923.273438,460.364777 
	C925.218384,434.444153 931.552307,409.521454 944.337341,386.610779 
	C963.163086,352.875031 990.129761,332.814484 1030.623047,334.963196 
	C1059.486450,336.494781 1082.855835,354.074951 1091.306152,381.725525 
	C1093.131348,387.697540 1094.117432,393.925934 1095.550415,400.305359 
	C1124.549316,400.305359 1153.524536,400.305359 1183.499878,400.305328 
z"/>
<path fill="#000000" opacity="1.000000" stroke="none" 
	d="
M464.778076,733.813599 
	C488.526550,715.121765 497.194672,689.217224 501.099121,660.895142 
	C563.197998,660.895142 624.953186,660.895142 687.623474,660.895142 
	C687.105896,669.862000 686.902161,678.626648 686.044006,687.326721 
	C682.860229,719.601746 673.613953,749.894836 655.625427,777.156189 
	C634.149597,809.702332 604.292358,832.150696 569.194580,848.089661 
	C535.417297,863.428955 499.732513,871.691101 463.052155,876.108582 
	C425.745117,880.601562 388.360718,881.413879 350.930695,878.057373 
	C296.310211,873.159180 244.044342,860.342651 196.776413,831.225281 
	C151.534409,803.355835 120.579308,763.349548 99.233826,715.396423 
	C83.826492,680.783508 75.146309,644.340759 70.817757,606.782898 
	C66.626595,570.417114 66.407448,534.004272 70.002541,497.614288 
	C76.415352,432.703186 95.399002,372.301971 135.276337,319.639191 
	C177.878906,263.377380 234.220230,229.269577 303.316406,215.963242 
	C348.251221,207.309845 393.566650,206.351547 439.075134,209.691940 
	C476.432343,212.434036 512.952820,219.092773 547.959717,232.827225 
	C592.776245,250.410385 629.569275,277.990509 655.147949,319.390564 
	C672.293518,347.141357 681.270752,377.448120 683.120056,409.941864 
	C683.384094,414.581818 683.688538,419.219482 683.999756,424.270874 
	C622.422302,424.270874 561.055420,424.270874 500.448151,424.270874 
	C497.146210,413.165161 494.832794,401.860718 490.477203,391.407135 
	C478.271576,362.113068 455.392822,345.135590 424.872681,338.479248 
	C397.256378,332.456238 369.875580,334.025055 343.404144,344.359558 
	C315.584656,355.220337 296.114471,375.390533 282.247131,401.311218 
	C268.005249,427.931976 261.048798,456.777374 257.096008,486.450623 
	C252.618195,520.065125 251.751404,553.828369 254.168732,587.625916 
	C256.569580,621.193054 262.768768,653.925476 277.993378,684.367981 
	C299.938232,728.247864 335.268127,751.875305 384.429321,754.298157 
	C408.703491,755.494568 432.270447,752.627014 454.033173,740.814026 
	C457.674011,738.837708 461.008881,736.297729 464.778076,733.813599 
z"/>
<path fill="#000000" opacity="1.000000" stroke="none" 
	d="
M1182.999756,400.305359 
	C1153.524536,400.305359 1124.549316,400.305359 1095.550415,400.305359 
	C1094.117432,393.925934 1093.131348,387.697540 1091.306152,381.725525 
	C1082.855835,354.074951 1059.486450,336.494781 1030.623047,334.963196 
	C990.129761,332.814484 963.163086,352.875031 944.337341,386.610779 
	C931.552307,409.521454 925.218384,434.444153 923.273438,460.364777 
	C921.780090,480.266907 921.701538,500.275360 921.007385,520.237000 
	C920.951416,521.846375 921.000122,523.459412 921.000122,525.700012 
	C927.325562,517.822144 932.849609,510.200317 939.125122,503.257568 
	C963.836914,475.918457 995.115295,460.337677 1030.939087,453.644684 
	C1075.607178,445.299347 1119.880371,446.941010 1162.784302,462.678833 
	C1228.789307,486.890411 1268.044312,534.743591 1281.854126,603.072144 
	C1291.589478,651.242126 1288.298950,698.970642 1269.721069,744.813049 
	C1249.692749,794.234314 1213.553955,828.509827 1165.906860,851.210999 
	C1130.307739,868.171936 1092.567627,876.727722 1053.347046,879.202209 
	C1012.115601,881.803650 971.571350,878.098267 932.066895,865.513245 
	C875.774719,847.580261 834.015015,812.097046 805.131714,760.776794 
	C783.646606,722.601868 770.470886,681.734985 763.914673,638.594421 
	C756.746216,591.425537 756.052490,544.075806 761.071289,496.694672 
	C766.351624,446.844604 778.236694,398.796356 802.700684,354.534515 
	C839.057251,288.755951 894.687439,249.190903 968.149597,235.219391 
	C1025.459717,224.319778 1082.515015,226.488266 1138.459595,243.942047 
	C1173.324951,254.819412 1203.758301,272.876312 1226.398804,302.389374 
	C1243.857666,325.147797 1253.243408,351.145599 1257.061768,379.330170 
	C1257.973511,386.060211 1258.495972,392.843018 1259.270630,400.305328 
	C1233.674927,400.305328 1208.587402,400.305328 1182.999756,400.305359 
M1035.480347,764.327698 
	C1040.443115,763.855530 1045.455933,763.682861 1050.360352,762.862122 
	C1080.492188,757.820068 1104.078247,742.924622 1117.102173,714.776062 
	C1134.459717,677.261353 1133.300293,639.184448 1116.132080,601.887573 
	C1105.371460,578.510986 1086.346558,564.451416 1061.410522,558.525513 
	C1045.525391,554.750488 1029.415405,554.433594 1013.365479,557.185181 
	C981.634644,562.625000 957.867126,579.228271 945.027466,609.150391 
	C931.148071,641.495422 930.617615,674.853638 941.800659,708.027405 
	C950.497070,733.824829 968.740601,750.587463 994.633972,759.067810 
	C1007.609985,763.317505 1020.930115,764.644226 1035.480347,764.327698 
z"/>
<path fill="#FEE401" opacity="1.000000" stroke="none" 
	d="
M1034.983887,764.328125 
	C1020.930115,764.644226 1007.609985,763.317505 994.633972,759.067810 
	C968.740601,750.587463 950.497070,733.824829 941.800659,708.027405 
	C930.617615,674.853638 931.148071,641.495422 945.027466,609.150391 
	C957.867126,579.228271 981.634644,562.625000 1013.365479,557.185181 
	C1029.415405,554.433594 1045.525391,554.750488 1061.410522,558.525513 
	C1086.346558,564.451416 1105.371460,578.510986 1116.132080,601.887573 
	C1133.300293,639.184448 1134.459717,677.261353 1117.102173,714.776062 
	C1104.078247,742.924622 1080.492188,757.820068 1050.360352,762.862122 
	C1045.455933,763.682861 1040.443115,763.855530 1034.983887,764.328125 
z"/>
</svg>