<svg version="1.1" id="Layer_1" xmlns="http://www.w3.org/2000/svg" xmlns:xlink="http://www.w3.org/1999/xlink" x="0px" y="0px"
	 width="100%" viewBox="0 0 1347 1085" enable-background="new 0 0 1347 1088" xml:space="preserve">
<path fill="#F7A823" opacity="1.000000" stroke="none" 
	d="
M1.000000,1089.000000 
	C1.000000,726.374695 1.000000,363.749420 1.000000,1.062061 
	C449.907379,1.062061 898.814758,1.062061 1348.000000,1.062061 
	C1348.000000,363.365997 1348.000000,725.732056 1347.549072,1088.549072 
	C898.398743,1089.000000 449.699371,1089.000000 1.000000,1089.000000 
M340.686340,210.158585 
	C327.520966,212.120163 314.261475,213.596542 301.206543,216.127686 
	C245.965576,226.837997 197.744980,251.126236 158.236984,291.619690 
	C112.099663,338.907806 85.924446,396.259674 74.049706,460.632568 
	C66.211349,503.124176 64.669945,545.949707 67.964684,588.988281 
	C71.096878,629.903625 79.223793,669.693359 94.862114,707.767761 
	C122.677704,775.489807 168.908875,825.076233 237.562943,852.592407 
	C279.911377,869.565430 324.138489,877.412109 369.478058,879.526367 
	C400.957886,880.994324 432.384399,880.019531 463.702423,876.054504 
	C499.212769,871.558777 533.788086,863.593628 566.589600,848.948853 
	C602.274170,833.016907 632.680115,810.490295 654.527344,777.509033 
	C674.446655,747.438171 683.611267,713.916199 685.941467,678.279785 
	C686.316833,672.539246 685.994141,666.753052 685.994141,660.697876 
	C624.067200,660.697876 562.177246,660.697876 500.264099,660.697876 
	C498.817688,667.789246 497.681122,674.684387 495.987549,681.439880 
	C487.887756,713.748718 469.180054,736.768005 437.076477,747.742371 
	C423.894104,752.248718 410.210327,754.058350 396.323608,754.361877 
	C344.756683,755.489075 304.851135,735.537048 279.749573,689.341370 
	C261.877594,656.450684 255.491302,620.545105 253.024490,583.728149 
	C251.060715,554.419067 251.885147,525.136597 255.053833,495.951019 
	C257.991760,468.890778 263.344727,442.352722 273.923431,417.098694 
	C284.702972,391.365234 299.775940,368.773621 324.025574,353.996582 
	C358.812805,332.798157 396.255859,330.238312 434.627563,341.742340 
	C462.170502,349.999878 481.089233,368.487305 490.995453,395.550812 
	C494.399536,404.850586 496.383636,414.670166 499.086212,424.506409 
	C559.937317,424.506409 621.325745,424.506409 683.750916,424.506409 
	C682.265625,411.185242 681.605042,398.177185 679.263794,385.478973 
	C668.697937,328.173370 637.468872,284.696228 588.690002,253.701080 
	C544.890076,225.869629 495.801239,214.699463 444.886566,210.071808 
	C410.476624,206.944260 376.030731,207.106461 340.686340,210.158585 
M1300.184814,743.870483 
	C1300.456787,742.468933 1300.964355,741.067627 1300.966064,739.665710 
	C1301.009766,704.504578 1301.004517,669.343323 1300.984131,634.182129 
	C1300.983398,632.920593 1300.743042,631.659119 1300.571167,629.973022 
	C1267.170288,629.973022 1234.085938,629.973022 1200.479248,629.973022 
	C1200.479248,500.777710 1200.479248,372.045532 1200.479248,243.281693 
	C1199.307129,243.150864 1198.653198,243.014084 1197.999268,243.013977 
	C1133.509277,243.002533 1069.019165,242.974289 1004.529663,243.137680 
	C1002.694153,243.142319 1000.287231,244.765823 999.113403,246.350479 
	C913.364929,362.108856 827.699951,477.929169 742.154541,593.837646 
	C740.351013,596.281372 739.143188,599.806641 739.130493,602.833557 
	C738.940552,647.992432 738.999207,693.152344 738.999207,738.312012 
	C738.999207,740.086792 738.999207,741.861572 738.999207,744.093567 
	C839.287659,744.093567 939.014832,744.093567 1039.294434,744.093567 
	C1039.294434,785.609070 1039.294434,826.661865 1039.294434,867.728271 
	C1093.266357,867.728271 1146.683594,867.728271 1200.712280,867.728271 
	C1200.712280,826.419128 1200.712280,785.377747 1200.712280,743.981506 
	C1233.959351,743.981506 1266.595337,743.981506 1300.184814,743.870483 
z"/>
<path fill="#FFFFFE" opacity="1.000000" stroke="none" 
	d="
M341.145508,210.137604 
	C376.030731,207.106461 410.476624,206.944260 444.886566,210.071808 
	C495.801239,214.699463 544.890076,225.869629 588.690002,253.701080 
	C637.468872,284.696228 668.697937,328.173370 679.263794,385.478973 
	C681.605042,398.177185 682.265625,411.185242 683.750916,424.506409 
	C621.325745,424.506409 559.937317,424.506409 499.086212,424.506409 
	C496.383636,414.670166 494.399536,404.850586 490.995453,395.550812 
	C481.089233,368.487305 462.170502,349.999878 434.627563,341.742340 
	C396.255859,330.238312 358.812805,332.798157 324.025574,353.996582 
	C299.775940,368.773621 284.702972,391.365234 273.923431,417.098694 
	C263.344727,442.352722 257.991760,468.890778 255.053833,495.951019 
	C251.885147,525.136597 251.060715,554.419067 253.024490,583.728149 
	C255.491302,620.545105 261.877594,656.450684 279.749573,689.341370 
	C304.851135,735.537048 344.756683,755.489075 396.323608,754.361877 
	C410.210327,754.058350 423.894104,752.248718 437.076477,747.742371 
	C469.180054,736.768005 487.887756,713.748718 495.987549,681.439880 
	C497.681122,674.684387 498.817688,667.789246 500.264099,660.697876 
	C562.177246,660.697876 624.067200,660.697876 685.994141,660.697876 
	C685.994141,666.753052 686.316833,672.539246 685.941467,678.279785 
	C683.611267,713.916199 674.446655,747.438171 654.527344,777.509033 
	C632.680115,810.490295 602.274170,833.016907 566.589600,848.948853 
	C533.788086,863.593628 499.212769,871.558777 463.702423,876.054504 
	C432.384399,880.019531 400.957886,880.994324 369.478058,879.526367 
	C324.138489,877.412109 279.911377,869.565430 237.562943,852.592407 
	C168.908875,825.076233 122.677704,775.489807 94.862114,707.767761 
	C79.223793,669.693359 71.096878,629.903625 67.964684,588.988281 
	C64.669945,545.949707 66.211349,503.124176 74.049706,460.632568 
	C85.924446,396.259674 112.099663,338.907806 158.236984,291.619690 
	C197.744980,251.126236 245.965576,226.837997 301.206543,216.127686 
	C314.261475,213.596542 327.520966,212.120163 341.145508,210.137604 
z"/>
<path fill="#FFFFFE" opacity="1.000000" stroke="none" 
	d="
M1299.708008,743.926025 
	C1266.595337,743.981506 1233.959351,743.981506 1200.712280,743.981506 
	C1200.712280,785.377747 1200.712280,826.419128 1200.712280,867.728271 
	C1146.683594,867.728271 1093.266357,867.728271 1039.294434,867.728271 
	C1039.294434,826.661865 1039.294434,785.609070 1039.294434,744.093567 
	C939.014832,744.093567 839.287659,744.093567 738.999207,744.093567 
	C738.999207,741.861572 738.999207,740.086792 738.999207,738.312012 
	C738.999207,693.152344 738.940552,647.992432 739.130493,602.833557 
	C739.143188,599.806641 740.351013,596.281372 742.154541,593.837646 
	C827.699951,477.929169 913.364929,362.108856 999.113403,246.350479 
	C1000.287231,244.765823 1002.694153,243.142319 1004.529663,243.137680 
	C1069.019165,242.974289 1133.509277,243.002533 1197.999268,243.013977 
	C1198.653198,243.014084 1199.307129,243.150864 1200.479248,243.281693 
	C1200.479248,372.045532 1200.479248,500.777710 1200.479248,629.973022 
	C1234.085938,629.973022 1267.170288,629.973022 1300.571167,629.973022 
	C1300.743042,631.659119 1300.983398,632.920593 1300.984131,634.182129 
	C1301.004517,669.343323 1301.009766,704.504578 1300.966064,739.665710 
	C1300.964355,741.067627 1300.456787,742.468933 1299.708008,743.926025 
M1041.999878,448.500000 
	C1041.999878,424.538605 1041.999878,400.577209 1041.999878,376.615814 
	C1041.645996,376.579803 1041.292114,376.543762 1040.938110,376.507751 
	C979.220215,460.760010 917.502258,545.012207 855.426636,629.752808 
	C918.150818,629.752808 979.962585,629.752808 1041.999878,629.752808 
	C1041.999878,569.409119 1041.999878,509.454559 1041.999878,448.500000 
z"/>
<path fill="#F39100" opacity="1.000000" stroke="none" 
	d="
M1041.999878,449.000000 
	C1041.999878,509.454559 1041.999878,569.409119 1041.999878,629.752808 
	C979.962585,629.752808 918.150818,629.752808 855.426636,629.752808 
	C917.502258,545.012207 979.220215,460.760010 1040.938110,376.507751 
	C1041.292114,376.543762 1041.645996,376.579803 1041.999878,376.615814 
	C1041.999878,400.577209 1041.999878,424.538605 1041.999878,449.000000 
z"/>
</svg>