<?xml version="1.0" encoding="UTF-8"?><svg id="Calque_1" xmlns="http://www.w3.org/2000/svg" viewBox="0 0 726.45 586.25"><defs><style>.cls-1{fill:#fff;}.cls-2{fill:#e63312;}</style></defs><rect class="cls-2" width="726.45" height="586.25"/><g><path class="cls-1" d="M129.46,173.07c2.18-.47,4.36-1.01,6.55-1.64,2.18-.62,4.28-1.32,6.31-2.1,2.02-.77,4.13-1.64,6.31-2.57,6.23-2.49,12.39-5.22,18.47-8.18,6.08-2.96,12.07-6.31,18-10.05,5.92-3.74,11.53-7.55,16.83-11.45,5.3-3.89,10.29-7.87,14.96-11.92,.31-.31,.62-.62,.94-.94,.31,0,.54-.07,.7-.23,.15-.15,.39-.39,.7-.7l77.14-.94V446.33h-92.1V210.7c-.63,.93-1.25,1.64-1.87,2.1-.63,.47-1.25,1.02-1.87,1.64-.94,.31-1.72,.7-2.34,1.17-.63,.47-1.25,1.02-1.87,1.64-.63,.31-1.25,.7-1.87,1.17-.63,.47-1.25,.86-1.87,1.17-.94,.63-1.72,1.1-2.34,1.4-.63,.31-1.25,.78-1.87,1.4-4.67,3.12-9.51,6.16-14.49,9.12-4.99,2.97-10.13,5.84-15.43,8.65-5.3,2.8-10.91,5.14-16.83,7.01-5.92,1.87-12,3.59-18.23,5.14v-78.54c1.87,0,3.89-.23,6.08-.7Z"/><path class="cls-1" d="M414.17,173.07c2.18-.47,4.36-1.01,6.55-1.64,2.18-.62,4.28-1.32,6.31-2.1,2.02-.77,4.13-1.64,6.31-2.57,6.23-2.49,12.39-5.22,18.47-8.18,6.08-2.96,12.07-6.31,18-10.05,5.92-3.74,11.53-7.55,16.83-11.45,5.3-3.89,10.29-7.87,14.96-11.92,.31-.31,.62-.62,.94-.94,.31,0,.54-.07,.7-.23,.15-.15,.39-.39,.7-.7l77.14-.94V446.33h-92.1V210.7c-.63,.93-1.25,1.64-1.87,2.1-.63,.47-1.25,1.02-1.87,1.64-.94,.31-1.72,.7-2.34,1.17-.63,.47-1.25,1.02-1.87,1.64-.63,.31-1.25,.7-1.87,1.17-.63,.47-1.25,.86-1.87,1.17-.94,.63-1.72,1.1-2.34,1.4-.63,.31-1.25,.78-1.87,1.4-4.67,3.12-9.51,6.16-14.49,9.12-4.99,2.97-10.13,5.84-15.43,8.65-5.3,2.8-10.91,5.14-16.83,7.01-5.92,1.87-12,3.59-18.23,5.14v-78.54c1.87,0,3.89-.23,6.08-.7Z"/></g></svg>