<?xml version="1.0" encoding="UTF-8"?><svg id="a" xmlns="http://www.w3.org/2000/svg" viewBox="0 0 51.04 41.19"><defs><style>.b{fill:#000;}.c{fill:#bebd00;}</style></defs><rect class="c" width="51.04" height="41.19"/><path class="b" d="M18.52,26.2c.99,.66,2.6,1.22,4.83,1.22,4.07,0,5.32-2.69,5.35-6.73h-.07c-1.08,1.54-2.66,2.33-4.96,2.33-4.21,0-6.86-3.12-6.86-7.23s3.55-7.75,8.61-7.75c6.54,0,8.8,5.12,8.8,10.87,0,7.03-2.53,12.84-10.12,12.84-2.33,0-4.21-.36-5.95-1.05l.36-4.5Zm6.93-14.22c-1.91,0-2.92,1.48-2.92,3.25,0,1.91,.79,3.65,2.92,3.65,2,0,2.99-1.61,2.99-3.38,0-1.87-1.02-3.52-2.99-3.52"/></svg>