<?xml version="1.0" encoding="UTF-8"?><svg id="a" xmlns="http://www.w3.org/2000/svg" viewBox="0 0 65.3 52.7"><defs><style>.b{fill:#fff;}.c{fill:#e6007e;}</style></defs><rect class="c" width="65.3" height="52.7"/><path class="b" d="M23.15,10.78h19.12v5.3h-12.4v4.88c1.09-.08,1.81-.17,2.31-.17,5.97,0,11.22,2.6,11.22,9.08,0,8.2-6.35,10.76-12.9,10.76-2.9,0-5.46-.46-7.86-1.05l.12-6.35c2.23,1.09,4.67,1.6,7.15,1.6,2.86,0,5.93-.97,5.93-4.71,0-3.28-3.4-4.29-6.52-4.29-2.14,0-4.29,.17-6.39,.72l.21-15.76Z"/></svg>