<svg xmlns="http://www.w3.org/2000/svg" id="Calque_1" data-name="Calque 1" viewBox="0 0 566.93 467.72"><defs><style>.cls-3{fill:#484f54}</style></defs><path d="M237.26 452.02c-58.27 0-113.06-22.69-154.26-63.9s-63.9-95.99-63.9-154.26V15.7h310.57c58.27 0 113.06 22.69 154.26 63.9 41.2 41.21 63.9 95.99 63.9 154.26s-22.69 113.06-63.9 154.26c-41.2 41.2-95.99 63.9-154.26 63.9h-92.41Z" style="fill:#dedc03"/><path d="M329.67 20.63c28.79 0 56.71 5.64 83 16.75 25.39 10.74 48.19 26.12 67.78 45.7 19.59 19.59 34.96 42.39 45.7 67.78 11.12 26.28 16.75 54.21 16.75 83s-5.64 56.71-16.75 83c-10.74 25.39-26.12 48.19-45.7 67.78-19.59 19.59-42.39 34.96-67.78 45.7-26.28 11.12-54.21 16.75-83 16.75h-92.41c-28.79 0-56.71-5.64-83-16.75-25.39-10.74-48.19-26.11-67.78-45.7-19.59-19.59-34.96-42.39-45.7-67.78-11.12-26.28-16.75-54.21-16.75-83V20.63h305.64m0-9.86H14.17v223.09c0 123.21 99.88 223.09 223.09 223.09h92.41c123.21 0 223.09-99.88 223.09-223.09 0-123.21-99.88-223.09-223.09-223.09Z" style="fill:#fff"/><path d="M89.1 147.41h51.28l41.78 67.79 41.78-67.79h51.28v175.11h-48.28V221.96l-44.78 68.54h-1l-44.53-68.29v100.31H89.1V147.41Z" class="cls-3"/><g id="qvv6pT"><path d="M395.16 326.48c-16.75 0-33.51-.24-50.25.09-10.1.2-17.71-6.84-20.14-15.11-2.58-8.78-4.23-17.79-6.28-26.7-3.35-14.54-6.71-29.09-9.89-43.67-1.68-7.73-.42-15.03 4.36-21.53 3.91-5.31 9.2-8.01 15.78-8.13 3.25-.06 6.52-.12 9.76.03 1.81.08 2.47-.66 2.5-2.3.12-4.94 1.1-9.74 2.54-14.43 5.07-16.47 14.54-29.59 30.29-37.28 14.72-7.19 29.66-6.87 44.17.79 13.44 7.09 22.15 18.35 27.39 32.43 2.21 5.95 3.62 12.09 3.89 18.45.07 1.6.62 2.38 2.47 2.35 3.96-.06 7.93-.25 11.88.14 7.1.7 12.01 4.62 15.42 10.6 3.38 5.91 4.13 12.31 2.66 18.85-5.05 22.57-10.22 45.11-15.4 67.64-1.64 7.12-5.28 12.86-12.12 16.13-2.38 1.14-4.87 1.68-7.54 1.68-17.17-.04-34.33-.02-51.5-.02Zm.21-100.02h-66.6c-3.33 0-4.85 1.22-5.67 4.43-.68 2.66-.3 5.29.28 7.89 3.99 17.67 7.99 35.34 12.03 52.99 1.18 5.17 2.05 10.43 3.72 15.48.91 2.76 2.74 4.51 6.17 4.5 33.33-.09 66.66-.07 99.99-.02 2.45 0 4.03-.99 5.21-2.97.71-1.18 1.1-2.48 1.4-3.8 4.57-20.08 9.16-40.15 13.69-60.24.88-3.9 2.09-7.76 1.98-11.84-.12-4.65-1.88-6.43-6.49-6.43h-65.72Zm-.24-15.05h37.28c2.05 0 2.26-.26 1.98-2.26-.2-1.46-.36-2.93-.63-4.37-2.38-12.88-8.23-23.71-19.19-31.3-7.5-5.19-15.87-7.15-24.93-5.63-10.6 1.78-18.49 7.76-24.63 16.26-5.46 7.56-8.14 16.16-9.14 25.36-.18 1.68.53 1.98 2.01 1.97 12.43-.04 24.85-.02 37.28-.02Z" class="cls-3"/><path d="M351.7 270.42c0-7.5-.06-15 .02-22.5.06-5.8 5.86-9.29 10.92-6.65 2.25 1.17 3.57 3.06 3.84 5.6.14 1.35.22 2.71.22 4.06.02 12.99.01 25.99 0 38.98 0 1.24-.08 2.48-.2 3.71-.39 4-3.6 6.95-7.44 6.9-3.98-.06-7.31-3.33-7.35-7.41-.07-7.56-.02-15.12-.02-22.68ZM401.66 270.63v22.14c0 4.35-3.16 7.67-7.31 7.74-4.12.07-7.48-3.39-7.48-7.8-.02-14.88-.02-29.76 0-44.64 0-4.5 3.19-7.69 7.53-7.65 4.25.04 7.25 3.22 7.26 7.7.01 7.5 0 15 0 22.49ZM422.02 270.29v-22.14c0-4.51 2.99-7.68 7.24-7.72 4.35-.04 7.55 3.14 7.56 7.63.02 14.94.02 29.88 0 44.81 0 4.07-2.71 7.03-6.76 7.59-3.3.45-6.85-2.02-7.82-5.39-.23-.82-.21-1.64-.21-2.46v-22.32Z" class="cls-3"/></g></svg>