<svg id="svg" version="1.1" xmlns="http://www.w3.org/2000/svg" style="display: block;" viewBox="0 0 512 512"><path d="M0 0 C168.96 0 337.92 0 512 0 C512 168.96 512 337.92 512 512 C343.04 512 174.08 512 0 512 C0 343.04 0 174.08 0 0 Z " transform="translate(0,0)" style="fill: #BA941C;"/><path d="M0 0 C1.21945312 -0.00563965 2.43890625 -0.0112793 3.6953125 -0.01708984 C14.42080049 0.06870243 24.61634265 0.95667354 34.4375 5.5 C35.11603027 5.80679688 35.79456055 6.11359375 36.49365234 6.4296875 C42.02808005 9.02415732 46.80711988 12.07982066 51.25 16.3125 C51.79785156 16.83199219 52.34570312 17.35148437 52.91015625 17.88671875 C62.48699357 28.00240625 64.67771135 39.76643211 64.46484375 53.203125 C64.02758667 64.94660079 59.63229914 76.93020086 51.25 85.3125 C48.69963654 87.22123721 46.10870378 89.03174366 43.45703125 90.796875 C41.17692908 92.26383329 41.17692908 92.26383329 39.25 94.3125 C39.85585938 94.56902344 40.46171875 94.82554687 41.0859375 95.08984375 C52.13068456 100.13644356 61.74485291 108.3288356 66.2421875 119.85546875 C70.95343846 134.684692 70.55039965 149.1206907 64.25 163.3125 C58.83319621 173.14689134 51.56525148 179.37019385 41.75 184.5 C40.85390015 184.98170654 40.85390015 184.98170654 39.93969727 185.47314453 C28.10116871 191.33410213 15.4290868 192.97054837 2.39550781 192.77905273 C0.24986328 192.74999815 -1.8933027 192.75853161 -4.0390625 192.77148438 C-23.45205736 192.74243667 -42.41349384 188.95521319 -56.97265625 175.21484375 C-61.79228558 170.10693753 -65.08482231 164.79372756 -67.75 158.3125 C-68.0696875 157.56742188 -68.389375 156.82234375 -68.71875 156.0546875 C-73.10704649 144.06813689 -71.82529743 129.8295211 -66.75 118.3125 C-60.57678956 106.17398518 -51.79154134 99.25449423 -39.75 93.3125 C-40.46285156 92.9 -41.17570312 92.4875 -41.91015625 92.0625 C-53.87855961 84.84601991 -60.33486508 76.25485524 -64.89453125 62.98046875 C-67.81934817 50.43981539 -66.46759081 36.55197888 -60.0546875 25.3515625 C-51.33255516 12.46258151 -38.80945285 4.91898641 -23.75 1.4375 C-15.90672339 -0.00411774 -7.9503811 0.03513426 0 0 Z " transform="translate(406.75,154.6875)" style="fill: #FEFEFD;"/><path d="M0 0 C10.18310196 9.42316898 16.74652791 20.45725196 17.4296875 34.6015625 C17.96172147 63.48175435 3.81515421 85.25538792 -15.51171875 105.46191406 C-17.54849259 107.61707181 -19.50580824 109.84016951 -21.46875 112.0625 C-24.7080128 115.68388999 -28.0758043 119.14864383 -31.53125 122.5625 C-34.56581068 125.56352962 -37.51967127 128.55875872 -40.28125 131.8125 C-43.53305824 135.64373297 -47.0697969 139.1576114 -50.6328125 142.6953125 C-51.23649658 143.29674072 -51.84018066 143.89816895 -52.4621582 144.51782227 C-53.94238407 145.99219165 -55.42416172 147.4650028 -56.90625 148.9375 C-55.97996796 148.94114563 -55.05368591 148.94479126 -54.09933472 148.94854736 C-45.3596001 148.98645216 -36.6202377 149.04333328 -27.88076591 149.12140274 C-23.38794391 149.16087109 -18.89531771 149.19306264 -14.40234375 149.20849609 C-10.06435775 149.22366703 -5.72691008 149.25811998 -1.38916397 149.30580902 C0.26373484 149.32061838 1.91671051 149.32854076 3.56967545 149.32938385 C5.88964118 149.33175671 8.20812303 149.35885907 10.52783203 149.39160156 C11.84687531 149.40048401 13.16591858 149.40936646 14.52493286 149.41851807 C18.67963625 150.02270032 20.85454377 151.31211103 24.09375 153.9375 C26.87421812 158.91010531 26.89052975 164.3925634 26.09375 169.9375 C24.5103002 173.24834959 22.29464624 175.26351976 19.07286072 177.07168579 C14.60102222 178.3713291 10.24984739 178.23226242 5.61547852 178.22802734 C4.56124695 178.23474457 3.50701538 178.24146179 2.4208374 178.24838257 C-1.06193766 178.26737098 -4.54452015 178.27128702 -8.02734375 178.2734375 C-10.44963154 178.27986408 -12.87191856 178.28659234 -15.29420471 178.29360962 C-20.37071533 178.30558397 -25.44715789 178.3092902 -30.52368164 178.30810547 C-37.02830653 178.3079021 -43.53249538 178.33522225 -50.03701687 178.36964989 C-55.03931178 178.39188554 -60.04150113 178.39594405 -65.04384041 178.39488602 C-67.44202237 178.3972463 -69.84020706 178.40609378 -72.23834038 178.42155075 C-75.59206604 178.44114544 -78.94484306 178.43539791 -82.29858398 178.42333984 C-83.2883876 178.43457886 -84.27819122 178.44581787 -85.29798889 178.45739746 C-91.16071026 178.40383167 -94.41178447 177.78674833 -98.90625 173.9375 C-102.49323778 169.85575529 -103.4443856 165.86917399 -103.375 160.53515625 C-101.93861106 152.57516754 -95.55262391 146.19340876 -89.87109375 140.828125 C-87.94046045 138.9704182 -86.20602227 137.03818548 -84.46875 135 C-81.19494347 131.18925937 -77.67261029 127.68671835 -74.09765625 124.16015625 C-71.48523932 121.5104856 -69.07322379 118.72577197 -66.65234375 115.90234375 C-64.18021582 113.12050852 -61.52194453 110.54374049 -58.87109375 107.93359375 C-56.98394256 106.01642823 -55.21939625 104.04174678 -53.46875 102 C-50.89959729 99.00948284 -48.21307744 96.20633316 -45.40625 93.4375 C-35.456745 83.57217017 -26.52065193 72.88890445 -20.90625 59.9375 C-20.42671875 58.89916016 -20.42671875 58.89916016 -19.9375 57.83984375 C-16.81949886 50.11701685 -16.40540758 40.88258335 -18.8203125 32.92578125 C-22.39316322 25.21533889 -26.81886763 21.52513253 -34.65625 18.625 C-40.32472854 16.91127393 -45.03559768 16.42113681 -50.90625 16.9375 C-52.21980469 17.03160156 -53.53335938 17.12570313 -54.88671875 17.22265625 C-66.27288184 18.18901903 -75.41774784 20.90349856 -85.03125 27.3125 C-89.3959185 30.01410349 -92.56378353 30.69092343 -97.63671875 29.828125 C-102.21491908 28.03151626 -104.76720573 24.21558854 -106.90625 19.9375 C-107.44292751 15.53850403 -107.31868836 11.91949609 -105.59375 7.8125 C-82.18975232 -17.22433473 -26.59930182 -22.35883341 0 0 Z " transform="translate(287.90625,167.0625)" style="fill: #FEFEFD;"/><path d="M0 0 C10.18310196 9.42316898 16.74652791 20.45725196 17.4296875 34.6015625 C17.96172147 63.48175435 3.81515421 85.25538792 -15.51171875 105.46191406 C-17.54849259 107.61707181 -19.50580824 109.84016951 -21.46875 112.0625 C-24.7080128 115.68388999 -28.0758043 119.14864383 -31.53125 122.5625 C-34.56581068 125.56352962 -37.51967127 128.55875872 -40.28125 131.8125 C-43.53305824 135.64373297 -47.0697969 139.1576114 -50.6328125 142.6953125 C-51.23649658 143.29674072 -51.84018066 143.89816895 -52.4621582 144.51782227 C-53.94238407 145.99219165 -55.42416172 147.4650028 -56.90625 148.9375 C-55.97996796 148.94114563 -55.05368591 148.94479126 -54.09933472 148.94854736 C-45.3596001 148.98645216 -36.6202377 149.04333328 -27.88076591 149.12140274 C-23.38794391 149.16087109 -18.89531771 149.19306264 -14.40234375 149.20849609 C-10.06435775 149.22366703 -5.72691008 149.25811998 -1.38916397 149.30580902 C0.26373484 149.32061838 1.91671051 149.32854076 3.56967545 149.32938385 C5.88964118 149.33175671 8.20812303 149.35885907 10.52783203 149.39160156 C11.84687531 149.40048401 13.16591858 149.40936646 14.52493286 149.41851807 C18.67963625 150.02270032 20.85454377 151.31211103 24.09375 153.9375 C26.87421812 158.91010531 26.89052975 164.3925634 26.09375 169.9375 C24.5103002 173.24834959 22.29464624 175.26351976 19.07286072 177.07168579 C14.60102222 178.3713291 10.24984739 178.23226242 5.61547852 178.22802734 C4.56124695 178.23474457 3.50701538 178.24146179 2.4208374 178.24838257 C-1.06193766 178.26737098 -4.54452015 178.27128702 -8.02734375 178.2734375 C-10.44963154 178.27986408 -12.87191856 178.28659234 -15.29420471 178.29360962 C-20.37071533 178.30558397 -25.44715789 178.3092902 -30.52368164 178.30810547 C-37.02830653 178.3079021 -43.53249538 178.33522225 -50.03701687 178.36964989 C-55.03931178 178.39188554 -60.04150113 178.39594405 -65.04384041 178.39488602 C-67.44202237 178.3972463 -69.84020706 178.40609378 -72.23834038 178.42155075 C-75.59206604 178.44114544 -78.94484306 178.43539791 -82.29858398 178.42333984 C-83.2883876 178.43457886 -84.27819122 178.44581787 -85.29798889 178.45739746 C-91.16071026 178.40383167 -94.41178447 177.78674833 -98.90625 173.9375 C-102.49323778 169.85575529 -103.4443856 165.86917399 -103.375 160.53515625 C-101.93861106 152.57516754 -95.55262391 146.19340876 -89.87109375 140.828125 C-87.94046045 138.9704182 -86.20602227 137.03818548 -84.46875 135 C-81.19494347 131.18925937 -77.67261029 127.68671835 -74.09765625 124.16015625 C-71.48523932 121.5104856 -69.07322379 118.72577197 -66.65234375 115.90234375 C-64.18021582 113.12050852 -61.52194453 110.54374049 -58.87109375 107.93359375 C-56.98394256 106.01642823 -55.21939625 104.04174678 -53.46875 102 C-50.89959729 99.00948284 -48.21307744 96.20633316 -45.40625 93.4375 C-35.456745 83.57217017 -26.52065193 72.88890445 -20.90625 59.9375 C-20.42671875 58.89916016 -20.42671875 58.89916016 -19.9375 57.83984375 C-16.81949886 50.11701685 -16.40540758 40.88258335 -18.8203125 32.92578125 C-22.39316322 25.21533889 -26.81886763 21.52513253 -34.65625 18.625 C-40.32472854 16.91127393 -45.03559768 16.42113681 -50.90625 16.9375 C-52.21980469 17.03160156 -53.53335938 17.12570313 -54.88671875 17.22265625 C-66.27288184 18.18901903 -75.41774784 20.90349856 -85.03125 27.3125 C-89.3959185 30.01410349 -92.56378353 30.69092343 -97.63671875 29.828125 C-102.21491908 28.03151626 -104.76720573 24.21558854 -106.90625 19.9375 C-107.44292751 15.53850403 -107.31868836 11.91949609 -105.59375 7.8125 C-82.18975232 -17.22433473 -26.59930182 -22.35883341 0 0 Z " transform="translate(127.90625,167.0625)" style="fill: #FEFEFD;"/><path d="M0 0 C5.5983743 4.95080115 8.52712451 10.10592024 9.33984375 17.5703125 C9.56712156 26.71597156 8.93438739 34.45281382 2.5 41.5 C-8.69579085 51.35229595 -23.4630159 51.81123756 -37.59814453 51.08642578 C-46.24292189 50.34475972 -55.16372909 47.49606939 -61.0625 40.875 C-67.1087469 32.46226506 -68.54799725 24.06126688 -67.0625 13.875 C-64.46660126 5.46297372 -59.85633437 0.83778165 -52.25 -3.3125 C-36.86316647 -10.43006222 -14.02363479 -9.72458609 0 0 Z " transform="translate(435.0625,270.125)" style="fill: #BA951E;"/><path d="M0 0 C4.91831934 3.49070099 8.25348909 7.44796726 10.1875 13.25 C11.39080214 32.08858273 11.39080214 32.08858273 6.1875 38.25 C0.48885205 44.7129372 -6.35633553 48.69519554 -15.03417969 49.44091797 C-27.86881207 50.06328143 -38.38951576 49.51011202 -48.8125 41.25 C-54.52374559 35.53875441 -56.00642683 29.20537205 -56.3125 21.375 C-56.11687224 13.76181956 -54.41061851 8.0109293 -49.0859375 2.4453125 C-35.46590974 -8.82063639 -14.76642827 -9.0386975 0 0 Z " transform="translate(428.8125,186.75)" style="fill: #BA941D;"/></svg>