<svg version="1.1" id="Layer_1" xmlns="http://www.w3.org/2000/svg" xmlns:xlink="http://www.w3.org/1999/xlink" x="0px" y="0px"
	 width="100%" viewBox="0 0 962 584" enable-background="new 0 0 962 584" xml:space="preserve">
<path fill="#393469" opacity="1.000000" stroke="none" 
	d="
M619.000000,585.000000 
	C412.666656,585.000000 206.833328,585.000000 1.000000,585.000000 
	C1.000000,390.333344 1.000000,195.666672 1.000000,1.000000 
	C321.666656,1.000000 642.333313,1.000000 963.000000,1.000000 
	C963.000000,195.666672 963.000000,390.333344 963.000000,585.000000 
	C848.500000,585.000000 734.000000,585.000000 619.000000,585.000000 
M959.095764,306.541168 
	C959.095764,206.449020 959.095764,106.356865 959.095764,6.312782 
	C640.817383,6.312782 323.106842,6.312782 5.468186,6.312782 
	C5.468186,197.916000 5.468186,389.151337 5.468186,580.558838 
	C323.390961,580.558838 640.976562,580.558838 959.126343,580.558838 
	C959.126343,489.393097 959.126343,398.455322 959.081055,307.532410 
	C959.081055,307.532410 959.127930,307.546661 959.095764,306.541168 
z"/>
<path fill="#FEFEFE" opacity="1.000000" stroke="none" 
	d="
M959.126343,307.517548 
	C959.126343,398.455322 959.126343,489.393097 959.126343,580.558838 
	C640.976562,580.558838 323.390961,580.558838 5.468186,580.558838 
	C5.468186,389.151337 5.468186,197.916000 5.468186,6.312782 
	C323.106842,6.312782 640.817383,6.312782 959.095764,6.312782 
	C959.095764,106.356865 959.095764,206.449020 958.806641,307.313446 
	C946.311401,303.443268 934.312439,298.106628 921.832642,294.380585 
	C912.058228,291.462311 902.026733,291.828766 892.274109,296.777069 
	C883.515015,301.221222 882.989929,300.842346 876.254150,293.408051 
	C861.831421,277.489624 843.934753,270.813171 822.726929,272.431610 
	C821.726501,272.507965 820.757568,272.996185 818.989014,273.529144 
	C820.404541,274.618652 821.045288,275.480560 821.841858,275.663177 
	C826.033997,276.624481 830.236145,277.622559 834.489014,278.223694 
	C846.345398,279.899658 857.634033,282.440491 865.202087,293.114594 
	C868.218872,297.369476 871.163025,301.172394 866.258484,305.932709 
	C865.803467,306.374298 865.890930,307.374847 865.489502,309.183594 
	C871.555359,310.573792 877.359131,313.065979 883.082092,312.892700 
	C888.945923,312.715118 894.730713,309.928284 901.485352,308.019196 
	C898.900818,306.810150 897.489319,306.149841 895.203369,305.080475 
	C898.492920,303.792999 900.746582,302.965240 902.957397,302.035767 
	C910.210510,298.986328 917.494507,299.339905 924.910522,301.483582 
	C936.090576,304.715302 946.926697,310.026520 959.126343,307.517548 
M802.280701,195.769577 
	C800.456787,195.767975 798.632812,195.766373 795.947266,195.579346 
	C788.221680,194.878281 780.496094,194.177216 772.770569,193.476151 
	C774.067078,195.428833 775.837097,196.777786 777.792603,197.148743 
	C789.887756,199.443222 802.048523,201.392456 814.139893,203.705307 
	C823.603149,205.515472 832.482605,208.765320 840.101990,215.510529 
	C837.510315,218.328201 835.331421,220.697021 833.184814,223.030777 
	C841.284546,224.981979 848.862854,225.818390 855.570435,228.689163 
	C862.936646,231.841843 870.339233,234.339706 878.137573,233.683731 
	C888.178467,232.839081 898.124939,230.946396 908.264343,232.140015 
	C908.351868,232.150314 908.470154,231.899902 908.752869,231.549683 
	C907.828369,230.756363 906.975220,229.785248 905.917786,229.159149 
	C901.800781,226.721542 897.574280,224.467926 893.471680,222.007172 
	C887.219727,218.257263 884.337708,214.146484 889.213196,207.059174 
	C892.012573,202.989883 894.885986,198.873734 898.314514,195.351517 
	C915.907349,177.278198 931.075684,157.740906 937.480347,132.713028 
	C938.232239,129.775101 938.533020,126.721756 939.285400,122.295158 
	C936.201782,123.755768 934.209412,124.224648 932.879517,125.426598 
	C929.943909,128.079773 927.220459,130.996887 924.625732,133.992813 
	C915.029297,145.073273 905.686951,156.378464 895.921143,167.306076 
	C889.127441,174.907974 881.553894,181.814758 874.792480,189.443069 
	C870.314941,194.494781 866.865723,200.444885 862.564148,205.669998 
	C859.427551,209.480057 854.488037,210.124908 850.955872,207.097137 
	C842.296448,199.674149 831.925049,198.317978 820.609680,197.413162 
	C816.032654,197.060959 811.455627,196.708755 806.109497,196.213608 
	C805.069031,196.169434 804.028625,196.125259 802.280701,195.769577 
M263.198395,427.724731 
	C263.935547,423.973724 264.125732,420.589172 269.872681,420.598267 
	C381.839508,420.775360 493.806702,420.737823 605.773804,420.690491 
	C608.771729,420.689240 610.228027,421.239197 611.314819,424.634918 
	C618.870789,448.245026 634.710876,463.745087 658.768127,469.841705 
	C691.228149,478.067871 725.539978,458.300507 735.235657,426.035492 
	C736.627686,421.403259 738.730835,420.608002 742.940491,420.647125 
	C762.599731,420.829712 782.262085,420.653870 801.921936,420.793182 
	C805.590515,420.819153 806.842163,419.697632 806.832031,415.950104 
	C806.718384,373.796143 807.139954,331.636749 806.593811,289.489471 
	C806.261719,263.854279 796.236084,241.966110 776.696350,225.054153 
	C759.932129,210.544449 740.176208,204.204666 717.983398,204.218140 
	C532.204651,204.330902 346.425873,204.281616 160.647079,204.284576 
	C153.155518,204.284698 145.663956,204.319031 137.954132,203.928116 
	C137.259827,204.162506 136.565536,204.396881 135.036163,204.794479 
	C130.822159,205.716873 126.585907,206.548538 122.397659,207.575958 
	C87.101318,216.234512 59.672909,250.801529 59.675667,287.906647 
	C59.678810,330.199188 59.717861,372.492065 59.513962,414.783722 
	C59.490170,419.717529 61.054813,420.879089 65.771698,420.830505 
	C88.414192,420.597198 111.060448,420.714172 133.705307,420.747040 
	C136.057205,420.750458 138.204620,420.174500 139.366760,423.819397 
	C146.457520,446.058807 160.352432,461.879303 183.355713,468.575287 
	C205.610138,475.053253 225.671082,470.618652 243.584259,456.135864 
	C252.698410,448.767151 258.406921,438.921875 263.605286,429.347748 
	C263.605286,462.709747 263.605286,496.071777 263.605286,529.458374 
	C283.962585,529.458374 303.202911,529.458374 322.673035,529.458374 
	C322.673035,521.459412 322.673035,513.774475 322.673035,505.511597 
	C311.215179,505.511597 300.148376,505.511597 288.485779,505.511597 
	C288.485779,479.392120 288.485779,453.848236 288.485779,428.563354 
	C279.604187,428.563354 271.342896,428.563354 263.198395,427.724731 
M89.996590,118.540138 
	C100.734039,134.183746 111.447914,149.843674 122.248970,165.443237 
	C123.224510,166.852173 124.724052,168.859955 126.045204,168.911087 
	C134.297668,169.230453 142.568604,169.072250 150.862610,169.072250 
	C150.862610,132.675430 150.862610,96.959511 150.862610,60.983673 
	C142.106812,60.983673 133.703506,60.983673 124.629517,60.983673 
	C124.629517,81.058632 124.629517,100.881706 124.629517,121.610580 
	C123.221855,120.311546 122.498314,119.863327 122.072090,119.218559 
	C110.048721,101.029861 98.083824,82.802376 86.005867,64.650108 
	C84.981537,63.110592 83.271484,60.991821 81.817558,60.941368 
	C72.235558,60.608852 62.636436,60.769691 51.990753,60.769691 
	C53.344795,63.515934 54.026295,65.495880 55.186649,67.137321 
	C58.421333,71.713127 60.104134,76.424950 60.033215,82.308365 
	C59.707962,109.290764 59.890751,136.279282 59.891144,163.265610 
	C59.891167,165.047653 59.891148,166.829712 59.891148,168.832413 
	C68.824196,168.832413 77.217918,168.832413 86.121193,168.832413 
	C86.121193,150.695633 86.121193,132.832092 86.121193,113.629120 
	C87.885979,115.734940 88.791580,116.815544 89.996590,118.540138 
M463.220367,510.290924 
	C466.762451,515.491394 470.410004,520.624268 473.803436,525.919983 
	C475.573456,528.682190 477.572571,530.081909 481.053070,529.841492 
	C485.863007,529.509216 490.738403,529.452209 495.538849,529.847290 
	C500.221771,530.232788 501.527130,528.567566 501.492615,523.956116 
	C501.296936,497.793152 501.395996,471.627960 501.396118,445.463501 
	C501.396149,440.797241 501.566895,436.121490 501.297485,431.471039 
	C501.225342,430.225861 499.856720,428.043915 499.019989,428.013153 
	C491.596588,427.740234 484.158936,427.854492 476.053833,427.854492 
	C476.053833,447.046295 476.053833,465.542633 476.053833,484.707458 
	C474.911285,483.888702 474.438568,483.708527 474.213165,483.365753 
	C462.876465,466.126099 451.593445,448.850952 440.187317,431.657440 
	C439.169281,430.122925 437.406647,428.078156 435.922913,428.021484 
	C427.008942,427.680969 418.075348,427.852478 408.498749,427.852478 
	C409.556244,430.300446 409.917694,432.253296 411.042175,433.538605 
	C414.997742,438.059998 415.251862,443.323578 415.217010,448.954254 
	C415.063385,473.784546 415.141113,498.616302 415.155670,523.447510 
	C415.156799,525.386841 415.316620,527.326050 415.411072,529.454407 
	C423.806274,529.454407 431.706573,529.454407 440.253601,529.454407 
	C440.253601,512.315674 440.253601,495.473999 440.253601,478.632355 
	C440.650269,478.511017 441.046936,478.389679 441.443604,478.268341 
	C448.586121,488.733551 455.728638,499.198730 463.220367,510.290924 
M181.743637,163.186844 
	C181.285980,165.012177 180.828323,166.837509 180.256012,169.120193 
	C189.268448,169.120193 197.580551,169.269928 205.876923,168.976074 
	C207.296585,168.925797 209.332321,167.261047 209.906326,165.859894 
	C211.724274,161.422256 212.814789,156.689804 214.562439,152.218246 
	C215.094757,150.856262 216.823273,149.036255 218.037689,149.010376 
	C229.498657,148.766312 240.966934,148.865219 252.424393,148.865219 
	C254.459732,154.719910 256.247040,160.212936 258.325562,165.593475 
	C258.847015,166.943298 260.274323,168.901962 261.334900,168.933914 
	C270.239014,169.202103 279.154694,169.086548 288.807343,169.086548 
	C281.665375,149.495010 274.856415,130.683807 267.948730,111.908936 
	C262.119965,96.066536 256.049561,80.311356 250.407730,64.403503 
	C249.455261,61.717854 248.538742,60.628979 245.739059,60.676708 
	C238.247803,60.804417 230.744919,60.533733 223.265488,60.857048 
	C221.560349,60.930752 218.982788,62.393478 218.415909,63.845226 
	C213.485046,76.472961 208.928436,89.246674 204.246140,101.971672 
	C196.828644,122.130112 189.399963,142.284454 181.743637,163.186844 
M467.499969,169.123764 
	C477.899231,169.123764 488.298462,169.123764 498.651184,169.123764 
	C498.651184,160.242737 498.651184,152.289185 498.651184,143.931854 
	C496.640991,143.829132 494.844818,143.664597 493.048035,143.657852 
	C484.220062,143.624771 475.389923,143.726730 466.565796,143.536591 
	C465.083527,143.504669 462.424194,142.375336 462.356445,141.578918 
	C461.955505,136.864227 462.158691,132.098175 462.158691,126.753189 
	C473.920319,126.753189 484.812714,126.753189 495.690826,126.753189 
	C495.690826,118.168442 495.690826,110.213966 495.690826,101.901352 
	C493.673737,101.810318 491.870514,101.664650 490.066833,101.658615 
	C482.071655,101.631859 474.073029,101.760635 466.084320,101.531487 
	C464.737793,101.492867 462.386261,100.076118 462.290985,99.117966 
	C461.872009,94.903564 462.110199,90.623825 462.110199,85.777344 
	C474.851776,85.777344 486.744354,85.777344 498.651611,85.777344 
	C498.651611,77.221611 498.651611,69.286842 498.651611,61.099812 
	C477.568817,61.099812 456.727020,61.099812 435.772949,61.099812 
	C435.772949,97.232796 435.772949,132.974899 435.772949,169.123779 
	C446.219299,169.123779 456.359619,169.123779 467.499969,169.123764 
M368.752472,88.141136 
	C363.530182,104.353294 358.307892,120.565445 353.085602,136.777603 
	C352.710358,136.805786 352.335083,136.833969 351.959839,136.862152 
	C343.781525,111.603470 335.603210,86.344795 327.407654,61.032837 
	C317.805481,61.032837 308.388550,61.032837 298.382996,61.032837 
	C299.192291,63.671593 299.756592,65.898399 300.551361,68.039665 
	C305.445007,81.224373 310.469757,94.360847 315.300354,107.568443 
	C322.351746,126.848167 329.286621,146.170578 336.241333,165.485550 
	C337.114685,167.911102 338.353882,169.278000 341.290741,169.195923 
	C348.784668,168.986526 356.291748,168.993546 363.786255,169.191208 
	C366.633270,169.266296 367.848358,168.151749 368.739655,165.605042 
	C373.157349,152.982559 377.674011,140.393784 382.267792,127.834076 
	C390.338623,105.767944 398.490936,83.731606 406.949036,60.759571 
	C397.312317,60.759571 388.393097,60.647617 379.485352,60.915989 
	C378.488556,60.946022 377.142456,62.987080 376.663422,64.344383 
	C373.969299,71.978043 371.491150,79.687912 368.752472,88.141136 
M799.067078,123.258522 
	C799.066772,117.597763 798.910950,111.931145 799.124268,106.278450 
	C799.252930,102.868446 798.199280,101.479050 794.613525,101.604507 
	C788.128174,101.831421 781.629211,101.670425 775.135925,101.671127 
	C771.894287,101.671471 768.652710,101.671196 765.534424,101.671196 
	C765.534424,95.946655 765.534424,91.202614 765.534424,85.817108 
	C777.937866,85.817108 789.990479,85.817108 802.162231,85.817108 
	C802.162231,77.235931 802.162231,69.308258 802.162231,61.095352 
	C781.067993,61.095352 760.229309,61.095352 739.300110,61.095352 
	C739.300110,97.186241 739.300110,132.898727 739.300110,168.686371 
	C760.419312,168.686371 781.262512,168.686371 802.417603,168.686371 
	C802.417603,161.773499 802.210815,155.282043 802.495117,148.812164 
	C802.665833,144.926422 801.522400,143.493713 797.476135,143.615707 
	C788.659851,143.881500 779.830017,143.732300 771.006165,143.677322 
	C769.109985,143.665512 767.215881,143.334595 765.603027,143.178070 
	C765.603027,137.507629 765.603027,132.440338 765.603027,127.062134 
	C775.505066,127.062134 784.982178,127.085236 794.458984,127.043793 
	C796.499023,127.034874 799.112549,127.718536 799.067078,123.258522 
M539.640747,499.499573 
	C539.639709,508.161469 539.677490,516.823669 539.614746,525.485046 
	C539.595032,528.207520 540.165955,529.835815 543.473694,529.813904 
	C560.796631,529.699036 578.121399,529.817200 595.443115,529.629883 
	C596.626465,529.617065 598.758423,527.814087 598.805542,526.769531 
	C599.111755,519.985107 598.962708,513.180176 598.962708,505.562836 
	C587.255127,505.562836 576.068665,505.562836 565.001587,505.562836 
	C565.001587,500.003387 565.001587,495.283081 565.001587,490.048340 
	C575.512878,490.048340 585.612122,490.048340 596.400879,490.048340 
	C596.400879,483.589905 596.198425,477.626007 596.473694,471.684204 
	C596.650269,467.872131 595.641052,466.337769 591.522827,466.506348 
	C583.873352,466.819580 576.197998,466.714355 568.542847,466.477264 
	C567.212585,466.436066 564.905640,464.997803 564.802490,464.019958 
	C564.376221,459.978516 564.623840,455.865967 564.623840,451.461548 
	C575.272156,451.461548 585.087585,451.553284 594.897156,451.356049 
	C596.264465,451.328583 598.736816,449.930878 598.776001,449.078949 
	C599.094666,442.160583 598.955017,435.221069 598.955017,428.219971 
	C578.845947,428.219971 559.474976,428.219971 539.641174,428.219971 
	C539.641174,451.908905 539.641174,475.204224 539.640747,499.499573 
M557.500122,60.714211 
	C547.883911,60.714211 538.267700,60.714211 528.374512,60.714211 
	C528.374512,69.354561 528.374512,77.405457 528.374512,86.036697 
	C536.750183,86.036697 544.825745,86.036697 553.522095,86.036697 
	C553.522095,113.991997 553.522095,141.375153 553.522095,168.849396 
	C562.424072,168.849396 570.683960,168.849396 579.389771,168.849396 
	C579.389771,166.771271 579.389771,164.964493 579.389709,163.157715 
	C579.389038,139.500351 579.566772,115.840607 579.250061,92.187469 
	C579.179199,86.895134 580.805664,85.583168 585.755615,85.912483 
	C591.977417,86.326393 598.247681,86.012192 604.578369,86.012192 
	C604.578369,77.218170 604.578369,69.293358 604.578369,60.714188 
	C589.041870,60.714188 573.771057,60.714188 557.500122,60.714211 
M682.912659,161.411636 
	C682.912659,136.464615 682.912659,111.517578 682.912659,86.002319 
	C690.386780,86.002319 697.338989,85.887161 704.284302,86.055138 
	C707.354431,86.129387 708.425598,84.987328 708.342529,81.988342 
	C708.195007,76.659874 708.059998,71.309410 708.383972,65.996460 
	C708.637573,61.837799 707.232483,60.597469 703.062622,60.631676 
	C680.567200,60.816196 658.069519,60.712261 635.572571,60.734375 
	C634.147034,60.735775 632.721741,60.961514 631.395447,61.074444 
	C631.395447,69.570564 631.395447,77.629288 631.395447,86.167213 
	C639.873657,86.167213 647.966003,86.167213 656.731506,86.167213 
	C656.731506,114.017822 656.731506,141.385818 656.731506,168.714539 
	C665.815674,168.714539 674.205017,168.714539 682.912048,168.714539 
	C682.912048,166.337036 682.912048,164.361511 682.912659,161.411636 
M351.773041,429.654694 
	C351.773041,462.888794 351.773041,496.122864 351.773041,529.755127 
	C358.598816,529.755127 364.589081,529.449524 370.531189,529.853088 
	C375.181885,530.168945 376.475708,528.631958 376.447144,524.019226 
	C376.259247,493.696442 376.354736,463.371948 376.337280,433.048004 
	C376.336365,431.451385 376.148926,429.854889 375.997650,427.454163 
	C367.696747,427.884094 359.833984,428.291351 351.773041,429.654694 
z"/>
<path fill="#4B377B" opacity="1.000000" stroke="none" 
	d="
M959.103699,307.524963 
	C946.926697,310.026520 936.090576,304.715302 924.910522,301.483582 
	C917.494507,299.339905 910.210510,298.986328 902.957397,302.035767 
	C900.746582,302.965240 898.492920,303.792999 895.203369,305.080475 
	C897.489319,306.149841 898.900818,306.810150 901.485352,308.019196 
	C894.730713,309.928284 888.945923,312.715118 883.082092,312.892700 
	C877.359131,313.065979 871.555359,310.573792 865.489502,309.183594 
	C865.890930,307.374847 865.803467,306.374298 866.258484,305.932709 
	C871.163025,301.172394 868.218872,297.369476 865.202087,293.114594 
	C857.634033,282.440491 846.345398,279.899658 834.489014,278.223694 
	C830.236145,277.622559 826.033997,276.624481 821.841858,275.663177 
	C821.045288,275.480560 820.404541,274.618652 818.989014,273.529144 
	C820.757568,272.996185 821.726501,272.507965 822.726929,272.431610 
	C843.934753,270.813171 861.831421,277.489624 876.254150,293.408051 
	C882.989929,300.842346 883.515015,301.221222 892.274109,296.777069 
	C902.026733,291.828766 912.058228,291.462311 921.832642,294.380585 
	C934.312439,298.106628 946.311401,303.443268 958.822754,307.816193 
	C959.127930,307.546661 959.081055,307.532410 959.103699,307.524963 
z"/>
<path fill="#E79A3D" opacity="1.000000" stroke="none" 
	d="
M138.172394,204.337418 
	C145.663956,204.319031 153.155518,204.284698 160.647079,204.284576 
	C346.425873,204.281616 532.204651,204.330902 717.983398,204.218140 
	C740.176208,204.204666 759.932129,210.544449 776.696350,225.054153 
	C796.236084,241.966110 806.261719,263.854279 806.593811,289.489471 
	C807.139954,331.636749 806.718384,373.796143 806.832031,415.950104 
	C806.842163,419.697632 805.590515,420.819153 801.921936,420.793182 
	C782.262085,420.653870 762.599731,420.829712 742.940491,420.647125 
	C738.730835,420.608002 736.627686,421.403259 735.235657,426.035492 
	C725.539978,458.300507 691.228149,478.067871 658.768127,469.841705 
	C634.710876,463.745087 618.870789,448.245026 611.314819,424.634918 
	C610.228027,421.239197 608.771729,420.689240 605.773804,420.690491 
	C493.806702,420.737823 381.839508,420.775360 269.872681,420.598267 
	C264.125732,420.589172 263.935547,423.973724 263.134125,428.101318 
	C263.069855,428.477875 263.137634,428.422363 263.137634,428.422363 
	C258.406921,438.921875 252.698410,448.767151 243.584259,456.135864 
	C225.671082,470.618652 205.610138,475.053253 183.355713,468.575287 
	C160.352432,461.879303 146.457520,446.058807 139.366760,423.819397 
	C138.204620,420.174500 136.057205,420.750458 133.705307,420.747040 
	C111.060448,420.714172 88.414192,420.597198 65.771698,420.830505 
	C61.054813,420.879089 59.490170,419.717529 59.513962,414.783722 
	C59.717861,372.492065 59.678810,330.199188 59.675667,287.906647 
	C59.672909,250.801529 87.101318,216.234512 122.397659,207.575958 
	C126.585907,206.548538 130.822159,205.716873 135.847336,204.785675 
	C137.163132,204.630386 137.667770,204.483902 138.172394,204.337418 
M397.824615,369.994873 
	C413.458710,369.677734 429.139496,369.999207 444.713623,368.861267 
	C459.858795,367.754669 471.443329,359.806091 479.656250,346.913971 
	C487.596283,334.450104 488.903625,320.874786 487.196564,306.627197 
	C484.251648,282.048676 468.110504,264.822937 443.373199,262.159027 
	C428.875092,260.597687 414.126160,261.327057 399.488739,261.116302 
	C393.205231,261.025818 392.998596,261.296539 392.994537,267.524292 
	C392.978638,291.842621 392.987946,316.160919 392.988159,340.479248 
	C392.988220,348.640869 393.012024,356.802582 392.976685,364.964050 
	C392.964722,367.724976 393.355011,370.055206 397.824615,369.994873 
M241.095062,360.646271 
	C253.623169,352.644501 259.321533,340.433777 261.972412,326.440491 
	C263.767609,316.964111 262.863708,307.675171 260.304321,298.336182 
	C257.037537,286.415863 250.611633,277.012543 240.394516,270.156403 
	C230.523651,263.532593 219.460373,261.140747 207.761749,261.110565 
	C196.276794,261.080933 184.788895,261.246216 173.308151,261.023621 
	C169.196777,260.943909 167.849915,262.261871 167.867813,266.420807 
	C168.008804,299.210815 168.019745,332.001984 167.871140,364.791931 
	C167.851578,369.107605 169.477585,370.135406 173.432297,370.071564 
	C185.247177,369.880798 197.067078,370.009705 208.884995,369.995056 
	C220.258835,369.980988 231.012527,367.743530 241.095062,360.646271 
M523.045898,324.614746 
	C517.707275,339.382446 512.368713,354.150177 506.638702,370.000671 
	C515.438354,370.000671 523.202271,369.791473 530.946838,370.088013 
	C534.880981,370.238647 536.754578,368.529755 537.817871,365.108368 
	C539.051880,361.137573 540.116943,357.071686 541.843323,353.317444 
	C542.534729,351.813782 544.765442,350.117981 546.343689,350.069305 
	C555.996826,349.771179 565.664368,349.972809 575.326111,349.891693 
	C578.461914,349.865387 580.234985,351.108826 581.104858,354.182739 
	C582.233643,358.171844 583.340210,362.248413 585.189880,365.917572 
	C586.092346,367.707703 588.573242,369.646729 590.484314,369.808380 
	C596.439392,370.312195 602.463501,370.008301 608.460876,370.001160 
	C615.631775,369.992615 615.889771,369.438812 613.321411,362.680542 
	C608.131775,349.024658 603.050293,335.326874 598.028381,321.608246 
	C591.125610,302.751373 584.415649,283.822754 577.312988,265.042206 
	C576.652832,263.296753 573.855774,261.471771 571.893372,261.277893 
	C566.613831,260.756256 561.248962,261.097260 555.917969,261.097382 
	C547.251282,261.097565 547.251282,261.098083 543.996826,268.870667 
	C543.290039,270.558685 542.525330,272.225037 541.884888,273.937836 
	C535.664062,290.574677 529.464050,307.219330 523.045898,324.614746 
M686.873047,318.497131 
	C697.342346,299.768921 707.811646,281.040741 718.961853,261.094604 
	C710.483826,261.094604 703.660217,261.538666 696.923340,260.964355 
	C690.719971,260.435577 687.703003,262.928375 685.264465,268.423279 
	C681.053833,277.911591 675.975464,287.014862 670.864807,297.058655 
	C666.018127,287.571716 661.070923,279.264435 657.470642,270.409546 
	C654.540894,263.203613 650.582642,259.980133 642.629822,260.947968 
	C636.661987,261.674194 630.534912,261.091431 623.807007,261.091431 
	C624.569336,263.274689 624.793213,264.398254 625.320740,265.354279 
	C633.100037,279.451691 640.721497,293.641724 648.796997,307.568237 
	C654.478210,317.365509 658.633179,327.172455 657.347534,339.007233 
	C656.417114,347.571747 657.261902,356.320251 657.120300,364.983521 
	C657.061584,368.576660 658.332458,370.168610 662.058228,370.043335 
	C667.384705,369.864319 672.736877,369.758423 678.050049,370.081238 
	C682.552979,370.354797 684.237976,368.942505 684.102600,364.214539 
	C683.792664,353.391510 683.780579,342.546051 684.126831,331.725067 
	C684.261230,327.524689 685.688293,323.365692 686.873047,318.497131 
M336.497864,325.936798 
	C340.652893,325.935974 344.810883,325.839630 348.961975,325.966797 
	C351.887878,326.056427 353.233002,324.967285 353.178680,321.926453 
	C353.071838,315.945160 353.077087,309.959351 353.179626,303.977875 
	C353.230225,301.027283 352.058899,299.793213 349.062286,299.806458 
	C333.772064,299.874115 318.480988,299.895874 303.191193,299.789734 
	C299.775909,299.766022 298.949432,301.367340 299.016113,304.382721 
	C299.137360,309.864655 299.227997,315.359344 298.982605,320.833099 
	C298.809479,324.695007 300.087524,326.110046 304.088165,326.019440 
	C314.553528,325.782318 325.027771,325.937683 336.497864,325.936798 
z"/>
<path fill="#3F2A71" opacity="1.000000" stroke="none" 
	d="
M89.846886,118.218147 
	C88.791580,116.815544 87.885979,115.734940 86.121193,113.629120 
	C86.121193,132.832092 86.121193,150.695633 86.121193,168.832413 
	C77.217918,168.832413 68.824196,168.832413 59.891148,168.832413 
	C59.891148,166.829712 59.891167,165.047653 59.891144,163.265610 
	C59.890751,136.279282 59.707962,109.290764 60.033215,82.308365 
	C60.104134,76.424950 58.421333,71.713127 55.186649,67.137321 
	C54.026295,65.495880 53.344795,63.515934 51.990753,60.769691 
	C62.636436,60.769691 72.235558,60.608852 81.817558,60.941368 
	C83.271484,60.991821 84.981537,63.110592 86.005867,64.650108 
	C98.083824,82.802376 110.048721,101.029861 122.072090,119.218559 
	C122.498314,119.863327 123.221855,120.311546 124.629517,121.610580 
	C124.629517,100.881706 124.629517,81.058632 124.629517,60.983673 
	C133.703506,60.983673 142.106812,60.983673 150.862610,60.983673 
	C150.862610,96.959511 150.862610,132.675430 150.862610,169.072250 
	C142.568604,169.072250 134.297668,169.230453 126.045204,168.911087 
	C124.724052,168.859955 123.224510,166.852173 122.248970,165.443237 
	C111.447914,149.843674 100.734039,134.183746 89.846886,118.218147 
z"/>
<path fill="#422C73" opacity="1.000000" stroke="none" 
	d="
M463.045776,509.977417 
	C455.728638,499.198730 448.586121,488.733551 441.443604,478.268341 
	C441.046936,478.389679 440.650269,478.511017 440.253601,478.632355 
	C440.253601,495.473999 440.253601,512.315674 440.253601,529.454407 
	C431.706573,529.454407 423.806274,529.454407 415.411072,529.454407 
	C415.316620,527.326050 415.156799,525.386841 415.155670,523.447510 
	C415.141113,498.616302 415.063385,473.784546 415.217010,448.954254 
	C415.251862,443.323578 414.997742,438.059998 411.042175,433.538605 
	C409.917694,432.253296 409.556244,430.300446 408.498749,427.852478 
	C418.075348,427.852478 427.008942,427.680969 435.922913,428.021484 
	C437.406647,428.078156 439.169281,430.122925 440.187317,431.657440 
	C451.593445,448.850952 462.876465,466.126099 474.213165,483.365753 
	C474.438568,483.708527 474.911285,483.888702 476.053833,484.707458 
	C476.053833,465.542633 476.053833,447.046295 476.053833,427.854492 
	C484.158936,427.854492 491.596588,427.740234 499.019989,428.013153 
	C499.856720,428.043915 501.225342,430.225861 501.297485,431.471039 
	C501.566895,436.121490 501.396149,440.797241 501.396118,445.463501 
	C501.395996,471.627960 501.296936,497.793152 501.492615,523.956116 
	C501.527130,528.567566 500.221771,530.232788 495.538849,529.847290 
	C490.738403,529.452209 485.863007,529.509216 481.053070,529.841492 
	C477.572571,530.081909 475.573456,528.682190 473.803436,525.919983 
	C470.410004,520.624268 466.762451,515.491394 463.045776,509.977417 
z"/>
<path fill="#412B72" opacity="1.000000" stroke="none" 
	d="
M181.859833,162.813690 
	C189.399963,142.284454 196.828644,122.130112 204.246140,101.971672 
	C208.928436,89.246674 213.485046,76.472961 218.415909,63.845226 
	C218.982788,62.393478 221.560349,60.930752 223.265488,60.857048 
	C230.744919,60.533733 238.247803,60.804417 245.739059,60.676708 
	C248.538742,60.628979 249.455261,61.717854 250.407730,64.403503 
	C256.049561,80.311356 262.119965,96.066536 267.948730,111.908936 
	C274.856415,130.683807 281.665375,149.495010 288.807343,169.086548 
	C279.154694,169.086548 270.239014,169.202103 261.334900,168.933914 
	C260.274323,168.901962 258.847015,166.943298 258.325562,165.593475 
	C256.247040,160.212936 254.459732,154.719910 252.424393,148.865219 
	C240.966934,148.865219 229.498657,148.766312 218.037689,149.010376 
	C216.823273,149.036255 215.094757,150.856262 214.562439,152.218246 
	C212.814789,156.689804 211.724274,161.422256 209.906326,165.859894 
	C209.332321,167.261047 207.296585,168.925797 205.876923,168.976074 
	C197.580551,169.269928 189.268448,169.120193 180.256012,169.120193 
	C180.828323,166.837509 181.285980,165.012177 181.859833,162.813690 
M227.683731,114.114082 
	C226.872269,117.050781 226.060822,119.987473 225.237442,122.967361 
	C231.604630,122.967361 237.429108,122.967361 243.705460,122.967361 
	C240.624390,113.852150 237.755905,105.365868 234.887421,96.879585 
	C234.499542,96.870567 234.111679,96.861549 233.723801,96.852524 
	C231.784561,102.352173 229.845322,107.851830 227.683731,114.114082 
z"/>
<path fill="#412C72" opacity="1.000000" stroke="none" 
	d="
M466.999939,169.123779 
	C456.359619,169.123779 446.219299,169.123779 435.772949,169.123779 
	C435.772949,132.974899 435.772949,97.232796 435.772949,61.099812 
	C456.727020,61.099812 477.568817,61.099812 498.651611,61.099812 
	C498.651611,69.286842 498.651611,77.221611 498.651611,85.777344 
	C486.744354,85.777344 474.851776,85.777344 462.110199,85.777344 
	C462.110199,90.623825 461.872009,94.903564 462.290985,99.117966 
	C462.386261,100.076118 464.737793,101.492867 466.084320,101.531487 
	C474.073029,101.760635 482.071655,101.631859 490.066833,101.658615 
	C491.870514,101.664650 493.673737,101.810318 495.690826,101.901352 
	C495.690826,110.213966 495.690826,118.168442 495.690826,126.753189 
	C484.812714,126.753189 473.920319,126.753189 462.158691,126.753189 
	C462.158691,132.098175 461.955505,136.864227 462.356445,141.578918 
	C462.424194,142.375336 465.083527,143.504669 466.565796,143.536591 
	C475.389923,143.726730 484.220062,143.624771 493.048035,143.657852 
	C494.844818,143.664597 496.640991,143.829132 498.651184,143.931854 
	C498.651184,152.289185 498.651184,160.242737 498.651184,169.123764 
	C488.298462,169.123764 477.899231,169.123764 466.999939,169.123779 
z"/>
<path fill="#412C72" opacity="1.000000" stroke="none" 
	d="
M368.845886,87.756462 
	C371.491150,79.687912 373.969299,71.978043 376.663422,64.344383 
	C377.142456,62.987080 378.488556,60.946022 379.485352,60.915989 
	C388.393097,60.647617 397.312317,60.759571 406.949036,60.759571 
	C398.490936,83.731606 390.338623,105.767944 382.267792,127.834076 
	C377.674011,140.393784 373.157349,152.982559 368.739655,165.605042 
	C367.848358,168.151749 366.633270,169.266296 363.786255,169.191208 
	C356.291748,168.993546 348.784668,168.986526 341.290741,169.195923 
	C338.353882,169.278000 337.114685,167.911102 336.241333,165.485550 
	C329.286621,146.170578 322.351746,126.848167 315.300354,107.568443 
	C310.469757,94.360847 305.445007,81.224373 300.551361,68.039665 
	C299.756592,65.898399 299.192291,63.671593 298.382996,61.032837 
	C308.388550,61.032837 317.805481,61.032837 327.407654,61.032837 
	C335.603210,86.344795 343.781525,111.603470 351.959839,136.862152 
	C352.335083,136.833969 352.710358,136.805786 353.085602,136.777603 
	C358.307892,120.565445 363.530182,104.353294 368.845886,87.756462 
z"/>
<path fill="#3F2A71" opacity="1.000000" stroke="none" 
	d="
M799.061829,123.733383 
	C799.112549,127.718536 796.499023,127.034874 794.458984,127.043793 
	C784.982178,127.085236 775.505066,127.062134 765.603027,127.062134 
	C765.603027,132.440338 765.603027,137.507629 765.603027,143.178070 
	C767.215881,143.334595 769.109985,143.665512 771.006165,143.677322 
	C779.830017,143.732300 788.659851,143.881500 797.476135,143.615707 
	C801.522400,143.493713 802.665833,144.926422 802.495117,148.812164 
	C802.210815,155.282043 802.417603,161.773499 802.417603,168.686371 
	C781.262512,168.686371 760.419312,168.686371 739.300110,168.686371 
	C739.300110,132.898727 739.300110,97.186241 739.300110,61.095352 
	C760.229309,61.095352 781.067993,61.095352 802.162231,61.095352 
	C802.162231,69.308258 802.162231,77.235931 802.162231,85.817108 
	C789.990479,85.817108 777.937866,85.817108 765.534424,85.817108 
	C765.534424,91.202614 765.534424,95.946655 765.534424,101.671196 
	C768.652710,101.671196 771.894287,101.671471 775.135925,101.671127 
	C781.629211,101.670425 788.128174,101.831421 794.613525,101.604507 
	C798.199280,101.479050 799.252930,102.868446 799.124268,106.278450 
	C798.910950,111.931145 799.066772,117.597763 799.061829,123.733383 
z"/>
<path fill="#422C73" opacity="1.000000" stroke="none" 
	d="
M539.640991,498.999542 
	C539.641174,475.204224 539.641174,451.908905 539.641174,428.219971 
	C559.474976,428.219971 578.845947,428.219971 598.955017,428.219971 
	C598.955017,435.221069 599.094666,442.160583 598.776001,449.078949 
	C598.736816,449.930878 596.264465,451.328583 594.897156,451.356049 
	C585.087585,451.553284 575.272156,451.461548 564.623840,451.461548 
	C564.623840,455.865967 564.376221,459.978516 564.802490,464.019958 
	C564.905640,464.997803 567.212585,466.436066 568.542847,466.477264 
	C576.197998,466.714355 583.873352,466.819580 591.522827,466.506348 
	C595.641052,466.337769 596.650269,467.872131 596.473694,471.684204 
	C596.198425,477.626007 596.400879,483.589905 596.400879,490.048340 
	C585.612122,490.048340 575.512878,490.048340 565.001587,490.048340 
	C565.001587,495.283081 565.001587,500.003387 565.001587,505.562836 
	C576.068665,505.562836 587.255127,505.562836 598.962708,505.562836 
	C598.962708,513.180176 599.111755,519.985107 598.805542,526.769531 
	C598.758423,527.814087 596.626465,529.617065 595.443115,529.629883 
	C578.121399,529.817200 560.796631,529.699036 543.473694,529.813904 
	C540.165955,529.835815 539.595032,528.207520 539.614746,525.485046 
	C539.677490,516.823669 539.639709,508.161469 539.640991,498.999542 
z"/>
<path fill="#412B72" opacity="1.000000" stroke="none" 
	d="
M558.000122,60.714199 
	C573.771057,60.714188 589.041870,60.714188 604.578369,60.714188 
	C604.578369,69.293358 604.578369,77.218170 604.578369,86.012192 
	C598.247681,86.012192 591.977417,86.326393 585.755615,85.912483 
	C580.805664,85.583168 579.179199,86.895134 579.250061,92.187469 
	C579.566772,115.840607 579.389038,139.500351 579.389709,163.157715 
	C579.389771,164.964493 579.389771,166.771271 579.389771,168.849396 
	C570.683960,168.849396 562.424072,168.849396 553.522095,168.849396 
	C553.522095,141.375153 553.522095,113.991997 553.522095,86.036697 
	C544.825745,86.036697 536.750183,86.036697 528.374512,86.036697 
	C528.374512,77.405457 528.374512,69.354561 528.374512,60.714211 
	C538.267700,60.714211 547.883911,60.714211 558.000122,60.714199 
z"/>
<path fill="#402A71" opacity="1.000000" stroke="none" 
	d="
M682.912354,161.898804 
	C682.912048,164.361511 682.912048,166.337036 682.912048,168.714539 
	C674.205017,168.714539 665.815674,168.714539 656.731506,168.714539 
	C656.731506,141.385818 656.731506,114.017822 656.731506,86.167213 
	C647.966003,86.167213 639.873657,86.167213 631.395447,86.167213 
	C631.395447,77.629288 631.395447,69.570564 631.395447,61.074444 
	C632.721741,60.961514 634.147034,60.735775 635.572571,60.734375 
	C658.069519,60.712261 680.567200,60.816196 703.062622,60.631676 
	C707.232483,60.597469 708.637573,61.837799 708.383972,65.996460 
	C708.059998,71.309410 708.195007,76.659874 708.342529,81.988342 
	C708.425598,84.987328 707.354431,86.129387 704.284302,86.055138 
	C697.338989,85.887161 690.386780,86.002319 682.912659,86.002319 
	C682.912659,111.517578 682.912659,136.464615 682.912354,161.898804 
z"/>
<path fill="#432E74" opacity="1.000000" stroke="none" 
	d="
M821.197693,197.852814 
	C831.925049,198.317978 842.296448,199.674149 850.955872,207.097137 
	C854.488037,210.124908 859.427551,209.480057 862.564148,205.669998 
	C866.865723,200.444885 870.314941,194.494781 874.792480,189.443069 
	C881.553894,181.814758 889.127441,174.907974 895.921143,167.306076 
	C905.686951,156.378464 915.029297,145.073273 924.625732,133.992813 
	C927.220459,130.996887 929.943909,128.079773 932.879517,125.426598 
	C934.209412,124.224648 936.201782,123.755768 939.285400,122.295158 
	C938.533020,126.721756 938.232239,129.775101 937.480347,132.713028 
	C931.075684,157.740906 915.907349,177.278198 898.314514,195.351517 
	C894.885986,198.873734 892.012573,202.989883 889.213196,207.059174 
	C884.337708,214.146484 887.219727,218.257263 893.471680,222.007172 
	C897.574280,224.467926 901.800781,226.721542 905.917786,229.159149 
	C906.975220,229.785248 907.828369,230.756363 908.752869,231.549683 
	C908.470154,231.899902 908.351868,232.150314 908.264343,232.140015 
	C898.124939,230.946396 888.178467,232.839081 878.137573,233.683731 
	C870.339233,234.339706 862.936646,231.841843 855.570435,228.689163 
	C848.862854,225.818390 841.284546,224.981979 833.184814,223.030777 
	C835.331421,220.697021 837.510315,218.328201 840.101990,215.510529 
	C832.482605,208.765320 823.603149,205.515472 814.139893,203.705307 
	C802.048523,201.392456 789.887756,199.443222 777.792603,197.148743 
	C775.837097,196.777786 774.067078,195.428833 772.770569,193.476151 
	C780.496094,194.177216 788.221680,194.878281 796.594604,195.910736 
	C799.157288,196.188446 801.072754,196.134766 802.988159,196.081085 
	C804.028625,196.125259 805.069031,196.169434 806.684692,196.613403 
	C811.905884,197.293060 816.551758,197.572937 821.197693,197.852814 
z"/>
<path fill="#432E74" opacity="1.000000" stroke="none" 
	d="
M263.371460,428.885071 
	C263.137634,428.422363 263.069855,428.477875 263.075745,428.520630 
	C271.342896,428.563354 279.604187,428.563354 288.485779,428.563354 
	C288.485779,453.848236 288.485779,479.392120 288.485779,505.511597 
	C300.148376,505.511597 311.215179,505.511597 322.673035,505.511597 
	C322.673035,513.774475 322.673035,521.459412 322.673035,529.458374 
	C303.202911,529.458374 283.962585,529.458374 263.605286,529.458374 
	C263.605286,496.071777 263.605286,462.709747 263.371460,428.885071 
z"/>
<path fill="#402A71" opacity="1.000000" stroke="none" 
	d="
M351.872131,429.176636 
	C359.833984,428.291351 367.696747,427.884094 375.997650,427.454163 
	C376.148926,429.854889 376.336365,431.451385 376.337280,433.048004 
	C376.354736,463.371948 376.259247,493.696442 376.447144,524.019226 
	C376.475708,528.631958 375.181885,530.168945 370.531189,529.853088 
	C364.589081,529.449524 358.598816,529.755127 351.773041,529.755127 
	C351.773041,496.122864 351.773041,462.888794 351.872131,429.176636 
z"/>
<path fill="#77699A" opacity="1.000000" stroke="none" 
	d="
M820.903687,197.632996 
	C816.551758,197.572937 811.905884,197.293060 807.069275,196.684875 
	C811.455627,196.708755 816.032654,197.060959 820.903687,197.632996 
z"/>
<path fill="#77699A" opacity="1.000000" stroke="none" 
	d="
M802.634399,195.925323 
	C801.072754,196.134766 799.157288,196.188446 797.025391,196.003448 
	C798.632812,195.766373 800.456787,195.767975 802.634399,195.925323 
z"/>
<path fill="#F8E3C2" opacity="1.000000" stroke="none" 
	d="
M138.063263,204.132767 
	C137.667770,204.483902 137.163132,204.630386 136.264877,204.704071 
	C136.565536,204.396881 137.259827,204.162506 138.063263,204.132767 
z"/>
<path fill="#D43A3D" opacity="1.000000" stroke="none" 
	d="
M397.362732,369.985565 
	C393.355011,370.055206 392.964722,367.724976 392.976685,364.964050 
	C393.012024,356.802582 392.988220,348.640869 392.988159,340.479248 
	C392.987946,316.160919 392.978638,291.842621 392.994537,267.524292 
	C392.998596,261.296539 393.205231,261.025818 399.488739,261.116302 
	C414.126160,261.327057 428.875092,260.597687 443.373199,262.159027 
	C468.110504,264.822937 484.251648,282.048676 487.196564,306.627197 
	C488.903625,320.874786 487.596283,334.450104 479.656250,346.913971 
	C471.443329,359.806091 459.858795,367.754669 444.713623,368.861267 
	C429.139496,369.999207 413.458710,369.677734 397.362732,369.985565 
M451.042389,339.572205 
	C457.452423,334.436890 460.007843,327.409729 460.808655,319.549561 
	C462.485779,303.089142 453.734497,285.439087 432.706604,286.906616 
	C430.053314,287.091797 427.352753,287.154694 424.714874,286.881195 
	C420.360535,286.429688 418.870636,288.061035 418.949493,292.497620 
	C419.189362,305.991180 418.980988,319.492004 419.051025,332.989471 
	C419.121796,346.625854 417.384186,344.720154 431.038818,344.927185 
	C437.970947,345.032288 444.673187,344.393402 451.042389,339.572205 
z"/>
<path fill="#D4393E" opacity="1.000000" stroke="none" 
	d="
M240.805710,360.864166 
	C231.012527,367.743530 220.258835,369.980988 208.884995,369.995056 
	C197.067078,370.009705 185.247177,369.880798 173.432297,370.071564 
	C169.477585,370.135406 167.851578,369.107605 167.871140,364.791931 
	C168.019745,332.001984 168.008804,299.210815 167.867813,266.420807 
	C167.849915,262.261871 169.196777,260.943909 173.308151,261.023621 
	C184.788895,261.246216 196.276794,261.080933 207.761749,261.110565 
	C219.460373,261.140747 230.523651,263.532593 240.394516,270.156403 
	C250.611633,277.012543 257.037537,286.415863 260.304321,298.336182 
	C262.863708,307.675171 263.767609,316.964111 261.972412,326.440491 
	C259.321533,340.433777 253.623169,352.644501 240.805710,360.864166 
M194.048492,289.851990 
	C194.038452,306.509674 193.969727,323.167847 194.109894,339.824280 
	C194.123795,341.474884 195.332031,344.501312 196.123932,344.548004 
	C205.397873,345.094604 214.933701,346.186829 223.378510,341.030914 
	C237.761322,332.249573 240.316147,307.374481 228.336884,294.712982 
	C221.793152,287.796600 204.396378,283.913910 195.233597,287.393463 
	C194.745453,287.578796 194.502167,288.408997 194.048492,289.851990 
z"/>
<path fill="#D43A3D" opacity="1.000000" stroke="none" 
	d="
M523.151978,324.238220 
	C529.464050,307.219330 535.664062,290.574677 541.884888,273.937836 
	C542.525330,272.225037 543.290039,270.558685 543.996826,268.870667 
	C547.251282,261.098083 547.251282,261.097565 555.917969,261.097382 
	C561.248962,261.097260 566.613831,260.756256 571.893372,261.277893 
	C573.855774,261.471771 576.652832,263.296753 577.312988,265.042206 
	C584.415649,283.822754 591.125610,302.751373 598.028381,321.608246 
	C603.050293,335.326874 608.131775,349.024658 613.321411,362.680542 
	C615.889771,369.438812 615.631775,369.992615 608.460876,370.001160 
	C602.463501,370.008301 596.439392,370.312195 590.484314,369.808380 
	C588.573242,369.646729 586.092346,367.707703 585.189880,365.917572 
	C583.340210,362.248413 582.233643,358.171844 581.104858,354.182739 
	C580.234985,351.108826 578.461914,349.865387 575.326111,349.891693 
	C565.664368,349.972809 555.996826,349.771179 546.343689,350.069305 
	C544.765442,350.117981 542.534729,351.813782 541.843323,353.317444 
	C540.116943,357.071686 539.051880,361.137573 537.817871,365.108368 
	C536.754578,368.529755 534.880981,370.238647 530.946838,370.088013 
	C523.202271,369.791473 515.438354,370.000671 506.638702,370.000671 
	C512.368713,354.150177 517.707275,339.382446 523.151978,324.238220 
M566.112793,324.142365 
	C567.507385,323.993317 568.901917,323.844299 570.894470,323.631348 
	C567.756531,314.565430 564.829468,306.108704 561.677734,297.002899 
	C560.543457,298.245728 559.910950,298.641052 559.724121,299.188477 
	C557.272644,306.373077 554.777893,313.547913 552.635010,320.825592 
	C552.407166,321.599701 554.223511,323.830322 555.276733,323.967987 
	C558.537964,324.394257 561.888733,324.135895 566.112793,324.142365 
z"/>
<path fill="#D43B3D" opacity="1.000000" stroke="none" 
	d="
M686.699829,318.842468 
	C685.688293,323.365692 684.261230,327.524689 684.126831,331.725067 
	C683.780579,342.546051 683.792664,353.391510 684.102600,364.214539 
	C684.237976,368.942505 682.552979,370.354797 678.050049,370.081238 
	C672.736877,369.758423 667.384705,369.864319 662.058228,370.043335 
	C658.332458,370.168610 657.061584,368.576660 657.120300,364.983521 
	C657.261902,356.320251 656.417114,347.571747 657.347534,339.007233 
	C658.633179,327.172455 654.478210,317.365509 648.796997,307.568237 
	C640.721497,293.641724 633.100037,279.451691 625.320740,265.354279 
	C624.793213,264.398254 624.569336,263.274689 623.807007,261.091431 
	C630.534912,261.091431 636.661987,261.674194 642.629822,260.947968 
	C650.582642,259.980133 654.540894,263.203613 657.470642,270.409546 
	C661.070923,279.264435 666.018127,287.571716 670.864807,297.058655 
	C675.975464,287.014862 681.053833,277.911591 685.264465,268.423279 
	C687.703003,262.928375 690.719971,260.435577 696.923340,260.964355 
	C703.660217,261.538666 710.483826,261.094604 718.961853,261.094604 
	C707.811646,281.040741 697.342346,299.768921 686.699829,318.842468 
z"/>
<path fill="#D43A3E" opacity="1.000000" stroke="none" 
	d="
M335.998169,325.936707 
	C325.027771,325.937683 314.553528,325.782318 304.088165,326.019440 
	C300.087524,326.110046 298.809479,324.695007 298.982605,320.833099 
	C299.227997,315.359344 299.137360,309.864655 299.016113,304.382721 
	C298.949432,301.367340 299.775909,299.766022 303.191193,299.789734 
	C318.480988,299.895874 333.772064,299.874115 349.062286,299.806458 
	C352.058899,299.793213 353.230225,301.027283 353.179626,303.977875 
	C353.077087,309.959351 353.071838,315.945160 353.178680,321.926453 
	C353.233002,324.967285 351.887878,326.056427 348.961975,325.966797 
	C344.810883,325.839630 340.652893,325.935974 335.998169,325.936707 
z"/>
<path fill="#F3F2F6" opacity="1.000000" stroke="none" 
	d="
M227.794907,113.732780 
	C229.845322,107.851830 231.784561,102.352173 233.723801,96.852524 
	C234.111679,96.861549 234.499542,96.870567 234.887421,96.879585 
	C237.755905,105.365868 240.624390,113.852150 243.705460,122.967361 
	C237.429108,122.967361 231.604630,122.967361 225.237442,122.967361 
	C226.060822,119.987473 226.872269,117.050781 227.794907,113.732780 
z"/>
<path fill="#E6983C" opacity="1.000000" stroke="none" 
	d="
M450.750000,339.800140 
	C444.673187,344.393402 437.970947,345.032288 431.038818,344.927185 
	C417.384186,344.720154 419.121796,346.625854 419.051025,332.989471 
	C418.980988,319.492004 419.189362,305.991180 418.949493,292.497620 
	C418.870636,288.061035 420.360535,286.429688 424.714874,286.881195 
	C427.352753,287.154694 430.053314,287.091797 432.706604,286.906616 
	C453.734497,285.439087 462.485779,303.089142 460.808655,319.549561 
	C460.007843,327.409729 457.452423,334.436890 450.750000,339.800140 
z"/>
<path fill="#E6993C" opacity="1.000000" stroke="none" 
	d="
M194.096695,289.395508 
	C194.502167,288.408997 194.745453,287.578796 195.233597,287.393463 
	C204.396378,283.913910 221.793152,287.796600 228.336884,294.712982 
	C240.316147,307.374481 237.761322,332.249573 223.378510,341.030914 
	C214.933701,346.186829 205.397873,345.094604 196.123932,344.548004 
	C195.332031,344.501312 194.123795,341.474884 194.109894,339.824280 
	C193.969727,323.167847 194.038452,306.509674 194.096695,289.395508 
z"/>
<path fill="#E5963C" opacity="1.000000" stroke="none" 
	d="
M565.658752,324.142822 
	C561.888733,324.135895 558.537964,324.394257 555.276733,323.967987 
	C554.223511,323.830322 552.407166,321.599701 552.635010,320.825592 
	C554.777893,313.547913 557.272644,306.373077 559.724121,299.188477 
	C559.910950,298.641052 560.543457,298.245728 561.677734,297.002899 
	C564.829468,306.108704 567.756531,314.565430 570.894470,323.631348 
	C568.901917,323.844299 567.507385,323.993317 565.658752,324.142822 
z"/>
</svg>