<svg xmlns="http://www.w3.org/2000/svg" viewBox="0 0 512 512"><rect width="512" height="512" fill="#ba941c"/><path d="M34.8,356.46q-9.12,0-13.25-4.13t-4.14-12.11A19,19,0,0,1,20,330.81a51,51,0,0,1,7.41-9.69l57.28-61q13.11-13.68,18.81-24.94a49.68,49.68,0,0,0,5.7-22.65q0-14.25-9-21.66t-26.08-7.41a71.92,71.92,0,0,0-19.38,2.7,70.82,70.82,0,0,0-19.67,9.27q-5.13,3.42-9.54,2.85a13.28,13.28,0,0,1-7.7-3.71,15.63,15.63,0,0,1-4.42-7.69,16.25,16.25,0,0,1,.43-9.27,15.93,15.93,0,0,1,6.7-8.12A94.27,94.27,0,0,1,48.05,157a113,113,0,0,1,30.64-4.27q21.65,0,36.48,6.55t22.51,19.1q7.69,12.54,7.7,30.49a72.43,72.43,0,0,1-3.85,23.37,97.83,97.83,0,0,1-11.68,23.09,188.12,188.12,0,0,1-20.38,24.79L55.89,335.94v-9.69h83.79q7.69,0,11.68,3.71t4,11.11c0,4.95-1.33,8.74-4,11.4s-6.55,4-11.68,4Z" fill="#fff"/><path d="M205.8,356.46q-9.13,0-13.26-4.13t-4.13-12.11a19,19,0,0,1,2.57-9.41,50.58,50.58,0,0,1,7.41-9.69l57.28-61q13.11-13.68,18.81-24.94a49.68,49.68,0,0,0,5.7-22.65q0-14.25-9-21.66t-26.07-7.41a71.81,71.81,0,0,0-19.38,2.7,70.68,70.68,0,0,0-19.67,9.27q-5.13,3.42-9.55,2.85a13.28,13.28,0,0,1-7.69-3.71,15.63,15.63,0,0,1-4.42-7.69,16.25,16.25,0,0,1,.43-9.27,15.93,15.93,0,0,1,6.7-8.12A94.15,94.15,0,0,1,219.05,157a113,113,0,0,1,30.64-4.27q21.65,0,36.48,6.55t22.51,19.1q7.69,12.54,7.7,30.49a72.7,72.7,0,0,1-3.85,23.37,97.89,97.89,0,0,1-11.69,23.09,188.78,188.78,0,0,1-20.37,24.79l-53.58,55.86v-9.69h83.79q7.69,0,11.68,3.71t4,11.11c0,4.95-1.33,8.74-4,11.4s-6.55,4-11.68,4Z" fill="#fff"/><path d="M424.39,359.31q-23.37,0-40-6.69T358.7,333.09q-9-12.82-9-30.78,0-14.25,5.84-25.22a48.4,48.4,0,0,1,16.1-17.81A54.12,54.12,0,0,1,395,250.73v6q-18.24-4-29.21-17.52t-11-32.35q0-17.1,8.55-29.22t24.22-18.52q15.67-6.42,36.77-6.41,21.38,0,37.05,6.41t24.22,18.52q8.55,12.12,8.55,29.22a53.32,53.32,0,0,1-5,23.08,46.48,46.48,0,0,1-14,17.39,49.19,49.19,0,0,1-20.95,9.12v-5.7q19.95,2.85,32.35,16.67t12.4,34.91q0,18-9,30.78t-25.65,19.53Q447.77,359.31,424.39,359.31Zm0-28.5q20.24,0,30.49-7.83t10.26-23.23q0-15.39-10.26-23.09T424.39,269q-20,0-30.35,7.69t-10.41,23.09q0,15.39,10.41,23.23T424.39,330.81Zm0-90.34q11.39,0,19.38-3.57A26.94,26.94,0,0,0,456,226.5a29.46,29.46,0,0,0,4.28-16q0-13.68-9.55-21.52t-26.36-7.83q-16.81,0-26.22,7.83t-9.41,21.52q0,14,9.41,22T424.39,240.47Z" fill="#fff"/></svg>