<svg xmlns="http://www.w3.org/2000/svg" viewBox="0 0 512 512"><rect width="512" height="512" fill="#9e6a9a"/><path d="M84.11,359.31a124.47,124.47,0,0,1-30.78-4,99.73,99.73,0,0,1-28.79-12.25A17.26,17.26,0,0,1,17.28,335a16,16,0,0,1-.86-9.41,15.66,15.66,0,0,1,4.28-8,13.27,13.27,0,0,1,8-3.85q4.7-.57,10.4,2.57a99.07,99.07,0,0,0,21.37,9.12,82.69,82.69,0,0,0,23.09,3.13q12,0,20.52-4.27a30.85,30.85,0,0,0,13.11-12,34.58,34.58,0,0,0,4.56-18q0-16-9.69-25.79t-26.51-9.83a53.23,53.23,0,0,0-17.67,3,50.28,50.28,0,0,0-16.81,10.4,33.93,33.93,0,0,1-6.56,4.42,17.78,17.78,0,0,1-8.55,2.14q-7.12,0-10.83-3.71t-3.7-10.26V171.5q0-7.69,4.13-11.83t11.83-4.13h93.76q7.69,0,11.83,3.84t4.13,11.26q0,7.13-4.13,11.12t-11.83,4H57v63.84h-9.4A48.19,48.19,0,0,1,67.29,234.2a65.55,65.55,0,0,1,26.79-5.42q19.1,0,33.21,8.12a57,57,0,0,1,21.94,22.52q7.85,14.4,7.84,33.49,0,19.66-8.84,34.63A60.72,60.72,0,0,1,123,350.91Q106.62,359.31,84.11,359.31Z" fill="#fff"/><path d="M205.8,356.46q-9.12,0-13.25-4.13t-4.13-12.11a19,19,0,0,1,2.56-9.41,51,51,0,0,1,7.41-9.69l57.29-61q13.1-13.68,18.81-24.94a49.81,49.81,0,0,0,5.7-22.65q0-14.25-9-21.66t-26.08-7.41a71.92,71.92,0,0,0-19.38,2.7,70.77,70.77,0,0,0-19.66,9.27q-5.13,3.42-9.55,2.85a13.31,13.31,0,0,1-7.7-3.71,15.61,15.61,0,0,1-4.41-7.69,16.34,16.34,0,0,1,.42-9.27,16,16,0,0,1,6.7-8.12A94.39,94.39,0,0,1,219.05,157a113,113,0,0,1,30.64-4.27q21.66,0,36.48,6.55t22.52,19.1q7.69,12.54,7.69,30.49a72.43,72.43,0,0,1-3.85,23.37,97.83,97.83,0,0,1-11.68,23.09,188.12,188.12,0,0,1-20.38,24.79l-53.58,55.86v-9.69h83.79q7.69,0,11.69,3.71t4,11.11c0,4.95-1.33,8.74-4,11.4s-6.56,4-11.69,4Z" fill="#fff"/><path d="M387.91,358.74a17.83,17.83,0,0,1-10.83-3.13A12.52,12.52,0,0,1,372,347.2q-.85-5.26,2.57-11.83l86.07-161.88V186H368.25c-5.13,0-9.08-1.32-11.83-4s-4.13-6.36-4.13-11.11q0-7.41,4.13-11.4t11.83-4H478.54q7.69,0,12.54,4t4.85,11.4a32,32,0,0,1-1.71,11A82.73,82.73,0,0,1,489.66,192L408.72,346.77a20.76,20.76,0,0,1-8.12,9.12Q395.6,358.74,387.91,358.74Z" fill="#fff"/></svg>