<svg xmlns="http://www.w3.org/2000/svg" viewBox="0 0 512 512"><rect width="512" height="512" fill="#5e8786"/><path d="M120.77,358.74q-8.55,0-13.39-4.7t-4.85-13.54V318.27H32.14q-8.85,0-14.11-3.7t-5.27-11.69a24.56,24.56,0,0,1,2.42-10,90.39,90.39,0,0,1,8.69-14.25L102,165.51a31.28,31.28,0,0,1,8.84-9.12,20,20,0,0,1,11.11-3.13,17.54,17.54,0,0,1,12.26,4.41Q139,162.1,139,171.5V288.06h14c5.5,0,9.64,1.28,12.39,3.85s4.14,6.32,4.14,11.26-1.39,8.69-4.14,11.25-6.89,3.85-12.39,3.85H139V340.5q0,8.83-4.84,13.54T120.77,358.74Zm-18.24-70.68V199.14h8.27L43.54,297.75v-9.69Z" fill="#fff"/><path d="M212,356.46c-6.09,0-10.5-1.37-13.26-4.13s-4.13-6.79-4.13-12.11a19,19,0,0,1,2.57-9.41,50.58,50.58,0,0,1,7.41-9.69l57.28-61q13.11-13.68,18.81-24.94a49.68,49.68,0,0,0,5.7-22.65q0-14.25-9-21.66t-26.07-7.41a71.86,71.86,0,0,0-19.38,2.7,70.82,70.82,0,0,0-19.67,9.27q-5.13,3.42-9.55,2.85a13.28,13.28,0,0,1-7.69-3.71,15.63,15.63,0,0,1-4.42-7.69,16.25,16.25,0,0,1,.43-9.27,15.93,15.93,0,0,1,6.7-8.12A94.15,94.15,0,0,1,225.22,157a113,113,0,0,1,30.64-4.27q21.64,0,36.48,6.55t22.51,19.1q7.69,12.54,7.7,30.49a72.43,72.43,0,0,1-3.85,23.37A98.21,98.21,0,0,1,307,255.29a188.12,188.12,0,0,1-20.38,24.79l-53.58,55.86v-9.69h83.79q7.69,0,11.68,3.71t4,11.11c0,4.95-1.33,8.74-4,11.4s-6.55,4-11.68,4Z" fill="#fff"/><path d="M426.57,359.31a135.92,135.92,0,0,1-31.92-4,91.8,91.8,0,0,1-28.79-12q-5.7-3.69-7.69-8.55a15.11,15.11,0,0,1-1-9.26,14.74,14.74,0,0,1,4.28-7.55,13.91,13.91,0,0,1,8.26-3.71c3.32-.38,7,.48,11,2.57a98.39,98.39,0,0,0,22.51,9,91.55,91.55,0,0,0,22.23,2.7q12.54,0,21.09-3.42a26.72,26.72,0,0,0,13-10.26q4.41-6.84,4.42-16.53,0-14.25-9.55-21.23t-27.79-7H408.33q-8,0-12.11-4T392.09,255q0-7.11,4.13-11.11t12.11-4h14.82q10.83,0,18.53-3.57a27.84,27.84,0,0,0,12-10.11q4.26-6.56,4.27-16,0-13.11-8.69-19.95T424,183.47a78.2,78.2,0,0,0-19.81,2.42,81.74,81.74,0,0,0-20.38,9q-5.13,3.13-9.83,2.56a12.93,12.93,0,0,1-7.84-3.7,16.1,16.1,0,0,1-4.27-7.56,15,15,0,0,1,.57-9.12q1.71-4.7,7.12-8.12a97.36,97.36,0,0,1,27.08-12.11,113.11,113.11,0,0,1,30.49-4.13q20.81,0,35.63,6.41t22.65,18.24q7.84,11.83,7.84,28.64a51.17,51.17,0,0,1-4.56,21.8,47.14,47.14,0,0,1-12.82,16.68,49.1,49.1,0,0,1-19.95,9.69v-3.42q20.52,3.42,31.92,17t11.39,33.77q0,17.67-8.83,30.78t-25.08,20.09Q449.09,359.31,426.57,359.31Z" fill="#fff"/></svg>