<svg viewBox="0 0 512 512" xmlns="http://www.w3.org/2000/svg"><rect width="512" height="512" fill="#4a2999"/><path d="M120.77,358.74q-8.55,0-13.39-4.7t-4.85-13.54V318.27H32.14q-8.85,0-14.11-3.7t-5.27-11.69a24.56,24.56,0,0,1,2.42-10,90.39,90.39,0,0,1,8.69-14.25L102,165.51a31.28,31.28,0,0,1,8.84-9.12,20,20,0,0,1,11.11-3.13,17.54,17.54,0,0,1,12.26,4.41Q139,162.1,139,171.5V288.06h14c5.5,0,9.64,1.28,12.39,3.85s4.14,6.32,4.14,11.26-1.39,8.69-4.14,11.25-6.89,3.85-12.39,3.85H139V340.5q0,8.83-4.84,13.54T120.77,358.74Zm-18.24-70.68V199.14h8.27L43.54,297.75v-9.69Z" fill="#fff"/><path d="M212,356.46c-6.09,0-10.5-1.37-13.26-4.13s-4.13-6.79-4.13-12.11a19,19,0,0,1,2.57-9.41,50.58,50.58,0,0,1,7.41-9.69l57.28-61q13.11-13.68,18.81-24.94a49.68,49.68,0,0,0,5.7-22.65q0-14.25-9-21.66t-26.07-7.41a71.86,71.86,0,0,0-19.38,2.7,70.82,70.82,0,0,0-19.67,9.27q-5.13,3.42-9.55,2.85a13.28,13.28,0,0,1-7.69-3.71,15.63,15.63,0,0,1-4.42-7.69,16.25,16.25,0,0,1,.43-9.27,15.93,15.93,0,0,1,6.7-8.12A94.15,94.15,0,0,1,225.22,157a113,113,0,0,1,30.64-4.27q21.64,0,36.48,6.55t22.51,19.1q7.69,12.54,7.7,30.49a72.43,72.43,0,0,1-3.85,23.37A98.21,98.21,0,0,1,307,255.29a188.12,188.12,0,0,1-20.38,24.79l-53.58,55.86v-9.69h83.79q7.69,0,11.68,3.71t4,11.11c0,4.95-1.33,8.74-4,11.4s-6.55,4-11.68,4Z" fill="#fff"/><path d="M 456.744 358.52 C 451.044 358.52 446.581 356.954 443.354 353.82 C 440.127 350.687 438.511 346.174 438.504 340.28 L 438.504 318.05 L 368.114 318.05 C 362.214 318.05 357.511 316.817 354.004 314.35 C 350.497 311.884 348.741 307.987 348.734 302.66 C 348.826 299.194 349.65 295.785 351.154 292.66 C 353.605 287.653 356.514 282.882 359.844 278.41 L 437.974 165.29 C 440.266 161.678 443.275 158.574 446.814 156.17 C 450.129 154.058 453.994 152.969 457.924 153.04 C 462.425 152.882 466.815 154.461 470.184 157.45 C 473.377 160.404 474.974 165.014 474.974 171.28 L 474.974 287.84 L 488.974 287.84 C 494.474 287.84 498.614 289.12 501.364 291.69 C 504.114 294.26 505.504 298.01 505.504 302.95 C 505.504 307.89 504.114 311.64 501.364 314.2 C 498.614 316.76 494.474 318.05 488.974 318.05 L 474.974 318.05 L 474.974 340.28 C 474.974 346.167 473.361 350.68 470.134 353.82 C 466.907 356.96 462.444 358.527 456.744 358.52 Z M 438.504 287.84 L 438.504 198.92 L 446.774 198.92 L 379.514 297.53 L 379.514 287.84 L 438.504 287.84 Z" fill="#fff"/></svg>