<svg id="svg" version="1.1" xmlns="http://www.w3.org/2000/svg" style="display: block;" viewBox="0 0 508 512"><path d="M0 0 C167.64 0 335.28 0 508 0 C508 168.96 508 337.92 508 512 C340.36 512 172.72 512 0 512 C0 343.04 0 174.08 0 0 Z " transform="translate(0,0)" style="fill: #4A2999;"/><path d="M0 0 C1.08539063 -0.01611328 2.17078125 -0.03222656 3.2890625 -0.04882812 C13.92011165 -0.05517123 23.53210951 2.22738482 33.1875 6.625 C33.86385498 6.92913818 34.54020996 7.23327637 35.23706055 7.54663086 C47.95839429 13.40475853 47.95839429 13.40475853 52.0625 19.25 C53.54085229 24.07928416 53.59098453 27.67087631 51.875 32.4375 C49.57816391 35.95931534 47.55015509 38.03504202 44 40.3125 C38.02254714 40.84686689 34.12118355 39.88231373 28.8125 37.0625 C14.31899413 29.93918423 -0.56540848 26.13768901 -16.5 30.875 C-28.5484298 35.60413403 -36.65985437 43.6407159 -42 55.3125 C-45.99054682 66.08297252 -47.17743851 75.97840459 -47.0625 87.375 C-47.05798828 88.24060547 -47.05347656 89.10621094 -47.04882812 89.99804688 C-47.03719913 92.10289539 -47.01927073 94.20770758 -47 96.3125 C-46.5875 95.59964844 -46.175 94.88679688 -45.75 94.15234375 C-38.28411928 81.7703139 -28.21998481 73.97193205 -14 70.3125 C4.99995666 68.59237877 20.33648539 70.97577751 35.40234375 83.2734375 C47.04123082 93.97723449 53.55486103 108.89564908 54.23828125 124.58984375 C54.67994105 143.09202262 51.03810331 159.19845301 38.6875 173.6875 C27.4343493 185.41586822 12.96301652 192.01437942 -3.2578125 192.68359375 C-16.01733592 192.91076627 -27.37517111 193.0044499 -39 187.3125 C-39.91265625 186.86648438 -40.8253125 186.42046875 -41.765625 185.9609375 C-48.30546163 182.37004561 -53.6961803 177.51467856 -59 172.3125 C-59.55429687 171.78269531 -60.10859375 171.25289062 -60.6796875 170.70703125 C-70.55078812 160.32903627 -76.6269094 144.21203066 -79 130.3125 C-79.185625 129.301875 -79.37125 128.29125 -79.5625 127.25 C-82.7117997 106.95451301 -82.45330565 85.37418162 -78 65.3125 C-77.86609863 64.65830078 -77.73219727 64.00410156 -77.59423828 63.33007812 C-73.72740486 44.71303287 -63.28149606 24.23500213 -47.34423828 13.16210938 C-32.26937107 3.53644633 -17.83804724 -0.05296332 0 0 Z " transform="translate(430,161.6875)" style="fill: #FDFDFE;"/><path d="M0 0 C10.18310196 9.42316898 16.74652791 20.45725196 17.4296875 34.6015625 C17.96172147 63.48175435 3.81515421 85.25538792 -15.51171875 105.46191406 C-17.54849259 107.61707181 -19.50580824 109.84016951 -21.46875 112.0625 C-24.7080128 115.68388999 -28.0758043 119.14864383 -31.53125 122.5625 C-34.56581068 125.56352962 -37.51967127 128.55875872 -40.28125 131.8125 C-43.53305824 135.64373297 -47.0697969 139.1576114 -50.6328125 142.6953125 C-51.23649658 143.29674072 -51.84018066 143.89816895 -52.4621582 144.51782227 C-53.94238407 145.99219165 -55.42416172 147.4650028 -56.90625 148.9375 C-55.97996796 148.94114563 -55.05368591 148.94479126 -54.09933472 148.94854736 C-45.3596001 148.98645216 -36.6202377 149.04333328 -27.88076591 149.12140274 C-23.38794391 149.16087109 -18.89531771 149.19306264 -14.40234375 149.20849609 C-10.06435775 149.22366703 -5.72691008 149.25811998 -1.38916397 149.30580902 C0.26373484 149.32061838 1.91671051 149.32854076 3.56967545 149.32938385 C5.88964118 149.33175671 8.20812303 149.35885907 10.52783203 149.39160156 C11.84687531 149.40048401 13.16591858 149.40936646 14.52493286 149.41851807 C18.67963625 150.02270032 20.85454377 151.31211103 24.09375 153.9375 C26.87421812 158.91010531 26.89052975 164.3925634 26.09375 169.9375 C24.5103002 173.24834959 22.29464624 175.26351976 19.07286072 177.07168579 C14.60102222 178.3713291 10.24984739 178.23226242 5.61547852 178.22802734 C4.56124695 178.23474457 3.50701538 178.24146179 2.4208374 178.24838257 C-1.06193766 178.26737098 -4.54452015 178.27128702 -8.02734375 178.2734375 C-10.44963154 178.27986408 -12.87191856 178.28659234 -15.29420471 178.29360962 C-20.37071533 178.30558397 -25.44715789 178.3092902 -30.52368164 178.30810547 C-37.02830653 178.3079021 -43.53249538 178.33522225 -50.03701687 178.36964989 C-55.03931178 178.39188554 -60.04150113 178.39594405 -65.04384041 178.39488602 C-67.44202237 178.3972463 -69.84020706 178.40609378 -72.23834038 178.42155075 C-75.59206604 178.44114544 -78.94484306 178.43539791 -82.29858398 178.42333984 C-83.2883876 178.43457886 -84.27819122 178.44581787 -85.29798889 178.45739746 C-91.16071026 178.40383167 -94.41178447 177.78674833 -98.90625 173.9375 C-102.49323778 169.85575529 -103.4443856 165.86917399 -103.375 160.53515625 C-101.93861106 152.57516754 -95.55262391 146.19340876 -89.87109375 140.828125 C-87.94046045 138.9704182 -86.20602227 137.03818548 -84.46875 135 C-81.19494347 131.18925937 -77.67261029 127.68671835 -74.09765625 124.16015625 C-71.48523932 121.5104856 -69.07322379 118.72577197 -66.65234375 115.90234375 C-64.18021582 113.12050852 -61.52194453 110.54374049 -58.87109375 107.93359375 C-56.98394256 106.01642823 -55.21939625 104.04174678 -53.46875 102 C-50.89959729 99.00948284 -48.21307744 96.20633316 -45.40625 93.4375 C-35.456745 83.57217017 -26.52065193 72.88890445 -20.90625 59.9375 C-20.42671875 58.89916016 -20.42671875 58.89916016 -19.9375 57.83984375 C-16.81949886 50.11701685 -16.40540758 40.88258335 -18.8203125 32.92578125 C-21.5591259 27.01524524 -24.93146772 22.62269392 -31.08984375 20.01171875 C-45.87748936 15.01940959 -63.04530686 16.03923259 -77.20703125 22.4921875 C-79.93617914 23.95352573 -82.45668627 25.59612418 -85.03125 27.3125 C-89.3959185 30.01410349 -92.56378353 30.69092343 -97.63671875 29.828125 C-102.21491908 28.03151626 -104.76720573 24.21558854 -106.90625 19.9375 C-107.44292751 15.53850403 -107.31868836 11.91949609 -105.59375 7.8125 C-82.18975232 -17.22433473 -26.59930182 -22.35883341 0 0 Z " transform="translate(136.90625,174.0625)" style="fill: #FDFDFE;"/><path d="M0 0 C4.02958854 2.24808624 6.53554458 4.60663375 8 9 C8.09165285 11.05475931 8.12193904 13.11243353 8.12025452 15.16923523 C8.12231651 17.10646957 8.12231651 17.10646957 8.12442017 19.08283997 C8.120881 20.51705956 8.11724619 21.95127892 8.11352539 23.38549805 C8.11324337 24.89331053 8.11340155 26.40112315 8.1139679 27.90893555 C8.11425528 32.00574667 8.10836805 36.10252862 8.10139394 40.19933295 C8.09515061 44.47947019 8.09455582 48.75960806 8.09336853 53.03974915 C8.09025811 61.14637061 8.08204861 69.25297863 8.07201904 77.35959417 C8.06084894 86.58802319 8.05534519 95.81645285 8.05032361 105.04488695 C8.03986577 124.02993227 8.0222719 143.01496505 8 162 C8.96824707 161.97905273 9.93649414 161.95810547 10.93408203 161.93652344 C14.54574645 161.86381488 18.15734691 161.81808944 21.76953125 161.78027344 C23.32921244 161.76022778 24.88881913 161.73298343 26.44824219 161.69824219 C28.69745314 161.64940874 30.9456659 161.62696185 33.1953125 161.609375 C34.23161301 161.57840729 34.23161301 161.57840729 35.28884888 161.54681396 C40.32788477 161.54450809 43.13352906 162.82864909 47 166 C49.28219901 169.42329851 49.29741163 170.84137668 49.3125 174.875 C49.32925781 175.90367187 49.34601563 176.93234375 49.36328125 177.9921875 C48.84568421 182.27766838 47.22528158 184.92787862 44 187.75 C40.92522273 189.67173579 38.38934594 190.12654375 34.84526062 190.14717102 C33.57733673 190.15790398 33.57733673 190.15790398 32.28379822 190.16885376 C31.35958572 190.17154266 30.43537323 190.17423157 29.4831543 190.17700195 C28.01928787 190.18685875 28.01928787 190.18685875 26.52584839 190.19691467 C23.29197108 190.21664707 20.05814019 190.22830954 16.82421875 190.23828125 C15.72017008 190.24235678 14.61612141 190.2464323 13.47861671 190.25063133 C7.63621838 190.27149079 1.79384354 190.28579365 -4.04858398 190.29516602 C-10.08467339 190.30623638 -16.12039475 190.34064419 -22.15635395 190.38033772 C-26.79663278 190.40647241 -31.43682346 190.41485502 -36.07716942 190.41844749 C-38.30231401 190.42332076 -40.52745447 190.43495569 -42.75252724 190.45348549 C-45.86697269 190.47781167 -48.98045949 190.47692366 -52.0949707 190.4699707 C-53.4721804 190.48918579 -53.4721804 190.48918579 -54.87721252 190.50878906 C-60.39956902 190.46387358 -63.66631288 189.76419865 -68 186 C-70.96907897 180.95256575 -72.26853673 175.76423091 -71 170 C-69.38818758 167.20410531 -67.55900597 164.972078 -65 163 C-52.70727406 159.92681851 -39.67105187 162 -27 162 C-27 122.4 -27 82.8 -27 42 C-37.38912512 47.72423963 -37.38912512 47.72423963 -47.4375 54 C-51.4128465 56.51304944 -55.30457044 57.42149278 -60 57 C-63.95398868 55.76103256 -66.46235156 53.72842692 -68.9375 50.375 C-70.34903899 45.8912879 -71.19718523 41.60611943 -70 37 C-64.92690803 29.07868816 -56.45334288 25.12860976 -48.5 20.5625 C-47.10348151 19.74791829 -45.70764273 18.93217013 -44.3125 18.11523438 C-40.88432676 16.11226748 -37.4454742 14.12860171 -34.00195312 12.15216064 C-32.0287544 11.01654868 -30.06076364 9.87235937 -28.09375 8.72607422 C-26.86467233 8.0138438 -25.63550976 7.30175985 -24.40625 6.58984375 C-22.80233398 5.65773071 -22.80233398 5.65773071 -21.16601562 4.70678711 C-14.1854634 0.94359767 -8.04375683 -1.48608997 0 0 Z " transform="translate(273,162)" style="fill: #FCFCFD;"/><path d="M0 0 C8.54205845 5.03792674 13.15300695 12.14652084 16.25 21.4375 C16.9124896 34.08850336 17.17932551 45.50722033 8.78125 55.7578125 C3.85221593 61.1646611 -2.67555942 65.48115502 -10.1171875 65.96875 C-11.61973588 65.9853682 -13.12281195 65.97436252 -14.625 65.9375 C-15.41293945 65.92614014 -16.20087891 65.91478027 -17.01269531 65.90307617 C-26.04987288 65.60239546 -33.37908273 63.09800442 -39.75 56.4375 C-47.25529341 45.99143056 -49.32737821 35.10016852 -47.75 22.4375 C-44.7867588 11.49065027 -39.76097889 5.25692699 -30.0546875 -0.36328125 C-21.50520671 -4.81190939 -8.56523075 -4.05097706 0 0 Z " transform="translate(435.75,261.5625)" style="fill: #4B2A99;"/></svg>