<svg xmlns="http://www.w3.org/2000/svg" viewBox="0 0 512 512"><rect width="512" height="512" fill="#4a2999"/><path d="M35.23,356.46q-9.13,0-13.26-4.13t-4.13-12.11a19,19,0,0,1,2.57-9.41,50.58,50.58,0,0,1,7.41-9.69l57.28-61q13.11-13.68,18.81-24.94a49.68,49.68,0,0,0,5.7-22.65q0-14.25-9-21.66t-26.07-7.41a71.81,71.81,0,0,0-19.38,2.7,70.68,70.68,0,0,0-19.67,9.27q-5.13,3.42-9.55,2.85a13.25,13.25,0,0,1-7.69-3.71,15.63,15.63,0,0,1-4.42-7.69,16.25,16.25,0,0,1,.43-9.27A15.93,15.93,0,0,1,21,169.5,94.15,94.15,0,0,1,48.48,157a113,113,0,0,1,30.64-4.27q21.64,0,36.48,6.55t22.51,19.1q7.69,12.54,7.7,30.49A72.7,72.7,0,0,1,142,232.2a97.89,97.89,0,0,1-11.69,23.09,188.78,188.78,0,0,1-20.37,24.79L56.32,335.94v-9.69h83.79q7.69,0,11.68,3.71t4,11.11c0,4.95-1.33,8.74-4,11.4s-6.55,4-11.68,4Z" fill="#fff"/><path d="M212.78,356.46q-7.42,0-11.54-4.13t-4.14-11.26q0-7.41,4.14-11.11t11.54-3.71H244.7V186.32h17.67l-41.9,25.36q-5.41,3.15-10.12,2.42a13.86,13.86,0,0,1-8-4,16.47,16.47,0,0,1-4.42-7.83,14.83,14.83,0,0,1,.71-9.26,15.91,15.91,0,0,1,7.27-7.84l39.33-23.66a92.47,92.47,0,0,1,11.4-5.84,27.2,27.2,0,0,1,10.54-2.42,15.25,15.25,0,0,1,10,3.27q4,3.28,4,10.69v159h29.07q7.41,0,11.54,3.71t4.13,11.11c0,4.95-1.38,8.74-4.13,11.4s-6.6,4-11.54,4Z" fill="#fff"/><path d="M432.23,359.31q-24.8,0-42.33-11.82t-26.64-34.06q-9.13-22.23-9.12-53.87,0-25.65,5.84-45.46t17-33.48a72.3,72.3,0,0,1,27.21-20.81q16.1-7.11,36.34-7.12A89.58,89.58,0,0,1,466,156.53a88.53,88.53,0,0,1,24.37,11.55,13.37,13.37,0,0,1,6,7.41,17.06,17.06,0,0,1,.43,9,16.71,16.71,0,0,1-4,7.7,12.52,12.52,0,0,1-7.55,4q-4.58.72-10-2.42a74.12,74.12,0,0,0-18.24-8,66.12,66.12,0,0,0-17.1-2.28q-16.53,0-27.93,7.69t-17.24,23.09q-5.85,15.39-5.84,38.47V274.1h-3.42A58.75,58.75,0,0,1,395,249.16a48.2,48.2,0,0,1,18.67-16,57.17,57.17,0,0,1,25.37-5.56q17.37,0,30.78,8.27a58.25,58.25,0,0,1,21.09,22.8q7.69,14.54,7.69,33.34,0,19.4-8.41,34.63a61.4,61.4,0,0,1-23.37,23.94Q451.9,359.32,432.23,359.31Zm-2-29.07a35.35,35.35,0,0,0,18.1-4.56,30.7,30.7,0,0,0,12.11-13,45.68,45.68,0,0,0,0-38.61,32,32,0,0,0-12.11-13,34.56,34.56,0,0,0-18.1-4.7,33.77,33.77,0,0,0-18,4.7,33.31,33.31,0,0,0-12.12,13,44.46,44.46,0,0,0,0,38.61,31.93,31.93,0,0,0,12.12,13A34.54,34.54,0,0,0,430.23,330.24Z" fill="#fff"/></svg>