<svg xmlns="http://www.w3.org/2000/svg" id="Calque_1" data-name="Calque 1" viewBox="0 0 566.93 467.72"><defs><style>.cls-1{fill:#fff}</style></defs><path d="M237.26 452.02c-58.27 0-113.06-22.69-154.26-63.9s-63.9-95.99-63.9-154.26V15.7h310.57c58.27 0 113.06 22.69 154.26 63.9s63.9 95.99 63.9 154.26-22.69 113.06-63.9 154.26-95.99 63.9-154.26 63.9h-92.41Z" style="fill:#241d4c"/><path d="M329.67 20.63c28.79 0 56.71 5.64 83 16.75 25.39 10.74 48.19 26.12 67.78 45.7s34.96 42.39 45.7 67.78c11.12 26.28 16.75 54.21 16.75 83s-5.64 56.71-16.75 83c-10.74 25.39-26.11 48.19-45.7 67.78-19.59 19.59-42.39 34.96-67.78 45.7-26.28 11.12-54.21 16.75-83 16.75h-92.41c-28.79 0-56.71-5.64-83-16.75-25.39-10.74-48.19-26.11-67.78-45.7-19.59-19.59-34.96-42.39-45.7-67.78-11.12-26.28-16.75-54.21-16.75-83V20.63h305.64m0-9.86H14.17v223.09c0 123.21 99.88 223.09 223.09 223.09h92.41c123.21 0 223.09-99.88 223.09-223.09 0-123.21-99.88-223.09-223.09-223.09Z" class="cls-1"/><path d="M100.17 147.41h45.28l72.04 92.56v-92.56h48.03v175.11h-42.28l-75.05-96.06v96.06h-48.03V147.41Z" class="cls-1"/><path id="qHGSWP" d="M394.22 148.41c14.31 3.17 27.63 8.53 39.29 17.62 28.01 21.81 40.81 59.49 31.68 93.32-9.59 35.53-39.14 62.15-74.97 66.4-32.99 3.92-59.77-8.25-80.92-33.48-2-2.38-3.12-4.93-1.32-7.93 1.74-2.9 4.35-3.26 7.52-2.95 45.36 4.48 80.46-28.15 84.96-68 2.24-19.84-2.46-37.87-14.2-54.06-3.47-4.79-3.33-6.39.84-10.94h7.12Zm-66.14 145.42c17.79 17.93 50.32 25.79 78.42 14.74 33.01-12.98 52.64-44.75 49.02-80.24-3.05-29.93-24.07-56.26-52.1-64.65 13.18 28.92 13.54 57.54-2.49 85.24-16.09 27.81-40.98 42.11-72.84 44.9Z" class="cls-1"/></svg>