<?xml version="1.0" encoding="UTF-8"?><svg id="uuid-24cc0bf1-4932-407a-9a04-79b1b832f9d0" xmlns="http://www.w3.org/2000/svg" viewBox="0 0 45.99695 44.39102"><defs><style>.uuid-36bc003b-6b10-4f3d-af83-a5bce625f49a{fill:#fff;}.uuid-3e8a5499-dfc3-46fc-8c1b-b8b16016b01b{fill:#cdcc00;}</style></defs><g id="uuid-b96111f1-e6f6-4677-bc1f-90b9b2e0d5f4"><g><path class="uuid-3e8a5499-dfc3-46fc-8c1b-b8b16016b01b" d="M0,0S27.7699,2.27802,45.99695,19.86002c0,0-8.90198,12.491-38.22705,24.53101C7.7699,44.39102,0,22.19601,0,0"/><path class="uuid-36bc003b-6b10-4f3d-af83-a5bce625f49a" d="M14.92688,12.49741c0-1.84998-1.047-3.10599-3.17505-3.10599-2.198,0-3.17493,1.186-3.17493,3.07101,0,2.23297,.94202,3.55899,3.17493,3.55899,2.198,0,3.17505-1.25601,3.17505-3.52402m-6.979,10.39801c0,2.16299,1.22205,3.45401,3.83899,3.45401s3.73303-1.25601,3.73303-3.48901c0-1.98898-.97705-3.48898-3.83801-3.48898-2.75696,0-3.73401,1.604-3.73401,3.52399m-4.11694,.24399c0-3.03598,1.849-4.78,4.11694-5.44299v-.13998c-1.88403-.453-3.48901-2.16299-3.48901-5.05902,0-4.25699,2.82703-6.595,7.36304-6.595,4.60498,0,7.22302,2.09402,7.22302,6.246,0,2.79102-1.67603,4.50101-3.56006,5.164v.13901c2.16406,.41901,4.18701,1.85001,4.18701,5.23502,0,4.745-3.10498,7.08298-7.98999,7.08298-4.95496,0-7.85095-2.05899-7.85095-6.63"/><path class="uuid-36bc003b-6b10-4f3d-af83-a5bce625f49a" d="M28.0094,25.57281c.80005,0,1.38501-.19299,1.75403-.578,.36902-.384,.55396-.83801,.55396-1.36099,0-.647-.23792-1.13101-.71497-1.45502-.47705-.323-1.07007-.48398-1.77795-.48398h-2.23804v3.87799h2.42297Zm1.70801-8.58701c0-.522-.18103-.95001-.54199-1.28101-.36206-.32999-.92798-.496-1.69702-.496h-1.89197v3.578h1.75403c.38391,0,.76892-.06198,1.15393-.185,.38403-.12299,.68408-.33398,.90002-.63501,.21497-.29898,.323-.62598,.323-.98099m1.03906,3.02399c.61499,.07703,1.18396,.289,1.70789,.63501,.52209,.34601,.89209,.77701,1.10803,1.29199,.21497,.51602,.323,1.043,.323,1.58102,0,1.55499-.54297,2.76999-1.62695,3.647-1.08508,.87698-2.68896,1.31598-4.81299,1.31598h-5.35498V12.30081h5.79395c3.47705,0,5.21594,1.39999,5.21594,4.20099,0,.41501-.08093,.85703-.24194,1.327-.16199,.46902-.43506,.89301-.81995,1.26901-.38501,.37701-.81604,.64999-1.29199,.82001v.09198Z"/></g></g></svg>