<?xml version="1.0" encoding="UTF-8"?><svg id="uuid-5a18d0ee-afe3-4c3b-850c-fe9c9e0e1563" xmlns="http://www.w3.org/2000/svg" viewBox="0 0 14.55197 14.044"><defs><style>.uuid-01425c79-767d-4fbb-8376-4eded1b8852d{fill:#fff;}.uuid-69fa1670-abba-4736-b41c-46d450a5f5a1{fill:#ef7d00;}</style></defs><g id="uuid-949b6cf9-07fc-4db1-9cda-5849c5dd49a9"><g><path class="uuid-69fa1670-abba-4736-b41c-46d450a5f5a1" d="M0,0S8.78598,.721,14.55197,6.283c0,0-2.81598,3.951-12.09399,7.761C2.45798,14.044,0,7.021,0,0"/><path class="uuid-01425c79-767d-4fbb-8376-4eded1b8852d" d="M3.24371,10.1543v-3.87305c0-.68164,.01074-1.43848,.04297-2.13086h-.04297l-.75732,.51855-.82227,.57422-.76807-1.06055,2.31494-1.49316h1.36328v7.46484h-1.33057Z"/><path class="uuid-01425c79-767d-4fbb-8376-4eded1b8852d" d="M7.7027,10.2627c-1.82861,0-2.56396-1.2334-2.56396-3.79785,0-2.66113,.91943-3.88379,2.69385-3.88379,1.81738,0,2.57471,1.2334,2.57471,3.81934,0,2.63965-.94141,3.8623-2.70459,3.8623Zm.08643-1.14648c.99512,0,1.27637-.82227,1.27637-2.65137,0-1.82812-.38916-2.73633-1.33057-2.73633-.97363,0-1.25488,.84375-1.25488,2.67188,0,1.84961,.37842,2.71582,1.30908,2.71582Z"/></g></g></svg>