<?xml version="1.0" encoding="UTF-8"?><svg id="uuid-cdcb7af3-180a-4851-9b48-38443490406c" xmlns="http://www.w3.org/2000/svg" viewBox="0 0 13.70898 13.23"><defs><style>.uuid-03ea3884-177c-4d63-a2b3-f63ce600a37f{fill:#fff;}.uuid-8bd37bba-c986-4223-8a0d-a0145866831d{fill:#7f5ca3;}</style></defs><g id="uuid-c55e1a7e-8417-4f5f-9b95-4b9960be4b5e"><g><path class="uuid-8bd37bba-c986-4223-8a0d-a0145866831d" d="M0,0S8.27597,.679,13.70898,5.91901c0,0-2.65298,3.723-11.39301,7.31099C2.31598,13.23,0,6.61501,0,0"/><path class="uuid-03ea3884-177c-4d63-a2b3-f63ce600a37f" d="M3.24902,10.24318v-.17285c1.26562-.72461,2.06592-1.63379,2.47705-2.60742l-.02148-.02148c-.21631,.08594-.48682,.14062-.87646,.14062-1.27637,0-2.26074-.68164-2.26074-2.29395,0-1.65527,1.03857-2.61816,2.52051-2.61816,1.72021,0,2.38037,1.11426,2.38037,2.81348,0,2.0332-1.1792,3.87305-2.4668,4.75977h-1.75244Zm1.86084-3.77539c.44336,0,.73535-.1084,.98438-.2168,.03223-.28125,.04297-.4541,.04297-.72461,0-1.29785-.54053-1.74219-1.16846-1.74219-.69238,0-1.08154,.38965-1.08154,1.32031,0,.9082,.41113,1.36328,1.22266,1.36328Z"/></g></g></svg>