<?xml version="1.0" encoding="UTF-8"?><svg id="uuid-f9e6514c-9b50-4789-bb99-bce0d4ed53b2" xmlns="http://www.w3.org/2000/svg" viewBox="0 0 22.24103 12.381"><defs><style>.uuid-699a692c-a30d-48bb-9ec1-c96402d11d16{fill:#fff;}.uuid-caa03ba0-0f9b-4759-a8ac-53a5508b02bc{fill:#009a93;}</style></defs><g id="uuid-6c792260-f242-4cdd-97a3-c0aabbcf5679"><g><path class="uuid-caa03ba0-0f9b-4759-a8ac-53a5508b02bc" d="M1.359,0H20.88303c.7495,0,1.358,.6085,1.358,1.358V11.024c0,.74895-.60805,1.357-1.357,1.357H1.357c-.74895,0-1.357-.60805-1.357-1.357V1.359C0,.60895,.60895,0,1.359,0Z"/><g><path class="uuid-699a692c-a30d-48bb-9ec1-c96402d11d16" d="M4.08478,5.66559V1.64704h.84424l1.19873,2.79199h.0083V1.64704h.62109V5.66559h-.8125l-1.23047-2.86133h-.00781v2.86133h-.62158Z"/><path class="uuid-699a692c-a30d-48bb-9ec1-c96402d11d16" d="M8.46368,3.91169c0-.3125-.18311-.49414-.38232-.49414-.19531,0-.3584,.125-.48584,.3291l-.31885-.46484c.22314-.30664,.5498-.44336,.85254-.44336,.66895,0,.88379,.47168,.88379,1.38574v1.44141h-.54932v-.34668h-.00781c-.13184,.2959-.37451,.41504-.61328,.41504-.35889,0-.68896-.29492-.68896-.85156,0-.96484,.83594-.9707,1.31006-.9707Zm-.73682,.94238c0,.21582,.15918,.30078,.28662,.30078,.22705,0,.4502-.1709,.4502-.52246v-.17578h-.1792c-.1792,0-.55762,.04004-.55762,.39746Z"/><path class="uuid-699a692c-a30d-48bb-9ec1-c96402d11d16" d="M9.82599,2.9068l.48975,1.87305h.00781l.4541-1.87305h.60156l-.76465,2.75879h-.6333l-.80078-2.75879h.64551Z"/><path class="uuid-699a692c-a30d-48bb-9ec1-c96402d11d16" d="M12.62579,2.83844c.37402,0,.89209,.3291,.89209,1.47656v.23828h-1.38623c.04785,.31152,.20752,.5332,.4502,.5332,.20312,0,.32666-.14746,.42627-.33496l.41797,.4375c-.18701,.3457-.51367,.54492-.81641,.54492-.57764,0-1.0752-.54492-1.0752-1.44727,0-.875,.46973-1.44824,1.09131-1.44824Zm.29443,1.13574c0-.3125-.16309-.52246-.37012-.52246-.22314,0-.39844,.2041-.41846,.52246h.78857Z"/><path class="uuid-699a692c-a30d-48bb-9ec1-c96402d11d16" d="M13.68878,3.58844v-.68164h.38232v-.81738h.59717v.81738h.52588v.68164h-.52588v.9707c0,.33984,.08398,.45898,.28271,.45898,.11572,0,.21143-.03418,.24316-.0791v.70996c-.13916,.06738-.28271,.08496-.41797,.08496-.46631,0-.70508-.31836-.70508-.81152v-1.33398h-.38232Z"/><path class="uuid-699a692c-a30d-48bb-9ec1-c96402d11d16" d="M15.30646,3.58844v-.68164h.38232v-.81738h.59717v.81738h.52588v.68164h-.52588v.9707c0,.33984,.08398,.45898,.28271,.45898,.11572,0,.21143-.03418,.24316-.0791v.70996c-.13916,.06738-.28271,.08496-.41797,.08496-.46631,0-.70508-.31836-.70508-.81152v-1.33398h-.38232Z"/><path class="uuid-699a692c-a30d-48bb-9ec1-c96402d11d16" d="M18.14337,2.83844c.37402,0,.89209,.3291,.89209,1.47656v.23828h-1.38623c.04785,.31152,.20752,.5332,.4502,.5332,.20312,0,.32666-.14746,.42627-.33496l.41797,.4375c-.18701,.3457-.51367,.54492-.81641,.54492-.57764,0-1.0752-.54492-1.0752-1.44727,0-.875,.46973-1.44824,1.09131-1.44824Zm.29443,1.13574c0-.3125-.16309-.52246-.37012-.52246-.22314,0-.39844,.2041-.41846,.52246h.78857Z"/></g><g><path class="uuid-699a692c-a30d-48bb-9ec1-c96402d11d16" d="M5.28595,7.04743l-.43799,.68164c-.18701-.28418-.41406-.38086-.68115-.38086-.52979,0-.87988,.53906-.87988,1.29395,0,.76074,.3501,1.29492,.87988,1.29492,.20312,0,.40234-.0625,.58154-.19922v-.65234h-.50586v-.81738h1.10303v2.09961c-.36621,.27832-.76855,.38672-1.17871,.38672-.88818,0-1.52539-.81738-1.52539-2.1123,0-1.28809,.63721-2.11133,1.52539-2.11133,.41406,0,.8125,.11914,1.11914,.5166Z"/><path class="uuid-699a692c-a30d-48bb-9ec1-c96402d11d16" d="M6.49884,10.65192h-.62109V6.63337h.62109v4.01855Z"/><path class="uuid-699a692c-a30d-48bb-9ec1-c96402d11d16" d="M7.49249,6.63337l.69678,2.63379h.0083l.70898-2.63379h.66504l-1.16309,4.01855h-.49756l-1.12744-4.01855h.70898Z"/><path class="uuid-699a692c-a30d-48bb-9ec1-c96402d11d16" d="M9.88458,6.63337h1.91553v.81738h-1.29395v.74902h1.22266v.81738h-1.22266v.81738h1.36572v.81738h-1.9873V6.63337Z"/><path class="uuid-699a692c-a30d-48bb-9ec1-c96402d11d16" d="M12.36505,10.65192V6.63337h1.11133c.50977,0,1.04346,.24414,1.04346,1.21973,0,.59082-.22705,.99902-.60938,1.10156l.7168,1.69727h-.74463l-.58936-1.60645h-.30664v1.60645h-.62158Zm1.00781-2.35547c.28662,0,.50146-.06836,.50146-.44824,0-.3291-.1709-.46582-.46582-.46582h-.42188v.91406h.38623Z"/><path class="uuid-699a692c-a30d-48bb-9ec1-c96402d11d16" d="M14.94122,10.65192V6.63337h.84424l1.19873,2.79199h.0083v-2.79199h.62109v4.01855h-.8125l-1.23047-2.86133h-.00781v2.86133h-.62158Z"/><path class="uuid-699a692c-a30d-48bb-9ec1-c96402d11d16" d="M18.58722,6.63337l.59766,1.50391,.63281-1.50391h.73682l-1.05908,2.30469v1.71387h-.62158v-1.71387l-1.05908-2.30469h.77246Z"/></g></g></g></svg>