<?xml version="1.0" encoding="UTF-8"?><svg id="uuid-7388b8ee-79c6-4c86-9a40-395bebe88e6e" xmlns="http://www.w3.org/2000/svg" viewBox="0 0 13.70898 13.23"><defs><style>.uuid-37428f8c-2c68-4e81-b9d8-0b6e781d952e{fill:#fff;}.uuid-084ab511-a3ec-47de-b115-35a378585150{fill:#164194;}</style></defs><g id="uuid-e23317c1-d239-4c0b-b341-8b6767ef00b5"><g><path class="uuid-084ab511-a3ec-47de-b115-35a378585150" d="M0,0S8.27698,.68,13.70898,5.919c0,0-2.65298,3.725-11.39301,7.311C2.31598,13.23,0,6.615,0,0"/><path class="uuid-37428f8c-2c68-4e81-b9d8-0b6e781d952e" d="M4.88376,10.16116c-1.48242,0-2.10986-.74707-2.40186-1.4502l1.30908-.58398c.19482,.51953,.53027,.91992,1.18994,.91992,.74658,0,1.10352-.50879,1.10352-1.3418,0-.86523-.40039-1.30859-1.15771-1.30859-.41064,0-.70312,.17285-.90869,.38867l-1.1792-.42188,.31396-3.76465h3.90527v1.125h-2.72607l-.19482,1.92578,.0542,.01074c.21631-.17285,.64893-.32422,1.06006-.32422,1.46045,0,2.16357,.77832,2.16357,2.21777,0,1.5791-.94092,2.60742-2.53125,2.60742Z"/></g></g></svg>