<?xml version="1.0" encoding="UTF-8"?><svg id="uuid-11869aef-5ff1-4ef9-9330-757d4e7d1a86" xmlns="http://www.w3.org/2000/svg" viewBox="0 0 14.55197 14.04401"><defs><style>.uuid-3fb1bc91-a597-48cb-b260-474bdd4e4a17{fill:#fff;}.uuid-5a876963-b1c6-4951-9d6c-5596ab330f3b{fill:#76b82a;}</style></defs><g id="uuid-58e2226b-f831-4143-a41d-960e67e19cbf"><g><path class="uuid-5a876963-b1c6-4951-9d6c-5596ab330f3b" d="M0,0S8.78497,.722,14.55197,6.283c0,0-2.81699,3.952-12.09399,7.761C2.45798,14.04401,0,7.022,0,0"/><path class="uuid-3fb1bc91-a597-48cb-b260-474bdd4e4a17" d="M2.95657,10.1582l-.22705-1.13574c1.08203-1.08203,1.99072-2.0127,2.61816-2.82422,.42188-.55176,.6167-.99512,.6167-1.4707,0-.66016-.36816-.98438-.88721-.98438-.59521,0-.86572,.48633-.90869,1.02734l-1.35254-.25977c.14062-1.0166,.88721-1.91504,2.33691-1.91504,1.36328,0,2.19629,.79004,2.19629,1.95898,0,.82129-.29248,1.55762-.97363,2.37988-.30322,.35645-.64941,.73535-1.03857,1.14648-.30322,.30273-.64941,.62793-.99561,.95215v.04297c.42188-.03223,1.125-.05371,1.55811-.05371h1.56836v1.13574H2.95657Z"/></g></g></svg>