<?xml version="1.0" encoding="UTF-8"?><svg id="uuid-501ded2e-c970-4a8a-a389-c8e1c537b016" xmlns="http://www.w3.org/2000/svg" viewBox="0 0 45.44189 43.85501"><defs><style>.uuid-77a35157-b639-4daf-b045-cc42b2beab45{fill:#fff;}.uuid-b0c77733-f0ad-47fb-90db-ee5b3a2b2080{fill:#8b663a;}</style></defs><g id="uuid-9a997d0c-c353-432e-9d5d-2f814081338c"><g><path class="uuid-b0c77733-f0ad-47fb-90db-ee5b3a2b2080" d="M0,0S27.43494,2.25101,45.44189,19.62003c0,0-8.79492,12.34-37.76599,24.23499C7.6759,43.85501,0,21.92801,0,0"/><path class="uuid-77a35157-b639-4daf-b045-cc42b2beab45" d="M14.74658,10.92892c0-1.827-1.03394-3.06799-3.13696-3.06799-2.17102,0-3.13696,1.172-3.13696,3.034,0,2.20599,.93091,3.51599,3.13696,3.51599,2.172,0,3.13696-1.241,3.13696-3.48199m-6.89392,10.27298c0,2.13702,1.20593,3.41202,3.79199,3.41202,2.58496,0,3.68799-1.241,3.68799-3.44699,0-1.96503-.96509-3.44702-3.79199-3.44702-2.72302,0-3.68799,1.586-3.68799,3.48199m-4.06799,.241c0-2.99899,1.8269-4.72299,4.06799-5.37799v-.138c-1.86206-.448-3.448-2.13699-3.448-4.99799,0-4.20599,2.79297-6.51501,7.27393-6.51501,4.55005,0,7.13599,2.06799,7.13599,6.17102,0,2.75699-1.65491,4.44598-3.51599,5.10098v.138c2.13696,.414,4.13599,1.827,4.13599,5.17099,0,4.68802-3.06799,6.99802-7.89392,6.99802-4.89502,0-7.75598-2.034-7.75598-6.55002"/><path class="uuid-77a35157-b639-4daf-b045-cc42b2beab45" d="M26.39429,17.84912l-.66101,2.32599h3.76196l-.61597-2.23499c-.62305-2.21899-1.02502-3.815-1.20801-4.78799h-.09204c-.21191,1.09399-.60791,2.66-1.18494,4.69699m-1.16296-7.11401h4.85693l4.85706,15.98502h-3.64905l-1.026-3.672h-5.33496l-1.0271,3.672h-3.51099l4.83411-15.98502Z"/></g></g></svg>