<?xml version="1.0" encoding="UTF-8"?><svg id="uuid-11fc431e-f33c-4602-80ae-54e55a73551c" xmlns="http://www.w3.org/2000/svg" viewBox="0 0 13.70898 13.23"><defs><style>.uuid-487002e5-4a65-4351-a6ac-4b715c53b3ba{fill:#fff;}.uuid-155fd866-094b-4732-8f95-acc57dc7dc8e{fill:#ea619f;}</style></defs><g id="uuid-408bf403-6fe5-4546-a0e4-245bd94b2247"><g><path class="uuid-155fd866-094b-4732-8f95-acc57dc7dc8e" d="M0,0S8.27597,.679,13.70898,5.91901c0,0-2.65298,3.723-11.39301,7.311C2.31598,13.23,0,6.61501,0,0"/><path class="uuid-487002e5-4a65-4351-a6ac-4b715c53b3ba" d="M5.18555,10.34963c-1.75293,0-2.40186-1.14746-2.40186-2.8457,0-2.10938,1.21143-3.8623,2.50977-4.72754h1.75244v.17285c-1.26562,.71387-2.00098,1.54785-2.47705,2.53223l.03223,.02148c.22705-.12988,.60596-.17285,.88721-.17285,1.29834,0,2.21777,.70312,2.21777,2.3252,0,1.65527-1.02783,2.69434-2.52051,2.69434Zm.12939-1.11426c.71436,0,1.06055-.44336,1.06055-1.41797,0-.88672-.43262-1.38477-1.24414-1.38477-.42188,0-.70312,.09766-.95215,.19531-.06494,.28125-.07568,.57324-.07568,.84375,0,1.3418,.5625,1.76367,1.21143,1.76367Z"/></g></g></svg>