<?xml version="1.0" encoding="UTF-8"?><svg id="uuid-ba7ea680-c189-4b73-8521-df7cfdc91428" xmlns="http://www.w3.org/2000/svg" viewBox="0 0 14.55197 14.044"><defs><style>.uuid-840f3d9b-84f5-4deb-90fa-422d68588378{fill:#fd0;}.uuid-fd8ea303-3678-45f5-b5cb-11ac25587838{fill:#1d1d1b;}</style></defs><g id="uuid-7321b927-9496-428f-8131-efae30931425"><g><path class="uuid-840f3d9b-84f5-4deb-90fa-422d68588378" d="M0,0S8.78497,.721,14.55197,6.283c0,0-2.81699,3.951-12.09399,7.761C2.45798,14.044,0,7.022,0,0"/><path class="uuid-fd8ea303-3678-45f5-b5cb-11ac25587838" d="M4.87155,10.25289c-1.26562,0-2.04492-.6709-2.34766-1.39551l1.2334-.60645c.18359,.37891,.5625,.8877,1.27637,.8877,.77881,0,1.11426-.41113,1.11426-1.14746,0-.71387-.4541-1.03809-1.42773-1.03809h-.49756v-1.11426h.48682c.83301,0,1.1792-.35742,1.1792-1.14648,0-.60645-.29248-.98535-.93066-.98535-.58398,0-.88721,.37891-.94092,.90918l-1.2876-.15137c.08643-1.03906,.87646-1.88281,2.23926-1.88281,1.44971,0,2.25049,.6709,2.25049,2.00195,0,.91895-.50879,1.49316-1.125,1.6875v.04297c.69238,.06543,1.37354,.4873,1.37354,1.6123,0,1.51465-.99512,2.32617-2.59619,2.32617Z"/></g></g></svg>