<?xml version="1.0" encoding="UTF-8"?><svg id="a" xmlns="http://www.w3.org/2000/svg" viewBox="0 0 13.85 13.85"><defs><style>.b{fill:#8da6d6;}.c{fill:#1d1d1b;}</style></defs><path class="b" d="M6.92,13.85c3.82,0,6.93-3.1,6.93-6.93S10.75,0,6.92,0,0,3.1,0,6.92s3.1,6.93,6.92,6.93"/><path class="c" d="M4.41,5.87c.06-.02,.12-.04,.19-.05,.06-.01,.13-.02,.2-.02,.26,0,.5,.06,.71,.18,.21,.12,.4,.28,.55,.48,.15,.2,.27,.44,.35,.72,.08,.28,.12,.57,.12,.88,0,.36-.05,.68-.16,.97s-.25,.54-.44,.75c-.18,.21-.4,.37-.66,.49-.25,.11-.52,.17-.81,.17s-.56-.06-.81-.17c-.25-.12-.47-.28-.65-.49-.18-.21-.33-.46-.44-.75-.11-.29-.16-.61-.16-.97,0-.25,.02-.47,.05-.68,.04-.21,.08-.4,.14-.58,.06-.18,.13-.36,.21-.52s.17-.34,.25-.51l1.21-2.36h1.43l-1.3,2.47Zm.94,2.13c0-.31-.08-.57-.25-.77-.16-.21-.38-.31-.64-.31s-.48,.1-.64,.31-.25,.46-.25,.77,.08,.57,.25,.78,.38,.31,.64,.31,.48-.1,.64-.31c.16-.21,.25-.46,.25-.78"/><path class="c" d="M8.48,6.12h.38c.11,0,.22,0,.32-.03,.1-.02,.2-.06,.29-.11,.09-.05,.15-.13,.21-.23,.05-.1,.08-.23,.08-.39,0-.21-.07-.38-.2-.52-.13-.14-.3-.21-.49-.21s-.33,.06-.45,.18c-.12,.12-.2,.28-.24,.46l-1.29-.33c.06-.3,.16-.55,.28-.77,.12-.21,.27-.38,.45-.51,.17-.13,.36-.23,.57-.29,.21-.06,.43-.09,.67-.09s.48,.04,.71,.11c.23,.08,.43,.19,.6,.35,.17,.16,.31,.36,.41,.6,.1,.24,.15,.53,.15,.86,0,.38-.08,.71-.24,.99-.16,.27-.4,.45-.7,.53v.03c.17,.03,.31,.09,.44,.19,.13,.1,.24,.22,.33,.36,.09,.14,.16,.3,.2,.49,.05,.18,.07,.38,.07,.58,0,.35-.05,.65-.16,.91-.11,.26-.25,.48-.43,.65-.18,.17-.39,.3-.63,.38-.24,.09-.5,.13-.77,.13-.5,0-.92-.14-1.28-.43-.36-.28-.59-.74-.71-1.36l1.23-.36c.04,.25,.13,.44,.25,.59,.13,.15,.32,.21,.57,.21s.44-.08,.57-.25c.12-.17,.18-.38,.18-.64,0-.2-.03-.35-.1-.45-.07-.11-.15-.19-.25-.24-.11-.05-.22-.08-.35-.09-.13,0-.26-.01-.39-.01h-.27v-1.27Z"/></svg>