<?xml version="1.0" encoding="UTF-8"?><svg id="a" xmlns="http://www.w3.org/2000/svg" viewBox="0 0 13.53 13.52"><defs><style>.b{fill:#fff;}.c{fill:#00893e;}</style></defs><path class="c" d="M6.76,13.52c3.73,0,6.76-3.03,6.76-6.76S10.5,0,6.76,0,0,3.03,0,6.76s3.03,6.76,6.76,6.76"/><path class="b" d="M6.06,4.56H3.92l-.02,1.04c.12-.05,.28-.08,.48-.08,.27,0,.53,.05,.75,.15,.23,.1,.43,.25,.59,.44,.17,.19,.29,.43,.39,.71,.09,.28,.14,.59,.14,.93,0,.38-.05,.72-.16,1.02-.1,.3-.25,.55-.43,.76-.18,.21-.4,.36-.65,.47-.25,.11-.52,.16-.82,.16-.47,0-.86-.14-1.17-.43-.32-.29-.53-.72-.65-1.3l1.2-.34c.03,.24,.11,.44,.24,.59,.13,.15,.3,.22,.5,.22,.24,0,.44-.1,.58-.29,.14-.19,.22-.43,.22-.72,0-.22-.04-.4-.11-.55-.07-.14-.17-.26-.29-.34-.12-.09-.25-.14-.4-.18-.15-.03-.3-.05-.44-.05-.19,0-.38,.02-.57,.07-.19,.05-.38,.11-.55,.18l.06-3.73h3.27v1.26Z"/><path class="b" d="M7.01,8.54l2.1-2.35c.11-.12,.21-.26,.32-.41,.11-.15,.16-.33,.16-.53,0-.23-.07-.41-.2-.54s-.29-.2-.46-.2c-.21,0-.38,.08-.5,.25-.12,.16-.19,.37-.2,.61l-1.15-.11c.01-.35,.07-.65,.18-.91,.1-.26,.24-.47,.4-.65,.17-.17,.36-.3,.59-.39,.23-.09,.47-.13,.74-.13,.24,0,.47,.04,.69,.13,.21,.09,.4,.21,.56,.38,.16,.17,.28,.38,.37,.63,.09,.25,.13,.55,.13,.89,0,.22-.02,.41-.05,.59-.04,.17-.08,.33-.15,.48-.06,.14-.14,.28-.23,.4-.09,.12-.18,.24-.28,.35l-1.64,1.77h2.4v1.26h-3.77v-1.52Z"/></svg>