<?xml version="1.0" encoding="UTF-8"?>
<svg id="Calque_1" data-name="Calque 1" xmlns="http://www.w3.org/2000/svg" viewBox="0 0 44.63 44.63">
  <path d="M44.63,22.31c0,12.32-9.99,22.31-22.31,22.31S0,34.64,0,22.31,9.99,0,22.31,0s22.31,9.99,22.31,22.31" style="fill: #004F9E;"/>
  <polygon points="6.65 31.78 6.65 12.57 11.27 12.57 17.83 25.92 17.83 12.57 21.22 12.57 21.22 31.78 16.77 31.78 10.04 18.1 10.04 31.78 6.65 31.78" style="fill: #fff;"/>
  <polygon points="29.05 31.78 29.05 17.13 25.97 20.52 24.13 17.86 29.14 12.57 32.18 12.57 32.18 31.78 29.05 31.78" style="fill: #fff;"/>
  <path d="M35.97,12.05c-.47-.47-.96-.9-1.46-1.31,5.51,6.89,5.07,16.97-1.31,23.35-6.38,6.38-16.46,6.82-23.35,1.31,.4,.51,.84,1,1.31,1.46,6.85,6.85,17.96,6.85,24.82,0,6.85-6.85,6.85-17.96,0-24.82" style="fill: #fff;"/>
</svg>