<?xml version="1.0" encoding="UTF-8"?>
<svg id="Calque_1" data-name="Calque 1" xmlns="http://www.w3.org/2000/svg" viewBox="0 0 69.67 69.67">
  <path d="M34.83,69.67c19.24,0,34.84-15.61,34.84-34.84S54.07,0,34.83,0,0,15.61,0,34.83s15.6,34.84,34.83,34.84" style="fill: #009C99;"/>
  <polygon points="9.21 14.81 12.29 14.81 15.66 23.42 15.69 23.42 16.69 14.81 18.96 14.81 17.52 27.2 14.56 27.2 11.09 18.38 11.06 18.38 10.04 27.2 7.78 27.2 9.21 14.81" style="fill: #fff;"/>
  <path d="M23.88,26.13h-.03c-.29,.45-.65,.78-1.07,.98-.43,.2-.86,.3-1.31,.3-.33,0-.64-.06-.93-.17-.29-.11-.54-.28-.75-.5-.21-.22-.36-.5-.46-.82-.1-.33-.12-.71-.07-1.14,.09-.74,.32-1.3,.69-1.71,.37-.4,.81-.7,1.32-.89,.51-.19,1.04-.31,1.6-.34,.56-.03,1.06-.05,1.52-.05,.05-.47-.05-.84-.29-1.11-.24-.27-.55-.41-.93-.41s-.7,.09-1.01,.27c-.31,.18-.61,.43-.88,.74l-.99-1.43c.46-.45,.97-.8,1.53-1.02,.57-.23,1.14-.34,1.72-.34,.64,0,1.15,.1,1.55,.29,.39,.19,.69,.48,.89,.85,.2,.37,.32,.83,.36,1.37,.03,.54,0,1.17-.08,1.88l-.49,4.32h-2l.12-1.07Zm-.23-2.66c-.17,0-.37,0-.62,.03-.25,.02-.49,.07-.73,.15-.24,.08-.45,.2-.62,.37-.18,.16-.28,.39-.31,.68-.02,.16,0,.3,.04,.41,.05,.11,.12,.21,.2,.29,.09,.08,.19,.14,.31,.18s.24,.05,.36,.05c.21,0,.42-.04,.63-.11,.21-.07,.4-.17,.57-.3,.17-.13,.31-.29,.43-.49,.12-.2,.19-.43,.22-.7l.06-.56h-.54Z" style="fill: #fff;"/>
  <polygon points="27.38 18.69 29.73 18.69 30.84 24.47 30.87 24.47 33.21 18.69 35.4 18.69 31.62 27.2 29.31 27.2 27.38 18.69" style="fill: #fff;"/>
  <path d="M42.05,25.73c-.41,.54-.89,.95-1.46,1.24-.57,.29-1.14,.44-1.71,.44s-1.04-.11-1.5-.32c-.45-.21-.83-.51-1.14-.9-.3-.39-.53-.86-.67-1.41-.14-.55-.17-1.16-.1-1.84,.08-.68,.25-1.29,.52-1.84,.27-.55,.6-1.02,.99-1.41,.4-.39,.85-.69,1.35-.9,.5-.21,1.03-.32,1.57-.32,.5,0,.95,.1,1.34,.32,.39,.21,.7,.51,.94,.9,.24,.39,.41,.86,.5,1.41,.09,.55,.1,1.16,.02,1.84l-.1,.82h-5.05c.03,.5,.17,.9,.43,1.2,.26,.3,.6,.45,1.02,.45,.36,0,.67-.1,.94-.29,.27-.19,.51-.44,.73-.74l1.36,1.35Zm-1.41-3.74c.06-.44-.02-.82-.23-1.14-.21-.32-.52-.47-.92-.47-.24,0-.46,.05-.65,.14-.19,.09-.36,.21-.51,.36-.14,.15-.27,.32-.36,.51-.1,.19-.17,.39-.2,.6h2.88Z" style="fill: #fff;"/>
  <path d="M49.09,20.79h-1.92l-.33,2.83c-.03,.23-.04,.45-.04,.64s.03,.36,.08,.5c.05,.14,.15,.25,.28,.32,.13,.08,.31,.11,.54,.11,.12,0,.27-.01,.46-.04,.19-.03,.34-.1,.44-.2l-.25,2.19c-.25,.1-.51,.17-.78,.21-.27,.04-.52,.05-.78,.05-.37,0-.7-.05-1-.14s-.55-.24-.76-.45c-.21-.2-.36-.47-.45-.8-.09-.33-.11-.72-.07-1.19l.48-4.04h-1.4l.25-2.1h1.39l.29-2.52h2.18l-.29,2.52h1.92l-.25,2.1Z" style="fill: #fff;"/>
  <path d="M55,20.79h-1.92l-.33,2.83c-.03,.23-.04,.45-.04,.64s.03,.36,.08,.5c.05,.14,.15,.25,.28,.32,.13,.08,.31,.11,.54,.11,.12,0,.27-.01,.46-.04,.19-.03,.34-.1,.44-.2l-.25,2.19c-.25,.1-.51,.17-.78,.21-.27,.04-.52,.05-.78,.05-.37,0-.7-.05-1-.14s-.55-.24-.76-.45c-.21-.2-.36-.47-.45-.8-.09-.33-.11-.72-.07-1.19l.48-4.04h-1.4l.25-2.1h1.39l.29-2.52h2.18l-.29,2.52h1.92l-.25,2.1Z" style="fill: #fff;"/>
  <path d="M62.21,25.73c-.41,.54-.89,.95-1.46,1.24-.57,.29-1.14,.44-1.71,.44s-1.04-.11-1.5-.32c-.45-.21-.83-.51-1.14-.9-.3-.39-.53-.86-.67-1.41-.14-.55-.17-1.16-.1-1.84,.08-.68,.25-1.29,.52-1.84,.27-.55,.6-1.02,.99-1.41,.4-.39,.85-.69,1.35-.9,.5-.21,1.03-.32,1.57-.32,.5,0,.95,.1,1.34,.32,.39,.21,.7,.51,.94,.9,.24,.39,.41,.86,.5,1.41,.09,.55,.1,1.16,.02,1.84l-.1,.82h-5.05c.03,.5,.17,.9,.43,1.2,.26,.3,.6,.45,1.02,.45,.36,0,.67-.1,.94-.29,.27-.19,.51-.44,.73-.74l1.36,1.35Zm-1.41-3.74c.06-.44-.02-.82-.23-1.14-.21-.32-.52-.47-.92-.47-.24,0-.46,.05-.65,.14-.19,.09-.36,.21-.51,.36-.14,.15-.27,.32-.36,.51-.1,.19-.17,.39-.2,.6h2.88Z" style="fill: #fff;"/>
  <path d="M18.12,35.53c-.19-.33-.44-.58-.74-.75-.3-.17-.66-.26-1.09-.26s-.83,.1-1.22,.3c-.39,.2-.73,.48-1.04,.83-.31,.36-.56,.78-.77,1.27-.21,.49-.35,1.02-.41,1.59-.07,.58-.06,1.12,.04,1.6,.09,.48,.25,.9,.46,1.26,.22,.36,.49,.63,.83,.83,.33,.2,.7,.3,1.11,.3,.47,0,.89-.12,1.28-.35,.39-.23,.72-.56,1-.98l1.69,1.7c-.52,.74-1.14,1.28-1.85,1.63-.71,.35-1.41,.52-2.12,.52-.8,0-1.53-.15-2.17-.45-.64-.3-1.18-.74-1.61-1.3-.43-.57-.73-1.25-.92-2.06-.18-.8-.22-1.7-.1-2.69,.12-.99,.36-1.89,.73-2.7s.84-1.49,1.39-2.06,1.19-1,1.91-1.3c.72-.3,1.48-.45,2.28-.45,.29,0,.59,.03,.89,.1,.31,.06,.6,.17,.89,.31,.29,.14,.56,.33,.82,.56,.26,.23,.47,.52,.65,.86l-1.95,1.71Z" style="fill: #fff;"/>
  <path d="M26.85,43.22c-.41,.54-.89,.95-1.46,1.24-.57,.29-1.13,.44-1.71,.44s-1.04-.11-1.5-.32c-.46-.21-.83-.51-1.14-.9-.31-.39-.53-.86-.67-1.41-.14-.55-.17-1.16-.1-1.84,.08-.68,.25-1.29,.52-1.84,.27-.55,.6-1.02,1-1.41,.4-.39,.85-.69,1.35-.9,.5-.21,1.03-.32,1.57-.32,.5,0,.95,.1,1.34,.32,.39,.21,.7,.51,.94,.9,.24,.39,.41,.86,.5,1.41,.09,.55,.1,1.16,.02,1.84l-.1,.82h-5.05c.03,.5,.17,.9,.43,1.2,.26,.3,.6,.45,1.02,.45,.36,0,.67-.1,.94-.29,.27-.19,.51-.44,.73-.74l1.36,1.35Zm-1.41-3.74c.06-.44-.02-.82-.23-1.14-.21-.32-.52-.47-.92-.47-.24,0-.46,.05-.65,.14-.19,.09-.36,.21-.51,.36-.15,.15-.27,.32-.36,.51-.1,.19-.17,.39-.2,.6h2.88Z" style="fill: #fff;"/>
  <path d="M29.33,36.19h2.09l-.13,1.15h.03c.09-.16,.2-.33,.35-.49s.31-.31,.49-.44c.18-.13,.39-.23,.62-.32,.23-.08,.48-.12,.74-.12,.55,0,.99,.1,1.31,.31,.32,.2,.55,.49,.7,.85,.15,.36,.22,.79,.23,1.28,0,.49-.02,1.02-.09,1.59l-.54,4.69h-2.18l.48-4.17c.03-.24,.05-.5,.07-.76,.02-.26,0-.5-.04-.73-.05-.22-.14-.4-.28-.54-.14-.14-.34-.21-.62-.21s-.52,.06-.71,.18c-.19,.12-.34,.29-.46,.49-.12,.2-.2,.43-.26,.69-.06,.26-.1,.53-.13,.81l-.49,4.23h-2.18l.99-8.5Z" style="fill: #fff;"/>
  <path d="M42.23,38.29h-1.92l-.33,2.83c-.03,.23-.04,.45-.04,.64s.03,.36,.08,.5c.05,.14,.14,.25,.28,.32,.13,.08,.31,.11,.54,.11,.12,0,.27-.01,.46-.04,.19-.03,.34-.1,.44-.2l-.25,2.19c-.25,.1-.51,.17-.78,.21-.27,.03-.52,.05-.78,.05-.37,0-.7-.05-1-.14s-.55-.24-.76-.45c-.21-.2-.36-.47-.45-.8-.09-.33-.11-.72-.07-1.19l.48-4.04h-1.4l.25-2.1h1.39l.29-2.52h2.18l-.29,2.52h1.92l-.25,2.1Z" style="fill: #fff;"/>
  <path d="M43.58,36.19h2.18l-.16,1.36h.03c.29-.52,.61-.92,.96-1.18,.35-.26,.76-.39,1.25-.39,.13,0,.25,0,.38,.02,.13,.01,.24,.03,.35,.07l-.28,2.4c-.15-.06-.31-.1-.45-.13-.15-.03-.3-.04-.47-.04-.42,0-.75,.07-1.02,.21-.26,.14-.47,.33-.62,.59s-.27,.55-.35,.9c-.08,.35-.15,.74-.2,1.15l-.41,3.55h-2.18l.99-8.5Z" style="fill: #fff;"/>
  <path d="M55.34,43.22c-.41,.54-.89,.95-1.46,1.24-.57,.29-1.14,.44-1.71,.44s-1.04-.11-1.5-.32c-.45-.21-.83-.51-1.14-.9-.3-.39-.53-.86-.67-1.41-.14-.55-.17-1.16-.1-1.84,.08-.68,.25-1.29,.52-1.84,.27-.55,.6-1.02,.99-1.41,.4-.39,.85-.69,1.35-.9,.5-.21,1.03-.32,1.57-.32,.5,0,.95,.1,1.34,.32,.39,.21,.7,.51,.94,.9,.24,.39,.41,.86,.5,1.41,.09,.55,.1,1.16,.02,1.84l-.1,.82h-5.05c.03,.5,.17,.9,.43,1.2,.26,.3,.6,.45,1.02,.45,.36,0,.67-.1,.94-.29,.27-.19,.51-.44,.73-.74l1.36,1.35Zm-1.41-3.74c.06-.44-.02-.82-.23-1.14-.21-.32-.52-.47-.92-.47-.24,0-.46,.05-.65,.14-.19,.09-.36,.21-.51,.36-.14,.15-.27,.32-.36,.51-.1,.19-.17,.39-.2,.6h2.88Z" style="fill: #fff;"/>
  <polygon points="60.38 41.39 56.81 41.39 57.06 39.29 60.63 39.29 60.38 41.39" style="fill: #fff;"/>
  <polygon points="21.35 49.8 23.94 49.8 25.54 57.92 25.57 57.92 29.1 49.8 31.52 49.8 25.84 62.19 24.03 62.19 21.35 49.8" style="fill: #fff;"/>
  <path d="M31.9,53.69h2.18l-.99,8.5h-2.18l.99-8.5Zm.13-2.68c.03-.21,.09-.41,.17-.6,.09-.19,.2-.35,.33-.48,.13-.13,.28-.24,.44-.32,.16-.08,.33-.12,.51-.12,.35,0,.63,.15,.84,.45,.21,.3,.29,.66,.24,1.08-.02,.21-.07,.41-.16,.6-.09,.19-.2,.35-.33,.48-.13,.13-.28,.24-.44,.32-.16,.08-.33,.12-.51,.12s-.33-.04-.48-.12c-.15-.08-.27-.19-.36-.32-.1-.13-.17-.29-.21-.48-.04-.19-.06-.39-.04-.6" style="fill: #fff;"/>
  <polygon points="36.23 48.96 38.4 48.96 36.86 62.19 34.69 62.19 36.23 48.96" style="fill: #fff;"/>
  <polygon points="40 48.96 42.18 48.96 40.64 62.19 38.46 62.19 40 48.96" style="fill: #fff;"/>
  <path d="M49.05,60.72c-.41,.54-.89,.95-1.46,1.24-.57,.29-1.14,.44-1.71,.44s-1.04-.11-1.5-.32c-.45-.21-.83-.51-1.14-.9-.3-.39-.53-.86-.67-1.41-.14-.55-.17-1.16-.1-1.84,.08-.68,.25-1.29,.52-1.84,.27-.55,.6-1.02,.99-1.41,.4-.39,.85-.69,1.35-.9,.5-.21,1.03-.32,1.57-.32,.5,0,.95,.1,1.34,.32,.39,.21,.7,.51,.94,.9,.24,.39,.41,.86,.5,1.41,.09,.55,.1,1.16,.02,1.84l-.1,.82h-5.05c.03,.5,.17,.9,.43,1.2,.26,.3,.6,.45,1.02,.45,.36,0,.67-.1,.94-.29,.27-.19,.51-.44,.73-.74l1.36,1.35Zm-1.41-3.74c.06-.44-.02-.82-.23-1.14-.21-.32-.52-.47-.92-.47-.24,0-.46,.05-.65,.14-.19,.09-.36,.21-.51,.36-.14,.15-.27,.32-.36,.51-.1,.19-.17,.39-.2,.6h2.88Z" style="fill: #fff;"/>
</svg>