<?xml version="1.0" encoding="UTF-8"?><svg id="a" xmlns="http://www.w3.org/2000/svg" viewBox="0 0 15.47 15.47"><defs><style>.b{fill:#f0869d;}.c{fill:#1d1d1b;}</style></defs><path class="b" d="M7.73,15.47c4.27,0,7.74-3.47,7.74-7.74S12,0,7.73,0,0,3.47,0,7.73s3.46,7.74,7.73,7.74"/><path class="c" d="M6.93,5.22h-2.45l-.03,1.19c.13-.06,.32-.09,.55-.09,.31,0,.6,.06,.86,.17,.26,.12,.49,.29,.68,.51,.19,.22,.34,.49,.44,.81,.11,.32,.16,.67,.16,1.06,0,.44-.06,.83-.18,1.17-.12,.34-.28,.63-.49,.87-.21,.24-.46,.42-.75,.54-.29,.12-.6,.18-.94,.18-.54,0-.98-.16-1.34-.49-.36-.33-.61-.82-.74-1.48l1.37-.39c.03,.28,.13,.5,.28,.67,.15,.17,.34,.26,.57,.26,.28,0,.5-.11,.67-.33,.17-.22,.25-.49,.25-.83,0-.26-.04-.46-.13-.63-.08-.16-.19-.29-.33-.39-.14-.1-.29-.16-.46-.2-.17-.04-.34-.05-.51-.05-.22,0-.43,.02-.65,.08-.22,.05-.43,.12-.63,.21l.07-4.26h3.74v1.44Z"/><path class="c" d="M10.25,8.75c-.07,.02-.14,.04-.21,.05-.07,.01-.14,.02-.22,.02-.29,0-.55-.07-.79-.2-.24-.13-.44-.31-.61-.53-.17-.23-.3-.49-.39-.8-.09-.31-.14-.64-.14-.99,0-.4,.06-.76,.18-1.09,.12-.32,.28-.6,.49-.83,.21-.23,.45-.41,.73-.54,.28-.13,.58-.19,.91-.19s.62,.06,.9,.19,.53,.31,.73,.54c.21,.23,.37,.51,.49,.83,.12,.32,.18,.69,.18,1.09,0,.28-.02,.53-.06,.76-.04,.23-.1,.44-.16,.65-.07,.2-.14,.4-.24,.58-.09,.19-.18,.38-.28,.57l-1.35,2.64h-1.6l1.45-2.76Zm-1.06-2.38c0,.35,.09,.64,.27,.87s.42,.34,.72,.34,.54-.12,.72-.34,.27-.52,.27-.87-.09-.64-.27-.87-.42-.34-.72-.34-.54,.12-.72,.34-.27,.52-.27,.87"/></svg>