<?xml version="1.0" encoding="UTF-8"?>
<svg id="Calque_1" data-name="Calque 1" xmlns="http://www.w3.org/2000/svg" xmlns:xlink="http://www.w3.org/1999/xlink" viewBox="0 0 28.05 28.05">
  <defs>
    <clipPath id="clippath">
      <rect width="28.05" height="28.05" style="fill: none;"/>
    </clipPath>
  </defs>
  <g style="clip-path: url(#clippath);">
    <path d="M14.03,26.39h0c-6.83,0-12.37-5.54-12.37-12.37S7.2,1.66,14.03,1.66s12.37,5.54,12.37,12.37-5.54,12.37-12.37,12.37" style="fill: #ffdd06;"/>
  </g>
  <path d="M14.03,26.39h0c-6.83,0-12.37-5.54-12.37-12.37S7.2,1.66,14.03,1.66s12.37,5.54,12.37,12.37-5.54,12.37-12.37,12.37Z" style="fill: none; stroke: #1d1e1b; stroke-miterlimit: 10; stroke-width: .78px;"/>
  <g>
    <path d="M12.37,8.94c-.21-.26-.48-.46-.78-.6-.31-.14-.67-.21-1.08-.21s-.78,.08-1.13,.24c-.35,.16-.65,.38-.9,.66-.25,.28-.45,.62-.6,1.01-.14,.39-.22,.81-.22,1.26s.07,.89,.22,1.27c.14,.38,.34,.72,.59,1,.25,.28,.54,.5,.88,.66,.34,.16,.7,.24,1.09,.24,.44,0,.84-.09,1.18-.28,.34-.18,.63-.45,.85-.78l1.81,1.35c-.42,.58-.95,1.01-1.59,1.29-.64,.28-1.3,.42-1.97,.42-.77,0-1.48-.12-2.13-.36-.65-.24-1.21-.59-1.68-1.04-.47-.45-.84-.99-1.1-1.63-.26-.64-.4-1.35-.4-2.14s.13-1.5,.4-2.14c.26-.64,.63-1.19,1.1-1.63,.47-.45,1.03-.79,1.68-1.04,.65-.24,1.36-.36,2.13-.36,.28,0,.57,.02,.87,.08,.3,.05,.6,.13,.89,.24,.29,.11,.57,.26,.84,.44,.27,.19,.51,.41,.72,.68l-1.67,1.36Z" style="fill: #3c3c3b;"/>
    <polygon points="19.84 8.3 14.97 8.3 14.97 6.38 22.17 6.38 22.17 8.21 18.24 16.22 15.81 16.22 19.84 8.3" style="fill: #3c3c3b;"/>
    <path d="M13.21,22.2c-.28,.35-.63,.63-1.05,.82-.42,.19-.86,.29-1.32,.29s-.84-.07-1.22-.21c-.38-.14-.71-.34-1-.6s-.5-.57-.67-.93c-.16-.36-.24-.77-.24-1.22s.08-.85,.24-1.22c.16-.36,.38-.67,.67-.93,.28-.26,.61-.46,1-.6,.38-.14,.79-.21,1.22-.21,.4,0,.77,.07,1.09,.21,.33,.14,.61,.34,.83,.6,.23,.26,.4,.57,.53,.93,.12,.36,.19,.77,.19,1.22v.55h-4.03c.07,.33,.22,.6,.45,.79,.23,.2,.52,.3,.86,.3,.29,0,.53-.06,.72-.19,.2-.13,.37-.29,.52-.49l1.22,.89Zm-1.47-2.48c0-.29-.09-.54-.29-.75-.2-.21-.46-.31-.78-.31-.19,0-.36,.03-.51,.09-.15,.06-.27,.14-.38,.24-.1,.1-.19,.21-.24,.34-.06,.13-.09,.26-.1,.4h2.29Z" style="fill: #3c3c3b;"/>
    <polygon points="16.05 20.16 14.17 17.54 16.22 17.54 17.22 19.07 18.18 17.54 20.11 17.54 18.28 20.16 20.45 23.17 18.4 23.17 17.17 21.29 15.85 23.17 13.82 23.17 16.05 20.16" style="fill: #3c3c3b;"/>
  </g>
</svg>