<?xml version="1.0" encoding="UTF-8"?><svg id="a" xmlns="http://www.w3.org/2000/svg" viewBox="0 0 17.61 17.61"><defs><style>.b{fill:#fff;}.c{fill:#702283;}</style></defs><path class="c" d="M8.8,17.61c4.86,0,8.8-3.94,8.8-8.81S13.66,0,8.8,0,0,3.95,0,8.8s3.94,8.81,8.8,8.81"/><path class="b" d="M7.89,5.95h-2.79l-.03,1.35c.15-.07,.36-.1,.62-.1,.36,0,.68,.07,.98,.2,.3,.13,.55,.33,.77,.58,.21,.25,.38,.56,.5,.92,.12,.36,.18,.76,.18,1.21,0,.5-.07,.94-.2,1.33-.14,.39-.32,.72-.56,.99-.24,.27-.52,.47-.85,.61-.33,.14-.68,.21-1.07,.21-.61,0-1.12-.19-1.53-.56-.41-.37-.69-.93-.84-1.69l1.56-.45c.04,.32,.15,.57,.32,.76,.17,.19,.39,.29,.65,.29,.32,0,.57-.12,.76-.37,.19-.25,.28-.56,.28-.94,0-.29-.05-.53-.14-.71-.1-.19-.22-.34-.38-.45s-.33-.19-.52-.23c-.19-.04-.39-.06-.58-.06-.24,0-.49,.03-.74,.09-.25,.06-.49,.14-.72,.24l.08-4.85H7.89v1.64Z"/><polygon class="b" points="11.49 6.4 10.08 7.95 9.24 6.73 11.53 4.31 12.92 4.31 12.92 13.1 11.49 13.1 11.49 6.4"/></svg>