<?xml version="1.0" encoding="UTF-8"?><svg id="a" xmlns="http://www.w3.org/2000/svg" viewBox="0 0 15.77 15.78"><defs><style>.b{fill:#fff;}.c{fill:#008BD2;}.d{fill:none;stroke:#1d1d1b;stroke-width:.31px;}</style></defs><path class="c" d="M7.89,15.62c4.27,0,7.73-3.46,7.73-7.74S12.16,.15,7.89,.15,.15,3.62,.15,7.89s3.46,7.74,7.73,7.74"/><path class="d" d="M7.89,15.62c4.27,0,7.73-3.46,7.73-7.74S12.16,.15,7.89,.15,.15,3.62,.15,7.89s3.46,7.74,7.73,7.74Z"/><path class="b" d="M5.23,8.9c-.07,.02-.14,.04-.21,.05-.07,.01-.14,.02-.22,.02-.29,0-.56-.07-.79-.2-.24-.13-.44-.31-.61-.53-.17-.23-.3-.49-.39-.8-.09-.31-.14-.64-.14-.99,0-.4,.06-.76,.18-1.09,.12-.32,.28-.6,.49-.83,.21-.23,.45-.41,.73-.54,.28-.13,.58-.19,.91-.19s.62,.06,.9,.19c.28,.13,.53,.31,.73,.54,.21,.23,.37,.51,.49,.83,.12,.32,.18,.69,.18,1.09,0,.28-.02,.53-.06,.76-.04,.23-.09,.44-.16,.65-.07,.2-.15,.4-.24,.58-.09,.19-.18,.38-.28,.57l-1.35,2.64h-1.6l1.45-2.76Zm-1.06-2.38c0,.35,.09,.64,.27,.87s.42,.34,.72,.34,.54-.12,.72-.34c.18-.23,.28-.52,.28-.87s-.09-.64-.28-.87c-.18-.23-.42-.34-.72-.34s-.54,.12-.72,.34-.27,.52-.27,.87"/><path class="b" d="M8.03,7.8c0-.46,.03-.92,.1-1.4,.07-.47,.19-.9,.36-1.29,.17-.39,.41-.7,.7-.94,.3-.24,.67-.37,1.13-.37s.84,.12,1.14,.37c.3,.24,.53,.56,.7,.94,.17,.39,.29,.82,.36,1.29,.07,.47,.1,.94,.1,1.4s-.03,.92-.1,1.4c-.07,.47-.19,.9-.36,1.29-.17,.39-.41,.7-.7,.94-.3,.24-.67,.36-1.14,.36s-.84-.12-1.13-.36c-.3-.24-.53-.56-.7-.94-.17-.39-.29-.81-.36-1.29-.07-.47-.1-.94-.1-1.4m1.31,0c0,.2,0,.45,.02,.73,.01,.28,.05,.56,.12,.82,.06,.26,.16,.48,.29,.67,.13,.18,.32,.27,.55,.27s.42-.09,.55-.27c.13-.18,.23-.4,.3-.67,.06-.26,.1-.53,.12-.82,.02-.28,.02-.53,.02-.73s0-.45-.02-.73c-.01-.28-.05-.56-.12-.82-.06-.26-.16-.48-.3-.67-.13-.18-.32-.27-.55-.27s-.42,.09-.55,.27c-.13,.18-.23,.4-.29,.67-.06,.26-.1,.53-.12,.82s-.02,.53-.02,.73"/></svg>