<?xml version="1.0" encoding="UTF-8"?><svg id="a" xmlns="http://www.w3.org/2000/svg" viewBox="0 0 8.87 8.87"><defs><style>.b{fill:#fff;}.c{fill:#e4003a;}</style></defs><path class="c" d="M4.44,8.87c2.45,0,4.44-1.99,4.44-4.44S6.89,0,4.44,0,0,1.99,0,4.43s1.99,4.44,4.44,4.44"/><path class="b" d="M2.83,3.75s.08-.02,.12-.03c.04,0,.08-.01,.12-.01,.17,0,.32,.04,.46,.11,.14,.07,.25,.18,.35,.31,.1,.13,.17,.28,.23,.46,.05,.18,.08,.37,.08,.57,0,.23-.03,.44-.1,.62-.07,.19-.16,.35-.28,.48-.12,.13-.26,.24-.42,.31-.16,.07-.33,.11-.52,.11s-.36-.04-.52-.11c-.16-.07-.3-.18-.42-.31-.12-.13-.21-.29-.28-.48-.07-.18-.1-.39-.1-.62,0-.16,.01-.3,.04-.43,.02-.13,.05-.26,.09-.37,.04-.12,.08-.23,.14-.33,.05-.11,.11-.22,.16-.33l.78-1.51h.92l-.83,1.58Zm.61,1.36c0-.2-.05-.37-.16-.5-.11-.13-.24-.2-.41-.2s-.31,.06-.41,.2c-.11,.13-.16,.3-.16,.5s.05,.37,.16,.5c.1,.13,.24,.2,.41,.2s.31-.06,.41-.2c.1-.13,.16-.3,.16-.5"/><polygon class="b" points="6.29 3.03 4.54 3.03 4.54 2.17 7.13 2.17 7.13 2.99 5.71 6.6 4.84 6.6 6.29 3.03"/></svg>