<?xml version="1.0" encoding="UTF-8"?>
<svg id="Calque_1" data-name="Calque 1" xmlns="http://www.w3.org/2000/svg" xmlns:xlink="http://www.w3.org/1999/xlink" viewBox="0 0 44.63 44.63">
  <defs>
    <clipPath id="clippath">
      <path d="M0,22.31C0,34.64,9.99,44.63,22.31,44.63s22.31-9.99,22.31-22.31S34.64,0,22.31,0,0,9.99,0,22.31" style="fill: none;"/>
    </clipPath>
  </defs>
  <g style="clip-path: url(#clippath);">
    <path d="M44.63,22.31c0,12.32-9.99,22.31-22.31,22.31S0,34.64,0,22.31,9.99,0,22.31,0s22.31,9.99,22.31,22.31" style="fill: #D39D2F;"/>
    <polygon points="7.03 12.59 11.68 12.59 18.29 26.08 18.33 26.08 18.33 12.59 21.75 12.59 21.75 32.01 17.28 32.01 10.5 18.19 10.46 18.19 10.46 32.01 7.03 32.01 7.03 12.59" style="fill: #141515;"/>
    <path d="M26.98,20.24h1.08c.31,0,.61-.03,.9-.08s.56-.16,.8-.31c.24-.16,.44-.38,.58-.66,.15-.28,.22-.65,.22-1.11,0-.59-.19-1.07-.56-1.45-.37-.38-.83-.58-1.37-.58s-.94,.17-1.27,.52c-.34,.35-.56,.78-.66,1.29l-3.62-.93c.18-.84,.44-1.56,.79-2.15,.35-.59,.77-1.07,1.25-1.44,.48-.37,1.02-.63,1.61-.81,.59-.18,1.22-.26,1.88-.26s1.35,.11,1.99,.32c.64,.21,1.19,.54,1.68,.99s.87,1.01,1.15,1.69c.29,.67,.43,1.48,.43,2.41,0,1.08-.23,2-.68,2.77-.45,.77-1.11,1.26-1.97,1.48v.08c.47,.07,.88,.25,1.24,.52,.36,.27,.66,.61,.91,1.01,.25,.4,.44,.86,.57,1.37,.13,.51,.2,1.05,.2,1.62,0,.97-.15,1.82-.45,2.55-.3,.73-.7,1.34-1.21,1.83-.51,.48-1.1,.84-1.78,1.08-.68,.24-1.4,.36-2.16,.36-1.39,0-2.58-.4-3.59-1.21-1-.81-1.66-2.08-1.98-3.81l3.46-1.01c.12,.69,.36,1.24,.71,1.64,.36,.4,.89,.6,1.59,.6s1.25-.23,1.59-.7c.34-.47,.52-1.06,.52-1.8,0-.55-.09-.97-.28-1.27-.18-.3-.42-.52-.71-.67-.29-.15-.62-.23-.99-.26-.37-.03-.73-.04-1.1-.04h-.77v-3.57Z" style="fill: #141515;"/>
    <path d="M36.12,12.07c-.47-.47-.97-.92-1.48-1.32,5.57,6.96,5.13,17.15-1.32,23.6-6.45,6.45-16.64,6.89-23.6,1.32,.41,.51,.85,1.01,1.32,1.48,6.93,6.93,18.16,6.93,25.08,0,6.93-6.92,6.93-18.15,0-25.08" style="fill: #141515;"/>
  </g>
</svg>