<svg xmlns="http://www.w3.org/2000/svg" xmlns:xlink="http://www.w3.org/1999/xlink" version="1.1" id="Calque_1" x="0px" y="0px" viewBox="0 0 750 750" style="enable-background:new 0 0 750 750;" xml:space="preserve">
<g>
	<path style="fill:#FFFFFF;" d="M354.005,0.073c13.497,0,26.995,0,40.492,0c3.914,0.825,7.928,0.62,11.851,0.644   c17.701,0.108,34.96,3.22,52.123,7.078c22.696,5.102,44.774,12.139,66.08,21.522c24.516,10.796,47.829,23.695,69.537,39.463   c14.351,10.424,27.952,21.683,40.828,33.907c22.286,21.157,41.596,44.68,58.061,70.595c17.701,27.86,31.536,57.506,41.47,88.982   c6.433,20.382,11.032,41.191,13.798,62.357c1.159,8.869,1.134,17.897,1.32,26.868c0.017,0.844-0.28,1.755,0.364,2.516   c0,14.247,0,28.494,0,42.742c-0.946,6.28-0.81,12.635-1.031,18.945c-0.474,13.541-3.173,26.714-5.97,39.87   c-7.289,34.284-19.529,66.775-36.045,97.656c-11.211,20.961-24.422,40.609-39.396,59.07c-8.494,10.471-17.414,20.591-27.04,30.01   c-24.546,24.017-51.596,44.754-81.661,61.501c-28.288,15.757-58.023,27.924-89.386,35.893c-20.665,5.25-41.525,9.602-63.049,9.604   c-3.41,0-6.948-0.255-10.353,0.633c-14.247,0-28.495,0-42.742,0c-6.279-0.946-12.632-0.791-18.943-1.034   c-13.155-0.506-25.972-3.063-38.772-5.734c-23.395-4.882-46.066-12.129-68.021-21.563c-26.006-11.175-50.583-24.914-73.46-41.609   c-13.816-10.082-26.794-21.141-39.236-32.917c-18.016-17.052-33.868-35.873-48.231-56.024   c-12.13-17.018-22.472-35.083-31.519-53.901c-14.628-30.428-24.599-62.324-30.727-95.524c-2.731-14.796-3.475-29.664-3.899-44.61   c-0.017-0.611,0.109-1.254-0.374-1.767c0-13.747,0-27.495,0-41.242c1.048-6.147,0.754-12.38,1.026-18.566   c0.687-15.653,3.849-30.88,7.233-46.085c7.231-32.491,19.19-63.238,34.836-92.535c12.019-22.506,26.382-43.501,42.709-63.118   c7.262-8.726,14.868-17.197,22.963-25.125c23.794-23.301,49.833-43.71,78.857-60.253c30.33-17.287,62.308-30.346,96.19-38.749   c13.682-3.393,27.513-6.079,41.485-7.833c8.515-1.069,17.157-0.919,25.743-1.303C352.081,0.393,353.115,0.761,354.005,0.073z"/>
	<path style="fill:#098A40;" d="M731.18,375.19c-0.025,196.624-159.729,356.073-356.558,355.987   c-196.333-0.085-355.923-160-355.734-356.459C19.077,178.083,178.893,18.692,375.663,18.889   C571.863,19.087,731.205,178.781,731.18,375.19z"/>
	<path style="fill:#FFFFFF;" d="M326.244,559.816c-1.044,1.2-0.553,2.637-0.558,3.946c-0.044,10.87-0.096,21.742,0.031,32.61   c0.027,2.344-0.652,2.893-2.934,2.886c-26.489-0.081-52.978-0.086-79.466,0.004c-2.459,0.008-3.185-0.636-3.145-3.11   c0.141-8.869,0.055-17.742,0.055-26.613c0-144.438-0.002-288.877,0.007-433.315c0-5.364-0.599-4.715,4.86-4.719   c27.988-0.019,55.977,0.054,83.964-0.092c3.314-0.017,4.103,0.804,4.097,4.107c-0.108,63.348-0.08,126.696-0.08,190.045   c0,0.75-0.095,1.515,0.024,2.245c0.15,0.919-0.632,2.26,0.486,2.689c1.366,0.525,1.814-1.035,2.445-1.831   c6.822-8.606,14.823-15.865,24.332-21.397c14.381-8.367,30.188-12.327,46.468-14.53c19.343-2.617,38.621-2.397,57.592,2.849   c22.862,6.321,42.325,18.53,58.164,35.924c31.868,34.995,44.848,77.059,44.336,123.757c-0.351,32.021-8.009,62.108-25.767,89.015   c-22.426,33.98-54.369,53.532-94.339,60.163c-16.358,2.714-32.837,3.622-49.163,0.015c-27.583-6.094-50.824-19.51-68.551-41.862   C328.29,561.577,327.879,560.075,326.244,559.816z"/>
	<path style="fill:#098A40;" d="M325.812,450.053c0.106-17.238,3.128-32.731,12.138-46.621   c10.029-15.461,24.129-24.894,42.173-28.532c15.062-3.036,30.078-2.887,44.876,1.24c21.974,6.128,36.657,20.584,44.059,41.781   c7.522,21.543,7.446,43.527-1.134,64.845c-9.873,24.529-28.685,37.965-54.717,41.34c-15.445,2.002-30.767,1.187-45.312-4.796   c-22.364-9.198-34.755-26.705-40.034-49.776C326.322,462.807,326.018,455.94,325.812,450.053z"/>
</g>
</svg>