<?xml version="1.0" encoding="UTF-8"?>
<svg id="Calque_1" data-name="Calque 1" xmlns="http://www.w3.org/2000/svg" viewBox="0 0 69.67 69.67">
  <path d="M34.83,69.67c19.24,0,34.84-15.61,34.84-34.85S54.06,0,34.83,0,0,15.61,0,34.83s15.6,34.85,34.83,34.85" style="fill: #008BD2;"/>
  <g>
    <path d="M19.89,30.89h1.86c.53,0,1.05-.05,1.56-.14,.51-.1,.97-.28,1.39-.55,.42-.27,.76-.65,1.01-1.14,.25-.49,.38-1.13,.38-1.92,0-1.01-.32-1.85-.97-2.52-.65-.67-1.44-1-2.38-1-.89,0-1.62,.3-2.21,.9-.58,.6-.96,1.35-1.14,2.24l-6.27-1.62c.3-1.46,.76-2.7,1.37-3.73,.61-1.03,1.33-1.86,2.17-2.5,.84-.63,1.77-1.1,2.8-1.4,1.03-.3,2.11-.45,3.25-.45s2.34,.18,3.44,.55c1.1,.37,2.07,.94,2.91,1.71,.84,.78,1.5,1.75,2,2.92,.49,1.17,.74,2.57,.74,4.18,0,1.87-.39,3.47-1.18,4.8-.79,1.33-1.93,2.19-3.42,2.57v.14c.81,.13,1.53,.43,2.15,.9,.62,.48,1.15,1.07,1.58,1.76,.43,.7,.76,1.49,.99,2.38,.23,.89,.34,1.82,.34,2.8,0,1.68-.26,3.15-.78,4.42-.52,1.27-1.22,2.32-2.09,3.16-.88,.84-1.9,1.47-3.08,1.88-1.18,.41-2.43,.62-3.75,.62-2.41,0-4.48-.7-6.22-2.09-1.74-1.39-2.88-3.6-3.44-6.61l6.01-1.76c.2,1.2,.61,2.15,1.24,2.85,.62,.7,1.54,1.05,2.76,1.05s2.16-.4,2.76-1.21c.6-.81,.89-1.85,.89-3.11,0-.95-.16-1.69-.47-2.21-.32-.52-.73-.91-1.24-1.17-.51-.25-1.08-.4-1.71-.45-.63-.05-1.27-.07-1.9-.07h-1.33v-6.18Z" style="fill: #fff;"/>
    <path d="M36.43,26.33c0-1.55,.23-2.91,.7-4.07,.47-1.16,1.12-2.12,1.94-2.9,.82-.78,1.78-1.36,2.87-1.74,1.09-.38,2.26-.57,3.5-.57s2.41,.19,3.5,.57c1.09,.38,2.04,.96,2.85,1.74,.81,.78,1.46,1.74,1.94,2.9,.48,1.16,.72,2.51,.72,4.07,0,1.84-.4,3.41-1.2,4.71-.8,1.3-1.92,2.22-3.37,2.76v.1c1.62,.54,2.87,1.52,3.73,2.92,.86,1.41,1.29,3.16,1.29,5.25,0,1.62-.26,3.04-.78,4.28-.52,1.24-1.22,2.26-2.09,3.07-.87,.81-1.88,1.42-3.02,1.83-1.14,.41-2.33,.62-3.57,.62s-2.43-.21-3.57-.62c-1.14-.41-2.15-1.02-3.02-1.83-.88-.81-1.57-1.83-2.09-3.07-.52-1.24-.78-2.66-.78-4.28,0-2.09,.43-3.84,1.29-5.25,.86-1.41,2.1-2.38,3.73-2.92v-.1c-1.44-.54-2.57-1.46-3.37-2.76-.8-1.3-1.2-2.87-1.2-4.71m5.25,14.74c0,1.17,.34,2.17,1.03,2.99,.68,.82,1.6,1.24,2.74,1.24s2.05-.41,2.74-1.24c.69-.83,1.03-1.82,1.03-2.99s-.34-2.22-1.03-3.04c-.69-.82-1.6-1.24-2.74-1.24s-2.05,.41-2.74,1.24c-.69,.82-1.03,1.84-1.03,3.04m.46-13.74c0,1.05,.3,1.93,.91,2.66,.61,.73,1.41,1.09,2.4,1.09s1.79-.37,2.4-1.09c.61-.73,.91-1.62,.91-2.66s-.3-1.89-.91-2.61c-.61-.73-1.41-1.1-2.4-1.1s-1.79,.37-2.4,1.1c-.61,.73-.91,1.6-.91,2.61" style="fill: #fff;"/>
  </g>
</svg>