<?xml version="1.0" encoding="UTF-8"?><svg id="a" xmlns="http://www.w3.org/2000/svg" viewBox="0 0 15.03 15.03"><defs><style>.b{fill:#fff;}.c{fill:#e4003a;}</style></defs><path class="c" d="M7.51,15.03c4.15,0,7.52-3.37,7.52-7.52S11.66,0,7.51,0,0,3.37,0,7.51s3.36,7.52,7.51,7.52"/><path class="b" d="M4.79,6.36c.07-.02,.14-.04,.2-.05,.07-.01,.14-.02,.21-.02,.28,0,.54,.06,.77,.19,.23,.13,.43,.3,.59,.52,.16,.22,.29,.48,.38,.78,.09,.3,.14,.62,.14,.96,0,.39-.06,.74-.17,1.05-.12,.31-.27,.58-.47,.81s-.44,.4-.71,.52c-.27,.12-.57,.18-.88,.18s-.61-.06-.88-.18c-.27-.12-.51-.3-.71-.52-.2-.23-.36-.5-.47-.81-.12-.31-.17-.67-.17-1.05,0-.27,.02-.51,.06-.74,.04-.22,.09-.43,.16-.63,.06-.2,.14-.39,.23-.57,.09-.18,.18-.36,.28-.56l1.31-2.56h1.55l-1.41,2.68Zm1.03,2.31c0-.34-.09-.62-.27-.84-.18-.22-.41-.33-.7-.33s-.52,.11-.7,.33c-.18,.22-.27,.5-.27,.84s.09,.62,.27,.84c.18,.22,.41,.33,.7,.33s.52-.11,.7-.33c.18-.22,.27-.5,.27-.84"/><polygon class="b" points="9.82 5.46 8.61 6.78 7.89 5.75 9.85 3.68 11.04 3.68 11.04 11.18 9.82 11.18 9.82 5.46"/></svg>