<?xml version="1.0" encoding="UTF-8"?><svg id="a" xmlns="http://www.w3.org/2000/svg" viewBox="0 0 48.75 48.76"><defs><style>.b{fill:#ffffff;}</style></defs><path class="b" d="M24.39,48.76C10.95,48.76,0,37.83,0,24.4S10.95,0,24.39,0s24.36,10.95,24.36,24.4-10.92,24.36-24.36,24.36m0-45.42C12.78,3.34,3.34,12.78,3.34,24.4s9.44,21.03,21.05,21.03,21.03-9.44,21.03-21.03S35.99,3.34,24.39,3.34"/><path class="b" d="M29.04,33.04h-.1c-1.71,2.7-4.82,3.78-7.98,3.78-4.71,0-8.95-2.69-8.95-7.76,0-8.69,10.56-8.85,17.03-8.85,0-2.74-2.28-4.5-4.97-4.5-2.54,0-4.67,1.14-6.32,3l-4.14-4.24c2.85-2.69,6.99-4.03,11.08-4.03,9.06,0,11.5,4.6,11.5,12.98v12.78h-7.15v-3.16Zm-1.91-7.86c-2.39,0-7.67,.2-7.67,3.62,0,1.86,1.97,2.74,3.68,2.74,3.05,0,5.9-1.6,5.9-4.71v-1.65h-1.91Z"/></svg>