<?xml version="1.0" encoding="UTF-8"?><svg id="a" xmlns="http://www.w3.org/2000/svg" viewBox="0 0 48.77 48.76"><defs><style>.b{fill:#95C11E;}</style></defs><path class="b" d="M39.59,48.76H9.18c-5.07,0-9.18-4.11-9.18-9.18V9.17C0,4.11,4.11,0,9.18,0h30.41c5.07,0,9.18,4.11,9.18,9.17v30.41c0,5.07-4.11,9.18-9.18,9.18"/><path d="M20.95,17.28c-.53-.8-1.17-1.42-1.94-1.85s-1.66-.65-2.67-.65-1.95,.25-2.81,.74c-.86,.48-1.61,1.17-2.24,2.04-.63,.88-1.13,1.92-1.48,3.12-.36,1.21-.54,2.52-.54,3.93s.18,2.75,.54,3.94c.35,1.19,.84,2.22,1.46,3.1,.62,.87,1.35,1.56,2.19,2.04,.84,.49,1.74,.74,2.7,.74,1.11,0,2.08-.29,2.93-.87,.85-.57,1.55-1.37,2.1-2.41l4.49,4.18c-1.04,1.81-2.35,3.15-3.94,4.01-1.58,.86-3.21,1.29-4.89,1.29-1.9,0-3.66-.37-5.27-1.12-1.61-.75-3-1.82-4.17-3.21-1.17-1.39-2.08-3.08-2.74-5.06-.65-1.98-.98-4.19-.98-6.63s.33-4.66,.98-6.64c.66-1.98,1.57-3.67,2.74-5.06,1.17-1.39,2.56-2.46,4.17-3.21,1.61-.74,3.37-1.12,5.27-1.12,.69,0,1.41,.08,2.16,.24,.74,.16,1.48,.41,2.2,.75,.73,.35,1.42,.81,2.09,1.38,.66,.57,1.26,1.28,1.79,2.11l-4.14,4.22Z"/><polygon points="36.05 16.6 31.16 21.98 28.23 17.76 36.19 9.36 41.01 9.36 41.01 39.86 36.05 39.86 36.05 16.6"/></svg>