<?xml version="1.0" encoding="UTF-8"?>
<svg id="Calque_1" data-name="Calque 1" xmlns="http://www.w3.org/2000/svg" xmlns:xlink="http://www.w3.org/1999/xlink" viewBox="0 0 25.51 25.51">
  <defs>
    <clipPath id="clippath">
      <rect y="0" width="25.51" height="25.51" style="fill: none;"/>
    </clipPath>
  </defs>
  <g style="clip-path: url(#clippath);">
    <path d="M20.41,25.51H5.1C2.29,25.51,0,23.23,0,20.41V5.1C0,2.29,2.29,0,5.1,0h15.31c2.82,0,5.1,2.29,5.1,5.1v15.31c0,2.82-2.28,5.1-5.1,5.1" style="fill: #D39D2F;"/>
  </g>
  <g>
    <path d="M11,8.87c-.28-.42-.62-.75-1.02-.97-.4-.23-.87-.34-1.4-.34s-1.02,.13-1.48,.38c-.45,.26-.85,.62-1.18,1.08-.33,.46-.59,1.01-.78,1.64-.19,.63-.28,1.32-.28,2.06s.09,1.45,.28,2.07c.19,.63,.44,1.17,.77,1.63,.33,.46,.71,.82,1.15,1.08,.44,.26,.92,.38,1.42,.38,.58,0,1.09-.15,1.54-.45,.45-.3,.82-.73,1.1-1.27l2.36,2.2c-.54,.95-1.23,1.65-2.07,2.11-.83,.45-1.69,.68-2.57,.68-1,0-1.93-.2-2.77-.59-.84-.39-1.58-.96-2.19-1.69-.62-.73-1.1-1.62-1.44-2.66-.34-1.04-.52-2.2-.52-3.49s.17-2.45,.52-3.49c.35-1.04,.82-1.93,1.44-2.66,.62-.73,1.35-1.29,2.19-1.69,.85-.39,1.77-.59,2.77-.59,.36,0,.74,.04,1.13,.12,.39,.08,.78,.21,1.16,.4,.38,.18,.75,.42,1.1,.72,.35,.3,.66,.67,.94,1.11l-2.17,2.22Z" style="fill: #1d1e1b;"/>
    <polygon points="20.72 7.82 14.38 7.82 14.38 4.7 23.77 4.7 23.77 7.69 18.64 20.73 15.47 20.73 20.72 7.82" style="fill: #1d1e1b;"/>
  </g>
</svg>