<?xml version="1.0" encoding="UTF-8"?>
<svg id="Calque_1" data-name="Calque 1" xmlns="http://www.w3.org/2000/svg" viewBox="0 0 69.67 69.67">
  <path d="M34.83,69.67c19.23,0,34.84-15.61,34.84-34.84S54.06,0,34.83,0,0,15.61,0,34.83s15.6,34.84,34.83,34.84" style="fill: #E4003A;"/>
  <g>
    <path d="M19.93,30.9h1.86c.53,0,1.05-.05,1.56-.14,.51-.1,.97-.28,1.39-.55,.42-.27,.75-.65,1.01-1.14s.38-1.13,.38-1.92c0-1.02-.32-1.85-.97-2.52-.65-.67-1.44-1-2.38-1s-1.62,.3-2.21,.9c-.58,.6-.96,1.35-1.14,2.23l-6.27-1.62c.31-1.45,.76-2.7,1.37-3.73,.61-1.03,1.33-1.86,2.17-2.49,.84-.63,1.77-1.1,2.8-1.4,1.03-.3,2.11-.45,3.25-.45s2.34,.18,3.44,.55c1.1,.37,2.07,.94,2.91,1.71,.84,.78,1.5,1.75,2,2.92,.49,1.17,.74,2.57,.74,4.18,0,1.87-.39,3.47-1.18,4.8-.79,1.33-1.93,2.19-3.42,2.57v.14c.81,.12,1.53,.43,2.15,.9,.62,.48,1.15,1.06,1.58,1.76,.43,.7,.76,1.49,.99,2.38,.23,.89,.34,1.82,.34,2.8,0,1.68-.26,3.15-.78,4.42-.52,1.27-1.22,2.32-2.09,3.16-.88,.84-1.9,1.47-3.08,1.88-1.18,.41-2.43,.62-3.74,.62-2.41,0-4.48-.7-6.22-2.09-1.74-1.39-2.88-3.6-3.44-6.61l6.01-1.76c.2,1.2,.61,2.16,1.24,2.85,.62,.7,1.54,1.05,2.76,1.05s2.16-.4,2.76-1.21c.6-.81,.89-1.85,.89-3.11,0-.95-.16-1.69-.47-2.21-.32-.52-.73-.91-1.24-1.16-.51-.25-1.08-.4-1.71-.45-.64-.05-1.27-.07-1.9-.07h-1.33v-6.18Z" style="fill: #fff;"/>
    <polygon points="48.94 24.2 35.63 24.2 35.63 17.64 55.33 17.64 55.33 23.92 44.57 51.3 37.91 51.3 48.94 24.2" style="fill: #fff;"/>
  </g>
</svg>