<?xml version="1.0" encoding="UTF-8"?><svg id="a" xmlns="http://www.w3.org/2000/svg" viewBox="0 0 17.61 17.61"><defs><style>.b{fill:#f0869d;}.c{fill:#1d1d1b;}</style></defs><path class="b" d="M8.8,17.61c4.86,0,8.81-3.94,8.81-8.81S13.66,0,8.8,0,0,3.95,0,8.8s3.94,8.81,8.8,8.81"/><polygon class="c" points="6.6 6.03 3.13 6.03 3.13 4.31 8.27 4.31 8.27 5.95 5.46 13.1 3.72 13.1 6.6 6.03"/><path class="c" d="M8.97,8.71c0-.52,.04-1.05,.11-1.59,.07-.54,.21-1.03,.41-1.46,.2-.44,.46-.8,.8-1.07,.34-.28,.77-.41,1.29-.41s.95,.14,1.29,.41c.34,.28,.6,.64,.8,1.07,.2,.44,.33,.93,.41,1.46,.08,.54,.11,1.07,.11,1.59s-.04,1.05-.11,1.59c-.08,.54-.21,1.03-.41,1.46-.2,.44-.46,.8-.8,1.07-.34,.28-.77,.42-1.29,.42s-.95-.14-1.29-.42c-.34-.28-.6-.63-.8-1.07-.2-.44-.33-.93-.41-1.46-.08-.54-.11-1.07-.11-1.59m1.49,0c0,.23,0,.51,.02,.83,.02,.32,.06,.63,.14,.93,.07,.3,.18,.55,.33,.76,.15,.21,.36,.31,.63,.31s.47-.1,.63-.31c.15-.21,.26-.46,.34-.76,.07-.3,.12-.61,.13-.93,.02-.32,.02-.6,.02-.83s0-.51-.02-.83c-.02-.32-.06-.63-.13-.93-.07-.3-.19-.55-.34-.76-.15-.21-.36-.31-.63-.31s-.48,.1-.63,.31c-.15,.21-.26,.46-.33,.76-.07,.3-.12,.61-.14,.93-.02,.32-.02,.6-.02,.83"/></svg>