<?xml version="1.0" encoding="UTF-8"?><svg id="a" xmlns="http://www.w3.org/2000/svg" viewBox="0 0 48.76 48.77"><defs><style>.b{fill:#fff;}.c{fill:#6F2282;}</style></defs><path class="c" d="M39.59,48.77H9.18c-5.07,0-9.18-4.11-9.18-9.18V9.18C0,4.11,4.11,0,9.18,0h30.41c5.07,0,9.17,4.11,9.17,9.18v30.41c0,5.07-4.1,9.18-9.17,9.18"/><path class="b" d="M20.95,17.77c-.53-.8-1.17-1.42-1.94-1.85s-1.66-.65-2.67-.65-1.95,.25-2.81,.74c-.86,.48-1.61,1.17-2.24,2.04-.64,.88-1.13,1.92-1.48,3.12-.36,1.21-.54,2.52-.54,3.92s.18,2.75,.54,3.94c.35,1.2,.84,2.23,1.46,3.11,.62,.87,1.35,1.55,2.19,2.04,.84,.49,1.74,.73,2.7,.73,1.11,0,2.08-.28,2.93-.86,.85-.57,1.55-1.37,2.1-2.41l4.48,4.18c-1.03,1.81-2.34,3.14-3.93,4.01-1.58,.86-3.21,1.29-4.89,1.29-1.9,0-3.66-.38-5.27-1.12-1.61-.75-3-1.82-4.17-3.21-1.17-1.39-2.08-3.08-2.74-5.06-.65-1.98-.98-4.19-.98-6.64s.33-4.65,.98-6.63c.66-1.98,1.57-3.67,2.74-5.06,1.17-1.39,2.56-2.46,4.17-3.21,1.61-.75,3.37-1.12,5.27-1.12,.69,0,1.41,.08,2.16,.24,.74,.15,1.48,.41,2.2,.75,.73,.34,1.42,.8,2.09,1.38,.66,.57,1.26,1.28,1.79,2.11l-4.14,4.22Z"/><path class="b" d="M37.59,34.23h-10.65v-5.43l9.96-18.95h5.65V28.8h3.14v5.43h-3.14v6.12h-4.96v-6.12Zm0-15.94h-.07l-5.41,10.51h5.48v-10.51Z"/></svg>