<?xml version="1.0" encoding="UTF-8"?><svg id="a" xmlns="http://www.w3.org/2000/svg" viewBox="0 0 48.76 48.76"><defs><style>.b{fill:#fff;}.c{fill:#BA65A5;}</style></defs><path class="c" d="M24.37,48.76c13.47,0,24.39-10.93,24.39-24.39S37.84,0,24.37,0,0,10.92,0,24.37s10.92,24.39,24.37,24.39"/><polygon class="b" points="15.68 17.86 11.87 22.06 9.59 18.77 15.79 12.23 19.54 12.23 19.54 35.97 15.68 35.97 15.68 17.86"/><path class="b" d="M26.24,30.74l7.23-8.11c.73-.86,1.65-1.84,1.65-3.26,0-1.57-1.08-2.52-2.29-2.52-1.44,0-2.31,1.28-2.41,2.95l-3.94-.36c.23-4.8,2.91-7.13,6.57-7.13,3.38,0,6.01,2.33,6.01,7,0,2.99-1.02,4.69-2.44,6.24l-5.65,6.07h8.25v4.34h-12.98v-5.22Z"/></svg>