<svg xmlns="http://www.w3.org/2000/svg" xmlns:xlink="http://www.w3.org/1999/xlink" version="1.1" id="Calque_1" x="0px" y="0px" viewBox="0 0 750 750" style="enable-background:new 0 0 750 750;" xml:space="preserve">
<g>
	<path style="fill:#FFFFFF;" d="M354.755,0.073c13.247,0,26.495,0,39.742,0c3.28,0.871,6.679,0.571,9.981,0.647   c42.602,0.978,82.688,12.519,121.445,29.192C556.337,42.994,584.422,60.1,610.2,80.965c8.735,7.07,17.077,14.533,25.26,22.23   c21.192,19.935,39.527,42.227,55.347,66.576c23.461,36.11,40.484,75.041,50.4,117.01c4.42,18.71,7.96,37.524,8.092,56.868   c0.025,3.667-0.245,7.445,0.63,11.104c0,13.747,0,27.495,0,41.242c-0.896,6.661-0.807,13.385-1.036,20.072   c-0.424,12.409-2.787,24.512-5.244,36.584c-4.968,24.407-12.491,48.069-22.393,70.909c-11.155,25.732-24.789,50.103-41.445,72.731   c-9.547,12.97-19.856,25.267-30.865,37.047c-25.163,26.923-53.798,49.359-85.607,67.858   c-29.649,17.243-61.136,30.022-94.278,38.698c-14.355,3.758-28.926,6.708-43.67,8.376c-9.266,1.048-18.651,1.198-28.002,1.289   c-0.725,0.007-1.506-0.204-2.142,0.367c-13.747,0-27.495,0-41.242,0c-6.66-0.896-13.382-0.75-20.071-1.05   c-13.264-0.595-26.227-3.043-39.139-5.805c-23.247-4.973-45.819-12.151-67.658-21.549c-14.689-6.321-28.901-13.608-42.747-21.624   c-17.541-10.157-33.956-21.934-49.589-34.768c-5.764-4.732-11.293-9.809-16.818-14.861c-7.107-6.498-13.693-13.469-20.248-20.474   c-11.261-12.033-21.454-24.949-30.968-38.409c-12.208-17.271-22.779-35.489-31.908-54.553   c-14.528-30.338-24.485-62.115-30.556-95.202c-2.692-14.673-3.384-29.426-3.86-44.244c-0.023-0.726,0.201-1.506-0.37-2.142   c0-13.497,0-26.995,0-40.492c0.946-6.28,0.808-12.634,1.033-18.945c0.529-14.784,3.359-29.192,6.479-43.558   c4.537-20.896,11.012-41.203,19.223-60.948c8.598-20.676,19.008-40.394,31.008-59.308c8.371-13.195,17.644-25.72,27.601-37.713   c5.086-6.125,10.416-12.081,15.926-17.877c15.247-16.039,31.641-30.761,49.403-43.928c23.042-17.081,47.712-31.363,74.038-42.831   c19.158-8.346,38.816-15.129,59.093-20.109c15.498-3.806,31.13-6.989,47.07-8.235c6.702-0.524,13.445-0.54,20.166-0.869   C352.328,0.373,353.605,0.82,354.755,0.073z"/>
	<path style="fill:#E6282A;" d="M374.897,731.178C178.43,731.155,18.812,571.464,18.878,374.996   C18.943,178.304,178.603,18.818,375.384,18.879c196.562,0.06,355.932,159.87,355.797,356.779   C731.046,571.873,571.375,731.202,374.897,731.178z"/>
	<path style="fill:#FFFFFF;" d="M546.718,443.348c0,35.488-0.032,70.976,0.061,106.464c0.007,2.817-0.549,3.743-3.601,3.731   c-32.114-0.126-64.228-0.119-96.342-0.008c-2.932,0.01-3.709-0.724-3.671-3.666c0.169-13.118,0.088-26.24,0.041-39.361   c-0.003-0.883,0.66-2.218-0.596-2.616c-1.212-0.384-1.607,0.987-2.105,1.75c-19.215,29.438-47.947,43.414-81.242,49.771   c-27.195,5.193-54.245,4.14-80.793-3.768c-35.285-10.51-61.834-31.322-75.408-66.496c-5.943-15.4-7.168-31.574-6.219-47.927   c0.801-13.794,3.248-27.256,9.19-39.868c9.912-21.037,25.562-36.657,45.576-48.177c21.281-12.249,44.582-18.536,68.417-23.122   c28.417-5.468,57.18-7.435,86.076-7.78c11.367-0.136,22.733-0.383,34.1-0.405c2.436-0.005,3.143-0.597,3.033-3.1   c-1.196-27.219-15.571-45.16-39.78-55.725c-21.662-9.453-43.935-8.031-65.978-1.475c-21.589,6.421-39.338,19.175-54.622,35.462   c-2.26,2.409-3.496,2.73-5.976,0.156c-18.025-18.716-36.175-37.314-54.42-55.816c-2.192-2.223-2.286-3.19,0.116-5.329   c27.959-24.913,60.623-40.454,96.866-48.862c40.408-9.374,81.04-9.98,121.462-0.88c53,11.932,85.148,45.343,97.538,98.007   c5.864,24.922,8.001,50.293,8.223,75.817C546.905,387.865,546.718,415.608,546.718,443.348z"/>
	<path style="fill:#E6282A;" d="M411.768,393.746c10.39,0,19.506-0.021,28.621,0.025c1.179,0.006,2.93-0.741,2.86,1.692   c-0.327,11.47,0.87,22.996-1.049,34.404c-2.633,15.651-10.436,28.382-23.365,37.376c-23.752,16.524-50.066,22.404-78.557,16.428   c-9.842-2.064-19.069-6.197-26.358-13.402c-14.257-14.092-11.969-41.451,4.033-54.074c14.491-11.431,31.371-16.536,49.159-19.431   C382.32,394.289,397.701,394.312,411.768,393.746z"/>
</g>
</svg>