<?xml version="1.0" encoding="UTF-8"?><svg id="a" xmlns="http://www.w3.org/2000/svg" viewBox="0 0 11.54 11.54"><defs><style>.b{fill:#F39200;}.c{fill:#1d1d1b;}</style></defs><path class="b" d="M5.77,11.54c3.19,0,5.77-2.58,5.77-5.77S8.96,0,5.77,0,0,2.58,0,5.77s2.58,5.77,5.77,5.77"/><path class="c" d="M5.17,3.89h-1.83l-.02,.89c.1-.04,.24-.07,.41-.07,.23,0,.45,.05,.64,.13,.19,.09,.36,.21,.5,.38,.14,.17,.25,.36,.33,.6,.08,.24,.12,.5,.12,.79,0,.33-.04,.62-.13,.87-.09,.26-.21,.47-.37,.65-.16,.18-.34,.31-.56,.4-.22,.09-.45,.14-.7,.14-.4,0-.73-.12-1-.36-.27-.24-.45-.61-.55-1.11l1.02-.29c.03,.21,.1,.37,.21,.5,.11,.13,.25,.19,.42,.19,.21,0,.37-.08,.5-.24,.12-.16,.18-.37,.18-.62,0-.19-.03-.35-.1-.47-.06-.12-.15-.22-.25-.29-.1-.07-.22-.12-.34-.15-.13-.03-.25-.04-.38-.04-.16,0-.32,.02-.49,.06-.16,.04-.32,.09-.47,.16l.05-3.18h2.79v1.07Z"/><path class="c" d="M9.02,3.89h-1.83l-.02,.89c.1-.04,.24-.07,.41-.07,.23,0,.45,.05,.64,.13,.19,.09,.36,.21,.5,.38,.14,.17,.25,.36,.33,.6,.08,.24,.12,.5,.12,.79,0,.33-.04,.62-.13,.87-.09,.26-.21,.47-.37,.65-.16,.18-.34,.31-.56,.4-.22,.09-.45,.14-.7,.14-.4,0-.73-.12-1-.36-.27-.24-.45-.61-.55-1.11l1.02-.29c.03,.21,.1,.37,.21,.5,.11,.13,.25,.19,.42,.19,.21,0,.37-.08,.5-.24,.12-.16,.18-.37,.18-.62,0-.19-.03-.35-.1-.47-.06-.12-.15-.22-.25-.29-.1-.07-.22-.12-.34-.15-.13-.03-.25-.04-.38-.04-.16,0-.32,.02-.49,.06-.16,.04-.32,.09-.47,.16l.05-3.18h2.79v1.07Z"/></svg>