<?xml version="1.0" encoding="UTF-8"?><svg id="a" xmlns="http://www.w3.org/2000/svg" viewBox="0 0 15.03 15.03"><defs><style>.b{fill:#fff;}.c{fill:#004f9f;}</style></defs><path class="c" d="M7.51,15.03c4.15,0,7.52-3.36,7.52-7.51S11.66,0,7.51,0,0,3.37,0,7.51s3.36,7.51,7.51,7.51"/><polygon class="b" points="5.64 5.14 2.67 5.14 2.67 3.68 7.06 3.68 7.06 5.08 4.66 11.18 3.18 11.18 5.64 5.14"/><path class="b" d="M7.79,9.5l2.33-2.62c.12-.13,.24-.29,.36-.46,.12-.17,.18-.37,.18-.59,0-.25-.07-.45-.22-.6-.15-.14-.32-.22-.52-.22-.24,0-.42,.09-.56,.28-.13,.18-.21,.41-.22,.68l-1.27-.12c.02-.39,.08-.73,.2-1.01,.11-.28,.26-.52,.45-.71,.19-.19,.4-.33,.66-.43,.25-.1,.52-.14,.82-.14,.27,0,.53,.05,.76,.14,.24,.09,.44,.24,.62,.42,.17,.19,.31,.42,.41,.7,.1,.28,.15,.61,.15,.99,0,.24-.02,.46-.06,.65-.04,.2-.1,.37-.17,.53-.07,.16-.15,.31-.25,.44-.1,.13-.2,.27-.31,.39l-1.82,1.96h2.66v1.4H7.79v-1.69Z"/></svg>