<?xml version="1.0" encoding="UTF-8"?>
<svg id="Calque_1" data-name="Calque 1" xmlns="http://www.w3.org/2000/svg" viewBox="0 0 73.29 73.3">
  <path d="M36.64,73.3c20.24,0,36.65-16.42,36.65-36.66S56.87,0,36.64,0,0,16.43,0,36.64s16.41,36.66,36.64,36.66" style="fill: #F39200;"/>
  <g>
    <path d="M20.92,32.5h1.96c.56,0,1.11-.05,1.64-.15,.53-.1,1.02-.29,1.46-.58,.44-.28,.79-.68,1.06-1.2,.27-.51,.4-1.19,.4-2.02,0-1.07-.34-1.95-1.02-2.65-.68-.7-1.51-1.05-2.5-1.05-.93,0-1.71,.32-2.32,.95-.61,.64-1.01,1.42-1.2,2.35l-6.6-1.7c.32-1.53,.8-2.84,1.44-3.93,.64-1.08,1.4-1.96,2.28-2.63,.88-.67,1.86-1.16,2.94-1.47,1.08-.32,2.22-.48,3.42-.48s2.46,.19,3.62,.57c1.16,.39,2.18,.99,3.06,1.8,.88,.82,1.58,1.84,2.1,3.08,.52,1.23,.78,2.7,.78,4.4,0,1.97-.41,3.65-1.24,5.05-.83,1.4-2.03,2.3-3.6,2.7v.15c.85,.13,1.6,.45,2.26,.95,.65,.5,1.21,1.12,1.66,1.85,.45,.73,.8,1.57,1.04,2.5,.24,.93,.36,1.92,.36,2.95,0,1.77-.27,3.32-.82,4.65-.55,1.33-1.28,2.44-2.2,3.32-.92,.88-2,1.54-3.24,1.98-1.24,.43-2.55,.65-3.94,.65-2.53,0-4.71-.73-6.54-2.2-1.83-1.47-3.03-3.79-3.62-6.95l6.32-1.85c.21,1.27,.65,2.27,1.3,3,.65,.73,1.62,1.1,2.9,1.1s2.27-.42,2.9-1.27c.63-.85,.94-1.94,.94-3.28,0-1-.17-1.77-.5-2.33-.33-.55-.77-.96-1.3-1.23-.53-.26-1.13-.42-1.8-.47-.67-.05-1.33-.07-2-.07h-1.4v-6.5Z" style="fill: #131414;"/>
    <path d="M49.29,46.86h-12.36v-6.3l11.56-22.01h6.56v22.01h3.64v6.3h-3.64v7.1h-5.76v-7.1Zm0-18.5h-.08l-6.28,12.2h6.36v-12.2Z" style="fill: #131414;"/>
  </g>
</svg>