<?xml version="1.0" encoding="UTF-8"?>
<svg id="Calque_1" data-name="Calque 1" xmlns="http://www.w3.org/2000/svg" viewBox="0 0 69.67 69.67">
  <path d="M34.83,69.67c19.24,0,34.84-15.61,34.84-34.85S54.06,0,34.83,0,0,15.61,0,34.83s15.6,34.85,34.83,34.85" style="fill: #BA65A5;"/>
  <g>
    <path d="M45.55,39.45c-.31,.1-.62,.18-.93,.24-.31,.06-.63,.1-.97,.1-1.29,0-2.46-.29-3.52-.87-1.06-.58-1.96-1.37-2.71-2.37-.75-1-1.33-2.19-1.74-3.55-.41-1.37-.62-2.83-.62-4.38,0-1.77,.26-3.38,.79-4.8,.53-1.43,1.25-2.67,2.17-3.7,.91-1.03,1.99-1.83,3.23-2.4,1.24-.56,2.58-.85,4.02-.85s2.75,.28,4,.85c1.25,.57,2.33,1.36,3.25,2.4,.92,1.03,1.64,2.26,2.17,3.7,.53,1.43,.79,3.04,.79,4.8,0,1.23-.09,2.35-.27,3.36-.18,1.02-.42,1.97-.71,2.87-.3,.91-.65,1.77-1.05,2.59-.4,.82-.82,1.67-1.26,2.54l-5.99,11.69h-7.08l6.42-12.23Zm-4.68-10.54c0,1.55,.41,2.83,1.22,3.84,.81,1.02,1.87,1.52,3.19,1.52s2.38-.51,3.19-1.52c.81-1.01,1.22-2.29,1.22-3.84s-.41-2.83-1.22-3.84c-.81-1.01-1.87-1.52-3.19-1.52s-2.38,.51-3.19,1.52c-.81,1.02-1.22,2.3-1.22,3.84" style="fill: #fff;"/>
    <path d="M19.89,30.9h1.86c.53,0,1.05-.05,1.56-.14,.51-.1,.97-.28,1.39-.55,.42-.27,.76-.65,1.01-1.14,.25-.49,.38-1.13,.38-1.92,0-1.01-.32-1.85-.97-2.52-.65-.67-1.44-1-2.38-1-.89,0-1.62,.3-2.21,.9-.58,.6-.96,1.35-1.14,2.24l-6.27-1.62c.3-1.46,.76-2.7,1.37-3.73s1.33-1.86,2.17-2.5c.84-.63,1.77-1.1,2.79-1.4,1.03-.3,2.11-.45,3.25-.45s2.34,.18,3.44,.55c1.1,.37,2.07,.94,2.91,1.71,.84,.78,1.5,1.75,2,2.92,.49,1.17,.74,2.57,.74,4.18,0,1.87-.39,3.47-1.18,4.8-.79,1.33-1.93,2.19-3.42,2.57v.15c.81,.13,1.53,.42,2.15,.9,.62,.48,1.15,1.06,1.58,1.76,.43,.7,.76,1.49,.99,2.38,.23,.89,.34,1.82,.34,2.8,0,1.68-.26,3.15-.78,4.42-.52,1.27-1.22,2.32-2.09,3.16-.88,.84-1.9,1.47-3.08,1.88-1.18,.41-2.43,.62-3.75,.62-2.41,0-4.48-.7-6.22-2.09-1.74-1.39-2.88-3.6-3.44-6.61l6.01-1.76c.2,1.2,.61,2.15,1.24,2.85,.62,.7,1.54,1.05,2.76,1.05s2.16-.4,2.76-1.21c.6-.81,.89-1.85,.89-3.11,0-.95-.16-1.69-.47-2.21-.32-.52-.73-.91-1.24-1.17-.51-.25-1.08-.4-1.71-.45-.63-.05-1.27-.07-1.9-.07h-1.33v-6.18Z" style="fill: #fff;"/>
  </g>
</svg>