<?xml version="1.0" encoding="UTF-8"?><svg id="a" xmlns="http://www.w3.org/2000/svg" viewBox="0 0 13.53 13.52"><defs><style>.b{fill:#fff;}.c{fill:#bb66a5;}</style></defs><path class="c" d="M6.76,13.52c3.73,0,6.76-3.03,6.76-6.76S10.5,0,6.76,0,0,3.03,0,6.76s3.03,6.76,6.76,6.76"/><path class="b" d="M4.3,5.71c.06-.02,.12-.04,.18-.05s.12-.02,.19-.02c.25,0,.49,.06,.69,.17,.21,.11,.39,.27,.53,.47,.15,.2,.26,.43,.34,.7,.08,.27,.12,.56,.12,.86,0,.35-.05,.67-.16,.95-.1,.28-.25,.53-.43,.73-.18,.2-.39,.36-.64,.47-.25,.11-.51,.17-.79,.17s-.55-.06-.79-.17c-.24-.11-.46-.27-.64-.47-.18-.2-.32-.45-.43-.73-.1-.28-.16-.6-.16-.95,0-.24,.02-.46,.05-.66,.04-.2,.08-.39,.14-.57,.06-.18,.13-.35,.21-.51,.08-.16,.16-.33,.25-.5l1.18-2.31h1.4l-1.27,2.41Zm.92,2.08c0-.31-.08-.56-.24-.76-.16-.2-.37-.3-.63-.3s-.47,.1-.63,.3c-.16,.2-.24,.45-.24,.76s.08,.56,.24,.76c.16,.2,.37,.3,.63,.3s.47-.1,.63-.3c.16-.2,.24-.45,.24-.76"/><path class="b" d="M10.58,4.56h-2.14l-.02,1.04c.12-.05,.28-.08,.48-.08,.27,0,.53,.05,.75,.15,.23,.1,.43,.25,.59,.44,.17,.19,.29,.43,.39,.71,.09,.28,.14,.59,.14,.93,0,.38-.05,.72-.16,1.02-.1,.3-.25,.55-.43,.76-.18,.21-.4,.36-.65,.47-.25,.11-.52,.16-.82,.16-.47,0-.86-.14-1.17-.43-.32-.29-.53-.72-.65-1.3l1.2-.34c.03,.24,.11,.44,.24,.59,.13,.15,.3,.22,.5,.22,.24,0,.44-.1,.58-.29,.14-.19,.22-.43,.22-.72,0-.22-.04-.4-.11-.55-.07-.14-.17-.26-.29-.34-.12-.09-.25-.14-.4-.18-.15-.03-.3-.05-.44-.05-.19,0-.38,.02-.57,.07-.19,.05-.38,.11-.55,.18l.06-3.73h3.27v1.26Z"/></svg>