<?xml version="1.0" encoding="UTF-8"?><svg id="a" xmlns="http://www.w3.org/2000/svg" viewBox="0 0 15.03 15.03"><defs><style>.b{fill:#fff;}.c{fill:#004f9f;}</style></defs><path class="c" d="M7.51,15.03c4.15,0,7.52-3.36,7.52-7.51S11.66,0,7.51,0,0,3.37,0,7.51s3.36,7.51,7.51,7.51"/><path class="b" d="M4.8,6.36c.07-.02,.14-.04,.2-.05,.07-.01,.14-.02,.21-.02,.28,0,.54,.06,.77,.19,.23,.13,.43,.3,.59,.52,.16,.22,.29,.48,.38,.78,.09,.3,.14,.62,.14,.96,0,.39-.06,.74-.17,1.05-.12,.32-.27,.59-.48,.81-.2,.23-.44,.4-.71,.52-.27,.12-.57,.19-.88,.19s-.61-.06-.88-.19c-.27-.12-.51-.3-.71-.52-.2-.23-.36-.5-.47-.81-.12-.31-.17-.66-.17-1.05,0-.27,.02-.51,.06-.74,.04-.22,.09-.43,.16-.63,.06-.2,.14-.39,.23-.57,.09-.18,.18-.36,.28-.56l1.31-2.56h1.55l-1.41,2.68Zm1.03,2.31c0-.34-.09-.62-.27-.84-.18-.22-.41-.33-.7-.33s-.52,.11-.7,.33c-.18,.22-.27,.5-.27,.84s.09,.62,.27,.84c.18,.22,.41,.33,.7,.33s.52-.11,.7-.33c.18-.22,.27-.5,.27-.84"/><path class="b" d="M7.8,9.5l2.33-2.62c.12-.13,.24-.29,.36-.46,.12-.17,.18-.37,.18-.59,0-.25-.07-.45-.22-.6-.15-.14-.32-.22-.52-.22-.24,0-.42,.09-.56,.27s-.21,.41-.22,.68l-1.27-.12c.02-.39,.08-.72,.2-1.01,.11-.29,.26-.52,.45-.71,.19-.19,.4-.33,.66-.43,.25-.1,.52-.14,.82-.14,.27,0,.53,.05,.76,.14,.24,.1,.44,.24,.62,.42,.17,.19,.31,.42,.41,.7,.1,.28,.15,.61,.15,.98,0,.24-.02,.46-.06,.65-.04,.19-.1,.37-.17,.53-.07,.16-.15,.31-.25,.44-.1,.13-.2,.26-.31,.39l-1.82,1.96h2.66v1.4H7.8v-1.69Z"/></svg>