<?xml version="1.0" encoding="UTF-8"?><svg id="a" xmlns="http://www.w3.org/2000/svg" viewBox="0 0 11.54 11.54"><defs><style>.b{fill:#fff;}.c{fill:#008bd2;}</style></defs><path class="c" d="M5.77,11.54c3.18,0,5.77-2.58,5.77-5.77S8.96,0,5.77,0,0,2.59,0,5.77s2.59,5.77,5.77,5.77"/><path class="b" d="M3.68,4.88c.05-.02,.1-.03,.16-.04,.05-.01,.11-.02,.16-.02,.22,0,.42,.05,.59,.15,.18,.1,.33,.23,.46,.4,.12,.17,.22,.37,.29,.6,.07,.23,.1,.48,.1,.74,0,.3-.04,.57-.13,.81-.09,.24-.21,.45-.36,.62-.15,.17-.34,.31-.55,.4-.21,.1-.43,.14-.67,.14s-.47-.05-.68-.14c-.21-.09-.39-.23-.54-.4-.15-.17-.28-.38-.37-.62-.09-.24-.13-.51-.13-.81,0-.21,.01-.39,.04-.57,.03-.17,.07-.33,.12-.48,.05-.15,.11-.3,.18-.43,.07-.14,.14-.28,.21-.43l1.01-1.97h1.19l-1.08,2.06Zm.79,1.77c0-.26-.07-.48-.21-.65-.14-.17-.32-.26-.54-.26s-.4,.09-.54,.26c-.14,.17-.21,.39-.21,.65s.07,.48,.21,.65c.14,.17,.32,.26,.54,.26s.4-.08,.54-.26c.14-.17,.21-.39,.21-.65"/><path class="b" d="M7.83,7.43h-2.01v-1.03l1.88-3.58h1.07v3.58h.59v1.03h-.59v1.15h-.94v-1.15Zm0-3.01h-.01l-1.02,1.99h1.04v-1.99Z"/></svg>