<?xml version="1.0" encoding="UTF-8"?><svg id="a" xmlns="http://www.w3.org/2000/svg" viewBox="0 0 13.53 13.52"><defs><style>.b{fill:#fff;}.c{fill:#008bd2;}</style></defs><path class="c" d="M6.76,13.52c3.73,0,6.76-3.03,6.76-6.76S10.49,0,6.76,0,0,3.03,0,6.76s3.03,6.76,6.76,6.76"/><path class="b" d="M2.56,5.05c0-.31,.05-.58,.14-.82,.09-.23,.22-.42,.39-.58,.17-.16,.36-.27,.58-.35,.22-.08,.45-.12,.7-.12s.48,.04,.7,.12c.22,.08,.41,.19,.57,.35,.16,.16,.29,.35,.39,.58,.1,.23,.14,.5,.14,.82,0,.37-.08,.68-.24,.94-.16,.26-.38,.45-.67,.55v.02c.32,.11,.57,.3,.75,.59,.17,.28,.26,.63,.26,1.05,0,.32-.05,.61-.16,.86-.1,.25-.24,.45-.42,.62-.18,.16-.38,.29-.61,.37-.23,.08-.47,.12-.72,.12s-.49-.04-.72-.12c-.23-.08-.43-.21-.61-.37-.18-.16-.32-.37-.42-.62-.1-.25-.16-.53-.16-.86,0-.42,.09-.77,.26-1.05,.17-.28,.42-.48,.75-.59v-.02c-.29-.11-.51-.29-.68-.55-.16-.26-.24-.58-.24-.94m1.05,2.96c0,.23,.07,.43,.21,.6,.14,.16,.32,.25,.55,.25s.41-.08,.55-.25c.14-.17,.21-.37,.21-.6s-.07-.45-.21-.61c-.14-.17-.32-.25-.55-.25s-.41,.08-.55,.25c-.14,.17-.21,.37-.21,.61m.09-2.76c0,.21,.06,.39,.18,.53,.12,.15,.28,.22,.48,.22s.36-.07,.48-.22c.12-.15,.18-.32,.18-.53s-.06-.38-.18-.52c-.12-.15-.28-.22-.48-.22s-.36,.07-.48,.22c-.12,.15-.18,.32-.18,.52"/><polygon class="b" points="8.83 4.91 7.74 6.1 7.1 5.17 8.86 3.31 9.93 3.31 9.93 10.06 8.83 10.06 8.83 4.91"/></svg>