<?xml version="1.0" encoding="UTF-8"?><svg id="a" xmlns="http://www.w3.org/2000/svg" viewBox="0 0 11.54 11.54"><defs><style>.b{fill:#fff;}.c{fill:#e4003a;}</style></defs><path class="c" d="M5.77,11.54c3.19,0,5.77-2.58,5.77-5.77S8.96,0,5.77,0,0,2.58,0,5.77s2.58,5.77,5.77,5.77"/><path class="b" d="M5.18,3.89h-1.83l-.02,.89c.1-.04,.24-.07,.41-.07,.23,0,.45,.05,.64,.13,.19,.09,.36,.21,.5,.38,.14,.17,.25,.36,.33,.6,.08,.24,.12,.5,.12,.79,0,.33-.04,.62-.13,.87-.09,.26-.21,.47-.37,.65-.16,.18-.34,.31-.56,.4-.22,.09-.45,.14-.7,.14-.4,0-.73-.12-1-.36-.27-.24-.45-.61-.55-1.11l1.02-.29c.03,.21,.1,.37,.21,.5,.11,.13,.25,.19,.42,.19,.21,0,.37-.08,.5-.24,.12-.16,.18-.37,.18-.62,0-.19-.03-.35-.1-.47-.06-.12-.15-.22-.25-.29-.1-.07-.22-.12-.34-.15-.13-.03-.25-.04-.38-.04-.16,0-.32,.02-.49,.06-.16,.04-.32,.09-.47,.16l.05-3.18h2.79v1.07Z"/><path class="b" d="M7.07,5.09h.32c.09,0,.18,0,.27-.02,.09-.02,.17-.05,.24-.09,.07-.05,.13-.11,.17-.2,.04-.08,.07-.2,.07-.33,0-.17-.06-.32-.17-.43-.11-.11-.25-.17-.41-.17s-.28,.05-.38,.15c-.1,.1-.17,.23-.2,.38l-1.07-.28c.05-.25,.13-.46,.23-.64,.11-.18,.23-.32,.37-.43,.14-.11,.3-.19,.48-.24,.18-.05,.36-.08,.56-.08,.2,0,.4,.03,.59,.09,.19,.06,.36,.16,.5,.29,.14,.13,.26,.3,.34,.5,.09,.2,.13,.44,.13,.71,0,.32-.07,.6-.2,.82-.13,.23-.33,.38-.58,.44v.03c.14,.02,.26,.07,.37,.15,.11,.08,.2,.18,.27,.3,.07,.12,.13,.26,.17,.41,.04,.15,.06,.31,.06,.48,0,.29-.04,.54-.13,.76-.09,.22-.21,.4-.36,.54-.15,.14-.33,.25-.53,.32-.2,.07-.42,.11-.64,.11-.41,0-.77-.12-1.07-.36-.3-.24-.49-.61-.59-1.13l1.03-.3c.03,.21,.1,.37,.21,.49,.11,.12,.26,.18,.47,.18s.37-.07,.47-.21c.1-.14,.15-.32,.15-.53,0-.16-.03-.29-.08-.38-.05-.09-.12-.16-.21-.2-.09-.04-.18-.07-.29-.08s-.22-.01-.32-.01h-.23v-1.06Z"/></svg>