<?xml version="1.0" encoding="UTF-8"?><svg id="a" xmlns="http://www.w3.org/2000/svg" viewBox="0 0 15.03 15.03"><defs><style>.b{fill:#fff;}.c{fill:#00893e;}</style></defs><path class="c" d="M7.51,15.03c4.15,0,7.52-3.36,7.52-7.51S11.66,0,7.51,0,0,3.37,0,7.51s3.37,7.51,7.51,7.51"/><polygon class="b" points="5.64 5.15 2.67 5.15 2.67 3.68 7.06 3.68 7.06 5.08 4.66 11.18 3.18 11.18 5.64 5.15"/><path class="b" d="M9.21,6.64h.41c.12,0,.23-.01,.35-.03,.11-.02,.22-.06,.31-.12,.09-.06,.17-.14,.23-.25,.06-.11,.08-.25,.08-.43,0-.23-.07-.41-.22-.56-.14-.15-.32-.22-.53-.22s-.36,.07-.49,.2c-.13,.13-.21,.3-.25,.5l-1.4-.36c.07-.32,.17-.6,.3-.83,.14-.23,.3-.41,.48-.55,.19-.14,.39-.25,.62-.31,.23-.07,.47-.1,.73-.1s.52,.04,.77,.12c.24,.08,.46,.21,.65,.38,.19,.17,.33,.39,.45,.65,.11,.26,.16,.57,.16,.93,0,.42-.09,.77-.26,1.07-.17,.3-.43,.49-.76,.57v.03c.18,.03,.34,.1,.48,.2,.14,.1,.26,.24,.35,.39,.1,.15,.17,.33,.22,.53,.05,.2,.08,.41,.08,.62,0,.38-.06,.7-.17,.98-.12,.28-.27,.52-.47,.71-.19,.19-.42,.33-.69,.42-.26,.09-.54,.14-.83,.14-.54,0-1-.16-1.39-.47-.39-.31-.64-.8-.77-1.47l1.34-.39c.04,.27,.14,.48,.28,.64,.14,.15,.34,.23,.61,.23s.48-.09,.62-.27c.13-.18,.2-.41,.2-.69,0-.21-.04-.38-.11-.49-.07-.11-.16-.2-.27-.26-.11-.05-.24-.09-.38-.1-.14-.01-.28-.02-.42-.02h-.3v-1.38Z"/></svg>