<?xml version="1.0" encoding="UTF-8"?><svg id="a" xmlns="http://www.w3.org/2000/svg" viewBox="0 0 11.54 11.54"><defs><style>.b{fill:#fff;}.c{fill:#00893e;}</style></defs><path class="c" d="M5.77,11.54c3.19,0,5.77-2.58,5.77-5.77S8.96,0,5.77,0,0,2.58,0,5.77s2.58,5.77,5.77,5.77"/><path class="b" d="M5.17,3.89h-1.83l-.02,.89c.1-.04,.24-.07,.41-.07,.23,0,.45,.05,.64,.13,.19,.09,.36,.21,.5,.38,.14,.17,.25,.36,.33,.6,.08,.24,.12,.5,.12,.79,0,.33-.04,.62-.13,.87-.09,.26-.21,.47-.37,.65-.16,.18-.34,.31-.56,.4-.22,.09-.45,.14-.7,.14-.4,0-.73-.12-1-.36-.27-.24-.45-.61-.55-1.11l1.02-.29c.03,.21,.1,.37,.21,.5,.11,.13,.25,.19,.42,.19,.21,0,.37-.08,.5-.24,.12-.16,.18-.37,.18-.62,0-.19-.03-.35-.1-.47-.06-.12-.15-.22-.25-.29-.1-.07-.22-.12-.34-.15-.13-.03-.25-.04-.38-.04-.16,0-.32,.02-.49,.06-.16,.04-.32,.09-.47,.16l.05-3.18h2.79v1.07Z"/><path class="b" d="M7.53,4.88c.05-.02,.1-.03,.16-.04,.05-.01,.11-.02,.16-.02,.22,0,.42,.05,.59,.15,.18,.1,.33,.23,.46,.4,.12,.17,.22,.37,.29,.6,.07,.23,.11,.48,.11,.74,0,.3-.05,.57-.13,.81-.09,.24-.21,.45-.36,.62-.15,.17-.34,.31-.55,.4-.21,.1-.43,.14-.67,.14s-.47-.05-.68-.14c-.21-.09-.39-.23-.54-.4-.15-.17-.28-.38-.37-.62-.09-.24-.13-.51-.13-.81,0-.21,.02-.39,.05-.57,.03-.17,.07-.33,.12-.48,.05-.15,.11-.3,.17-.43,.07-.14,.14-.28,.21-.43l1.01-1.97h1.19l-1.08,2.06Zm.79,1.77c0-.26-.07-.48-.21-.65-.14-.17-.32-.26-.54-.26s-.4,.09-.54,.26c-.14,.17-.2,.39-.2,.65s.07,.48,.2,.65c.14,.17,.32,.26,.54,.26s.4-.08,.54-.26c.14-.17,.21-.39,.21-.65"/></svg>