<?xml version="1.0" encoding="UTF-8"?>
<svg id="Calque_1" data-name="Calque 1" xmlns="http://www.w3.org/2000/svg" viewBox="0 0 61.15 61.15">
  <path d="M30.57,61.15c16.88,0,30.58-13.7,30.58-30.58S47.45,0,30.57,0,0,13.7,0,30.57s13.69,30.58,30.57,30.58" style="fill: #02509d;"/>
  <path d="M12.22,23.11c0-1.36,.2-2.55,.62-3.57,.41-1.02,.98-1.86,1.7-2.55,.72-.68,1.56-1.19,2.52-1.52,.96-.33,1.98-.5,3.07-.5s2.11,.17,3.07,.5c.96,.33,1.79,.84,2.5,1.52,.71,.68,1.28,1.53,1.7,2.55,.42,1.01,.63,2.2,.63,3.57,0,1.61-.35,2.99-1.05,4.13-.7,1.14-1.69,1.95-2.95,2.42v.08c1.42,.47,2.51,1.33,3.27,2.57,.76,1.24,1.13,2.78,1.13,4.61,0,1.42-.23,2.67-.68,3.75-.46,1.09-1.07,1.98-1.84,2.69-.77,.71-1.65,1.24-2.65,1.6-1,.36-2.05,.54-3.14,.54s-2.14-.18-3.14-.54c-1-.36-1.89-.9-2.65-1.6-.77-.71-1.38-1.61-1.84-2.69-.46-1.08-.68-2.34-.68-3.75,0-1.84,.38-3.37,1.14-4.61,.76-1.24,1.85-2.09,3.27-2.57v-.08c-1.27-.47-2.25-1.28-2.95-2.42-.7-1.14-1.05-2.52-1.05-4.13m4.6,12.93c0,1.03,.3,1.9,.9,2.63,.6,.72,1.4,1.08,2.4,1.08s1.8-.36,2.4-1.08c.6-.72,.9-1.6,.9-2.63s-.3-1.95-.9-2.67c-.6-.72-1.4-1.09-2.4-1.09s-1.8,.36-2.4,1.09c-.6,.72-.9,1.61-.9,2.67m.4-12.06c0,.92,.27,1.7,.8,2.34,.53,.64,1.23,.96,2.1,.96s1.57-.32,2.1-.96c.53-.64,.8-1.42,.8-2.34s-.27-1.65-.8-2.29c-.54-.64-1.24-.96-2.1-.96s-1.57,.32-2.1,.96c-.53,.64-.8,1.4-.8,2.29" style="fill: #fff;"/>
  <path d="M37.22,27.12h1.64c.47,0,.92-.04,1.37-.12,.44-.09,.85-.24,1.22-.48,.37-.24,.66-.57,.88-1,.22-.43,.34-.99,.34-1.69,0-.89-.29-1.63-.85-2.21-.57-.58-1.26-.88-2.09-.88-.78,0-1.43,.26-1.93,.79-.51,.53-.85,1.18-1,1.96l-5.51-1.42c.27-1.28,.67-2.37,1.2-3.27,.54-.9,1.17-1.63,1.9-2.19,.74-.55,1.55-.97,2.45-1.23,.9-.27,1.85-.4,2.85-.4s2.05,.16,3.02,.48c.97,.32,1.82,.82,2.55,1.5,.74,.68,1.32,1.54,1.75,2.57,.43,1.03,.65,2.25,.65,3.67,0,1.64-.35,3.05-1.04,4.22-.69,1.17-1.69,1.92-3.01,2.25v.13c.71,.11,1.34,.37,1.89,.79,.55,.42,1.01,.93,1.39,1.54,.38,.61,.67,1.31,.87,2.09,.2,.78,.3,1.6,.3,2.46,0,1.48-.23,2.77-.69,3.88-.46,1.11-1.07,2.04-1.83,2.77-.77,.74-1.67,1.29-2.7,1.65-1.04,.36-2.13,.54-3.29,.54-2.11,0-3.93-.61-5.46-1.83-1.53-1.23-2.53-3.16-3.02-5.8l5.27-1.54c.18,1.06,.54,1.89,1.09,2.5,.54,.61,1.35,.92,2.42,.92s1.9-.35,2.42-1.07c.52-.71,.78-1.62,.78-2.73,0-.84-.14-1.48-.42-1.94-.28-.46-.64-.8-1.08-1.02-.44-.22-.95-.35-1.5-.4-.56-.04-1.11-.06-1.67-.06h-1.17v-5.42Z" style="fill: #fff;"/>
</svg>