<?xml version="1.0" encoding="UTF-8"?>
<svg id="Calque_1" data-name="Calque 1" xmlns="http://www.w3.org/2000/svg" viewBox="0 0 69.67 69.67">
  <path d="M34.83,69.67c19.24,0,34.84-15.61,34.84-34.84S54.06,0,34.83,0,0,15.61,0,34.83s15.6,34.84,34.83,34.84" style="fill: #EF859D;"/>
  <polygon points="22.5 25.52 17.04 31.52 13.77 26.81 22.65 17.44 28.03 17.44 28.03 51.47 22.5 51.47 22.5 25.52" style="fill: #1d1e1b;"/>
  <path d="M35.45,34.45c0-2.02,.15-4.07,.44-6.15,.29-2.08,.82-3.97,1.58-5.67,.76-1.7,1.79-3.08,3.1-4.16,1.31-1.07,2.97-1.61,5-1.61s3.69,.54,5,1.61c1.31,1.07,2.34,2.46,3.1,4.16,.76,1.7,1.28,3.59,1.58,5.67,.29,2.08,.44,4.13,.44,6.15s-.15,4.07-.44,6.15c-.3,2.08-.82,3.97-1.58,5.67-.76,1.7-1.79,3.08-3.1,4.16-1.31,1.07-2.97,1.61-5,1.61s-3.69-.54-5-1.61c-1.31-1.07-2.34-2.46-3.1-4.16-.76-1.7-1.28-3.59-1.58-5.67-.29-2.08-.44-4.13-.44-6.15m5.77,0c0,.9,.03,1.97,.1,3.22s.24,2.45,.52,3.6c.28,1.15,.71,2.13,1.29,2.93,.58,.8,1.39,1.2,2.44,1.2s1.83-.4,2.42-1.2,1.02-1.78,1.31-2.93c.28-1.15,.45-2.35,.52-3.6,.06-1.25,.1-2.32,.1-3.22s-.03-1.97-.1-3.22c-.06-1.25-.24-2.45-.52-3.6-.28-1.15-.72-2.13-1.31-2.93s-1.4-1.2-2.42-1.2-1.86,.4-2.44,1.2c-.58,.8-1.01,1.78-1.29,2.93-.28,1.15-.46,2.36-.52,3.6s-.1,2.32-.1,3.22" style="fill: #1d1e1b;"/>
</svg>