<?xml version="1.0" encoding="UTF-8"?>
<svg id="Calque_1" data-name="Calque 1" xmlns="http://www.w3.org/2000/svg" xmlns:xlink="http://www.w3.org/1999/xlink" viewBox="0 0 44.63 44.63">
  <defs>
    <clipPath id="clippath">
      <path d="M0,22.31C0,34.64,9.99,44.63,22.31,44.63s22.31-9.99,22.31-22.31S34.64,0,22.31,0,0,9.99,0,22.31" style="fill: none;"/>
    </clipPath>
  </defs>
  <g style="clip-path: url(#clippath);">
    <path d="M44.63,22.31c0,12.32-9.99,22.31-22.31,22.31S0,34.64,0,22.31,9.99,0,22.31,0s22.31,9.99,22.31,22.31" style="fill: #FFCC00;"/>
    <polygon points="7.03 12.59 11.68 12.59 18.29 26.08 18.33 26.08 18.33 12.59 21.75 12.59 21.75 32.01 17.28 32.01 10.5 18.19 10.46 18.19 10.46 32.01 7.03 32.01 7.03 12.59" style="fill: #141515;"/>
    <path d="M33.58,16.21h-6.16l-.07,2.99c.34-.15,.8-.22,1.38-.22,.79,0,1.51,.15,2.17,.44,.66,.29,1.23,.72,1.7,1.27,.47,.56,.85,1.23,1.11,2.03,.26,.8,.39,1.69,.39,2.68,0,1.1-.15,2.07-.45,2.93-.3,.86-.71,1.59-1.24,2.18-.53,.6-1.15,1.05-1.88,1.36-.73,.31-1.51,.47-2.36,.47-1.35,0-2.47-.41-3.38-1.23-.91-.82-1.53-2.07-1.86-3.73l3.44-.99c.09,.7,.32,1.26,.7,1.69,.38,.43,.86,.64,1.43,.64,.7,0,1.26-.27,1.68-.82,.42-.55,.63-1.24,.63-2.09,0-.64-.11-1.16-.32-1.58-.21-.41-.49-.74-.84-.99-.34-.25-.73-.41-1.15-.51-.42-.09-.85-.14-1.27-.14-.54,0-1.09,.06-1.64,.19-.55,.13-1.08,.3-1.59,.52l.18-10.72h9.39v3.62Z" style="fill: #141515;"/>
    <path d="M36.12,12.07c-.47-.47-.97-.92-1.48-1.32,5.57,6.96,5.13,17.15-1.32,23.6-6.45,6.45-16.64,6.89-23.6,1.32,.41,.51,.85,1.01,1.32,1.48,6.93,6.93,18.16,6.93,25.08,0,6.93-6.92,6.93-18.15,0-25.08" style="fill: #141515;"/>
  </g>
</svg>