<?xml version="1.0" encoding="UTF-8"?>
<svg id="Calque_1" data-name="Calque 1" xmlns="http://www.w3.org/2000/svg" viewBox="0 0 61.15 61.15">
  <path d="M30.57,61.15c16.88,0,30.57-13.69,30.57-30.58S47.45,0,30.57,0,0,13.7,0,30.57s13.68,30.58,30.57,30.58" style="fill: #FFCC00;"/>
  <path d="M27.67,21.87h-9.12l-.1,4.42c.55-.24,1.17-.32,2.05-.32,4.64,0,7.95,3.61,7.95,9.49,0,6.49-3.73,10.26-8.76,10.26-3.96,0-6.75-2.48-7.76-7.34l5.1-1.46c.26,2.07,1.46,3.45,3.15,3.45,2.08,0,3.41-1.83,3.41-4.3,0-3.77-2.76-4.75-5.29-4.75-1.59,0-3.25,.41-4.77,1.05l.26-15.86h13.89v5.36Z" style="fill: #1d1d1b;"/>
  <path d="M39.71,16.03c6.82,0,8.54,8.03,8.54,14.85s-1.72,14.85-8.54,14.85-8.54-8.03-8.54-14.85,1.72-14.85,8.54-14.85m0,24.1c3.51,0,3.67-6.25,3.67-9.25s-.16-9.25-3.67-9.25-3.67,6.25-3.67,9.25,.16,9.25,3.67,9.25" style="fill: #1d1d1b;"/>
</svg>