<?xml version="1.0" encoding="UTF-8"?>
<svg id="Calque_1" data-name="Calque 1" xmlns="http://www.w3.org/2000/svg" viewBox="0 0 15.56 14.17">
  <defs>
    <style>
      .cls-1 {
        fill: #fff;
      }

      .cls-2 {
        stroke: #1d1d1b;
        stroke-width: .68px;
      }

      .cls-2, .cls-3 {
        fill: none;
      }

      .cls-3 {
        stroke: #fd0;
        stroke-width: 2.7px;
      }

      .cls-4 {
        fill: #008d36;
      }
    </style>
  </defs>
  <path class="cls-3" d="m6.68,1.99L1.52,10.91c-.49.85.12,1.91,1.1,1.91h10.3c.98,0,1.6-1.06,1.11-1.91L8.88,1.99c-.49-.85-1.72-.85-2.21,0Z"/>
  <path class="cls-4" d="m6.68,1.99L1.52,10.91c-.49.85.12,1.91,1.1,1.91h10.3c.98,0,1.6-1.06,1.11-1.91L8.88,1.99c-.49-.85-1.72-.85-2.21,0"/>
  <path class="cls-2" d="m6.68,1.99L1.52,10.91c-.49.85.12,1.91,1.1,1.91h10.3c.98,0,1.6-1.06,1.11-1.91L8.88,1.99c-.49-.85-1.72-.85-2.21,0Z"/>
  <g>
    <path class="cls-1" d="m7.89,7l-.76.62c-.21-.26-.51-.37-.84-.37-.7,0-1.29.56-1.29,1.44,0,.74.48,1.44,1.26,1.44.38,0,.71-.16.92-.48l.82.61c-.35.52-1,.78-1.61.78-1.4,0-2.41-.92-2.41-2.34s1-2.34,2.41-2.34c.59,0,1.17.23,1.51.66Z"/>
    <path class="cls-1" d="m11.43,7.61c0,.48-.27.85-.76.99h0c.54.16.83.54.83,1.1,0,.79-.66,1.3-1.57,1.3s-1.57-.48-1.57-1.3c0-.56.3-.94.83-1.08h0c-.48-.15-.76-.52-.76-1,0-.74.57-1.23,1.49-1.23s1.49.47,1.49,1.23Zm-1.49,2.51c.35,0,.62-.22.62-.56s-.27-.57-.63-.57-.62.23-.62.57.27.56.62.56Zm0-1.88c.33,0,.55-.22.55-.5s-.23-.49-.55-.49-.54.23-.54.49c0,.28.23.5.55.5Z"/>
  </g>
</svg>