<?xml version="1.0" encoding="UTF-8"?><svg id="a" xmlns="http://www.w3.org/2000/svg" viewBox="0 0 15.03 15.03"><defs><style>.b{fill:#fff;}.c{fill:#bb66a5;}</style></defs><path class="c" d="M7.51,15.03c4.15,0,7.52-3.36,7.52-7.51S11.66,0,7.51,0,0,3.37,0,7.51s3.37,7.51,7.51,7.51"/><path class="b" d="M2.86,5.62c0-.35,.05-.65,.16-.91,.1-.26,.25-.47,.43-.65,.18-.17,.4-.3,.64-.39,.24-.08,.5-.13,.78-.13s.54,.04,.78,.13c.24,.09,.45,.21,.64,.39,.18,.17,.33,.39,.43,.65,.11,.26,.16,.56,.16,.91,0,.41-.09,.76-.27,1.05-.18,.29-.43,.49-.75,.61v.02c.36,.12,.64,.34,.83,.65,.19,.31,.29,.7,.29,1.17,0,.36-.06,.68-.17,.95-.11,.28-.27,.5-.47,.68-.2,.18-.42,.32-.67,.41-.25,.09-.52,.14-.8,.14s-.54-.05-.8-.14c-.25-.09-.48-.23-.67-.41-.2-.18-.35-.41-.47-.68-.12-.28-.17-.59-.17-.95,0-.47,.1-.86,.29-1.17,.19-.32,.47-.53,.83-.65v-.02c-.32-.12-.57-.33-.75-.61-.18-.29-.27-.64-.27-1.05m1.17,3.28c0,.26,.08,.48,.23,.67,.15,.18,.36,.28,.61,.28s.46-.09,.61-.28c.15-.18,.23-.41,.23-.67s-.08-.49-.23-.68c-.15-.18-.36-.28-.61-.28s-.46,.09-.61,.28c-.15,.18-.23,.41-.23,.68m.1-3.06c0,.23,.07,.43,.2,.59,.14,.16,.31,.24,.53,.24s.4-.08,.53-.24c.14-.16,.2-.36,.2-.59s-.07-.42-.2-.58c-.14-.16-.31-.24-.53-.24s-.4,.08-.53,.24c-.14,.16-.2,.36-.2,.58"/><path class="b" d="M7.65,7.43c0-.44,.03-.9,.1-1.36,.07-.46,.18-.88,.35-1.25,.17-.38,.39-.68,.68-.92,.29-.24,.66-.36,1.1-.36s.81,.12,1.1,.36,.51,.54,.68,.92c.17,.37,.28,.79,.35,1.25,.06,.46,.1,.91,.1,1.36s-.03,.9-.1,1.36c-.07,.46-.18,.88-.35,1.25-.17,.37-.39,.68-.68,.92-.29,.24-.66,.35-1.1,.35s-.81-.12-1.1-.35c-.29-.24-.52-.54-.68-.92-.17-.37-.28-.79-.35-1.25-.06-.46-.1-.91-.1-1.36m1.27,0c0,.2,0,.43,.02,.71,.01,.28,.05,.54,.11,.79,.06,.26,.16,.47,.28,.65,.13,.18,.31,.27,.54,.27s.4-.09,.53-.27c.13-.18,.23-.39,.29-.65,.06-.25,.1-.52,.11-.79,.01-.28,.02-.51,.02-.71s0-.43-.02-.71c-.01-.28-.05-.54-.11-.79-.06-.26-.16-.47-.29-.65-.13-.18-.31-.27-.53-.27s-.41,.09-.54,.27c-.13,.18-.22,.39-.28,.65-.06,.25-.1,.52-.11,.79-.01,.27-.02,.51-.02,.71"/></svg>