<?xml version="1.0" encoding="UTF-8"?><svg id="a" xmlns="http://www.w3.org/2000/svg" viewBox="0 0 48.76 48.76"><defs><style>.b{fill:#fff;}.c{fill:#008BD2;}</style></defs><path class="c" d="M39.59,48.76H9.18c-5.07,0-9.18-4.11-9.18-9.18V9.17C0,4.11,4.11,0,9.18,0h30.41c5.06,0,9.17,4.11,9.17,9.17v30.41c0,5.07-4.11,9.18-9.17,9.18"/><path class="b" d="M21.23,16.8c-.53-.8-1.18-1.42-1.94-1.85-.78-.43-1.66-.64-2.67-.64s-1.95,.24-2.81,.73-1.61,1.17-2.24,2.04c-.64,.88-1.13,1.92-1.48,3.13-.36,1.2-.54,2.51-.54,3.92s.18,2.75,.54,3.94c.35,1.19,.84,2.22,1.46,3.1,.62,.88,1.35,1.56,2.19,2.04,.84,.49,1.74,.74,2.7,.74,1.11,0,2.08-.29,2.93-.86,.85-.58,1.55-1.38,2.1-2.42l4.48,4.18c-1.03,1.81-2.34,3.14-3.93,4.01-1.58,.86-3.21,1.29-4.89,1.29-1.9,0-3.66-.38-5.27-1.12-1.61-.75-3-1.82-4.17-3.21-1.17-1.39-2.08-3.08-2.74-5.06-.65-1.98-.98-4.19-.98-6.63s.33-4.66,.98-6.64c.66-1.98,1.57-3.66,2.74-5.06,1.17-1.39,2.56-2.46,4.17-3.21,1.61-.74,3.37-1.11,5.27-1.11,.69,0,1.41,.07,2.16,.23,.74,.16,1.48,.41,2.2,.75,.72,.35,1.42,.81,2.09,1.38,.66,.58,1.26,1.28,1.79,2.11l-4.14,4.22Z"/><path class="b" d="M28.09,32.53l9.48-10.64c.48-.54,.96-1.16,1.44-1.85,.49-.69,.73-1.49,.73-2.41,0-1.03-.3-1.84-.9-2.43-.6-.59-1.3-.89-2.1-.89-.97,0-1.72,.38-2.26,1.12-.54,.75-.84,1.67-.91,2.76l-5.17-.47c.07-1.58,.33-2.95,.79-4.12,.46-1.16,1.07-2.13,1.83-2.9,.76-.78,1.65-1.36,2.67-1.75,1.02-.39,2.13-.58,3.33-.58,1.1,0,2.13,.19,3.1,.58,.96,.39,1.8,.96,2.51,1.72,.71,.77,1.27,1.72,1.67,2.87,.4,1.15,.61,2.48,.61,4,0,.98-.08,1.86-.25,2.65-.16,.79-.38,1.51-.67,2.16-.29,.64-.62,1.24-1.01,1.78-.4,.55-.82,1.08-1.28,1.6l-7.41,7.97h10.82v5.68H28.09v-6.85Z"/></svg>