<?xml version="1.0" encoding="UTF-8"?><svg id="a" xmlns="http://www.w3.org/2000/svg" viewBox="0 0 48.76 48.77"><defs><style>.b{fill:#fff;}.c{fill:#6F2282;}</style></defs><path class="c" d="M24.38,48.77c13.46,0,24.38-10.93,24.38-24.39S37.84,0,24.38,0,0,10.93,0,24.38s10.91,24.39,24.38,24.39"/><polygon class="b" points="15.55 17.72 11.65 22.02 9.31 18.65 15.66 11.95 19.52 11.95 19.52 36.29 15.55 36.29 15.55 17.72"/><path class="b" d="M29.86,21.54h1.35c.38,0,.76-.04,1.13-.11,.36-.06,.7-.2,1-.39,.3-.2,.55-.47,.73-.83,.18-.35,.28-.82,.28-1.39,0-.73-.24-1.34-.71-1.82-.46-.48-1.04-.72-1.72-.72-.64,0-1.17,.21-1.59,.65-.42,.44-.7,.97-.83,1.62l-4.53-1.17c.22-1.06,.55-1.96,.99-2.7,.44-.75,.96-1.35,1.56-1.81,.61-.46,1.28-.79,2.03-1.01,.74-.22,1.52-.33,2.35-.33s1.69,.13,2.49,.4c.79,.26,1.5,.67,2.1,1.23,.61,.57,1.09,1.27,1.44,2.12,.36,.85,.54,1.86,.54,3.03,0,1.35-.28,2.51-.85,3.47s-1.4,1.58-2.48,1.85v.11c.59,.09,1.11,.31,1.56,.65,.45,.35,.83,.77,1.14,1.27,.31,.51,.55,1.08,.71,1.72,.17,.64,.25,1.32,.25,2.03,0,1.22-.19,2.28-.56,3.2-.38,.92-.88,1.68-1.52,2.29-.63,.6-1.37,1.06-2.22,1.35-.86,.3-1.76,.45-2.71,.45-1.75,0-3.24-.5-4.5-1.51s-2.09-2.6-2.49-4.78l4.35-1.27c.14,.87,.44,1.56,.89,2.06s1.11,.76,1.99,.76,1.57-.3,2-.88c.43-.59,.65-1.34,.65-2.25,0-.69-.12-1.22-.35-1.6-.23-.38-.53-.66-.89-.84-.37-.19-.78-.3-1.24-.33-.46-.04-.92-.05-1.38-.05h-.96v-4.47Z"/></svg>