<?xml version="1.0" encoding="UTF-8"?>
<svg id="Calque_1" data-name="Calque 1" xmlns="http://www.w3.org/2000/svg" xmlns:xlink="http://www.w3.org/1999/xlink" viewBox="0 0 44.63 44.63">
  <defs>
    <clipPath id="clippath">
      <path d="M0,22.31C0,34.64,9.99,44.63,22.31,44.63s22.31-9.99,22.31-22.31S34.64,0,22.31,0,0,9.99,0,22.31" style="fill: none;"/>
    </clipPath>
  </defs>
  <g style="clip-path: url(#clippath);">
    <path d="M44.63,22.31c0,12.32-9.99,22.31-22.31,22.31S0,34.64,0,22.31,9.99,0,22.31,0s22.31,9.99,22.31,22.31" style="fill: #6F2282;"/>
    <polygon points="7.03 12.59 11.68 12.59 18.29 26.08 18.33 26.08 18.33 12.59 21.75 12.59 21.75 32.01 17.28 32.01 10.5 18.19 10.46 18.19 10.46 32.01 7.03 32.01 7.03 12.59" style="fill: #fff;"/>
    <path d="M29.54,28.11h-6.78v-3.46l6.34-12.07h3.6v12.07h2v3.46h-2v3.89h-3.16v-3.89Zm0-10.15h-.04l-3.44,6.69h3.49v-6.69Z" style="fill: #fff;"/>
    <path d="M36.12,12.07c-.47-.47-.97-.92-1.48-1.32,5.57,6.96,5.13,17.15-1.32,23.6-6.45,6.45-16.64,6.89-23.6,1.32,.41,.51,.85,1.01,1.32,1.48,6.93,6.93,18.16,6.93,25.08,0,6.93-6.92,6.93-18.15,0-25.08" style="fill: #fff;"/>
  </g>
</svg>