<?xml version="1.0" encoding="UTF-8"?><svg id="a" xmlns="http://www.w3.org/2000/svg" viewBox="0 0 25.38 25.38"><defs><style>.b{fill:#a6ca5a;}</style></defs><path class="b" d="M12.71,24.96c6.76,0,12.26-5.49,12.26-12.26S19.47,.45,12.71,.45,.45,5.94,.45,12.7s5.49,12.26,12.26,12.26"/><path d="M8.44,14.37c-.22,.07-.44,.12-.68,.12-1.84,0-3.07-1.77-3.07-3.99,0-2.53,1.6-4.21,3.65-4.21s3.65,1.68,3.65,4.21c0,1.76-.55,2.83-1.17,4.06l-2.15,4.18h-2.53l2.3-4.37Zm-.1-1.85c.93,0,1.58-.82,1.58-1.92s-.65-1.92-1.58-1.92-1.57,.81-1.57,1.92,.64,1.92,1.57,1.92"/><polygon points="16.4 9.41 14.43 11.57 13.26 9.87 16.45 6.5 18.39 6.5 18.39 18.74 16.4 18.74 16.4 9.41"/><path d="M12.69,25.38C5.69,25.38,0,19.69,0,12.69S5.69,0,12.69,0s12.69,5.69,12.69,12.69-5.69,12.69-12.69,12.69M12.69,.86C6.17,.86,.86,6.17,.86,12.69s5.31,11.83,11.83,11.83,11.83-5.31,11.83-11.83S19.21,.86,12.69,.86"/></svg>