<?xml version="1.0" encoding="UTF-8"?><svg id="a" xmlns="http://www.w3.org/2000/svg" viewBox="0 0 15.03 15.03"><defs><style>.b{fill:#F39200;}.c{fill:#1d1d1b;}</style></defs><path class="b" d="M7.51,15.03c4.15,0,7.52-3.36,7.52-7.51S11.66,0,7.51,0,0,3.37,0,7.51s3.37,7.51,7.51,7.51"/><polygon class="c" points="5.64 5.15 2.67 5.15 2.67 3.68 7.06 3.68 7.06 5.08 4.66 11.18 3.18 11.18 5.64 5.15"/><path class="c" d="M11.76,5.08h-2.38l-.03,1.15c.13-.05,.31-.08,.53-.08,.31,0,.59,.06,.84,.17,.26,.11,.47,.28,.66,.49,.18,.21,.33,.48,.43,.79,.1,.31,.15,.65,.15,1.03,0,.42-.06,.8-.17,1.14s-.28,.61-.48,.84c-.2,.23-.45,.4-.72,.53-.28,.12-.58,.18-.91,.18-.52,0-.96-.16-1.31-.48-.35-.32-.59-.8-.72-1.44l1.33-.38c.03,.27,.12,.48,.27,.65,.15,.17,.33,.25,.55,.25,.27,0,.49-.1,.65-.32,.16-.21,.24-.48,.24-.8,0-.25-.04-.45-.12-.61-.08-.16-.19-.29-.32-.38-.13-.1-.28-.16-.45-.2-.16-.04-.33-.05-.49-.05-.21,0-.42,.02-.63,.07-.21,.05-.42,.12-.61,.2l.07-4.14h3.63v1.4Z"/></svg>