<?xml version="1.0" encoding="UTF-8"?><svg id="a" xmlns="http://www.w3.org/2000/svg" viewBox="0 0 48.76 48.76"><defs><style>.b{fill:#61C3D9;}</style></defs><path class="b" d="M39.59,48.76H9.18c-5.07,0-9.18-4.11-9.18-9.18V9.18C0,4.11,4.11,0,9.18,0h30.41c5.07,0,9.17,4.11,9.17,9.18v30.4c0,5.07-4.1,9.18-9.17,9.18"/><path d="M20.95,16.89c-.53-.8-1.17-1.42-1.94-1.85s-1.66-.65-2.67-.65-1.95,.25-2.81,.74c-.86,.48-1.61,1.17-2.24,2.04-.63,.88-1.13,1.92-1.48,3.12-.36,1.21-.54,2.52-.54,3.92s.18,2.75,.54,3.94c.35,1.2,.84,2.23,1.46,3.11,.62,.87,1.35,1.55,2.19,2.04,.84,.49,1.74,.73,2.7,.73,1.11,0,2.08-.28,2.93-.86,.85-.57,1.55-1.37,2.11-2.41l4.48,4.18c-1.04,1.81-2.35,3.14-3.93,4.01-1.59,.86-3.22,1.29-4.9,1.29-1.9,0-3.66-.38-5.27-1.12-1.61-.75-3-1.82-4.17-3.21-1.17-1.39-2.08-3.08-2.74-5.06-.65-1.98-.98-4.19-.98-6.64s.33-4.65,.98-6.63c.66-1.98,1.57-3.67,2.74-5.06,1.17-1.39,2.56-2.46,4.17-3.21,1.61-.75,3.37-1.12,5.27-1.12,.69,0,1.41,.08,2.16,.24,.74,.16,1.48,.41,2.2,.75,.73,.35,1.42,.81,2.09,1.38,.66,.57,1.26,1.28,1.79,2.11l-4.14,4.22Z"/><path d="M36.01,19.87c.28-.09,.56-.16,.83-.22,.28-.06,.56-.09,.86-.09,1.15,0,2.2,.26,3.14,.78s1.75,1.22,2.41,2.11c.67,.89,1.18,1.95,1.55,3.17,.37,1.22,.55,2.52,.55,3.89,0,1.58-.23,3.01-.7,4.29s-1.12,2.38-1.93,3.3c-.82,.91-1.78,1.63-2.9,2.13-1.11,.5-2.3,.75-3.56,.75s-2.48-.25-3.59-.75c-1.1-.5-2.06-1.22-2.88-2.13-.81-.92-1.45-2.02-1.92-3.3s-.71-2.71-.71-4.29c0-1.09,.08-2.09,.24-2.99s.37-1.76,.64-2.56c.26-.8,.57-1.57,.93-2.31,.35-.73,.73-1.48,1.12-2.26l5.34-10.42h6.31l-5.73,10.9Zm4.17,9.39c0-1.38-.36-2.52-1.08-3.43-.72-.9-1.67-1.36-2.84-1.36s-2.12,.46-2.85,1.36c-.72,.91-1.08,2.05-1.08,3.43s.36,2.52,1.08,3.42c.73,.9,1.68,1.36,2.85,1.36s2.12-.46,2.84-1.36,1.08-2.05,1.08-3.42"/></svg>