<?xml version="1.0" encoding="UTF-8"?><svg id="a" xmlns="http://www.w3.org/2000/svg" viewBox="0 0 13.53 13.52"><defs><style>.b{fill:#fff;}.c{fill:#e50046;}</style></defs><path class="c" d="M6.76,13.52c3.73,0,6.76-3.03,6.76-6.76S10.49,0,6.76,0,0,3.03,0,6.76s3.03,6.76,6.76,6.76"/><path class="b" d="M2.57,5.05c0-.31,.05-.58,.14-.82,.09-.23,.22-.42,.39-.58,.17-.16,.36-.27,.58-.35,.22-.08,.45-.12,.7-.12s.48,.04,.7,.12c.22,.08,.41,.19,.57,.35,.16,.16,.29,.35,.39,.58,.1,.23,.14,.5,.14,.82,0,.37-.08,.68-.24,.94-.16,.26-.38,.45-.67,.55v.02c.32,.11,.57,.3,.75,.59,.17,.28,.26,.63,.26,1.05,0,.32-.05,.61-.16,.86-.1,.25-.24,.45-.42,.62-.18,.16-.38,.29-.61,.37-.23,.08-.47,.12-.72,.12s-.49-.04-.72-.12c-.23-.08-.43-.21-.61-.37-.18-.16-.32-.37-.42-.62-.1-.25-.16-.53-.16-.86,0-.42,.09-.77,.26-1.05,.17-.28,.42-.48,.75-.59v-.02c-.29-.11-.51-.29-.68-.55-.16-.26-.24-.58-.24-.94m1.05,2.96c0,.23,.07,.43,.21,.6,.14,.16,.32,.25,.55,.25s.41-.08,.55-.25c.14-.17,.21-.37,.21-.6s-.07-.45-.21-.61c-.14-.17-.32-.25-.55-.25s-.41,.08-.55,.25c-.14,.17-.21,.37-.21,.61m.09-2.76c0,.21,.06,.39,.18,.53,.12,.15,.28,.22,.48,.22s.36-.07,.48-.22c.12-.15,.18-.32,.18-.53s-.06-.38-.18-.52c-.12-.15-.28-.22-.48-.22s-.36,.07-.48,.22c-.12,.15-.18,.32-.18,.52"/><path class="b" d="M7.01,8.54l2.1-2.35c.11-.12,.21-.26,.32-.41,.11-.15,.16-.33,.16-.53,0-.23-.07-.41-.2-.54s-.29-.2-.46-.2c-.21,0-.38,.08-.5,.25-.12,.16-.19,.37-.2,.61l-1.15-.11c.01-.35,.07-.65,.18-.91,.1-.26,.24-.47,.4-.65,.17-.17,.36-.3,.59-.39,.23-.09,.47-.13,.74-.13,.24,0,.47,.04,.69,.13,.21,.09,.4,.21,.56,.38,.16,.17,.28,.38,.37,.63,.09,.25,.13,.55,.13,.89,0,.22-.02,.41-.05,.59-.04,.17-.08,.33-.15,.48-.06,.14-.14,.28-.23,.4-.09,.12-.18,.24-.28,.35l-1.64,1.77h2.4v1.26h-3.77v-1.52Z"/></svg>