<?xml version="1.0" encoding="UTF-8"?><svg id="a" xmlns="http://www.w3.org/2000/svg" viewBox="0 0 13.53 13.52"><defs><style>.b{fill:#fff;}.c{fill:#004f9f;}</style></defs><path class="c" d="M6.76,13.52c3.73,0,6.76-3.03,6.76-6.76S10.5,0,6.76,0,0,3.03,0,6.76s3.03,6.76,6.76,6.76"/><path class="b" d="M4.31,5.71c.06-.02,.12-.04,.18-.05s.12-.02,.19-.02c.25,0,.49,.06,.69,.17,.21,.11,.39,.27,.53,.47,.15,.2,.26,.43,.34,.7,.08,.27,.12,.56,.12,.86,0,.35-.05,.67-.16,.95-.1,.28-.25,.53-.43,.73-.18,.2-.39,.36-.64,.47-.25,.11-.51,.17-.79,.17s-.55-.06-.79-.17c-.24-.11-.46-.27-.64-.47-.18-.2-.32-.45-.43-.73-.1-.28-.16-.6-.16-.95,0-.24,.02-.46,.05-.66,.04-.2,.08-.39,.14-.57,.06-.18,.13-.35,.21-.51,.08-.16,.16-.33,.25-.5l1.18-2.31h1.4l-1.27,2.41Zm.92,2.08c0-.31-.08-.56-.24-.76-.16-.2-.37-.3-.63-.3s-.47,.1-.63,.3c-.16,.2-.24,.45-.24,.76s.08,.56,.24,.76c.16,.2,.37,.3,.63,.3s.47-.1,.63-.3c.16-.2,.24-.45,.24-.76"/><path class="b" d="M7.09,5.05c0-.31,.05-.58,.14-.82,.09-.23,.22-.42,.39-.58,.17-.16,.36-.27,.58-.35,.22-.08,.45-.12,.7-.12s.48,.04,.7,.12c.22,.08,.41,.19,.57,.35,.16,.16,.29,.35,.39,.58,.1,.23,.14,.5,.14,.82,0,.37-.08,.68-.24,.94-.16,.26-.38,.45-.67,.55v.02c.32,.11,.57,.3,.75,.59,.17,.28,.26,.63,.26,1.05,0,.32-.05,.61-.16,.86-.1,.25-.24,.45-.42,.62-.18,.16-.38,.29-.61,.37-.23,.08-.47,.12-.72,.12s-.49-.04-.72-.12c-.23-.08-.43-.21-.61-.37-.18-.16-.32-.37-.42-.62-.1-.25-.16-.53-.16-.86,0-.42,.09-.77,.26-1.05,.17-.28,.42-.48,.75-.59v-.02c-.29-.11-.51-.29-.68-.55-.16-.26-.24-.58-.24-.94m1.05,2.96c0,.23,.07,.43,.21,.6,.14,.16,.32,.25,.55,.25s.41-.08,.55-.25c.14-.17,.21-.37,.21-.6s-.07-.45-.21-.61c-.14-.17-.32-.25-.55-.25s-.41,.08-.55,.25c-.14,.17-.21,.37-.21,.61m.09-2.76c0,.21,.06,.39,.18,.53,.12,.15,.28,.22,.48,.22s.36-.07,.48-.22c.12-.15,.18-.32,.18-.53s-.06-.38-.18-.52c-.12-.15-.28-.22-.48-.22s-.36,.07-.48,.22c-.12,.15-.18,.32-.18,.52"/></svg>