<?xml version="1.0" encoding="UTF-8"?><svg id="a" xmlns="http://www.w3.org/2000/svg" viewBox="0 0 18.63 18.63"><defs><style>.b{fill:#61c3d9;}.c{fill:#1d1d1b;}</style></defs><path class="b" d="M9.31,18.63c5.14,0,9.32-4.17,9.32-9.32S14.46,0,9.31,0,0,4.17,0,9.31s4.17,9.32,9.31,9.32"/><polygon class="c" points="6.98 6.38 3.3 6.38 3.3 4.56 8.74 4.56 8.74 6.3 5.77 13.86 3.93 13.86 6.98 6.38"/><path class="c" d="M12.15,7.89c.08-.03,.17-.05,.25-.07,.08-.02,.17-.03,.26-.03,.35,0,.67,.08,.96,.24,.29,.16,.53,.37,.74,.64,.2,.27,.36,.59,.47,.97,.11,.37,.17,.77,.17,1.19,0,.48-.07,.92-.21,1.31-.14,.39-.34,.72-.59,1-.25,.28-.54,.5-.88,.65-.34,.15-.7,.23-1.09,.23s-.76-.08-1.09-.23c-.34-.15-.63-.37-.88-.65-.25-.28-.44-.61-.59-1-.14-.39-.21-.83-.21-1.31,0-.33,.02-.64,.07-.91,.05-.28,.11-.54,.19-.78,.08-.24,.17-.48,.28-.7,.11-.22,.22-.45,.34-.69l1.63-3.18h1.92l-1.74,3.32Zm1.27,2.86c0-.42-.11-.77-.33-1.04-.22-.28-.51-.41-.87-.41s-.65,.14-.87,.41c-.22,.27-.33,.62-.33,1.04s.11,.77,.33,1.04c.22,.28,.51,.41,.87,.41s.65-.14,.87-.41c.22-.28,.33-.62,.33-1.04"/></svg>