<svg id="Calque_1" data-name="Calque 1" xmlns="http://www.w3.org/2000/svg" viewBox="0 0 815.82 582.82"><defs><style>.cls-1{fill:#b1378c;}.cls-2{fill:#fff;}</style></defs><path class="cls-1" d="M827.16,413.37V5.41h-641A174.84,174.84,0,0,0,11.34,180.27v408h641c96.53,0,174.86-78.33,174.86-174.86" transform="translate(-11.34 -5.41)"/><path class="cls-2" d="M590.81,299.76c0-89.46-19.56-109.42-45.25-109.42-25.07,0-45.15,20-45.15,109.42,0,88.94,20.08,112,45.15,112,25.69,0,45.25-23.09,45.25-112m-161.85,0c0-111,46.8-168.09,116.6-168.09s116.71,57.11,116.71,168.09-46.81,170.7-116.71,170.7S429,410.75,429,299.76" transform="translate(-11.34 -5.41)"/><path class="cls-2" d="M193.16,403.06h70.93V214.48H202.93V167.67c35.47-6.66,58-15.91,81.24-29.75h55.44V403.06h61.16v61.16H193.16Z" transform="translate(-11.34 -5.41)"/></svg>