<svg id="Calque_1" data-name="Calque 1" xmlns="http://www.w3.org/2000/svg" viewBox="0 0 687.76 491.26"><defs><style>.cls-1{fill:#cbb4c8;}.cls-2{fill:#020303;}</style></defs><path class="cls-1" d="M687.76,344.05V.17H147.38A147.37,147.37,0,0,0,0,147.55V491.43H540.39A147.37,147.37,0,0,0,687.76,344.05" transform="translate(0 -0.17)"/><path class="cls-2" d="M227.05,392.12q-33.36,0-57-10.83T131.3,353.12l29.46-40.29a116.44,116.44,0,0,0,27.73,19.93,70,70,0,0,0,32.5,7.8q20.35,0,32.49-8.45t12.14-24.05a36.38,36.38,0,0,0-6.07-21q-6.08-8.88-22.1-13.65t-45.92-4.76V223.58q37.25,0,51.12-10.18t13.87-26.65q0-14.3-8.67-22.31t-25.13-8a54.72,54.72,0,0,0-26.64,6.5,144.17,144.17,0,0,0-24.92,17.76l-32.06-39a160.34,160.34,0,0,1,40.3-25.78,114,114,0,0,1,46.35-9.31q42.47,0,68.68,19.71T320.64,182q0,21.24-11.91,36.4t-34,24.69v1.74q23.84,6.93,39.21,23.61T329.31,312q0,25.57-14.09,43.55T278,382.8Q254.79,392.12,227.05,392.12Z" transform="translate(0 -0.17)"/><path class="cls-2" d="M406.43,386.92q2.6-45.92,10-82.32a322.87,322.87,0,0,1,22.53-69.76q15.16-33.36,41.16-69.32H356.6V111.79H548.1v39q-23.82,29-38.34,54.59a253.17,253.17,0,0,0-22.53,52.21,324.71,324.71,0,0,0-11.48,57.84q-3.48,31.2-5.2,71.49Z" transform="translate(0 -0.17)"/></svg>