<svg xmlns="http://www.w3.org/2000/svg" viewBox="0 0 198.425 141.733"><defs><style>.cls-1{fill:#001437;}.cls-2{fill:#fff482;}</style></defs><g id="Calque_2" data-name="Calque 2"><g id="Calque_1-2" data-name="Calque 1"><path class="cls-1" d="M198.425,99.213V0H42.519A42.519,42.519,0,0,0,0,42.52v99.213H155.905a42.52,42.52,0,0,0,42.52-42.52"/><path class="cls-2" d="M156.251,44.573l7.734,4.8a.709.709,0,0,0,1.062-.772l-2.172-8.837,6.952-5.873a.709.709,0,0,0-.406-1.249l-9.076-.664-3.438-8.427a.708.708,0,0,0-1.312,0l-3.437,8.427-9.077.664a.709.709,0,0,0-.405,1.249l6.952,5.873L147.456,48.6a.708.708,0,0,0,1.061.772Z"/><path class="cls-2" d="M114.165,75.058a29.233,29.233,0,0,1-10.7-56.438c-1.129-.1-2.272-.165-3.429-.165a36.772,36.772,0,1,0,35.12,47.7,29.141,29.141,0,0,1-20.993,8.9"/><path class="cls-2" d="M33.107,129.082v-19.62h3.57L42.8,120.5l2.01,4.17h.12q-.12-1.53-.285-3.285t-.165-3.405v-8.52h3.33v19.62h-3.57l-6.12-11.04-2.01-4.17h-.12q.119,1.56.285,3.27t.165,3.36v8.58Z"/><path class="cls-2" d="M60.58,126.412a4.3,4.3,0,0,0,2.1-.51,4.676,4.676,0,0,0,1.59-1.455,7.241,7.241,0,0,0,1.02-2.28,11.466,11.466,0,0,0,.36-2.985,8.644,8.644,0,0,0-1.365-5.175,4.6,4.6,0,0,0-7.41,0,8.644,8.644,0,0,0-1.365,5.175,11.466,11.466,0,0,0,.36,2.985,7.241,7.241,0,0,0,1.02,2.28,4.676,4.676,0,0,0,1.59,1.455,4.3,4.3,0,0,0,2.1.51m0,3.03a8.564,8.564,0,0,1-3.51-.705,7.6,7.6,0,0,1-2.73-2.04,9.555,9.555,0,0,1-1.77-3.225,13.536,13.536,0,0,1-.63-4.29,13.293,13.293,0,0,1,.63-4.245,9.079,9.079,0,0,1,1.77-3.165,7.677,7.677,0,0,1,2.73-1.98,9.273,9.273,0,0,1,7.02,0,7.821,7.821,0,0,1,2.745,1.98,8.948,8.948,0,0,1,1.785,3.165,13.293,13.293,0,0,1,.63,4.245,13.536,13.536,0,0,1-.63,4.29,9.412,9.412,0,0,1-1.785,3.225,7.739,7.739,0,0,1-2.745,2.04,8.564,8.564,0,0,1-3.51.705"/><path class="cls-2" d="M81.3,129.442a9.134,9.134,0,0,1-3.48-.66,7.718,7.718,0,0,1-2.8-1.95,9.4,9.4,0,0,1-1.875-3.18,12.551,12.551,0,0,1-.69-4.32,12.341,12.341,0,0,1,.705-4.3,9.633,9.633,0,0,1,1.92-3.225,8.129,8.129,0,0,1,2.85-2.01,8.9,8.9,0,0,1,3.5-.69,7.04,7.04,0,0,1,3.3.75,8.771,8.771,0,0,1,2.37,1.74l-1.86,2.25a6.774,6.774,0,0,0-1.68-1.245,4.379,4.379,0,0,0-2.04-.465,4.922,4.922,0,0,0-2.2.495,5.114,5.114,0,0,0-1.74,1.41,6.633,6.633,0,0,0-1.14,2.235,10.111,10.111,0,0,0-.405,2.97,8.49,8.49,0,0,0,1.455,5.265,4.7,4.7,0,0,0,3.945,1.905,4.817,4.817,0,0,0,2.34-.555,7.333,7.333,0,0,0,1.86-1.455l1.86,2.19a8.409,8.409,0,0,1-2.745,2.115,7.894,7.894,0,0,1-3.435.735"/><polygon class="cls-2" points="95.509 129.082 95.509 112.402 89.839 112.402 89.839 109.462 104.659 109.462 104.659 112.402 98.989 112.402 98.989 129.082 95.509 129.082"/><rect class="cls-2" x="108.026" y="109.462" width="3.48" height="19.62"/><path class="cls-2" d="M120.064,126.382H123a5.9,5.9,0,0,0,3.33-.8,2.752,2.752,0,0,0,1.17-2.445,2.462,2.462,0,0,0-1.14-2.265,6.47,6.47,0,0,0-3.36-.7h-2.94Zm0-8.82h2.49a4.72,4.72,0,0,0,2.985-.75,2.468,2.468,0,0,0,.915-2.01,2.215,2.215,0,0,0-.96-2.04,5.52,5.52,0,0,0-2.88-.6h-2.55Zm-3.48,11.52v-19.62h6.27a14.328,14.328,0,0,1,2.805.255,7.106,7.106,0,0,1,2.22.81,3.952,3.952,0,0,1,1.47,1.485,4.587,4.587,0,0,1,.525,2.28,4.981,4.981,0,0,1-.72,2.61,3.713,3.713,0,0,1-2.01,1.65v.12a5.044,5.044,0,0,1,2.685,1.515,4.445,4.445,0,0,1,1.065,3.135,5.39,5.39,0,0,1-.57,2.55,5.158,5.158,0,0,1-1.575,1.8,6.949,6.949,0,0,1-2.385,1.065,12.357,12.357,0,0,1-3,.345Z"/><path class="cls-2" d="M141.945,129.442a8.976,8.976,0,0,1-3.075-.5,5.746,5.746,0,0,1-2.34-1.575,7.3,7.3,0,0,1-1.5-2.775,14.078,14.078,0,0,1-.525-4.125v-11.01h3.48v11.28a10.823,10.823,0,0,0,.285,2.685,4.691,4.691,0,0,0,.81,1.755,2.983,2.983,0,0,0,1.245.945,4.37,4.37,0,0,0,1.62.285,4.61,4.61,0,0,0,1.65-.285,3.05,3.05,0,0,0,1.29-.945,4.707,4.707,0,0,0,.84-1.755,10.306,10.306,0,0,0,.3-2.685v-11.28h3.33v11.01a14.467,14.467,0,0,1-.51,4.125,7.143,7.143,0,0,1-1.485,2.775,5.746,5.746,0,0,1-2.34,1.575,8.976,8.976,0,0,1-3.075.5"/><path class="cls-2" d="M159.678,129.442a10.155,10.155,0,0,1-7.08-2.88l2.04-2.37a8.77,8.77,0,0,0,2.4,1.605,6.465,6.465,0,0,0,2.7.615,4.039,4.039,0,0,0,2.55-.69,2.222,2.222,0,0,0,.87-1.83,2.135,2.135,0,0,0-.225-1.02,2.31,2.31,0,0,0-.63-.735,5.428,5.428,0,0,0-.96-.585c-.371-.18-.775-.36-1.215-.54l-2.7-1.17a9.248,9.248,0,0,1-1.425-.75,6.217,6.217,0,0,1-1.275-1.08,4.959,4.959,0,0,1-.915-1.47,5.019,5.019,0,0,1-.346-1.92,4.856,4.856,0,0,1,.5-2.175,5.5,5.5,0,0,1,1.365-1.755,6.3,6.3,0,0,1,2.085-1.17,8.078,8.078,0,0,1,2.655-.42,8.366,8.366,0,0,1,3.3.675,8.521,8.521,0,0,1,2.73,1.815l-1.77,2.22a8.763,8.763,0,0,0-1.98-1.23,5.59,5.59,0,0,0-2.28-.45,3.728,3.728,0,0,0-2.25.615,1.985,1.985,0,0,0-.84,1.695,1.793,1.793,0,0,0,.255.975,2.609,2.609,0,0,0,.69.72,5.626,5.626,0,0,0,1,.57c.379.17.77.335,1.17.5l2.67,1.11a9.232,9.232,0,0,1,1.59.84,5.784,5.784,0,0,1,1.245,1.11,4.848,4.848,0,0,1,.825,1.455,5.561,5.561,0,0,1,.3,1.905,5.347,5.347,0,0,1-.48,2.25,5.4,5.4,0,0,1-1.395,1.845,6.857,6.857,0,0,1-2.22,1.26,8.769,8.769,0,0,1-2.955.465"/></g></g></svg>