<svg id="Calque_1" data-name="Calque 1" xmlns="http://www.w3.org/2000/svg" viewBox="0 0 632.88 452.06"><defs><style>.cls-1{fill:#059e9a;}.cls-2{fill:#fff;}</style></defs><path class="cls-1" d="M632.88,316.44V0H135.61A135.62,135.62,0,0,0,0,135.62V452.06H497.26A135.61,135.61,0,0,0,632.88,316.44"/><path class="cls-2" d="M137.31,355.89V308.44h55V162.12H144.89V125.84q20.73-4,35.09-9.57a192.74,192.74,0,0,0,27.9-13.55h43.06V308.44h47.45v47.45Z"/><path class="cls-2" d="M328.29,355.89V322.4q32.29-30.7,57.21-55.62t38.87-45.85q14-20.94,14-38.87,0-18.75-9.77-28.51t-26.11-9.77a41.33,41.33,0,0,0-24.52,7.78,130.79,130.79,0,0,0-20.54,18.14L325.5,138.2q18.74-19.93,38.27-30.1t46.65-10.17q25.13,0,43.86,10A72.82,72.82,0,0,1,483.58,136q10.56,18.13,10.57,42.46,0,21.14-11.77,43.26A264,264,0,0,1,452.28,266q-18.34,22.13-39.07,43.66,9.57-1.2,21.53-2.2t20.73-1h51v49.44Z"/></svg>