<?xml version="1.0" encoding="UTF-8"?>
<!DOCTYPE svg PUBLIC "-//W3C//DTD SVG 1.1//EN" "http://www.w3.org/Graphics/SVG/1.1/DTD/svg11.dtd">
<svg xmlns="http://www.w3.org/2000/svg" version="1.1" width="210px" height="150px" style="shape-rendering:geometricPrecision; text-rendering:geometricPrecision; image-rendering:optimizeQuality; fill-rule:evenodd; clip-rule:evenodd" xmlns:xlink="http://www.w3.org/1999/xlink">
<g><path style="opacity:0.997" fill="#7f2010" d="M 34.5,-0.5 C 92.8333,-0.5 151.167,-0.5 209.5,-0.5C 209.5,37.8333 209.5,76.1667 209.5,114.5C 204.167,132.5 192.5,144.167 174.5,149.5C 116.167,149.5 57.8333,149.5 -0.5,149.5C -0.5,111.167 -0.5,72.8333 -0.5,34.5C 4.83333,16.5 16.5,4.83333 34.5,-0.5 Z"/></g>
<g><path style="opacity:1" fill="#fdfbfb" d="M 57.5,32.5 C 64.175,32.3337 70.8417,32.5004 77.5,33C 92.5922,37.4108 98.4255,47.2442 95,62.5C 92.4383,68.0611 88.2716,71.8945 82.5,74C 99.6225,81.526 103.289,93.3593 93.5,109.5C 78.5218,120.956 62.5218,122.456 45.5,114C 42.5372,112.039 39.8706,109.706 37.5,107C 40.724,102.703 44.0574,98.5362 47.5,94.5C 54.7569,102.295 63.4235,104.461 73.5,101C 78.6144,97.5438 79.7811,93.0438 77,87.5C 70.9284,83.0249 64.0951,81.3582 56.5,82.5C 56.5,77.5 56.5,72.5 56.5,67.5C 62.1887,67.9109 67.5221,66.7442 72.5,64C 76.4322,59.2626 76.4322,54.5959 72.5,50C 63.9502,46.8257 56.6169,48.659 50.5,55.5C 47.0416,51.4068 43.7083,47.2401 40.5,43C 45.5677,38.4125 51.2344,34.9125 57.5,32.5 Z"/></g>
<g><path style="opacity:1" fill="#fdfcfc" d="M 143.5,98.5 C 132.012,97.5051 120.345,97.1717 108.5,97.5C 108.5,92.8333 108.5,88.1667 108.5,83.5C 118.017,66.973 127.684,50.473 137.5,34C 146.16,33.5002 154.827,33.3336 163.5,33.5C 163.5,49.8333 163.5,66.1667 163.5,82.5C 166.5,82.5 169.5,82.5 172.5,82.5C 172.5,87.8333 172.5,93.1667 172.5,98.5C 169.5,98.5 166.5,98.5 163.5,98.5C 163.5,104.833 163.5,111.167 163.5,117.5C 157.167,117.5 150.833,117.5 144.5,117.5C 144.823,110.978 144.49,104.645 143.5,98.5 Z"/></g>
<g><path style="opacity:1" fill="#88301c" d="M 143.5,51.5 C 144.494,61.6532 144.828,71.9865 144.5,82.5C 138.824,82.6661 133.157,82.4994 127.5,82C 133.966,72.3835 139.3,62.2168 143.5,51.5 Z"/></g>
<g><path style="opacity:1" fill="#dbbeb0" d="M 108.5,83.5 C 108.5,88.1667 108.5,92.8333 108.5,97.5C 120.345,97.1717 132.012,97.5051 143.5,98.5C 131.5,98.5 119.5,98.5 107.5,98.5C 107.179,93.3054 107.513,88.3054 108.5,83.5 Z"/></g>
</svg>
