<svg id="Calque_1" data-name="Calque 1" xmlns="http://www.w3.org/2000/svg" viewBox="0 0 813.34 581.05"><defs><style>.cls-1{fill:#642782;}.cls-2{fill:#fff;}</style></defs><path class="cls-1" d="M825.33,412.6V5.88h-639A174.31,174.31,0,0,0,12,180.2V586.92H651A174.31,174.31,0,0,0,825.33,412.6" transform="translate(-11.99 -5.88)"/><path class="cls-2" d="M329,376.18c19.5,17.94,42.52,32.25,70.2,32.25,33.29,0,54.86-17.42,54.86-50.71,0-32.77-21.05-50.19-51.33-50.19-18.87,0-28.62,4-48.12,16.38l-33.8-21.57L330,137.87H514.51v63.57H395.05l-5.6,61c12.34-5.6,23-7.68,36.4-7.68,55.79,0,103.49,31.73,103.49,100.9,0,72.29-55.89,113.77-119.36,113.77-53.3,0-89.18-20-114.8-45.53Z" transform="translate(-11.99 -5.88)"/></svg>