<svg id="Calque_1" data-name="Calque 1" xmlns="http://www.w3.org/2000/svg" viewBox="0 0 812.88 580.64"><defs><style>.cls-1{fill:#c6ce0e;}.cls-2{fill:#020303;}</style></defs><path class="cls-1" d="M827.38,406.45V0H188.7A174.19,174.19,0,0,0,14.51,174.19V580.64H653.19A174.19,174.19,0,0,0,827.38,406.45" transform="translate(-14.51 0)"/><path class="cls-2" d="M410.22,463.2q-39.44,0-67.33-12.8t-45.84-33.29l34.83-47.62A137.15,137.15,0,0,0,364.65,393a82.73,82.73,0,0,0,38.41,9.22q24.06,0,38.4-10t14.34-28.42q0-14.34-7.17-24.84t-26.12-16.13q-18.94-5.62-54.28-5.63V264q44,0,60.43-12t16.39-31.5q0-16.89-10.25-26.37t-29.7-9.47a64.67,64.67,0,0,0-31.49,7.68,170.11,170.11,0,0,0-29.44,21l-37.9-46.08a189.13,189.13,0,0,1,47.63-30.47q25.08-11,54.79-11,50.18,0,81.16,23.3t31,65.8q0,25.1-14.08,43T466.55,287v2Q494.71,297.3,512.9,317t18.18,51.46q0,30.23-16.65,51.47t-44,32.26Q443,463.2,410.22,463.2Z" transform="translate(-14.51 0)"/></svg>