<?xml version="1.0" encoding="UTF-8" standalone="no"?>
<svg
   xmlns:dc="http://purl.org/dc/elements/1.1/"
   xmlns:cc="http://creativecommons.org/ns#"
   xmlns:rdf="http://www.w3.org/1999/02/22-rdf-syntax-ns#"
   xmlns:svg="http://www.w3.org/2000/svg"
   xmlns="http://www.w3.org/2000/svg"
   version="1.1"
   id="svg2"
   xml:space="preserve"
   width="529.1333"
   height="377.95334"
   viewBox="0 0 529.1333 377.95334"><metadata
     id="metadata8"><rdf:RDF><cc:Work
         rdf:about=""><dc:format>image/svg+xml</dc:format><dc:type
           rdf:resource="http://purl.org/dc/dcmitype/StillImage" /></cc:Work></rdf:RDF></metadata><defs
     id="defs6"><clipPath
       clipPathUnits="userSpaceOnUse"
       id="clipPath18"><path
         d="M 0,283.465 H 396.85 V 0 H 0 Z"
         id="path16" /></clipPath></defs><g
     id="g10"
     transform="matrix(1.3333333,0,0,-1.3333333,0,377.95333)"><g
       id="g12"><g
         id="g14"
         clip-path="url(#clipPath18)"><g
           id="g20"
           transform="translate(396.8508,85.0396)"><path
             d="m 0,0 v 198.425 h -311.812 c -46.965,0 -85.039,-38.073 -85.039,-85.039 V -85.04 H -85.04 C -38.074,-85.04 0,-46.966 0,0"
             style="fill:#ffdd0d;fill-opacity:1;fill-rule:nonzero;stroke:none"
             id="path22" /></g><g
           id="g24"
           transform="translate(103.425,93.4424)"><path
             d="m 0,0 c 4.84,0 8.982,1.794 12.43,5.39 3.444,3.592 5.17,9.35 5.17,17.27 0,7.48 -1.726,12.722 -5.17,15.73 -3.448,3.004 -7.81,4.51 -13.09,4.51 -3.668,0 -7.37,-1.066 -11.111,-3.19 -3.739,-2.128 -7.077,-5.686 -10.009,-10.67 0.732,-5.576 1.832,-10.196 3.3,-13.86 1.464,-3.668 3.152,-6.638 5.06,-8.91 1.904,-2.276 3.994,-3.888 6.27,-4.84 C -4.878,0.474 -2.496,0 0,0 m 0.66,-24.2 c -6.748,0 -13.31,1.32 -19.69,3.96 -6.38,2.64 -12.028,6.744 -16.94,12.32 -4.916,5.572 -8.838,12.722 -11.77,21.45 -2.936,8.724 -4.401,19.25 -4.401,31.57 0,13.052 1.576,24.344 4.731,33.88 3.152,9.532 7.332,17.38 12.54,23.54 5.204,6.16 11.22,10.742 18.04,13.75 6.82,3.004 13.894,4.51 21.229,4.51 9.241,0 17.233,-1.65 23.981,-4.95 6.744,-3.3 12.32,-7.226 16.72,-11.77 L 28.16,84.7 c -2.496,2.64 -5.721,4.95 -9.681,6.93 -3.959,1.98 -7.995,2.97 -12.099,2.97 -3.816,0 -7.408,-0.736 -10.78,-2.2 -3.375,-1.468 -6.346,-3.926 -8.911,-7.37 -2.567,-3.448 -4.657,-7.958 -6.269,-13.53 -1.615,-5.576 -2.568,-12.396 -2.86,-20.46 1.76,2.344 3.812,4.434 6.16,6.27 2.344,1.832 4.764,3.372 7.259,4.62 2.493,1.244 4.985,2.2 7.481,2.86 2.492,0.66 4.84,0.99 7.04,0.99 6.012,0 11.55,-0.88 16.61,-2.64 5.06,-1.76 9.46,-4.4 13.2,-7.92 C 39.05,51.7 41.944,47.224 44,41.8 46.052,36.372 47.08,29.992 47.08,22.66 47.08,15.324 45.832,8.8 43.34,3.08 40.845,-2.64 37.51,-7.556 33.33,-11.66 29.149,-15.768 24.234,-18.886 18.59,-21.01 12.942,-23.135 6.964,-24.2 0.66,-24.2"
             style="fill:#1d1e1c;fill-opacity:1;fill-rule:nonzero;stroke:none"
             id="path26" /></g><g
           id="g28"
           transform="translate(260.9426,118.5865)"><path
             d="M 0,0 -2.4,-9 H 18.45 L 16.2,0 C 14.798,4.898 13.448,10.099 12.149,15.6 10.849,21.098 9.548,26.4 8.25,31.5 H 7.649 C 6.45,26.299 5.224,20.974 3.975,15.525 2.724,10.073 1.399,4.898 0,0 m -35.4,-49.5 30.6,97.8 h 26.55 l 30.6,-97.8 h -23.4 l -6,23.25 H -6.9 l -6,-23.25 z"
             style="fill:#1d1e1c;fill-opacity:1;fill-rule:nonzero;stroke:none"
             id="path30" /></g><g
           id="g32"
           transform="translate(193.5432,111.48)"><path
             d="m 0,0 c 3.302,-39.01 36.011,-69.642 75.875,-69.642 42.056,10e-4 76.148,34.094 76.147,76.149 0,42.055 -34.093,76.148 -76.148,76.147"
             style="fill:none;stroke:#1d1e1c;stroke-width:6;stroke-linecap:butt;stroke-linejoin:miter;stroke-miterlimit:10;stroke-dasharray:none;stroke-opacity:1"
             id="path34" /></g><g
           id="g36"
           transform="translate(172.7795,88.3438)"><path
             d="M 0,0 4.937,-3.418 21.751,20.923 44.802,2.374 48.563,7.056 20.484,29.641 Z"
             style="fill:#1d1e1c;fill-opacity:1;fill-rule:nonzero;stroke:none"
             id="path38" /></g></g></g></g></svg>
