<svg id="Calque_1" data-name="Calque 1" xmlns="http://www.w3.org/2000/svg" viewBox="0 0 818.95 584.98"><defs><style>.cls-1{fill:#f3986a;}.cls-2{fill:#010101;}</style></defs><path class="cls-1" d="M831,415.4V5.92H187.49A175.5,175.5,0,0,0,12,181.41V590.9H655.45A175.5,175.5,0,0,0,831,415.4" transform="translate(-11.99 -5.92)"/><polygon class="cls-2" points="175.38 532.76 175.38 451.78 224.15 451.78 224.15 463.92 189.74 463.92 189.74 484.59 218.84 484.59 218.84 496.73 189.74 496.73 189.74 520.62 225.39 520.62 225.39 532.76 175.38 532.76"/><path class="cls-2" d="M248.74,538.67l23-41.73-21.54-39.25h16l8.92,17.95c1,1.92,1.95,3.85,2.91,5.82s2,4.17,3.28,6.58h.49c1-2.41,1.92-4.58,2.78-6.58s1.77-3.9,2.67-5.82l8.55-17.95H311l-21.54,39.88,23,41.1h-16l-9.91-19.07c-1.07-2.15-2.12-4.28-3.15-6.37s-2.17-4.4-3.42-6.87h-.49c-1.06,2.47-2.08,4.77-3,6.87s-1.92,4.22-2.92,6.37L264,538.67Z" transform="translate(-11.99 -5.92)"/><path class="cls-2" d="M340,497.45h10.53q17.81,0,17.82-14.74,0-7.68-4.64-10.59c-3.09-1.93-7.65-2.92-13.69-2.92H340ZM325.6,538.67v-81h25.51a58.28,58.28,0,0,1,12.44,1.25,26.57,26.57,0,0,1,10,4.2,20.29,20.29,0,0,1,6.55,7.74,30.24,30.24,0,0,1,0,23.47,22.81,22.81,0,0,1-6.49,8.24,27.23,27.23,0,0,1-9.78,4.82A46.05,46.05,0,0,1,351.6,509H340v29.71Z" transform="translate(-11.99 -5.92)"/><path class="cls-2" d="M411.49,495.58H423q8.29,0,12.7-3.47c2.93-2.31,4.38-5.77,4.38-10.39s-1.45-8-4.38-9.79-7.17-2.73-12.7-2.73H411.49Zm-14.37,43.09v-81h27.36a52.08,52.08,0,0,1,11.77,1.25,26.26,26.26,0,0,1,9.41,4,19.51,19.51,0,0,1,6.26,7.37,25.56,25.56,0,0,1,2.28,11.39c0,6.2-1.46,11.18-4.39,15a24.26,24.26,0,0,1-11.7,8.18l19.32,33.79H441.32L423.87,507H411.49v31.7Z" transform="translate(-11.99 -5.92)"/><polygon class="cls-2" points="459.41 532.76 459.41 451.78 508.19 451.78 508.19 463.92 473.76 463.92 473.76 484.59 502.86 484.59 502.86 496.73 473.76 496.73 473.76 520.62 509.44 520.62 509.44 532.76 459.41 532.76"/><path class="cls-2" d="M563.41,540.15a41.85,41.85,0,0,1-15.79-3.08,41.39,41.39,0,0,1-13.43-8.8l8.41-9.77a36.76,36.76,0,0,0,9.91,6.61,26.79,26.79,0,0,0,11.14,2.55q6.93,0,10.54-2.86a9.18,9.18,0,0,0,3.58-7.55,8.66,8.66,0,0,0-.93-4.2,9.35,9.35,0,0,0-2.59-3,22,22,0,0,0-4-2.41c-1.53-.75-3.2-1.48-5-2.23l-11.16-4.84a40,40,0,0,1-5.88-3.08A26.52,26.52,0,0,1,543,493a20.31,20.31,0,0,1-5.2-14,20.22,20.22,0,0,1,2-9,22.65,22.65,0,0,1,5.64-7.24,26.09,26.09,0,0,1,8.59-4.82,33.1,33.1,0,0,1,11-1.74A34.57,34.57,0,0,1,578.63,459a35.06,35.06,0,0,1,11.27,7.5l-7.3,9.15a36.43,36.43,0,0,0-8.17-5.07,23.22,23.22,0,0,0-9.42-1.85q-5.82,0-9.28,2.53a8.18,8.18,0,0,0-3.46,7,7.51,7.51,0,0,0,1.05,4.05,11.06,11.06,0,0,0,2.85,3,23.77,23.77,0,0,0,4.14,2.35c1.57.7,3.19,1.38,4.84,2l11,4.58a38.86,38.86,0,0,1,6.57,3.47,24.08,24.08,0,0,1,5.14,4.58,20.28,20.28,0,0,1,3.4,6,23.15,23.15,0,0,1,1.24,7.86A21.92,21.92,0,0,1,584.77,533a28.27,28.27,0,0,1-9.16,5.2,36,36,0,0,1-12.2,1.91" transform="translate(-11.99 -5.92)"/><path class="cls-2" d="M632.29,540.15a41.75,41.75,0,0,1-29.22-11.88l8.42-9.77a36.6,36.6,0,0,0,9.91,6.61,26.74,26.74,0,0,0,11.13,2.55c4.63,0,8.13-1,10.54-2.86a9.18,9.18,0,0,0,3.58-7.55,8.66,8.66,0,0,0-.93-4.2,9.35,9.35,0,0,0-2.59-3,21.65,21.65,0,0,0-4-2.41c-1.52-.75-3.2-1.48-5-2.23L623,500.53a40.07,40.07,0,0,1-5.89-3.08,26.52,26.52,0,0,1-5.25-4.46,20.38,20.38,0,0,1-5.21-14,20.1,20.1,0,0,1,2.05-9,22.68,22.68,0,0,1,5.65-7.24,26,26,0,0,1,8.59-4.82,33,33,0,0,1,10.95-1.74A34.61,34.61,0,0,1,647.52,459a35.17,35.17,0,0,1,11.27,7.5l-7.31,9.15a36.43,36.43,0,0,0-8.17-5.07,23.19,23.19,0,0,0-9.42-1.85c-3.87,0-7,.84-9.28,2.53a8.17,8.17,0,0,0-3.45,7,7.51,7.51,0,0,0,1,4.05,11.21,11.21,0,0,0,2.85,3,24.15,24.15,0,0,0,4.14,2.35q2.37,1,4.84,2l11,4.58a39.24,39.24,0,0,1,6.57,3.47,24.26,24.26,0,0,1,5.13,4.58,20.07,20.07,0,0,1,3.4,6,23.15,23.15,0,0,1,1.24,7.86A22,22,0,0,1,653.65,533a28.27,28.27,0,0,1-9.16,5.2,36,36,0,0,1-12.2,1.91" transform="translate(-11.99 -5.92)"/><path class="cls-2" d="M444.9,323.56h62.65V156.92h-54V115.63c31.33-5.9,51.31-14.08,71.73-26.33h49V323.56h54v54H444.9Z" transform="translate(-11.99 -5.92)"/><path class="cls-2" d="M221.89,323.56h62.66V156.92h-54V115.63c31.33-5.9,51.29-14.08,71.74-26.33h49V323.56h54v54H221.89Z" transform="translate(-11.99 -5.92)"/></svg>