<svg id="Calque_1" data-name="Calque 1" xmlns="http://www.w3.org/2000/svg" viewBox="0 0 816.41 583.15"><defs><style>.cls-1{fill:#3e9bba;}.cls-2{fill:#fff;}</style></defs><path class="cls-1" d="M828.33,414.08V5.88H186.87A174.92,174.92,0,0,0,11.93,180.82V589H653.39A174.92,174.92,0,0,0,828.33,414.08" transform="translate(-11.93 -5.88)"/><path class="cls-2" d="M278.87,471.13q-40.14,0-67.88-12.58t-45.77-33.7l35-47.84a140,140,0,0,0,32.67,23.65,82.42,82.42,0,0,0,38.82,9.27q24.15,0,38.57-10t14.4-28.55a47.71,47.71,0,0,0-3.86-19.55q-3.86-8.73-13.63-14.66t-26.72-9.24q-17-3.37-43.73-3.35V271.05q22.08,0,36.78-3.08t23.65-9q9-5.91,12.85-13.88a40,40,0,0,0,3.86-17.74q0-17-10.29-26.5t-29.84-9.5a65.19,65.19,0,0,0-31.62,7.69,171.82,171.82,0,0,0-29.58,21.11l-38-46.31A191.9,191.9,0,0,1,222,143.26Q247,132.2,277.32,132.2a169.67,169.67,0,0,1,46.05,5.9q20.82,5.93,35.48,17.51a81.72,81.72,0,0,1,22.87,28Q390,200.1,390,221.69q0,25.74-14.14,43.46t-40.38,29.06v2q28.29,8.25,46.54,28.06T400.24,376q0,22.65-9.76,40.38a91.14,91.14,0,0,1-26.24,29.84,121.92,121.92,0,0,1-38.57,18.52,167.83,167.83,0,0,1-46.8,6.42" transform="translate(-11.93 -5.88)"/><path class="cls-2" d="M557.77,414.57q17,0,29.06-12.62t12.1-40.38q0-26.22-12.1-36.75c-8-7-18.26-10.57-30.59-10.57-8.58,0-17.22,2.51-26,7.49S513.73,335,506.88,346.66q2.55,19.56,7.69,32.4t11.83,20.85a39.44,39.44,0,0,0,14.66,11.32,43,43,0,0,0,16.71,3.34m1.55,56.56a118.93,118.93,0,0,1-46-9.27q-22.38-9.24-39.6-28.8t-27.54-50.15q-10.28-30.59-10.28-73.79,0-45.78,11.06-79.2t29.32-55q18.24-21.6,42.17-32.14a121.77,121.77,0,0,1,49.65-10.54q32.4,0,56,11.58t39.08,27.5l-39.6,45.28q-8.73-9.28-22.64-16.22a62.47,62.47,0,0,0-53.48-1.78q-11.84,5.13-20.83,17.22T512,247.4q-5.65,19.57-6.68,47.84a78.35,78.35,0,0,1,14.4-14.66,100,100,0,0,1,17-10.8,91.92,91.92,0,0,1,17.48-6.68,64.36,64.36,0,0,1,16.47-2.33A117.38,117.38,0,0,1,609.47,267a85.21,85.21,0,0,1,30.87,18.49q13.1,12.36,20.31,31.4t7.2,44.72q0,25.76-8.76,45.8a108.23,108.23,0,0,1-23.38,34.44,97.72,97.72,0,0,1-34.48,21.87,118.3,118.3,0,0,1-41.91,7.45" transform="translate(-11.93 -5.88)"/></svg>