<svg id="Calque_1" data-name="Calque 1" xmlns="http://www.w3.org/2000/svg" viewBox="0 0 687.76 491.26"><defs><style>.cls-1{fill:#0877ba;}.cls-2{fill:#fff;}</style></defs><path class="cls-1" d="M687.76,343.88V0H147.37A147.38,147.38,0,0,0,0,147.37V491.26H540.39A147.38,147.38,0,0,0,687.76,343.88"/><path class="cls-2" d="M245.57,386.7V350.31q35.08-33.36,62.17-60.44T350,240q15.16-22.74,15.17-42.24,0-20.36-10.62-31t-28.37-10.61a44.92,44.92,0,0,0-26.65,8.45,142.1,142.1,0,0,0-22.31,19.71l-34.66-34.23q20.36-21.66,41.59-32.71t50.69-11.05q27.3,0,47.66,10.83a79.17,79.17,0,0,1,31.84,30.55q11.48,19.73,11.49,46.14,0,23-12.79,47A286.28,286.28,0,0,1,380.31,289q-19.94,24-42.46,47.44,10.41-1.29,23.4-2.38T383.78,333h55.46V386.7Z"/></svg>