<?xml version="1.0" encoding="UTF-8"?>
<!DOCTYPE svg PUBLIC "-//W3C//DTD SVG 1.1//EN" "http://www.w3.org/Graphics/SVG/1.1/DTD/svg11.dtd">
<svg xmlns="http://www.w3.org/2000/svg" version="1.1" width="210px" height="150px" style="shape-rendering:geometricPrecision; text-rendering:geometricPrecision; image-rendering:optimizeQuality; fill-rule:evenodd; clip-rule:evenodd" xmlns:xlink="http://www.w3.org/1999/xlink">
<g><path style="opacity:0.997" fill="#02698a" d="M 34.5,-0.5 C 92.8333,-0.5 151.167,-0.5 209.5,-0.5C 209.5,37.8333 209.5,76.1667 209.5,114.5C 204.167,132.5 192.5,144.167 174.5,149.5C 116.167,149.5 57.8333,149.5 -0.5,149.5C -0.5,111.167 -0.5,72.8333 -0.5,34.5C 4.83333,16.5 16.5,4.83333 34.5,-0.5 Z"/></g>
<g><path style="opacity:1" fill="#fcfcfd" d="M 57.5,32.5 C 68.8214,31.0368 79.4881,32.8702 89.5,38C 96.1355,44.4956 98.3022,52.3289 96,61.5C 93.777,67.5434 89.6103,71.71 83.5,74C 97.2633,79.3606 102.097,89.1939 98,103.5C 92.8135,112.52 84.9802,117.687 74.5,119C 60.4535,121.261 48.4535,117.428 38.5,107.5C 41.1778,102.812 44.3444,98.4785 48,94.5C 54.4652,101.21 62.2986,103.71 71.5,102C 78.8235,98.5957 80.4901,93.2623 76.5,86C 70.554,82.9179 64.2206,81.7513 57.5,82.5C 57.5,77.5 57.5,72.5 57.5,67.5C 63.797,67.7137 69.4637,66.047 74.5,62.5C 78.5481,53.5913 75.7148,48.9247 66,48.5C 60.1784,48.9682 55.1784,51.3015 51,55.5C 47.5,51.3333 44,47.1667 40.5,43C 45.5939,38.4589 51.2606,34.9589 57.5,32.5 Z"/></g>
<g><path style="opacity:1" fill="#fbfcfd" d="M 129.5,32.5 C 136.906,32.152 144.239,32.652 151.5,34C 166.88,40.4701 171.047,51.3034 164,66.5C 160.94,69.6135 157.44,72.1135 153.5,74C 169.158,80.1527 173.658,90.9861 167,106.5C 164.575,110.134 161.408,112.968 157.5,115C 142.279,121.701 127.613,120.701 113.5,112C 111.773,110.611 110.439,108.944 109.5,107C 111.913,102.845 114.579,98.8447 117.5,95C 121.721,97.1437 126.054,99.477 130.5,102C 137.9,103.781 144.067,101.948 149,96.5C 150.559,88.7198 147.392,84.2198 139.5,83C 135.514,82.5012 131.514,82.3345 127.5,82.5C 127.5,77.5 127.5,72.5 127.5,67.5C 133.114,67.51 138.447,66.3433 143.5,64C 147.432,59.2626 147.432,54.5959 143.5,50C 134.95,46.8257 127.617,48.659 121.5,55.5C 118.047,51.4246 114.713,47.2579 111.5,43C 116.851,38.1655 122.851,34.6655 129.5,32.5 Z"/></g>
</svg>
