<svg id="Calque_1" data-name="Calque 1" xmlns="http://www.w3.org/2000/svg" viewBox="0 0 584.89 584.97"><defs><style>.cls-1{fill:#e73633;}.cls-2{fill:#fff;}</style></defs><path class="cls-1" d="M714.9,299.66c0,161.53-131,292.49-292.49,292.49S130,461.19,130,299.66,261,7.18,422.41,7.18s292.49,131,292.49,292.48" transform="translate(-130.01 -7.18)"/><path class="cls-2" d="M445.88,387.27C505.54,330.9,547.6,290.78,547.6,257.59c0-22.89-12.9-35.42-33.19-35.42-16.92,0-29.82,11.48-41.68,24L443.27,217c23.27-24.68,45-37.21,78.53-37.21,46,0,77.33,29.53,77.33,74.42,0,39.46-36.84,81.44-74.8,121.27,11.79-1.5,28-3,39.08-3h47.13v45.72H445.88Z" transform="translate(-130.01 -7.18)"/><polygon class="cls-2" points="96.93 170.8 96.93 216.51 163.23 216.51 163.23 411 217.37 411 217.37 216.51 283.37 216.51 283.37 170.8 96.93 170.8"/></svg>