<svg id="Calque_1" data-name="Calque 1" xmlns="http://www.w3.org/2000/svg" viewBox="0 0 819.87 585.62"><defs><style>.cls-1{fill:#f3a4ba;}.cls-2{fill:#1e1e1c;}</style></defs><path class="cls-1" d="M830.88,415.16V5.22H186.7A175.69,175.69,0,0,0,11,180.91V590.84H655.2A175.67,175.67,0,0,0,830.88,415.16" transform="translate(-11.01 -5.22)"/><path class="cls-2" d="M170.73,422.88c83.67-79,142.56-135.32,142.56-181.81,0-32-18.09-49.58-46.49-49.58-23.76,0-41.83,16-58.36,33.57l-41.32-40.8c32.54-34.6,63-52.17,110-52.17,64.56,0,108.46,41.33,108.46,104.33,0,55.27-51.65,114.15-104.84,169.93,16.53-2.06,39.25-4.14,54.75-4.14h66.11v64.05H170.73Z" transform="translate(-11.01 -5.22)"/><path class="cls-2" d="M436.67,422.88c83.67-79,142.56-135.32,142.56-181.81,0-32-18.09-49.58-46.49-49.58-23.76,0-41.83,16-58.36,33.57l-41.33-40.8c32.54-34.6,63-52.17,110-52.17,64.56,0,108.46,41.33,108.46,104.33,0,55.27-51.65,114.15-104.84,169.93,16.52-2.06,39.25-4.14,54.75-4.14h66.11v64.05H436.67Z" transform="translate(-11.01 -5.22)"/></svg>