<svg id="Calque_1" data-name="Calque 1" xmlns="http://www.w3.org/2000/svg" viewBox="0 0 815.17 582.35"><defs><style>.cls-1{fill:#87bce7;}.cls-2{fill:#010101;}</style></defs><path class="cls-1" d="M829,414.82V7.18H188.54A174.71,174.71,0,0,0,13.82,181.9V589.53H654.27A174.7,174.7,0,0,0,829,414.82" transform="translate(-13.82 -7.18)"/><path class="cls-2" d="M464.06,257.66c-6.66-51.34-27.75-67.77-50.83-67.77-22.14,0-41.15,15.91-41.15,52.91,0,34.4,18.49,47.19,43.13,47.19,16.42,0,34.4-8.73,48.85-32.33M348,387.58c10.81,12.37,31.39,23.08,50.31,23.08C434.75,410.66,463,385,465.51,309c-16.94,21.62-45.1,34.41-65.16,34.41-55.51,0-97.08-31.81-97.08-100.61,0-67.87,49.26-109.45,108.4-109.45,63.09,0,123.69,47.3,123.69,161.83,0,121.71-63.61,176.59-131.9,176.59-43.23,0-75-18.4-95.51-39Z" transform="translate(-13.82 -7.18)"/></svg>