<svg id="Calque_1" data-name="Calque 1" xmlns="http://www.w3.org/2000/svg" viewBox="0 0 812.42 580.39"><defs><style>.cls-1{fill:#00814b;}.cls-2{fill:#fff;}</style></defs><path class="cls-1" d="M827.16,414.1V7.84H188.76c-96.13,0-174,78-174,174.13V588.23H653c96.13,0,174.13-78,174.13-174.13" transform="translate(-14.74 -7.84)"/><path class="cls-2" d="M460.79,227.84c0-25.07-14.82-42-39.37-42-20,0-36.35,12.22-36.35,37.29,0,26.62,22.58,39.47,55.83,52.21,12.74-14.82,19.89-30.67,19.89-47.55M421.94,418.75c25.07,0,43.51-13.36,43.51-40.51,0-28.59-27.66-39.36-68.57-56.76-14.3,13.26-25.07,31.7-25.07,51.69,0,28.59,23,45.58,50.13,45.58M362.59,302v-2.06c-25.07-19-43.51-42.48-43.51-76.76,0-55.21,43.51-89.6,103.9-89.6,59.35,0,98.71,35.32,98.71,89.08,0,31.18-19.88,56.35-42.47,71.16v2.08c31.29,16.88,56.36,41.94,56.36,84.94,0,51.16-46.1,90.12-115.19,90.12-64.95,0-113.12-36.36-113.12-89.09,0-39.47,24.66-63.5,55.32-79.87" transform="translate(-14.74 -7.84)"/></svg>