<svg id="Calque_1" data-name="Calque 1" xmlns="http://www.w3.org/2000/svg" viewBox="0 0 811.64 579.74"><defs><style>.cls-1{fill:#068e3d;}.cls-2{fill:#fff;}</style></defs><path class="cls-1" d="M823.56,411.69V5.88H185.84A173.89,173.89,0,0,0,11.93,179.79V585.61H649.65A173.9,173.9,0,0,0,823.56,411.69" transform="translate(-11.93 -5.88)"/><path class="cls-2" d="M276.46,468.41q-39.85,0-67.49-12.5T163.48,422.4l34.76-47.56a139.12,139.12,0,0,0,32.47,23.51,81.9,81.9,0,0,0,38.59,9.22q24,0,38.34-10T322,369.23a47.35,47.35,0,0,0-3.84-19.44c-2.54-5.79-7.07-10.65-13.54-14.58s-15.32-7-26.57-9.19-25.74-3.32-43.47-3.32V269.5q22,0,36.57-3.06t23.51-8.94q8.92-5.88,12.77-13.8a39.79,39.79,0,0,0,3.83-17.64q0-16.87-10.22-26.34t-29.63-9.45a64.83,64.83,0,0,0-31.47,7.65,169.67,169.67,0,0,0-29.38,21l-37.85-46A190.33,190.33,0,0,1,220,142.46q24.78-11,55-11a168.51,168.51,0,0,1,45.75,5.87q20.7,5.88,35.28,17.41a81.72,81.72,0,0,1,22.76,27.86q8.16,16.36,8.16,37.83,0,25.59-14.06,43.2T332.7,292.52v2q28.13,8.19,46.27,27.89t18.15,51.36q0,22.51-9.7,40.14a90.64,90.64,0,0,1-26.09,29.67A121.33,121.33,0,0,1,323,462a166.59,166.59,0,0,1-46.53,6.38" transform="translate(-11.93 -5.88)"/><path class="cls-2" d="M539.58,468.41q-39.9,0-67.49-13t-47-32.47l33.76-47.56a173.71,173.71,0,0,0,31.95,22.76,77.44,77.44,0,0,0,38.08,9.45q25,0,39.89-12.8T583.56,357q0-24.52-14.06-37.34t-37.08-12.77a95.1,95.1,0,0,0-12.77.77,50.4,50.4,0,0,0-11,2.81,104.49,104.49,0,0,0-11.25,5.12q-5.9,3.06-13.06,7.65l-33.73-21.47,9.19-164.13H643.89V201H524.75l-5.61,60.85a87.85,87.85,0,0,1,17.64-5.9,90.75,90.75,0,0,1,18.66-1.78,125.81,125.81,0,0,1,39.6,6.13,95.93,95.93,0,0,1,33,18.41,84.88,84.88,0,0,1,22.51,31.18q8.16,18.94,8.18,45,0,27.1-9.73,48a107,107,0,0,1-26.06,35.54,113.23,113.23,0,0,1-38.11,22.24,134.58,134.58,0,0,1-45.24,7.67" transform="translate(-11.93 -5.88)"/></svg>