<svg id="Calque_1" data-name="Calque 1" xmlns="http://www.w3.org/2000/svg" viewBox="0 0 816.78 583.44"><defs><style>.cls-1{fill:#a8c5b2;}.cls-2{fill:#010101;}</style></defs><path class="cls-1" d="M829.64,415V6.53H187.85c-96.64,0-175,78.37-175,175.05V590H654.65a175,175,0,0,0,175-175" transform="translate(-12.86 -6.53)"/><polygon class="cls-2" points="180.71 531.36 180.71 450.6 229.37 450.6 229.37 462.7 195.06 462.7 195.06 483.33 224.04 483.33 224.04 495.43 195.06 495.43 195.06 519.26 230.58 519.26 230.58 531.36 180.71 531.36"/><path class="cls-2" d="M257.9,537.89l23-41.6L259.4,457.13h15.93l8.91,17.92c1,1.87,1.93,3.8,2.88,5.79s2,4.18,3.26,6.54h.51c1-2.36,1.93-4.58,2.77-6.54s1.76-3.92,2.65-5.79l8.53-17.92H320l-21.47,39.76,23,41h-16l-9.85-19c-1.07-2.13-2.11-4.27-3.17-6.37s-2.16-4.38-3.4-6.83h-.47c-1.09,2.45-2.07,4.73-3,6.83s-1.93,4.24-2.91,6.37l-9.65,19Z" transform="translate(-12.86 -6.53)"/><path class="cls-2" d="M352.16,496.78h10.49q17.78,0,17.78-14.7,0-7.65-4.64-10.55c-3.08-1.95-7.63-2.9-13.63-2.9h-10Zm-14.34,41.11V457.13h25.44a59.89,59.89,0,0,1,12.42,1.24,26.16,26.16,0,0,1,9.91,4.21,20.39,20.39,0,0,1,6.6,7.69,30.59,30.59,0,0,1,0,23.42,24.16,24.16,0,0,1-6.48,8.22,28.09,28.09,0,0,1-9.77,4.81,45.48,45.48,0,0,1-12.19,1.53H352.16v29.64Z" transform="translate(-12.86 -6.53)"/><path class="cls-2" d="M427.6,494.93h11.47c5.53,0,9.77-1.15,12.68-3.48s4.38-5.74,4.38-10.35-1.47-8-4.38-9.77-7.15-2.7-12.68-2.7H427.6Zm-14.35,43V457.13h27.32a53.33,53.33,0,0,1,11.69,1.24,26.47,26.47,0,0,1,9.4,4,19.56,19.56,0,0,1,6.25,7.35,25.33,25.33,0,0,1,2.28,11.38q0,9.25-4.38,14.93a24.21,24.21,0,0,1-11.67,8.15l19.27,33.71H457.36l-17.43-31.6H427.6v31.6Z" transform="translate(-12.86 -6.53)"/><polygon class="cls-2" points="479.31 531.36 479.31 450.6 527.98 450.6 527.98 462.7 493.66 462.7 493.66 483.33 522.65 483.33 522.65 495.43 493.66 495.43 493.66 519.26 529.19 519.26 529.19 531.36 479.31 531.36"/><path class="cls-2" d="M588,539.39a41.52,41.52,0,0,1-15.73-3.09,40.81,40.81,0,0,1-13.4-8.79l8.39-9.74a35.81,35.81,0,0,0,9.88,6.6,26.32,26.32,0,0,0,11.09,2.54c4.64,0,8.16-.95,10.52-2.82a9.23,9.23,0,0,0,3.58-7.55,8.91,8.91,0,0,0-.9-4.21,9.76,9.76,0,0,0-2.62-3,21.46,21.46,0,0,0-3.92-2.39c-1.53-.75-3.23-1.5-5-2.22l-11.13-4.84a36.78,36.78,0,0,1-5.87-3.08,25.82,25.82,0,0,1-5.25-4.44,20.9,20.9,0,0,1-3.77-6.05,20.55,20.55,0,0,1-1.39-7.92,19.7,19.7,0,0,1,2-8.94,22.94,22.94,0,0,1,5.62-7.23,26.15,26.15,0,0,1,8.59-4.81,33.3,33.3,0,0,1,10.92-1.73,33.86,33.86,0,0,1,13.57,2.8,35.17,35.17,0,0,1,11.27,7.43L607.19,475A36.46,36.46,0,0,0,599,470a23.26,23.26,0,0,0-9.36-1.84c-3.86,0-6.95.83-9.28,2.54a8.12,8.12,0,0,0-3.43,7,7.4,7.4,0,0,0,1,4,10.52,10.52,0,0,0,2.85,3,22.65,22.65,0,0,0,4.12,2.33c1.56.73,3.17,1.39,4.84,2.05l11,4.58A37.91,37.91,0,0,1,607.3,497a23,23,0,0,1,5.13,4.55,20.13,20.13,0,0,1,3.4,6,23.18,23.18,0,0,1,1.24,7.83,21.82,21.82,0,0,1-2,9.28,22.68,22.68,0,0,1-5.73,7.58,28.09,28.09,0,0,1-9.17,5.19A35.67,35.67,0,0,1,588,539.39" transform="translate(-12.86 -6.53)"/><path class="cls-2" d="M658.9,539.39a41.48,41.48,0,0,1-15.73-3.09,40.81,40.81,0,0,1-13.4-8.79l8.38-9.74a35.87,35.87,0,0,0,9.89,6.6,26.25,26.25,0,0,0,11.09,2.54c4.64,0,8.15-.95,10.52-2.82a9.22,9.22,0,0,0,3.57-7.55,9,9,0,0,0-.89-4.21,9.89,9.89,0,0,0-2.62-3,21.8,21.8,0,0,0-3.92-2.39c-1.53-.75-3.23-1.5-5-2.22l-11.12-4.84a36.44,36.44,0,0,1-5.88-3.08,25.5,25.5,0,0,1-5.24-4.44,19.78,19.78,0,0,1-5.16-14,19.57,19.57,0,0,1,2-8.94,22.66,22.66,0,0,1,5.62-7.23,26.2,26.2,0,0,1,8.58-4.81,33.34,33.34,0,0,1,10.92-1.73,33.83,33.83,0,0,1,13.57,2.8,35.17,35.17,0,0,1,11.27,7.43L678.06,475a36.63,36.63,0,0,0-8.18-5.07,23.34,23.34,0,0,0-9.37-1.84c-3.86,0-6.94.83-9.28,2.54a8.14,8.14,0,0,0-3.42,7,7.39,7.39,0,0,0,1,4,10.56,10.56,0,0,0,2.86,3,22.32,22.32,0,0,0,4.12,2.33c1.55.73,3.17,1.39,4.84,2.05l11,4.58a37.91,37.91,0,0,1,6.54,3.46,23.4,23.4,0,0,1,5.13,4.55,20.13,20.13,0,0,1,3.4,6,23.44,23.44,0,0,1,1.23,7.83,22,22,0,0,1-2,9.28,22.85,22.85,0,0,1-5.74,7.58,28,28,0,0,1-9.16,5.19,35.71,35.71,0,0,1-12.16,1.93" transform="translate(-12.86 -6.53)"/><path class="cls-2" d="M214,377.22V323.34h62.5V157.16H222.54V116q23.55-4.54,39.85-10.89a217.81,217.81,0,0,0,31.7-15.39H343V323.34H396.9v53.88Z" transform="translate(-12.86 -6.53)"/><path class="cls-2" d="M438.08,377.22v-38q27.62-25.8,50.48-48.23T528,248.85q16.51-19.71,25.82-36.68T563,179.78q0-21.27-10.86-32.36T522.3,136.3a46.77,46.77,0,0,0-28.06,8.85,154.73,154.73,0,0,0-23.11,20.6L434.94,130q21.21-22.65,43.45-34.2t53-11.56q21.3,0,38.73,6.6a88.63,88.63,0,0,1,30.11,18.53,81.27,81.27,0,0,1,19.48,28.76q6.78,16.77,6.77,37.6a97,97,0,0,1-7.67,36.91,200.58,200.58,0,0,1-20.63,37.57,397.31,397.31,0,0,1-29.42,37.58q-16.51,18.8-34.2,36.91c7.23-.89,15.33-1.73,24.23-2.48s16.86-1.15,23.77-1.15h58v56.16Z" transform="translate(-12.86 -6.53)"/></svg>