<svg id="Calque_1" data-name="Calque 1" xmlns="http://www.w3.org/2000/svg" viewBox="0 0 814.19 581.56"><defs><style>.cls-1{fill:#f59c08;}.cls-2{fill:#010101;}</style></defs><path class="cls-1" d="M828.14,414.42V7.33H188.43A174.48,174.48,0,0,0,14,181.8V588.88H653.68A174.46,174.46,0,0,0,828.14,414.42" transform="translate(-13.95 -7.33)"/><path class="cls-2" d="M174.83,422.09c83.1-78.47,141.56-134.39,141.56-180.55,0-31.79-17.94-49.24-46.16-49.24-23.59,0-41.55,15.9-58,33.34l-41-40.51c32.31-34.38,62.57-51.81,109.25-51.81,64.11,0,107.7,41,107.7,103.61,0,54.87-51.29,113.35-104.12,168.75,16.41-2.05,39-4.11,54.37-4.11H404.1v63.6H174.83Z" transform="translate(-13.95 -7.33)"/><path class="cls-2" d="M596,301c0-89.24-19.49-109.25-45.13-109.25-25.14,0-45.14,20-45.14,109.25,0,88.73,20,111.81,45.14,111.81C576.49,412.85,596,389.77,596,301m-161.57,0c0-110.78,46.68-167.72,116.44-167.72S667.28,190.26,667.28,301,620.6,471.32,550.85,471.32,434.41,411.82,434.41,301" transform="translate(-13.95 -7.33)"/></svg>