<svg id="Calque_1" data-name="Calque 1" xmlns="http://www.w3.org/2000/svg" viewBox="0 0 812.88 580.63"><defs><style>.cls-1{fill:#969329;}.cls-2{fill:#fff;}</style></defs><path class="cls-1" d="M826.84,413.49V7.05H188.14A174.17,174.17,0,0,0,14,181.23V587.67h638.7A174.19,174.19,0,0,0,826.84,413.49" transform="translate(-13.95 -7.05)"/><path class="cls-2" d="M283.71,470.31q-39.43,0-67.34-12.8t-45.83-33.29l34.82-47.62a137.2,137.2,0,0,0,32.78,23.55,82.66,82.66,0,0,0,38.4,9.22q24.06,0,38.41-10T329.29,371q0-14.32-7.17-24.83T296,330q-18.94-5.62-54.28-5.64V271.11q44,0,60.43-12t16.38-31.49q0-16.9-10.24-26.37t-29.7-9.48a64.64,64.64,0,0,0-31.49,7.68,170.41,170.41,0,0,0-29.45,21l-37.89-46.09a189.35,189.35,0,0,1,47.62-30.47q25.08-11,54.8-11,50.18,0,81.16,23.3t31,65.81q0,25.1-14.08,43T340,294.15v2.05q28.15,8.21,46.35,27.91t18.18,51.46q0,30.23-16.65,51.47t-44,32.26Q316.49,470.31,283.71,470.31Z" transform="translate(-13.95 -7.05)"/><path class="cls-2" d="M465.5,464.17V403.23h70.67V215.29H475.23v-46.6q26.63-5.12,45.07-12.29A247.67,247.67,0,0,0,556.15,139h55.3V403.23h60.94v60.94Z" transform="translate(-13.95 -7.05)"/></svg>