<?xml version="1.0" encoding="UTF-8"?>
<svg xmlns="http://www.w3.org/2000/svg"
  xmlns:xlink="http://www.w3.org/1999/xlink" viewBox="0 0 396.85 283.465">
  <defs>
    <clipPath id="clip-0">
      <path clip-rule="nonzero" d="M 0.300781 0 L 396.402344 0 L 396.402344 282.929688 L 0.300781 282.929688 Z M 0.300781 0 "/>
    </clipPath>
    <clipPath id="clip-1">
      <path clip-rule="nonzero" d="M 108 4 L 396.402344 4 L 396.402344 282.929688 L 108 282.929688 Z M 108 4 "/>
    </clipPath>
  </defs>
  <g clip-path="url(#clip-0)">
    <path fill-rule="nonzero" fill="rgb(100%, 86.66687%, 5.097961%)" fill-opacity="1" d="M 396.402344 198.050781 L 396.402344 0 L 85.175781 0 C 38.300781 0 0.296875 38 0.296875 84.878906 L 0.296875 282.929688 L 311.523438 282.929688 C 358.398438 282.929688 396.402344 244.929688 396.402344 198.050781 "/>
  </g>
  <path fill-rule="nonzero" fill="rgb(11.372375%, 11.764526%, 10.980225%)" fill-opacity="1" d="M 103.527344 189.664062 C 108.359375 189.664062 112.496094 187.875 115.9375 184.285156 C 119.375 180.699219 121.097656 174.953125 121.097656 167.046875 C 121.097656 159.582031 119.375 154.347656 115.9375 151.347656 C 112.496094 148.347656 108.140625 146.84375 102.871094 146.84375 C 99.210938 146.84375 95.515625 147.910156 91.78125 150.03125 C 88.046875 152.152344 84.714844 155.703125 81.789062 160.679688 C 82.519531 166.246094 83.617188 170.855469 85.082031 174.511719 C 86.546875 178.175781 88.230469 181.140625 90.132812 183.40625 C 92.035156 185.679688 94.121094 187.289062 96.390625 188.238281 C 98.660156 189.191406 101.039062 189.664062 103.527344 189.664062 M 104.1875 213.820312 C 97.453125 213.820312 90.902344 212.5 84.535156 209.867188 C 78.167969 207.230469 72.53125 203.136719 67.625 197.570312 C 62.71875 192.007812 58.804688 184.871094 55.878906 176.160156 C 52.949219 167.453125 51.484375 156.945312 51.484375 144.648438 C 51.484375 131.621094 53.058594 120.351562 56.207031 110.832031 C 59.355469 101.320312 63.527344 93.484375 68.726562 87.335938 C 73.917969 81.1875 79.921875 76.617188 86.730469 73.613281 C 93.539062 70.617188 100.597656 69.113281 107.917969 69.113281 C 117.144531 69.113281 125.121094 70.757812 131.855469 74.054688 C 138.585938 77.347656 144.152344 81.265625 148.542969 85.800781 L 131.636719 105.125 C 129.144531 102.488281 125.925781 100.183594 121.972656 98.207031 C 118.023438 96.230469 113.992188 95.242188 109.898438 95.242188 C 106.089844 95.242188 102.503906 95.976562 99.136719 97.4375 C 95.769531 98.902344 92.804688 101.355469 90.242188 104.792969 C 87.679688 108.234375 85.59375 112.738281 83.984375 118.300781 C 82.375 123.863281 81.421875 130.671875 81.132812 138.722656 C 82.886719 136.382812 84.9375 134.296875 87.28125 132.460938 C 89.621094 130.632812 92.035156 129.097656 94.523438 127.851562 C 97.011719 126.609375 99.5 125.65625 101.992188 124.996094 C 104.480469 124.339844 106.824219 124.007812 109.019531 124.007812 C 115.019531 124.007812 120.546875 124.886719 125.597656 126.644531 C 130.648438 128.398438 135.039062 131.035156 138.773438 134.546875 C 142.503906 138.0625 145.394531 142.53125 147.445312 147.945312 C 149.496094 153.359375 150.519531 159.730469 150.519531 167.046875 C 150.519531 174.371094 149.273438 180.882812 146.789062 186.589844 C 144.296875 192.300781 140.96875 197.207031 136.796875 201.300781 C 132.625 205.402344 127.71875 208.515625 122.085938 210.636719 C 116.445312 212.757812 110.480469 213.820312 104.1875 213.820312 "/>
  <path fill-rule="nonzero" fill="rgb(11.372375%, 11.764526%, 10.980225%)" fill-opacity="1" d="M 260.75 164.566406 L 258.355469 173.550781 L 279.164062 173.550781 L 276.917969 164.566406 C 275.519531 159.679688 274.171875 154.488281 272.875 148.996094 C 271.578125 143.507812 270.28125 138.21875 268.984375 133.128906 L 268.382812 133.128906 C 267.1875 138.320312 265.964844 143.632812 264.71875 149.070312 C 263.46875 154.515625 262.144531 159.679688 260.75 164.566406 M 225.417969 213.976562 L 255.960938 116.359375 L 282.460938 116.359375 L 313 213.976562 L 289.644531 213.976562 L 283.65625 190.769531 L 253.863281 190.769531 L 247.875 213.976562 Z M 225.417969 213.976562 "/>
  <g clip-path="url(#clip-1)">
    <path fill="none" stroke-width="6" stroke-linecap="butt" stroke-linejoin="miter" stroke="rgb(11.372375%, 11.764526%, 10.980225%)" stroke-opacity="1" stroke-miterlimit="10" d="M -0.000976974 0.000859542 C 3.30212 -39.010129 36.012177 -69.642053 75.876336 -69.642053 C 117.932123 -69.642053 152.023689 -35.546574 152.023689 6.5053 C 152.023689 48.561087 117.92821 82.656567 75.872422 82.652653 " transform="matrix(0.998116, 0, 0, -0.998116, 193.477538, 171.661014)"/>
  </g>
  <path fill-rule="nonzero" fill="rgb(11.372375%, 11.764526%, 10.980225%)" fill-opacity="1" d="M 172.753906 194.753906 L 177.679688 198.164062 L 194.464844 173.871094 L 217.46875 192.382812 L 221.222656 187.710938 L 193.199219 165.167969 Z M 172.753906 194.753906 "/>
</svg>
