<svg id="Calque_1" data-name="Calque 1" xmlns="http://www.w3.org/2000/svg" viewBox="0 0 809.78 578.43"><defs><style>.cls-1{fill:#d285b1;}.cls-2{fill:#010101;}</style></defs><path class="cls-1" d="M825.38,413.39V8.49H189.12A173.53,173.53,0,0,0,15.6,182v404.9H651.85A173.53,173.53,0,0,0,825.38,413.39" transform="translate(-15.6 -8.49)"/><path class="cls-2" d="M198.55,376.63c19.39,18.88,43.36,32.65,70.91,32.65,31.63,0,52.55-13.77,52.55-38.26,0-28.57-16.84-46.42-87.24-46.42V271.55c58.16,0,76.52-17.35,76.52-43.37,0-22.44-14.28-35.7-39.79-35.7-22.95,0-40.3,10.71-60.7,28.56l-37.75-45.91c29.58-25.5,62.23-41.32,102-41.32,66.83,0,111.72,32.14,111.72,88.76,0,33.67-19.38,57.14-54.07,71.93v2C370,307.26,397,333.78,397,375.61,397,435.81,341.9,470,276.6,470c-52.54,0-89.27-18.37-112.74-45.91Z" transform="translate(-15.6 -8.49)"/><path class="cls-2" d="M598.55,300.62c0-88.76-19.38-108.66-44.89-108.66-25,0-44.89,19.9-44.89,108.66,0,88.26,19.89,111.21,44.89,111.21,25.51,0,44.89-22.95,44.89-111.21m-160.69,0c0-110.19,46.42-166.81,115.8-166.81s115.8,56.62,115.8,166.81S623,470,553.66,470s-115.8-59.18-115.8-169.37" transform="translate(-15.6 -8.49)"/></svg>