<?xml version="1.0" encoding="UTF-8"?>
<svg xmlns="http://www.w3.org/2000/svg"
  xmlns:xlink="http://www.w3.org/1999/xlink" viewBox="0 0 396.85 283.465">
  <defs>
    <clipPath id="clip-0">
      <path clip-rule="nonzero" d="M 0.300781 0 L 396.402344 0 L 396.402344 282.929688 L 0.300781 282.929688 Z M 0.300781 0 "/>
    </clipPath>
    <clipPath id="clip-1">
      <path clip-rule="nonzero" d="M 108 4 L 396.402344 4 L 396.402344 282.929688 L 108 282.929688 Z M 108 4 "/>
    </clipPath>
  </defs>
  <g clip-path="url(#clip-0)">
    <path fill-rule="nonzero" fill="rgb(100%, 86.66687%, 5.097961%)" fill-opacity="1" d="M 396.402344 198.050781 L 396.402344 0 L 85.175781 0 C 38.300781 0 0.296875 38.003906 0.296875 84.878906 L 0.296875 282.933594 L 311.523438 282.933594 C 358.402344 282.933594 396.402344 244.929688 396.402344 198.050781 "/>
  </g>
  <path fill-rule="nonzero" fill="rgb(11.372375%, 11.764526%, 10.980225%)" fill-opacity="1" d="M 103.527344 189.851562 C 108.359375 189.851562 112.492188 188.0625 115.933594 184.472656 C 119.371094 180.886719 121.097656 175.140625 121.097656 167.234375 C 121.097656 159.769531 119.371094 154.539062 115.933594 151.535156 C 112.492188 148.535156 108.140625 147.035156 102.871094 147.035156 C 99.210938 147.035156 95.515625 148.097656 91.78125 150.21875 C 88.046875 152.34375 84.714844 155.894531 81.789062 160.867188 C 82.519531 166.433594 83.617188 171.042969 85.082031 174.703125 C 86.546875 178.363281 88.230469 181.328125 90.132812 183.59375 C 92.035156 185.867188 94.121094 187.476562 96.390625 188.425781 C 98.660156 189.378906 101.039062 189.851562 103.527344 189.851562 M 104.1875 214.007812 C 97.453125 214.007812 90.902344 212.691406 84.535156 210.054688 C 78.167969 207.421875 72.53125 203.324219 67.625 197.757812 C 62.71875 192.195312 58.804688 185.058594 55.878906 176.347656 C 52.949219 167.640625 51.484375 157.136719 51.484375 144.839844 C 51.484375 131.8125 53.058594 120.539062 56.207031 111.023438 C 59.355469 101.507812 63.527344 93.675781 68.722656 87.527344 C 73.917969 81.378906 79.921875 76.804688 86.730469 73.800781 C 93.539062 70.804688 100.597656 69.300781 107.917969 69.300781 C 117.144531 69.300781 125.121094 70.949219 131.855469 74.242188 C 138.585938 77.535156 144.152344 81.453125 148.542969 85.988281 L 131.636719 105.3125 C 129.144531 102.675781 125.925781 100.371094 121.972656 98.394531 C 118.023438 96.417969 113.992188 95.429688 109.898438 95.429688 C 106.089844 95.429688 102.503906 96.164062 99.136719 97.628906 C 95.769531 99.09375 92.804688 101.542969 90.242188 104.984375 C 87.679688 108.421875 85.59375 112.925781 83.984375 118.488281 C 82.375 124.054688 81.421875 130.859375 81.132812 138.910156 C 82.886719 136.570312 84.9375 134.484375 87.28125 132.652344 C 89.621094 130.824219 92.035156 129.285156 94.523438 128.039062 C 97.011719 126.796875 99.5 125.84375 101.992188 125.183594 C 104.480469 124.527344 106.824219 124.195312 109.019531 124.195312 C 115.019531 124.195312 120.546875 125.074219 125.597656 126.832031 C 130.648438 128.589844 135.039062 131.222656 138.773438 134.738281 C 142.503906 138.25 145.394531 142.71875 147.445312 148.132812 C 149.496094 153.550781 150.519531 159.917969 150.519531 167.234375 C 150.519531 174.558594 149.273438 181.070312 146.789062 186.777344 C 144.296875 192.488281 140.96875 197.394531 136.796875 201.492188 C 132.621094 205.589844 127.71875 208.703125 122.082031 210.824219 C 116.445312 212.945312 110.480469 214.007812 104.1875 214.007812 "/>
  <path fill-rule="nonzero" fill="rgb(11.372375%, 11.764526%, 10.980225%)" fill-opacity="1" d="M 254.277344 196.9375 L 266.726562 196.9375 C 278.824219 196.9375 284.875 192.546875 284.875 183.765625 C 284.875 179.472656 283.375 176.40625 280.375 174.554688 C 277.375 172.710938 272.824219 171.785156 266.726562 171.785156 L 254.277344 171.785156 Z M 254.277344 155.46875 L 264.625 155.46875 C 270.023438 155.46875 273.949219 154.417969 276.398438 152.324219 C 278.847656 150.226562 280.074219 147.433594 280.074219 143.9375 C 280.074219 140.148438 278.824219 137.453125 276.324219 135.855469 C 273.824219 134.257812 269.972656 133.460938 264.777344 133.460938 L 254.277344 133.460938 Z M 232.226562 214.007812 L 232.226562 116.390625 L 265.675781 116.390625 C 270.777344 116.390625 275.5 116.765625 279.847656 117.515625 C 284.199219 118.261719 288 119.585938 291.25 121.480469 C 294.496094 123.378906 297.046875 125.875 298.898438 128.96875 C 300.75 132.0625 301.675781 135.957031 301.675781 140.644531 C 301.675781 142.84375 301.375 145.039062 300.773438 147.234375 C 300.175781 149.429688 299.324219 151.476562 298.222656 153.371094 C 297.121094 155.269531 295.796875 156.964844 294.25 158.460938 C 292.699219 159.960938 290.921875 161.058594 288.925781 161.753906 L 288.925781 162.355469 C 291.421875 162.953125 293.722656 163.878906 295.824219 165.125 C 297.925781 166.371094 299.773438 167.945312 301.375 169.839844 C 302.972656 171.738281 304.222656 173.957031 305.125 176.503906 C 306.023438 179.046875 306.472656 181.96875 306.472656 185.261719 C 306.472656 190.253906 305.5 194.542969 303.550781 198.136719 C 301.597656 201.730469 298.898438 204.699219 295.449219 207.046875 C 292 209.390625 287.972656 211.140625 283.375 212.285156 C 278.773438 213.433594 273.824219 214.007812 268.523438 214.007812 Z M 232.226562 214.007812 "/>
  <g clip-path="url(#clip-1)">
    <path fill="none" stroke-width="6" stroke-linecap="butt" stroke-linejoin="miter" stroke="rgb(11.372375%, 11.764526%, 10.980225%)" stroke-opacity="1" stroke-miterlimit="10" d="M 0.000933415 0.00125358 C -42.054854 -0.394022 -75.825502 -34.743887 -75.430227 -76.717488 C -75.034951 -118.691089 -40.622468 -152.39912 1.429406 -152.007758 C 41.289651 -151.63205 73.706186 -120.757482 76.645316 -81.79737 " transform="matrix(0.998116, 0, 0, -0.998116, 268.635787, 89.337189)"/>
  </g>
  <path fill-rule="nonzero" fill="rgb(11.372375%, 11.764526%, 10.980225%)" fill-opacity="1" d="M 366.066406 193.886719 L 361.167969 197.34375 L 344.171875 173.199219 L 321.328125 191.917969 L 317.535156 187.277344 L 345.359375 164.484375 Z M 366.066406 193.886719 "/>
</svg>
