<svg id="Calque_1" data-name="Calque 1" xmlns="http://www.w3.org/2000/svg" viewBox="0 0 815.69 582.63"><defs><style>.cls-1{fill:#f29fc5;}.cls-2{fill:#1f1f1d;}</style></defs><path class="cls-1" d="M830.29,415.63V7.79H189.39A174.77,174.77,0,0,0,14.61,182.58V590.42h640.9A174.77,174.77,0,0,0,830.29,415.63" transform="translate(-14.61 -7.79)"/><polygon class="cls-2" points="174.67 530.63 174.67 449.97 223.27 449.97 223.27 462.05 188.97 462.05 188.97 482.66 217.95 482.66 217.95 494.74 188.97 494.74 188.97 518.54 224.48 518.54 224.48 530.63 174.67 530.63"/><path class="cls-2" d="M250.4,538.42l22.93-41.56-21.47-39.1h15.92l8.89,17.9c1,1.87,2,3.82,2.9,5.78s2,4.15,3.26,6.53h.49c1-2.38,1.92-4.54,2.79-6.53s1.72-3.91,2.64-5.78l8.52-17.9h15.17L291,497.47l22.93,40.95H298l-9.87-19c-1.06-2.13-2.1-4.26-3.14-6.36s-2.15-4.38-3.39-6.85h-.49c-1.06,2.47-2.07,4.78-3,6.85s-1.9,4.23-2.91,6.36l-9.61,19Z" transform="translate(-14.61 -7.79)"/><path class="cls-2" d="M341.26,497.36h10.47q17.79,0,17.79-14.68c0-5.09-1.56-8.61-4.64-10.53s-7.62-2.91-13.64-2.91h-10ZM327,538.42V457.76h25.41A59.4,59.4,0,0,1,364.74,459a26.9,26.9,0,0,1,10,4.2,20.27,20.27,0,0,1,6.53,7.71,26.6,26.6,0,0,1,2.33,11.77,27,27,0,0,1-2.33,11.6,23.25,23.25,0,0,1-6.48,8.2,27.14,27.14,0,0,1-9.75,4.8,45.24,45.24,0,0,1-12.14,1.56h-11.6v29.58Z" transform="translate(-14.61 -7.79)"/><path class="cls-2" d="M412.5,495.51H424c5.5,0,9.73-1.15,12.63-3.45S441,486.31,441,481.7s-1.47-7.94-4.38-9.75-7.13-2.71-12.63-2.71H412.5Zm-14.3,42.91V457.76h27.25A53.31,53.31,0,0,1,437.16,459a26.19,26.19,0,0,1,9.38,4,19.57,19.57,0,0,1,6.22,7.33,25.41,25.41,0,0,1,2.3,11.37c0,6.16-1.47,11.14-4.37,14.91A24.11,24.11,0,0,1,439,504.75l19.22,33.67h-16l-17.39-31.57H412.5v31.57Z" transform="translate(-14.61 -7.79)"/><polygon class="cls-2" points="457.57 530.63 457.57 449.97 506.15 449.97 506.15 462.05 471.88 462.05 471.88 482.66 500.85 482.66 500.85 494.74 471.88 494.74 471.88 518.54 507.38 518.54 507.38 530.63 457.57 530.63"/><path class="cls-2" d="M563.82,539.9a41.75,41.75,0,0,1-29.09-11.83l8.37-9.75a35.88,35.88,0,0,0,9.87,6.59,26.34,26.34,0,0,0,11.11,2.53c4.61,0,8.09-1,10.48-2.82a9.14,9.14,0,0,0,3.56-7.54,8.89,8.89,0,0,0-.92-4.2,9,9,0,0,0-2.59-3,22.46,22.46,0,0,0-3.94-2.39c-1.52-.75-3.19-1.5-5-2.22l-11.08-4.8a38.2,38.2,0,0,1-5.87-3.11,25,25,0,0,1-5.23-4.43,20.77,20.77,0,0,1-3.77-6A20.53,20.53,0,0,1,538.3,479a19.7,19.7,0,0,1,2-9,22.62,22.62,0,0,1,5.61-7.22A26,26,0,0,1,554.5,458a33.4,33.4,0,0,1,10.93-1.72A34,34,0,0,1,579,459.07a34.77,34.77,0,0,1,11.22,7.45l-7.28,9.12a36,36,0,0,0-8.14-5.06,23.3,23.3,0,0,0-9.36-1.84c-3.88,0-7,.83-9.26,2.53a8.18,8.18,0,0,0-3.46,7,7.13,7.13,0,0,0,1.07,4,10.69,10.69,0,0,0,2.82,3,26.12,26.12,0,0,0,4.14,2.36c1.56.69,3.17,1.38,4.81,2l11,4.58a36.66,36.66,0,0,1,6.56,3.45,24.12,24.12,0,0,1,5.1,4.58,19.36,19.36,0,0,1,3.39,5.95A22.63,22.63,0,0,1,592.8,516a22.2,22.2,0,0,1-2,9.24,22.52,22.52,0,0,1-5.75,7.59A29,29,0,0,1,576,538a36.16,36.16,0,0,1-12.15,1.9" transform="translate(-14.61 -7.79)"/><path class="cls-2" d="M632.43,539.9a41.61,41.61,0,0,1-29.09-11.83l8.37-9.75a35.88,35.88,0,0,0,9.87,6.59,26.31,26.31,0,0,0,11.08,2.53c4.61,0,8.12-1,10.51-2.82a9.14,9.14,0,0,0,3.56-7.54,8.89,8.89,0,0,0-.92-4.2,9.39,9.39,0,0,0-2.59-3,22.46,22.46,0,0,0-3.94-2.39c-1.52-.75-3.19-1.5-5-2.22l-11.1-4.8a38.39,38.39,0,0,1-5.84-3.11,24.84,24.84,0,0,1-5.24-4.43A20,20,0,0,1,606.91,479a20.07,20.07,0,0,1,2-9,23.15,23.15,0,0,1,5.64-7.22,26,26,0,0,1,8.55-4.81A33.27,33.27,0,0,1,634,456.28a34,34,0,0,1,13.56,2.79,35.1,35.1,0,0,1,11.22,7.45l-7.28,9.12a36,36,0,0,0-8.14-5.06,23.26,23.26,0,0,0-9.36-1.84c-3.88,0-7,.83-9.26,2.53a8.17,8.17,0,0,0-3.45,7,7.13,7.13,0,0,0,1.06,4,10.69,10.69,0,0,0,2.82,3,26.12,26.12,0,0,0,4.14,2.36c1.56.69,3.17,1.38,4.81,2l11,4.58a35.8,35.8,0,0,1,6.54,3.45,23.75,23.75,0,0,1,5.12,4.58,19.36,19.36,0,0,1,3.39,5.95,22.63,22.63,0,0,1,1.24,7.86,21.77,21.77,0,0,1-2,9.24,22,22,0,0,1-5.72,7.59,29,29,0,0,1-9.12,5.18,36.16,36.16,0,0,1-12.15,1.9" transform="translate(-14.61 -7.79)"/><path class="cls-2" d="M223.28,378V324.16h62.39v-166H231.88V117.06q23.49-4.53,39.77-10.85a218.88,218.88,0,0,0,31.66-15.39h48.86V324.16H406V378Z" transform="translate(-14.61 -7.79)"/><path class="cls-2" d="M533.89,331.86a30.33,30.33,0,0,0,15.83-4.32q7.21-4.28,12.66-15.59c3.63-7.55,6.39-17.65,8.38-30.31s2.93-28.77,2.93-48.37-1-35.65-2.93-48.17-4.75-22.3-8.38-29.38-7.85-12-12.66-14.71a31.88,31.88,0,0,0-15.83-4,30.87,30.87,0,0,0-15.36,4q-7.26,4.11-12.66,14.71t-8.61,29.38q-3.15,18.78-3.16,48.17t3.16,48.37q3.15,19,8.61,30.31t12.66,15.59a29.39,29.39,0,0,0,15.36,4.32m0,51.53a91,91,0,0,1-42-9.72q-19-9.72-32.34-28.72t-20.81-47q-7.45-28-7.45-64.66t7.45-64.2q7.47-27.58,20.81-46.36t32.34-28a100,100,0,0,1,84.09,0q19,9.27,32.34,28.05t20.81,46.36q7.45,27.59,7.45,64.2t-7.45,64.66q-7.47,28.05-20.81,47t-32.34,28.72a91.06,91.06,0,0,1-42.05,9.72" transform="translate(-14.61 -7.79)"/></svg>