<svg id="Calque_1" data-name="Calque 1" xmlns="http://www.w3.org/2000/svg" viewBox="0 0 819.87 585.62"><defs><style>.cls-1{fill:#1c3f8d;}.cls-2{fill:#fff;}</style></defs><path class="cls-1" d="M830,414.51V4.57H185.78A175.67,175.67,0,0,0,10.1,180.25V590.19H654.29A175.68,175.68,0,0,0,830,414.51" transform="translate(-10.1 -4.57)"/><path class="cls-2" d="M168.06,422.22c83.67-79,142.55-135.32,142.55-181.8,0-32-18.08-49.59-46.48-49.59-23.77,0-41.84,16-58.36,33.58L164.44,183.6c32.54-34.6,63-52.16,110-52.16,64.55,0,108.46,41.31,108.46,104.33,0,55.27-51.65,114.15-104.85,169.93,16.52-2.07,39.25-4.13,54.75-4.13h66.11v64H168.06Z" transform="translate(-10.1 -4.57)"/><path class="cls-2" d="M454.56,404.15h71.26V214.59H464.36v-47c35.65-6.72,58.37-16,81.62-30h55.78V404.15h61.46v61.46H454.56Z" transform="translate(-10.1 -4.57)"/></svg>