<svg id="Calque_1" data-name="Calque 1" xmlns="http://www.w3.org/2000/svg" viewBox="0 0 580.32 580.39"><defs><style>.cls-1{fill:#1e98d5;}.cls-2{fill:#fff;}</style></defs><path class="cls-1" d="M711.63,298.68c0,160.27-129.93,290.2-290.2,290.2S131.31,459,131.31,298.68,261.24,8.49,421.43,8.49s290.2,129.93,290.2,290.19" transform="translate(-131.31 -8.49)"/><path class="cls-2" d="M463.08,353.8c13.91,13.54,31.08,23.38,50.83,23.38,22.64,0,37.66-9.84,37.66-27.37,0-20.5-12.06-33.3-62.52-33.3v-38c41.66,0,54.83-12.43,54.83-31.08,0-16.06-10.29-25.6-28.56-25.6-16.43,0-28.86,7.69-43.44,20.5l-27.07-32.93c21.23-18.28,44.61-29.6,73.1-29.6,47.87,0,80.06,23,80.06,63.64,0,24.12-13.92,40.91-38.78,51.57v1.41c26.72,7.69,46.1,26.7,46.1,56.67,0,43.14-39.51,67.63-86.27,67.63-37.67,0-64-13.17-80.8-32.93Z" transform="translate(-131.31 -8.49)"/><polygon class="cls-2" points="97.17 169.46 97.17 214.82 162.95 214.82 162.95 407.79 216.67 407.79 216.67 214.82 282.15 214.82 282.15 169.46 97.17 169.46"/></svg>