<?xml version="1.0" encoding="UTF-8"?>
<!DOCTYPE svg PUBLIC "-//W3C//DTD SVG 1.1//EN" "http://www.w3.org/Graphics/SVG/1.1/DTD/svg11.dtd">
<svg xmlns="http://www.w3.org/2000/svg" version="1.1" width="210px" height="150px" style="shape-rendering:geometricPrecision; text-rendering:geometricPrecision; image-rendering:optimizeQuality; fill-rule:evenodd; clip-rule:evenodd" xmlns:xlink="http://www.w3.org/1999/xlink">
<g><path style="opacity:0.997" fill="#80c290" d="M 34.5,-0.5 C 92.8333,-0.5 151.167,-0.5 209.5,-0.5C 209.5,37.8333 209.5,76.1667 209.5,114.5C 204.167,132.5 192.5,144.167 174.5,149.5C 116.167,149.5 57.8333,149.5 -0.5,149.5C -0.5,111.167 -0.5,72.8333 -0.5,34.5C 4.83333,16.5 16.5,4.83333 34.5,-0.5 Z"/></g>
<g><path style="opacity:1" fill="#1d201b" d="M 63.5,31.5 C 72.3024,31.2844 80.6357,33.1178 88.5,37C 97.3817,43.958 99.8817,52.7914 96,63.5C 93.117,68.0501 89.2837,71.5501 84.5,74C 100.711,81.2984 104.544,92.7984 96,108.5C 83.2512,119.649 68.7512,122.483 52.5,117C 47.169,114.849 42.8356,111.516 39.5,107C 41.9126,102.845 44.5793,98.8447 47.5,95C 51.1466,96.6636 54.8133,98.6636 58.5,101C 64.6748,103.256 70.6748,102.923 76.5,100C 81.4531,93.0349 80.1198,87.7016 72.5,84C 67.5805,82.7497 62.5805,82.2497 57.5,82.5C 57.5,77.5 57.5,72.5 57.5,67.5C 63.1707,67.8878 68.504,66.7212 73.5,64C 76.3181,60.6621 77.1515,56.8288 76,52.5C 67.276,46.5446 59.276,47.5446 52,55.5C 48.5,51.3333 45,47.1667 41.5,43C 47.7594,36.979 55.0928,33.1456 63.5,31.5 Z"/></g>
<g><path style="opacity:1" fill="#1d1f1b" d="M 132.5,31.5 C 143.312,30.605 152.812,33.605 161,40.5C 168.423,50.4854 169.423,61.1521 164,72.5C 157.819,82.5222 150.319,91.5222 141.5,99.5C 151.478,100.499 161.478,100.832 171.5,100.5C 171.5,106.167 171.5,111.833 171.5,117.5C 151.5,117.5 131.5,117.5 111.5,117.5C 111.334,113.154 111.501,108.821 112,104.5C 123.369,94.7986 133.702,84.1319 143,72.5C 146.612,67.338 147.946,61.6713 147,55.5C 143.551,49.4562 138.385,47.2895 131.5,49C 127.742,50.9229 124.409,53.4229 121.5,56.5C 118.182,53.6828 115.015,50.6828 112,47.5C 111.333,46.5 111.333,45.5 112,44.5C 117.708,38.2382 124.542,33.9049 132.5,31.5 Z"/></g>
</svg>
