<?xml version="1.0" encoding="UTF-8" standalone="no"?>
<svg
   xmlns:dc="http://purl.org/dc/elements/1.1/"
   xmlns:cc="http://creativecommons.org/ns#"
   xmlns:rdf="http://www.w3.org/1999/02/22-rdf-syntax-ns#"
   xmlns:svg="http://www.w3.org/2000/svg"
   xmlns="http://www.w3.org/2000/svg"
   version="1.1"
   id="svg2"
   xml:space="preserve"
   width="529.1333"
   height="377.95334"
   viewBox="0 0 529.1333 377.95334"><metadata
     id="metadata8"><rdf:RDF><cc:Work
         rdf:about=""><dc:format>image/svg+xml</dc:format><dc:type
           rdf:resource="http://purl.org/dc/dcmitype/StillImage" /></cc:Work></rdf:RDF></metadata><defs
     id="defs6"><clipPath
       clipPathUnits="userSpaceOnUse"
       id="clipPath18"><path
         d="M 0,283.465 H 396.85 V 0 H 0 Z"
         id="path16" /></clipPath></defs><g
     id="g10"
     transform="matrix(1.3333333,0,0,-1.3333333,0,377.95333)"><g
       id="g12"><g
         id="g14"
         clip-path="url(#clipPath18)"><g
           id="g20"
           transform="translate(396.8506,85.0393)"><path
             d="m 0,0 v 198.425 h -311.812 c -46.965,0 -85.039,-38.073 -85.039,-85.039 V -85.04 H -85.04 C -38.073,-85.04 0,-46.966 0,0"
             style="fill:#ffdd0d;fill-opacity:1;fill-rule:nonzero;stroke:none"
             id="path22" /></g><g
           id="g24"
           transform="translate(103.4248,93.2536)"><path
             d="m 0,0 c 4.84,0 8.982,1.794 12.43,5.39 3.444,3.592 5.17,9.35 5.17,17.27 0,7.48 -1.726,12.722 -5.17,15.73 -3.448,3.005 -7.81,4.51 -13.09,4.51 -3.668,0 -7.37,-1.066 -11.111,-3.19 -3.739,-2.128 -7.077,-5.686 -10.009,-10.67 0.732,-5.576 1.832,-10.196 3.3,-13.86 1.464,-3.668 3.152,-6.638 5.06,-8.91 1.904,-2.275 3.994,-3.888 6.27,-4.84 C -4.878,0.475 -2.496,0 0,0 m 0.66,-24.2 c -6.748,0 -13.31,1.32 -19.69,3.96 -6.38,2.64 -12.028,6.744 -16.94,12.32 -4.916,5.572 -8.838,12.722 -11.77,21.45 -2.936,8.724 -4.401,19.25 -4.401,31.57 0,13.052 1.576,24.344 4.731,33.88 3.152,9.532 7.332,17.38 12.54,23.54 5.204,6.16 11.22,10.742 18.04,13.75 6.82,3.004 13.894,4.51 21.229,4.51 9.241,0 17.233,-1.65 23.981,-4.95 6.744,-3.3 12.32,-7.226 16.72,-11.77 L 28.16,84.7 c -2.496,2.64 -5.721,4.95 -9.681,6.93 -3.959,1.98 -7.995,2.97 -12.099,2.97 -3.816,0 -7.408,-0.736 -10.78,-2.2 -3.375,-1.468 -6.346,-3.925 -8.911,-7.37 -2.567,-3.447 -4.657,-7.958 -6.269,-13.53 -1.615,-5.576 -2.568,-12.396 -2.86,-20.46 1.76,2.344 3.812,4.435 6.16,6.27 2.344,1.832 4.764,3.372 7.259,4.62 2.493,1.244 4.985,2.2 7.481,2.86 2.492,0.66 4.84,0.99 7.04,0.99 6.012,0 11.55,-0.88 16.61,-2.64 5.06,-1.76 9.46,-4.4 13.2,-7.92 C 39.05,51.7 41.944,47.225 44,41.8 46.052,36.372 47.08,29.992 47.08,22.66 47.08,15.324 45.832,8.8 43.34,3.08 40.845,-2.64 37.51,-7.556 33.33,-11.66 29.149,-15.768 24.234,-18.886 18.59,-21.01 12.942,-23.134 6.964,-24.2 0.66,-24.2"
             style="fill:#1d1e1c;fill-opacity:1;fill-rule:nonzero;stroke:none"
             id="path26" /></g><g
           id="g28"
           transform="translate(254.4561,86.154)"><path
             d="m 0,0 h 12.473 c 12.121,0 18.184,4.399 18.184,13.2 0,4.299 -1.503,7.373 -4.509,9.225 C 23.143,24.274 18.583,25.2 12.473,25.2 H 0 Z m 0,41.55 h 10.369 c 5.41,0 9.341,1.05 11.797,3.15 2.454,2.1 3.682,4.899 3.682,8.4 0,3.799 -1.254,6.499 -3.757,8.1 -2.505,1.598 -6.363,2.4 -11.571,2.4 L 0,63.6 Z M -22.091,-17.1 v 97.8 h 33.512 c 5.11,0 9.844,-0.375 14.201,-1.125 4.358,-0.75 8.165,-2.076 11.422,-3.975 3.254,-1.901 5.809,-4.401 7.664,-7.5 1.853,-3.101 2.78,-7.001 2.78,-11.7 0,-2.201 -0.3,-4.401 -0.902,-6.6 -0.601,-2.201 -1.453,-4.252 -2.555,-6.15 -1.103,-1.901 -2.43,-3.6 -3.982,-5.1 -1.554,-1.5 -3.332,-2.602 -5.335,-3.3 v -0.6 c 2.504,-0.6 4.809,-1.526 6.913,-2.775 2.104,-1.251 3.956,-2.827 5.561,-4.725 1.601,-1.901 2.854,-4.125 3.757,-6.675 0.901,-2.55 1.352,-5.475 1.352,-8.775 0,-5.002 -0.977,-9.3 -2.93,-12.9 -1.954,-3.6 -4.659,-6.576 -8.116,-8.925 -3.456,-2.351 -7.49,-4.102 -12.097,-5.25 -4.61,-1.151 -9.568,-1.725 -14.878,-1.725 z"
             style="fill:#1d1e1c;fill-opacity:1;fill-rule:nonzero;stroke:none"
             id="path30" /></g><g
           id="g32"
           transform="translate(268.8433,193.9592)"><path
             d="m 0,0 c -42.054,-0.395 -75.825,-34.742 -75.43,-76.718 0.396,-41.975 34.807,-75.683 76.861,-75.289 39.859,0.374 72.276,31.248 75.216,70.21"
             style="fill:none;stroke:#1d1e1c;stroke-width:6;stroke-linecap:butt;stroke-linejoin:miter;stroke-miterlimit:10;stroke-dasharray:none;stroke-opacity:1"
             id="path34" /></g><g
           id="g36"
           transform="translate(366.457,89.2117)"><path
             d="m 0,0 -4.906,-3.462 -17.03,24.191 -22.885,-18.755 -3.802,4.649 27.876,22.835 z"
             style="fill:#1d1e1c;fill-opacity:1;fill-rule:nonzero;stroke:none"
             id="path38" /></g></g></g></g></svg>
