<svg id="Calque_1" data-name="Calque 1" xmlns="http://www.w3.org/2000/svg" viewBox="0 0 822.81 587.72"><defs><style>.cls-1{fill:#e94961;}.cls-2{fill:#fff;}</style></defs><path class="cls-1" d="M830.88,414.52V3.12H184.38A176.31,176.31,0,0,0,8.07,179.44v411.4H654.56A176.32,176.32,0,0,0,830.88,414.52" transform="translate(-8.07 -3.12)"/><path class="cls-2" d="M166.24,422.27C250.2,343,309.3,286.47,309.3,239.82c0-32.14-18.15-49.76-46.66-49.76-23.84,0-42,16.06-58.57,33.69L162.61,182.8c32.65-34.73,63.24-52.35,110.41-52.35,64.79,0,108.85,41.46,108.85,104.7,0,55.46-51.83,114.56-105.22,170.54,16.58-2.08,39.38-4.16,54.94-4.16h66.35v64.28H166.24Z" transform="translate(-8.07 -3.12)"/><path class="cls-2" d="M464.85,377.18c19.7,19.17,44.06,33.18,72.06,33.18,32.14,0,53.39-14,53.39-38.89,0-29-17.11-47.16-88.65-47.16V270.39c59.1,0,77.76-17.62,77.76-44,0-22.82-14.52-36.28-40.44-36.28-23.31,0-40.94,10.87-61.67,29l-38.36-46.64c30.06-25.92,63.24-42,103.66-42,67.91,0,113.53,32.65,113.53,90.18,0,34.22-19.7,58.06-54.94,73.09v2.07c37.83,10.89,65.3,37.85,65.3,80.35,0,61.16-56,95.89-122.32,95.89-53.4,0-90.72-18.66-114.56-46.64Z" transform="translate(-8.07 -3.12)"/></svg>