<?xml version="1.0" encoding="UTF-8"?><svg id="uuid-da203fe5-07eb-4cb7-9689-6df98b183ea4" xmlns="http://www.w3.org/2000/svg" xmlns:xlink="http://www.w3.org/1999/xlink" viewBox="0 0 396.85001 283.465"><defs><style>.uuid-1e0959d9-5837-4dd6-bf68-1f281224d719{fill:#fff;}.uuid-f21b11e1-67df-443c-8fce-6d8db7b1691d{fill:#e84133;}.uuid-f96b9252-b2c4-426a-83a9-864921937f0d{fill:none;}.uuid-58b08e14-cc78-4cb8-a68f-6d688b621e51{clip-path:url(#uuid-78f55533-fcf1-4529-bca6-c695dce6069d);}</style><clipPath id="uuid-78f55533-fcf1-4529-bca6-c695dce6069d"><rect class="uuid-f96b9252-b2c4-426a-83a9-864921937f0d" width="396.85001" height="283.465"/></clipPath></defs><g id="uuid-ffb2f99f-9108-4875-8f9f-ec956078b653"><g class="uuid-58b08e14-cc78-4cb8-a68f-6d688b621e51"><path class="uuid-f21b11e1-67df-443c-8fce-6d8db7b1691d" d="m396.85059,198.4256V.00061H85.03857C38.07358.00061-.00043,38.07359-.00043,85.0396v198.426h311.81201c46.96597,0,85.039-38.074,85.039-85.04"/><path class="uuid-1e0959d9-5837-4dd6-bf68-1f281224d719" d="m123.2187,156.2566c-11.593,0-21.024,9.43301-21.024,21.025,0,11.594,9.431,21.025,21.024,21.025s21.02399-9.431,21.02399-21.025c0-11.592-9.431-21.025-21.02399-21.025"/><path class="uuid-1e0959d9-5837-4dd6-bf68-1f281224d719" d="m273.50491,156.2566c-11.59402,0-21.02501,9.43301-21.02501,21.025,0,11.594,9.43098,21.025,21.02501,21.025,11.59299,0,21.02399-9.431,21.02399-21.025,0-11.592-9.431-21.025-21.02399-21.025"/><path class="uuid-1e0959d9-5837-4dd6-bf68-1f281224d719" d="m273.50458,145.90959c16.84601,0,30.634,13.347,31.34302,30.023h5.63599c6.28699,0,11.40201-5.115,11.40201-11.403v-19.18l.57199-.403c1.34-.94299,2.14099-2.48,2.14099-4.11099v-12.243c0-2.367-1.67999-4.438-3.99298-4.923l-1.07101-.22501V29.9456c0-6.28801-5.117-11.403-11.40399-11.403h-69.53999c-5.30701,0-9.98801,3.76099-11.129,8.94199l-.23201,1.06001H88.7556c-9.10001,0-16.504,7.403-16.504,16.504v117.299c0,5.245,3.556,9.794,8.64499,11.064l8.754,2.183c.729.18101,1.47501.29,2.22501.326.715-16.67,14.50101-30.011,31.343-30.011,16.847,0,30.63399,13.347,31.34299,30.023h87.599c.709-16.676,14.49799-30.023,31.34399-30.023m-103.78798-32.36h-78.77301c-3.558,0-6.45099-2.89299-6.45099-6.45v-59.828c0-3.556,2.89299-6.45099,6.45099-6.45099h78.77301v72.72899Zm31.27699,43.517c0,3.80901-3.099,6.909-6.91,6.909h-19.50999V47.7576c0-3.811,3.09799-6.91,6.909-6.91h19.511v116.21899Zm31.22299,6.909h-19.511c-3.81,0-6.90999-3.1-6.90999-6.909V40.8476h19.51199c3.81,0,6.909,3.099,6.909,6.91v116.21799Zm4.75601-50.426V40.8206h63.91699c3.55701,0,6.44998,2.89499,6.44998,6.45099v67.854c0,2.09801-.97598,4.006-2.67798,5.23201-1.12201.808-2.42401,1.22499-3.75101,1.22499-.68799,0-1.38101-.112-2.06-.338l-11.51599-3.839c-7.67801-2.558-15.67502-3.856-23.76602-3.856h-26.59598Z"/></g><g><path class="uuid-1e0959d9-5837-4dd6-bf68-1f281224d719" d="m35.69189,255.53238v-32.7002h5.9502l10.19971,18.40039,3.3501,6.9502h.2002c-.13379-1.7002-.29248-3.52539-.4751-5.47559-.18359-1.9502-.2749-3.84082-.2749-5.6748v-14.2002h5.5498v32.7002h-5.94971l-10.2002-18.40039-3.3501-6.94922h-.19971c.13281,1.7334.29102,3.5498.47461,5.44922.18311,1.90039.27539,3.76758.27539,5.60059v14.2998h-5.55029Z"/><path class="uuid-1e0959d9-5837-4dd6-bf68-1f281224d719" d="m65.2915,255.53238l10.6499-32.7002h6.80029l10.6499,32.7002h-6.1001l-2.5498-8.84961h-11l-2.55029,8.84961h-5.8999Zm10.9502-17.40039l-1.1499,4h8.34961l-1.1499-4c-.53369-1.73242-1.04199-3.51562-1.5249-5.34961-.4834-1.83301-.9585-3.65039-1.4248-5.4502h-.2002c-.46729,1.83398-.93359,3.65918-1.3999,5.47559-.46729,1.81641-.96729,3.5918-1.5,5.32422Z"/><path class="uuid-1e0959d9-5837-4dd6-bf68-1f281224d719" d="m102.7915,255.53238l-10.2002-32.7002h6.15039l4.59961,16.4502c.5332,1.86719,1.00781,3.63379,1.42529,5.2998.4165,1.66699.90771,3.4502,1.4751,5.35059h.19971c.56641-1.90039,1.05811-3.68359,1.4751-5.35059.4165-1.66602.875-3.43262,1.375-5.2998l4.5498-16.4502h5.9502l-10.1499,32.7002h-6.8501Z"/><path class="uuid-1e0959d9-5837-4dd6-bf68-1f281224d719" d="m124.79102,255.53238v-32.7002h19.7002v4.90039h-13.8999v8.34961h11.75v4.90039h-11.75v9.64941h14.3999v4.90039h-20.2002Z"/><path class="uuid-1e0959d9-5837-4dd6-bf68-1f281224d719" d="m159.19092,255.53238v-27.7998h-9.4502v-4.90039h24.7002v4.90039h-9.4502v27.7998h-5.7998Z"/><path class="uuid-1e0959d9-5837-4dd6-bf68-1f281224d719" d="m188.29053,255.53238v-27.7998h-9.4502v-4.90039h24.70068v4.90039h-9.45068v27.7998h-5.7998Z"/><path class="uuid-1e0959d9-5837-4dd6-bf68-1f281224d719" d="m209.29004,255.53238v-32.7002h19.69922v4.90039h-13.89941v8.34961h11.75v4.90039h-11.75v9.64941h14.39941v4.90039h-20.19922Z"/><path class="uuid-1e0959d9-5837-4dd6-bf68-1f281224d719" d="m261.73926,256.13199c-2.06738,0-4-.36719-5.7998-1.09961-1.80078-.73242-3.35938-1.81641-4.67578-3.25-1.31641-1.43262-2.3584-3.2002-3.125-5.2998-.7666-2.10059-1.14941-4.5-1.14941-7.2002,0-2.66602.3916-5.05762,1.1748-7.1748.7832-2.11621,1.84961-3.9082,3.2002-5.375,1.34961-1.4668,2.93262-2.58301,4.75-3.35059,1.81641-.76562,3.75781-1.14941,5.8252-1.14941,2.06641,0,3.89941.41699,5.5,1.25,1.59961.83301,2.91602,1.7998,3.94922,2.89941l-3.09961,3.75c-.86719-.86621-1.7998-1.55762-2.7998-2.07422s-2.13379-.77539-3.40039-.77539c-1.33301,0-2.55859.27539-3.6748.8252-1.11719.5498-2.08398,1.33301-2.90039,2.34961-.81641,1.01758-1.44922,2.25879-1.89941,3.72559s-.6748,3.11719-.6748,4.94922c0,3.73438.80762,6.65918,2.4248,8.77539,1.61621,2.11719,3.80762,3.1748,6.5752,3.1748,1.46582,0,2.76562-.30762,3.89941-.9248,1.13281-.61621,2.16699-1.4248,3.10059-2.4248l3.09961,3.64941c-1.33398,1.53418-2.8584,2.70898-4.5752,3.52539s-3.625,1.22461-5.72461,1.22461Z"/><path class="uuid-1e0959d9-5837-4dd6-bf68-1f281224d719" d="m275.18945,255.53238l10.64941-32.7002h6.7998l10.65039,32.7002h-6.09961l-2.55078-8.84961h-11l-2.5498,8.84961h-5.89941Zm10.94922-17.40039l-1.14941,4h8.34961l-1.14941-4c-.53418-1.73242-1.04297-3.51562-1.52539-5.34961-.4834-1.83301-.95898-3.65039-1.4248-5.4502h-.2002c-.4668,1.83398-.93359,3.65918-1.40039,5.47559s-.9668,3.5918-1.5,5.32422Z"/><path class="uuid-1e0959d9-5837-4dd6-bf68-1f281224d719" d="m308.33887,255.53238v-32.7002h19.69922v4.90039h-13.89941v8.34961h11.75v4.90039h-11.75v9.64941h14.39941v4.90039h-20.19922Z"/><path class="uuid-1e0959d9-5837-4dd6-bf68-1f281224d719" d="m335.23926,255.53238v-32.7002h5.94922l10.2002,18.40039,3.35059,6.9502h.19922c-.13281-1.7002-.29199-3.52539-.47461-5.47559-.18359-1.9502-.27539-3.84082-.27539-5.6748v-14.2002h5.55078v32.7002h-5.9502l-10.2002-18.40039-3.34961-6.94922h-.2002c.13281,1.7334.29102,3.5498.47461,5.44922.18262,1.90039.27539,3.76758.27539,5.60059v14.2998h-5.5498Z"/></g></g></svg>