<?xml version="1.0" encoding="utf-8"?>
<!-- Generator: Adobe Illustrator 27.0.0, SVG Export Plug-In . SVG Version: 6.00 Build 0)  -->
<svg version="1.1" id="Calque_1" xmlns="http://www.w3.org/2000/svg" xmlns:xlink="http://www.w3.org/1999/xlink" x="0px" y="0px"
	 viewBox="0 0 595.2 241.1" style="enable-background:new 0 0 595.2 241.1;" xml:space="preserve">
<style type="text/css">
	.st0{fill:#01963A;}
	.st1{fill:#FFFFFF;}
	.st2{fill:#3C3C3B;}
</style>
<path class="st0" d="M109.9,92.8L9.4,59.2C1,56.2-3.3,64.6,3,71.5l82.8,89.6l-4.7,73.7c-0.5,6.8,6.1,7.7,9.4,4.3l30.7-33.2
	l56.5-156.8L109.9,92.8"/>
<path class="st0" d="M155.1,201.1l-3.9,12.5c10.3,8.7,20.8,17.5,21.9,18.3c4.2,3.3,17.4,10.2,30.8-2.8l6.4-7.2l-6.5-20.8
	L155.1,201.1z"/>
<path class="st0" d="M179.7,122c-0.3,2.4-0.9,4.7-1.6,7L163,176.8h33.2L181.5,129C180.7,126.8,180.1,124.4,179.7,122"/>
<path class="st0" d="M313,174.7c-7.5-3.5-75.9-36.1-75.9-36.1l29.1-127.1c2.5-11.2-8-14.5-16.3-8.8c-0.9,0.6-34.8,22.4-69.1,44.5
	l53.3,148.4l72-0.6C321.3,194.7,323.3,179.5,313,174.7"/>
<path class="st1" d="M177.8,49.1l-56.5,156.8l9.1-9.9c0,0,10.3,8.7,20.8,17.5l3.9-12.5h48.6l6.5,20.8l23.3-26.3h0.6L180.9,47.2
	L177.8,49.1 M163,176.8l15.1-47.8c0.7-2.3,1.2-4.7,1.6-7c0.4,2.4,1,4.8,1.8,7l14.6,47.8H163z"/>
<path class="st0" d="M382.9,160h-3.5c-1,0-1.7-0.8-1.7-1.7c0-1,0.8-1.7,1.7-1.7h11.3c1,0,1.7,0.8,1.7,1.7s-0.8,1.7-1.7,1.7
	c0,0,0,0,0,0h-3.5v19.3c0,1.2-0.9,2.1-2.1,2.1c0,0,0,0-0.1,0c-1.1,0-2.1-0.9-2.1-2c0,0,0-0.1,0-0.1V160z"/>
<path class="st0" d="M401.1,171.6c-0.3,0.1-0.5,0.1-0.8,0.1c-0.4,0-0.8,0-1.3-0.1v7.7c0,1.2-1,2.1-2.2,2.1c-1.2,0-2.1-0.9-2.1-2.1
	v-20.6c0-1.2,1-2.1,2.6-2.2c0.7-0.1,1.5-0.2,2.2-0.2c6.1,0,9.6,3,9.6,7.7c0,3.8-1.5,5.9-3.9,6.9l3.2,6.2c0.4,0.7,0.7,1.5,0.8,2.4
	c0.1,1-0.7,1.9-1.7,2c0,0-0.1,0-0.1,0c-1.7,0-2.2-1.5-3.3-3.8L401.1,171.6z M399,168c0.4,0.1,0.9,0.2,1.3,0.2c2.3,0.1,4.3-1.7,4.4-4
	s-1.7-4.3-4-4.4c-0.1,0-0.3,0-0.4,0c-0.4,0-0.9,0-1.3,0.1V168z"/>
<path class="st0" d="M422.1,174.5h-5.9l-1.2,4.6c-0.4,1.4-1,2.2-2.2,2.2c-1.1,0-1.9-0.8-2-1.8c0,0,0,0,0-0.1c0-0.5,0.1-0.9,0.2-1.3
	l5.6-19.2c0.4-1.3,0.8-2.8,2.6-2.8s2.2,1.5,2.5,2.8l5.5,19.2c0.1,0.4,0.2,0.9,0.2,1.3c0,1-0.8,1.9-1.9,1.9c0,0-0.1,0-0.1,0
	c-1.2,0-1.8-0.8-2.2-2.2L422.1,174.5z M419.1,162.8L417,171h4.2L419.1,162.8z"/>
<path class="st0" d="M434.5,164.4c-0.2-0.3-0.3-0.6-0.4-0.9v15.9c0,1.1-0.9,2-2,2s-2-0.9-2-2v-21.1c0-1,0.8-1.9,1.8-2
	c0.8,0,1.4,0.1,2.3,1.5l10,15.5c0.2,0.3,0.3,0.6,0.3,1v-16c-0.1-1,0.7-1.9,1.8-2c0.1,0,0.2,0,0.3,0c1-0.1,1.9,0.7,2,1.7
	c0,0.1,0,0.2,0,0.3v21.1c0.1,1.1-0.8,1.9-1.8,2c0,0,0,0,0,0c-0.8,0-1.3-0.1-2.5-1.9L434.5,164.4z"/>
<path class="st0" d="M458.5,181.4c-2.1,0.1-4.2-0.4-6.1-1.4c-0.7-0.3-1.1-0.9-1.1-1.6c0-1,0.9-1.8,1.9-1.8c0.3,0,0.5,0.1,0.8,0.2
	c1.3,0.6,2.8,1,4.2,1c2.4,0,3.9-1,3.9-3.2s-1.7-3.5-4.1-5.1c-2.8-1.9-5.6-3.7-5.6-7.5s2.9-5.8,7.1-5.8c1.9-0.1,3.7,0.3,5.4,1.2
	c0.5,0.3,0.8,0.9,0.8,1.5c0,0.9-0.7,1.7-1.6,1.7c-0.2,0-0.5,0-0.7-0.1c-1.1-0.5-2.3-0.8-3.5-0.8c-2.1,0-3.2,0.8-3.2,2.4
	c0,2.2,2.6,3.5,5.2,5.5c2.3,1.7,4.5,3.5,4.5,7.3C466.4,179.6,462.9,181.4,458.5,181.4"/>
<path class="st0" d="M469.6,158.6c0-1.2,0.9-2.1,2.6-2.2c0.7-0.1,1.5-0.2,2.2-0.2c6,0,9.5,2.9,9.5,7.7c0,5.7-3.4,7.8-8.8,7.8
	c-0.4,0-0.8,0-1.3-0.1v7.6c0,1.2-1,2.1-2.2,2.1c0,0,0,0,0,0c-1.2,0-2.1-1-2.1-2.1c0,0,0,0,0,0L469.6,158.6z M473.9,168
	c0.4,0.1,0.9,0.2,1.3,0.2c2.3,0.1,4.3-1.7,4.4-4s-1.7-4.3-4-4.4c-0.1,0-0.3,0-0.4,0c-0.4,0-0.9,0-1.3,0.1V168z"/>
<path class="st0" d="M485.7,168.8c0-7.5,5.4-12.6,12.7-12.6s12.7,5.1,12.7,12.6s-5.4,12.6-12.7,12.6S485.7,176.2,485.7,168.8
	 M506.7,168.8c0-5.5-3.5-9.1-8.4-9.1s-8.4,3.6-8.4,9.1s3.5,9.1,8.4,9.1S506.7,174.3,506.7,168.8"/>
<path class="st0" d="M520.5,171.6c-0.3,0.1-0.5,0.1-0.8,0.1c-0.4,0-0.8,0-1.3-0.1v7.7c0,1.2-1,2.1-2.2,2.1c-1.2,0-2.1-0.9-2.1-2.1
	v-20.6c0-1.2,1-2.1,2.6-2.2c0.7-0.1,1.5-0.2,2.2-0.2c6,0,9.5,3,9.5,7.7c0,3.8-1.5,5.9-3.9,6.9l3.2,6.2c0.4,0.7,0.7,1.5,0.8,2.4
	c0.1,1-0.7,1.9-1.7,2c0,0-0.1,0-0.1,0c-1.7,0-2.2-1.5-3.2-3.8L520.5,171.6z M518.5,168c0.4,0.1,0.9,0.2,1.3,0.2
	c2.3,0.1,4.3-1.7,4.4-4c0.1-2.3-1.7-4.3-4-4.4c-0.1,0-0.3,0-0.4,0c-0.4,0-0.9,0-1.3,0.1V168z"/>
<path class="st0" d="M533.9,160h-3.5c-1,0-1.7-0.8-1.7-1.7c0-1,0.8-1.7,1.7-1.7h11.3c1,0,1.7,0.8,1.7,1.7c0,1-0.8,1.7-1.7,1.7
	c0,0,0,0,0,0h-3.5v19.3c0,1.2-0.9,2.1-2.1,2.1c0,0,0,0-0.1,0c-1.1,0-2.1-0.9-2.1-2c0,0,0-0.1,0-0.1L533.9,160z"/>
<path class="st0" d="M547.9,181c-1.1,0.1-2-0.7-2.1-1.8c0-0.1,0-0.2,0-0.4v-20.2c-0.1-1.1,0.8-2.1,1.9-2.1c0.1,0,0.2,0,0.2,0h8.7
	c1,0,1.7,0.8,1.7,1.7c0,1-0.8,1.7-1.7,1.7h-6.5v6.9h5.7c1,0,1.7,0.8,1.7,1.7c0,1-0.8,1.7-1.7,1.7h-5.7v7.2h6.5
	c0.9-0.1,1.7,0.6,1.8,1.6c0,0.1,0,0.1,0,0.2c0.1,0.9-0.6,1.7-1.5,1.8c-0.1,0-0.2,0-0.2,0L547.9,181z"/>
<path class="st0" d="M572.5,158.3c0.1-1.2,1.1-2.1,2.3-2c1.1,0.1,1.9,0.9,2,2v16.2c0,5.6-3.9,6.9-7.8,6.9s-7.8-1.3-7.8-6.9v-16.2
	c0-1.2,1-2.1,2.2-2.1c1.2,0,2.1,1,2.1,2.1v15.3c0,3.7,2.1,4.1,3.5,4.1s3.5-0.4,3.5-4.1V158.3z"/>
<path class="st0" d="M587.1,171.6c-0.3,0.1-0.5,0.1-0.8,0.1c-0.4,0-0.8,0-1.3-0.1v7.7c0,1.2-1,2.1-2.2,2.1c-1.2,0-2.1-0.9-2.1-2.1
	v-20.6c0-1.2,0.9-2.1,2.6-2.2c0.7-0.1,1.5-0.2,2.2-0.2c6.1,0,9.6,3,9.6,7.7c0,3.8-1.5,5.9-3.9,6.9l3.2,6.2c0.4,0.7,0.7,1.5,0.8,2.4
	c0.1,1-0.7,1.9-1.7,2c0,0-0.1,0-0.1,0c-1.7,0-2.2-1.5-3.3-3.8L587.1,171.6z M585,168c0.4,0.1,0.9,0.2,1.3,0.2c2.3,0.1,4.3-1.7,4.4-4
	c0.1-2.3-1.7-4.3-4-4.4c-0.1,0-0.3,0-0.4,0c-0.4,0-0.9,0-1.3,0.1V168z"/>
<path class="st0" d="M453.9,197.1c0.1-1.1,1-2.1,2.1-2.1c1-0.2,2-0.3,3-0.3c8.1,0,11.7,6.1,11.7,12.6s-3.6,12.6-11.7,12.6
	c-1,0-2-0.1-3-0.3c-1.1-0.1-2.1-1-2.1-2.1V197.1z M458.2,216.2c0.4,0.1,0.7,0.1,1.1,0.1c4.8,0,7.1-4.4,7.1-9.1s-2.3-9-7.1-9
	c-0.4,0-0.8,0-1.1,0.1V216.2z"/>
<path class="st0" d="M475.8,219.6c-1.1,0.1-2-0.7-2.1-1.8c0-0.1,0-0.3,0-0.4v-20.2c-0.1-1.1,0.8-2.1,1.9-2.1c0.1,0,0.2,0,0.2,0h8.7
	c1,0.1,1.7,0.9,1.6,1.9c-0.1,0.9-0.7,1.5-1.6,1.6H478v6.9h5.7c1,0,1.7,0.8,1.7,1.7c0,1-0.8,1.7-1.7,1.7H478v7.1h6.5
	c1,0,1.8,0.8,1.8,1.8s-0.8,1.8-1.8,1.8l0,0L475.8,219.6z"/>
<path class="st0" d="M512.2,209h-4.2c-0.9,0.1-1.7-0.6-1.7-1.5c0-0.1,0-0.2,0-0.2c-0.1-0.9,0.6-1.6,1.5-1.7c0.1,0,0.2,0,0.3,0h5.7
	c0.9-0.1,1.7,0.5,1.9,1.4c0,0.2,0,0.3,0,0.5v9.2c0,0.8-0.6,1.3-1.7,1.8c-2.3,0.9-4.7,1.4-7.2,1.4c-7.6,0-12.4-4.7-12.4-12.6
	s4.8-12.6,12.4-12.6c2.6,0,5.6,0.6,7.4,1.9c0.5,0.3,0.8,0.9,0.8,1.5c0,1-0.7,1.8-1.7,1.8c0,0,0,0-0.1,0c-0.4,0-0.7-0.1-1-0.3
	c-1.6-0.9-3.4-1.3-5.2-1.3c-5.5,0-8.3,3.1-8.3,9.1s2.8,9.1,8.5,9.1c1.8,0,3.5-0.3,5.1-0.9L512.2,209z"/>
<path class="st0" d="M521.5,219.6c-1.1,0.1-2-0.7-2.1-1.8c0-0.1,0-0.3,0-0.4v-20.2c-0.1-1.1,0.8-2.1,1.9-2.1c0.1,0,0.2,0,0.2,0h8.7
	c1,0.1,1.7,0.9,1.6,1.9c-0.1,0.9-0.7,1.5-1.6,1.6h-6.5v6.9h5.7c1,0,1.7,0.8,1.7,1.7c0,1-0.8,1.7-1.7,1.7h-5.7v7.1h6.5
	c1,0,1.8,0.8,1.8,1.8s-0.8,1.8-1.8,1.8L521.5,219.6z"/>
<path class="st0" d="M539.2,203c-0.2-0.3-0.3-0.6-0.3-0.9v15.8c0,1.1-0.8,2-1.9,2c-0.1,0-0.1,0-0.2,0c-1.1,0-2-0.8-2-1.8
	c0-0.1,0-0.1,0-0.2v-21.1c0-1,0.7-1.9,1.8-2c0.8,0,1.4,0.1,2.3,1.5l10,15.5c0.2,0.3,0.3,0.7,0.3,1v-16c-0.1-1.1,0.8-2,1.8-2
	c0.1,0,0.2,0,0.3,0c1-0.1,1.9,0.7,2,1.7c0,0.1,0,0.2,0,0.3v21.1c0.1,1.1-0.8,1.9-1.8,2c0,0,0,0,0,0c-0.8,0-1.3-0.1-2.5-1.9
	L539.2,203z"/>
<path class="st0" d="M557.4,196.9c0-1.2,0.9-2.1,2.1-2.1c1.2,0,2.1,0.9,2.1,2.1c0,0,0,0,0,0v20.9c0,1.2-0.9,2.1-2.1,2.1
	c-1.2,0-2.1-0.9-2.1-2.1c0,0,0,0,0,0V196.9z"/>
<path class="st0" d="M567.9,219.6c-1.1,0.1-2-0.7-2.1-1.8c0-0.1,0-0.3,0-0.4v-20.2c-0.1-1.1,0.7-2.1,1.8-2.2c0.1,0,0.2,0,0.3,0h8.7
	c1,0.1,1.7,0.9,1.6,1.9c-0.1,0.9-0.7,1.5-1.6,1.6h-6.5v6.9h5.7c1,0,1.7,0.8,1.7,1.7c0,1-0.8,1.7-1.7,1.7h-5.7v7.2h6.5
	c1,0,1.8,0.8,1.8,1.8s-0.8,1.8-1.8,1.8L567.9,219.6z"/>
<path class="st0" d="M587,219.9c-2.1,0.1-4.2-0.4-6.1-1.4c-0.7-0.3-1.1-0.9-1.1-1.6c0-1,0.9-1.8,1.9-1.8c0.3,0,0.5,0.1,0.8,0.2
	c1.3,0.6,2.8,1,4.2,1c2.4,0,3.9-1,3.9-3.2s-1.7-3.5-4.1-5.1c-2.8-1.9-5.6-3.7-5.6-7.5s2.9-5.9,7.1-5.9c1.9-0.1,3.8,0.3,5.4,1.2
	c0.5,0.3,0.8,0.9,0.8,1.5c0,0.9-0.7,1.7-1.7,1.7c-0.2,0-0.5,0-0.7-0.1c-1.1-0.5-2.3-0.8-3.5-0.8c-2.1,0-3.2,0.8-3.2,2.4
	c0,2.2,2.6,3.5,5.2,5.5c2.3,1.7,4.5,3.5,4.5,7.3C595,218.2,591.5,219.9,587,219.9"/>
<path class="st2" d="M276,138l14-50.5H304l13.7,50.5h-11.1l-2.8-11.2h-14.4l-2.9,11.2H276z M296.4,97.2h-0.1l-4.8,21.8h10.1
	L296.4,97.2z"/>
<path class="st2" d="M336.3,138.9c-13.1,0-15.5-7.7-15-16.4h10.5c0,4.8,0.2,8.9,6,8.9c3.6,0,5.3-2.3,5.3-5.7
	c0-9.1-21.3-9.7-21.3-24.7c0-7.9,3.8-14.2,16.7-14.2c10.3,0,15.4,4.6,14.7,15.2h-10.2c0-3.8-0.6-7.6-4.9-7.6c-3.4,0-5.5,1.9-5.5,5.4
	c0,9.6,21.3,8.8,21.3,24.6C354,137.3,344.4,138.9,336.3,138.9"/>
<polygon class="st2" points="391.6,86.7 391.6,95.2 379.9,95.2 379.9,138 369.3,138 369.3,95.2 357.5,95.2 357.5,86.7 "/>
<path class="st2" d="M406.9,138h-10.6V87.5h19.5c7.2,0,11.8,4.6,11.8,13.2c0,6.4-2.5,11.3-9.4,12.4v0.1c2.3,0.3,9.2,0.8,9.2,9.9
	c0,3.2,0.2,12.7,1.2,14.8h-10.4c-1.4-3.1-1.1-6.5-1.1-9.8c0-6,0.6-11.1-7.6-11.1h-2.7V138z M406.9,109.4h4.7c4.2,0,5.4-4.2,5.4-7.4
	c0-4.8-2-6.6-5.4-6.6h-4.7V109.4z"/>
<path class="st2" d="M434.9,112.8c0-13.4,0-26.1,17.4-26.1s17.4,12.7,17.4,26.1s0,26.1-17.4,26.1S434.9,126,434.9,112.8 M459,112.8
	c0-13-0.8-18.5-6.7-18.5s-6.7,5.6-6.7,18.5s0.8,18.5,6.7,18.5S459,125.7,459,112.8"/>
<path class="st2" d="M478.3,138V87.5h18.8c8,0,14.7,2.3,14.7,13.1c0,5.8-2.9,10-8.6,11.1v0.1c7.5,1,9.5,5.9,9.5,12.8
	c0,12.8-11.1,13.4-15.6,13.4L478.3,138z M488.9,108.1h7.1c2.3,0,5.5-1.5,5.5-6.4c0-3.7-2.5-6.4-6.1-6.4h-6.5V108.1z M488.9,130.3
	h5.9c2.2,0,7.3-0.1,7.3-7.1c0-4.5-1.7-7.2-7-7.2h-6.1V130.3z"/>
<path class="st2" d="M555.1,87.5v35.8c0,7.5-4.3,15.5-17.2,15.5c-11.6,0-17.2-6-17.2-15.5V87.5h10.6v35.1c0,6.2,2.7,8.7,6.5,8.7
	c4.6,0,6.7-3.1,6.7-8.7V87.5H555.1z"/>
<path class="st2" d="M577.4,138.9c-13.1,0-15.5-7.7-15-16.4H573c0,4.8,0.2,8.9,6,8.9c3.6,0,5.3-2.3,5.3-5.7
	c0-9.1-21.3-9.7-21.3-24.7c0-7.9,3.8-14.2,16.7-14.2c10.3,0,15.4,4.6,14.7,15.2h-10.2c0-3.8-0.6-7.6-4.9-7.6c-3.4,0-5.5,1.9-5.5,5.4
	c0,9.6,21.3,8.8,21.3,24.6C595,137.3,585.4,138.9,577.4,138.9"/>
</svg>
