<svg xmlns="http://www.w3.org/2000/svg" viewBox="0 0 245.8 101.85"><defs><style>.a{fill:#760b5a;}.b{fill:#dedc00;}</style></defs><path class="a" d="M32.62,20.62A23.51,23.51,0,0,1,45,33a23.71,23.71,0,0,1,0,18.22,24.1,24.1,0,0,1-5,7.51,23.2,23.2,0,0,1-7.41,5.06,22.75,22.75,0,0,1-9.14,1.83,22.88,22.88,0,0,1-9.08-1.83A23.67,23.67,0,0,1,1.83,51.25,22.84,22.84,0,0,1,0,42.17V0H9.29V18.79H23.48a22.75,22.75,0,0,1,9.14,1.83M23.48,56.36A13.75,13.75,0,0,0,29,55.27a14.18,14.18,0,0,0,8.62-13.1,13.79,13.79,0,0,0-1.1-5.48A14.21,14.21,0,0,0,29,29.17a13.75,13.75,0,0,0-5.48-1.09H9.29V42.17a14.14,14.14,0,0,0,1.1,5.53A13.89,13.89,0,0,0,18,55.27a14.17,14.17,0,0,0,5.53,1.09"/><path class="a" d="M96.55,18.68V60.85A22.7,22.7,0,0,1,94.72,70a24.39,24.39,0,0,1-5,7.47,23.3,23.3,0,0,1-7.41,5.06,22.9,22.9,0,0,1-9.13,1.83h-4.7V75.05h4.7A13.83,13.83,0,0,0,78.65,74a14.08,14.08,0,0,0,4.48-3,13.9,13.9,0,0,0,3-4.54,14.14,14.14,0,0,0,1.1-5.53v-.1a22.58,22.58,0,0,1-6.53,3.55,23.46,23.46,0,0,1-16.64-.58A23.64,23.64,0,0,1,51.51,51.15a22.89,22.89,0,0,1-1.83-9.09V18.68H59V42.06a14.24,14.24,0,0,0,4.12,10.07,14,14,0,0,0,4.55,3,14.1,14.1,0,0,0,5.53,1.1,13.83,13.83,0,0,0,5.48-1.1,14.17,14.17,0,0,0,8.61-13.1V18.68Z"/><path class="b" d="M132.29,20.62a23.46,23.46,0,0,1,7.41,5,23.72,23.72,0,0,1,5,7.41,23.59,23.59,0,0,1,0,18.22,23.93,23.93,0,0,1-5,7.51,23,23,0,0,1-7.41,5.06,23.57,23.57,0,0,1-18.21,0A23.73,23.73,0,0,1,101.5,51.25a22.83,22.83,0,0,1-1.82-9.08V0H109V18.79h14.19a22.73,22.73,0,0,1,9.13,1.83m-9.13,35.74a13.78,13.78,0,0,0,5.48-1.09,14.14,14.14,0,0,0,8.61-13.1,13.78,13.78,0,0,0-1.09-5.48,14.46,14.46,0,0,0-3-4.49,14.23,14.23,0,0,0-4.49-3,13.78,13.78,0,0,0-5.48-1.09H109V42.17a14.17,14.17,0,0,0,4.12,10.07,13.9,13.9,0,0,0,4.54,3,14.13,14.13,0,0,0,5.53,1.09"/><path class="b" d="M196.33,18.58V42A22.84,22.84,0,0,1,194.5,51,23.87,23.87,0,0,1,182,63.62a23.28,23.28,0,0,1-25.68-5.07,24.1,24.1,0,0,1-5-7.51A22.84,22.84,0,0,1,149.46,42V18.58h9.29V42a14.14,14.14,0,0,0,1.1,5.53,13.9,13.9,0,0,0,3,4.54,14.08,14.08,0,0,0,4.48,3,13.78,13.78,0,0,0,5.48,1.09,14.1,14.1,0,0,0,5.53-1.09,14,14,0,0,0,7.57-7.57A14.14,14.14,0,0,0,187,42V18.58Z"/><path class="b" d="M241.2,18.58v9.29H212.92a4.64,4.64,0,0,0-4.7,4.7A4.74,4.74,0,0,0,209.58,36a4.45,4.45,0,0,0,3.34,1.41h18.79a13.78,13.78,0,0,1,5.48,1.09,14.61,14.61,0,0,1,4.49,3,13.67,13.67,0,0,1,3,4.43,14.2,14.2,0,0,1,0,11,14.15,14.15,0,0,1-7.51,7.52,13.78,13.78,0,0,1-5.48,1.09H203.53V56.15h28.18a4.64,4.64,0,0,0,4.8-4.8A4.53,4.53,0,0,0,235.15,48a4.66,4.66,0,0,0-3.44-1.35H212.92A13.77,13.77,0,0,1,203,42.53a14.6,14.6,0,0,1-3-4.48,14.32,14.32,0,0,1,0-11,14,14,0,0,1,3-4.44,14.18,14.18,0,0,1,4.44-3,13.79,13.79,0,0,1,5.48-1.1Z"/><path class="b" d="M26.36,41.59a3.73,3.73,0,1,1-3.73-3.73,3.73,3.73,0,0,1,3.73,3.73"/><path class="a" d="M126.11,42.33a3.73,3.73,0,1,1-3.73-3.73,3.72,3.72,0,0,1,3.73,3.73"/><path d="M110.29,89.86v8.36H108.8V89.86h-1.08V88.7h1.08v-.91a2.55,2.55,0,0,1,.83-2.12,3.17,3.17,0,0,1,2.13-.6v1.34a1.28,1.28,0,0,0-1.47,1.43v.86h1.47v1.16Z"/><path d="M118.41,98.22v-.84a2.58,2.58,0,0,1-.55.65,1.72,1.72,0,0,1-1.12.34,2,2,0,0,1-1.64-.71,3.25,3.25,0,0,1-.61-2.14,2.85,2.85,0,0,1,.85-2.15,2.76,2.76,0,0,1,2-.64h1V91.22c0-.88-.38-1.36-1.12-1.36a1,1,0,0,0-.73.31,1.46,1.46,0,0,0-.35,1.11h-1.49a2.75,2.75,0,0,1,.74-2,2.63,2.63,0,0,1,1.83-.69,2.55,2.55,0,0,1,1.86.66,2.84,2.84,0,0,1,.75,2.1v6.9Zm-.08-4.4h-.84a1.43,1.43,0,0,0-1.07.34,1.93,1.93,0,0,0-.44,1.31c0,1,.39,1.6,1.16,1.6s1.19-.61,1.19-1.49Z"/><path d="M127.94,97.71a2.51,2.51,0,0,1-1.87.66,2.37,2.37,0,0,1-2-.88c-.58-.75-.7-2.1-.7-4s.12-3.28.7-4a2.37,2.37,0,0,1,2-.88,2.4,2.4,0,0,1,1.85.62,3,3,0,0,1,.76,2.17h-1.47a1.66,1.66,0,0,0-.3-1.1,1,1,0,0,0-.82-.37,1,1,0,0,0-.85.41c-.35.47-.39,1.47-.39,3.18s0,2.68.39,3.16a1,1,0,0,0,.85.4,1,1,0,0,0,.8-.35,1.55,1.55,0,0,0,.32-1.1h1.47a3,3,0,0,1-.74,2.13m-2.08,3.86h-1.17l1-2.65h1Z"/><path d="M136.58,97.49a2.36,2.36,0,0,1-2,.88,2.31,2.31,0,0,1-2-.88c-.59-.75-.7-2.1-.7-4s.11-3.28.7-4a2.31,2.31,0,0,1,2-.88,2.36,2.36,0,0,1,2,.88c.58.75.68,2.1.68,4s-.1,3.27-.68,4m-1.18-7.2a1,1,0,0,0-.85-.41,1,1,0,0,0-.82.41c-.35.47-.39,1.47-.39,3.18s0,2.68.39,3.16a1,1,0,0,0,.82.4,1.05,1.05,0,0,0,.85-.4c.35-.48.37-1.46.37-3.16s0-2.71-.37-3.18"/><path d="M144.64,98.22v-7a1.16,1.16,0,0,0-1.14-1.32c-.63,0-1.12.44-1.12,1.32v7h-1.49V88.7h1.43v.74a2.07,2.07,0,0,1,.59-.59,2,2,0,0,1,1-.29,2,2,0,0,1,1.62.69,2.66,2.66,0,0,1,.57,2v7Z"/><path d="M158.82,98.22v-.73a1.89,1.89,0,0,1-.57.59,2,2,0,0,1-1,.29,2,2,0,0,1-1.58-.69c-.61-.72-.7-2-.7-4.21s.09-3.5.7-4.22a2.13,2.13,0,0,1,2.61-.42,1.82,1.82,0,0,1,.53.54V85.14h1.49V98.22Zm0-6.94a1.54,1.54,0,0,0-.38-1.11,1.1,1.1,0,0,0-.78-.29,1,1,0,0,0-.81.41c-.35.47-.38,1.47-.38,3.18s0,2.68.38,3.16a1,1,0,0,0,.81.4,1,1,0,0,0,.78-.28,1.54,1.54,0,0,0,.38-1.12Z"/><path d="M165.37,93.82c0,1.5.08,2.38.41,2.81a1,1,0,0,0,.83.4,1.1,1.1,0,0,0,.84-.37,1.74,1.74,0,0,0,.33-1.08h1.47a3.08,3.08,0,0,1-.75,2.1,2.51,2.51,0,0,1-1.89.69,2.39,2.39,0,0,1-1.88-.73c-.74-.76-.84-2.17-.84-4.17s.09-3.42.82-4.18a2.49,2.49,0,0,1,1.88-.73,2.37,2.37,0,0,1,1.87.73c.79.87.83,2.48.83,4.53Zm2.06-3.53a1.07,1.07,0,0,0-.84-.41,1,1,0,0,0-.83.41,4.29,4.29,0,0,0-.39,2.4h2.43a4.25,4.25,0,0,0-.37-2.4"/><path d="M182.77,97.68a2,2,0,0,1-3.2-.19v.74h-1.43V85.14h1.49v4.23a1.82,1.82,0,0,1,.53-.54,2.13,2.13,0,0,1,2.61.42c.61.72.68,2,.68,4.22s-.07,3.49-.68,4.21m-1.18-7.39a1,1,0,0,0-.82-.41,1.06,1.06,0,0,0-.78.3,1.5,1.5,0,0,0-.36,1.1v4.35a1.53,1.53,0,0,0,.36,1.12,1,1,0,0,0,.78.28,1,1,0,0,0,.82-.4c.35-.48.37-1.46.37-3.16s0-2.71-.37-3.18"/><path d="M191.49,97.49a2.74,2.74,0,0,1-4,0c-.59-.75-.7-2.1-.7-4s.11-3.28.7-4a2.74,2.74,0,0,1,4,0c.59.75.69,2.1.69,4s-.1,3.27-.69,4m-1.17-7.2a1,1,0,0,0-.85-.41,1,1,0,0,0-.82.41c-.35.47-.39,1.47-.39,3.18s0,2.68.39,3.16a1,1,0,0,0,.82.4,1,1,0,0,0,.85-.4c.35-.48.37-1.46.37-3.16s0-2.71-.37-3.18"/><path d="M199.54,98.22v-.73a2.07,2.07,0,0,1-.59.59,1.94,1.94,0,0,1-1,.29,2,2,0,0,1-1.62-.69,2.67,2.67,0,0,1-.56-2v-7h1.48v7A1.16,1.16,0,0,0,198.36,97c.63,0,1.12-.44,1.12-1.32v-7H201v9.52Z"/><path d="M209.14,101.13a2.57,2.57,0,0,1-1.87.72,2.44,2.44,0,0,1-2.63-2.74h1.47a1.67,1.67,0,0,0,.33,1.14,1.13,1.13,0,0,0,.81.31,1.08,1.08,0,0,0,.81-.35,2.47,2.47,0,0,0,.37-1.67V97.1a1.9,1.9,0,0,1-.53.56,1.71,1.71,0,0,1-1,.25,1.85,1.85,0,0,1-1.56-.68c-.59-.68-.75-1.78-.75-4s.16-3.32.75-4a1.83,1.83,0,0,1,1.56-.68,1.94,1.94,0,0,1,1,.29,1.91,1.91,0,0,1,.53.53V88.7h1.46v9.77a3.44,3.44,0,0,1-.78,2.66m-.71-9.85a1.43,1.43,0,0,0-.37-1.09,1.1,1.1,0,0,0-.79-.31,1,1,0,0,0-.81.41c-.35.44-.38,1.39-.38,2.95s0,2.52.38,3a1,1,0,0,0,.81.41,1.1,1.1,0,0,0,.79-.31,1.55,1.55,0,0,0,.37-1.09Z"/><path d="M214.93,93.82c0,1.5.08,2.38.41,2.81a1,1,0,0,0,.82.4,1.1,1.1,0,0,0,.85-.37,1.74,1.74,0,0,0,.33-1.08h1.47a3.08,3.08,0,0,1-.75,2.1,2.52,2.52,0,0,1-1.9.69,2.38,2.38,0,0,1-1.87-.73c-.73-.76-.85-2.17-.85-4.17s.09-3.42.83-4.18a2.49,2.49,0,0,1,1.88-.73,2.38,2.38,0,0,1,1.87.73c.79.87.83,2.48.83,4.53ZM217,90.29a1.07,1.07,0,0,0-.84-.41,1,1,0,0,0-.83.41,4.2,4.2,0,0,0-.39,2.4h2.43a4.35,4.35,0,0,0-.37-2.4"/><path d="M225.64,90a1.64,1.64,0,0,0-1.73,1.75v6.48h-1.49V88.7h1.44v1a2.37,2.37,0,0,1,.66-.68,2.64,2.64,0,0,1,1.56-.47V90Z"/><path d="M229.3,96.41h1.81v1.81H229.3Zm3.53,0h1.81v1.81h-1.81Zm3.54,0h1.82v1.81h-1.82Z"/><path d="M108.18,81.77a2.55,2.55,0,0,1-.85-2.13V69.28h1.49v10.3A1.26,1.26,0,0,0,110.23,81v1.34a3,3,0,0,1-2-.59"/><path d="M116.88,82.36v-.84a2.32,2.32,0,0,1-.55.64,1.68,1.68,0,0,1-1.12.35,2,2,0,0,1-1.63-.72,3.22,3.22,0,0,1-.61-2.13,2.85,2.85,0,0,1,.84-2.15,2.77,2.77,0,0,1,2-.64h1V75.36c0-.88-.38-1.36-1.12-1.36a1,1,0,0,0-.73.31,1.45,1.45,0,0,0-.35,1.1h-1.49a2.71,2.71,0,0,1,.73-2,2.68,2.68,0,0,1,1.84-.7,2.58,2.58,0,0,1,1.86.66,2.86,2.86,0,0,1,.75,2.1v6.91ZM116.81,78H116a1.38,1.38,0,0,0-1.07.35,1.88,1.88,0,0,0-.44,1.31c0,1,.38,1.59,1.16,1.59s1.19-.6,1.19-1.49Z"/><path d="M134.91,82.36v-7c0-.88-.5-1.33-1.12-1.33s-1.13.45-1.13,1.33v7h-1.49v-7c0-.88-.51-1.33-1.13-1.33s-1.13.45-1.13,1.33v7h-1.48V72.84h1.43v.73a1.92,1.92,0,0,1,.59-.58,1.86,1.86,0,0,1,1-.3,2.21,2.21,0,0,1,1.81,1,3,3,0,0,1,.76-.7,2.17,2.17,0,0,1,1.08-.3,2,2,0,0,1,1.71.7,2.61,2.61,0,0,1,.55,2v7Z"/><path d="M141.44,78c0,1.51.07,2.39.4,2.81a1,1,0,0,0,.83.41,1.1,1.1,0,0,0,.85-.37,1.77,1.77,0,0,0,.33-1.09h1.47a3,3,0,0,1-.76,2.1,2.45,2.45,0,0,1-1.89.7,2.32,2.32,0,0,1-1.87-.74c-.74-.75-.85-2.16-.85-4.17s.09-3.42.83-4.17a2.45,2.45,0,0,1,1.87-.74,2.39,2.39,0,0,1,1.88.74c.79.86.82,2.48.82,4.52Zm2.06-3.53a1.08,1.08,0,0,0-.85-.4,1.06,1.06,0,0,0-.83.4,4.34,4.34,0,0,0-.38,2.41h2.43a4.37,4.37,0,0,0-.37-2.41"/><path d="M148.8,69.42h1.75v1.73H148.8Zm.13,3.58h1.49v9.36h-1.49Z"/><path d="M155.12,81.77a2.57,2.57,0,0,1-.84-2.13V69.28h1.49v10.3A1.26,1.26,0,0,0,157.18,81v1.34a3,3,0,0,1-2.06-.59"/><path d="M161.15,81.77a2.55,2.55,0,0,1-.85-2.13V69.28h1.49v10.3A1.26,1.26,0,0,0,163.21,81v1.34a3,3,0,0,1-2.06-.59"/><path d="M167.58,78c0,1.51.07,2.39.4,2.81a1,1,0,0,0,.83.41,1.12,1.12,0,0,0,.85-.37,1.77,1.77,0,0,0,.33-1.09h1.47a3,3,0,0,1-.76,2.1,2.48,2.48,0,0,1-1.89.7,2.36,2.36,0,0,1-1.88-.74c-.73-.75-.84-2.16-.84-4.17s.09-3.42.83-4.17a2.44,2.44,0,0,1,1.87-.74,2.37,2.37,0,0,1,1.87.74c.8.86.83,2.48.83,4.52Zm2-3.53a1.07,1.07,0,0,0-1.67,0,4.34,4.34,0,0,0-.38,2.41H170a4.27,4.27,0,0,0-.37-2.41"/><path d="M178.8,82.36v-.73a1.89,1.89,0,0,1-1.62.88,2,2,0,0,1-1.61-.7,2.61,2.61,0,0,1-.57-2v-7h1.49v7c0,.89.51,1.33,1.14,1.33s1.12-.44,1.12-1.33v-7h1.48v9.52Z"/><path d="M187.38,74.13a1.63,1.63,0,0,0-1.73,1.74v6.49h-1.49V72.84h1.44v1a2.25,2.25,0,0,1,.66-.68,2.65,2.65,0,0,1,1.56-.48v1.44Z"/><path d="M192,78c0,1.51.08,2.39.41,2.81a1,1,0,0,0,.83.41,1.1,1.1,0,0,0,.84-.37,1.77,1.77,0,0,0,.33-1.09h1.47a3,3,0,0,1-.75,2.1,2.48,2.48,0,0,1-1.89.7,2.36,2.36,0,0,1-1.88-.74c-.74-.75-.85-2.16-.85-4.17s.1-3.42.83-4.17a2.46,2.46,0,0,1,1.88-.74,2.39,2.39,0,0,1,1.87.74c.79.86.83,2.48.83,4.52Zm2.06-3.53a1.06,1.06,0,0,0-.84-.4,1,1,0,0,0-.83.4,4.22,4.22,0,0,0-.39,2.41h2.43a4.27,4.27,0,0,0-.37-2.41"/></svg>