<?xml version="1.0" encoding="UTF-8" standalone="no"?>
<!-- Created with Inkscape (http://www.inkscape.org/) -->

<svg
   viewBox="0 0 35.457321 35.273464"
   version="1.1"
   id="svg5757"
   inkscape:version="1.1 (c68e22c387, 2021-05-23)"
   sodipodi:docname="cap cotentin.svg"
   xmlns:inkscape="http://www.inkscape.org/namespaces/inkscape"
   xmlns:sodipodi="http://sodipodi.sourceforge.net/DTD/sodipodi-0.dtd"
   xmlns="http://www.w3.org/2000/svg"
   xmlns:svg="http://www.w3.org/2000/svg">
  <sodipodi:namedview
     id="namedview5759"
     pagecolor="#ffffff"
     bordercolor="#666666"
     borderopacity="1.0"
     inkscape:pageshadow="2"
     inkscape:pageopacity="0.0"
     inkscape:pagecheckerboard="0"
     inkscape:document-units="mm"
     showgrid="false"
     inkscape:zoom="5.7157127"
     inkscape:cx="62.809315"
     inkscape:cy="94.738842"
     inkscape:window-width="1920"
     inkscape:window-height="991"
     inkscape:window-x="-9"
     inkscape:window-y="511"
     inkscape:window-maximized="1"
     inkscape:current-layer="layer1" />
  <defs
     id="defs5754" />
  <g
     inkscape:label="Calque 1"
     inkscape:groupmode="layer"
     id="layer1"
     transform="translate(-81.518225,-105.68129)">
    <path
       style="fill:#ffde87;fill-opacity:1;fill-rule:nonzero;stroke:none;stroke-width:0.352778"
       d="m 114.67658,105.68207 c -0.0413,-10e-4 -0.0827,0 -0.12403,0 -0.0413,-10e-4 -0.0827,0 -0.12264,0 -0.0414,-10e-4 -0.0827,0 -0.12403,0 -0.0413,-10e-4 -0.0827,0 -0.12402,0 -0.0413,-10e-4 -0.0827,0 -0.12402,0 -0.04,-10e-4 -0.0813,0 -0.12265,0 -0.0413,-10e-4 -0.0827,0 -0.12402,0 -0.19568,-0.005 -0.39825,0.0138 -0.60083,0.062 -6.6008,1.5627 -20.73947,5.26962 -24.560773,9.16396 -5.036728,5.13319 -4.958179,13.37661 0.175013,18.41335 2.570039,2.52043 5.918673,3.76066 9.254903,3.72483 0.04134,0 0.08268,0 0.124026,0 0.04134,0 0.08268,0 0.124022,0 0.04134,0 0.08268,0 0.124023,0 0.03996,0 0.08131,0 0.122647,0 0.04134,0 0.08268,0 0.124022,0 0.04134,0 0.08268,0 0.124023,0 0.04134,0 0.0813,0 0.122646,0 3.369308,-0.003 6.735848,-1.305 9.281088,-3.89985 3.8213,-3.89571 7.2595,-18.10191 8.6968,-24.73027 0.31557,-1.46072 -0.83509,-2.76572 -2.2462,-2.73403"
       id="path1373" />
    <path
       style="fill:#eb5c4a;fill-opacity:1;fill-rule:nonzero;stroke:none;stroke-width:0.352778"
       d="m 89.638999,114.90804 c 3.8213,-3.89434 17.959971,-7.60126 24.559401,-9.16396 1.61643,-0.38309 3.07578,1.05007 2.72438,2.67202 -1.4373,6.62836 -4.8755,20.83594 -8.6968,24.73027 -5.03535,5.13182 -13.278776,5.21036 -18.411968,0.17502 -5.133195,-5.03674 -5.211741,-13.28016 -0.175013,-18.41335"
       id="path1375" />
    <path
       style="fill:#ffffff;fill-opacity:1;fill-rule:nonzero;stroke:none;stroke-width:0.352778"
       d="m 91.758421,124.65352 c -0.439593,-0.0965 -0.819929,-0.26734 -1.142393,-0.51263 -0.32246,-0.24529 -0.576019,-0.54019 -0.759298,-0.88332 -0.183278,-0.34313 -0.292146,-0.71382 -0.327974,-1.10932 -0.03721,-0.43408 0.01517,-0.86817 0.158475,-1.305 0.143316,-0.43684 0.367937,-0.80064 0.673862,-1.09141 0.243911,-0.24253 0.549836,-0.43684 0.917773,-0.58291 0.367936,-0.14607 0.746897,-0.23564 1.138258,-0.27009 0.377582,-0.0331 0.745519,-0.0138 1.101055,0.0606 0.356909,0.073 0.664214,0.20533 0.920528,0.39825 0.07304,0.062 0.112998,0.12816 0.119888,0.2012 0.0041,0.0551 -0.01792,0.11851 -0.06752,0.19155 -0.05512,0.0661 -0.119891,0.10197 -0.192927,0.10886 -0.07304,0.005 -0.139181,-0.0165 -0.198437,-0.0661 -0.173631,-0.14469 -0.418924,-0.24391 -0.73725,-0.29903 -0.318325,-0.0551 -0.639409,-0.0689 -0.961869,-0.0413 -0.226,0.0207 -0.442352,0.0593 -0.649059,0.11713 -0.206703,0.0579 -0.383091,0.13367 -0.529166,0.226 -0.407899,0.24529 -0.70969,0.5774 -0.903993,0.99632 -0.192924,0.4203 -0.270094,0.85576 -0.231511,1.30638 0.04134,0.46302 0.210842,0.87781 0.509877,1.24161 0.299032,0.36381 0.697287,0.61048 1.194756,0.74001 0.319705,0.0813 0.642169,0.10887 0.966008,0.0813 0.32246,-0.0289 0.633896,-0.11024 0.932931,-0.24391 0.297657,-0.13367 0.551216,-0.3073 0.760677,-0.52227 0.06201,-0.0551 0.124023,-0.0854 0.186034,-0.0896 0.07855,-0.007 0.151585,0.0165 0.217731,0.073 0.05512,0.062 0.08544,0.12402 0.08957,0.18466 0.0069,0.0744 -0.02067,0.14056 -0.08268,0.20119 -0.271473,0.28112 -0.582909,0.50298 -0.938445,0.66284 -0.354154,0.15985 -0.72347,0.25769 -1.107941,0.29076 -0.347268,0.0303 -0.700045,0.01 -1.056958,-0.0648"
       id="path1377" />
    <path
       style="fill:#ffffff;fill-opacity:1;fill-rule:nonzero;stroke:none;stroke-width:0.352778"
       d="m 98.878747,124.05821 c -0.04823,0.011 -0.09784,0.0179 -0.150206,0.0234 -0.05237,0.004 -0.101978,0.008 -0.150206,0.0124 -0.542949,0.0482 -1.037664,-0.0248 -1.485526,-0.21497 -0.446486,-0.19155 -0.810288,-0.47818 -1.088651,-0.8599 -0.279742,-0.38172 -0.442351,-0.83096 -0.487824,-1.3491 -0.04272,-0.48782 0.01517,-0.94671 0.170874,-1.37528 0.15572,-0.42857 0.398255,-0.79513 0.728984,-1.10105 0.32935,-0.30455 0.731739,-0.51539 1.20716,-0.63114 0.06615,-0.0179 0.139185,-0.0331 0.217731,-0.0469 0.07855,-0.0124 0.157095,-0.022 0.237024,-0.0289 0.32935,-0.0289 0.676617,-0.0152 1.040419,0.0427 0.365178,0.0565 0.676614,0.15434 0.934304,0.29076 0.0248,-0.0689 0.0703,-0.11437 0.13505,-0.13642 0.0661,-0.0207 0.12127,-0.0262 0.16399,-0.0179 0.0689,0 0.12265,0.0262 0.16398,0.0772 0.0413,0.0524 0.0661,0.11437 0.0717,0.18741 0.007,0.14056 0.0138,0.27836 0.0221,0.41341 0.008,0.13367 0.0193,0.26872 0.0317,0.40239 0.0593,0.68351 0.16261,1.28571 0.31006,1.80798 0.14607,0.52228 0.37758,0.96876 0.69315,1.34084 0.0413,0.051 0.0648,0.10472 0.0689,0.15985 0.007,0.073 -0.0165,0.13642 -0.0703,0.19017 -0.0537,0.0537 -0.11438,0.0841 -0.1819,0.0896 -0.0909,0.008 -0.17088,-0.0248 -0.23841,-0.0992 -0.0689,-0.0799 -0.13642,-0.16812 -0.20395,-0.26734 -0.0661,-0.0992 -0.12126,-0.18603 -0.16536,-0.26183 -0.22049,0.36932 -0.50161,0.6656 -0.84474,0.88884 -0.343127,0.22462 -0.719333,0.37758 -1.129987,0.46302 m -0.228756,-0.51401 c 0.414789,-0.0358 0.786861,-0.18603 1.11759,-0.44786 0.330733,-0.26321 0.587043,-0.60496 0.771703,-1.02664 -0.12127,-0.33349 -0.22324,-0.72485 -0.30455,-1.17271 -0.0827,-0.44649 -0.14194,-0.91502 -0.17914,-1.40422 -0.133673,-0.12265 -0.304552,-0.22187 -0.514013,-0.2949 -0.209462,-0.0744 -0.435459,-0.1254 -0.676614,-0.15296 -0.242535,-0.0289 -0.479559,-0.0317 -0.711069,-0.0124 -0.152961,0.0138 -0.294901,0.0358 -0.428569,0.0661 -0.132292,0.0289 -0.254938,0.0744 -0.365181,0.13229 -0.449242,0.21221 -0.792371,0.52916 -1.028016,0.95222 -0.237024,0.42306 -0.332109,0.89159 -0.288011,1.40422 0.03996,0.45062 0.181902,0.8282 0.427192,1.13275 0.243914,0.30455 0.556726,0.52779 0.938446,0.66973 0.381716,0.14194 0.79375,0.19292 1.240232,0.15434"
       id="path1379" />
    <path
       style="fill:#ffffff;fill-opacity:1;fill-rule:nonzero;stroke:none;stroke-width:0.352778"
       d="m 103.40147,124.64939 c -0.0606,0.005 -0.11989,-0.011 -0.17915,-0.0482 -0.0579,-0.0386 -0.0909,-0.0965 -0.0978,-0.17639 -0.11024,-0.69729 -0.21222,-1.36288 -0.30317,-1.99678 -0.0923,-0.6339 -0.16398,-1.24161 -0.21497,-1.82039 -0.0331,-0.37896 -0.0565,-0.74689 -0.0689,-1.10518 -0.0138,-0.35829 -0.0138,-0.70694 0,-1.04593 0.004,-0.0992 0.0358,-0.1695 0.0965,-0.21222 0.0606,-0.0413 0.12265,-0.0593 0.18466,-0.0524 0.0799,-0.001 0.14469,0.0234 0.19568,0.0744 0.051,0.051 0.073,0.11989 0.0689,0.2067 -0.0124,0.28388 -0.007,0.65457 0.0138,1.11484 0.022,0.45888 0.0537,0.9219 0.0951,1.39181 0.0289,0.32935 0.0606,0.64355 0.0965,0.9412 0.0345,0.29904 0.073,0.54708 0.11576,0.7469 0.30041,0.0717 0.60082,0.1254 0.89848,0.15985 0.29903,0.0358 0.58842,0.0413 0.86816,0.0166 0.45751,-0.04 0.86265,-0.16261 1.21681,-0.36932 0.35416,-0.20533 0.62287,-0.48093 0.80891,-0.82682 0.18466,-0.34451 0.25769,-0.74276 0.21773,-1.19338 -0.0372,-0.43408 -0.16812,-0.8034 -0.39136,-1.10932 -0.22462,-0.30593 -0.50988,-0.53468 -0.85852,-0.68626 -0.34727,-0.15021 -0.72898,-0.20809 -1.14378,-0.17088 -0.24391,0.0207 -0.4892,0.0744 -0.73311,0.15985 -0.24391,0.0868 -0.47267,0.19155 -0.68213,0.31419 -0.0413,0.0275 -0.0882,0.0441 -0.14331,0.0482 -0.10336,0.01 -0.18191,-0.033 -0.23289,-0.12678 -0.0276,-0.04 -0.0441,-0.0854 -0.0482,-0.13366 -0.008,-0.0923 0.0345,-0.17502 0.12541,-0.25081 0.22048,-0.14882 0.48093,-0.26734 0.77997,-0.35829 0.29903,-0.0909 0.60495,-0.15021 0.91639,-0.17776 0.54295,-0.0469 1.03077,0.0289 1.46623,0.22737 0.43547,0.19844 0.78824,0.48921 1.05834,0.87092 0.27009,0.38172 0.42719,0.8282 0.47267,1.34083 0.0482,0.56087 -0.0482,1.05834 -0.29353,1.49242 -0.24529,0.4327 -0.59669,0.77997 -1.05695,1.0418 -0.45889,0.26182 -0.9853,0.41754 -1.57648,0.46991 -0.53743,0.0469 -1.06384,-0.006 -1.58199,-0.1571 l 0.1695,1.08314 c 0.0207,0.10197 0,0.17914 -0.0634,0.23013 -0.0634,0.0524 -0.12815,0.0813 -0.19568,0.0868"
       id="path1381" />
    <path
       style="fill:#ffffff;fill-opacity:1;fill-rule:nonzero;stroke:none;stroke-width:0.352778"
       d="m 90.261874,127.761 c -0.06477,-0.73312 0.234266,-1.24161 0.96325,-1.30638 0.425813,-0.0372 0.844736,0.10473 0.862651,0.31143 0.0069,0.0772 -0.04548,0.13919 -0.128158,0.14608 -0.04272,0.004 -0.0689,-0.0124 -0.108867,-0.0331 -0.0096,-0.01 -0.03443,-0.0165 -0.04961,-0.0248 -0.16812,-0.0923 -0.336243,-0.13504 -0.527791,-0.11851 -0.580154,0.051 -0.740004,0.42719 -0.690397,0.9977 l 0.09233,1.05007 c 0.04961,0.565 0.271473,0.90812 0.851627,0.85714 0.192927,-0.0165 0.351402,-0.0786 0.490583,-0.19706 l 0.04961,-0.0386 c 0.04548,-0.0372 0.07304,-0.0551 0.106112,-0.0579 0.0813,-0.007 0.144692,0.051 0.150206,0.12264 0.0193,0.21084 -0.367937,0.41893 -0.79513,0.45613 -0.728983,0.0634 -1.110699,-0.38585 -1.174087,-1.11483 z m 0,0"
       id="path1383" />
    <path
       style="fill:#ffffff;fill-opacity:1;fill-rule:nonzero;stroke:none;stroke-width:0.352778"
       d="m 92.607293,128.61401 -0.09233,-1.05007 c -0.05788,-0.66146 0.201193,-1.23886 0.986674,-1.30776 0.777215,-0.0675 1.136883,0.45613 1.194759,1.11759 l 0.09095,1.05006 c 0.05926,0.67525 -0.257694,1.24438 -0.981163,1.30776 -0.72347,0.0634 -1.139638,-0.44097 -1.198894,-1.11758 m 0.228755,-1.07763 0.09233,1.05006 c 0.04685,0.53193 0.323839,0.8847 0.851627,0.83785 0.526411,-0.0455 0.733118,-0.44097 0.686265,-0.97289 l -0.09095,-1.05007 c -0.04823,-0.54157 -0.285252,-0.88746 -0.846113,-0.83922 -0.570508,0.051 -0.740007,0.4327 -0.693155,0.97427"
       id="path1385" />
    <path
       style="fill:#ffffff;fill-opacity:1;fill-rule:nonzero;stroke:none;stroke-width:0.352778"
       d="m 95.753354,126.41604 -0.700041,0.062 c -0.09646,0.008 -0.169499,-0.0524 -0.176389,-0.13505 -0.0055,-0.0717 0.05788,-0.16399 0.148826,-0.17226 l 1.721171,-0.1502 c 0.08682,-0.007 0.169499,0.0524 0.176389,0.14331 0.0083,0.0813 -0.05788,0.15572 -0.14883,0.16399 l -0.705555,0.0606 0.259073,2.96279 c 0.0083,0.0868 -0.05237,0.16398 -0.139182,0.17087 -0.09095,0.008 -0.169499,-0.0565 -0.176389,-0.14332 z m 0,0"
       id="path1387" />
    <path
       style="fill:#ffffff;fill-opacity:1;fill-rule:nonzero;stroke:none;stroke-width:0.352778"
       d="m 99.261842,129.20518 -1.298113,0.11438 c -0.144695,0.0124 -0.276987,-0.0193 -0.290766,-0.16812 l -0.261828,-2.99172 c -0.0083,-0.1006 0.06477,-0.20257 0.180523,-0.2136 l 1.327051,-0.11575 c 0.08681,-0.008 0.159851,0.0579 0.16812,0.1502 0.0069,0.0813 -0.05512,0.14883 -0.140561,0.1571 l -1.208539,0.10473 0.107488,1.22232 1.112076,-0.0965 c 0.0813,-0.007 0.158474,0.0537 0.166744,0.13918 0.0069,0.0868 -0.05374,0.15985 -0.140561,0.16674 l -1.112076,0.0978 0.108864,1.2361 1.255395,-0.10886 c 0.08131,-0.008 0.163985,0.0524 0.170875,0.12954 0.0083,0.0965 -0.05788,0.16949 -0.144692,0.17638"
       id="path1389" />
    <path
       style="fill:#ffffff;fill-opacity:1;fill-rule:nonzero;stroke:none;stroke-width:0.352778"
       d="m 101.75609,128.94336 -1.71979,-2.60725 0.23288,2.66512 c 0.008,0.091 -0.0579,0.1695 -0.14882,0.17777 -0.0868,0.007 -0.163987,-0.0579 -0.172256,-0.14883 l -0.274232,-3.1309 c -0.0096,-0.10473 0.06064,-0.18879 0.161234,-0.19706 0.07166,-0.007 0.143316,0.0262 0.181904,0.0854 l 1.72117,2.61138 -0.23427,-2.67891 c -0.008,-0.0854 0.062,-0.16949 0.14883,-0.17638 0.0854,-0.008 0.15985,0.062 0.16674,0.14883 l 0.27423,3.13503 c 0.01,0.1006 -0.0565,0.18328 -0.16123,0.19293 -0.0634,0.005 -0.14194,-0.0221 -0.17639,-0.0772"
       id="path1391" />
    <path
       style="fill:#ffffff;fill-opacity:1;fill-rule:nonzero;stroke:none;stroke-width:0.352778"
       d="m 103.17409,125.76698 -0.70004,0.062 c -0.0951,0.008 -0.16812,-0.0537 -0.17501,-0.13505 -0.007,-0.0716 0.0579,-0.16398 0.14883,-0.17225 l 1.72116,-0.15021 c 0.0854,-0.008 0.16812,0.0524 0.17639,0.14332 0.007,0.0813 -0.0593,0.15572 -0.1502,0.16261 l -0.70418,0.062 0.25907,2.96278 c 0.007,0.0854 -0.0537,0.16399 -0.13918,0.17088 -0.0909,0.008 -0.1695,-0.0565 -0.17777,-0.14332 z m 0,0"
       id="path1393" />
    <path
       style="fill:#ffffff;fill-opacity:1;fill-rule:nonzero;stroke:none;stroke-width:0.352778"
       d="m 104.83049,125.42385 c -0.007,-0.0813 0.0634,-0.16399 0.14883,-0.17226 0.0909,-0.007 0.16537,0.0634 0.17226,0.1447 l 0.27698,3.15846 c 0.007,0.0868 -0.0537,0.16399 -0.14469,0.17225 -0.0868,0.008 -0.1695,-0.0579 -0.17777,-0.14331 z m 0,0"
       id="path1395" />
    <path
       style="fill:#ffffff;fill-opacity:1;fill-rule:nonzero;stroke:none;stroke-width:0.352778"
       d="m 107.99447,128.39765 -1.72117,-2.60724 0.23289,2.66512 c 0.008,0.0909 -0.0579,0.1695 -0.14883,0.17777 -0.0868,0.007 -0.16399,-0.0579 -0.17225,-0.14883 l -0.27424,-3.1309 c -0.008,-0.10474 0.0606,-0.18879 0.16261,-0.19706 0.0717,-0.007 0.14194,0.0262 0.18053,0.0854 l 1.72116,2.61138 -0.23426,-2.67891 c -0.008,-0.0868 0.062,-0.1695 0.14883,-0.17639 0.0854,-0.008 0.15985,0.062 0.16674,0.14883 l 0.27561,3.13504 c 0.008,0.1006 -0.0565,0.18328 -0.16261,0.19292 -0.062,0.006 -0.14194,-0.0221 -0.17501,-0.0772"
       id="path1397" />
    <path
       style="fill:#ffde87;fill-opacity:1;fill-rule:nonzero;stroke:none;stroke-width:0.352778"
       d="m 109.74044,121.9126 c -0.10335,0.0152 -0.2067,0.0289 -0.3073,0.04 -0.10473,0.01 -0.20946,0.0152 -0.31281,0.0193 -0.20809,0.01 -0.41066,0.007 -0.6091,-0.004 l 0.0689,-0.18604 c 0.0124,-0.0303 0.0248,-0.0606 0.0358,-0.0923 l 0.0248,-0.0951 0.051,-0.19155 c 0.0193,-0.0634 0.0234,-0.12953 0.0358,-0.1943 0.17639,0.0965 0.35691,0.20533 0.52228,0.32108 0.16674,0.11714 0.32935,0.24529 0.49058,0.3831"
       id="path1399" />
    <path
       style="fill:#ffde87;fill-opacity:1;fill-rule:nonzero;stroke:none;stroke-width:0.352778"
       d="m 108.63663,123.82119 c -0.0978,-0.0331 -0.1943,-0.0689 -0.28938,-0.10749 -0.0978,-0.04 -0.19431,-0.0827 -0.28664,-0.12678 -0.18741,-0.0882 -0.36655,-0.18328 -0.53743,-0.28663 0.19844,-0.17363 0.38998,-0.35691 0.5457,-0.57189 0.11025,0.16675 0.21911,0.34727 0.31282,0.52779 0.0923,0.18052 0.17776,0.36932 0.25493,0.565"
       id="path1401" />
    <path
       style="fill:#ffde87;fill-opacity:1;fill-rule:nonzero;stroke:none;stroke-width:0.352778"
       d="m 104.94211,116.03665 c 0.20533,0.37621 0.36932,0.74276 0.48921,1.13275 -0.13229,-0.008 -0.26458,0.007 -0.39688,0.008 -0.13091,0.0152 -0.2632,0.0331 -0.39274,0.0537 0.0565,-0.39412 0.1571,-0.79651 0.30041,-1.19476"
       id="path1403" />
    <path
       style="fill:#ffde87;fill-opacity:1;fill-rule:nonzero;stroke:none;stroke-width:0.352778"
       d="m 107.12079,116.38943 c 0.01,0.42444 -0.022,0.83371 -0.0951,1.22921 -0.11576,-0.0634 -0.23565,-0.11989 -0.35416,-0.17639 l -0.18603,-0.0703 c -0.0606,-0.0234 -0.12265,-0.0482 -0.18742,-0.062 0.11989,-0.16812 0.24529,-0.32522 0.38172,-0.47543 0.13643,-0.15296 0.28388,-0.30179 0.44097,-0.4451"
       id="path1405" />
    <path
       style="fill:#ffde87;fill-opacity:1;fill-rule:nonzero;stroke:none;stroke-width:0.352778"
       d="m 108.88468,117.71372 c -0.19017,0.38172 -0.40514,0.72898 -0.65457,1.04593 -0.0703,-0.11024 -0.15296,-0.21497 -0.23151,-0.32108 l -0.13229,-0.14745 c -0.0441,-0.0496 -0.0868,-0.1006 -0.1378,-0.14194 0.18465,-0.0951 0.36793,-0.17363 0.55948,-0.24529 0.19155,-0.0717 0.38998,-0.13504 0.59669,-0.19017"
       id="path1407" />
    <path
       style="fill:#ffde87;fill-opacity:1;fill-rule:nonzero;stroke:none;stroke-width:0.352778"
       d="m 109.83002,119.70912 c -0.339,0.24667 -0.70418,0.45613 -1.06247,0.62012 -0.022,-0.13091 -0.0331,-0.2632 -0.0593,-0.39274 l -0.0469,-0.19293 c -0.0138,-0.0634 -0.0303,-0.12816 -0.0551,-0.18879 0.20533,0.001 0.40652,0.0166 0.60771,0.0441 0.20257,0.0262 0.4079,0.062 0.61599,0.11024"
       id="path1409" />
    <path
       style="fill:#eb5c4a;fill-opacity:1;fill-rule:nonzero;stroke:none;stroke-width:0.352778"
       d="m 82.037743,125.93923 c -0.06615,0.003 -0.128157,-0.007 -0.184658,-0.0317 -0.0565,-0.0234 -0.106109,-0.0565 -0.150206,-0.0992 -0.04272,-0.0427 -0.07579,-0.0937 -0.101974,-0.15296 -0.0248,-0.0579 -0.03859,-0.12126 -0.04272,-0.18879 l -0.03996,-0.83371 1.766644,-0.0841 0.03996,0.85024 c 0.0041,0.0606 -0.0069,0.11714 -0.03168,0.16813 -0.02342,0.051 -0.0565,0.0951 -0.09646,0.13229 -0.04134,0.0372 -0.08682,0.0661 -0.140558,0.0868 -0.05375,0.022 -0.107487,0.0345 -0.161233,0.0372 -0.08957,0.004 -0.172254,-0.0138 -0.248045,-0.0551 -0.07579,-0.0413 -0.135047,-0.1006 -0.17501,-0.17914 -0.0248,0.10335 -0.07717,0.18465 -0.15434,0.24804 -0.07855,0.0634 -0.172258,0.0965 -0.279742,0.10198 m 0.02067,-0.17501 c 0.0441,-0.003 0.08544,-0.0124 0.125401,-0.0289 0.03996,-0.0165 0.07442,-0.04 0.103354,-0.0689 0.0303,-0.0289 0.05237,-0.062 0.07028,-0.1006 0.01792,-0.0386 0.0248,-0.0785 0.02342,-0.12127 l -0.03306,-0.67662 -0.669724,0.0317 0.03306,0.66008 c 0.0014,0.0441 0.01238,0.0854 0.03305,0.12402 0.0193,0.0372 0.04547,0.0703 0.07717,0.0978 0.03305,0.0276 0.0689,0.0482 0.111619,0.0634 0.03996,0.0138 0.08268,0.0207 0.125402,0.0193 m 1.083137,-1.03491 -0.65181,0.0317 0.02893,0.60634 c 0.0028,0.0441 0.01238,0.0827 0.03306,0.11989 0.02067,0.0358 0.04547,0.0675 0.07717,0.0923 0.0303,0.0248 0.06615,0.0441 0.106109,0.0565 0.03996,0.0138 0.08131,0.0193 0.124022,0.0165 0.04548,-0.001 0.08682,-0.011 0.125402,-0.0276 0.03996,-0.0152 0.07304,-0.0372 0.100598,-0.0634 0.02755,-0.0276 0.04961,-0.0593 0.06615,-0.0951 0.01517,-0.0358 0.02205,-0.0744 0.0193,-0.11576 z m 0,0"
       id="path1411" />
    <path
       style="fill:#eb5c4a;fill-opacity:1;fill-rule:nonzero;stroke:none;stroke-width:0.352778"
       d="m 81.628464,126.3554 1.756999,-0.19568 0.0193,0.17226 -1.756999,0.19705 z m 0,0"
       id="path1413" />
    <path
       style="fill:#eb5c4a;fill-opacity:1;fill-rule:nonzero;stroke:none;stroke-width:0.352778"
       d="m 82.073571,128.18543 -0.152961,0.0289 -0.213596,-1.16995 1.74046,-0.31695 0.208083,1.14653 -0.151582,0.0275 -0.177768,-0.97565 -0.627006,0.11575 0.155716,0.85026 -0.144692,0.0262 -0.155719,-0.85025 -0.664214,0.12127 z m 0,0"
       id="path1415" />
    <path
       style="fill:#eb5c4a;fill-opacity:1;fill-rule:nonzero;stroke:none;stroke-width:0.352778"
       d="m 83.455743,128.40592 -1.382172,0.41892 -0.04961,-0.16812 1.692232,-0.51125 0.03858,0.12816 -1.069358,1.54616 1.405601,-0.42444 0.05099,0.16675 -1.689474,0.51125 -0.0441,-0.14608 z m 0,0"
       id="path1417" />
    <path
       style="fill:#eb5c4a;fill-opacity:1;fill-rule:nonzero;stroke:none;stroke-width:0.352778"
       d="m 84.274297,129.8942 -1.167197,1.20165 1.672936,-0.0455 0.07304,0.16674 -1.914098,0.0345 -0.06201,-0.13919 1.324296,-1.38492 z m 0,0"
       id="path1419" />
    <path
       style="fill:#eb5c4a;fill-opacity:1;fill-rule:nonzero;stroke:none;stroke-width:0.352778"
       d="m 84.137871,133.20838 -0.135047,0.0758 -0.588423,-1.03215 1.535134,-0.87506 0.577399,1.01148 -0.133668,0.0772 -0.490583,-0.86127 -0.553971,0.31695 0.428569,0.74965 -0.128157,0.073 -0.428569,-0.75104 -0.585667,0.33487 z m 0,0"
       id="path1421" />
    <path
       style="fill:#eb5c4a;fill-opacity:1;fill-rule:nonzero;stroke:none;stroke-width:0.352778"
       d="m 85.515909,132.95896 -1.165821,0.85163 -0.10335,-0.14056 1.427646,-1.04318 0.07993,0.10887 -0.498849,1.81349 1.186491,-0.86678 0.103353,0.14056 -1.42627,1.0418 -0.08957,-0.12265 z m 0,0"
       id="path1423" />
    <path
       style="fill:#eb5c4a;fill-opacity:1;fill-rule:nonzero;stroke:none;stroke-width:0.352778"
       d="m 86.089173,135.73433 c 0.07579,0.0813 0.15572,0.13367 0.235645,0.15985 0.08268,0.0248 0.162609,0.0289 0.243914,0.0138 0.07993,-0.0152 0.157096,-0.0469 0.234266,-0.0937 0.07579,-0.0482 0.146071,-0.10197 0.212217,-0.16398 l 0.649058,-0.61047 0.118509,0.12678 -0.649055,0.61047 c -0.08681,0.0827 -0.177768,0.1502 -0.274228,0.20395 -0.09646,0.0537 -0.194307,0.0882 -0.293526,0.10059 -0.100594,0.0124 -0.199813,0.001 -0.299032,-0.0344 -0.100598,-0.0358 -0.197061,-0.10473 -0.290766,-0.20257 -0.09508,-0.10197 -0.157096,-0.20533 -0.186034,-0.30868 -0.02755,-0.10473 -0.03172,-0.20671 -0.01101,-0.30593 0.02067,-0.0992 0.06063,-0.1943 0.121268,-0.28525 0.06063,-0.0909 0.130912,-0.17501 0.213593,-0.25218 l 0.649058,-0.61047 0.118512,0.1254 -0.649058,0.61047 c -0.0689,0.0634 -0.128157,0.13229 -0.179144,0.20533 -0.05237,0.0744 -0.08819,0.15021 -0.107488,0.22875 -0.0193,0.0786 -0.0193,0.15848 0.0014,0.24116 0.0193,0.0813 0.06615,0.16261 0.141936,0.24116"
       id="path1425" />
    <path
       style="fill:#eb5c4a;fill-opacity:1;fill-rule:nonzero;stroke:none;stroke-width:0.352778"
       d="m 87.899914,137.39624 -0.09922,0.11714 -0.905369,-0.77033 1.147903,-1.34634 0.886079,0.75654 -0.100594,0.11714 -0.753788,-0.64217 -0.413413,0.48507 0.657324,0.56086 -0.09508,0.11162 -0.657324,-0.56086 -0.436838,0.51401 z m 0,0"
       id="path1427" />
    <path
       style="fill:#eb5c4a;fill-opacity:1;fill-rule:nonzero;stroke:none;stroke-width:0.352778"
       d="m 90.046899,136.92909 0.124022,0.0785 -0.326594,1.88654 -0.155716,-0.0992 0.103353,-0.58842 -0.671107,-0.42582 -0.487825,0.34589 -0.157095,-0.1006 z m -0.214972,1.13964 0.16674,-0.9288 -0.773077,0.5457 z m 0.356912,-1.65916 0.148826,0.0937 0.0028,0.27561 -0.115753,-0.0234 z m 0,0"
       id="path1429" />
    <path
       style="fill:#eb5c4a;fill-opacity:1;fill-rule:nonzero;stroke:none;stroke-width:0.352778"
       d="m 92.115334,139.47019 c -0.02755,0.0606 -0.06339,0.11024 -0.110244,0.1502 -0.04685,0.04 -0.09922,0.0703 -0.157095,0.0882 -0.05788,0.0193 -0.118512,0.0276 -0.181899,0.0234 -0.06339,-0.004 -0.126782,-0.0193 -0.188793,-0.0469 l -0.762056,-0.34038 0.720714,-1.61506 0.777215,0.34727 c 0.0565,0.0248 0.101974,0.0592 0.136427,0.10335 0.03443,0.0455 0.05925,0.0937 0.07304,0.14745 0.01517,0.0524 0.02067,0.10749 0.01517,0.16399 -0.0041,0.0579 -0.01792,0.11024 -0.03997,0.16123 -0.03583,0.0813 -0.08957,0.14745 -0.161231,0.19568 -0.07028,0.0496 -0.150205,0.0758 -0.2384,0.0758 0.08131,0.0689 0.130916,0.15159 0.152965,0.25081 0.02067,0.0978 0.0083,0.19568 -0.03583,0.2949 m -0.14745,-0.0978 c 0.01792,-0.04 0.02893,-0.0813 0.03171,-0.12403 0.0028,-0.0441 -0.0028,-0.0854 -0.01517,-0.12402 -0.01242,-0.0386 -0.03168,-0.0758 -0.05788,-0.10749 -0.02618,-0.0331 -0.05926,-0.0579 -0.09784,-0.0758 l -0.618737,-0.27561 -0.272852,0.61185 0.602202,0.26872 c 0.04134,0.0179 0.08268,0.0276 0.126781,0.0262 0.04272,-0.001 0.08268,-0.01 0.122644,-0.0262 0.03859,-0.0152 0.07442,-0.0386 0.106108,-0.0703 0.03172,-0.0303 0.0565,-0.0648 0.07304,-0.10335 m -0.435459,-1.43178 -0.264583,0.59531 0.55397,0.24666 c 0.03996,0.0179 0.07993,0.0262 0.121268,0.0248 0.04134,-0.001 0.08131,-0.011 0.117133,-0.0276 0.03721,-0.0165 0.0689,-0.0386 0.09922,-0.0689 0.02893,-0.0289 0.05237,-0.0634 0.07028,-0.10335 0.01792,-0.0413 0.02893,-0.0827 0.03305,-0.12402 0.0028,-0.0427 -0.0014,-0.0827 -0.01379,-0.11852 -0.01101,-0.0372 -0.02893,-0.0717 -0.05374,-0.1006 -0.0248,-0.0303 -0.0565,-0.0537 -0.09371,-0.0717 z m 0,0"
       id="path1431" />
    <path
       style="fill:#eb5c4a;fill-opacity:1;fill-rule:nonzero;stroke:none;stroke-width:0.352778"
       d="m 93.034485,140.27221 c -0.117132,-0.0372 -0.216351,-0.0937 -0.299032,-0.17364 -0.08268,-0.0785 -0.146074,-0.16812 -0.190172,-0.27009 -0.04547,-0.10197 -0.07028,-0.21084 -0.07579,-0.32522 -0.0055,-0.11575 0.0083,-0.22599 0.04134,-0.33486 0.03583,-0.11162 0.08957,-0.21359 0.16123,-0.30455 0.07304,-0.0896 0.157095,-0.1626 0.253559,-0.22048 0.09646,-0.0565 0.199813,-0.0937 0.311435,-0.11025 0.110244,-0.0165 0.223242,-0.007 0.334864,0.0289 0.117133,0.0358 0.217731,0.0951 0.299036,0.17501 0.0813,0.0799 0.144692,0.17226 0.187413,0.27423 0.0441,0.10198 0.0689,0.21084 0.07579,0.32384 0.0055,0.11438 -0.0083,0.22462 -0.04134,0.33073 -0.03443,0.113 -0.08819,0.2136 -0.16123,0.30455 -0.07304,0.091 -0.157096,0.16399 -0.25218,0.22048 -0.09508,0.0565 -0.197062,0.0923 -0.30868,0.10887 -0.111623,0.0165 -0.223245,0.007 -0.336244,-0.0275 m -0.356912,-1.05145 c -0.02893,0.0923 -0.04134,0.18466 -0.03721,0.27975 0.0028,0.0937 0.02205,0.1819 0.0565,0.26596 0.03583,0.0827 0.08544,0.15572 0.148829,0.21773 0.06339,0.0634 0.141937,0.10886 0.235642,0.1378 0.09509,0.0303 0.188792,0.0358 0.278366,0.0193 0.09095,-0.0165 0.17363,-0.0496 0.248045,-0.0992 0.07442,-0.051 0.139182,-0.113 0.195683,-0.18741 0.05512,-0.0744 0.09646,-0.15572 0.124022,-0.24254 0.02893,-0.0923 0.04134,-0.18466 0.03583,-0.27974 -0.0041,-0.0937 -0.02342,-0.18328 -0.05925,-0.26458 -0.03447,-0.0827 -0.08406,-0.15572 -0.147451,-0.21773 -0.06477,-0.062 -0.14194,-0.10887 -0.234269,-0.13643 -0.09508,-0.0303 -0.187413,-0.0372 -0.278363,-0.0207 -0.08957,0.0165 -0.172254,0.0482 -0.246669,0.0978 -0.07441,0.0496 -0.140557,0.11299 -0.195679,0.18741 -0.05512,0.0744 -0.09646,0.15572 -0.124026,0.24253"
       id="path1433" />
    <path
       style="fill:#eb5c4a;fill-opacity:1;fill-rule:nonzero;stroke:none;stroke-width:0.352778"
       d="m 94.276097,140.60569 0.33073,-1.7377 0.733118,0.14056 c 0.07579,0.0138 0.14056,0.0427 0.198437,0.0868 0.0565,0.0441 0.103353,0.0951 0.139182,0.15572 0.03583,0.0606 0.05926,0.1254 0.07303,0.19568 0.01242,0.0689 0.01242,0.13781 0,0.20395 -0.01242,0.0648 -0.03305,0.12265 -0.06339,0.17777 -0.02893,0.0537 -0.06477,0.10197 -0.107484,0.14194 -0.04272,0.04 -0.09095,0.0703 -0.143316,0.0937 -0.05375,0.0234 -0.110243,0.0344 -0.170878,0.0344 l 0.297656,0.75103 -0.192924,-0.0358 -0.286632,-0.71934 -0.514011,-0.0978 -0.122643,0.64079 z m 0.322464,-0.76067 0.56775,0.10748 c 0.04961,0.011 0.09784,0.008 0.144695,-0.005 0.04547,-0.0152 0.08681,-0.0372 0.122643,-0.0689 0.03721,-0.0331 0.06753,-0.0703 0.09233,-0.11438 0.02618,-0.0441 0.04272,-0.0923 0.05375,-0.14469 0.0096,-0.0524 0.0096,-0.10474 0,-0.15572 -0.0097,-0.0524 -0.02755,-0.0992 -0.05237,-0.14056 -0.0248,-0.0413 -0.0565,-0.0772 -0.09646,-0.10749 -0.03858,-0.0289 -0.08268,-0.0482 -0.129536,-0.0579 l -0.552591,-0.10473 z m 0,0"
       id="path1435" />
    <path
       style="fill:#eb5c4a;fill-opacity:1;fill-rule:nonzero;stroke:none;stroke-width:0.352778"
       d="m 96.001403,140.90611 0.135047,-1.76389 0.598067,0.0455 c 0.140561,0.011 0.261829,0.0441 0.363803,0.0978 0.100598,0.0551 0.184658,0.12403 0.248048,0.20947 0.06477,0.0841 0.110243,0.1819 0.137802,0.29076 0.02755,0.11024 0.03721,0.22462 0.02755,0.34589 -0.01101,0.13367 -0.03996,0.25356 -0.08682,0.35966 -0.04823,0.10474 -0.112999,0.19293 -0.191545,0.26459 -0.07993,0.0717 -0.173633,0.12402 -0.279742,0.15847 -0.106108,0.0345 -0.22462,0.0469 -0.354157,0.0372 z m 1.336696,-0.78824 c 0.0083,-0.10473 0,-0.20395 -0.02342,-0.2949 -0.02205,-0.0909 -0.05925,-0.17088 -0.111619,-0.23978 -0.05237,-0.0689 -0.118512,-0.12403 -0.198438,-0.16536 -0.07992,-0.0427 -0.175013,-0.0675 -0.282497,-0.0758 l -0.424438,-0.0317 -0.110243,1.45383 0.424438,0.0331 c 0.108864,0.008 0.206703,-0.003 0.293521,-0.0344 0.08682,-0.0303 0.159851,-0.0758 0.221862,-0.13781 0.06064,-0.0606 0.108868,-0.13367 0.144696,-0.22049 0.03583,-0.0868 0.05788,-0.1819 0.06615,-0.28663"
       id="path1437" />
    <path
       style="fill:#ffde87;fill-opacity:1;fill-rule:nonzero;stroke:none;stroke-width:0.352778"
       d="m 97.01426,108.82951 0.0083,0.1571 0.726224,-0.0345 -0.0069,-0.15709 z m 0,0"
       id="path1439" />
    <path
       style="fill:#ffde87;fill-opacity:1;fill-rule:nonzero;stroke:none;stroke-width:0.352778"
       d="m 95.921478,108.92597 0.01655,0.15572 0.722094,-0.0744 -0.01517,-0.15572 z m 0,0"
       id="path1441" />
    <path
       style="fill:#ffde87;fill-opacity:1;fill-rule:nonzero;stroke:none;stroke-width:0.352778"
       d="m 94.850741,109.09961 0.02618,0.15572 0.71658,-0.12541 -0.02755,-0.15434 z m 0,0"
       id="path1443" />
    <path
       style="fill:#ffde87;fill-opacity:1;fill-rule:nonzero;stroke:none;stroke-width:0.352778"
       d="m 93.792407,109.34765 0.03721,0.15159 0.705555,-0.17226 -0.03721,-0.15296 z m 0,0"
       id="path1445" />
    <path
       style="fill:#ffde87;fill-opacity:1;fill-rule:nonzero;stroke:none;stroke-width:0.352778"
       d="m 93.446519,109.4455 0.04823,0.14882 -0.691776,0.22187 -0.04823,-0.14883 z m 0,0"
       id="path1447" />
    <path
       style="fill:#ffde87;fill-opacity:1;fill-rule:nonzero;stroke:none;stroke-width:0.352778"
       d="m 92.417124,109.78862 0.05926,0.14608 -0.675237,0.26872 -0.05926,-0.1447 z m 0,0"
       id="path1449" />
    <path
       style="fill:#ffde87;fill-opacity:1;fill-rule:nonzero;stroke:none;stroke-width:0.352778"
       d="m 91.409778,110.20342 0.06891,0.14193 -0.655948,0.31557 -0.06753,-0.14056 z m 0,0"
       id="path1451" />
    <path
       style="fill:#ffde87;fill-opacity:1;fill-rule:nonzero;stroke:none;stroke-width:0.352778"
       d="m 90.438263,110.68573 0.07855,0.13642 -0.63252,0.35967 -0.07717,-0.13642 z m 0,0"
       id="path1453" />
    <path
       style="fill:#ffde87;fill-opacity:1;fill-rule:nonzero;stroke:none;stroke-width:0.352778"
       d="m 89.502573,111.23419 0.08682,0.13091 -0.606337,0.40239 -0.08682,-0.13091 z m 0,0"
       id="path1455" />
    <path
       style="fill:#ffde87;fill-opacity:1;fill-rule:nonzero;stroke:none;stroke-width:0.352778"
       d="m 88.602715,111.84604 0.09508,0.1254 -0.576019,0.44235 -0.09508,-0.12402 z m 0,0"
       id="path1457" />
    <path
       style="fill:#ffde87;fill-opacity:1;fill-rule:nonzero;stroke:none;stroke-width:0.352778"
       d="m 87.749709,112.51852 0.103353,0.11713 -0.544326,0.48231 -0.104729,-0.1185 z m 0,0"
       id="path1459" />
    <path
       style="fill:#ffde87;fill-opacity:1;fill-rule:nonzero;stroke:none;stroke-width:0.352778"
       d="m 86.944934,113.24613 0.111623,0.11024 -0.509873,0.51676 -0.113002,-0.11024 z m 0,0"
       id="path1461" />
    <path
       style="fill:#ffde87;fill-opacity:1;fill-rule:nonzero;stroke:none;stroke-width:0.352778"
       d="m 86.192526,114.02609 0.118513,0.10336 -0.474046,0.54983 -0.118512,-0.10197 z m 0,0"
       id="path1463" />
    <path
       style="fill:#ffde87;fill-opacity:1;fill-rule:nonzero;stroke:none;stroke-width:0.352778"
       d="m 85.492485,114.8598 0.125398,0.0937 -0.435458,0.58154 -0.125402,-0.0937 z m 0,0"
       id="path1465" />
    <path
       style="fill:#ffde87;fill-opacity:1;fill-rule:nonzero;stroke:none;stroke-width:0.352778"
       d="m 84.851696,115.73624 0.130912,0.0854 -0.394116,0.61047 -0.130916,-0.0854 z m 0,0"
       id="path1467" />
    <path
       style="fill:#ffde87;fill-opacity:1;fill-rule:nonzero;stroke:none;stroke-width:0.352778"
       d="m 84.272918,116.65539 0.136426,0.0758 -0.351398,0.63666 -0.136426,-0.0758 z m 0,0"
       id="path1469" />
    <path
       style="fill:#ffde87;fill-opacity:1;fill-rule:nonzero;stroke:none;stroke-width:0.352778"
       d="m 83.757534,117.61175 0.141937,0.0675 -0.305925,0.6587 -0.143316,-0.0661 z m 0,0"
       id="path1471" />
    <path
       style="fill:#ffde87;fill-opacity:1;fill-rule:nonzero;stroke:none;stroke-width:0.352778"
       d="m 83.311048,118.60118 0.146071,0.0565 -0.260448,0.67799 -0.146072,-0.0551 z m 0,0"
       id="path1473" />
    <path
       style="fill:#ffde87;fill-opacity:1;fill-rule:nonzero;stroke:none;stroke-width:0.352778"
       d="m 82.933467,119.61955 0.148826,0.0455 -0.212217,0.6959 -0.150206,-0.0468 z m 0,0"
       id="path1475" />
    <path
       style="fill:#ffde87;fill-opacity:1;fill-rule:nonzero;stroke:none;stroke-width:0.352778"
       d="m 82.460801,121.37104 0.152961,0.0358 0.165364,-0.70831 -0.152961,-0.0358 z m 0,0"
       id="path1477" />
    <path
       style="fill:#ffde87;fill-opacity:1;fill-rule:nonzero;stroke:none;stroke-width:0.352778"
       d="m 82.277519,122.4404 0.15434,0.0248 0.115757,-0.71796 -0.15434,-0.0248 z m 0,0"
       id="path1479" />
    <path
       style="fill:#ffde87;fill-opacity:1;fill-rule:nonzero;stroke:none;stroke-width:0.352778"
       d="m 82.167276,123.52215 0.155719,0.0138 0.06615,-0.72347 -0.157095,-0.0152 z m 0,0"
       id="path1481" />
    <path
       style="fill:#ffde87;fill-opacity:1;fill-rule:nonzero;stroke:none;stroke-width:0.352778"
       d="m 98.458444,140.24189 0.0083,0.1571 0.726224,-0.04 -0.0096,-0.15709 z m 0,0"
       id="path1483" />
    <path
       style="fill:#ffde87;fill-opacity:1;fill-rule:nonzero;stroke:none;stroke-width:0.352778"
       d="m 99.530556,140.17023 0.0193,0.15572 0.722094,-0.0909 -0.0193,-0.15434 z m 0,0"
       id="path1485" />
    <path
       style="fill:#ffde87;fill-opacity:1;fill-rule:nonzero;stroke:none;stroke-width:0.352778"
       d="m 100.59716,140.02554 0.0303,0.15434 0.71383,-0.14056 -0.0303,-0.15296 z m 0,0"
       id="path1487" />
    <path
       style="fill:#ffde87;fill-opacity:1;fill-rule:nonzero;stroke:none;stroke-width:0.352778"
       d="m 101.64722,139.80781 0.0413,0.15158 0.70142,-0.18741 -0.04,-0.15159 z m 0,0"
       id="path1489" />
    <path
       style="fill:#ffde87;fill-opacity:1;fill-rule:nonzero;stroke:none;stroke-width:0.352778"
       d="m 102.73587,139.66587 -0.051,-0.14883 0.68902,-0.23564 0.0496,0.14883 z m 0,0"
       id="path1491" />
    <path
       style="fill:#ffde87;fill-opacity:1;fill-rule:nonzero;stroke:none;stroke-width:0.352778"
       d="m 103.75976,139.30069 -0.062,-0.14469 0.66973,-0.2825 0.0606,0.14332 z m 0,0"
       id="path1493" />
    <path
       style="fill:#ffde87;fill-opacity:1;fill-rule:nonzero;stroke:none;stroke-width:0.352778"
       d="m 104.75608,138.86523 -0.0703,-0.14056 0.64768,-0.32797 0.0717,0.13918 z m 0,0"
       id="path1495" />
    <path
       style="fill:#ffde87;fill-opacity:1;fill-rule:nonzero;stroke:none;stroke-width:0.352778"
       d="m 105.71795,138.36225 -0.0799,-0.13367 0.62426,-0.37345 0.0799,0.13505 z m 0,0"
       id="path1497" />
    <path
       style="fill:#ffde87;fill-opacity:1;fill-rule:nonzero;stroke:none;stroke-width:0.352778"
       d="m 106.64261,137.79587 -0.0896,-0.12815 0.59807,-0.41479 0.0896,0.12815 z m 0,0"
       id="path1499" />
    <path
       style="fill:#ffde87;fill-opacity:1;fill-rule:nonzero;stroke:none;stroke-width:0.352778"
       d="m 107.52869,137.16611 -0.0978,-0.12264 0.56637,-0.45476 0.0992,0.12127 z m 0,0"
       id="path1501" />
    <path
       style="fill:#ffde87;fill-opacity:1;fill-rule:nonzero;stroke:none;stroke-width:0.352778"
       d="m 108.36792,136.47709 -0.10611,-0.11576 0.53468,-0.49195 0.10611,0.11437 z m 0,0"
       id="path1503" />
    <path
       style="fill:#ffde87;fill-opacity:1;fill-rule:nonzero;stroke:none;stroke-width:0.352778"
       d="m 109.15891,135.73157 -0.113,-0.10886 0.50023,-0.52779 0.113,0.10886 z m 0,0"
       id="path1505" />
    <path
       style="fill:#ffde87;fill-opacity:1;fill-rule:nonzero;stroke:none;stroke-width:0.352778"
       d="m 109.89616,134.93506 -0.12127,-0.0992 0.46303,-0.56086 0.12126,0.0992 z m 0,0"
       id="path1507" />
    <path
       style="fill:#ffde87;fill-opacity:1;fill-rule:nonzero;stroke:none;stroke-width:0.352778"
       d="m 110.57691,134.09033 -0.12678,-0.0909 0.42306,-0.59118 0.12816,0.0909 z m 0,0"
       id="path1509" />
    <path
       style="fill:#ffde87;fill-opacity:1;fill-rule:nonzero;stroke:none;stroke-width:0.352778"
       d="m 111.19979,133.20012 -0.13368,-0.0827 0.38172,-0.61874 0.13367,0.0827 z m 0,0"
       id="path1511" />
    <path
       style="fill:#ffde87;fill-opacity:1;fill-rule:nonzero;stroke:none;stroke-width:0.352778"
       d="m 111.75927,132.27132 -0.13918,-0.073 0.33899,-0.64354 0.13918,0.073 z m 0,0"
       id="path1513" />
    <path
       style="fill:#ffde87;fill-opacity:1;fill-rule:nonzero;stroke:none;stroke-width:0.352778"
       d="m 112.25536,131.30256 -0.14469,-0.0634 0.29352,-0.6656 0.14332,0.0634 z m 0,0"
       id="path1515" />
    <path
       style="fill:#ffde87;fill-opacity:1;fill-rule:nonzero;stroke:none;stroke-width:0.352778"
       d="m 112.68255,130.30348 -0.14744,-0.0538 0.24666,-0.68488 0.14745,0.0537 z m 0,0"
       id="path1517" />
    <path
       style="fill:#ffde87;fill-opacity:1;fill-rule:nonzero;stroke:none;stroke-width:0.352778"
       d="m 112.88788,129.2355 0.15021,0.0427 0.19981,-0.70004 -0.15158,-0.0427 z m 0,0"
       id="path1519" />
    <path
       style="fill:#ffde87;fill-opacity:1;fill-rule:nonzero;stroke:none;stroke-width:0.352778"
       d="m 113.17038,128.19646 0.15434,0.0331 0.14883,-0.71244 -0.15296,-0.0317 z m 0,0"
       id="path1521" />
    <path
       style="fill:#ffde87;fill-opacity:1;fill-rule:nonzero;stroke:none;stroke-width:0.352778"
       d="m 113.37984,127.14364 0.15572,0.0207 0.1006,-0.71933 -0.15572,-0.0221 z m 0,0"
       id="path1523" />
    <path
       style="fill:#ffde87;fill-opacity:1;fill-rule:nonzero;stroke:none;stroke-width:0.352778"
       d="m 113.51627,126.07704 0.15709,0.011 0.051,-0.72485 -0.15709,-0.011 z m 0,0"
       id="path1525" />
  </g>
</svg>
