<?xml version="1.0" encoding="UTF-8" standalone="no"?>
<!-- Created with Inkscape (http://www.inkscape.org/) -->

<svg
   xmlns:dc="http://purl.org/dc/elements/1.1/"
   xmlns:cc="http://creativecommons.org/ns#"
   xmlns:rdf="http://www.w3.org/1999/02/22-rdf-syntax-ns#"
   xmlns:svg="http://www.w3.org/2000/svg"
   xmlns="http://www.w3.org/2000/svg"
   xmlns:sodipodi="http://sodipodi.sourceforge.net/DTD/sodipodi-0.dtd"
   xmlns:inkscape="http://www.inkscape.org/namespaces/inkscape"
   viewBox="0 0 996.53674 252.03804"
   version="1.1"
   id="svg8"
   inkscape:version="0.92.2 (5c3e80d, 2017-08-06)"
   sodipodi:docname="Divia.svg">
  <defs
     id="defs2">
    <pattern
       y="0"
       x="0"
       height="6"
       width="6"
       patternUnits="userSpaceOnUse"
       id="EMFhbasepattern" />
  </defs>
  <sodipodi:namedview
     id="base"
     pagecolor="#ffffff"
     bordercolor="#666666"
     borderopacity="1.0"
     inkscape:pageopacity="0.0"
     inkscape:pageshadow="2"
     inkscape:zoom="0.40945559"
     inkscape:cx="2348.3808"
     inkscape:cy="491.76009"
     inkscape:document-units="mm"
     inkscape:current-layer="layer1"
     showgrid="false"
     inkscape:measure-start="0,0"
     inkscape:measure-end="0,0"
     fit-margin-top="0"
     fit-margin-left="0"
     fit-margin-right="0"
     fit-margin-bottom="0"
     inkscape:window-width="1366"
     inkscape:window-height="705"
     inkscape:window-x="-8"
     inkscape:window-y="-8"
     inkscape:window-maximized="1" />
  <metadata
     id="metadata5">
    <rdf:RDF>
      <cc:Work
         rdf:about="">
        <dc:format>image/svg+xml</dc:format>
        <dc:type
           rdf:resource="http://purl.org/dc/dcmitype/StillImage" />
        <dc:title></dc:title>
      </cc:Work>
    </rdf:RDF>
  </metadata>
  <g
     inkscape:label="Calque 1"
     inkscape:groupmode="layer"
     id="layer1"
     transform="translate(-25.310674,289.99958)">
    <path
       id="path19"
       d="m 371.97869,-272.88224 c -4.72176,77.91341 -33.93956,103.29427 -46.3346,110.67243 -12.1004,-7.08304 -41.3179,-32.4639 -46.3349,-110.67243 0,0 -11.80516,-4.13179 -21.24929,-2.95121 -10.32924,0.88542 -18.59301,5.31228 -18.59301,5.31228 3.24646,52.53251 17.11741,92.96483 40.72742,120.70673 19.18349,22.72473 38.36669,28.33213 40.43248,28.9224 l 5.0173,1.47561 5.31225,-1.47561 c 2.0667,-0.59018 21.24898,-6.19767 40.43217,-28.9224 23.61032,-27.7419 37.48126,-68.17422 40.72741,-120.70673 0,0 -8.85364,-4.1318 -18.59301,-5.31228 -10.0343,-1.18067 -21.54422,2.95121 -21.54422,2.95121 z"
       style="fill:#1c1c21;fill-opacity:1;fill-rule:evenodd;stroke:none;stroke-width:8.05323696"
       inkscape:connector-curvature="0" />
    <path
       id="path21"
       d="m 510.09798,-132.99228 c 4.72206,-78.20853 33.93956,-103.58942 46.3349,-110.96758 12.1001,7.37816 41.61284,32.75905 46.63015,110.96758 0,0 11.80485,4.13179 21.24898,3.24639 10.32955,-1.47561 18.59301,-5.90252 18.59301,-5.90252 -3.24646,-52.23742 -17.11741,-92.96486 -40.72742,-120.70676 -19.18319,-22.42962 -38.66162,-28.03701 -40.72741,-28.62726 l -5.01731,-1.18036 -5.31225,1.18036 c -2.0667,0.59019 -21.24928,6.19764 -40.43247,28.62726 -23.61001,27.7419 -37.18572,68.46934 -40.43217,120.70676 0,0 8.5587,5.01716 18.29776,6.49279 10.03431,0.88543 21.54423,-3.83666 21.54423,-3.83666 z"
       style="fill:#1c1c21;fill-opacity:1;fill-rule:evenodd;stroke:none;stroke-width:8.05323696"
       inkscape:connector-curvature="0" />
    <path
       id="path23"
       d="m 190.47602,-270.52124 v 135.16795 c 0,0 7.67328,5.31228 20.36355,5.31228 11.80516,0 19.77368,-5.31228 19.77368,-5.31228 v -135.16795 c 0,0 -8.85394,-5.31227 -20.36386,-5.31227 -11.21467,0 -19.77337,5.31227 -19.77337,5.31227 z"
       style="fill:#1c1c21;fill-opacity:1;fill-rule:evenodd;stroke:none;stroke-width:8.05323696"
       inkscape:connector-curvature="0" />
    <path
       id="path25"
       d="m 420.96987,-270.52124 v 135.16795 c 0,0 7.37803,5.31228 20.36355,5.31228 11.80516,0 19.77368,-5.31228 19.77368,-5.31228 v -135.16795 c 0,0 -8.85394,-5.31227 -20.36386,-5.31227 -11.50991,0 -19.77337,5.31227 -19.77337,5.31227 z"
       style="fill:#1c1c21;fill-opacity:1;fill-rule:evenodd;stroke:none;stroke-width:8.05323696"
       inkscape:connector-curvature="0" />
    <path
       id="path27"
       d="m 152.40457,-249.27213 c -27.74189,-23.61011 -68.469304,-37.48105 -121.001878,-40.72745 0,0 -5.017002,8.55867 -5.902427,18.8881 -1.180972,9.73916 3.541395,21.2491 3.541395,21.2491 78.20868,4.72204 103.58954,33.93954 110.96757,46.33485 -7.08279,12.10018 -32.46395,41.31772 -110.96757,46.33487 0,0 -4.131577,11.80507 -2.952431,21.24913 0.88573,10.3294 5.312246,18.59295 5.312246,18.59295 52.532573,-3.24639 93.259985,-17.11734 121.001885,-40.72744 22.42965,-19.18323 28.03713,-38.36645 28.62732,-40.43236 l 1.47621,-5.01715 -1.47621,-5.31228 c -0.59049,-2.06579 -6.19767,-21.2491 -28.62732,-40.43232 z"
       style="fill:#1c1c21;fill-opacity:1;fill-rule:evenodd;stroke:none;stroke-width:8.05323696"
       inkscape:connector-curvature="0" />
    <path
       id="path29"
       d="m 543.7423,-201.46162 h 3.24645 c 0,0 -0.30437,1.18066 0.59049,1.18066 0.88573,0 2.65719,-0.59018 2.65719,-0.59018 0,0 13.87094,1.77085 24.79068,2.36103 10.91973,0.59019 18.00283,-0.59018 23.90525,-1.4756 75.25716,-9.73919 136.64368,-27.7419 136.64368,-27.7419 0,0 -5.0173,3.2464 -5.60749,3.2464 -0.88573,0 -1.18097,0.88542 -2.0667,1.18036 -0.59048,0 -7.67327,3.2464 -8.5587,3.54152 -1.18097,0 -5.017,1.77085 -5.017,1.77085 l -3.83664,2.95121 c 0,0 -2.65719,0 -3.5417,0.29525 -1.47622,0.29524 -0.88573,1.77085 -0.88573,1.77085 0,0 -3.24646,0.29524 -4.13158,1.18066 -1.18097,0.59019 -2.36194,1.77085 -2.36194,1.77085 0,0 -0.88573,0 -2.0667,0.59019 -0.88573,0.59018 -2.36195,1.4756 -2.36195,1.4756 0,0 -1.18097,-0.29524 -2.0667,0.29525 -0.59049,0.59018 -0.59049,0.88542 -0.59049,0.88542 0,0 0.30438,0.29524 1.47622,0.29524 0.88573,-0.29524 -2.36194,0.88543 -4.13188,0.88543 -1.18097,0 -2.65719,1.77085 -3.24646,1.77085 -0.88573,0 -2.36194,0.29524 -2.95243,0.88542 -0.88573,0.59019 -1.18097,1.47561 -1.18097,1.47561 0,0 2.36194,0 2.95243,-0.59018 0.88573,-0.29524 -1.47622,1.47561 -2.36194,1.47561 -0.88573,0 0,0.59018 -1.18098,0.88542 -0.88573,0 -2.36194,1.18036 -2.65719,1.77085 -0.30437,1.18067 -3.54139,0.29524 -4.42682,0.88543 -0.88572,0.29524 -1.18097,0.88542 -2.0667,0.88542 -0.88573,0.29524 -4.42682,0.59018 -5.0173,0.88542 -2.06671,0.59019 1.47621,1.18067 0.88573,1.47561 -0.59049,0.29524 -5.60719,1.77085 -7.08279,2.65597 -1.18098,0.59018 -2.65719,1.18067 -2.65719,1.18067 0,0 -0.59049,-0.59018 -1.18097,-0.29524 -0.59049,0.29524 0.30437,0.88542 -0.88573,1.18036 -1.18098,0.29524 -8.55871,2.95121 -9.73937,2.95121 -0.88573,0 -2.65719,0 -2.65719,0 0,0 -3.24646,0.29525 -3.5414,0.88543 0,0.59018 -5.90273,2.36103 -6.49291,2.65597 -0.88573,0.59018 -5.60749,3.83664 -6.49261,3.54152 -0.88573,0 -1.47621,0.88542 -1.47621,0.88542 l -3.5417,0.88543 c 0,0 -1.77146,1.4756 -2.36195,2.06578 -0.88573,0.29525 -2.65719,0 -2.95243,0.59019 0,0.59018 -0.30437,1.4756 -0.88573,1.77085 -0.59049,0.59018 -1.77146,0.29524 -2.36194,0.59018 -0.88573,0 0.30437,1.18067 -0.88573,1.4756 -1.47622,0.29525 -20.6588,3.2464 -24.49544,2.36104 -3.83664,-0.88543 -14.16619,0 -28.03714,-6.78792 -8.85364,-3.83663 -16.82216,-24.49549 -16.82216,-24.49549 z m 117.46048,7.96839 c 1.77146,-0.29524 4.13189,-1.4756 4.13189,-0.88542 0.30437,0.88542 -1.47622,1.18067 -2.95244,1.47561 -1.47621,0.59018 -3.5417,0.88542 -3.5417,0.88542 0,0 0.59049,-1.18067 2.36195,-1.47561 z"
       style="fill:#d7058d;fill-opacity:1;fill-rule:evenodd;stroke:none;stroke-width:8.05323696"
       inkscape:connector-curvature="0" />
    <path
       id="path31"
       d="M 532.23238,-40.027417 V -119.41646 H 514.5248 c 0,0 -9.44383,23.019892 -21.54423,39.25184 -12.39534,15.936827 -27.1514,28.627258 -27.1514,28.627258 0,0 -14.46144,-12.690431 -26.85678,-28.627258 -12.39503,-16.231948 -21.83916,-39.25184 -21.83916,-39.25184 h -17.70758 v 79.389043 h 11.21467 v -69.649853 h 0.30437 c 0,0 5.31225,15.936825 18.00283,33.054167 12.69028,16.822191 36.89078,38.661566 36.89078,38.661566 0,0 24.49543,-21.839375 36.89077,-38.661566 12.69028,-17.117342 18.00253,-33.054167 18.00253,-33.054167 v 69.649853 z"
       style="fill:#5d5153;fill-opacity:1;fill-rule:evenodd;stroke:none;stroke-width:8.05323696"
       inkscape:connector-curvature="0" />
    <path
       id="path33"
       d="m 612.50685,-73.376707 c 0,-12.690461 -7.96822,-15.346584 -18.88795,-15.346584 h -18.88825 c -10.62449,0 -18.29777,2.656275 -18.29777,15.346584 v 11.214794 c 0,12.985552 7.67328,15.346584 18.29777,15.346584 h 18.88825 c 10.91973,0 18.88795,-2.361032 18.88795,-15.346584 z M 547.284,-73.966889 c 0,-18.002737 12.69028,-22.134496 30.39786,-22.134496 h 13.28077 c 17.70758,0 30.6931,4.131759 30.6931,22.134496 v 12.100158 c 0,18.59298 -12.98552,22.724739 -30.6931,22.724739 h -13.28077 c -17.70758,0 -30.39786,-4.131759 -30.39786,-22.724739 z"
       style="fill:#5d5153;fill-opacity:1;fill-rule:evenodd;stroke:none;stroke-width:8.05323696"
       inkscape:connector-curvature="0" />
    <path
       id="path35"
       d="m 695.73253,-73.376707 c 0,-12.690461 -6.49261,-15.051463 -19.18319,-15.051463 H 664.154 c -12.69028,0 -20.36356,2.361032 -20.36356,15.346584 v 10.624551 c 0,10.034278 4.42682,15.641706 18.29777,15.641706 h 15.05131 c 15.34655,0 18.59301,-5.017154 18.59301,-15.641706 z m -61.38621,-45.154353 h 9.44412 v 30.693133 h 0.30438 c 2.0667,-5.902518 7.08279,-8.26355 17.70758,-8.26355 h 14.16589 c 22.13471,0 28.92256,6.19767 28.92256,23.905255 v 9.739187 c 0,19.183223 -11.80516,23.314982 -28.62732,23.314982 h -12.69058 c -9.73907,0 -17.41235,-2.951213 -20.06862,-9.444035 h -0.59049 v 8.558671 h -8.55839 z"
       style="fill:#5d5153;fill-opacity:1;fill-rule:evenodd;stroke:none;stroke-width:8.05323696"
       inkscape:connector-curvature="0" />
    <path
       id="path37"
       d="m 721.11339,-95.216082 h 9.44413 v 55.188665 h -9.44413 z m 0,-23.314978 h 9.44413 v 10.32943 h -9.44413 z"
       style="fill:#5d5153;fill-opacity:1;fill-rule:evenodd;stroke:none;stroke-width:8.05323696"
       inkscape:connector-curvature="0" />
    <path
       id="path39"
       d="m 750.33089,-118.53106 h 9.44413 v 78.503643 h -9.44413 z"
       style="fill:#5d5153;fill-opacity:1;fill-rule:evenodd;stroke:none;stroke-width:8.05323696"
       inkscape:connector-curvature="0" />
    <path
       id="path41"
       d="m 779.54839,-95.216082 h 9.73937 v 55.188665 h -9.73937 z m 0,-23.314978 h 9.73937 v 10.32943 h -9.73937 z"
       style="fill:#5d5153;fill-opacity:1;fill-rule:evenodd;stroke:none;stroke-width:8.05323696"
       inkscape:connector-curvature="0" />
    <path
       id="path43"
       d="m 812.60283,-87.837927 h -12.1004 v -7.378155 h 12.1004 v -13.280708 h 9.44383 v 13.280708 h 37.18602 v 7.378155 h -37.18602 v 27.446772 c 0,10.624551 3.5417,13.575826 13.576,13.575826 h 2.95244 c 12.69027,0 14.46112,-2.361032 14.46112,-14.166068 v -4.131791 h 7.67328 v 5.902519 c 0,11.214824 -1.18097,20.068616 -21.54422,20.068616 h -5.01731 c -17.41234,0 -21.54422,-8.558671 -21.54422,-17.707585 z"
       style="fill:#5d5153;fill-opacity:1;fill-rule:evenodd;stroke:none;stroke-width:8.05323696"
       inkscape:connector-curvature="0" />
    <path
       id="path45"
       d="m 911.17507,-123.84334 h 11.21467 l -19.77337,20.06859 h -7.37834 z m 19.47813,46.334843 c 0,-5.607397 -4.13158,-11.214794 -19.47813,-11.214794 h -13.57601 c -14.75637,0 -18.29777,2.361032 -19.18319,15.051432 h 52.23733 z m -61.38621,3.541517 c 0,-20.068586 13.87094,-22.134497 26.85646,-22.134497 h 15.05162 c 16.82216,0 28.92226,4.13179 28.92226,23.610134 v 6.492791 h -61.68146 v 3.541517 c 0,12.39531 6.19767,15.641706 22.42965,15.641706 h 12.69058 c 11.80485,0 16.82216,-1.475607 17.1171,-9.739187 h 9.44413 v 0.885425 c 0,12.690431 -10.62449,16.527069 -28.03714,16.527069 h -16.82216 c -12.1001,0 -25.97104,-2.361032 -25.97104,-22.429588 z"
       style="fill:#5d5153;fill-opacity:1;fill-rule:evenodd;stroke:none;stroke-width:8.05323696"
       inkscape:connector-curvature="0" />
    <path
       id="path47"
       d="m 952.19773,-59.210669 h 8.55839 v 2.656274 c 0,7.083034 3.83664,9.739187 13.28077,9.739187 h 20.06862 c 13.87099,0 18.29779,-0.295243 18.29779,-8.853792 v -0.590182 c 0,-5.312245 -1.4762,-7.968398 -12.69031,-7.968398 h -28.92256 c -12.98552,0 -17.70758,-4.426911 -17.70758,-14.756341 V -82.2305 c 0,-9.148944 5.0173,-13.870977 28.03713,-13.870977 h 14.46113 c 20.95409,0 23.90529,5.902549 23.90529,13.575826 v 2.951213 h -8.8537 v -0.590182 c 0,-8.263519 -5.6075,-8.55864 -15.64177,-8.55864 h -16.23198 c -13.5757,0 -16.52722,1.475606 -16.52722,7.673276 v 2.065789 c 0,4.426911 1.47622,7.083034 11.21498,7.083034 h 24.79068 c 13.87091,0 23.61001,1.475607 23.61001,16.231978 v 0.295243 c 0,15.641706 -14.4611,16.231948 -25.67611,16.231948 H 979.0542 c -13.87095,0 -26.85647,0 -26.85647,-16.822221 z"
       style="fill:#5d5153;fill-opacity:1;fill-rule:evenodd;stroke:none;stroke-width:8.05323696"
       inkscape:connector-curvature="0" />
  </g>
</svg>
