<svg id="Calque_1" data-name="Calque 1" xmlns="http://www.w3.org/2000/svg" viewBox="0 0 109.45 37.98"><defs><style>.cls-1{fill:#b93c23;}.cls-2{fill:#a6be18;}.cls-3{fill:#009dbd;}.cls-4{fill:#574254;}.cls-5{fill:#db911f;}.cls-6{fill:#436473;}.cls-7{fill:#fff;}</style></defs><path class="cls-1" d="M261.29,193h-6.91v4.43h5.78a1.76,1.76,0,0,1,1.2.36,1.24,1.24,0,0,1,.39,1,1.19,1.19,0,0,1-.4,1,1.73,1.73,0,0,1-1.19.36h-5.78v5.7a2.29,2.29,0,0,1-.49,1.62,1.79,1.79,0,0,1-2.53,0,2.28,2.28,0,0,1-.49-1.61V192.42a2.92,2.92,0,0,1,.23-1.24,1.37,1.37,0,0,1,.7-.7,3.06,3.06,0,0,1,1.22-.22h8.27a1.8,1.8,0,0,1,1.25.38,1.25,1.25,0,0,1,.41,1,1.29,1.29,0,0,1-.41,1,1.8,1.8,0,0,1-1.25.37" transform="translate(-250.87 -177.23)"/><path class="cls-2" d="M268,205.74V192.1a2.34,2.34,0,0,1,.48-1.6,1.62,1.62,0,0,1,1.25-.53,1.66,1.66,0,0,1,1.29.53,2.3,2.3,0,0,1,.49,1.6v13.64a2.33,2.33,0,0,1-.49,1.61,1.7,1.7,0,0,1-1.29.53,1.59,1.59,0,0,1-1.24-.54,2.27,2.27,0,0,1-.49-1.6" transform="translate(-250.87 -177.23)"/><path class="cls-3" d="M292.45,202.12a4.69,4.69,0,0,1-.41,1.79,6.52,6.52,0,0,1-1.28,1.89,6.62,6.62,0,0,1-2.24,1.5,7.92,7.92,0,0,1-3.16.58,11.29,11.29,0,0,1-2.5-.26,6.7,6.7,0,0,1-3.72-2.25,8.65,8.65,0,0,1-1.17-1.83,10,10,0,0,1-.73-2.16A11.78,11.78,0,0,1,277,199a10.73,10.73,0,0,1,.61-3.75,8.22,8.22,0,0,1,1.74-2.83,7.76,7.76,0,0,1,2.66-1.79,8.62,8.62,0,0,1,3.25-.61,8.15,8.15,0,0,1,3.75.84,6.8,6.8,0,0,1,2.51,2.07,4,4,0,0,1,.88,2.33,1.5,1.5,0,0,1-.43,1.07,1.33,1.33,0,0,1-1,.46,1.46,1.46,0,0,1-1-.32,4.62,4.62,0,0,1-.75-1.1,5.12,5.12,0,0,0-1.61-1.92,3.91,3.91,0,0,0-2.29-.64,4.13,4.13,0,0,0-3.44,1.64,7.46,7.46,0,0,0-1.28,4.67,8.66,8.66,0,0,0,.57,3.36,4.21,4.21,0,0,0,1.6,2,4.48,4.48,0,0,0,2.44.66,4.28,4.28,0,0,0,2.56-.75,4.52,4.52,0,0,0,1.57-2.2,3.78,3.78,0,0,1,.56-1.12,1.27,1.27,0,0,1,1.06-.43A1.5,1.5,0,0,1,292,201a1.45,1.45,0,0,1,.45,1.09" transform="translate(-250.87 -177.23)"/><path class="cls-4" d="M298,205.74V192.1a2.29,2.29,0,0,1,.49-1.6,1.77,1.77,0,0,1,2.53,0,2.25,2.25,0,0,1,.49,1.6v13.64a2.28,2.28,0,0,1-.49,1.61,1.67,1.67,0,0,1-1.28.53,1.61,1.61,0,0,1-1.25-.54,2.27,2.27,0,0,1-.49-1.6" transform="translate(-250.87 -177.23)"/><path class="cls-1" d="M315.13,207.59h-5.3a2.14,2.14,0,0,1-1.63-.52,2.27,2.27,0,0,1-.49-1.63v-13a2.23,2.23,0,0,1,.5-1.65,2.18,2.18,0,0,1,1.62-.51h5.62a13.39,13.39,0,0,1,2.15.16,4.6,4.6,0,0,1,1.63.59,4,4,0,0,1,1.08.93,3.77,3.77,0,0,1,.72,1.24,4,4,0,0,1,.25,1.43,4,4,0,0,1-2.6,3.81q3.42,1.08,3.42,4.23a4.69,4.69,0,0,1-.75,2.61,4.38,4.38,0,0,1-2,1.72,7,7,0,0,1-1.81.47,18.7,18.7,0,0,1-2.4.14m-3.91-14.69v4.48h3.21a6.67,6.67,0,0,0,2-.25,2,2,0,0,0,1.09-.95,2.09,2.09,0,0,0,.29-1.11,1.73,1.73,0,0,0-.93-1.74,7.08,7.08,0,0,0-2.85-.43Zm3.65,7h-3.65V205H315c2.38,0,3.56-.85,3.56-2.56a2.08,2.08,0,0,0-.92-1.9,5.08,5.08,0,0,0-2.75-.6" transform="translate(-250.87 -177.23)"/><path class="cls-5" d="M326.51,200.43V192.1a2.32,2.32,0,0,1,.48-1.6,1.63,1.63,0,0,1,1.26-.53,1.67,1.67,0,0,1,1.3.53,2.37,2.37,0,0,1,.47,1.6v8.51a7.67,7.67,0,0,0,.33,2.43,2.85,2.85,0,0,0,1.15,1.52,4.31,4.31,0,0,0,2.32.53,3.44,3.44,0,0,0,2.9-1.09,5.33,5.33,0,0,0,.85-3.31V192.1a2.33,2.33,0,0,1,.48-1.61,1.59,1.59,0,0,1,1.26-.52,1.65,1.65,0,0,1,1.28.52,2.28,2.28,0,0,1,.49,1.61v8.33a12.54,12.54,0,0,1-.39,3.39,5.22,5.22,0,0,1-1.5,2.38,5.76,5.76,0,0,1-2.19,1.28,9.63,9.63,0,0,1-2.94.4,11.94,11.94,0,0,1-3.43-.43,5.42,5.42,0,0,1-2.35-1.34,5.29,5.29,0,0,1-1.34-2.31,11.9,11.9,0,0,1-.43-3.37" transform="translate(-250.87 -177.23)"/><path class="cls-6" d="M360.32,202.39a5.06,5.06,0,0,1-.81,2.82,5.33,5.33,0,0,1-2.37,2,8.76,8.76,0,0,1-3.7.71,8.28,8.28,0,0,1-4.23-1,5.51,5.51,0,0,1-1.92-1.86,4.23,4.23,0,0,1-.74-2.26,1.54,1.54,0,0,1,1.57-1.55,1.31,1.31,0,0,1,.94.36,2.64,2.64,0,0,1,.66,1.05,7.35,7.35,0,0,0,.71,1.38,3,3,0,0,0,1.08.92,4,4,0,0,0,1.84.36,4.15,4.15,0,0,0,2.53-.73,2.19,2.19,0,0,0,1-1.81,1.9,1.9,0,0,0-.53-1.4,3.37,3.37,0,0,0-1.36-.83c-.55-.18-1.3-.39-2.23-.6a16.31,16.31,0,0,1-3.12-1,5,5,0,0,1-2-1.6,4.15,4.15,0,0,1-.74-2.51,4.32,4.32,0,0,1,.78-2.54,4.84,4.84,0,0,1,2.26-1.7,9.16,9.16,0,0,1,3.47-.6,8.66,8.66,0,0,1,2.76.39,5.83,5.83,0,0,1,1.93,1.06,4.27,4.27,0,0,1,1.13,1.37,3.26,3.26,0,0,1,.35,1.41,1.69,1.69,0,0,1-.44,1.13,1.45,1.45,0,0,1-1.11.5,1.26,1.26,0,0,1-.91-.3,3.87,3.87,0,0,1-.68-1,4.64,4.64,0,0,0-1.14-1.53,3.34,3.34,0,0,0-2.12-.55,3.7,3.7,0,0,0-2.2.6,1.75,1.75,0,0,0-.83,1.43,1.45,1.45,0,0,0,.29.9,2.22,2.22,0,0,0,.78.65,5.11,5.11,0,0,0,1,.43l1.68.45c1,.23,1.86.48,2.65.75a7.94,7.94,0,0,1,2,1,4.05,4.05,0,0,1,1.3,1.49,4.8,4.8,0,0,1,.47,2.22" transform="translate(-250.87 -177.23)"/><path class="cls-6" d="M269.5,185.47a1.31,1.31,0,0,0-1.8-.46l-.13.07,0,0-.1.08-.11.09-.14.1-.16.11-.11.08-.16.09-.16.1-.14.07-.14.08-.17.08L266,186l-.16.07-.15.06-.12.05-.12.05-.32.12-.47.15-.75.23-.66.19-.55.16a3.51,3.51,0,0,0-.42.16.48.48,0,0,0-.14.09.76.76,0,0,0-.1.13l-.05.13a.74.74,0,0,0,0,.26.37.37,0,0,0,.07.18.87.87,0,0,0,.2.16,1.58,1.58,0,0,0,.26.13l.27.09a1.36,1.36,0,0,0,.29,0,1.49,1.49,0,0,0,.24,0l.3,0,.46-.05c.42,0,.83-.1,1.21-.17s.84-.18,1.53-.34,1.37-.37,2.12-.6l.11,0a1.31,1.31,0,0,0,.45-1.78" transform="translate(-250.87 -177.23)"/><path class="cls-6" d="M269.88,184.49a1.33,1.33,0,0,0,1.55-1l0-.15v0s0-.08,0-.12a.66.66,0,0,1,0-.15s0-.13,0-.18,0-.14,0-.19a.69.69,0,0,1,0-.13c0-.05,0-.13,0-.18s0-.12,0-.18,0-.12,0-.16l0-.15.05-.18a1.27,1.27,0,0,1,0-.14,1.77,1.77,0,0,1,.06-.17l.05-.15a.56.56,0,0,0,0-.12A1.06,1.06,0,0,0,272,181c0-.06.1-.25.13-.32l.2-.45c.05-.12.31-.67.34-.71s.27-.57.3-.62.17-.35.24-.51a2.77,2.77,0,0,0,.17-.42.47.47,0,0,0,0-.17.28.28,0,0,0,0-.15s0,0-.06-.13a1,1,0,0,0-.17-.2.38.38,0,0,0-.18-.06.61.61,0,0,0-.25,0l-.27.11-.25.14c-.07.05-.15.13-.22.19l-.15.19-.18.25-.27.37c-.25.34-.48.69-.69,1s-.43.74-.77,1.36-.65,1.27-1,2l-.06.1a1.33,1.33,0,0,0,1,1.53" transform="translate(-250.87 -177.23)"/><path class="cls-6" d="M270.91,185.55a1.31,1.31,0,0,0,.31,1.83l.13.1h0l.11,0,.13.07.15.08.17.1.11.07.15.11.15.1.13.1.13.1.14.12a1.2,1.2,0,0,1,.11.1l.13.11.12.11.09.09.09.09.24.25.34.37c.09.09.48.55.51.59l.44.52.37.43c.12.14.28.29.32.33a.54.54,0,0,0,.15.09.49.49,0,0,0,.15,0h.14a.59.59,0,0,0,.25-.09.24.24,0,0,0,.13-.13.68.68,0,0,0,.07-.25,2.81,2.81,0,0,0,0-.29,1.58,1.58,0,0,0,0-.28,1.8,1.8,0,0,0-.09-.28,1,1,0,0,0-.11-.21s-.14-.25-.15-.27l-.23-.4c-.21-.36-.44-.71-.65-1s-.51-.7-.93-1.25-.9-1.11-1.41-1.7l-.08-.09a1.32,1.32,0,0,0-1.81.32" transform="translate(-250.87 -177.23)"/><path class="cls-6" d="M357.55,215.21H310.23a2.52,2.52,0,0,1,0-5h47.32a2.52,2.52,0,1,1,0,5" transform="translate(-250.87 -177.23)"/><path class="cls-7" d="M337.64,212.7a.93.93,0,1,1,.93.93.93.93,0,0,1-.93-.93" transform="translate(-250.87 -177.23)"/><line class="cls-7" x1="58.58" y1="35.47" x2="106.45" y2="35.47"/><rect class="cls-7" x="58.58" y="35.28" width="47.87" height="0.39"/><path class="cls-7" d="M355.2,212.7a2,2,0,1,1,2,2,2,2,0,0,1-2-2" transform="translate(-250.87 -177.23)"/><path class="cls-7" d="M308.66,212.7a2,2,0,1,1,2,2,2,2,0,0,1-2-2" transform="translate(-250.87 -177.23)"/><path class="cls-7" d="M328.28,212.7a.93.93,0,1,1,.93.93.93.93,0,0,1-.93-.93" transform="translate(-250.87 -177.23)"/><path class="cls-7" d="M318.92,212.7a.93.93,0,1,1,1.86,0,.93.93,0,1,1-1.86,0" transform="translate(-250.87 -177.23)"/><path class="cls-7" d="M347,212.7a.93.93,0,1,1,.93.93.93.93,0,0,1-.93-.93" transform="translate(-250.87 -177.23)"/></svg>