<?xml version="1.0" encoding="utf-8"?>
<!-- Generator: Adobe Illustrator 16.0.0, SVG Export Plug-In . SVG Version: 6.00 Build 0)  -->
<!DOCTYPE svg PUBLIC "-//W3C//DTD SVG 1.1//EN" "http://www.w3.org/Graphics/SVG/1.1/DTD/svg11.dtd">
<svg version="1.1" id="Calque_1" xmlns="http://www.w3.org/2000/svg" xmlns:xlink="http://www.w3.org/1999/xlink" x="0px" y="0px"
	 viewBox="0 0 132.038 132.037" enable-background="new 0 0 132.038 132.037"
	 xml:space="preserve">
<g>
	<defs>
		<rect id="SVGID_1_" x="0.833" y="0.833" width="130.372" height="130.372"/>
	</defs>
	<clipPath id="SVGID_2_">
		<use xlink:href="#SVGID_1_"  overflow="visible"/>
	</clipPath>
	<path clip-path="url(#SVGID_2_)" fill="#EB0F2D" d="M57.797,59.76c0,4.234,2.638,6.115,6.449,6.115
		c3.752,0,6.451-1.881,6.451-6.115c0-4.235-2.639-6.118-6.451-6.118C60.495,53.642,57.797,55.524,57.797,59.76"/>
	<path clip-path="url(#SVGID_2_)" fill="#EB0F2D" d="M79.743,61.369c0-8.272,5.184-11.914,12.141-11.914
		c6.959,0,12.141,3.642,12.141,11.914c0,8.274-5.182,11.918-12.141,11.918C84.926,73.287,79.743,69.643,79.743,61.369
		 M78.027,54.465h-3.692c0.996,1.352,1.642,3.001,1.642,5.295c0,7.174-5.279,10.292-11.729,10.292c-1.641,0-3.225-0.177-4.633-0.59
		c-0.527,0.532-0.939,1.178-0.939,2c0,1.588,1.177,2.003,2.757,2.118l6.512,0.529c5.688,0.47,9.498,2.53,9.498,8.472
		c0,6.468-5.806,9.233-12.959,9.233s-12.257-2.411-12.257-8.409c0-3.295,1.643-5.236,3.637-6.649
		c-1.115-0.881-1.878-2.177-1.878-3.998c0-2.178,1.115-3.647,2.522-4.766c-2.461-1.646-3.988-4.351-3.988-8.232
		c0-7.177,5.279-10.294,11.729-10.294c1.525,0,2.935,0.234,4.223,0.588h9.558V54.465z M45.172,46.494
		c-1.723,0-3.157-1.434-3.157-3.159c0-1.722,1.435-3.111,3.157-3.111s3.109,1.389,3.109,3.111
		C48.282,45.06,46.895,46.494,45.172,46.494 M47.901,73.27h-5.503V49.815h5.503V73.27z M107.318,66.911
		c-0.096-5.722,3.461-9.379,9.065-9.065h3.029l-0.009-0.008c-0.955-0.956-0.955-2.507,0-3.465c0.958-0.957,2.509-0.957,3.466,0
		l4.182,4.18c0.479,0.482,0.717,1.113,0.716,1.741c0.001,0.631-0.237,1.263-0.716,1.744l-4.182,4.181
		c-0.479,0.477-1.105,0.716-1.734,0.716c-0.625,0-1.254-0.239-1.731-0.716c-0.955-0.958-0.955-2.51,0-3.466l0.007-0.006h-3.027
		c-2.295,0-4.164,1.865-4.164,4.164v11.071h-4.901V66.911z M37.28,55.13c-0.381-0.048-1.003-0.145-1.385-0.145
		c-2.008,0-3.779,1.292-5.789,4.068V73.27h-5.5V49.815h5.311v3.349c1.529-2.2,3.157-3.735,5.882-3.735
		c0.86,0,1.625,0.147,2.054,0.241L37.28,55.13z M15.403,46.494c-1.719,0-3.157-1.434-3.157-3.159c0-1.722,1.438-3.111,3.157-3.111
		c1.722,0,3.11,1.389,3.11,3.111C18.513,45.06,17.125,46.494,15.403,46.494 M18.13,73.27h-5.5V49.815h5.5V73.27z M112.351,84.447
		v2.255c0,1.354-1.095,2.451-2.45,2.451c-1.354,0-2.451-1.097-2.451-2.451v-2.255h-8.65c-4.998,0-9.064-4.066-9.064-9.063h4.9
		c0,2.295,1.867,4.165,4.164,4.165h30.996c0.922-4.365,1.41-8.891,1.41-13.53c0-36.002-29.185-65.187-65.186-65.187
		c-36.002,0-65.187,29.185-65.187,65.187c0,3.373,0.256,6.686,0.75,9.922l36.972,0.002c4.998,0,9.064,4.068,9.064,9.064v1.712
		c0,1.354-1.096,2.45-2.449,2.45c-1.356,0-2.453-1.096-2.453-2.45v-1.712c0-2.296-1.867-4.164-4.163-4.164H2.527
		c6.712,28.859,32.591,50.362,63.493,50.362c29.6,0,54.588-19.732,62.539-46.758H112.351z"/>
	<path clip-path="url(#SVGID_2_)" fill="#EB0F2D" d="M64.247,87.756c4.399,0,7.917-1.59,7.917-4.824
		c0-3.295-2.053-3.822-6.157-4.175l-5.865-0.471c-0.234,0-0.469,0-0.705-0.059c-1.055,1.233-1.932,2.587-1.932,4.47
		C57.504,86.402,59.85,87.756,64.247,87.756"/>
	<path clip-path="url(#SVGID_2_)" fill="#EB0F2D" d="M98.653,61.369c0-5.045-2.66-7.662-6.77-7.662
		c-4.111,0-6.771,2.617-6.771,7.662c0,5.049,2.66,7.617,6.771,7.617C95.993,68.986,98.653,66.418,98.653,61.369"/>
</g>
</svg>
