<svg xmlns="http://www.w3.org/2000/svg" viewBox="0 0 185.72 92.51"><defs><style>.a{fill:#284568;}.b{fill:#adc643;}.c{fill:#ffffff;}</style></defs><path class="a" d="M68.68,77c5.79,0,11.1,0,16.41,0a6.27,6.27,0,0,0,6.44-6.43A6.35,6.35,0,0,0,85.19,64c-5.91,0-11.83.07-17.74-.05-1.77,0-2,.64-2,2.14.07,6.33,0,12.65.07,19,0,1.48-.3,2.07-1.91,2a54.66,54.66,0,0,0-7.24,0c-1.89.14-2.35-.46-2.34-2.34.08-14.48,0-29,0-43.44,0-3.24.07-6.49,0-9.74,0-1.47.31-2,1.92-2,8.66.08,17.32-.07,26,.07a17.09,17.09,0,0,1,15.2,24.55c-.76,1.58-.58,2.34.65,3.52a16.48,16.48,0,0,1,3.83,18.59C98.69,83,93.47,86.77,86,87c-3.49.09-7,0-10.49,0-.85,0-1.57,0-2-1C72,83.13,70.43,80.3,68.68,77Z"/><path class="a" d="M158.18,72.55a16.88,16.88,0,0,0,9.89,5.2,10.46,10.46,0,0,0,4.94-.22A2.6,2.6,0,0,0,175.07,75a2.36,2.36,0,0,0-1.66-2.5c-1.47-.58-3-1.09-4.46-1.57-2.22-.71-4.51-1.21-6.66-2.07-4.4-1.77-7.4-4.74-7.56-9.83s1.81-9.24,6.49-11.74,9.63-2.27,14.6-1.18a27.05,27.05,0,0,1,7.82,3.16c1,.6,1.16,1.1.56,2.12-1.23,2.07-2.37,4.19-3.46,6.34-.57,1.14-1,1.47-2.14.49a14.35,14.35,0,0,0-8-3.08,7.79,7.79,0,0,0-3.22.23,2.53,2.53,0,0,0-2,2,2.34,2.34,0,0,0,1.26,2.5,25.1,25.1,0,0,0,5.92,2.57c2.05.7,4.11,1.37,6.08,2.22,4.3,1.84,7.19,4.8,7.1,9.83-.1,5.27-2.27,9.29-7.21,11.56-4,1.84-8.28,1.84-12.5,1.25a28.31,28.31,0,0,1-11.92-4.83c-1.08-.72-1.5-1.28-.64-2.52C155.09,77.6,156.57,75.11,158.18,72.55Z"/><path class="b" d="M23.64,55.77a5,5,0,0,1-.68.07C18.1,54,18.1,54,18.1,48.79c0-3.92-.06-7.83,0-11.74,0-1.51-.44-2.06-2-2-2.57.1-5.16.08-7.74,0C7,35,6.3,35.37,6.32,37c.07,6.41.09,12.82,0,19.23,0,1.74.88,1.71,2.14,1.87a17.11,17.11,0,0,1,15.14,16c.42,9-5,16.15-13.54,18.09-2.63.59-5.31.23-8,.28-1.31,0-1.15-.91-1.16-1.72,0-2.92,0-5.83,0-8.74C.83,65.51.81,49,.58,32.56c0-2.66.78-3.16,3.2-3.09,5.91.18,11.83.05,17.74.07.91,0,2.12-.38,2.12,1.28Q23.63,43.29,23.64,55.77Z"/><path class="a" d="M118.26,59.23c0,3.75,0,7.49,0,11.24,0,6.74,5.11,8.86,10.92,7,1.91-.6,2.9-.51,3.52,1.41a9.55,9.55,0,0,0,.83,1.54c2.12,3.88,2.07,4.36-2.17,5.92a20,20,0,0,1-17.11-1.2c-4.58-2.53-6.06-7.06-6.78-11.9-.85-5.71-.36-11.47-.47-17.21,0-2.74.06-5.49,0-8.24,0-1.36.29-1.92,1.78-1.85a74.85,74.85,0,0,0,7.49,0c1.64-.09,1.92.57,1.89,2-.09,3.74,0,7.49,0,11.23Z"/><path class="a" d="M149,66.89c0,6.23-.06,12.47,0,18.7,0,1.63-.44,2.15-2.08,2.08-2.74-.13-5.49-.1-8.23,0-1.36,0-1.87-.3-1.87-1.78q.09-19.06,0-38.15c0-1.44.43-1.84,1.83-1.79,2.82.1,5.66.13,8.48,0,1.66-.09,1.88.58,1.86,2C149,54.25,149,60.57,149,66.89Z"/><path class="b" d="M12.28,24.62A12.14,12.14,0,0,1,0,12.5a12.25,12.25,0,1,1,24.49-.11A12.26,12.26,0,0,1,12.28,24.62Z"/><path class="a" d="M43,29.6c1.55.31,4.23-1,5.22.52.83,1.24-1,3.45-1.64,5.22-1.66,4.34-3.47,8.63-5,13-.62,1.79-1.46,2.42-3.37,2.38-5.15-.12-5.17,0-4.3-5.14.79-4.67,1.7-9.32,2.37-14,.23-1.6.78-2.15,2.35-2C40,29.7,41.33,29.6,43,29.6Z"/><path class="c" d="M74.39,39.54c2.33,0,4.66,0,7,0a6.3,6.3,0,0,1,6.12,6.52,6.13,6.13,0,0,1-6.1,6.47c-4.74.05-9.48,0-14.22,0-1.26,0-1.75-.3-1.71-1.65.1-3.24.09-6.49,0-9.73,0-1.3.35-1.74,1.68-1.69C69.57,39.61,72,39.54,74.39,39.54Z"/><path class="c" d="M6.35,75.23c0-3.25,0-6.49,0-9.73,0-1.46.27-2.12,2-1.82a11.77,11.77,0,0,1,.17,23.17c-1.65.3-2.21-.2-2.15-1.9C6.43,81.71,6.35,78.47,6.35,75.23Z"/><path class="c" d="M12.15,19.06a6.63,6.63,0,0,1-6.64-6.87,6.78,6.78,0,0,1,6.65-6.66A6.92,6.92,0,0,1,19,12.33,6.75,6.75,0,0,1,12.15,19.06Z"/></svg>