<svg xmlns="http://www.w3.org/2000/svg" id="svg8" version="1.1" viewBox="0 0 98 66"><defs id="defs2"/><g id="layer1" transform="translate(-101.39158 -101.52859)"><g id="g4828" transform="matrix(.26458 0 0 .26458 83.36791 101.69878)"><path id="path4753" fill="#a99887" d="M141 164.1h51.28v28.46l-98.93.09V50.42c0-18-17.67-14-17.67-14V6.92h34.64s20.95-1 21 27.87v122.07s-.2 7.24 9.65 7.24" class="cls-1"/><path id="path4755" fill="#a99887" d="M218.61 10.65c10-5.92 23.72-2.95 29.67 7a21.91 21.91 0 01-6.76 29.38c-10 6.19-23.73 3.22-29.92-6.75-6.19-9.97-3-23.71 7-29.66m1.55 146.46l.1-52.22c0-13.45-17.93-11.2-17.93-11.2V68.08h33.72s17.33-.25 17.33 19.7V192.4l-51.46-.08-.11-28.39h15s3.35 0 3.35-6.82" class="cls-1"/><path id="path4757" fill="#1d1d1b" d="M338.62 87.24h-2.57c-5 0-20.15 3.2-20.15 20.86v16.08h42.87V108.1c0-17.13-15.23-20.9-20.18-20.86" class="cls-2"/><path id="path4759" fill="#1d1d1b" d="M407.1 49.17a84.08 84.08 0 00-143.54 59.48v134.84l95.11-46.66.07-50.89H315.9v44.74h-24.35v-82.76c0-40.73 35.78-44.45 35.78-44.45a56 56 0 0127.75.7s29.15 7.13 29.15 38.22v82c1-.5 2.1-1 3.14-1.57l.09-.05a82.76 82.76 0 0019.65-14.61 84.09 84.09 0 000-118.92" class="cls-2"/></g></g></svg>