<svg xmlns="http://www.w3.org/2000/svg" viewBox="0 0 155.99 31.69"><defs><style>.a{fill:#7a5a9e;}</style></defs><polygon class="a" points="0 0.24 10.57 0.24 17.57 10.15 17.93 10.15 24.93 0.24 35.5 0.24 35.5 31.46 25.07 31.46 25.07 15.14 24.8 15.14 17.93 24.2 17.57 24.2 10.7 15.14 10.44 15.14 10.44 31.46 0 31.46 0 0.24"/><path class="a" d="M44.93.37A16.09,16.09,0,0,0,59.25,9.1,16.11,16.11,0,0,0,73.57.37Z"/><path class="a" d="M53.72,31.56a6.14,6.14,0,0,1-.08-1,5.75,5.75,0,1,1,11.5,0,6.14,6.14,0,0,1-.08,1h10.4c0-.32,0-.64,0-1a16.1,16.1,0,0,0-32.2,0c0,.33,0,.65,0,1Z"/><polygon class="a" points="83.71 21.75 84.53 16 84.62 16 86.96 20.71 89.27 16 89.37 16 90.19 21.75 89.63 21.75 89.06 17.63 87.03 21.75 86.89 21.75 84.82 17.6 84.27 21.75 83.71 21.75"/><path class="a" d="M97.13,18.87a3,3,0,1,1-3.07-3,3,3,0,0,1,3.07,3m-5.46,0a2.43,2.43,0,1,0,2.42-2.48,2.41,2.41,0,0,0-2.42,2.48"/><path class="a" d="M98.3,21.75V16h1.21c1.21,0,1.76.59,1.76,1.4a1.34,1.34,0,0,1-.73,1.21,1.52,1.52,0,0,1,1.21,1.49,1.71,1.71,0,0,1-1.88,1.65Zm.57-3.34h.39a1.79,1.79,0,0,0,1-.22.94.94,0,0,0,.41-.79c0-.51-.38-.84-1-.84h-.75Zm0,2.78h.7a6.58,6.58,0,0,0,.69-.06,1,1,0,0,0,.32-1.95A2.84,2.84,0,0,0,99.26,19h-.39Z"/><rect class="a" x="102.79" y="16" width="0.58" height="5.75"/><polygon class="a" points="104.69 16 105.27 16 105.27 21.19 107.48 21.19 107.48 21.75 104.69 21.75 104.69 16"/><rect class="a" x="108.31" y="16" width="0.58" height="5.75"/><polygon class="a" points="109.63 16.56 109.63 16 112.78 16 112.78 16.56 111.5 16.56 111.5 21.75 110.93 21.75 110.93 16.56 109.63 16.56"/><path class="a" d="M113.62,16h3.28v.56h-2.71v1.8h2.71v.56h-2.71v2.27h2.71v.56h-3.28Zm1.95-1.71h.84l-1.16,1.21h-.54Z"/><path class="a" d="M120.11,17.15c-.31-.41-.58-.7-1.06-.7a.73.73,0,0,0-.77.73,1.13,1.13,0,0,0,.51.88c1.08.8,1.87,1.36,1.87,2.29a1.58,1.58,0,0,1-1.61,1.54,1.91,1.91,0,0,1-1.74-1.22l.49-.29c.34.63.76.95,1.2.95a1,1,0,0,0,1.06-1c0-.63-.59-1-1.9-2.05a1.49,1.49,0,0,1-.48-1.1,1.34,1.34,0,0,1,1.39-1.35,1.83,1.83,0,0,1,1.5.94Z"/><path class="a" d="M88.59,27.21a2.51,2.51,0,0,0-2-1,2.47,2.47,0,1,0,0,4.94,2.6,2.6,0,0,0,2-.95l.45.34a3.09,3.09,0,0,1-2.51,1.14A3,3,0,1,1,89,26.87Z"/><path class="a" d="M93.8,27.3h.54v4.25H93.8v-.73a2.14,2.14,0,0,1-1.71.84,2.24,2.24,0,0,1,0-4.47,2,2,0,0,1,1.69.89Zm-3.33,2.13a1.71,1.71,0,0,0,1.68,1.73,1.72,1.72,0,0,0,0-3.44,1.69,1.69,0,0,0-1.69,1.71"/><path class="a" d="M98.66,27.3h.58v2.2c0,1.44-.65,2.16-1.86,2.16s-1.88-.72-1.88-2.16V27.3h.58v2.07a2.79,2.79,0,0,0,.12,1.08,1.24,1.24,0,0,0,1.18.68,1.35,1.35,0,0,0,1-.38c.33-.36.32-.77.32-1.38Z"/><polygon class="a" points="99.95 27.3 100.61 27.3 101.74 28.87 102.87 27.3 103.52 27.3 102.07 29.32 103.7 31.55 103.03 31.55 101.74 29.77 100.46 31.55 99.8 31.55 101.41 29.32 99.95 27.3"/><rect class="a" x="103.93" y="29.15" width="2.15" height="0.48"/><path class="a" d="M109.38,25.8l2.69,5.75h-.62l-.91-1.89h-2.48l-.89,1.89h-.64l2.72-5.75ZM109.31,27l-1,2.08h2Z"/><path class="a" d="M116,27.3h.57v2.2c0,1.44-.65,2.16-1.86,2.16s-1.88-.72-1.88-2.16V27.3h.58v2.07a2.79,2.79,0,0,0,.12,1.08,1.24,1.24,0,0,0,1.18.68,1.35,1.35,0,0,0,1-.38,1.83,1.83,0,0,0,.33-1.38Z"/><path class="a" d="M117.68,30.66a1.19,1.19,0,0,0,.89.47.75.75,0,0,0,.78-.7.67.67,0,0,0-.35-.59c-1-.55-1.47-.78-1.47-1.52a1.11,1.11,0,0,1,1.16-1.13,1.64,1.64,0,0,1,1.18.57l-.35.36a1.22,1.22,0,0,0-.86-.4.6.6,0,0,0-.64.56.7.7,0,0,0,.33.57c1,.57,1.52.79,1.52,1.56a1.24,1.24,0,0,1-1.28,1.25,1.6,1.6,0,0,1-1.26-.61Z"/><polygon class="a" points="121.33 25.71 121.87 25.71 121.87 27.3 122.74 27.3 122.74 27.78 121.87 27.78 121.87 31.55 121.33 31.55 121.33 27.78 120.58 27.78 120.58 27.3 121.33 27.3 121.33 25.71"/><path class="a" d="M123.91,27.92a1.36,1.36,0,0,1,1.1-.73.89.89,0,0,1,.49.14l-.29.47a.56.56,0,0,0-.29-.08c-.4,0-.76.34-.92.92a6,6,0,0,0-.09,1.29v1.62h-.57V27.3h.57Z"/><path class="a" d="M126.29,29.47a1.61,1.61,0,0,0,1.6,1.69,1.79,1.79,0,0,0,1.63-1l.45.24a2.12,2.12,0,0,1-2,1.28,2.16,2.16,0,0,1-2.22-2.22,2.19,2.19,0,0,1,2.19-2.25,2.16,2.16,0,0,1,2.2,2.28Zm3.23-.48a1.57,1.57,0,0,0-1.6-1.27A1.55,1.55,0,0,0,126.35,29Z"/><path class="a" d="M131.72,31.55h-.55V25.66h.55V28a2.14,2.14,0,0,1,1.7-.84,2.24,2.24,0,0,1,0,4.47,2,2,0,0,1-1.69-.89Zm3.33-2.14a1.71,1.71,0,0,0-1.68-1.73,1.73,1.73,0,0,0,0,3.45,1.69,1.69,0,0,0,1.68-1.72"/><path class="a" d="M137,29.47a1.62,1.62,0,0,0,1.61,1.69,1.79,1.79,0,0,0,1.62-1l.46.24a2.23,2.23,0,0,1-4.25-.94,2.19,2.19,0,0,1,2.19-2.25,2.16,2.16,0,0,1,2.2,2.28Zm3.23-.48A1.62,1.62,0,0,0,137,29Z"/><path class="a" d="M142.16,27.92a1.34,1.34,0,0,1,1.09-.73.89.89,0,0,1,.49.14l-.29.47a.52.52,0,0,0-.28-.08c-.4,0-.76.34-.92.92a5.44,5.44,0,0,0-.09,1.29v1.62h-.58V27.3h.58Z"/><polygon class="a" points="144.7 25.71 145.24 25.71 145.24 27.3 146.11 27.3 146.11 27.78 145.24 27.78 145.24 31.55 144.7 31.55 144.7 27.78 143.94 27.78 143.94 27.3 144.7 27.3 144.7 25.71"/><path class="a" d="M146.92,25.66h.55v2.4a1.93,1.93,0,0,1,1.59-.87c.92,0,1.57.65,1.57,1.92v2.44h-.55V29.24c0-1-.3-1.56-1.12-1.56a1.37,1.37,0,0,0-1.13.58,2.26,2.26,0,0,0-.36,1.51v1.78h-.55Z"/><path class="a" d="M152.17,29.47a1.61,1.61,0,0,0,1.6,1.69,1.79,1.79,0,0,0,1.62-1l.46.24a2.13,2.13,0,0,1-2,1.28,2.16,2.16,0,0,1-2.22-2.22,2.19,2.19,0,0,1,2.19-2.25,2.16,2.16,0,0,1,2.2,2.28Zm3.22-.48a1.62,1.62,0,0,0-3.17,0Z"/><polygon class="a" points="83.33 0.15 86.6 0.15 88.76 3.21 88.87 3.21 91.03 0.15 94.3 0.15 94.3 9.8 91.08 9.8 91.08 4.76 90.99 4.76 88.87 7.55 88.76 7.55 86.64 4.76 86.56 4.76 86.56 9.8 83.33 9.8 83.33 0.15"/><path class="a" d="M95.34,5a5,5,0,1,1,5,5,5,5,0,0,1-5-5m6.75,0a1.78,1.78,0,1,0-1.78,1.8A1.78,1.78,0,0,0,102.09,5"/><path class="a" d="M106.12,5a5,5,0,0,1,8.57-3.43L112.45,3.8a1.79,1.79,0,1,0-1.35,3,1.76,1.76,0,0,0,1.32-.61l2.27,2.26A5,5,0,0,1,106.12,5"/><path class="a" d="M122,8.82h-3.48l-.26,1H114.9L117.71.15h5.08L125.6,9.8h-3.35Zm-.69-2.57-.94-3.55h-.22l-.94,3.55Z"/><path class="a" d="M130,8a1.79,1.79,0,1,1-1.79-1.78A1.79,1.79,0,0,1,130,8"/></svg>