<?xml version="1.0" encoding="UTF-8"?>
<svg version="1.0" xmlns="http://www.w3.org/2000/svg" viewBox="0 0 1625 335" preserveAspectRatio="xMidYMid meet">
 <g fill="#7a5a9e">
  <path d="M896.05 325.70 c-0.05 -0.55 -6 -2.05 -7.40 -1.90 -0.35 0.05 -0.65 -0.15 -0.65 -0.40 0 -0.30 -0.35 -0.40 -0.75 -0.20 -0.40 0.15 -0.75 0.05 -0.75 -0.25 0 -0.30 -0.20 -0.35 -0.50 -0.20 -0.25 0.15 -0.50 0.05 -0.50 -0.25 0 -0.30 -0.20 -0.40 -0.50 -0.25 -0.25 0.15 -0.50 0.10 -0.50 -0.10 0 -0.25 -1.45 -1.40 -3.20 -2.55 -1.80 -1.15 -4.10 -3.10 -5.20 -4.35 -2.20 -2.50 -6.30 -10.05 -5.85 -10.75 0.35 -0.55 -0.65 -4.40 -1.35 -5.35 -0.25 -0.30 -0.35 -1.10 -0.20 -1.75 0.15 -0.60 0.35 -3.40 0.55 -6.10 0.15 -2.75 0.50 -5.25 0.80 -5.65 0.30 -0.35 0.45 -0.65 0.30 -0.65 -0.15 0 0.40 -1.35 1.20 -3 0.80 -1.65 1.45 -3.25 1.45 -3.50 0 -1.15 8 -8.50 11.25 -10.30 6 -3.30 7.45 -3.60 17 -3.40 9.55 0.15 10.80 0.35 15.30 2.75 3.05 1.65 9.95 7.55 9.95 8.55 0 0.80 -3.05 3.40 -4 3.40 -0.45 0 -2.15 -1.15 -3.80 -2.60 -1.60 -1.40 -4.50 -3.30 -6.45 -4.20 -3.70 -1.75 -9.85 -3.05 -10.15 -2.20 -0.25 0.75 -2.10 0.60 -2.10 -0.10 0 -0.40 -0.15 -0.45 -0.40 -0.15 -0.20 0.30 -1.65 0.55 -3.25 0.55 -4.35 0.10 -10.30 3.15 -14.10 7.25 -2.90 3.20 -3.70 4.55 -4.80 8.45 -0.35 1.25 -0.95 2.55 -1.40 2.85 -1.10 0.95 -1.10 8.70 0.05 11.55 0.50 1.15 0.70 2.10 0.50 2.10 -0.20 0 0.05 0.25 0.60 0.55 0.75 0.45 0.80 0.65 0.25 1 -0.55 0.35 -0.55 0.45 -0.05 0.45 0.35 0 0.55 0.20 0.40 0.45 -0.50 0.80 2.95 5.25 6 7.70 3.65 2.95 6.90 4.60 11.45 5.65 4.15 1 8.15 1.10 11.25 0.30 1.25 -0.30 3 -0.75 3.85 -0.95 0.90 -0.20 3.65 -1.85 6.15 -3.65 2.50 -1.80 4.85 -3.45 5.20 -3.70 0.90 -0.65 3.40 0.70 4.15 2.20 0.40 0.75 0.45 1.30 0.15 1.40 -0.30 0.10 -0.40 0.40 -0.25 0.60 0.35 0.60 -4.75 4.60 -8.25 6.45 -2.90 1.55 -9 3.50 -12 3.80 -0.95 0.10 -3.05 0.30 -4.60 0.50 -1.90 0.20 -2.90 0.10 -2.90 -0.20 0 -0.75 -1.35 -0.70 -1.65 0.10 -0.20 0.40 -0.30 0.40 -0.30 0.05z"/>
  <path d="M957.40 325.25 c-0.15 -0.15 -1.45 -0.35 -2.90 -0.50 -1.45 -0.10 -2.85 -0.40 -3.15 -0.70 -0.25 -0.25 -0.80 -0.35 -1.15 -0.20 -0.40 0.15 -0.70 0 -0.70 -0.35 0 -0.30 -0.20 -0.45 -0.45 -0.30 -0.20 0.15 -1.05 -0.25 -1.85 -0.95 -0.75 -0.65 -1.50 -1.10 -1.60 -1 -0.15 0.10 -1.45 -0.95 -2.95 -2.40 -1.90 -1.80 -3.35 -3.90 -4.80 -6.80 -1.95 -3.90 -2.10 -4.60 -2.25 -8.90 -0.10 -2.55 0 -4.95 0.30 -5.30 0.25 -0.35 0.60 -1.25 0.80 -2.10 1.25 -5.15 6.40 -11.25 11.65 -13.85 2.75 -1.35 4 -1.65 7.80 -1.80 6.85 -0.35 11.45 0.85 15.45 4 2.90 2.30 4.40 2.25 4.40 -0.15 0 -0.85 0.25 -1.95 0.50 -2.50 0.70 -1.30 3.55 -1.30 4.70 0 0.85 0.90 0.90 2.60 0.90 20.90 l-0.05 19.90 -1.20 1.30 c-0.70 0.70 -1.65 1.30 -2.15 1.30 -1.55 0.05 -2.75 -1.40 -2.65 -3.10 0.25 -3.80 -0.50 -4.15 -3.55 -1.75 -1.05 0.85 -3.25 2.10 -4.85 2.80 -1.60 0.70 -3.50 1.60 -4.25 2 -1.25 0.65 -5.45 1 -6 0.45z m7.10 -6.35 c3.20 -1.35 7.20 -4.55 8.85 -7 0.80 -1.20 1.45 -2.35 1.45 -2.65 0 -0.25 0.25 -1.10 0.60 -1.90 1.65 -3.95 -0.10 -11.70 -3.60 -16 -2.20 -2.65 -5.45 -4.70 -8.05 -5.10 -0.25 0 -1.10 -0.25 -1.90 -0.45 -0.80 -0.25 -3.10 -0.15 -5.50 0.20 -3.10 0.50 -4.70 1.05 -6.70 2.30 -1.45 0.95 -2.65 2 -2.65 2.35 0 0.35 -0.45 0.90 -1 1.25 -0.55 0.35 -1 0.85 -1 1.10 0 0.30 -0.45 1.45 -0.95 2.65 -1.45 3.15 -1.65 4.10 -1.60 7.75 0 2.80 0.30 3.95 1.80 6.95 2.35 4.75 5.10 6.90 11.25 8.85 3 0.95 6.25 0.85 9 -0.30z"/>
  <path d="M1007.95 325 c-2.60 -0.75 -7.75 -3.55 -9.30 -4.95 -2.10 -1.95 -3.90 -5.55 -4.85 -9.75 -1.15 -4.95 -1.15 -27.85 0 -29 0.95 -0.95 3.20 -1.05 4.40 -0.15 0.85 0.60 0.90 1.50 0.85 10.25 -0.10 8.90 0 9.60 0.80 9.60 0.75 0 0.80 0.10 0.15 0.50 -0.50 0.30 -0.55 0.50 -0.10 0.50 0.35 0 0.60 0.70 0.60 1.70 0 0.95 -0.30 1.85 -0.60 1.95 -0.50 0.20 -0.45 0.40 0.10 0.80 0.50 0.35 0.55 0.55 0.15 0.55 -0.35 0 -0.65 0.45 -0.65 1 0 0.55 0.35 1 0.75 1 0.40 0 0.75 0.35 0.75 0.75 0 0.40 -0.25 0.75 -0.60 0.75 -0.30 0 -0.15 0.35 0.40 0.75 0.55 0.40 0.70 0.75 0.35 0.75 -0.40 0 -0.25 0.40 0.35 1 0.60 0.60 0.90 1.25 0.75 1.50 -0.40 0.60 4.65 3.80 7.10 4.45 2.60 0.75 6.35 0.70 8.30 -0.15 2.10 -0.85 5.15 -3.60 6.50 -5.80 1.05 -1.65 1.10 -2.50 1.35 -16.30 0.30 -16.15 0.30 -16.20 3.65 -16.20 3.35 0 3.45 0.40 3.45 14.35 -0.05 14.50 -0.30 17.20 -1.90 19.55 -0.65 0.95 -1.05 1.90 -0.90 2.15 0.15 0.25 0 0.45 -0.25 0.45 -0.30 0 -0.55 0.20 -0.55 0.40 0 0.20 -1.05 1.55 -2.40 3 -3.25 3.50 -7.45 5.10 -13.25 5.05 -2.25 0 -4.70 -0.20 -5.40 -0.45z"/>
  <path d="M1185.15 325.05 c-0.85 -0.25 -1.95 -0.80 -2.40 -1.25 -0.75 -0.70 -1.05 -0.85 -2 -0.80 -1.20 0.05 -5.95 -5.15 -7.50 -8.25 l-1.50 -3 -0.15 -14.90 c-0.15 -11.15 -0.05 -15.05 0.40 -15.60 0.95 -1.15 4.35 -0.95 5 0.20 0.30 0.60 0.50 4.90 0.50 10.50 0 7.10 0.15 9.55 0.65 9.70 0.50 0.20 0.50 0.30 0 0.30 -0.90 0.05 -0.80 2.95 0.15 3.90 0.55 0.55 0.70 1.55 0.60 3.60 -0.15 3.20 0.40 4.25 4 7.25 4 3.30 11.10 3.75 15.20 0.90 5.10 -3.50 5.45 -4.85 5.75 -22.10 0.30 -14.45 0.40 -15 3.20 -15 2 0 2.95 0.50 2.95 1.50 0 0.55 0.25 1.10 0.50 1.25 0.60 0.40 0.65 22.50 0.05 25.70 -0.25 1.20 -0.70 2.35 -1.05 2.55 -0.45 0.25 -0.45 0.45 -0.05 0.55 0.90 0.30 -1.90 5.40 -4.30 7.85 -1.20 1.15 -2.15 2.30 -2.15 2.55 0 0.25 -1.20 0.95 -2.60 1.60 -2.15 0.95 -3.65 1.15 -8.15 1.25 -3 0.10 -6.20 -0.05 -7.10 -0.25z"/>
  <path d="M1225.15 324.55 c-2.05 -0.95 -6.15 -4.50 -6.15 -5.35 0 -0.25 0.45 -1.20 1.05 -2.15 0.90 -1.50 1.20 -1.65 2.60 -1.35 0.90 0.20 1.95 0.75 2.35 1.25 0.95 1.20 2.35 1.90 4.95 2.50 2.90 0.65 4.70 0 7.10 -2.50 1.85 -1.90 2 -2.25 1.90 -4.60 -0.10 -1.50 -0.45 -2.85 -0.90 -3.30 -0.45 -0.45 -3.10 -2.10 -5.85 -3.70 -2.80 -1.55 -5.25 -3.20 -5.40 -3.65 -0.15 -0.40 -0.50 -0.65 -0.75 -0.50 -0.65 0.40 -3.90 -3.10 -5.10 -5.50 -2.30 -4.80 0.45 -12.10 5.60 -14.70 1.45 -0.75 2.95 -1 6.10 -1 4.80 0 8.10 1.30 10.75 4.20 l1.50 1.70 -1.70 1.80 c-0.95 1 -1.85 1.80 -2.05 1.80 -0.20 0 -0.90 -0.55 -1.60 -1.20 -1.60 -1.50 -6.40 -2.90 -8.50 -2.50 -0.85 0.20 -2.30 1.10 -3.30 2.05 -3.70 3.60 -1.55 7.35 6.50 11.40 4.80 2.40 9.90 7.15 10.40 9.70 0.50 2.55 0.40 5.70 -0.25 7.60 -0.80 2.30 -4.05 5.70 -6.70 7 -1.20 0.55 -2.20 1.25 -2.20 1.50 0 0.90 -8.10 0.50 -10.35 -0.50z"/>
  <path d="M1321 324.70 c-4.75 -1.25 -7.90 -3.70 -13.05 -10.05 -1.90 -2.30 -3.15 -7.20 -3.20 -12.15 0 -4.55 0.10 -4.90 2.05 -9 1.15 -2.35 3.20 -5.50 4.60 -7 2.30 -2.60 3.65 -3.50 7.35 -5 0.85 -0.35 1.85 -0.80 2.35 -1.05 0.45 -0.20 3.95 -0.35 7.75 -0.25 6.70 0.10 7 0.15 9.65 1.70 1.50 0.85 4.05 2.80 5.65 4.30 3.70 3.55 5.35 7.10 5.70 12.35 0.25 3.65 0.20 3.80 -0.95 4.10 -0.60 0.20 -9.20 0.35 -19 0.35 -16.95 0 -17.85 0.05 -18.15 0.95 -0.40 1.25 -0.15 4.05 0.40 4.05 0.20 0 0.30 0.20 0.10 0.45 -0.15 0.25 0.10 0.85 0.55 1.25 0.40 0.45 0.65 0.80 0.45 0.80 -0.75 0 1.45 3.10 3.60 5 2.95 2.60 4.15 3.20 7.70 4 3.55 0.80 8.70 0 11.35 -1.70 1.05 -0.65 3.35 -2.75 5.25 -4.70 3.40 -3.55 4.05 -3.80 5.95 -2.40 2.85 2.10 -0.95 7.65 -8.35 12.10 -1.35 0.85 -3.15 1.75 -4 2.05 -2.25 0.75 -10.60 0.65 -13.75 -0.15z m20.90 -27.50 c1.60 -0.45 1.40 -1.85 -0.90 -4.90 -2.55 -3.50 -4 -4.50 -8.05 -5.50 -5.20 -1.30 -9.65 -1.40 -11.05 -0.35 -0.65 0.50 -1.40 0.80 -1.70 0.70 -0.75 -0.25 -5.20 3.80 -5.20 4.75 0 0.50 -0.70 1.65 -1.55 2.60 -2.55 2.85 -1.90 3 13.75 3 7.45 0 14.05 -0.15 14.70 -0.30z"/>
  <path d="M1378.90 325.20 c-0.50 -0.15 -0.90 -0.45 -0.90 -0.70 0 -0.25 -0.35 -0.35 -0.75 -0.20 -0.40 0.20 -0.75 0.05 -0.75 -0.30 0 -0.30 -0.20 -0.40 -0.50 -0.25 -0.25 0.15 -0.50 0.05 -0.50 -0.20 0 -0.30 -0.35 -0.55 -0.75 -0.55 -0.75 0 -1.30 -0.40 -4.55 -3.20 -2 -1.65 -3.15 -1.45 -3.10 0.55 0.05 2.20 -0.55 3.65 -1.60 3.65 -0.50 0 -1.05 0.30 -1.15 0.65 -0.20 0.50 -0.30 0.50 -0.30 0 -0.05 -0.35 -0.45 -0.65 -0.95 -0.65 -2.40 0 -2.40 0.15 -2.35 -30.05 0 -31.70 -0.15 -30.20 3.45 -29.65 3.20 0.45 3.80 0.95 3.80 3.20 0 1.10 -0.20 2 -0.50 2 -0.80 0 -0.65 11.85 0.15 12.15 0.50 0.20 0.50 0.30 0 0.30 -0.40 0.05 -0.65 0.75 -0.65 1.80 0 2.35 1.30 2.35 4.35 0 3.85 -2.95 7.10 -3.90 13.15 -3.80 5.80 0.10 8.50 0.65 10.75 2.30 0.85 0.60 1.75 1.20 2.05 1.30 1.70 0.60 7.10 6.85 7.25 8.30 0 0.25 0.35 0.60 0.75 0.80 1.15 0.65 2.35 5.75 2.30 10.15 -0.05 3.75 -0.20 4.40 -2 8.05 -1.10 2.15 -3.20 5.45 -4.70 7.35 -2.20 2.80 -3.25 3.65 -6.40 5.20 -3.55 1.75 -4 1.85 -9.25 1.95 -3 0.05 -5.90 -0.05 -6.35 -0.15z m8.50 -5.65 c0.45 -0.25 1.85 -0.85 3 -1.35 2.70 -1.10 8.10 -6.30 8.50 -8.25 0.10 -0.40 0.50 -1.35 0.90 -2.15 1.65 -3.40 0.55 -10.95 -2.30 -15.50 -1.20 -2.05 -3.90 -4.40 -4.50 -4.05 -0.20 0.15 -0.55 -0.10 -0.70 -0.55 -0.15 -0.40 -0.50 -0.65 -0.75 -0.50 -0.25 0.20 -0.75 0 -1.15 -0.35 -0.35 -0.40 -0.95 -0.60 -1.30 -0.45 -0.30 0.10 -0.60 -0.10 -0.60 -0.50 0 -0.55 -0.10 -0.55 -0.45 0.05 -0.35 0.50 -0.65 0.55 -1.50 0.10 -1.70 -0.95 -6.55 -0.85 -8.40 0.10 -0.90 0.45 -1.90 0.85 -2.30 0.85 -0.40 0 -1.30 0.55 -2.05 1.25 -0.75 0.70 -1.55 1.25 -1.80 1.25 -0.70 0 -4 5.60 -4.75 8.10 -0.65 2.20 -0.65 4.10 0 9.35 0.65 5.10 7 11.05 13.15 12.25 4.15 0.85 5.85 0.95 7 0.35z"/>
  <path d="M1432.15 325 c-0.50 -0.15 -1.65 -0.65 -2.50 -1.15 -0.90 -0.45 -1.70 -0.80 -1.75 -0.75 -0.30 0.25 -5.25 -3.35 -7.30 -5.30 -4.15 -3.90 -5.95 -9.65 -5.45 -17.30 0.25 -3.75 0.55 -4.95 2.10 -8.10 1 -2 2.45 -4.35 3.20 -5.20 2.55 -2.85 7.70 -6.20 9.55 -6.20 0.50 0 1.10 -0.20 1.25 -0.50 0.50 -0.80 9.30 -0.60 13.10 0.30 1.85 0.40 4.50 1.45 5.80 2.30 2.50 1.60 7.35 6.65 7.35 7.70 0 0.30 0.35 0.70 0.75 0.90 0.40 0.15 0.75 0.70 0.75 1.25 0 0.55 0.25 1.15 0.55 1.30 0.30 0.20 0.40 0.70 0.25 1.10 -0.15 0.40 -0.05 1.75 0.20 3 0.65 2.75 0.30 3.95 -1.15 4.35 -0.60 0.15 -9.15 0.30 -19 0.35 -21.10 0.05 -19.85 -0.40 -17.25 5.80 1.25 3 2.25 4.50 4.40 6.55 3.65 3.55 5.30 4.20 10.50 4.25 5.60 0.05 7.80 -0.95 12.80 -5.90 3.40 -3.30 4.05 -3.75 5.25 -3.50 0.75 0.20 1.60 0.60 1.85 0.90 1.15 1.50 0.95 2.35 -1.50 5.65 -2.20 3 -2.95 3.65 -6.30 5.30 -2.10 1.05 -4.10 1.85 -4.40 1.90 -0.30 0 -0.85 0.35 -1.25 0.80 -0.50 0.60 -1.60 0.75 -5.75 0.60 -2.85 -0.10 -5.55 -0.25 -6.05 -0.40z m20.05 -27.80 c1.15 -0.45 1 -1.40 -0.50 -3.80 -2.25 -3.55 -3.80 -4.75 -7.95 -6.35 -4.20 -1.60 -4.40 -1.60 -10.90 -0.45 -2.90 0.50 -3.70 0.90 -5.60 2.65 -1.25 1.15 -2.25 2.25 -2.25 2.45 0 0.20 -0.65 1.35 -1.45 2.50 -1.10 1.55 -1.35 2.30 -0.95 2.70 0.60 0.60 28.10 0.90 29.60 0.30z"/>
  <path d="M1589.05 324.95 c-1.25 -0.25 -2.40 -0.70 -2.55 -1 -0.20 -0.30 -0.45 -0.45 -0.55 -0.35 -0.10 0.05 -1.45 -0.55 -2.95 -1.40 -5.15 -2.95 -10.50 -10 -10.70 -14.20 -0.05 -0.80 -0.25 -1.60 -0.45 -1.80 -0.60 -0.65 -0.40 -3.70 0.30 -3.70 0.45 0 0.45 -0.10 0 -0.40 -1.05 -0.70 1.60 -9.25 4.05 -13 2.55 -3.90 4.55 -5.60 9.10 -7.70 3.15 -1.50 3.55 -1.55 9.30 -1.45 6.85 0.10 9.30 0.80 13.35 3.75 3.20 2.35 4.90 4.55 7.50 9.65 1.75 3.40 2.10 4.50 1.95 6.45 -0.15 2.10 -0.30 2.45 -1.40 2.75 -0.70 0.20 -9.15 0.35 -18.85 0.40 -9.65 0.05 -17.90 0.20 -18.30 0.35 -0.60 0.20 -0.65 0.55 -0.25 1.75 0.25 0.80 0.35 1.80 0.20 2.25 -0.35 0.95 2.20 6.10 3.75 7.50 4.10 3.70 10.05 5.60 14.95 4.70 4.20 -0.75 5.80 -1.70 10.15 -6.10 3.80 -3.90 3.85 -3.90 5.25 -3.20 0.75 0.40 1.75 1.15 2.20 1.75 0.70 0.85 0.75 1.05 0.10 1.60 -0.40 0.30 -0.65 0.70 -0.50 0.80 0.70 0.70 -8.20 8.65 -9.70 8.65 -0.35 0 -1.70 0.55 -3.10 1.25 -2.10 1.05 -3.15 1.25 -6.55 1.20 -2.25 -0.05 -5.10 -0.25 -6.30 -0.50z m19.95 -27.70 c1.10 -1.30 -0.25 -4.55 -2.90 -7.20 -2.75 -2.70 -5.35 -4.10 -8.40 -4.35 -2.75 -0.25 -11.15 1.40 -12.85 2.55 -1.20 0.75 -3.85 4.30 -5.25 7.05 -1.05 2 -0.05 2.20 14.45 2.35 7.55 0.05 13.85 0.15 14 0.25 0.20 0.05 0.60 -0.25 0.95 -0.65z"/>
  <path d="M1038.85 324.30 c-0.50 -1.30 -0.50 -1.40 1.15 -3.30 0.80 -0.95 1.50 -2 1.50 -2.25 0 -0.30 0.45 -0.90 1 -1.40 0.55 -0.45 1 -1.15 1 -1.60 0 -0.40 0.45 -0.95 0.95 -1.20 0.80 -0.45 5.40 -6.75 6 -8.30 0.10 -0.25 0.75 -1.20 1.40 -2.05 2.20 -2.90 2.25 -2.75 -7.45 -15.45 -2.30 -3 -4.35 -5.85 -4.50 -6.30 -0.50 -1.25 0.55 -1.95 2.90 -1.95 2.60 0 5.40 2.15 8.15 6.20 4.75 7.05 5.75 8.30 6.55 8.30 1.40 0 9.50 -9.70 9.50 -11.40 0 -0.20 0.65 -1 1.40 -1.75 1.40 -1.35 4.25 -1.95 5.55 -1.15 0.60 0.40 0.60 3.30 -0.05 3.30 -0.20 0 -0.40 0.30 -0.40 0.70 0 0.35 -0.30 0.95 -0.70 1.25 -0.40 0.35 -1.10 1.35 -1.55 2.30 -0.45 0.95 -1 1.75 -1.25 1.75 -0.30 0 -0.50 0.35 -0.50 0.75 0 0.40 -0.45 1 -1 1.35 -0.55 0.35 -1 0.90 -1 1.25 0 0.35 -0.30 0.80 -0.65 1 -1.55 1 -3.95 4.75 -4 6.30 -0.05 2.05 2.35 5.95 9.10 14.80 2.75 3.65 5.05 6.80 5.05 7 -0.05 0.15 -0.50 0.85 -1.05 1.50 -0.75 0.90 -1.15 1.05 -1.55 0.65 -0.35 -0.35 -1 -0.60 -1.50 -0.60 -0.50 0 -1.45 -0.35 -2.10 -0.80 -1.05 -0.65 -6.95 -8.25 -10.30 -13.20 -1.80 -2.75 -2.50 -3.15 -3.60 -2.15 -0.50 0.45 -0.90 1.10 -0.90 1.40 0 0.35 -0.65 1.35 -1.50 2.25 -0.80 0.90 -1.50 1.80 -1.50 2.05 0 0.25 -0.20 0.45 -0.50 0.45 -0.25 0 -0.50 0.25 -0.50 0.55 0 1 -6 8.30 -7.25 8.85 -0.70 0.35 -2.15 0.60 -3.25 0.60 -1.05 0 -2 0.25 -2.10 0.60 -0.15 0.35 -0.35 0.25 -0.55 -0.30z"/>
  <path d="M1108.15 324.25 c-1 -1.15 -0.80 -2.10 1.35 -5.70 1.10 -1.85 2 -3.55 2 -3.85 0 -0.25 1 -2.55 2.25 -5.10 1.25 -2.55 2.70 -5.65 3.25 -6.90 1.80 -3.95 7.50 -15.35 7.95 -15.90 0.25 -0.30 0.75 -1.45 1.15 -2.55 1.30 -3.80 8.90 -18.25 9.55 -18.25 1.20 0 2.70 2.15 5.60 8 2.45 4.95 3 6.45 3.20 8.60 0.05 0.15 0.65 1 1.35 1.85 0.70 0.85 1.15 1.75 0.95 2.05 -0.15 0.25 -0.10 0.50 0.15 0.50 0.25 0 0.45 0.30 0.45 0.65 0 0.85 5.25 11.50 5.85 11.95 0.25 0.15 0.55 0.70 0.60 1.20 0.25 1.60 3.35 8.20 3.85 8.20 0.30 0 0.40 0.15 0.20 0.30 -0.15 0.15 0.50 1.85 1.45 3.70 0.95 1.85 1.70 3.60 1.70 3.90 0 0.30 0.40 0.95 0.95 1.45 1.25 1.20 1.80 3.95 1.05 4.90 -0.35 0.45 -1.45 0.75 -2.55 0.75 -2.30 0 -3.60 -1.10 -5 -4.20 -0.55 -1.10 -1.20 -2.40 -1.45 -2.80 -0.25 -0.40 -1.25 -2.45 -2.25 -4.50 -0.95 -2.05 -2.15 -4.40 -2.65 -5.25 -1.70 -2.75 -2.30 -2.85 -13.95 -2.55 -5.80 0.20 -10.95 0.45 -11.35 0.60 -0.40 0.15 -1 1.05 -1.30 2 -0.30 0.95 -0.80 1.70 -1 1.70 -0.25 0 -0.35 0.30 -0.20 0.70 0.15 0.35 -0.10 0.80 -0.55 1 -0.45 0.15 -0.70 0.50 -0.50 0.80 0.15 0.25 0.05 0.75 -0.25 1.10 -0.35 0.35 -1.65 2.80 -3 5.40 -1.75 3.50 -2.75 4.95 -3.80 5.45 -0.80 0.40 -1.50 0.90 -1.60 1.15 -0.30 0.65 -2.80 0.40 -3.45 -0.35z m36.05 -26 c0.15 -0.40 -0.55 -2.50 -1.50 -4.65 -3.15 -6.80 -3.60 -7.80 -4.50 -10.10 -0.95 -2.50 -1.60 -3.50 -2.25 -3.50 -0.60 0 -2.70 3.45 -3.15 5.15 -0.50 2.10 -2 5.35 -2.40 5.35 -0.25 0 -0.40 0.45 -0.40 0.95 0 0.55 -0.25 1.15 -0.50 1.30 -0.30 0.20 -1.05 1.45 -1.70 2.80 -1.10 2.25 -1.15 2.50 -0.40 2.95 0.50 0.25 4.35 0.50 8.65 0.50 6.55 0 7.90 -0.15 8.15 -0.75z"/>
  <path d="M1281.30 323.75 l-1.35 -1.25 0.05 -20.10 c0.10 -22.35 0.05 -21.90 3.30 -21.90 1.40 0 1.90 0.30 2.95 2 1.40 2.20 1.80 2.40 2.80 1.15 0.40 -0.45 1.60 -1.45 2.65 -2.25 1.75 -1.25 2.35 -1.40 5.80 -1.40 4.45 0 5.75 0.65 5.25 2.60 -0.20 0.70 -1 1.90 -1.80 2.70 -1.35 1.30 -1.60 1.35 -3.05 0.80 -1 -0.35 -1.85 -0.40 -2.40 -0.10 -0.50 0.25 -1 0.35 -1.15 0.20 -0.45 -0.45 -3.15 1.65 -4.40 3.35 -1.90 2.65 -2.40 6.45 -2.45 17.35 0 7.75 -0.15 10.10 -0.60 10.10 -0.50 0 -0.45 0.15 0.05 0.45 0.55 0.35 0.55 0.45 0 0.70 -0.50 0.20 -0.50 0.30 -0.05 0.30 0.35 0.05 0.60 0.70 0.60 1.55 0 1.60 -2 4 -3.30 4 -0.40 0 -0.70 0.25 -0.70 0.50 0 0.85 -0.80 0.55 -2.20 -0.75z"/>
  <path d="M1469.10 323.65 l-1.15 -1.30 0.15 -20.10 c0.15 -22.40 0.05 -21.75 3.50 -21.75 1.85 0 2.05 0.15 2.80 2 0.45 1.10 1 2 1.15 2 0.15 0 1.20 -0.70 2.25 -1.55 3.15 -2.50 4.40 -2.95 8.10 -2.95 2.75 0 3.55 0.15 3.80 0.80 0.90 2.40 -0.40 4.70 -2.75 4.70 -1.65 0 -6.65 1.60 -7.65 2.50 -1.50 1.20 -3.40 5.55 -3.45 7.85 0 1.20 -0.20 2.15 -0.45 2.15 -0.25 0 -0.40 5.55 -0.40 12.30 0.05 11.30 0 12.35 -0.85 13 -0.50 0.35 -1.20 0.70 -1.50 0.70 -0.35 0 -0.65 0.25 -0.65 0.50 0 0.95 -1.75 0.45 -2.90 -0.85z"/>
  <path d="M1502 324.25 c-0.65 -0.40 -1.40 -1.10 -1.55 -1.60 -0.20 -0.50 -0.40 -8.65 -0.40 -18.10 -0.05 -19.60 0.05 -19.10 -3.75 -18.70 -1.75 0.20 -2.40 0.05 -3.25 -0.80 -0.65 -0.65 -0.95 -1.35 -0.70 -1.70 0.20 -0.35 0.40 -0.90 0.45 -1.25 0.20 -1.05 0.45 -1.15 2.80 -1.40 4.80 -0.55 4.40 0.15 4.40 -7.60 0 -7.55 0 -7.60 3.35 -8.30 1.35 -0.30 1.70 -0.15 2.60 1.10 0.90 1.25 1.05 2.30 1.15 7.90 l0.15 6.45 3.30 0.25 c1.80 0.15 3.65 0.55 4.05 0.90 0.90 0.75 1.50 2.60 0.85 2.60 -0.25 0 -0.40 0.25 -0.30 0.60 0.05 0.35 -0.95 0.85 -2.35 1.25 -1.30 0.30 -2.55 0.70 -2.70 0.85 -0.15 0.15 -0.55 0.05 -0.90 -0.25 -0.40 -0.30 -1.05 -0.45 -1.45 -0.25 -0.65 0.25 -0.75 2.65 -0.75 18.25 0 19 0.10 18 -2.20 19.95 -0.90 0.70 -1.20 0.70 -2.80 -0.15z"/>
  <path d="M1524.90 324.20 c-1.60 -0.85 -2.15 -2.30 -1.45 -3.65 0.40 -0.65 0.55 -9.80 0.45 -28.05 -0.05 -15.80 0.15 -27.20 0.40 -27.45 0.25 -0.25 1.15 -0.55 2 -0.70 1.20 -0.25 1.80 -0.05 2.45 0.65 0.70 0.80 0.80 2.20 0.75 10.95 -0.05 9.45 0 10.05 0.90 10.05 0.50 0 1.55 -0.65 2.30 -1.45 2.65 -2.75 8.30 -4.55 14.35 -4.55 8.05 0 13.95 5.65 14.35 13.90 0.15 2.90 0.35 3.60 1.05 3.65 0.50 0 0.55 0.10 0.20 0.30 -0.75 0.30 -0.90 2.65 -0.15 2.65 0.75 0 0.60 3.85 -0.10 4.15 -0.50 0.20 -0.50 0.30 0 0.30 0.30 0.05 0.60 0.70 0.60 1.50 0 0.80 -0.30 1.60 -0.60 1.70 -0.50 0.20 -0.50 0.30 0 0.30 0.65 0.05 0.85 2.55 0.15 2.55 -0.25 0 -0.50 2.70 -0.65 6 -0.20 5.35 -0.35 6.15 -1.30 7.10 -1.05 1.10 -1.05 1.10 -2.85 0.15 -0.95 -0.55 -1.80 -1.20 -1.80 -1.50 -0.05 -0.25 -0.10 -6.80 -0.15 -14.50 -0.05 -12.10 -0.15 -14.25 -0.90 -15.80 -2.75 -5.80 -8.45 -8.30 -14.20 -6.25 -1.10 0.35 -2.20 0.55 -2.50 0.45 -1.05 -0.35 -4.50 3.30 -6.05 6.40 -2.40 4.75 -2.70 6.95 -2.65 19.05 l0.05 10.95 -1.20 0.95 c-1.45 1.15 -1.60 1.15 -3.45 0.20z"/>
  <path d="M455.60 323.40 c-0.95 -0.95 -0.80 -22.90 0.15 -28.65 0.45 -2.45 1 -5.75 1.25 -7.25 0.25 -1.50 0.60 -3.30 0.75 -4 0.20 -0.70 0.40 -1.80 0.45 -2.50 0.10 -0.70 0.30 -1.60 0.45 -2 0.90 -2.30 1.80 -6.20 1.55 -6.55 -0.15 -0.25 0.10 -0.80 0.50 -1.25 0.45 -0.40 0.80 -1.20 0.80 -1.70 0 -0.50 0.25 -1.55 0.60 -2.35 0.30 -0.75 0.50 -1.60 0.50 -1.80 -0.05 -0.20 0.25 -1.05 0.65 -1.85 0.40 -0.80 0.75 -2 0.75 -2.75 0 -0.70 0.25 -1.25 0.50 -1.25 0.30 0 0.50 -0.40 0.50 -0.90 0 -0.55 0.35 -1.65 0.80 -2.55 0.45 -0.85 0.85 -1.90 0.90 -2.30 0.05 -0.35 0.50 -1.55 1 -2.60 0.50 -1.05 1.20 -2.55 1.60 -3.40 1.50 -3.55 4.90 -10.15 6.25 -12.15 0.80 -1.20 1.45 -2.30 1.45 -2.45 0 -0.40 8.20 -12.70 10.25 -15.40 5.95 -7.80 14.15 -16.75 20.70 -22.60 5.20 -4.65 13.65 -11.15 14.50 -11.15 0.30 0 0.55 -0.20 0.55 -0.50 0 -0.75 12.25 -8.65 17.50 -11.30 2.60 -1.30 5.10 -2.65 5.50 -3 2.65 -2.15 26.25 -11.05 30.25 -11.40 0.90 -0.10 1.85 -0.30 2.20 -0.50 0.30 -0.20 0.75 -0.25 1 -0.05 0.25 0.15 0.65 0 0.80 -0.30 0.20 -0.25 0.70 -0.40 1.10 -0.25 0.85 0.35 4.05 -0.40 6.40 -1.40 0.85 -0.40 2.75 -0.85 4.25 -1 1.50 -0.20 4.35 -0.65 6.25 -1.05 4 -0.75 20.85 -1.55 21.75 -1 0.65 0.40 9.65 0.50 10.30 0.15 0.70 -0.40 13.75 0.55 15.70 1.15 0.95 0.30 2.90 0.65 4.25 0.75 1.40 0.15 3.65 0.55 5 0.90 1.40 0.40 4.75 1.20 7.50 1.80 5.70 1.25 15.85 4.35 19.40 5.95 4.60 2.05 6.65 2.95 9.75 4.25 1.75 0.75 6.40 3.15 10.40 5.30 4 2.20 7.45 4 7.70 4 0.25 0 0.50 0.20 0.60 0.45 0.10 0.20 1.40 1.25 2.90 2.25 7.10 4.70 8.20 5.45 9.20 6.30 0.55 0.50 3.30 2.70 6.05 4.90 5.55 4.40 14.95 13.75 20 19.85 3.65 4.40 11.80 15.05 12.40 16.25 0.20 0.40 0.75 1.35 1.25 2.10 1.65 2.50 4.50 7.70 7.40 13.40 1.60 3.15 3.10 5.85 3.30 5.90 0.25 0.10 0.30 0.40 0.10 0.65 -0.15 0.25 -0.05 0.45 0.25 0.45 0.30 0 0.40 0.30 0.25 0.70 -0.15 0.35 0.10 0.80 0.55 1 0.50 0.15 0.75 0.65 0.60 1 -0.15 0.40 0.10 0.85 0.55 1.05 0.65 0.25 0.70 0.40 0.15 0.70 -0.50 0.30 -0.45 0.50 0.20 0.75 0.55 0.20 0.75 0.60 0.55 1.10 -0.20 0.45 0.05 1.35 0.45 2 0.45 0.65 0.65 1.20 0.55 1.20 -0.20 0 2.90 9.60 4.05 12.50 0.15 0.40 0.35 1.10 0.40 1.50 0.05 0.40 0.70 3.20 1.45 6.25 0.75 3 1.50 6.50 1.65 7.75 0.15 1.25 0.45 3.25 0.70 4.50 0.25 1.25 0.55 2.95 0.65 3.75 0.10 0.85 0.35 2.05 0.50 2.75 0.40 1.45 0.40 25.60 0 26 -0.35 0.30 -104.60 0.60 -105.95 0.30 -0.95 -0.25 -1 -0.60 -0.85 -7.60 0.10 -4.05 0 -8.20 -0.30 -9.15 -0.25 -1 -1.10 -4.25 -1.80 -7.30 -2.40 -10 -7.65 -19.10 -15.40 -26.55 -6.10 -5.90 -15.55 -12.30 -16.90 -11.45 -0.30 0.15 -0.50 0.10 -0.50 -0.20 0 -0.30 -0.35 -0.40 -0.75 -0.25 -0.40 0.20 -0.75 0.05 -0.75 -0.25 0 -0.30 -0.30 -0.40 -0.70 -0.25 -0.35 0.15 -1.05 -0.10 -1.50 -0.55 -0.45 -0.45 -1 -0.65 -1.30 -0.50 -0.25 0.15 -0.50 0.10 -0.50 -0.20 0 -0.30 -0.35 -0.40 -0.75 -0.25 -0.40 0.20 -0.75 0.05 -0.75 -0.30 0 -0.35 -0.35 -0.50 -0.85 -0.30 -0.45 0.20 -1 0.05 -1.25 -0.30 -0.30 -0.50 -0.50 -0.50 -0.75 -0.10 -0.30 0.45 -1.25 0.40 -3.65 -0.10 -1.80 -0.35 -3.75 -0.70 -4.35 -0.70 -0.60 0 -1.15 -0.25 -1.25 -0.60 -0.30 -0.90 -10.35 -0.80 -10.95 0.15 -0.30 0.50 -0.55 0.55 -0.95 0.15 -0.95 -0.95 -10.20 0.95 -11.95 2.50 -0.45 0.35 -1.90 1.05 -3.30 1.55 -5.95 2.05 -7.20 2.65 -10.85 5.10 -4.15 2.75 -10.75 8.85 -13.60 12.60 -3 3.95 -5.80 8.75 -5.80 9.95 0 0.55 -0.35 1.40 -0.80 1.85 -1 1 -3.65 7.55 -3.70 9.10 0 0.60 -0.25 1.25 -0.50 1.40 -0.30 0.15 -0.35 0.85 -0.20 1.55 0.20 0.80 0.10 1.20 -0.30 1.20 -0.40 0 -0.55 0.45 -0.40 1.25 0.15 0.70 0.10 1.25 -0.10 1.25 -0.20 0 -0.40 3.65 -0.45 8.10 -0.05 5 -0.30 8.35 -0.60 8.75 -0.80 0.90 -104.90 1 -105.85 0.05z"/>
  <path d="M1260.15 323.65 c-0.50 -0.15 -0.65 -4.50 -0.60 -18.25 0 -13.30 -0.20 -18.20 -0.60 -18.75 -0.40 -0.45 -1.40 -0.65 -2.90 -0.60 -2.70 0.15 -4.55 -0.65 -4.30 -1.90 0.80 -3.95 0.50 -3.65 4 -3.65 1.85 0 3.35 -0.25 3.55 -0.60 0.20 -0.30 0.30 -3.50 0.25 -7.10 -0.10 -5.80 0 -6.70 0.80 -7.40 1.15 -1 4 -0.65 4.70 0.70 0.30 0.55 0.40 3.15 0.20 6.70 -0.35 7.60 -0.25 7.70 4.55 7.70 3.60 0 3.75 0.05 4.30 1.40 1.10 2.55 0.85 3.30 -1.20 3.85 -0.25 0.10 -1.75 0.15 -3.40 0.20 -2.50 0.05 -3.05 0.20 -3.60 1.20 -0.45 0.80 -0.60 5.75 -0.65 18.40 -0.05 9.50 -0.25 17.50 -0.45 17.85 -0.35 0.60 -3.45 0.75 -4.65 0.25z"/>
  <path d="M9.30 323.05 c-0.35 -0.55 -0.40 -314.10 -0.10 -314.45 0.50 -0.50 108.40 -0.35 109 0.15 0.35 0.25 2.40 2.90 4.55 5.85 2.15 3 4.10 5.40 4.30 5.40 0.25 0 0.40 0.15 0.35 0.40 -0.20 0.55 3.05 5.10 3.65 5.10 0.30 0 0.40 0.20 0.25 0.45 -0.15 0.25 0 0.55 0.35 0.70 0.40 0.15 2.90 3.35 5.55 7.20 2.70 3.80 6.05 8.50 7.45 10.45 1.45 1.90 4.70 6.35 7.20 9.85 2.55 3.50 4.65 6.45 4.65 6.55 0 0.15 0.65 0.95 1.45 1.80 0.80 0.90 1.75 2.20 2.10 2.90 0.40 0.75 0.85 1.45 1.05 1.60 0.35 0.25 3.15 4.15 8.55 11.85 1.30 1.85 3.35 4.75 4.55 6.40 1.25 1.65 3.30 4.45 4.55 6.25 1.25 1.80 3.50 4.95 5 7 1.50 2.05 3.40 4.75 4.25 5.95 0.80 1.20 1.90 2.50 2.50 2.90 0.95 0.65 1.20 0.60 2.80 -0.60 1.70 -1.30 2.75 -2.65 12.05 -15.60 9.90 -13.80 15.65 -21.45 16.85 -22.50 0.70 -0.65 1.30 -1.50 1.30 -1.90 0 -0.40 0.20 -0.75 0.45 -0.75 0.30 0 1.10 -1.10 1.85 -2.50 0.75 -1.35 1.65 -2.50 2 -2.50 0.30 0 0.85 -0.70 1.15 -1.50 0.40 -1.20 5.35 -8.50 10.55 -15.50 0.55 -0.70 3.15 -4.30 5.80 -8 2.70 -3.70 5.15 -6.95 5.50 -7.25 1 -0.75 4.70 -5.85 4.70 -6.45 0 -0.25 0.40 -0.95 0.95 -1.50 0.50 -0.60 2.30 -3.05 3.95 -5.55 1.70 -2.50 3.50 -5.05 4 -5.70 l0.95 -1.20 54.30 -0.05 c44.85 -0.05 54.40 0.05 54.60 0.60 0.15 0.40 0.25 71.10 0.25 157.10 0 148.50 -0.05 156.50 -0.85 156.95 -0.55 0.25 -22.45 0.45 -53.20 0.50 -56.80 0.05 -54.05 0.20 -53.25 -2.55 0.15 -0.65 0.45 -13.15 0.65 -27.75 0.25 -24.40 0.20 -26.65 -0.55 -26.95 -0.45 -0.15 -0.80 -0.65 -0.80 -1.05 0 -0.45 0.30 -0.65 0.75 -0.45 0.65 0.25 0.75 -0.50 0.75 -5 0 -4.20 -0.15 -5.30 -0.75 -5.50 -0.95 -0.40 -0.95 -2.50 0 -2.90 1.15 -0.45 1.05 -7.05 -0.10 -7.75 -0.85 -0.50 -0.80 -0.50 0.10 -0.55 0.95 -0.05 0.95 -0.05 0.15 -0.70 -1.05 -0.75 -1.20 -1.80 -0.25 -1.80 0.40 0 0.35 -0.20 -0.15 -0.50 -0.65 -0.40 -0.60 -0.50 0.15 -0.50 0.80 0 0.85 -1.10 0.85 -15.50 0 -13.50 -0.10 -15.55 -0.75 -15.80 -0.70 -0.30 -0.65 -0.40 0.10 -1 0.85 -0.65 0.85 -0.75 0 -1.40 -0.75 -0.60 -0.80 -0.70 -0.10 -1 1 -0.35 0.95 -2.15 -0.05 -2.70 -0.75 -0.40 -0.75 -0.50 0 -0.75 1 -0.40 1.05 -2.80 0.05 -3.15 -0.95 -0.40 -1.05 -3.70 -0.10 -3.70 0.40 0 0.35 -0.20 -0.15 -0.50 -0.65 -0.45 -0.65 -0.55 0 -1 0.65 -0.45 0.65 -0.55 0 -1 -0.65 -0.45 -0.65 -0.55 0 -1 0.65 -0.45 0.65 -0.55 0 -1 -0.65 -0.45 -0.65 -0.60 0.15 -1.05 1.05 -0.60 1.15 -2.40 0.10 -2.75 -0.90 -0.35 -1 -3 -0.10 -3.40 0.50 -0.25 0.50 -0.35 0 -0.60 -0.35 -0.15 -0.65 -0.60 -0.65 -0.95 0 -0.35 0.30 -0.80 0.65 -0.90 0.50 -0.20 0.50 -0.30 0 -0.30 -0.90 -0.05 -0.80 -1.55 0.10 -1.55 1.15 0 1.05 -4.30 -0.10 -4.95 -0.85 -0.50 -0.85 -0.50 0 -0.55 0.75 0 0.85 -0.45 0.65 -3.55 -0.10 -2.30 -0.45 -3.75 -0.85 -4 -0.45 -0.25 -0.50 -0.45 -0.15 -0.45 0.35 0 0.75 -0.80 0.90 -1.75 0.25 -1.35 0.10 -2.05 -0.75 -3.25 -0.65 -0.80 -1.40 -1.50 -1.75 -1.50 -0.35 0 -2.85 2.85 -5.55 6.40 -2.65 3.50 -6.45 8.40 -8.40 10.85 -7.05 8.90 -11.75 15.25 -11.75 15.75 0 0.25 -0.20 0.50 -0.45 0.50 -0.25 0 -3.65 4.20 -7.60 9.30 -3.95 5.15 -10.30 13.30 -14.10 18.15 -3.75 4.85 -10.35 13.30 -14.55 18.80 -4.25 5.50 -8.40 10.60 -9.30 11.35 -1.50 1.30 -1.65 1.35 -3 0.65 -0.75 -0.40 -2.15 -1.80 -3.15 -3.10 -3.70 -5.05 -7.55 -10 -9.30 -11.95 -3.85 -4.40 -5.05 -5.85 -5.05 -6.30 0 -0.70 -5.50 -7.90 -6.05 -7.90 -0.25 0 -0.45 -0.35 -0.45 -0.75 0 -0.40 -0.20 -0.75 -0.40 -0.75 -0.20 0 -1.30 -1.20 -2.35 -2.60 -1.60 -2.10 -7.15 -9.20 -9.15 -11.65 -0.20 -0.25 -0.55 -0.90 -0.75 -1.35 -0.15 -0.50 -0.55 -0.90 -0.85 -0.90 -0.25 0 -0.50 -0.20 -0.50 -0.50 0 -0.25 -0.35 -0.90 -0.75 -1.35 -0.40 -0.50 -6.35 -8.20 -13.25 -17.15 -6.90 -8.95 -12.85 -16.45 -13.20 -16.75 -0.35 -0.25 -0.75 -0.85 -0.90 -1.25 -0.15 -0.40 -1.55 -2.25 -3.10 -4.10 -2.70 -3.25 -4.30 -4.25 -4.30 -2.65 0 0.40 -0.20 0.75 -0.50 0.75 -0.30 0 -0.50 2.35 -0.50 6 0 5 0.15 6 0.75 6 0.45 0 0.75 0.45 0.75 1.25 0 0.80 -0.30 1.25 -0.75 1.25 -0.65 0 -0.75 8.50 -0.75 73.65 0 45.50 -0.20 73.90 -0.50 74.35 -0.40 0.65 -6.95 0.75 -53.20 0.90 -33.30 0.05 -52.85 -0.05 -53 -0.35z"/>
  <path d="M1080.40 303.75 c-0.65 -0.65 -0.85 -1.40 -0.65 -2.25 0.55 -2.35 1.30 -2.50 11.55 -2.50 8.95 0 9.65 0.05 10.90 1.05 1.45 1.15 1.40 2.35 -0.15 3.85 -0.70 0.75 -2.15 0.85 -10.75 0.85 -9.35 0 -10.05 -0.05 -10.90 -1z"/>
  <path d="M975 225.95 c-9.75 -0.85 -18.75 -6.50 -23.65 -14.85 -2.95 -5.05 -3.50 -7.75 -3.20 -15.30 0.45 -8.85 0.30 -8.30 3.20 -14.30 3.95 -8.05 13 -14.55 21.40 -15.35 1.80 -0.15 3.40 -0.50 3.55 -0.70 1.05 -1.75 14.60 1.20 19.70 4.30 4.15 2.55 8.05 6.90 10.95 12.15 2.90 5.25 3.60 8 3.25 12.60 -0.15 1.95 -0.05 3.30 0.25 3.50 1 0.60 -1 9.20 -2.60 11.25 -0.20 0.30 -1.10 1.65 -1.95 3 -2.45 3.80 -7.10 8 -11.40 10.25 -6.10 3.15 -11.70 4.15 -19.50 3.45z m9.40 -6.25 c11.25 -2.25 19.60 -12.65 19.60 -24.35 0 -3.75 -1.05 -7.40 -3 -10.35 -0.30 -0.40 -0.75 -1.30 -1 -1.95 -0.80 -1.80 -7 -7.75 -9.25 -8.90 -1.10 -0.55 -4.10 -1.30 -6.65 -1.65 -2.55 -0.35 -4.75 -0.85 -4.90 -1.10 -0.15 -0.20 -0.50 -0.30 -0.80 -0.10 -0.25 0.15 -1.40 0.35 -2.55 0.45 -5.20 0.35 -12.35 4 -15.55 7.95 -2.20 2.65 -4.30 6.65 -4.30 8.10 0 0.65 -0.20 1.20 -0.50 1.20 -0.25 0 -0.35 0.35 -0.20 0.75 0.15 0.40 -0.10 1.10 -0.55 1.60 -0.75 0.70 -0.85 1.55 -0.65 5.65 0.15 2.65 0.45 5.15 0.70 5.55 0.20 0.40 0.50 1.15 0.55 1.65 0.70 4.30 9.60 13.80 13 13.80 0.35 0 0.65 0.20 0.65 0.45 0 0.50 1.70 1 5.50 1.50 4.40 0.65 5.80 0.60 9.90 -0.25z"/>
  <path d="M872.55 224.75 c-1.15 -1.10 -1.15 -1.30 -0.60 -3.85 0.70 -2.95 1.30 -7 1.80 -11.90 0.20 -1.80 0.55 -3.30 0.80 -3.40 0.25 -0.10 0.45 -1.50 0.45 -3.05 0 -2.75 1.85 -16.95 3 -23.05 0.30 -1.50 0.75 -4.55 0.95 -6.75 0.90 -7.80 1.70 -7.65 6.10 1 1.80 3.60 4.15 8.20 5.25 10.25 1.05 2.05 1.90 3.90 1.95 4.10 0 0.15 0.15 0.50 0.40 0.70 0.20 0.20 0.35 0.75 0.35 1.20 0 0.45 0.45 1.25 1 1.75 0.55 0.50 1 1.25 1 1.65 0 0.40 0.80 2 1.75 3.60 0.95 1.60 1.75 3.05 1.75 3.25 0 0.20 0.70 1.50 1.50 2.85 0.85 1.30 1.50 2.70 1.50 3.10 0 0.35 0.45 1.25 1.05 2 0.55 0.75 1.10 1.60 1.15 1.95 0.35 2.50 2.45 2.45 3.50 0 0.45 -1.05 1.45 -3 2.30 -4.40 0.85 -1.35 1.90 -3.30 2.30 -4.25 1.40 -3.20 16.80 -33.75 17.25 -34.20 0.80 -0.90 2.45 1.25 2.45 3.15 0 1 0.35 3.45 0.75 5.50 0.60 2.70 0.65 3.80 0.25 4.05 -0.40 0.25 -0.35 0.45 0.20 0.65 0.90 0.35 1.10 2.35 0.25 2.35 -0.35 0 -0.45 0.55 -0.30 1.40 0.15 0.75 0.75 5.05 1.35 9.60 0.70 5.40 1.35 8.55 1.85 9.10 0.50 0.55 0.65 1.30 0.45 2.10 -0.15 0.70 -0.05 1.40 0.25 1.60 0.40 0.20 0.35 0.45 -0.10 0.75 -0.50 0.30 -0.55 0.55 -0.15 0.85 0.95 0.60 1.35 2.65 1.55 7.60 0.05 2.60 0.20 5.55 0.30 6.60 0.15 1.70 0.05 1.80 -1.65 2.10 -3.80 0.60 -4.85 -0.70 -5.30 -6.45 -0.10 -1.65 -0.55 -5.25 -1 -8 -0.75 -5.05 -1.55 -12.60 -2 -18.95 -0.15 -2.30 -0.50 -3.80 -1.05 -4.40 -0.80 -0.90 -0.90 -0.85 -2 1.20 -0.65 1.20 -1.40 2.50 -1.65 2.90 -0.40 0.60 -6.15 12.35 -8.75 17.85 -0.70 1.50 -5.45 10.50 -6.85 13 -0.60 1.15 -1.60 2.20 -2.15 2.35 -1.85 0.50 -1.90 0.45 -12.95 -21.45 -1.70 -3.35 -3.85 -7.85 -4.75 -10 -1.65 -3.75 -3.85 -7.25 -4.65 -7.25 -0.15 0 -0.45 2.40 -0.65 5.40 -0.20 2.95 -0.55 5.60 -0.80 5.85 -0.20 0.30 -0.45 1.50 -0.50 2.65 -0.10 1.15 -0.30 2.10 -0.55 2.10 -0.20 0 -0.20 0.50 0.05 1.15 0.60 1.55 0.10 6.35 -0.70 6.35 -0.85 0 -1.65 5.50 -1.40 9.90 0.15 3.25 0.10 3.35 -1.70 5.20 -2.15 2.20 -2.95 2.30 -4.60 0.65z"/>
  <path d="M1023 224.75 l-1.25 -1.35 -0.15 -27.05 c-0.15 -18.30 0 -27.55 0.35 -28.45 l0.55 -1.40 7.40 0 c5.75 0 8.30 0.20 11.25 0.95 4.70 1.25 6 1.90 8.80 4.55 5 4.80 4.70 13.70 -0.65 18.55 -2.20 2 -2.25 2.15 -1.45 3.05 0.45 0.50 1.75 1.35 2.90 1.85 1.10 0.50 2.65 1.65 3.40 2.60 0.75 0.95 1.65 2.05 2 2.45 0.30 0.40 0.65 0.95 0.65 1.25 0.20 1.50 0.85 3.75 1.15 3.75 0.60 0 0.50 3.50 -0.10 3.50 -0.40 0 -0.40 0.15 0.05 0.45 0.50 0.30 0.45 1.05 -0.45 3.60 -0.60 1.75 -1.30 3.30 -1.50 3.35 -0.25 0.10 -0.45 0.45 -0.50 0.75 -0.05 1.25 -5.55 5.25 -8.60 6.35 -1.70 0.60 -3.75 1.45 -4.55 1.90 -1.10 0.55 -1.55 0.60 -1.70 0.20 -0.25 -0.80 -3.45 -0.75 -3.75 0.05 -0.20 0.50 -0.30 0.50 -0.30 0 -0.05 -0.70 -1.55 -0.90 -1.55 -0.25 0 0.20 -1.70 0.40 -3.75 0.40 -2.05 0.05 -3.75 -0.15 -3.75 -0.35 0 -0.65 -2.90 -0.55 -3.10 0.10 -0.10 0.25 -0.75 -0.10 -1.40 -0.80z m20.90 -6.90 c5.55 -1.50 9 -7.50 7 -12.20 -0.70 -1.65 -4.35 -5.65 -5.20 -5.65 -0.30 0 -1.20 -0.50 -1.95 -1.10 -1.30 -1 -1.90 -1.10 -6.35 -1 -3.35 0.10 -4.90 0 -4.90 -0.40 0 -0.35 -0.65 -0.50 -1.60 -0.40 l-1.65 0.15 -0.25 10.50 c-0.15 6.70 -0.05 10.65 0.25 10.90 0.75 0.60 11.60 0 14.65 -0.80z m-5.60 -27.65 c2.15 -0.40 4.90 -1.95 6.45 -3.65 0.70 -0.85 1 -2 1.15 -4.45 0.15 -3.15 0.05 -3.45 -1.50 -5.35 -0.90 -1.10 -2 -2.05 -2.35 -2.15 -5.60 -1.25 -8.40 -1.65 -10.40 -1.50 l-2.40 0.15 -0.15 8.25 c-0.05 4.50 0 8.50 0.10 8.85 0.25 0.65 5.20 0.60 9.10 -0.15z"/>
  <path d="M1088.65 224.60 l-1.15 -1.15 0 -27.20 c0 -19.85 0.15 -27.55 0.60 -28.50 0.55 -1.20 0.80 -1.30 3.35 -1.15 l2.80 0.15 0.15 25.80 0.10 25.85 1.15 0.30 c0.60 0.15 5.25 0.30 10.35 0.30 5.10 0 9.55 0.20 9.95 0.45 0.45 0.30 0.75 1.35 0.75 2.90 0.05 2.25 -0.05 2.40 -1.30 2.55 -0.80 0.10 -1.40 0.35 -1.40 0.55 0 0.20 -5.45 0.35 -12.10 0.30 -11.95 0 -12.10 0 -13.25 -1.15z"/>
  <path d="M1153.35 225.10 c-0.75 -0.85 -0.85 -3.25 -0.85 -25.50 0 -16.80 -0.15 -24.90 -0.55 -25.50 -0.45 -0.75 -1.25 -0.85 -5.90 -0.70 -6.10 0.20 -6.30 0.10 -6.75 -3.45 -0.20 -1.65 -0.10 -2.50 0.35 -2.85 0.45 -0.40 5.50 -0.60 15.65 -0.60 14.85 -0.05 14.95 -0.05 15.85 1.05 1.10 1.40 0.75 3.80 -0.80 5.10 -0.95 0.80 -1.75 0.85 -6 0.65 -3.75 -0.20 -5.10 -0.15 -5.60 0.40 -0.55 0.55 -0.65 5.20 -0.60 25.50 0.10 24.35 0.10 24.85 -0.90 25.50 -1.90 1.25 -3.05 1.35 -3.90 0.40z"/>
  <path d="M1181.05 225.50 c-1.55 -0.95 -2.25 -7 -0.85 -7 1 0 0.90 -44.05 -0.05 -44.40 -0.90 -0.25 -0.80 -1.95 0.10 -2.30 0.55 -0.20 0.70 -0.90 0.60 -2.65 l-0.10 -2.40 16.45 -0.15 c9.85 -0.05 16.70 0.10 16.95 0.35 0.25 0.25 0.50 1.50 0.55 2.75 0.10 3.70 -0.35 3.80 -15.30 3.75 l-12.65 -0.10 -0.15 8.30 -0.10 8.25 2.45 0.35 c1.35 0.20 7.30 0.25 13.25 0.15 l10.80 -0.15 0.80 1.20 c0.50 0.65 0.90 1.85 0.90 2.60 0.05 1.15 -0.25 1.55 -1.45 2.05 -0.80 0.30 -1.65 0.85 -1.85 1.10 -0.25 0.35 -0.40 0.40 -0.40 0.05 0 -0.30 -0.55 -0.60 -1.25 -0.65 -0.70 -0.05 -1.25 0.15 -1.25 0.40 0 0.70 -18.85 0.65 -19.25 0 -0.50 -0.80 -2.10 -0.60 -2.45 0.30 -0.15 0.45 -0.30 5.35 -0.30 10.95 0 8.80 0.10 10.20 0.80 10.45 0.45 0.15 6.35 0.30 13.15 0.30 14.20 0 14.85 0.15 14.25 3.40 -0.15 1 -0.55 2.10 -0.90 2.45 -0.70 0.75 -22.30 1.40 -22.30 0.65 0 -0.25 -0.35 -0.50 -0.75 -0.50 -0.40 0 -0.75 0.20 -0.75 0.40 0 0.45 -8.30 0.50 -8.95 0.10z"/>
  <path d="M1229.35 225.25 c-4.10 -1.50 -9.90 -7.05 -10.70 -10.15 -0.35 -1.40 1 -2.85 3.20 -3.40 1.05 -0.30 1.70 0.20 4.50 3.25 5.10 5.60 8.40 6.70 13.50 4.50 4.20 -1.80 6.65 -4.80 6.65 -8.25 0 -4.35 -3.15 -7.90 -15.60 -17.65 -5.45 -4.25 -6.30 -5.15 -7.60 -7.80 -3.30 -6.90 -0.75 -15.45 5.40 -18.20 4 -1.80 7.70 -2.70 9.70 -2.35 3.80 0.60 7.20 2.55 10.50 6 1.70 1.80 3.10 3.45 3.10 3.70 0 0.65 -3.60 2.80 -4.65 2.75 -0.55 -0.05 -1.95 -0.95 -3.05 -2.05 -2.10 -1.95 -6 -4.10 -7.50 -4.10 -1.30 0 -6.70 3.60 -7.25 4.90 -1 2.10 -0.70 4.10 1.15 8.05 0.30 0.65 3.50 3.40 7.05 6.05 8.50 6.40 11.75 9.80 14.25 15.15 1.95 4.15 2.40 6.05 1.55 6.55 -0.20 0.15 -0.55 1.35 -0.70 2.65 -0.20 2 -0.70 2.85 -2.70 5 -1.30 1.40 -3.70 3.35 -5.25 4.35 -2.85 1.80 -2.90 1.80 -8.25 1.75 -3.30 0 -6.15 -0.30 -7.30 -0.70z"/>
  <path d="M1127.60 224.95 c-0.90 -0.20 -1.75 -0.45 -1.90 -0.60 -0.85 -0.80 -1 -6.05 -0.90 -30 0.05 -20 0.25 -26.55 0.70 -27.10 0.70 -0.85 4.10 -1 5.55 -0.25 0.90 0.50 0.95 1.35 0.95 28.75 l0 28.20 -1.35 0.65 c-0.90 0.45 -2 0.55 -3.05 0.35z"/>
  <path d="M1069.65 224.50 c-0.60 -0.25 -1.15 -0.85 -1.30 -1.35 -0.35 -1.20 -0.40 -54.20 -0.05 -55.25 0.35 -1.10 2.95 -2 4.35 -1.45 0.60 0.25 1.50 0.95 2 1.55 0.85 1 0.90 2.60 0.85 24.90 0 18.20 -0.15 23.90 -0.65 24.20 -0.45 0.30 -0.45 0.40 0.05 0.40 0.30 0 0.60 0.55 0.60 1.25 0 0.70 -0.30 1.25 -0.60 1.25 -0.45 0 -0.40 0.20 0.10 0.50 0.50 0.30 0.55 0.50 0.15 0.50 -0.35 0 -0.65 0.40 -0.65 0.90 0 2.40 -2.25 3.65 -4.85 2.60z"/>
  <path d="M1192.55 161.55 c-0.75 -0.50 0.05 -1.90 3.30 -5.75 0.90 -1.10 1.65 -2.20 1.65 -2.50 0 -0.30 0.80 -1.40 1.75 -2.40 1.55 -1.75 1.90 -1.90 4.35 -1.90 1.45 0 2.90 0.20 3.20 0.40 1.60 1.10 1.05 2.10 -4.25 7.30 -5 4.90 -5.55 5.30 -7.35 5.30 -1.05 0 -2.25 -0.20 -2.65 -0.45z"/>
  <path d="M952.10 105.15 c-0.65 -0.35 -1.85 -0.65 -2.60 -0.65 -1.60 0 -2.05 -0.75 -1.40 -2.45 0.25 -0.65 0.40 -11.40 0.40 -23.85 -0.05 -19 -0.20 -22.75 -0.80 -23.25 -1 -0.80 -1.15 -0.65 -8 8.35 -10.50 13.80 -13.95 17.95 -14.95 18.05 -1.20 0.15 -3.45 -1.80 -5.45 -4.75 -0.80 -1.15 -1.90 -2.60 -2.50 -3.25 -1.25 -1.35 -5.10 -6.30 -6.55 -8.35 -3.85 -5.45 -8 -10.45 -8.40 -10.05 -0.30 0.30 -0.45 10 -0.40 24.40 l0.10 23.95 -1.30 1.10 c-1.25 1.10 -1.50 1.10 -16 1.10 -13.20 0 -14.85 -0.10 -15.75 -0.85 -1 -0.85 -1 -1.40 -1 -48.90 0 -36.70 0.15 -48.20 0.60 -48.65 0.80 -0.80 31.30 -0.85 33 -0.05 1.30 0.60 6.90 7.30 7.50 8.90 0.20 0.60 0.55 1.05 0.80 1.05 0.25 0 1.25 1.40 2.30 3.15 2.60 4.35 10.90 15.90 11.90 16.55 1.15 0.70 3 -0.35 3.80 -2.10 0.30 -0.75 1.20 -2 1.95 -2.85 0.80 -0.80 1.65 -1.85 1.90 -2.35 1.45 -2.60 15.55 -22 16.25 -22.40 1.15 -0.60 2.25 -0.65 18.30 -0.55 13.35 0.05 14.05 0.10 15.10 1.05 l1.10 1.05 0 47.45 c0 26.15 -0.20 47.50 -0.40 47.50 -0.25 0 -0.90 0.45 -1.45 1 -1 0.90 -1.95 1 -13.95 1.10 -9.60 0.10 -13.20 0 -14.10 -0.45z"/>
  <path d="M1031 105.40 c-0.95 -0.25 -1.85 -0.65 -2 -0.85 -0.15 -0.25 -1.15 -0.70 -2.25 -1.05 -7.80 -2.50 -15.90 -7.65 -21.70 -13.75 -8.15 -8.65 -12.25 -17.35 -13.50 -29 -0.95 -8.30 0.15 -15.40 3.80 -24.20 2.20 -5.35 5.10 -9.75 9.95 -14.95 4.70 -5.10 8.65 -8.05 14.75 -11.15 7.10 -3.55 10.95 -4.35 21.35 -4.55 4.70 -0.10 8.60 -0.05 8.60 0.10 0 0.15 1.30 0.30 2.90 0.35 3.70 0.10 17.10 5 17.10 6.20 0 0.25 0.30 0.45 0.65 0.45 1.50 0 12.10 10 14.40 13.60 0.85 1.30 1.75 2.40 1.95 2.40 0.55 0 2.65 4.50 4.30 9.25 0.50 1.40 1.05 2.75 1.30 3.05 0.80 1.10 1.95 9.55 2 14.95 0.10 6.05 -1.35 15.70 -2.40 16.10 -0.35 0.15 -0.55 0.50 -0.40 0.90 0.15 0.35 -0.10 0.95 -0.50 1.40 -0.40 0.40 -0.60 0.85 -0.45 1.05 0.20 0.15 0.05 0.30 -0.25 0.30 -0.35 0 -0.60 0.30 -0.60 0.70 0 0.40 -0.35 1.10 -0.80 1.50 -0.40 0.45 -0.65 0.80 -0.45 0.80 0.25 0 -1.15 2.45 -1.75 3 -0.15 0.15 -0.60 0.90 -1 1.70 -0.40 0.75 -2.60 3.40 -4.90 5.85 -5.80 6.15 -12.75 10.70 -20.60 13.40 -1.80 0.65 -3.60 1.25 -4 1.40 -0.40 0.15 -1.55 0.40 -2.50 0.50 -0.95 0.10 -1.95 0.40 -2.20 0.70 -0.65 0.60 -18.55 0.50 -20.80 -0.15z m13.40 -31.85 c0.45 -0.25 2.10 -0.70 3.60 -1.05 1.50 -0.35 3.70 -1.30 4.80 -2.05 2.70 -1.85 6.15 -5.75 6.55 -7.40 0.15 -0.70 0.55 -1.60 0.85 -2 0.30 -0.40 0.55 -2.55 0.55 -5 -0.05 -4.30 -0.30 -5.20 -3 -10.10 -1.15 -2.05 -5.10 -5.45 -7.65 -6.55 -1.50 -0.70 -3.80 -1.15 -6.40 -1.25 -3.80 -0.25 -4.30 -0.15 -7.75 1.45 -4.35 2.05 -7.40 5.05 -9.35 9.30 -1.10 2.40 -1.30 3.55 -1.30 7.35 0 3.85 0.20 4.85 1.30 7.05 1.70 3.25 6.20 7.35 9.25 8.45 1.35 0.45 3.10 1.15 3.90 1.50 1.80 0.80 3.45 0.90 4.65 0.30z"/>
  <path d="M1144.75 105.25 c-1.10 -0.35 -3.80 -1.10 -6 -1.70 -5.15 -1.40 -9.20 -3.30 -14.05 -6.60 -4.55 -3.05 -11.60 -9.95 -12.85 -12.55 -0.45 -0.95 -1.15 -2.05 -1.60 -2.40 -0.40 -0.35 -0.75 -0.90 -0.75 -1.30 0 -0.35 -0.65 -1.95 -1.50 -3.55 -0.80 -1.55 -1.50 -3.15 -1.50 -3.45 0 -0.30 -0.35 -0.85 -0.75 -1.20 -0.45 -0.35 -0.70 -0.75 -0.55 -0.85 0.10 -0.10 -0.10 -0.80 -0.50 -1.55 -0.35 -0.75 -0.50 -1.40 -0.30 -1.50 0.45 -0.15 -0.70 -5.70 -1.50 -7.45 -0.65 -1.35 -0.20 -13.50 0.60 -16.40 4.30 -15.50 14.70 -28.15 28.30 -34.55 7.50 -3.55 9.15 -3.80 24.55 -4.40 5.85 -0.20 7.55 0 13.40 1.80 7.15 2.20 19 9.25 20.95 12.45 0.75 1.30 0.75 1.30 -4.05 6 -2.70 2.60 -7.70 7.55 -11.15 11.10 -3.60 3.65 -6.65 6.35 -7.20 6.35 -0.50 0 -1.75 -0.65 -2.80 -1.50 -1.05 -0.80 -2.25 -1.50 -2.70 -1.50 -0.45 0 -0.80 -0.20 -0.80 -0.50 0 -0.25 -0.30 -0.35 -0.70 -0.20 -0.35 0.15 -1.05 -0.10 -1.50 -0.55 -0.45 -0.45 -0.80 -0.60 -0.80 -0.30 0 0.35 -0.65 0.30 -1.85 -0.20 -1.50 -0.65 -2.35 -0.70 -4.25 -0.30 -1.30 0.30 -2.70 0.40 -3.05 0.25 -2.35 -0.90 -10 5.35 -11.25 9.10 -2.80 8.60 -2.90 10 -1.15 13.45 0.60 1.05 1.05 2.35 1.05 2.80 0 1.50 4.60 5.80 7.50 7.10 3.85 1.70 4.70 2 5.20 1.90 0.20 -0.05 0.65 0.10 1 0.35 0.30 0.25 1.45 0.50 2.60 0.55 2.20 0.10 6.75 -1.85 10.55 -4.55 1.30 -0.95 2.40 -1.40 3 -1.20 0.50 0.15 5.70 4.95 11.55 10.70 8.40 8.20 10.60 10.60 10.60 11.65 0 1 -0.90 1.95 -4.40 4.60 -5.15 3.90 -12.20 7.35 -18.10 8.85 -2.35 0.60 -4.65 1.25 -5.10 1.55 -1.30 0.65 -15.75 0.45 -18.15 -0.30z"/>
  <path d="M1194.40 104.55 c-0.95 -0.95 -1.20 -2.30 -0.45 -2.75 0.25 -0.15 0.70 -1.75 1.05 -3.55 0.35 -1.80 0.80 -3.40 1.05 -3.55 0.25 -0.15 0.45 -0.65 0.45 -1.10 0 -0.45 1.25 -4.80 2.80 -9.60 1.55 -4.80 3.30 -10.80 3.95 -13.25 0.65 -2.50 1.50 -5.55 1.90 -6.75 0.40 -1.25 1.25 -3.95 1.85 -6 0.60 -2.05 1.40 -4.65 1.75 -5.75 0.35 -1.10 1.35 -4.25 2.20 -7 0.85 -2.75 2.20 -7.20 3.05 -9.85 0.80 -2.65 1.60 -5.35 1.70 -6 0.15 -0.65 0.25 -1.25 0.30 -1.40 0.10 -0.15 0.10 -0.45 0.05 -0.70 -0.05 -0.20 0.10 -0.65 0.40 -1 0.25 -0.30 0.55 -1.35 0.70 -2.35 0.25 -2.05 1.60 -6.40 2.70 -8.90 0.40 -0.95 0.80 -2.20 0.85 -2.85 0 -0.65 0.25 -1.20 0.50 -1.20 0.20 0 0.30 -0.35 0.10 -0.75 -0.15 -0.40 -0.05 -0.75 0.20 -0.75 0.30 0 0.50 -0.45 0.50 -0.95 0 -1.10 0.45 -1.50 2.10 -1.80 1.95 -0.40 48.15 -0.30 49.15 0.05 1.35 0.50 3.40 2.55 2.75 2.80 -0.30 0.10 -0.05 1.55 0.70 3.90 0.65 2.05 1.80 5.80 2.55 8.25 0.75 2.50 1.65 4.85 2 5.25 0.90 1 3.40 9.90 2.95 10.55 -0.35 0.55 2.30 9.10 3 9.65 0.60 0.50 2.25 6.15 2.50 8.55 0.10 0.55 0.25 1.35 0.40 1.75 0.20 0.40 0.45 1.45 0.65 2.25 0.15 0.85 0.60 2.20 0.95 3 1.80 4.05 2.20 5.15 2.75 7 0.25 1.10 0.40 2.50 0.25 3.15 -0.20 0.65 -0.10 1.10 0.25 1.10 0.35 0 0.50 0.20 0.35 0.45 -0.15 0.20 0.05 0.85 0.45 1.35 0.35 0.50 0.60 1.45 0.45 2 -0.20 0.70 0 1.20 0.60 1.40 0.80 0.30 0.80 0.40 0.20 0.80 -0.65 0.40 -0.60 0.60 0.25 1.20 0.55 0.45 0.75 0.80 0.40 0.80 -0.45 0 -0.40 0.65 0.20 2.40 0.40 1.30 1 2.70 1.20 3.10 0.65 1.10 0.70 1.20 2.95 8.35 l2.05 6.65 -1 1.10 c-0.60 0.60 -1.05 1.25 -1.05 1.50 0 0.20 -7.10 0.40 -15.75 0.40 -14.75 0 -15.85 -0.05 -16.80 -0.95 -1.15 -1.05 -2.45 -4.95 -2.45 -7.35 0 -1.15 -0.30 -1.85 -0.95 -2.20 -0.65 -0.30 -7.05 -0.50 -17.45 -0.50 -18.80 0 -17.70 -0.25 -18.65 4.55 -0.35 1.90 -1.05 3.30 -2.20 4.60 l-1.65 1.85 -15.45 -0.05 c-14.05 0 -15.50 -0.10 -16.25 -0.90z m63.80 -36.85 c0.75 -0.50 0.85 -1 0.55 -2.55 -0.20 -1.05 -0.65 -2.25 -1 -2.65 -0.35 -0.40 -1.20 -2.75 -1.90 -5.25 -2.90 -10.20 -4.35 -15.65 -4.95 -18.70 -1.10 -5.35 -2.90 -6.50 -3.90 -2.50 -0.70 2.95 -2.30 8.85 -5.50 20.15 -1.65 6 -3 10.95 -2.90 11.05 1.25 0.95 3.20 1.20 10.45 1.15 6.05 0 8.50 -0.20 9.15 -0.70z"/>
  <path d="M1325.75 104.05 c-5.05 -1.30 -10.35 -6.05 -12.20 -10.85 -1.70 -4.45 -1.85 -7.05 -0.65 -10.50 3 -8.65 7.30 -12.65 14.85 -14 6.25 -1.05 11.60 0.35 15.55 4.20 5.45 5.30 6.35 7.25 6.35 13.90 0 5.95 -0.70 7.75 -4.25 11.50 -4.10 4.30 -7.55 5.80 -13.65 6 -2.45 0.10 -5.15 0 -6 -0.25z"/>
  <path d="M611.90 98.05 c-0.15 -0.45 -13.95 -2.15 -18.40 -2.25 -1.25 -0.05 -2.40 -0.25 -2.60 -0.55 -0.25 -0.30 -0.40 -0.25 -0.40 0.15 0 0.85 -0.80 0.75 -1.80 -0.25 -0.50 -0.55 -0.95 -0.65 -1.05 -0.35 -0.25 0.70 -3.25 0.30 -3.90 -0.50 -0.25 -0.35 -1.75 -0.75 -3.25 -0.90 -1.55 -0.20 -3.75 -0.80 -4.85 -1.40 -1.30 -0.65 -2.50 -0.95 -3.15 -0.75 -0.60 0.20 -1 0.10 -1 -0.25 0 -0.35 -0.35 -0.50 -0.75 -0.30 -0.40 0.15 -0.75 0.05 -0.75 -0.20 0 -0.25 -0.35 -0.35 -0.75 -0.20 -0.40 0.20 -0.75 0.05 -0.75 -0.30 0 -0.35 -0.35 -0.50 -0.85 -0.30 -0.45 0.20 -1 0.10 -1.15 -0.25 -0.20 -0.30 -0.95 -0.60 -1.70 -0.60 -0.70 -0.05 -1.30 -0.25 -1.30 -0.45 0 -0.45 -3.05 -1.45 -3.55 -1.10 -0.25 0.15 -0.45 0.05 -0.45 -0.20 0 -0.30 -0.70 -0.75 -1.60 -1.05 -7.55 -2.65 -23.30 -10.95 -32.50 -17.15 -2.45 -1.60 -4.40 -2.80 -4.40 -2.60 0 0.15 -0.40 -0.15 -0.85 -0.65 -0.50 -0.55 -3.70 -3.20 -7.10 -5.95 -9.35 -7.45 -17.40 -15.60 -25.85 -26.25 -2.70 -3.40 -5.10 -6.25 -5.30 -6.35 -0.20 -0.10 -0.40 -0.50 -0.40 -0.90 0 -0.40 -0.20 -0.70 -0.50 -0.70 -0.25 0 -0.50 -0.30 -0.50 -0.65 0 -0.35 -0.50 -1.35 -1.10 -2.20 -1.95 -2.65 -2.35 -3.25 -4.80 -7.60 -2.20 -3.90 -2.35 -4.30 -1.65 -5.15 0.75 -0.85 6.80 -0.90 146.85 -0.90 141.20 0 146.05 0.05 146.90 0.90 0.75 0.90 0.65 1.25 -2.45 6.40 -1.80 3 -3.55 5.70 -3.90 5.95 -0.35 0.30 -1.65 1.95 -2.85 3.75 -1.20 1.80 -3.20 4.60 -4.45 6.25 -1.25 1.65 -2.50 3.30 -2.80 3.65 -1.85 2.40 -15.25 16.70 -16.80 17.95 -2.75 2.10 -9.25 7.90 -9.45 8.45 -0.40 1 -8.95 6.90 -12.50 8.65 -1.80 0.85 -3.60 1.80 -4 2.05 -2.80 1.75 -8.75 5.15 -11.50 6.50 -1.80 0.90 -3.65 2.05 -4.15 2.55 -0.45 0.50 -1.20 0.80 -1.60 0.65 -0.40 -0.20 -0.90 0.05 -1.05 0.50 -0.20 0.55 -0.65 0.70 -1.25 0.55 -0.60 -0.20 -1.05 -0.05 -1.25 0.45 -0.15 0.45 -0.50 0.65 -0.75 0.50 -0.25 -0.15 -2.75 0.65 -5.60 1.75 -2.80 1.10 -6.65 2.50 -8.60 3.10 -1.90 0.60 -3.75 1.40 -4.05 1.80 -0.50 0.55 -0.65 0.60 -0.85 0.05 -0.20 -0.50 -0.45 -0.45 -1 0.25 -0.55 0.60 -1.10 0.75 -2.30 0.55 -1.15 -0.25 -1.55 -0.15 -1.55 0.40 0 0.85 -7.90 2.75 -9.25 2.20 -1.30 -0.50 -5.25 0.25 -5.25 1 0 0.55 -1.25 0.70 -5.85 0.70 -7.60 0 -11.15 0.45 -11.15 1.30 0 0.40 -0.55 0.70 -1.25 0.70 -0.70 0 -1.25 -0.20 -1.25 -0.50 0 -0.25 -0.35 -0.50 -0.75 -0.50 -0.40 0 -0.75 0.25 -0.75 0.50 0 0.65 -14.35 0.70 -14.60 0.05z"/>
 </g>
</svg>