<svg viewBox="0 0 233 67" xmlns="http://www.w3.org/2000/svg" fill-rule="evenodd" clip-rule="evenodd" stroke-linejoin="round" stroke-miterlimit="1.414"><path d="M211.254 18.663v-.01h21.025v-8.315h-21.11v.004c-3.843.05-7.393 1.41-9.851 3.767-2.089 2.003-3.394 4.722-3.394 7.997 0 4.697 3.758 7.64 8.266 9.079 6.638 2.568 9.205 2.881 9.205 5.261 0 1.692-1.878 2.693-3.631 2.693-.439 0-3.508 0-3.945-3.194h-10.332c.938 9.143 8.891 11.523 14.151 11.523 3.481 0 6.698-.929 9.187-2.643 3.021-2.079 4.966-5.319 4.966-9.506 0-7.515-6.262-9.269-12.149-10.896-2.755-.814-5.322-1.879-5.322-3.444 0-.938.75-2.312 2.934-2.316m-28.108 11.772c0 3.569-.815 7.263-6.012 7.263-4.697 0-5.511-3.381-5.511-7.201V11.523h-10.395v21.729c0 4.697 1.189 14.215 12.963 14.215 6.262 0 8.454-3.193 9.644-4.885v3.696h9.706V11.523h-10.395v18.912zM45.444 0a.008.008 0 0 1-.004.004l.049 5.529.201 22.695c0 .004-.005.006-.007.002l-10.58-16.801-2.101-3.335L27.907.002 27.903 0H17.702a.008.008 0 0 1-.004.004v30.137a4.863 4.863 0 0 1-4.863 4.863H.813l-.004.004v11.328l.004.004 15.185.011 1.146.001c.175 0 .345-.018.518-.026 6.169-.267 11.096-5.336 11.103-11.573l.018-16.328.008-.002 17.713 27.915.003.002H56.77a.018.018 0 0 1 .005-.004V.004A.018.018 0 0 1 56.77 0H45.444z" fill="#1a1619" fill-rule="nonzero"/><path d="M1.689 54.964H4v7.019h2.679v2.03h-4.99v-9.049zm10.53 4.818c-.049-.318-.465-1.076-1.516-1.076-1.052 0-1.468.758-1.516 1.076h3.032zm-3.057 1.541c.086.721.77 1.199 1.565 1.199.648 0 .991-.282 1.236-.636h2.078c-.33.757-.806 1.345-1.381 1.736a3.299 3.299 0 0 1-1.933.611c-1.945 0-3.595-1.577-3.595-3.595 0-1.895 1.492-3.644 3.559-3.644 1.039 0 1.932.404 2.568 1.076.856.917 1.113 2.005.954 3.253H9.162zm9.124-2.189c-.013-.147-.037-.513-.636-.513-.428 0-.575.268-.575.452 0 .305.502.513 1.04.673 1.149.317 2.372.66 2.372 2.127 0 1.493-1.26 2.372-2.764 2.372-1.027 0-2.58-.464-2.763-2.249h2.018c.085.623.684.623.77.623.342 0 .709-.195.709-.525 0-.465-.502-.527-1.798-1.028-.879-.282-1.613-.856-1.613-1.773 0-1.406 1.222-2.299 2.629-2.299.892 0 2.433.355 2.605 2.14h-1.994zm7.4-.367h-1.002v-1.541h1.002v-2.262h2.03v2.262h.979v1.541h-.979v5.247h-2.03v-5.247zm3.877-1.541h1.908v.758c.195-.367.55-.99 1.725-.99v2.042h-.074c-1.04 0-1.529.379-1.529 1.333v3.644h-2.03v-6.787zm5.98 3.424c0 .624.466 1.7 1.689 1.7.721 0 1.162-.342 1.418-.759a1.86 1.86 0 0 0 .282-.867 1.744 1.744 0 0 0-.172-.893c-.219-.465-.684-.942-1.541-.942-1.162 0-1.676.979-1.676 1.749v.012zm5.418 3.364h-2.029v-.734c-.368.66-1.211.965-2.006.965-2.152 0-3.412-1.687-3.412-3.631 0-2.226 1.602-3.621 3.412-3.621 1.113 0 1.737.539 2.006.954v-.721h2.029v6.788zm1.482-6.788h1.895v.721c.232-.33.661-.953 1.871-.953 2.287 0 2.519 1.859 2.519 2.776v4.243h-2.029v-3.705c0-.746-.159-1.406-1.064-1.406-1.003 0-1.162.721-1.162 1.418v3.693h-2.03v-6.787zm10.616 1.908c-.012-.147-.037-.513-.637-.513-.427 0-.574.268-.574.452 0 .305.502.513 1.04.673 1.15.317 2.372.66 2.372 2.127 0 1.493-1.26 2.372-2.764 2.372-1.027 0-2.581-.464-2.763-2.249h2.018c.085.623.684.623.77.623.342 0 .709-.195.709-.525 0-.465-.501-.527-1.798-1.028-.88-.282-1.614-.856-1.614-1.773 0-1.406 1.223-2.299 2.629-2.299.893 0 2.434.355 2.605 2.14h-1.993zm8.561 1.48c0-.795-.587-1.725-1.701-1.725-.489 0-.916.196-1.222.514a1.778 1.778 0 0 0-.476 1.235c0 .477.182.905.488 1.21a1.71 1.71 0 0 0 1.21.502c1.065 0 1.701-.868 1.701-1.724v-.012zm-5.344-3.388h1.908v.746c.44-.513 1.112-.978 2.151-.978 2.41 0 3.315 2.115 3.315 3.693 0 1.956-1.37 3.559-3.302 3.559-1.224 0-1.798-.587-2.043-.844v2.874h-2.029v-9.05zm10.236 3.4c0 .979.747 1.7 1.627 1.7.881 0 1.626-.721 1.626-1.712s-.745-1.713-1.626-1.713c-.88 0-1.627.722-1.627 1.713v.012zm-2.029-.024c0-1.651 1.186-3.596 3.656-3.596 2.471 0 3.657 1.945 3.657 3.608s-1.186 3.607-3.657 3.607c-2.47 0-3.656-1.944-3.656-3.607v-.012zm8.451-3.376h1.908v.758c.196-.367.55-.99 1.724-.99v2.042h-.073c-1.04 0-1.529.379-1.529 1.333v3.644h-2.03v-6.787zm5.1 1.541h-1.002v-1.541h1.002v-2.262h2.03v2.262h.978v1.541h-.978v5.247h-2.03v-5.247zm6.776.367c-.013-.147-.037-.513-.636-.513-.428 0-.575.268-.575.452 0 .305.501.513 1.039.673 1.15.317 2.373.66 2.373 2.127 0 1.493-1.26 2.372-2.764 2.372-1.027 0-2.581-.464-2.764-2.249h2.019c.084.623.684.623.77.623.341 0 .709-.195.709-.525 0-.465-.502-.527-1.798-1.028-.88-.282-1.614-.856-1.614-1.773 0-1.406 1.223-2.299 2.629-2.299.893 0 2.434.355 2.605 2.14H84.81zm12.341 1.48c0-.795-.587-1.725-1.701-1.725-.489 0-.916.196-1.222.514a1.78 1.78 0 0 0-.477 1.235 1.695 1.695 0 0 0 1.699 1.712c1.065 0 1.701-.868 1.701-1.724v-.012zm-5.345-3.388h1.909v.746c.44-.513 1.112-.978 2.151-.978 2.41 0 3.315 2.115 3.315 3.693 0 1.956-1.37 3.559-3.302 3.559-1.223 0-1.798-.587-2.043-.844v2.874h-2.03v-9.05zm14.811 6.788h-1.895v-.722c-.232.33-.661.954-1.883.954-2.3 0-2.532-1.859-2.532-2.776v-4.244h2.031v3.705c0 .747.158 1.407 1.076 1.407 1.015 0 1.173-.721 1.173-1.419v-3.693h2.03v6.788zm6.776-3.412c0-.869-.66-1.713-1.664-1.713-1.076 0-1.687.869-1.687 1.713 0 .942.636 1.748 1.651 1.748 1.04 0 1.7-.844 1.7-1.736v-.012zm-5.307-5.638h2.03v2.801c.721-.771 1.687-.771 1.968-.771 1.419 0 3.339 1.015 3.339 3.583 0 2.446-1.7 3.669-3.424 3.669-.954 0-1.688-.465-1.969-.954v.721h-1.944v-9.049z" fill="#7eb641" fill-rule="nonzero"/><path fill="#7eb641" d="M116.562 54.964h2.03v9.049h-2.03z"/><path d="M120.06 57.226h2.029v6.788h-2.029v-6.788zm0-2.262h2.029v1.541h-2.029v-1.541zm10.358 6.469c-.366 1.541-1.724 2.8-3.559 2.8-2.053 0-3.632-1.614-3.632-3.631 0-1.993 1.554-3.608 3.584-3.608 1.798 0 3.253 1.187 3.595 2.849h-2.055c-.22-.465-.623-.953-1.466-.953a1.46 1.46 0 0 0-1.175.476c-.281.319-.441.759-.441 1.248 0 .99.649 1.724 1.616 1.724.843 0 1.246-.489 1.466-.905h2.067zm4.001-2.299c-.013-.147-.038-.513-.636-.513-.429 0-.575.268-.575.452 0 .305.501.513 1.04.673 1.149.317 2.372.66 2.372 2.127 0 1.493-1.26 2.372-2.764 2.372-1.028 0-2.58-.464-2.764-2.249h2.019c.084.623.684.623.77.623.342 0 .709-.195.709-.525 0-.465-.502-.527-1.798-1.028-.88-.282-1.614-.856-1.614-1.773 0-1.406 1.222-2.299 2.629-2.299.892 0 2.434.355 2.605 2.14h-1.993zm7.631 1.59c.012 1.321.93 2.629 2.642 2.629.734 0 1.406-.293 1.871-.77a2.58 2.58 0 0 0 .734-1.896c0-.746-.281-1.382-.758-1.846a2.578 2.578 0 0 0-1.859-.759c-1.517 0-2.63 1.15-2.63 2.63v.012zm6.091 3.29h-.868v-1.358c-.466.868-1.346 1.541-2.715 1.541-2.104 0-3.4-1.638-3.4-3.485 0-1.957 1.418-3.461 3.387-3.461 1.444 0 2.397.831 2.69 1.516v-3.803h.906v9.05zm7.424-3.755c-.061-1.15-1.174-2.275-2.531-2.238-1.418 0-2.47 1.04-2.556 2.238h5.087zm-5.099.722c.049 1.65 1.455 2.445 2.568 2.433 1.015 0 1.835-.501 2.262-1.357h.943c-.306.709-.771 1.247-1.334 1.602a3.446 3.446 0 0 1-1.871.538c-2.287 0-3.473-1.822-3.473-3.461 0-1.932 1.492-3.485 3.461-3.485.93 0 1.785.33 2.409.93a3.41 3.41 0 0 1 1.027 2.8h-5.992zm11.093-6.017h4.599v.893h-3.596v3.179h3.571v.905h-3.571v4.072h-1.003v-9.049z" fill="#7eb641" fill-rule="nonzero"/><path fill="#7eb641" d="M167.625 54.964h.905v9.049h-.905z"/><path d="M175.917 60.259c-.061-1.15-1.174-2.275-2.531-2.238-1.418 0-2.47 1.04-2.556 2.238h5.087zm-5.099.722c.049 1.65 1.455 2.445 2.568 2.433 1.014 0 1.834-.501 2.262-1.357h.942c-.306.709-.77 1.247-1.333 1.602a3.449 3.449 0 0 1-1.871.538c-2.287 0-3.473-1.822-3.473-3.461 0-1.932 1.491-3.485 3.461-3.485.93 0 1.785.33 2.409.93a3.414 3.414 0 0 1 1.027 2.8h-5.992zm7.412-3.547h.856v1.076c.477-.978 1.333-1.234 2.103-1.259v.893h-.084c-1.272 0-1.982.795-1.982 2.287v3.583h-.893v-6.58zm7.032 1.651c0-.697-.464-1.088-1.125-1.088-.721 0-1.161.489-1.137 1.064.024.623.502.88 1.297 1.113.941.256 1.993.526 2.042 1.932.049 1.211-.93 2.091-2.177 2.091-1.064 0-2.238-.673-2.251-2.055h.894c.036.905.709 1.309 1.369 1.309.758 0 1.285-.562 1.272-1.235-.024-.746-.514-1.052-1.651-1.382-.942-.281-1.676-.66-1.7-1.7 0-1.187.941-1.883 2.055-1.883.917 0 1.944.501 2.005 1.834h-.893zm9.174-2.984l-1.797 4.537h3.607l-1.81-4.537zm-3.143 7.913h-1.089l3.779-9.05h.978l3.742 9.05h-1.101l-1.051-2.544h-4.219l-1.039 2.544zm9.014-3.29c0 1.333.942 2.629 2.641 2.629.746 0 1.382-.281 1.847-.758a2.767 2.767 0 0 0 .735-1.859c0-.551-.184-1.198-.601-1.724-.403-.526-1.063-.917-2.005-.917-1.443 0-2.617 1.076-2.617 2.617v.012zm6.09 2.531c0 1.248-.403 2.043-.978 2.593a3.68 3.68 0 0 1-2.495 1.015c-1.639 0-2.837-.942-3.253-2.128h1.04c.159.281.39.599.782.868a2.598 2.598 0 0 0 1.455.477c1.26 0 2.544-.978 2.544-2.617v-.844c-.465.929-1.382 1.578-2.654 1.578-2.055 0-3.436-1.566-3.436-3.461 0-1.969 1.431-3.485 3.436-3.485 1.297 0 2.299.734 2.667 1.541v-1.358h.892v5.821zm2.374-2.531c0 1.333.942 2.629 2.641 2.629.746 0 1.381-.281 1.847-.758a2.761 2.761 0 0 0 .734-1.859c0-.551-.183-1.198-.6-1.724-.403-.526-1.063-.917-2.005-.917-1.443 0-2.617 1.076-2.617 2.617v.012zm6.09 2.531c0 1.248-.403 2.043-.979 2.593a3.674 3.674 0 0 1-2.494 1.015c-1.639 0-2.837-.942-3.253-2.128h1.04c.159.281.39.599.782.868a2.596 2.596 0 0 0 1.455.477c1.26 0 2.543-.978 2.543-2.617v-.844c-.463.929-1.381 1.578-2.653 1.578-2.055 0-3.437-1.566-3.437-3.461 0-1.969 1.432-3.485 3.437-3.485 1.297 0 2.299.734 2.666 1.541v-1.358h.893v5.821z" fill="#7eb641" fill-rule="nonzero"/><path fill="#7eb641" d="M216.745 54.964h.905v9.049h-.905z"/><path d="M220.023 60.736c0 1.492 1.137 2.617 2.593 2.617 1.468 0 2.592-1.125 2.592-2.63 0-1.504-1.124-2.629-2.592-2.629-1.456 0-2.593 1.125-2.593 2.629v.013zm-.892-.024c0-1.835 1.369-3.461 3.485-3.461 2.128 0 3.497 1.626 3.497 3.472 0 1.848-1.369 3.462-3.497 3.462-2.116 0-3.485-1.614-3.485-3.462v-.011z" fill="#7eb641" fill-rule="nonzero"/><path d="M79.881 19.162c5.386 0 7.514 3.883 7.765 5.511H72.117c.249-1.628 2.379-5.511 7.764-5.511m72.329-4.132c-2.819-2.944-6.701-3.508-9.143-3.508l-.047.002c-3.608.012-6.412 1.322-8.47 3.193-1.001.876-1.816 1.94-2.504 3.005-.626-1.19-1.315-2.129-2.068-2.88-1.236-1.297-2.573-2.109-3.894-2.608a10.426 10.426 0 0 0-.752-.256 11.793 11.793 0 0 0-3.307-.456c-3.631 0-6.073 1.191-7.577 2.443-1.502 1.189-2.127 2.443-2.127 2.443v-3.695h-9.707l-.047 15.288a10.633 10.633 0 0 1-2.584 6.925 10.653 10.653 0 0 1-8.102 3.729h-12.01v.035c-4.012-.055-7.447-2.473-7.881-6.127h16.47c6.236 0 10.465-6.55 7.683-12.131-.792-1.589-1.842-3.098-3.174-4.526-3.257-3.444-7.828-5.511-13.151-5.511-10.582 0-18.223 8.956-18.223 18.662 0 10.286 8.378 18.33 18.276 18.404v.006h14.664c1.738 0 3.414-.25 5.009-.7.145-.04.295-.073.439-.118 7.543-2.324 13.026-9.349 13.026-17.656 0-1.063 0-2.942.752-4.633.75-1.691 2.191-3.068 5.134-3.068 2.631 0 3.883 1.315 4.571 2.943.626 1.566.626 3.382.626 4.321v18.911h10.396V28.493c0-1.002 0-2.756.752-4.32.689-1.566 2.129-2.881 5.009-2.881 1.168 0 2.065.234 2.771.62.921.505 1.508 1.276 1.862 2.197.691 1.566.691 3.444.691 4.884v18.474h10.394V28.493c0-7.702-.501-10.019-3.757-13.463m-90.615-1.121v-7.69A6.226 6.226 0 0 0 67.814 0h7.69c0 7.67-6.239 13.909-13.909 13.909" fill="#1a1619" fill-rule="nonzero"/></svg>