<svg xmlns="http://www.w3.org/2000/svg" viewBox="0 0 1380.03 616.69"><defs><style>.a{fill:#9dc254;}.b{fill:#b03065;}.c{fill:#b13065;}.d{fill:#9dc255;}.e{fill:#9e2c5b;}.f{fill:#a82e60;}.g{fill:#8f2653;}.h{fill:#398043;}.i{fill:#9ac054;}.j{fill:#992a58;}.k{fill:#962857;}.l{fill:#ac2f63;}.m{fill:#9c2b5a;}.n{fill:#af2f64;}.o{fill:#932755;}.p{fill:#89234f;}.q{fill:#8b2451;}.r{fill:#548841;}.s{fill:#a52d5f;}.t{fill:#8e2552;}.u{fill:#a22d5e;}.v{fill:#8d2552;}.w{fill:#a82e61;}.x{fill:#a12c5d;}.y{fill:#8c2451;}.z{fill:#ae2f64;}.aa{fill:#8eb853;}.ab{fill:#81b051;}.ac{fill:#74a44d;}.ad{fill:#a62e60;}.ae{fill:#942856;}.af{fill:#96be54;}.ag{fill:#90bb54;}.ah{fill:#aa2e61;}.ai{fill:#85b251;}.aj{fill:#8bb753;}.ak{fill:#87234e;}.al{fill:#689949;}.am{fill:#85224d;}.an{fill:#84224c;}.ao{fill:#93bc54;}.ap{fill:#7cab4f;}.aq{fill:#86224e;}.ar{fill:#97bf54;}.as{fill:#93bd54;}.at{fill:#8fbb54;}.au{fill:#82b452;}.av{fill:#7caf51;}.aw{fill:#87b654;}.ax{fill:#7fb152;}.ay{fill:#418644;}.az{fill:#7ead50;}.ba{fill:#74ab50;}.bb{fill:#87b552;}.bc{fill:#79a94f;}.bd{fill:#68a14e;}.be{fill:#76a74e;}.bf{fill:#56954a;}.bg{fill:#6fa04c;}.bh{fill:#6c9e4b;}.bi{fill:#9ac055;}.bj{fill:#8cb954;}.bk{fill:#6ca44f;}.bl{fill:#659f4d;}.bm{fill:#6fa64f;}.bn{fill:#5b8e44;}.bo{fill:#629d4d;}.bp{fill:#5e9b4c;}.bq{fill:#659748;}.br{fill:#478946;}.bs{fill:#609346;}.bt{fill:#3c8243;}.bu{fill:#8ab754;}.bv{fill:#b23165;}.bw{fill:#78ad51;}.bx{fill:#72a850;}.by{fill:#71a24c;}.bz{fill:#5a984b;}.ca{fill:#568a42;}.cb{fill:#539349;}.cc{fill:#4d8e48;}.cd{fill:#498c46;}.ce{fill:#629547;}.cf{fill:#5e9145;}.cg{fill:#588c43;}.ch{fill:#509148;}.ci{fill:#902653;}.cj{fill:#9b2b5a;}.ck{fill:#a42d5e;}.cl{fill:#972957;}.cm{fill:#a22d5d;}.cn{fill:#992a59;}.co{fill:#a02c5c;}.cp{fill:#a62e5f;}.cq{fill:#aa2f62;}</style></defs><path class="a" d="M1205,618.7a56.86,56.86,0,0,0,20.39-8.05c11-7.12,18.89-17,25.36-28.12,10.18-17.53,16.22-36.6,20.77-56.21a387.34,387.34,0,0,0,9-61.15c.77-11.46,1.47-22.95,1.49-34.43.15-62.66,0-125.32.11-188,0-19.81,8.52-35.07,25.65-45.3,17.62-10.52,42.6-7.92,57.81,5.78,11.72,10.55,17.4,23.65,17.4,39.35,0,63,.11,126,0,189-.12,49.3-16.93,92.25-50.56,128.3-29.21,31.31-65.21,50.33-107.53,57.17-6.3,1-12.69,1.5-19,2.21C1205.65,619.27,1205.45,619,1205,618.7Z" transform="translate(-3 -2.57)"/><path class="a" d="M179.61,19.89a57.6,57.6,0,0,0-26.9,14C143.62,42.1,137,52.11,131.53,63c-9,18-14.49,37.14-18.54,56.76a418.78,418.78,0,0,0-8.06,62.81c-.47,8.81-.89,17.63-.9,26.45q-.12,93.38,0,186.73c0,17.49-6.85,31.63-21,42.1C61.56,453.77,29.61,449,13.56,427.67A51.39,51.39,0,0,1,3.12,396c0-63.49-.29-127,.08-190.47.28-48.5,17-90.87,50-126.53,28.52-30.86,63.75-49.78,105.06-57.33,7-1.29,14.15-1.81,21.24-2.68Z" transform="translate(-3 -2.57)"/><path class="a" d="M597.16,84.91c11.17,0,22.33,0,33.5,0,10.46,0,18.17,4.67,23,14,7.7,14.81-3.27,34.42-20,35-14.24.5-28.5.15-42.75.23-8.82,0-17.67-.13-26.47.37-18.73,1.07-33.43,9.72-43.63,25.33-13.65,20.89-12.25,46.75,3.53,66.08,10.59,13,24.52,20.23,41.38,20.53,21.33.38,42.66.12,64,.15,8.53,0,15.7,2.89,21.23,9.66,6.58,8.05,6.71,21.64.25,29.78A25.36,25.36,0,0,1,630.41,296c-20.84.05-41.67.18-62.5,0-30.54-.29-56.49-11.55-77.36-33.83a102,102,0,0,1-27.62-61A105.36,105.36,0,0,1,521.39,95.65a102.93,102.93,0,0,1,47-10.75C578,85,587.58,84.91,597.16,84.91Z" transform="translate(-3 -2.57)"/><path class="a" d="M790.64,214.82c3.13-6.36,6.07-12.31,9-18.27q24.55-50.1,49.07-100.23c2.89-5.92,6.45-11.08,12.59-14,9.19-4.34,18.1-3.65,26.07,2.56,7.49,5.83,10.87,13.78,9.19,23.36a32.5,32.5,0,0,1-2.75,8.48q-33.46,68.54-67.09,137c-4.29,8.74-8.62,17.46-12.83,26.25-4.68,9.77-12.34,15.31-23.18,15.35s-18.53-5.41-23.29-15.17q-19.53-40.05-39.18-80.05l-40.88-83.4c-4.6-9.38-4.38-18.48,1.83-27.08,10.18-14.1,32.38-13.09,40.81,2.16,5.79,10.48,10.75,21.42,16,32.18q21.51,43.81,43,87.65C789.46,212.57,790,213.51,790.64,214.82Z" transform="translate(-3 -2.57)"/><path class="a" d="M364,89.4a87.33,87.33,0,0,1,32.5,18,90.67,90.67,0,0,1,30.79,54.8,92.8,92.8,0,0,1,1.15,14.91q.15,46.35,0,92.72c0,12.36-6.81,21.45-18.44,24.85-14.11,4.12-29.62-6.67-30.58-21.31-.23-3.4-.35-6.82-.36-10.22,0-28.16-.12-56.32,0-84.48.08-14.06-5-25.56-15.65-34.7a17.35,17.35,0,0,0,.47-2.84Q364,115.28,364,89.4Z" transform="translate(-3 -2.57)"/><path class="a" d="M959.55,171.63c-3.32,9.52-3.44,19.4-3.41,29.33.06,22.73,0,45.47.05,68.2,0,8.43-2.86,15.34-9.39,20.8-12.32,10.3-33.12,4.62-38.18-10.63a30.29,30.29,0,0,1-1.59-9.28c-.11-27.15-.32-54.3,0-81.45.33-25.14,9.14-47.27,25.42-66.42a104.11,104.11,0,0,1,24.56-21c.77-.48,1.6-.87,2.4-1.3,0,1.5,0,3,0,4.49Q959.53,138,959.55,171.63Z" transform="translate(-3 -2.57)"/><path class="a" d="M635.62,23.06c-.08,9.56-5.94,16.81-16,19.78L548.39,64c-3,.9-6,1.87-9.12,2.58A20.31,20.31,0,0,1,515.6,53c-3.14-10,1.74-21.19,11.45-24.69,9.37-3.37,19-6,28.59-8.81q27-8.07,54-16A20.07,20.07,0,0,1,635.62,23.06Z" transform="translate(-3 -2.57)"/><path class="b" d="M245.62,196c0-10.4-.83-20.88.16-31.19,1.48-15.48,7.52-29.55,16.85-42.05,15.12-20.27,35.27-32.42,60.21-36.56a57.38,57.38,0,0,1,7.77-.28l-1.63.58-2.6,1L324,88.51l-1.61.93-1.47,1-2.51,2-1,.92-1,1-2,2.11-1.52,2-1.86,2.58L308,106.51l-1.95,4c-2,6-4.64,12-5.95,18.15-2.13,10.12-3.5,20.4-5,30.64a55.44,55.44,0,0,0-.11,7.74q-.33,39.8-.66,79.58c-.06,7.24,0,14.49,0,21.74,0,.9-.14,1.8-.22,2.7l-.21-2.59V264c0-1.67,0-3.34,0-5q0-3.22,0-6.45c0-2,0-4,0-5.95V243c0-2.15,0-4.3,0-6.45,0-1.52,0-3,0-4.54v-9.43c0-2.16,0-4.32,0-6.48,0-1.19,0-2.37,0-3.55,0-2,0-4,0-6V192.6c-.66.38-1.25,1-1.86,1-2.46.07-4.93-.06-7.4-.11-1.17,0-2.81.45-3.39-.14-1.31-1.33-1.83-1.06-3,.1-.48.49-2,1.59-2.94-.07-.12-.2-.77-.22-1.12-.12-3.56,1-7,0-10.44-.69-.39-.07-.87-.23-1.18-.08-2.9,1.41-6,1.31-9.08,1.26-2.11,0-4.22-1.5-6.25-.26C246.51,194,246.16,195.13,245.62,196Z" transform="translate(-3 -2.57)"/><path class="a" d="M589.4,215.53c-8.32,0-16.66.26-25-.06a24.24,24.24,0,0,1-23-24.73c.25-13.24,10.39-23.93,23.64-24.18,16.07-.31,32.14-.29,48.2,0a24.48,24.48,0,0,1,1.4,48.9c-8.39.41-16.81.08-25.22.08Z" transform="translate(-3 -2.57)"/><path class="c" d="M1068.92,273.09c-.12-1.31-.36-2.62-.36-3.93q0-35.1,0-70.18c0-5-.28-9.93-.43-14.9a5.41,5.41,0,0,0,.4-1.62c-.73-8.82-1.21-17.68-2.36-26.45-1.32-10.06-3.38-20-7.21-29.48-.66-1.84-1.32-3.67-2-5.51l-1.5-3.49-2.34-4.6-1.6-2.93-1.92-3.06c-.53-.81-1.07-1.62-1.61-2.43l-2-2.52L1042.42,98l-2-2L1038,94l-2-1.49-4.46-2.62-2-.94-2.49-1-3.15-1.37c7.12-.51,13.87,1.46,20.42,3.73,38.19,13.23,62.14,39.61,71.39,79,1.62,6.88,1.5,14.16,2.19,21.25-1.72,1.35-3.53,1.3-5.66,1a28.53,28.53,0,0,0-9-.18c-2.66.44-5.09-1-7.87,0-2.19.78-4.95.19-7.42-.1-1.58-.19-3-.94-4.39.6-.23.26-1.22-.19-1.86-.23l-10.29-.48,0,.72-2.35-1.43V202.5c0,1.34,0,2.67,0,4V269Z" transform="translate(-3 -2.57)"/><path class="a" d="M1012.28,237.57c-6.65,0-13.36.56-19.93-.13-10.31-1.09-18.76-10.74-20-21.05a24.51,24.51,0,0,1,18.92-26.93,35,35,0,0,1,6.92-.77c9.32-.09,18.65-.08,28,0,8.6.05,15.86,3,21.31,10,7.71,9.89,6.09,25.28-3.52,33.33a25.38,25.38,0,0,1-16.72,6.08c-5,0-10,0-15,0Z" transform="translate(-3 -2.57)"/><path class="c" d="M502.23,370.4c4.65,0,9.14-.09,13.62.1.67,0,1.58,1.24,1.9,2.09q11.41,30.21,22.72,60.46c.67,1.77,1.36,3.52,2.19,5.68L563,384.84c1.61-4.28,3.18-8.58,4.89-12.82a2.7,2.7,0,0,1,1.79-1.55c4.4-.13,8.81-.07,13.44-.07v81.32h-9.92V384.67l-.47-.13c-.26.6-.55,1.18-.78,1.79-7.81,20.78-15.65,41.55-23.37,62.36-.86,2.31-1.8,3.4-4.53,3.28-5.93-.28-5.93-.09-8-5.7q-11.21-29.88-22.45-59.77a3.45,3.45,0,0,0-1-1.56v66.77h-10.3Z" transform="translate(-3 -2.57)"/><path class="c" d="M1041,555.44h-8V501l-.49-.14c-.31.71-.64,1.39-.91,2.11-6.29,16.73-12.61,33.45-18.81,50.22-.66,1.78-1.42,2.41-3.33,2.37-5.14-.13-5.15,0-7-5l-17.82-47.39A6.1,6.1,0,0,0,983.3,501v54.33H975V489c3.67,0,7.39-.09,11.1.1.58,0,1.31,1.29,1.62,2.11q9.66,25.54,19.22,51.13c.24.65.5,1.3,1,2.53,1.47-3.86,2.74-7.16,4-10.47,5.42-14.4,10.86-28.78,16.21-43.2.61-1.65,1.35-2.36,3.18-2.26,3.15.17,6.3.05,9.63.05Z" transform="translate(-3 -2.57)"/><path class="c" d="M671,400.78c12-14.08,33.78-12,42,3.84,6.68,12.87,6.48,26.14-1.67,38.41-7.44,11.2-25.16,13.57-35.84,5.37-1.51-1.16-2.87-2.49-4.34-3.77v7.12h-9.54V370.58H671Zm-.1,21.61c0,6,1.14,10.33,3.7,14.53,5.73,9.43,20.82,10.38,27.7,1.75,5.73-7.18,6.44-21.63,1.47-30.09-6.12-10.44-20.81-11.63-28.26-2.18C671.83,411,670.86,416.61,670.88,422.39Z" transform="translate(-3 -2.57)"/><path class="c" d="M1059.43,451.77h-9.34V444a48,48,0,0,1-4.29,4.58c-9.74,7.91-27.23,5.54-35.33-4.72-9-11.34-9.05-31.64-.19-43.08,8.41-10.87,26.72-12.56,36.64-3.36.95.89,1.77,1.92,3,3.25V370.55h9.52Zm-9.21-29.64c0-1-.06-2.34-.21-3.67-1.07-9.46-5.88-17.42-16.89-18.37-6.65-.58-13.08,2.51-16,8.44a30,30,0,0,0-.83,25.6c5.11,12.16,21.54,14.29,29.45,3.88C1049.24,433.45,1050.14,428,1050.22,422.13Z" transform="translate(-3 -2.57)"/><path class="d" d="M959.55,171.63q0-33.65,0-67.3c0-1.5,0-3,0-4.49a83.66,83.66,0,0,1,28-11.31c0,16.28,0,32.55,0,48.83a8.68,8.68,0,0,0,1,2.65,64,64,0,0,0-16.77,12.36,56.49,56.49,0,0,0-11.38,17.75A14.78,14.78,0,0,1,959.55,171.63Z" transform="translate(-3 -2.57)"/><path class="c" d="M374.09,433.07c-1.87,8.57-6,15.12-14.31,18.05-10.44,3.68-20.56,3-29.4-4.3-5.59-4.64-7.92-11.15-9.09-18.13-1.44-8.59-.51-16.83,4.14-24.31,6.11-9.82,15.24-14,26.57-12.66,11.69,1.35,18.29,8.85,21.35,19.65,1.22,4.32,1.48,8.92,2.24,13.78H331.3a16.83,16.83,0,0,0,15.06,19.26c6.05.55,11.7-.17,15.65-5.54a9.07,9.07,0,0,0,1.76-3.27c.43-2.17,1.57-2.74,3.62-2.57S371.69,433.07,374.09,433.07Zm-9.47-16.55c-.53-9.77-8.12-16.88-17.37-16.48-9.09.39-16.4,7.87-16,16.48Z" transform="translate(-3 -2.57)"/><path class="c" d="M837.7,425.16c-.58,9.77,4.68,16.95,13.54,19,9.65,2.21,16.31-1.39,20.13-11.06h9.32c-1.85,8.55-6,15.05-14.12,18-10.69,3.83-21,3.17-30-4.6-5.7-4.95-8-11.77-8.89-19-1.31-10.19.47-19.68,7.65-27.44s16.17-10,26.21-7.72,15.64,9.42,18.3,18.89c1.24,4.4,1.54,9.07,2.33,14Zm33.6-8.65c-.36-9-7.43-16.77-17.45-16.45-9.06.3-15.78,7.23-16.05,16.45Z" transform="translate(-3 -2.57)"/><path class="c" d="M1124.35,425.16H1080c-1.15,9.1,4.6,18,14.78,19.18a27.62,27.62,0,0,0,7.43-.24,12.58,12.58,0,0,0,10.48-9.18,2.23,2.23,0,0,1,2.64-1.88c2.31.12,4.64,0,7.26,0a20.07,20.07,0,0,1-3.51,9.5c-5.17,7.85-12.87,10.62-21.88,10.55-14.89-.12-24.77-8.89-27.16-24-1.53-9.66-.47-18.84,5.53-26.86,6.47-8.63,15.34-11.92,25.93-10.39,11.15,1.62,17.39,8.85,20.41,19.08C1123.21,415.4,1123.52,420.16,1124.35,425.16Zm-11-8.69c-.68-9.6-7.73-16.42-16.83-16.44s-15.94,6.58-16.72,16.44Z" transform="translate(-3 -2.57)"/><path class="c" d="M320,555.46h-5.33c-.76-2.56-1.52-5.15-2.13-7.22-3.46,2.25-6.71,5.15-10.52,6.7-18.06,7.34-37.88-3.62-41.87-23.13-2.41-11.74-.68-22.93,6.45-32.83,5.23-7.26,12.63-11,21.51-11.47,8.69-.51,17,.76,23.77,6.89,4.4,4,6.54,9.08,7.61,14.94h-8.68a43.18,43.18,0,0,0-1.4-4.1c-3.1-6.93-10.06-10.71-18.9-10.34-10.92.46-18.11,6.41-21.11,17.84-2.12,8.11-2,16.19,1.61,23.93,3.36,7.21,8.9,11.81,16.95,12.71,8.4.94,15.69-1.23,20.87-8.44,2.25-3.14,3.2-6.64,3.39-12.82h-21v-7.63H320Z" transform="translate(-3 -2.57)"/><path class="c" d="M651.68,422.47c0,8.33-1.91,16.12-7.8,22.28-8.53,8.93-19.24,10.16-30.43,6.94S596.92,440,595,429a38.17,38.17,0,0,1,1.14-18.26c4.7-14.9,17.32-20.86,31.12-19C643,394,651.74,405.32,651.68,422.47Zm-46.84-1.62a29.44,29.44,0,0,0,2.64,14c5.61,11.65,22.27,13.27,29.5,2.57,6.18-9.14,6.14-19.12,1.07-28.62-5.42-10.17-18.7-11.84-27-3.84C606.56,409.27,605.08,414.85,604.84,420.85Z" transform="translate(-3 -2.57)"/><path class="c" d="M933.28,409.87h-9.54c-.57-4.17-2.76-7.27-6.8-8.67a20.31,20.31,0,0,0-15.59.53c-4.86,2.27-5.37,8.24-.73,11,3.08,1.81,6.74,2.71,10.22,3.75,4.93,1.48,10,2.44,14.87,4.13,6.28,2.2,10.16,6.65,10.24,13.59.09,7.12-2.91,12.7-9.48,15.67-10.06,4.54-20.36,4.78-30.44.09-6.77-3.15-9.55-9.1-10-16.73,3,0,5.84,0,8.71.05a1.63,1.63,0,0,1,1.06,1.1c.92,6.65,5.59,9.24,11.44,9.87a40.7,40.7,0,0,0,11.39-.5c4.41-.77,6.7-3.5,7-7,.31-3.88-1.31-6.63-5.86-8.19-4.86-1.67-10-2.52-14.9-4.05-3.94-1.23-8.1-2.37-11.5-4.58-9-5.82-8.08-19.48,1.59-24.7,10-5.39,20.42-5.16,30.42,0C930.91,398,932.9,403.5,933.28,409.87Z" transform="translate(-3 -2.57)"/><path class="c" d="M426.63,409.88h-9.5c-.6-4.25-2.85-7.39-7-8.75-5.23-1.71-10.54-1.77-15.55.71-4.72,2.34-5.13,8.19-.59,10.84,3.09,1.79,6.73,2.72,10.21,3.77,5,1.5,10.18,2.47,15.1,4.21,6.17,2.18,9.94,6.66,10.08,13.44.13,6.55-2.38,12.14-8.33,15.11-10.9,5.44-22.1,5.7-33-.06-5.35-2.81-8.74-9.6-8.34-15.82h9.12c2.68,8.53,6.06,11.16,15.24,11.16a38.26,38.26,0,0,0,9.78-1.41,6.84,6.84,0,0,0,5.24-6.56c.25-3.53-1.36-6.24-4.48-7.33-5.31-1.86-10.84-3.07-16.24-4.71a74.89,74.89,0,0,1-9.82-3.5c-5.25-2.43-7.85-6.88-7.87-12.58,0-5.86,2.57-10.59,7.79-13.3,10-5.18,20.24-5.09,30.18,0C424.27,398,426.32,403.45,426.63,409.88Z" transform="translate(-3 -2.57)"/><path class="c" d="M274.91,442.6h42.9v9.14H264.22V370.55h10.69Z" transform="translate(-3 -2.57)"/><path class="c" d="M402.49,549.56c0,.7,0,1.19,0,1.68-.08,2.18.83,4.71-2.75,5.25-4.67.71-7.93-.44-9.09-3.68-.33-.93-.47-1.93-.75-3.1-.41.31-.78.54-1.09.83-6.74,6.35-14.66,7.46-23.2,4.89-5.61-1.69-8.27-6-8.44-11.69-.17-5.21,1.3-10.1,6.49-12.17,4.73-1.9,9.86-2.8,14.83-4,2.09-.52,4.29-.63,6.37-1.19,2.3-.62,4.45-1.6,4.69-4.48.26-3.06-.49-5.87-3.4-7.17a17.06,17.06,0,0,0-15.4.39c-2.75,1.43-3.48,4.28-3.94,7.2H359.3a14.25,14.25,0,0,1,9.8-14.35,32.36,32.36,0,0,1,19.18-.66c6.14,1.56,9.11,5.58,9.21,12.27.1,7.25,0,14.5,0,21.74V545C397.56,549.41,397.84,549.68,402.49,549.56Zm-13-18.06c-4.13.7-8.21,1.31-12.25,2.11a39,39,0,0,0-7.18,1.93,7.24,7.24,0,0,0-4.44,8.1c.45,3.12,2.88,5.39,6.57,5.8a27.08,27.08,0,0,0,6,0c5.76-.66,10.77-4.73,11.27-9.37A74.34,74.34,0,0,0,389.46,531.5Z" transform="translate(-3 -2.57)"/><path class="c" d="M1095.51,533.9h-36.32a13.48,13.48,0,0,0,11.73,15.55c4,.42,8.07.37,11.35-2.48a9.38,9.38,0,0,0,3-3.92c.73-2.44,2.07-3,4.35-2.76a40.9,40.9,0,0,0,4.46,0c-1.55,7.14-5.12,12.28-11.86,14.8-8.75,3.28-22.13,1.79-27.87-8.62a30.5,30.5,0,0,1-3-22.22c1.54-6.63,5-11.95,11.08-15.26,10.84-5.89,25.86-2.66,30.54,11.82C1094.19,524.88,1094.6,529.21,1095.51,533.9Zm-9.24-7.15a13.65,13.65,0,0,0-14.06-13.53c-7.62.35-13.67,6.57-13,13.53Z" transform="translate(-3 -2.57)"/><path class="c" d="M602.38,533.86H566.74a13.6,13.6,0,0,0,11.84,15.59c4.13.43,8.22.33,11.54-2.66a8.25,8.25,0,0,0,2.64-3.54c.74-2.88,2.54-3.22,5-3a38.51,38.51,0,0,0,3.91,0c-1.57,7.13-5.11,12.22-11.76,14.76-9,3.41-22.35,1.76-28-8.68a30.41,30.41,0,0,1-3-22c1.55-6.71,5-12.11,11.19-15.44,10.73-5.79,25.59-2.61,30.45,11.69A32.4,32.4,0,0,1,602.38,533.86Zm-8.5-7.08c-.07-7.91-6.94-14.2-14.44-13.51s-13.65,7.13-12.6,13.51Z" transform="translate(-3 -2.57)"/><path class="c" d="M837.6,533.91H801.25A13.37,13.37,0,0,0,813,549.39a26.44,26.44,0,0,0,8.35-.75,8.67,8.67,0,0,0,6.18-6c.64-2,1.74-2.49,3.62-2.32,1.55.13,3.12,0,4.92,0-1.2,6-4,10.63-9.16,13.58-8.17,4.7-24.28,4.28-30.69-7.65a30.44,30.44,0,0,1-2.86-22c1.58-6.62,5-11.94,11.09-15.24,10.73-5.81,25.68-2.72,30.43,11.63C836.25,524.73,836.66,529.15,837.6,533.91Zm-9.32-7.16c.39-7.16-6.22-13.66-13.7-13.56s-13.8,6.34-13.42,13.56Z" transform="translate(-3 -2.57)"/><path class="c" d="M912.73,533.86H876.38a13.79,13.79,0,0,0,12.46,15.64c4.18.33,8.2,0,11.42-3a6.5,6.5,0,0,0,2-2.78c.75-3.27,2.89-3.73,5.69-3.38a24.78,24.78,0,0,0,3.23,0c-1.42,10.12-9.87,16.54-20.81,16.32-13.84-.28-21-9.2-22.39-21.78-.8-7.28.43-14.12,5-20,5.59-7.23,13.11-9.66,21.91-8.06,8.1,1.47,13,6.83,15.39,14.36C911.58,525.08,911.9,529.33,912.73,533.86Zm-36.35-7.2h27.24c-.44-7.85-6.34-13.53-13.76-13.46A13.36,13.36,0,0,0,876.38,526.66Z" transform="translate(-3 -2.57)"/><path class="c" d="M729.47,533.9H693.86c-1.15,7.54,4.42,14.9,11.88,15.48a27.9,27.9,0,0,0,8.57-.85,8.24,8.24,0,0,0,5.85-5.71c.71-2.21,1.88-2.78,4-2.54a42.23,42.23,0,0,0,4.67,0c-1.24,6.34-4.33,11.06-9.81,13.95-7.48,4-20.53,3.27-27.12-4a25.42,25.42,0,0,1-6.09-13.16c-1.35-7.91-.43-15.44,4.51-22.05,5.41-7.23,12.8-9.77,21.55-8.4,7.92,1.24,12.82,6.26,15.63,13.47A29.9,29.9,0,0,1,729.47,533.9Zm-8.53-7.12c.29-7.34-6-13.56-13.53-13.58a13.3,13.3,0,0,0-13.53,13.58Z" transform="translate(-3 -2.57)"/><path class="c" d="M821.7,392.84v8.55H810v2.48c0,11.24,0,22.48,0,33.72,0,4.35.87,5.3,5.17,5.55,2.07.13,4.14,0,6.43,0v9.1c-5.18-.48-10.32-.59-15.31-1.52-3.78-.7-5.74-4.21-5.8-9.17-.13-11.16-.1-22.32-.13-33.47v-6.65h-9.85v-8.52h9.75v-17.7H810v17.6Z" transform="translate(-3 -2.57)"/><path class="c" d="M448,555.47h-7.79V525.28c0-7.49-2.27-11-7.6-11.85-7.33-1.13-13.68,2.45-15.52,9a28.17,28.17,0,0,0-.93,7.15c-.11,8.07,0,16.15-.05,24.23,0,.49-.05,1-.08,1.59H408.3V507.57h7.27V515c.76-1,1.15-1.47,1.52-2,3.72-5.11,9-7,15-6.83,3.77.1,7.47.69,10.58,3.13A13.49,13.49,0,0,1,447.87,520C448.11,531.77,448,543.5,448,555.47Z" transform="translate(-3 -2.57)"/><path class="c" d="M652.33,555.38V496.49H630.22v-7.4h53v7.24H661.18v59.05Z" transform="translate(-3 -2.57)"/><path class="c" d="M760.18,370.57V451.7h-9.43V370.57Z" transform="translate(-3 -2.57)"/><path class="c" d="M476.29,547.69c3-9.05,5.83-17.73,8.67-26.4,1.35-4.11,2.64-8.23,4.06-12.31.22-.63,1-1.5,1.51-1.54,2.29-.18,4.59-.08,7.26-.08-2,5.53-3.89,10.66-5.76,15.8-3.7,10.14-7.43,20.28-11.07,30.44a2.53,2.53,0,0,1-2.85,2c-6.41,0-6.4,0-8.67-6.09q-7.33-19.74-14.67-39.48c-.29-.76-.52-1.54-.89-2.65,2.8,0,5.37-.13,7.9.1.6.06,1.32,1.29,1.6,2.12,4,11.79,8,23.61,11.94,35.42C475.58,545.78,475.88,546.54,476.29,547.69Z" transform="translate(-3 -2.57)"/><path class="c" d="M921.91,514.35h-8.14v-6.92h8.06V493.06h8V507.3h9.46v7.06h-9.41v5c0,8.25,0,16.5,0,24.75,0,3.56.84,4.35,4.45,4.45,1.58,0,3.16,0,5.14,0v6.84a101.2,101.2,0,0,1-10.33-.07c-4.89-.52-7-3.09-7.11-8.29-.13-9.83-.08-19.67-.1-29.5C921.9,516.6,921.91,515.69,921.91,514.35Z" transform="translate(-3 -2.57)"/><path class="c" d="M727.49,393h9.38v58.74h-9.38Z" transform="translate(-3 -2.57)"/><path class="c" d="M774,393h9.34v58.78H774Z" transform="translate(-3 -2.57)"/><path class="c" d="M1101.27,507.48h7.25v9.43c4-6.85,9.47-11,17.81-10.67v8.25c-1.68.22-3.43.3-5.1.68-7.07,1.62-11.1,6-11.69,14-.55,7.54-.36,15.14-.49,22.71,0,1.15,0,2.29,0,3.57h-7.78Z" transform="translate(-3 -2.57)"/><path class="c" d="M330.17,507.48h7.21v9.25c2.44-2.6,4.67-5.46,7.38-7.74,2.9-2.46,6.66-2.75,10.54-2.83v8.3c-1.54.19-3.17.29-4.77.6-6.15,1.2-10.16,4.82-11.55,11a44,44,0,0,0-1,8.65c-.14,6.08,0,12.16,0,18.24v2.53h-7.81Z" transform="translate(-3 -2.57)"/><path class="c" d="M773.34,555.46h-7.77v-48h7.25v9c2.48-2.59,4.69-5.35,7.37-7.57,2.85-2.35,6.5-2.71,10.37-2.73v8.07c-2.75.61-5.64.85-8.2,1.9-6.35,2.6-8.54,8.15-8.81,14.44-.32,7.32-.16,14.65-.21,22C773.33,553.47,773.34,554.36,773.34,555.46Z" transform="translate(-3 -2.57)"/><path class="c" d="M743.46,507.52V517c7.55-9.21,11.41-11.49,17.78-10.56v7.81c-2.8.61-5.69.84-8.25,1.89-6.57,2.69-8.64,8.46-8.91,14.92-.29,7.14-.12,14.31-.15,21.47v2.85h-7.77V507.52Z" transform="translate(-3 -2.57)"/><path class="c" d="M523.13,489.08h7.67v66.34h-7.67Z" transform="translate(-3 -2.57)"/><path class="c" d="M549.8,555.43h-7.68V489.07h7.68Z" transform="translate(-3 -2.57)"/><path class="c" d="M511.74,555.43h-7.67V507.57h7.67Z" transform="translate(-3 -2.57)"/><path class="e" d="M1069,235.5V229c1.81-.33,3.61-.71,5.43-1a9.25,9.25,0,0,1,2.52,0,27.19,27.19,0,0,0,3.69.7c6,0,12-.65,18,.77.6.15,1.5.67,1.74.45,1.89-1.72,3.6-1.14,5.93-.66,3.73.77,7.73.21,11.62.21v6l-30.41.93,0-.27,2-.29a1.27,1.27,0,0,0-.89-.37c-4.73-.59-9.45,1.71-14.18,0-.28-.1-.65.11-1,.1C1072,235.6,1070.5,235.55,1069,235.5Z" transform="translate(-3 -2.57)"/><path class="f" d="M293.92,206.54c0,2,0,4,0,6a54.83,54.83,0,0,1-7.89.16,47.23,47.23,0,0,0-10.23-.28,117.73,117.73,0,0,1-13.42.1c-3.76-.06-7.51-.41-11.26-.3a14.64,14.64,0,0,0-4.67,1.5c-.28.11-.39.86-.42,1.32-.06.82,0,1.66,0,2.49V274l-.08,3.6a9,9,0,0,1-.4-1.88q0-31.52,0-63a6.2,6.2,0,0,1,.08-.74c.13-1.65.27-3.3.4-4.95,1.62,0,3.76.6,4.76-.21,1.7-1.36,3.11-.55,4.67-.49.52,0,1.11.27,1.54.1a10.51,10.51,0,0,0,1.95-1.43,6.59,6.59,0,0,0-.15,1.5c2.58.94,5.3.92,8,1a.27.27,0,0,0,.21-.09c1.39-1.83,2.12-1,2.7.72.31-.8.6-1.55,1.08-2.83,3,3.69,6.95-.69,10.19,1.6,3.18-1.7,6.83.32,10.09-1.19l-1,.86Z" transform="translate(-3 -2.57)"/><path class="g" d="M1069,269v-6.5c1.5.08,3,.24,4.5.21,1.11,0,2.22-.52,3.31-.44,2.12.16,4.21.71,6.33.82,1.31.07,2.66-.6,4-.52,2.32.14,4.62.62,6.93.91a3.85,3.85,0,0,0,1.43-.14,9.24,9.24,0,0,1,2.13-.64c2.45,0,4.9.19,7.36.28.18,0,.36-.24.55-.28,1-.22,2.36-.92,3.12-.53,2.56,1.31,5,1.64,7.63.35.44-.22,1.08,0,1.63,0v6c-1.93,0-3.33,2.29-5.61,1.15-.79-.4-2-.09-2.94-.1-1.27,0-3.48.33-3.66-.13-.7-1.72-1.71-.78-2.58-.68-4,.47-8,2.33-11.92-.17-.4-.26-1.49-.2-1.64.06-1,1.81-2.88,1.06-3.88.71-2.9-1-5.56-.52-8.35.16-1.2.3-3.43.4-3.66-.1-.75-1.65-1.69-.71-2.57-.65C1070.42,268.8,1069.73,268.92,1069,269Z" transform="translate(-3 -2.57)"/><path class="h" d="M295,167.07a55.44,55.44,0,0,1,.11-7.74c1.51-10.24,2.88-20.52,5-30.64,1.31-6.19,3.93-12.11,5.95-18.15a15.68,15.68,0,0,1,.41,2.62c0,11.28,0,22.57,0,33.86a46,46,0,0,0-10.93,19.31C295.5,166.61,295.2,166.82,295,167.07Z" transform="translate(-3 -2.57)"/><path class="i" d="M988.53,140a8.68,8.68,0,0,1-1-2.65c-.06-16.28,0-32.55,0-48.83L994,87.08a8.1,8.1,0,0,0-.46,1.9q0,23.34,0,46.69c0,.63.69,1.25,1.05,1.88Z" transform="translate(-3 -2.57)"/><path class="j" d="M1069,247.5v-6c1,0,1.91-.11,2.86-.09s2.41.57,2.69.19c1.6-2.21,2.21-.67,3,.25a31.72,31.72,0,0,1,5.23-.31c2.46,0,4.93-.11,7.4-.19a2.67,2.67,0,0,0,.81-.27c.57-.22,1.45-.79,1.64-.61,1.36,1.28,2.82,1,4.47.79a37.94,37.94,0,0,1,5.64,0c.39,0,.77.09,1.15.12.93.1,2.42.58,2.69.2,1.62-2.28,2.21-.6,2.72.46a11.88,11.88,0,0,1,2.57-.53c2,.08,4,.3,6,.47v5.5c-3.64,1-7.54-1.75-11.08.75,0,0-.16,0-.25,0-4.44-.21-8.94-.05-13.29-.78a13,13,0,0,0-5.35.32c-.38.08-.83-.14-1.2,0-3.74,1-7.72-2.44-11.36.6-.17.15-.64-.06-1-.1Z" transform="translate(-3 -2.57)"/><path class="k" d="M1069,247.5l5.4.75c.32,0,.79.25,1,.1,3.64-3,7.62.43,11.36-.6.37-.11.82.11,1.2,0a13,13,0,0,1,5.35-.32c4.35.73,8.85.57,13.29.78.09,0,.2,0,.25,0,3.54-2.5,7.44.25,11.08-.75v6c-1.89,0-3.78.11-5.66.12-2.21,0-4.43.09-6.63,0-3.4-.2-6.89-1.19-10.15-.67-3.08.49-6,1.47-9.16.61-.29-.08-.65.11-1,.11-1.4,0-2.81.05-4.21,0a21,21,0,0,0-2.9-.33c-3.07.32-6.13.8-9.2,1.22Z" transform="translate(-3 -2.57)"/><path class="l" d="M1069,202.5V197c4.26-.38,8.52-.85,12.79-1.1,1.48-.09,3,.55,4.51.57,2.84,0,6-1,8.45,0,4,1.59,7.44,0,11.13-.34a8.9,8.9,0,0,1,3.48.35c2.8.91,5.51,2.15,8.54,1v5a22.39,22.39,0,0,1-4,.42c-2.76-.21-5.51-1-8.26-.94-9,.12-17.89.56-26.84.73C1075.6,202.78,1072.33,201.88,1069,202.5Z" transform="translate(-3 -2.57)"/><path class="m" d="M1117.93,242c-2-.17-4-.39-6-.47a11.88,11.88,0,0,0-2.57.53c-.51-1.06-1.1-2.74-2.72-.46-.27.38-1.76-.1-2.69-.2-.38,0-.76-.12-1.15-.12a37.94,37.94,0,0,0-5.64,0c-1.65.21-3.11.49-4.47-.79-.19-.18-1.07.39-1.64.61a2.67,2.67,0,0,1-.81.27c-2.47.08-4.94.15-7.4.19a31.72,31.72,0,0,0-5.23.31c-.76-.92-1.37-2.46-3-.25-.28.38-1.76-.16-2.69-.19s-1.91.06-2.86.09v-6c1.46.05,2.92.1,4.38.12.33,0,.7-.2,1-.1,4.73,1.69,9.45-.61,14.18,0a1.27,1.27,0,0,1,.89.37l-2,.29,0,.27,30.41-.93Z" transform="translate(-3 -2.57)"/><path class="n" d="M1117.93,197.5c-3,1.11-5.74-.13-8.54-1a8.9,8.9,0,0,0-3.48-.35c-3.69.35-7.13,1.93-11.13.34-2.43-1-5.61.05-8.45,0-1.51,0-3-.66-4.51-.57-4.27.25-8.53.72-12.79,1.1v-6.59l2.35,1.43,0-.72,10.29.48c.64,0,1.63.49,1.86.23,1.36-1.54,2.81-.79,4.39-.6,2.47.29,5.23.88,7.42.1,2.78-1,5.21.4,7.87,0a28.53,28.53,0,0,1,9,.18c2.13.33,3.94.38,5.66-1Z" transform="translate(-3 -2.57)"/><path class="o" d="M1117.93,262.5c-.55,0-1.19-.2-1.63,0-2.64,1.29-5.07,1-7.63-.35-.76-.39-2.07.31-3.12.53-.19,0-.37.29-.55.28-2.46-.09-4.91-.27-7.36-.28a9.24,9.24,0,0,0-2.13.64,3.85,3.85,0,0,1-1.43.14c-2.31-.29-4.61-.77-6.93-.91-1.31-.08-2.66.59-4,.52-2.12-.11-4.21-.66-6.33-.82-1.09-.08-2.2.41-3.31.44-1.5,0-3-.13-4.5-.21v-6c1,.33,2,.69,3,1a5,5,0,0,0,1.63.24c.79-2.41,2.59-.83,3.87-1.2-.16.64-.3,1.15-.47,1.79,4-.83,7.67-2.29,11.57-.62.41.17,1.2-.57,1.83-.89l.07.17,2.4-.48c.35,2.33,1.77,1.1,2.91.9a20.91,20.91,0,0,1,2.09-.15l-.78,2c4.22-2.53,8.56-.74,12.39-3-.2,1-.29,1.53-.33,1.7l8.4-.35C1117.7,259.18,1117.81,260.84,1117.93,262.5Z" transform="translate(-3 -2.57)"/><path class="p" d="M249.94,285.63l-3.51-6.6c.95,0,2.1-.26,2.8.18,1.76,1.09,1.83.09,1.9-1.32a33.1,33.1,0,0,1,4.69.42c1,.21,1.79,1.28,2.76,1.43,2.75.44,5.44-1.81,8.28-.33,1.75-1.8,2.87-.11,3.67.55,3-.7,5.55-1.31,8.14-1.89.18,0,.42.24.65.28,1.42.22,2.9.76,4.25.55,3.12-.49,6-.64,8.49,1.75l-2.9,4.92c-3.32-.61-6.64-1.23-10-1.81-.26-.05-.56.28-.85.32-2.88.35-5.68,1.17-8.7.51-1.87-.41-3.93.11-5.9.15-4.3.07-8.59.09-12.88.18C250.56,284.93,250.25,285.38,249.94,285.63Z" transform="translate(-3 -2.57)"/><path class="q" d="M1117.6,274l-2.07,7c-.46-.44-.88-1.21-1.37-1.26-3.23-.36-6.47-.57-9.71-.8a16.38,16.38,0,0,0-3.35-.09c-2.94.4-5.89,1.66-8.69-.54-.2-.16-.76.13-1.15.22-1.65.39-3.3,1.14-4.94,1.1-5.11-.14-10.21-.58-15.32-.85-.16,0-.34.45-.52.69l-1.47-6c2.32.16,4.66.31,7,.5a10.23,10.23,0,0,1,1.41.4c.38.09,1,.29,1.12.14,1.4-1.9,3.17-.66,4.8-.67,2.3,0,4.7,1.35,6.64-.22.91.4,1.82,1.19,2.45,1,2-.56,3.65-1.31,6.09-.39,2.19.83,5.18-.78,7.67-.41,2.82.42,5.49-.28,8.22-.11C1115.46,273.82,1116.53,273.94,1117.6,274Z" transform="translate(-3 -2.57)"/><path class="r" d="M1058.94,126.53c3.83,9.47,5.89,19.42,7.21,29.48,1.15,8.77,1.63,17.63,2.36,26.45a5.41,5.41,0,0,1-.4,1.62,54.3,54.3,0,0,0-8-22.75c-.56-.91-1.09-1.84-1.63-2.77q0-14.7,0-29.42A15.76,15.76,0,0,1,1058.94,126.53Z" transform="translate(-3 -2.57)"/><path class="s" d="M1069,219.5v-5c1.38.17,3.42,1,4,.37,1.65-1.64,2.8-.33,4.24-.14a41.21,41.21,0,0,0,6.29.19c1.26,0,2.51-.32,3.77-.36,2.94-.08,5.76,1.32,8.87.07,1.76-.72,4.13-2.29,6.08.12.07.08.33,0,.49,0,1.26-.24,2.53-.48,3.78-.75,3.83-.84,7.57.12,11.34.5v5l-3.46.25c-.82.06-2.15.45-2.37.11-1.38-2.11-2.93-.71-4.51-.56-2,.18-3.94,1.19-6.08.25a9.69,9.69,0,0,0-3.68-.36c-1.18,0-2.37.29-3.54.2a12.5,12.5,0,0,1-2.66-.81l-.52.86,1.4.18-.61,1a14.22,14.22,0,0,0-3.46-1c-2.23-.08-4.46.22-6.69.29a8.92,8.92,0,0,1-2-.33A10.87,10.87,0,0,0,1077,219C1074.37,219.2,1071.8,220.67,1069,219.5Z" transform="translate(-3 -2.57)"/><path class="p" d="M1070.48,279.54c.18-.24.36-.7.52-.69,5.11.27,10.21.71,15.32.85,1.64,0,3.29-.71,4.94-1.1.39-.09,1-.38,1.15-.22,2.8,2.2,5.75.94,8.69.54a16.38,16.38,0,0,1,3.35.09c3.24.23,6.48.44,9.71.8.49.05.91.82,1.37,1.26l-3.06,4.78c-3.09-.45-6.18-1-9.29-1.29-2-.17-4.17,1.64-6.2-.24-.15-.13-.62.1-1,.12-2.85.15-5.71.32-8.57.4-.53,0-1.07-.4-1.62-.55a6.65,6.65,0,0,0-1.94-.37,6.58,6.58,0,0,0-2.67.5c-2.41,1.25-4.78.79-7.2.18-.14,0-.37.3-.56.46Q1072,282.3,1070.48,279.54Z" transform="translate(-3 -2.57)"/><path class="t" d="M246,274c0-1.5,0-3,0-4.5,3.76,0,7.57-.34,11.29.09,2.43.29,4.73-2.27,7.11-.12.11.1.47-.1.71-.13,1.09-.14,2.19-.34,3.29-.39,2-.1,4.06-.08,6.09-.15.82,0,2.24-.46,2.34-.23,1.11,2.45,2.86.88,4.35.85,2.23-.06,4.47-.21,6.69-.12s4.16.7,6-.8l.21,2.59c-.19,1.65-.39,3.3-.58,4.94l-2.55-.86,2.33-.45-.13-.75a17.71,17.71,0,0,1-3.27.49c-1.3,0-3-1-3.79-.51-2.25,1.49-4.27.58-6.4.18a8.2,8.2,0,0,0-2-.37c-2.6.19-5.19.49-7.78.73-.25,0-.68.05-.72-.05-.77-2-1.86-.72-2.94-.37s-3,1-3.23.65c-1.39-2-2.71-.3-4-.39a50.87,50.87,0,0,0-8.82.39,4.77,4.77,0,0,1-1.18-.27C248,274.29,247,274.15,246,274Z" transform="translate(-3 -2.57)"/><path class="u" d="M1069,219.5c2.76,1.17,5.33-.3,8-.51a10.87,10.87,0,0,1,2.74.53,8.92,8.92,0,0,0,2,.33c2.23-.07,4.46-.37,6.69-.29a14.22,14.22,0,0,1,3.46,1l.61-1-1.4-.18.52-.86a12.5,12.5,0,0,0,2.66.81c1.17.09,2.36-.21,3.54-.2a9.69,9.69,0,0,1,3.68.36c2.14.94,4.08-.07,6.08-.25,1.58-.15,3.13-1.55,4.51.56.22.34,1.55-.05,2.37-.11l3.46-.25V225c-1.33-.33-2.72-1.07-4-.91a72.3,72.3,0,0,1-11.49.31c-.51,0-1-.34-1.51-.31-1.28.07-2.59,1-3.74-.49-.19-.25-1.18,0-1.76.21-.77.23-1.51.86-2.26.85-4.29-.06-8.58-.28-12.87-.39-1.24,0-2.55.45-3.7.17-2.5-.62-5.26,1-7.56-.94Z" transform="translate(-3 -2.57)"/><path class="v" d="M1117.6,274c-1.07-.09-2.14-.21-3.21-.28-2.73-.17-5.4.53-8.22.11-2.49-.37-5.48,1.24-7.67.41-2.44-.92-4.06-.17-6.09.39-.63.18-1.54-.61-2.45-1-1.94,1.57-4.34.21-6.64.22-1.63,0-3.4-1.23-4.8.67-.11.15-.74-.05-1.12-.14a10.23,10.23,0,0,0-1.41-.4c-2.32-.19-4.66-.34-7-.5a.34.34,0,0,1-.09-.41L1069,269c.69-.08,1.38-.2,2.08-.25.88-.06,1.82-1,2.57.65.23.5,2.46.4,3.66.1,2.79-.68,5.45-1.15,8.35-.16,1,.35,2.83,1.1,3.88-.71.15-.26,1.24-.32,1.64-.06,4,2.5,7.94.64,11.92.17.87-.1,1.88-1,2.58.68.18.46,2.39.11,3.66.13,1,0,2.15-.3,2.94.1,2.28,1.14,3.68-1.17,5.61-1.15Z" transform="translate(-3 -2.57)"/><path class="w" d="M1069,209.5c0-1,0-2,0-3a55.48,55.48,0,0,1,6.53-.55c1.35,0,2.66,1,4,1.05,1.15.05,2.32-.67,3.51-1a11.1,11.1,0,0,1,2.08-.3c.81-.06,2.14-.36,2.35,0,1.15,1.89,2.8,1.09,4.16.83,1.57-.29,3.67-.1,4.57-.56,3-1.53,5.76,1.65,8.68-.33.86-.58,3,.82,4.61,1.21.88.22,2.33.64,2.61.27,1.8-2.34,3.87-.53,5.79-.64v4c-1.49.17-2.56,1.51-4.59.36-1.52-.86-4.11,0-6.18.35-1.38.24-2.45.7-3.75-.59-.67-.68-2.37-.64-3.53-.44-2,.36-3.72,1.34-6.13.77-3-.7-6.24-.11-9.39,0-.65,0-1.49.78-1.89.56a8.31,8.31,0,0,0-7.32-.42,5.49,5.49,0,0,1-3.1-.13A16.69,16.69,0,0,1,1069,209.5Z" transform="translate(-3 -2.57)"/><path class="x" d="M1069,223.5c2.3,1.92,5.06.32,7.56.94,1.15.28,2.46-.2,3.7-.17,4.29.11,8.58.33,12.87.39.75,0,1.49-.62,2.26-.85.58-.18,1.57-.46,1.76-.21,1.15,1.48,2.46.56,3.74.49.49,0,1,.29,1.51.31a72.3,72.3,0,0,0,11.49-.31c1.28-.16,2.67.58,4,.91v4.5c-3.89,0-7.89.56-11.62-.21-2.33-.48-4-1.06-5.93.66-.24.22-1.14-.3-1.74-.45-5.94-1.42-12-.81-18-.77a27.19,27.19,0,0,1-3.69-.7,9.25,9.25,0,0,0-2.52,0c-1.82.26-3.62.64-5.43,1Z" transform="translate(-3 -2.57)"/><path class="y" d="M246,274c1,.15,2,.29,3,.45a4.77,4.77,0,0,0,1.18.27,50.87,50.87,0,0,1,8.82-.39c1.33.09,2.65-1.56,4,.39.26.37,2.15-.3,3.23-.65s2.17-1.6,2.94.37c0,.1.47.08.72.05,2.59-.24,5.18-.54,7.78-.73a8.2,8.2,0,0,1,2,.37c2.13.4,4.15,1.31,6.4-.18.8-.52,2.49.47,3.79.51a17.71,17.71,0,0,0,3.27-.49l.13.75-2.33.45,2.55.86c-.49,1.54-1,3.08-1.46,4.62-2.46-2.39-5.37-2.24-8.49-1.75-1.35.21-2.83-.33-4.25-.55-.23,0-.47-.32-.65-.28-2.59.58-5.16,1.19-8.14,1.89-.8-.66-1.92-2.35-3.67-.55-2.84-1.48-5.53.77-8.28.33-1-.15-1.78-1.22-2.76-1.43a33.1,33.1,0,0,0-4.69-.42c-.07,1.41-.14,2.41-1.9,1.32-.7-.44-1.85-.14-2.8-.18-.16-.48-.33-1-.5-1.43C246,276.4,246,275.2,246,274Z" transform="translate(-3 -2.57)"/><path class="z" d="M246,207c-.13,1.65-.27,3.3-.4,4.95V196c.54-.83.89-2,1.66-2.44,2-1.24,4.14.22,6.25.26,3.11.05,6.18.15,9.08-1.26.31-.15.79,0,1.18.08,3.45.65,6.88,1.67,10.44.69.35-.1,1-.08,1.12.12,1,1.66,2.46.56,2.94.07,1.15-1.16,1.67-1.43,3-.1.58.59,2.22.12,3.39.14,2.47,0,4.94.18,7.4.11.61,0,1.2-.65,1.86-1v5.91a36.37,36.37,0,0,0-5.24-.76c-3.24,0-6.45,1.14-9.75.26-1.25-.34-3.31-.87-3.75-.32-1,1.25-1.61.66-2.61.42-2.82-.66-5.62-1.83-8.59-.61-.85.35-2,1.18-2.54.9-3.25-1.66-6.56-.49-9.76-.3-5.72.33-5.71.56-5.66,4.9Z" transform="translate(-3 -2.57)"/><path class="aa" d="M1017.49,134.91l-11.86.13c-2.1.26-2.16-1-2.15-2.62,0-14.6,0-29.21,0-43.82,0-.8.07-1.59.1-2.26l2.87-.76h1v48.9h6l3.49,0Z" transform="translate(-3 -2.57)"/><path class="ab" d="M1017.49,134.91l-.49-.41q0-23.06,0-46.1c0-1.52.11-2.69,2.07-2.42l2.43.11a12.6,12.6,0,0,0-.46,2.39q0,22.18,0,44.35a8.66,8.66,0,0,0,1,2.62Z" transform="translate(-3 -2.57)"/><path class="ac" d="M1031.53,89.89l4.46,2.62a17.35,17.35,0,0,0-.47,2.84q0,22.11,0,44.21l-4-1.59Z" transform="translate(-3 -2.57)"/><path class="ad" d="M1069,209.5a16.69,16.69,0,0,0,3,1.46,5.49,5.49,0,0,0,3.1.13,8.31,8.31,0,0,1,7.32.42c.4.22,1.24-.53,1.89-.56,3.15-.11,6.42-.7,9.39,0,2.41.57,4.11-.41,6.13-.77,1.16-.2,2.86-.24,3.53.44,1.3,1.29,2.37.83,3.75.59,2.07-.36,4.66-1.21,6.18-.35,2,1.15,3.1-.19,4.59-.36v4c-3.77-.38-7.51-1.34-11.34-.5-1.25.27-2.52.51-3.78.75-.16,0-.42.08-.49,0-2-2.41-4.32-.84-6.08-.12-3.11,1.25-5.93-.15-8.87-.07-1.26,0-2.51.34-3.77.36a41.21,41.21,0,0,1-6.29-.19c-1.44-.19-2.59-1.5-4.24.14-.61.61-2.65-.2-4-.37Z" transform="translate(-3 -2.57)"/><path class="ae" d="M1117.58,257.52l-8.4.35c0-.17.13-.67.33-1.7-3.83,2.3-8.17.51-12.39,3l.78-2a20.91,20.91,0,0,0-2.09.15c-1.14.2-2.56,1.43-2.91-.9l-2.4.48-.07-.17c-.63.32-1.42,1.06-1.83.89-3.9-1.67-7.6-.21-11.57.62.17-.64.31-1.15.47-1.79-1.28.37-3.08-1.21-3.87,1.2a5,5,0,0,1-1.63-.24c-1-.28-2-.64-3-1v-2c3.07-.42,6.13-.9,9.2-1.22a21,21,0,0,1,2.9.33c1.4.07,2.81,0,4.21,0,.33,0,.69-.19,1-.11,3.15.86,6.08-.12,9.16-.61,3.26-.52,6.75.47,10.15.67,2.2.13,4.42.06,6.63,0,1.88,0,3.77-.08,5.66-.12C1117.81,254.84,1117.7,256.18,1117.58,257.52Z" transform="translate(-3 -2.57)"/><path class="af" d="M994.6,137.55c-.36-.63-1.05-1.25-1.05-1.88q-.09-23.34,0-46.69a8.1,8.1,0,0,1,.46-1.9l3-.51c0,15.77,0,31.54,0,47.3a8.4,8.4,0,0,0,1,2.65Z" transform="translate(-3 -2.57)"/><path class="ag" d="M1006.48,85.58l-2.87.76c0,.67-.1,1.46-.1,2.26,0,14.61,0,29.22,0,43.82,0,1.59,0,2.88,2.15,2.62l-3.09.47-2.31-.19a6.33,6.33,0,0,1-.21-1c0-15.38,0-30.76,0-46.13,0-.71.61-1.42.94-2.13Z" transform="translate(-3 -2.57)"/><path class="ah" d="M1117.93,206.5c-1.92.11-4-1.7-5.79.64-.28.37-1.73,0-2.61-.27-1.59-.39-3.75-1.79-4.61-1.21-2.92,2-5.71-1.2-8.68.33-.9.46-3,.27-4.57.56-1.36.26-3,1.06-4.16-.83-.21-.35-1.54-.05-2.35,0a11.1,11.1,0,0,0-2.08.3c-1.19.3-2.36,1-3.51,1-1.35,0-2.66-1-4-1.05a55.13,55.13,0,0,0-6.52.55c0-1.33,0-2.66,0-4,3.3-.62,6.57.28,9.84.21,9-.17,17.89-.61,26.84-.73,2.75,0,5.5.73,8.26.94a22.39,22.39,0,0,0,4-.42Z" transform="translate(-3 -2.57)"/><path class="ai" d="M1019.05,86c-2-.27-2.07.9-2.07,2.42q0,23.05,0,46.1l-3.49,0q0-24.5,0-49Z" transform="translate(-3 -2.57)"/><path class="aj" d="M1011,134.47h-3.51V85.57l3.5-.08Q1011,110,1011,134.47Z" transform="translate(-3 -2.57)"/><path class="ak" d="M249.94,285.63c.31-.25.62-.7.93-.71,4.29-.09,8.58-.11,12.88-.18,2,0,4-.56,5.9-.15,3,.66,5.82-.16,8.7-.51.29,0,.59-.37.85-.32,3.32.58,6.64,1.2,10,1.81L285,289.93c-2.33-.69-4.56-1.85-7.15-1.07a11.26,11.26,0,0,1-3.48.33c-1.59,0-3.17-.36-4.76-.4-3.61-.1-7.23-.24-10.83-.08A22.08,22.08,0,0,0,254,290Z" transform="translate(-3 -2.57)"/><path class="c" d="M869.11,368.45c-5,5.43-9.48,10.43-14.13,15.28-.66.69-2.05.8-3.13.91-1.47.15-3,0-4.91,0,3.28-5.46,6.33-10.56,9.44-15.63a1.64,1.64,0,0,1,1.24-.57C861.25,368.43,864.89,368.45,869.11,368.45Z" transform="translate(-3 -2.57)"/><path class="al" d="M1042.42,98,1046,102a10.73,10.73,0,0,0-.51,2.32q0,20.57,0,41.13l-3.54-2.36q0-21.09,0-42.16A20.35,20.35,0,0,1,1042.42,98Z" transform="translate(-3 -2.57)"/><path class="am" d="M254,290a22.08,22.08,0,0,1,4.76-1.31c3.6-.16,7.22,0,10.83.08,1.59,0,3.17.36,4.76.4a11.26,11.26,0,0,0,3.48-.33c2.59-.78,4.82.38,7.15,1.07-7.05,6.52-19.25,7.49-28,2.19C255.93,291.49,255,290.72,254,290Z" transform="translate(-3 -2.57)"/><path class="an" d="M1109.48,288.91c-9.18,9.11-24.5,7.86-32.49.12a3.79,3.79,0,0,1,1.31-.5q6.12.11,12.23.32c1.27,0,2.53.31,3.81.39.89.06,2,.31,2.64-.1,2.08-1.3,4.13-.48,6.2-.27.46.05,1.17.36,1.35.16C1106.18,287.31,1107.83,288.6,1109.48,288.91Z" transform="translate(-3 -2.57)"/><path class="ao" d="M1001,86.07c-.33.71-.94,1.42-.94,2.13,0,15.37,0,30.75,0,46.13a6.33,6.33,0,0,0,.21,1l2.31.19-4.49,1a8.4,8.4,0,0,1-1-2.65c-.06-15.76,0-31.53,0-47.3Z" transform="translate(-3 -2.57)"/><path class="ap" d="M1023.93,86.57l3.15,1.37a15.53,15.53,0,0,0-.56,2.81q0,22.85,0,45.69l-2-.5a12,12,0,0,1-.94-3.12c-.06-15.42,0-30.85,0-46.27A.44.44,0,0,1,1023.93,86.57Z" transform="translate(-3 -2.57)"/><path class="aq" d="M1109.48,288.91c-1.65-.31-3.3-1.6-5,.12-.18.2-.89-.11-1.35-.16-2.07-.21-4.12-1-6.2.27-.65.41-1.75.16-2.64.1-1.28-.08-2.54-.34-3.81-.39q-6.1-.23-12.23-.32a3.79,3.79,0,0,0-1.31.5q-1.76-2-3.52-4c.19-.16.42-.49.56-.46,2.42.61,4.79,1.07,7.2-.18a6.58,6.58,0,0,1,2.67-.5,6.65,6.65,0,0,1,1.94.37c.55.15,1.09.56,1.62.55,2.86-.08,5.72-.25,8.57-.4.33,0,.8-.25,1-.12,2,1.88,4.16.07,6.2.24,3.11.25,6.2.84,9.29,1.29Z" transform="translate(-3 -2.57)"/><path class="ar" d="M361.53,142.48l-3-2a8.74,8.74,0,0,0,.94-2.69q.07-24.87,0-49.72l2,.52a18,18,0,0,1,.46,2.9q0,24.19,0,48.39A15.61,15.61,0,0,1,361.53,142.48Z" transform="translate(-3 -2.57)"/><path class="as" d="M359.5,88.08q0,24.86,0,49.72a8.74,8.74,0,0,1-.94,2.69L355.93,139a8,8,0,0,0,1-2.64c.07-16.29.05-32.57.05-48.86Z" transform="translate(-3 -2.57)"/><path class="at" d="M357,87.53c0,16.29,0,32.57-.05,48.86a8,8,0,0,1-1,2.64l-2-1a13.89,13.89,0,0,0,.56-2.8q.06-24.12,0-48.25Z" transform="translate(-3 -2.57)"/><path class="au" d="M344.52,85.58l4,.45q0,25,0,50.05L343.94,135c1.66.22,2.09-.58,2.09-2.16,0-14.94,0-29.88-.09-44.82C345.93,87.21,345,86.4,344.52,85.58Z" transform="translate(-3 -2.57)"/><path class="av" d="M333.49,85.48l10,0v48.91H341q0-23.25,0-46.49c0-1,.53-2.56-1.49-2.42l-2.49,0h-1.5l-2,0Z" transform="translate(-3 -2.57)"/><path class="aw" d="M348.48,136.08q0-25,0-50.05l1,.06c.49.74,1.4,1.47,1.41,2.21q.12,23.16,0,46.32c0,.63-.66,1.26-1,1.9Z" transform="translate(-3 -2.57)"/><path class="ax" d="M341,134.44h2.51V85.53l1,0c.49.82,1.41,1.63,1.42,2.46.08,14.94,0,29.88.09,44.82,0,1.58-.43,2.38-2.09,2.16l-3.56-.46Z" transform="translate(-3 -2.57)"/><path class="ay" d="M308,106.51l3.09-5.45a18.42,18.42,0,0,1,.37,2.64q.07,19.49.09,39l-3,2.41q0-17.86,0-35.72A17.56,17.56,0,0,0,308,106.51Z" transform="translate(-3 -2.57)"/><path class="az" d="M1023.5,86.55c0,15.42,0,30.85,0,46.27a12,12,0,0,0,.94,3.12l-2.49-.49a8.66,8.66,0,0,1-1-2.62q-.09-22.17,0-44.35a12.6,12.6,0,0,1,.46-2.39Z" transform="translate(-3 -2.57)"/><path class="ba" d="M337,85.51l2.49,0q0,24.48,0,49l-3.48-.07a11.65,11.65,0,0,0,.94-3.11C337,116,337,100.78,337,85.51Z" transform="translate(-3 -2.57)"/><path class="bb" d="M1011,134.47q0-24.5,0-49l2.5,0q0,24.5,0,49Z" transform="translate(-3 -2.57)"/><path class="bc" d="M1026.5,136.44q0-22.84,0-45.69a15.53,15.53,0,0,1,.56-2.81l2.49,1a15.5,15.5,0,0,0-.55,2.81q-.06,22.68-.06,45.37Z" transform="translate(-3 -2.57)"/><path class="bd" d="M329,86.46l1.63-.58.89-.3q0,23.21,0,46.39c0,1.32-.06,2.46-1.51,3l-1,.17Q329,110.78,329,86.46Z" transform="translate(-3 -2.57)"/><path class="be" d="M1029,137.13q0-22.69.06-45.37a15.5,15.5,0,0,1,.55-2.81l2,.94,0,48.08Z" transform="translate(-3 -2.57)"/><path class="bf" d="M318.43,92.46l2.51-2a12.89,12.89,0,0,1,.54,2.55q0,20.77,0,41.54a18,18,0,0,1-.47,2.88l-2.51,1.07a17.09,17.09,0,0,0,.48-2.89q0-20.3,0-40.6A12.92,12.92,0,0,0,318.43,92.46Z" transform="translate(-3 -2.57)"/><path class="bg" d="M1038,94l2.44,2a9.19,9.19,0,0,0-.9,2.71c-.06,14.27,0,28.55,0,42.82l-2-1a10.45,10.45,0,0,1-.47-2.16q0-21.23,0-42.44C1037.05,95.28,1037.67,94.64,1038,94Z" transform="translate(-3 -2.57)"/><path class="bh" d="M1039.49,141.55c0-14.27,0-28.55,0-42.82a9.19,9.19,0,0,1,.9-2.71l2,2a20.35,20.35,0,0,0-.4,2.88q-.06,21.08,0,42.16Z" transform="translate(-3 -2.57)"/><path class="bi" d="M361.53,142.48a15.61,15.61,0,0,0,.45-2.59q0-24.19,0-48.39a18,18,0,0,0-.46-2.9l2.51.8q0,25.88,0,51.75a17.35,17.35,0,0,1-.47,2.84Z" transform="translate(-3 -2.57)"/><path class="c" d="M774,382V370.58h9.31V382Z" transform="translate(-3 -2.57)"/><path class="c" d="M736.85,382.05h-9.33V370.54h9.33Z" transform="translate(-3 -2.57)"/><path class="bj" d="M354.5,87q0,24.12,0,48.25a13.89,13.89,0,0,1-.56,2.8l-2.5-1a8,8,0,0,0,1-2.63c.07-15.94.05-31.88.05-47.82Z" transform="translate(-3 -2.57)"/><path class="bk" d="M330,134.94c1.45-.51,1.51-1.65,1.51-3q0-23.19,0-46.39l2-.1.05.09q0,24.48,0,48.94Z" transform="translate(-3 -2.57)"/><path class="bl" d="M329,86.46q0,24.32,0,48.65l-2,.39q0-22.65,0-45.31a13.05,13.05,0,0,0-.59-2.77Z" transform="translate(-3 -2.57)"/><path class="bm" d="M333.5,134.51q0-24.46,0-48.94l2,0v48.91Z" transform="translate(-3 -2.57)"/><path class="bn" d="M1053.11,112.93l2.34,4.59a16.08,16.08,0,0,0-.43,2.62c0,11.32,0,22.64-.06,34l-2.46-2.6c0-11.93,0-23.86,0-35.79A13.77,13.77,0,0,1,1053.11,112.93Z" transform="translate(-3 -2.57)"/><path class="bo" d="M326.38,87.42a13.05,13.05,0,0,1,.59,2.77q.06,22.66,0,45.31l-2,.52c0-14.94,0-29.88-.05-44.82a8.91,8.91,0,0,0-.94-2.69Z" transform="translate(-3 -2.57)"/><path class="bp" d="M324,88.51A8.91,8.91,0,0,1,325,91.2c.06,14.94,0,29.88.05,44.82l-3,1a10.33,10.33,0,0,0,1-2.89Q323,113.06,323,92a11.67,11.67,0,0,0-.56-2.55Z" transform="translate(-3 -2.57)"/><path class="bq" d="M1045.51,145.44q0-20.57,0-41.13A10.73,10.73,0,0,1,1046,102l2,2.52a12.1,12.1,0,0,0-.46,2.34q0,20.06,0,40.1Z" transform="translate(-3 -2.57)"/><path class="br" d="M311.57,142.68q0-19.49-.09-39a18.42,18.42,0,0,0-.37-2.64L313,98.48a10.73,10.73,0,0,1,.51,2.32q0,18.95,0,37.89a18.61,18.61,0,0,1-.45,2.92Z" transform="translate(-3 -2.57)"/><path class="bs" d="M1049.59,106.94l1.92,3.06a16.28,16.28,0,0,0-.49,2.83q0,18.58,0,37.18l-2-1.91c0-12.79,0-25.58.07-38.37A14.52,14.52,0,0,1,1049.59,106.94Z" transform="translate(-3 -2.57)"/><path class="bt" d="M308,106.51a17.56,17.56,0,0,1,.46,2.86q.06,17.85,0,35.72l-2,1.93c0-11.29,0-22.58,0-33.86a15.68,15.68,0,0,0-.41-2.62Z" transform="translate(-3 -2.57)"/><path class="bu" d="M352.5,86.59c0,15.94,0,31.88-.05,47.82a8,8,0,0,1-1,2.63l-1.45-.52c.34-.64,1-1.27,1-1.9q.07-23.16,0-46.32c0-.74-.92-1.47-1.41-2.21Z" transform="translate(-3 -2.57)"/><path class="bv" d="M504,498.42v-9.27h7.7v9.27Z" transform="translate(-3 -2.57)"/><path class="bw" d="M339.5,134.49q0-24.48,0-49c2-.14,1.49,1.37,1.49,2.42q0,23.25,0,46.49l-.61.12Z" transform="translate(-3 -2.57)"/><path class="bx" d="M335.5,134.43V85.52H337c0,15.27,0,30.53,0,45.8a11.65,11.65,0,0,1-.94,3.11Z" transform="translate(-3 -2.57)"/><path class="by" d="M1038,94c-.33.64-1,1.28-1,1.93q-.07,21.22,0,42.44a10.45,10.45,0,0,0,.47,2.16l-2-1q0-22.11,0-44.21a17.35,17.35,0,0,1,.47-2.84Z" transform="translate(-3 -2.57)"/><path class="bz" d="M322.41,89.44A11.67,11.67,0,0,1,323,92q.06,21.08,0,42.14a10.33,10.33,0,0,1-1,2.89l-1,.41a18,18,0,0,0,.47-2.88q0-20.78,0-41.54a12.89,12.89,0,0,0-.54-2.55Z" transform="translate(-3 -2.57)"/><path class="ca" d="M1058.94,126.53a15.76,15.76,0,0,0-.42,2.61q-.06,14.72,0,29.42l-2-2.56q0-16.19,0-32.37A15.79,15.79,0,0,1,1057,121C1057.62,122.86,1058.28,124.69,1058.94,126.53Z" transform="translate(-3 -2.57)"/><path class="cb" d="M318.43,92.46A12.92,12.92,0,0,1,319,95q0,20.3,0,40.6a17.09,17.09,0,0,1-.48,2.89l-1,.5q0-22.81-.05-45.62Z" transform="translate(-3 -2.57)"/><path class="cc" d="M314.49,96.49l2-2.11q0,22.56,0,45.13l-2,1.19a23.15,23.15,0,0,0,.44-3.18q0-19.22,0-38.44A14.05,14.05,0,0,0,314.49,96.49Z" transform="translate(-3 -2.57)"/><path class="cd" d="M314.49,96.49a14.05,14.05,0,0,1,.49,2.59q0,19.22,0,38.44a23.15,23.15,0,0,1-.44,3.18l-1.51.91a18.61,18.61,0,0,0,.45-2.92q0-18.94,0-37.89a10.73,10.73,0,0,0-.51-2.32Z" transform="translate(-3 -2.57)"/><path class="ce" d="M1049.59,106.94a14.52,14.52,0,0,0-.56,2.79c-.06,12.79-.06,25.58-.07,38.37l-1.45-1.15q0-20,0-40.1a12.1,12.1,0,0,1,.46-2.34C1048.52,105.32,1049.06,106.13,1049.59,106.94Z" transform="translate(-3 -2.57)"/><path class="cf" d="M1051,150q0-18.58,0-37.18a16.28,16.28,0,0,1,.49-2.83l1.6,2.93a13.77,13.77,0,0,0-.58,2.78c0,11.93,0,23.86,0,35.79Z" transform="translate(-3 -2.57)"/><path class="cg" d="M1057,121a15.79,15.79,0,0,0-.43,2.61q0,16.19,0,32.37l-1.54-1.9c0-11.32,0-22.64.06-34a16.08,16.08,0,0,1,.43-2.62Z" transform="translate(-3 -2.57)"/><path class="ch" d="M316.5,139.51q0-22.57,0-45.13l1-1q0,22.8.05,45.62Z" transform="translate(-3 -2.57)"/><path class="ae" d="M246,259v-5.5l2.14-.26-.22-.74h45.95q0,3.23,0,6.46c-.3-.27-.61-.78-.9-.77-2.76.09-5.55.14-8.29.48-2.44.3-5-.9-7.37.58-.41.25-1.5-.12-2-.54a3.87,3.87,0,0,0-4.11-.49c-.67.22-2,.4-2.08.17-.81-1.71-1.71-.54-2.73-.39-1.6.24-3.55,2.3-4.49-.19-1.62.26-3,.59-4.3.67C253.76,258.7,249.89,258.83,246,259Z" transform="translate(-3 -2.57)"/><path class="ci" d="M293.89,268.5c-1.84,1.5-3.93.89-6,.8s-4.46.06-6.69.12c-1.49,0-3.24,1.6-4.35-.85-.1-.23-1.52.2-2.34.23-2,.07-4.06.05-6.09.15-1.1.05-2.2.25-3.29.39-.24,0-.6.23-.71.13-2.38-2.15-4.68.41-7.11.12-3.72-.43-7.53-.1-11.29-.09V263c2.82.33,5.65.84,8.48.95,3.42.12,6.76-.69,10.27-.5,3.35.18,6.93,1.59,10.27-.37a1.81,1.81,0,0,1,1-.07c2.85.25,5.71.53,8.57.79.74.07,1.48.15,2.22.15,2.36,0,4.72,0,7.07,0Z" transform="translate(-3 -2.57)"/><path class="cj" d="M246,243v-5.5c2.25-.29,4.5-.72,6.77-.82,1.87-.09,3.58.8,5.67-.07,3-1.26,6.14,1.31,9.48.26,2.21-.69,4.76-.26,7.16-.33.58,0,1.56-.19,1.68,0,.9,1.84,2.8,1.18,3.62.8,3.13-1.48,6.43.58,9.55-.8,1.11-.49,2.62-.08,3.95-.07,0,2.15,0,4.3,0,6.45a6.23,6.23,0,0,0-1.64-.67c-1.85-.2-3.72-.33-5.58-.39a11.58,11.58,0,0,0-2.15.34,13.57,13.57,0,0,1-3.06.42c-1-.09-2-.9-3-.87-2.92.1-6,0-8.69.88a8.37,8.37,0,0,1-4.7.08,44.18,44.18,0,0,0-7.64-.22c-1.05,0-2.1.3-3.16.33C251.54,242.94,248.78,243,246,243Z" transform="translate(-3 -2.57)"/><path class="ck" d="M246,221.5v-4c3.32-.34,6.64-.9,10-.92,1.94,0,3.74,1.85,5.94,0,.6-.5,2.42.5,3.69.77a2.87,2.87,0,0,0,1.35.12c1.54-.45,3-1.12,4.59-1.45.62-.13,1.4.37,2.08.66.89.38,1.63,1.43,2.75.2a2.63,2.63,0,0,1,2.09-.58c2.15.38,4.26,1,6.38,1.49l.16-.72-2.5-.16c2.25-.92,4.48-1.5,6.92.48l-2.45.17c3.49.75,5.78.18,6.94-1.52,0,2.16,0,4.32,0,6.48a12.08,12.08,0,0,0-3.13-.82c-2.73,0-5.47.29-8.2.49a18,18,0,0,1-2,.31c-3.55-.15-7.25-1.08-10.59-.34-3.09.67-6.29-2.05-9.05.67-1.72-2.06-3.92-.43-5.88-.68a66.85,66.85,0,0,0-8.38-.09l.77-.35Z" transform="translate(-3 -2.57)"/><path class="e" d="M293.9,236.51c-1.33,0-2.84-.42-3.95.07-3.12,1.38-6.42-.68-9.55.8-.82.38-2.72,1-3.62-.8-.12-.23-1.1-.06-1.68,0-2.4.07-5-.36-7.16.33-3.34,1-6.47-1.52-9.48-.26-2.09.87-3.8,0-5.67.07-2.27.1-4.52.53-6.77.82V232c6.46,0,13-1.29,19,.48a7.87,7.87,0,0,1,2.4-.93c1.34,0,2.68.55,4,.49,3.46-.15,6.9-.51,10.35-.75a10.51,10.51,0,0,1,1.43.26c.89.1,1.79.16,2.69.19,2.69.09,5.38.15,8.07.23C293.91,233.48,293.9,235,293.9,236.51Z" transform="translate(-3 -2.57)"/><path class="cl" d="M293.89,252.5H247.94l.22.74-2.14.26V247c2.65.33,5.3.69,7.95,1,.28,0,.57-.48.91-.65a2.45,2.45,0,0,1,1.21-.4c2.82.23,5.63.72,8.45.72,1.46,0,2.93-.79,4.21-1.18,0,.5,0,1,.1,1,1.17.24,2.65,1,3.49.52,3.75-2,7.49-.54,11.22-.42,1.15,0,2.3.19,3.44.29.12-1.85.93-.86,1.78-.53,1.82.7,3.66,1,5.13-.8C293.9,248.54,293.9,250.52,293.89,252.5Z" transform="translate(-3 -2.57)"/><path class="o" d="M293.89,264c-2.35,0-4.71,0-7.07,0-.74,0-1.48-.08-2.22-.15-2.86-.26-5.72-.54-8.57-.79a1.81,1.81,0,0,0-1,.07c-3.34,2-6.92.55-10.27.37-3.51-.19-6.85.62-10.27.5-2.83-.11-5.66-.62-8.48-.95v-4c3.87-.17,7.74-.3,11.61-.52,1.34-.08,2.68-.41,4.3-.67.94,2.49,2.89.43,4.49.19,1-.15,1.92-1.32,2.73.39.11.23,1.41.05,2.08-.17a3.87,3.87,0,0,1,4.11.49c.5.42,1.59.79,2,.54,2.4-1.48,4.93-.28,7.37-.58,2.74-.34,5.53-.39,8.29-.48.29,0,.6.5.9.77C293.9,260.63,293.9,262.3,293.89,264Z" transform="translate(-3 -2.57)"/><path class="cm" d="M246,221.5l1.39.23-.77.35a66.85,66.85,0,0,1,8.38.09c2,.25,4.16-1.38,5.88.68,2.76-2.72,6,0,9.05-.67,3.34-.74,7,.19,10.59.34a18,18,0,0,0,2-.31c2.73-.2,5.47-.45,8.2-.49a12.08,12.08,0,0,1,3.13.82V227a13,13,0,0,1-2.66.43c-2.67-.13-5.41-.91-8-.51-5.07.79-10.14.12-15.18.24-3.09.08-6.25.46-9.38.28-2.75-.16-5.49-.64-8.23-.63-1.49,0-3,.74-4.45,1.15Z" transform="translate(-3 -2.57)"/><path class="cn" d="M293.91,246.55c-1.47,1.83-3.31,1.5-5.13.8-.85-.33-1.66-1.32-1.78.53-1.14-.1-2.29-.26-3.44-.29-3.73-.12-7.47-1.59-11.22.42-.84.45-2.32-.28-3.49-.52-.08,0-.06-.54-.1-1-1.28.39-2.75,1.19-4.21,1.18-2.82,0-5.63-.49-8.45-.72a2.45,2.45,0,0,0-1.21.4c-.34.17-.63.68-.91.65-2.65-.27-5.3-.63-7.95-1v-4c2.76,0,5.52-.06,8.27-.14,1.06,0,2.11-.32,3.16-.33a44.18,44.18,0,0,1,7.64.22,8.37,8.37,0,0,0,4.7-.08c2.69-.91,5.77-.78,8.69-.88,1,0,2,.78,3,.87a13.57,13.57,0,0,0,3.06-.42,11.58,11.58,0,0,1,2.15-.34c1.86.06,3.73.19,5.58.39a6.23,6.23,0,0,1,1.64.67Z" transform="translate(-3 -2.57)"/><path class="l" d="M246,203c-.05-4.34-.06-4.57,5.66-4.9,3.2-.19,6.51-1.36,9.76.3.55.28,1.69-.55,2.54-.9,3-1.22,5.77-.05,8.59.61,1,.24,1.62.83,2.61-.42.44-.55,2.5,0,3.75.32,3.3.88,6.51-.27,9.75-.26a36.37,36.37,0,0,1,5.24.76V203c-1.82-1.43-3.62-.47-5.43,0a8.42,8.42,0,0,1-2.54.5c-.94,0-1.86-.51-2.81-.6-2.61-.25-5.33,0-7.82-.7-1.69-.45-3.07-.82-4.52.24-2.69,2-5.77.44-8.51.44-2.11,0-4.14-.66-6.23.42-.56.29-1.5.57-1.89.31C251.53,201.83,248.74,203,246,203Z" transform="translate(-3 -2.57)"/><path class="co" d="M246,228c1.48-.41,3-1.15,4.45-1.15,2.74,0,5.48.47,8.23.63,3.13.18,6.29-.2,9.38-.28,5-.12,10.11.55,15.18-.24,2.58-.4,5.32.38,8,.51a13,13,0,0,0,2.66-.43V232c-2.69-.08-5.38-.14-8.07-.23-.9,0-1.8-.09-2.69-.19a10.51,10.51,0,0,0-1.43-.26c-3.45.24-6.89.6-10.35.75-1.32.06-2.66-.48-4-.49a7.87,7.87,0,0,0-2.4.93c-6-1.77-12.49-.51-19-.48Z" transform="translate(-3 -2.57)"/><path class="cp" d="M293.92,216.06c-1.16,1.7-3.45,2.27-6.94,1.52l2.45-.17c-2.44-2-4.67-1.4-6.92-.48l2.5.16-.16.72c-2.12-.51-4.23-1.11-6.38-1.49a2.63,2.63,0,0,0-2.09.58c-1.12,1.23-1.86.18-2.75-.2-.68-.29-1.46-.79-2.08-.66-1.56.33-3.05,1-4.59,1.45a2.87,2.87,0,0,1-1.35-.12c-1.27-.27-3.09-1.27-3.69-.77-2.2,1.83-4,0-5.94,0-3.32,0-6.64.58-10,.92,0-.83-.06-1.67,0-2.49,0-.46.14-1.21.42-1.32a14.64,14.64,0,0,1,4.67-1.5c3.75-.11,7.5.24,11.26.3a117.73,117.73,0,0,0,13.42-.1,47.23,47.23,0,0,1,10.23.28,54.83,54.83,0,0,0,7.89-.16C293.91,213.69,293.92,214.87,293.92,216.06Z" transform="translate(-3 -2.57)"/><path class="cq" d="M246,203c2.72,0,5.51-1.17,8.15.62.39.26,1.33,0,1.89-.31,2.09-1.08,4.12-.43,6.23-.42,2.74,0,5.82,1.55,8.51-.44,1.45-1.06,2.83-.69,4.52-.24,2.49.65,5.21.45,7.82.7.95.09,1.87.57,2.81.6a8.42,8.42,0,0,0,2.54-.5c1.81-.52,3.61-1.48,5.43,0v3.58h-3.84l1-.86c-3.26,1.51-6.91-.51-10.09,1.19-3.24-2.29-7.15,2.09-10.19-1.6-.48,1.28-.77,2-1.08,2.83-.58-1.69-1.31-2.55-2.7-.72a.27.27,0,0,1-.21.09c-2.71-.08-5.43-.06-8-1a6.59,6.59,0,0,1,.15-1.5A10.51,10.51,0,0,1,257,206.4c-.43.17-1-.08-1.54-.1-1.56-.06-3-.87-4.67.49-1,.81-3.14.19-4.76.21Z" transform="translate(-3 -2.57)"/></svg>