<?xml version="1.0" encoding="utf-8"?>
<svg version="1.1" xmlns="http://www.w3.org/2000/svg" xmlns:xlink="http://www.w3.org/1999/xlink" x="0px" y="0px"
	 viewBox="0 0 104.4 53.9" style="enable-background:new 0 0 104.4 53.9;" xml:space="preserve">
<g>
	<g>
		<path fill="#1D1D3F" d="M6,49.1H3.4v4.6H0V38.3h6.3c3.7,0,5.9,2.2,5.9,5.3v0C12.2,47.2,9.4,49.1,6,49.1z M8.8,43.7
			c0-1.5-1.1-2.3-2.8-2.3H3.4V46h2.7C7.8,46,8.8,45,8.8,43.7L8.8,43.7z"/>
		<path class="st0" d="M23.5,53.7l-1.4-3.5h-6.5l-1.4,3.5h-3.5l6.6-15.5h3.1L27,53.7H23.5z M18.8,42.2l-2,5h4.1L18.8,42.2z"/>
		<path class="st0" d="M28.7,53.7V38.3H32v12.3h7.7v3.1H28.7z"/>
		<path class="st0" d="M53.4,53.7V43.6L49,50.2h-0.1l-4.3-6.5v10h-3.3V38.3H45l4,6.5l4-6.5h3.7v15.4H53.4z"/>
		<path class="st0" d="M70.4,53.7h-7.3V38.3h7.2c3.1,0,5.1,1.6,5.1,4v0c0,1.7-0.9,2.7-2,3.3c1.8,0.7,2.9,1.7,2.9,3.8v0
			C76.2,52.3,73.9,53.7,70.4,53.7z M72,42.8c0-1-0.8-1.6-2.2-1.6h-3.3v3.3h3.1C71,44.5,72,44,72,42.8L72,42.8z M72.8,49
			c0-1-0.8-1.7-2.5-1.7h-3.9v3.4h4C71.9,50.7,72.8,50.2,72.8,49L72.8,49z"/>
		<path class="st0" d="M84.2,53.9c-4.1,0-6.7-2.3-6.7-6.8v-8.8H81V47c0,2.5,1.3,3.8,3.3,3.8c2.1,0,3.3-1.3,3.3-3.7v-8.8H91V47
			C91,51.6,88.4,53.9,84.2,53.9z"/>
		<path class="st0" d="M98.8,53.9c-2.3,0-4.7-0.8-6.5-2.5l2-2.4c1.4,1.1,2.8,1.9,4.6,1.9c1.4,0,2.2-0.5,2.2-1.5v0
			c0-0.9-0.5-1.3-3.1-2c-3.1-0.8-5.1-1.7-5.1-4.7v0c0-2.8,2.2-4.6,5.4-4.6c2.2,0,4.2,0.7,5.7,2l-1.8,2.6c-1.4-0.9-2.7-1.5-4-1.5
			c-1.3,0-2,0.6-2,1.3v0c0,1,0.7,1.3,3.3,2c3.1,0.8,4.9,1.9,4.9,4.6v0C104.4,52.2,102.1,53.9,98.8,53.9z"/>
	</g>
</g>
<g>
	<path fill="#FECB14" d="M81.3,30c0-3.9-0.6-7.7-1.9-11.2c-1.3-3.5-3.3-6.8-6-9.7c-4.2-4.4-9.6-7.3-15.3-8.5C56.1,0.2,54.2,0,52.2,0
		c-2,0-3.9,0.2-5.9,0.6c-5.7,1.2-11.1,4.1-15.3,8.5c-2.7,2.9-4.7,6.1-6,9.7c-1.3,3.5-1.9,7.4-1.9,11.2c0,0.9,0,1.8,0,2.8
		c0,0.7,0-0.6,0-0.7c0-6,2.2-11.7,5.8-16.3c3.6-4.7,8.5-8.3,14-10.2c1.1-0.4,2.2-0.7,3.3-0.9c-4.7,1.1-9,3.6-12.4,7.1
		c-2.4,2.5-4.1,5.3-5.2,8.4c-1,2.8-1.6,5.8-1.7,8.9c0,0.4,0,0.8,0,1.2c0,0.8,0,1.6,0,2.5c0,0.7,0-0.2,0-0.5c0-3.3,0.8-6.5,2.1-9.5
		c0.8-1.7,1.7-3.3,2.9-4.8c0.8-1.1,1.7-2,2.6-3c2.7-2.6,6-4.7,9.6-5.9c0.4-0.1,0.9-0.3,1.3-0.4c-3.3,1.1-6.4,3-8.9,5.6
		c-2,2.1-3.5,4.5-4.4,7.1c-0.9,2.5-1.4,5.1-1.4,7.8c0,0.4,0,0.7,0,1.1c0,0.7,0,1.5,0,2.2c0,0.7,0,0.2,0-0.2c0-2.8,0.7-5.6,1.8-8.1
		c0.7-1.4,1.5-2.8,2.4-4c0.7-0.9,1.4-1.7,2.3-2.5c2.3-2.2,5.1-3.9,8.1-5c-2.2,1-4.3,2.4-6,4.2c-1.7,1.7-2.9,3.7-3.6,5.9
		c-0.8,2.2-1.2,4.5-1.2,6.8c0,0.9,0,1.9,0,2.9c0,0.7,0,0.7,0,0c0-2.4,0.6-4.6,1.5-6.6c0.9-2,2.3-3.9,3.9-5.4c3.2-3.1,7.6-5,12.2-5h0
		h0c4.6,0,9,2,12.2,5c1.6,1.5,3,3.4,3.9,5.4c0.9,2,1.5,4.3,1.5,6.6c0,0.7,0,0.7,0,0c0-1,0-1.9,0-2.9c0-2.4-0.4-4.7-1.2-6.8
		c-0.8-2.2-2-4.2-3.6-5.9c-1.7-1.8-3.8-3.2-6-4.2c3,1,5.8,2.8,8.1,5c0.8,0.8,1.6,1.6,2.3,2.5c1,1.3,1.8,2.6,2.4,4
		c1.1,2.5,1.8,5.2,1.8,8.1c0,0.5,0,0.9,0,0.2c0-0.7,0-1.5,0-2.2c0-0.4,0-0.7,0-1.1c-0.1-2.7-0.5-5.4-1.4-7.8c-1-2.6-2.4-5-4.4-7.1
		c-2.5-2.6-5.6-4.5-8.9-5.6c0.4,0.1,0.9,0.2,1.3,0.4c3.6,1.2,6.9,3.3,9.6,5.9c1,0.9,1.8,1.9,2.6,3c1.1,1.5,2.1,3.1,2.9,4.8
		c1.4,2.9,2.1,6.1,2.1,9.5c0,0.3,0,1.2,0,0.5c0-0.8,0-1.7,0-2.5c0-0.4,0-0.8,0-1.2c-0.1-3.1-0.6-6-1.7-8.9c-1.1-3.1-2.8-5.9-5.2-8.4
		c-3.4-3.5-7.7-6-12.4-7.1c1.1,0.2,2.2,0.5,3.3,0.9c5.6,1.9,10.5,5.6,14,10.2c3.6,4.7,5.7,10.4,5.8,16.3c0,0.1,0,1.5,0,0.7
		C81.3,31.9,81.3,31,81.3,30z"/>
</g>
</svg>
