<svg id="Calque_1" data-name="Calque 1" xmlns="http://www.w3.org/2000/svg" viewBox="0 0 221.87 72.83"><defs><style>.cls-1{fill:#92c020;}.cls-2{fill:#de005d;}.cls-3{fill:#1d1e1c;}.cls-4{fill:#fff;}</style></defs><path class="cls-1" d="M163.08,20.92l.76-3.81h-1.52V12.45h5.74v4.8l-1.23,3.67Z" transform="translate(-6.37 -5.71)"/><path class="cls-2" d="M188.64,28.81a4.5,4.5,0,0,1-2.18,4.05,7.64,7.64,0,0,1-2.37,1,13.29,13.29,0,0,1-2.87.3H171.06V13.44h12a4.26,4.26,0,0,1,2,.46,5.24,5.24,0,0,1,1.48,1.21,5.72,5.72,0,0,1,.95,1.69,5.86,5.86,0,0,1,.33,1.94,5.65,5.65,0,0,1-.74,2.78,4.67,4.67,0,0,1-2.23,2,5.51,5.51,0,0,1,2.81,1.82,5.44,5.44,0,0,1,1,3.48m-11.9-10.54v3.18h3.87a1.89,1.89,0,0,0,1.06-.32,1.45,1.45,0,0,0,.48-1.28,1.51,1.51,0,0,0-.41-1.21,1.41,1.41,0,0,0-1-.37Zm6.14,9.38a2,2,0,0,0-.41-1.27,1.28,1.28,0,0,0-1.05-.51h-4.68v3.47h4.48a1.71,1.71,0,0,0,1.18-.44,1.61,1.61,0,0,0,.48-1.25m17.29,1.6a3.13,3.13,0,0,0,1.69-.44A3.3,3.3,0,0,0,203,27.66a5.29,5.29,0,0,0,.64-1.64,9.16,9.16,0,0,0,.2-1.95V13.44h5.68V24.07a14.12,14.12,0,0,1-.55,4,8.74,8.74,0,0,1-1.72,3.25,8.14,8.14,0,0,1-2.92,2.15,10.06,10.06,0,0,1-4.16.79,9.91,9.91,0,0,1-4.23-.83,8.22,8.22,0,0,1-2.9-2.23A8.86,8.86,0,0,1,191.38,28a14.34,14.34,0,0,1-.52-3.91V13.44h5.68V24.07a9,9,0,0,0,.2,2,5,5,0,0,0,.64,1.66,3.39,3.39,0,0,0,1.12,1.14,3.16,3.16,0,0,0,1.67.42m25.13-9.06a17,17,0,0,0-1.8-.93,16.18,16.18,0,0,0-1.76-.65,6.52,6.52,0,0,0-1.91-.31,2.74,2.74,0,0,0-1.21.23.82.82,0,0,0-.45.79.92.92,0,0,0,.26.67,2.77,2.77,0,0,0,.76.48,8,8,0,0,0,1.21.42l1.61.5a21.21,21.21,0,0,1,2.58,1,8,8,0,0,1,2,1.24,4.78,4.78,0,0,1,1.25,1.73,6.32,6.32,0,0,1,.44,2.48,6.5,6.5,0,0,1-.69,3.13,5.69,5.69,0,0,1-1.8,2A7.85,7.85,0,0,1,223.22,34a12.46,12.46,0,0,1-2.84.34,15.74,15.74,0,0,1-2.33-.18,21.2,21.2,0,0,1-2.37-.49,22.39,22.39,0,0,1-2.27-.76,14.54,14.54,0,0,1-2-1l2.44-5A16.72,16.72,0,0,0,216,28.12a14.63,14.63,0,0,0,2.11.78,8.5,8.5,0,0,0,2.4.35,2.43,2.43,0,0,0,1.3-.25.75.75,0,0,0,.36-.65.93.93,0,0,0-.36-.74,3.18,3.18,0,0,0-1-.54c-.48-.18-1-.33-1.47-.47s-1.18-.35-1.76-.55a15.81,15.81,0,0,1-2.36-1,6.37,6.37,0,0,1-1.63-1.22,4.55,4.55,0,0,1-.95-1.56,6.16,6.16,0,0,1-.3-2,7.1,7.1,0,0,1,.62-3A6.26,6.26,0,0,1,214.62,15a7.41,7.41,0,0,1,2.46-1.32,9.06,9.06,0,0,1,2.93-.45,11.58,11.58,0,0,1,2.21.21,18.77,18.77,0,0,1,2.08.56,17.13,17.13,0,0,1,1.88.73c.58.26,1.1.51,1.57.74L225.3,20.2Z" transform="translate(-6.37 -5.71)"/><path class="cls-3" d="M6.37,57.4V5.71H30.1a15.59,15.59,0,0,1,7,1.57,18.11,18.11,0,0,1,5.5,4.07,19.34,19.34,0,0,1,3.6,5.75,17.17,17.17,0,0,1,1.31,6.52,18.41,18.41,0,0,1-2,8.41,17.19,17.19,0,0,1-5.46,6.37L51,57.4H35l-9.1-15.87H20.57V57.4Zm14.2-28.25h9A3.14,3.14,0,0,0,32,27.7a6.55,6.55,0,0,0,1.13-4.08,5.89,5.89,0,0,0-1.31-4.12,3.71,3.71,0,0,0-2.62-1.42H20.57ZM82.39,46.91V57.4H51.19V13.61H81.84V24.1H63.22v6.16H79.13V40H63.22v6.9Zm3,1.54L105.83,24.1H86.28V13.61H119.7v8.94L100.46,46.91h19.61V57.4H85.35V48.45Z" transform="translate(-6.37 -5.71)"/><path class="cls-3" d="M141.84,58.74a22.07,22.07,0,0,1-9.47-2,23.39,23.39,0,0,1-7.27-5.24,23.75,23.75,0,0,1-4.69-7.43,23.13,23.13,0,0,1-1.68-8.62,22.62,22.62,0,0,1,1.74-8.69,23.34,23.34,0,0,1,4.86-7.37,23.91,23.91,0,0,1,7.39-5.08,23,23,0,0,1,9.37-1.9,22.15,22.15,0,0,1,9.48,2,23.25,23.25,0,0,1,7.26,5.28,23.51,23.51,0,0,1,4.66,7.45,23.26,23.26,0,0,1,1.64,8.56,22.26,22.26,0,0,1-1.74,8.67,23.56,23.56,0,0,1-4.82,7.33,24,24,0,0,1-7.36,5.11,22.71,22.71,0,0,1-9.37,1.94M141.9,25a8.61,8.61,0,0,0-4,.88,8.2,8.2,0,0,0-2.79,2.35,10.06,10.06,0,0,0-1.66,3.38,14.67,14.67,0,0,0-.55,4,13.84,13.84,0,0,0,.58,4,10.17,10.17,0,0,0,1.69,3.35,8.49,8.49,0,0,0,2.79,2.33,8.75,8.75,0,0,0,4,.87,8.51,8.51,0,0,0,4-.9,8.29,8.29,0,0,0,2.79-2.37,10.53,10.53,0,0,0,1.64-3.42,15.08,15.08,0,0,0,.55-4,14.19,14.19,0,0,0-.58-4,9.76,9.76,0,0,0-1.71-3.31,8.56,8.56,0,0,0-2.83-2.27,8.74,8.74,0,0,0-4-.85" transform="translate(-6.37 -5.71)"/><path class="cls-4" d="M142.09,13.37a21.09,21.09,0,0,1,9.06,1.91,22,22,0,0,1,7,5.06,22.56,22.56,0,0,1,4.47,7.15,22.26,22.26,0,0,1,1.58,8.2A21.24,21.24,0,0,1,162.5,44a22.29,22.29,0,0,1-4.62,7,22.92,22.92,0,0,1-7.06,4.91,21.67,21.67,0,0,1-9,1.85,21.09,21.09,0,0,1-9.06-1.91,22.37,22.37,0,0,1-7-5,22.69,22.69,0,0,1-4.5-7.12,22.14,22.14,0,0,1-1.61-8.27,21.5,21.5,0,0,1,1.67-8.32A21.92,21.92,0,0,1,126,20.06a22.64,22.64,0,0,1,7.09-4.88,21.89,21.89,0,0,1,9-1.81M142,47.1a9.46,9.46,0,0,0,4.5-1,9.13,9.13,0,0,0,3.11-2.65,11.42,11.42,0,0,0,1.79-3.73,15.81,15.81,0,0,0,.59-4.26,14.87,14.87,0,0,0-.62-4.28,10.58,10.58,0,0,0-1.88-3.64,10.15,10.15,0,0,0-12-2.5,9.25,9.25,0,0,0-3.11,2.62,11.21,11.21,0,0,0-1.82,3.7,15.54,15.54,0,0,0-.59,4.23,14.87,14.87,0,0,0,.62,4.28,11.23,11.23,0,0,0,1.85,3.67,9.3,9.3,0,0,0,3.12,2.59,9.45,9.45,0,0,0,4.47,1m.12-35.67a23.89,23.89,0,0,0-9.76,2,24.61,24.61,0,0,0-7.69,5.28,24.2,24.2,0,0,0-5.06,7.68,23.48,23.48,0,0,0-1.81,9.06,24,24,0,0,0,1.74,9A24.33,24.33,0,0,0,132,57.61a23.09,23.09,0,0,0,9.89,2.09,23.6,23.6,0,0,0,9.77-2,24.81,24.81,0,0,0,7.65-5.32,24.35,24.35,0,0,0,5-7.63,23.38,23.38,0,0,0,1.81-9,24.28,24.28,0,0,0-1.7-8.91A24.87,24.87,0,0,0,159.55,19,24.2,24.2,0,0,0,152,13.53a23.09,23.09,0,0,0-9.89-2.1M142,45.16a7.64,7.64,0,0,1-3.58-.76,7.33,7.33,0,0,1-2.47-2.06,9.37,9.37,0,0,1-1.54-3,13.09,13.09,0,0,1-.53-3.73,13.54,13.54,0,0,1,.51-3.7,9.39,9.39,0,0,1,1.5-3.06,7.29,7.29,0,0,1,2.47-2.08,8.75,8.75,0,0,1,7.11,0,7.54,7.54,0,0,1,2.51,2,8.79,8.79,0,0,1,1.54,3,13.24,13.24,0,0,1,.53,3.73,13.88,13.88,0,0,1-.51,3.74,9.59,9.59,0,0,1-1.49,3.1,7.09,7.09,0,0,1-2.46,2.09,7.55,7.55,0,0,1-3.59.79" transform="translate(-6.37 -5.71)"/><path class="cls-2" d="M192.11,46.45h-5.2l-.65,2.47h4.18v4h-5.29l-1.34,4.83h-4.93l1.37-4.83h-2L177,57.74H172l1.37-4.83h-3.66v-4h4.77l.66-2.47H171.4v-3.7h4.8l1.47-5.21h4.93l-1.5,5.21h2l1.47-5.21h4.93L188,42.75h4.15v3.7Zm-10.75,2.47.65-2.47h-1.95l-.66,2.47Z" transform="translate(-6.37 -5.71)"/><path class="cls-3" d="M6.53,78.37V66.09h5.1a3.17,3.17,0,0,1,1.44.33,3.72,3.72,0,0,1,1.13.87,4,4,0,0,1,.74,1.23,3.67,3.67,0,0,1,.27,1.37A4.38,4.38,0,0,1,15,71.2a4.19,4.19,0,0,1-.59,1.13,3.31,3.31,0,0,1-.92.83,3.11,3.11,0,0,1-1.18.43l3.06,4.78h-1l-3-4.64h-4v4.64Zm.88-5.45h4.31a2.15,2.15,0,0,0,1.07-.26,2.73,2.73,0,0,0,.83-.68,3.27,3.27,0,0,0,.53-1,3.55,3.55,0,0,0,.18-1.12,2.92,2.92,0,0,0-.22-1.13,3.24,3.24,0,0,0-.58-1,3,3,0,0,0-.87-.66,2.31,2.31,0,0,0-1.06-.26H7.41Zm13.91,5.62a4.09,4.09,0,0,1-1.76-.37,4.22,4.22,0,0,1-1.41-1,4.76,4.76,0,0,1-.94-1.49,4.94,4.94,0,0,1-.34-1.82,4.75,4.75,0,0,1,1.27-3.26,4.31,4.31,0,0,1,4.89-1,4.25,4.25,0,0,1,1.4,1,4.63,4.63,0,0,1,.92,1.47,4.8,4.8,0,0,1,.33,1.77v.22a.47.47,0,0,1,0,.16H17.77a4.14,4.14,0,0,0,1.15,2.59,3.83,3.83,0,0,0,1.1.77,3.33,3.33,0,0,0,1.33.27,3.2,3.2,0,0,0,.92-.13,3.83,3.83,0,0,0,.84-.35,2.83,2.83,0,0,0,.69-.55,2.57,2.57,0,0,0,.48-.7l.76.21a2.93,2.93,0,0,1-.57.89,3.88,3.88,0,0,1-.86.7,4.53,4.53,0,0,1-2.29.62m3.53-5a4,4,0,0,0-.36-1.45,3.84,3.84,0,0,0-.78-1.14,3.24,3.24,0,0,0-1.09-.74,3.45,3.45,0,0,0-1.34-.27A3.33,3.33,0,0,0,20,70.2a3.39,3.39,0,0,0-1.1.74,3.79,3.79,0,0,0-.76,1.14,4.59,4.59,0,0,0-.34,1.45Zm-3.62-6-.6-.28,1.05-1.47h1Zm9.2,11.05a5.91,5.91,0,0,1-2-.34,4.8,4.8,0,0,1-1.66-1l.44-.59a5.08,5.08,0,0,0,1.5,1,4.58,4.58,0,0,0,1.71.31,3.29,3.29,0,0,0,1.9-.49A1.58,1.58,0,0,0,33.05,76a1.31,1.31,0,0,0-.19-.7,1.39,1.39,0,0,0-.54-.48,5,5,0,0,0-.9-.36c-.41-.12-.83-.22-1.25-.32s-.88-.22-1.32-.35a3.37,3.37,0,0,1-.93-.42,1.59,1.59,0,0,1-.54-.58,1.93,1.93,0,0,1-.18-.89,2.52,2.52,0,0,1,.26-1.17,2.22,2.22,0,0,1,.72-.83,3.18,3.18,0,0,1,1.05-.5,5,5,0,0,1,1.27-.16,4.76,4.76,0,0,1,1.87.35,3.31,3.31,0,0,1,1.26.91l-.48.47A2.69,2.69,0,0,0,32,70.17,4.57,4.57,0,0,0,29.51,70a2.33,2.33,0,0,0-.77.33,1.61,1.61,0,0,0-.52.58,1.74,1.74,0,0,0-.19.84,1.3,1.3,0,0,0,.13.64,1.26,1.26,0,0,0,.41.42,3.53,3.53,0,0,0,.74.3c.3.09.66.18,1.07.28l1.51.4a4.63,4.63,0,0,1,1.09.47,2.15,2.15,0,0,1,.68.66,1.88,1.88,0,0,1,.23,1A2.31,2.31,0,0,1,33,77.83a4.12,4.12,0,0,1-2.52.71m9.29,0A4.09,4.09,0,0,1,38,78.17a4.32,4.32,0,0,1-1.41-1,4.74,4.74,0,0,1-1.27-3.31,4.74,4.74,0,0,1,1.26-3.26,4.44,4.44,0,0,1,1.39-1,4.18,4.18,0,0,1,1.74-.36,4.38,4.38,0,0,1,1.77.37,4.47,4.47,0,0,1,1.4,1,4.61,4.61,0,0,1,.91,1.47,4.8,4.8,0,0,1,.33,1.77v.22c0,.08,0,.14,0,.16H36.18a3.82,3.82,0,0,0,.36,1.44,4,4,0,0,0,.79,1.15,3.48,3.48,0,0,0,1.09.77,3.34,3.34,0,0,0,1.34.27,3.13,3.13,0,0,0,.91-.13,3.47,3.47,0,0,0,.84-.35,3.09,3.09,0,0,0,.7-.55,2.53,2.53,0,0,0,.47-.7l.76.21a2.9,2.9,0,0,1-.56.89,3.72,3.72,0,0,1-.87.7,4.47,4.47,0,0,1-2.29.62m3.53-5a4.22,4.22,0,0,0-.35-1.45,3.84,3.84,0,0,0-.78-1.14,3.44,3.44,0,0,0-2.43-1,3.44,3.44,0,0,0-2.43,1,3.61,3.61,0,0,0-.76,1.14,4.34,4.34,0,0,0-.34,1.45Zm5,5a3.06,3.06,0,0,1-2.1-.8,2.58,2.58,0,0,1-.86-2,2.06,2.06,0,0,1,.28-1.07,2.48,2.48,0,0,1,.77-.84,4,4,0,0,1,1.18-.56,6,6,0,0,1,1.52-.2,7.94,7.94,0,0,1,1.46.14,6.77,6.77,0,0,1,1.33.35V72.7a2.76,2.76,0,0,0-.73-2,2.58,2.58,0,0,0-2-.76,3.82,3.82,0,0,0-1.39.28,6.87,6.87,0,0,0-1.5.8l-.33-.59a5.89,5.89,0,0,1,3.29-1.18,3.44,3.44,0,0,1,2.56.94,3.56,3.56,0,0,1,.93,2.61v4.39c0,.29.13.43.38.43v.78l-.34,0a.76.76,0,0,1-.56-.24,1,1,0,0,1-.24-.56v-.75a3.9,3.9,0,0,1-1.59,1.25,5,5,0,0,1-2.09.43m.17-.69a4.45,4.45,0,0,0,1.84-.38,3.15,3.15,0,0,0,1.29-1,1.12,1.12,0,0,0,.28-.69v-1.6a7.37,7.37,0,0,0-1.3-.36,8.18,8.18,0,0,0-1.4-.12,4.71,4.71,0,0,0-1.23.15,3.44,3.44,0,0,0-1,.4,1.87,1.87,0,0,0-.61.64,1.55,1.55,0,0,0-.22.82,2.14,2.14,0,0,0,.17.84,2,2,0,0,0,.49.69,2.36,2.36,0,0,0,.73.45,2.53,2.53,0,0,0,.91.16m9.69.69c-1.92,0-2.87-1.32-2.87-4V69.38h.86v5.06c0,2.22.76,3.32,2.27,3.32a3.14,3.14,0,0,0,1.1-.19,4.34,4.34,0,0,0,1-.56,3.9,3.9,0,0,0,.82-.85,4.45,4.45,0,0,0,.56-1.11V69.38h.87v7.78c0,.29.12.43.36.43v.78l-.16,0h-.1a1,1,0,0,1-.61-.22.69.69,0,0,1-.27-.58V76.24a4.31,4.31,0,0,1-3.84,2.3" transform="translate(-6.37 -5.71)"/><path class="cls-2" d="M68.32,72.13a6.14,6.14,0,0,1,.42-2.21A6,6,0,0,1,74.48,66a5.9,5.9,0,0,1,3,.74,4.76,4.76,0,0,1,1.89,1.94l-2.18,1.52a2.51,2.51,0,0,0-.52-.8,2.9,2.9,0,0,0-1.48-.8,5.16,5.16,0,0,0-.78-.08,3,3,0,0,0-1.42.33,3.15,3.15,0,0,0-1,.85,3.45,3.45,0,0,0-.59,1.18,4.6,4.6,0,0,0-.19,1.33,4.71,4.71,0,0,0,.22,1.4,3.7,3.7,0,0,0,.65,1.19,3.27,3.27,0,0,0,1,.83,3,3,0,0,0,1.34.3,3.11,3.11,0,0,0,.79-.1,3.19,3.19,0,0,0,.78-.29,2.8,2.8,0,0,0,.68-.52,2.27,2.27,0,0,0,.5-.79l2.32,1.37a3.61,3.61,0,0,1-.82,1.21,5,5,0,0,1-1.25.9,6.83,6.83,0,0,1-1.51.55,6.52,6.52,0,0,1-1.56.19,5.43,5.43,0,0,1-2.44-.54A6.05,6.05,0,0,1,70,76.48a6.6,6.6,0,0,1-1.25-2,6.28,6.28,0,0,1-.44-2.31m14.51,6.41a3.57,3.57,0,0,1-1.25-.21,3,3,0,0,1-1-.61,2.92,2.92,0,0,1-.65-.91,2.86,2.86,0,0,1,0-2.38,2.85,2.85,0,0,1,.81-1A4.13,4.13,0,0,1,82,72.85a5.25,5.25,0,0,1,1.58-.22,6.53,6.53,0,0,1,1.1.09,3.85,3.85,0,0,1,.94.29v-.42c0-1-.61-1.57-1.82-1.57a4,4,0,0,0-1.42.25A7.15,7.15,0,0,0,81,72l-.81-1.73A7.27,7.27,0,0,1,82,69.41a6.84,6.84,0,0,1,2.06-.29,4.76,4.76,0,0,1,3.18,1,3.54,3.54,0,0,1,1.12,2.84v2.34a1,1,0,0,0,.14.58A.63.63,0,0,0,89,76v2.34a4.64,4.64,0,0,1-.65.11,4.89,4.89,0,0,1-.54,0,2,2,0,0,1-1.18-.3,1.39,1.39,0,0,1-.5-.86l0-.42a4,4,0,0,1-3.22,1.61m.82-2a2.57,2.57,0,0,0,.87-.15,2.29,2.29,0,0,0,.7-.42.86.86,0,0,0,.4-.66v-.86a3.69,3.69,0,0,0-.79-.21,4.15,4.15,0,0,0-.79-.08,2.14,2.14,0,0,0-1.25.34,1,1,0,0,0-.49.9,1,1,0,0,0,.38.82,1.4,1.4,0,0,0,1,.32m9,2a2.6,2.6,0,0,1-2.12-.87,4,4,0,0,1-.72-2.57V69.29h2.77V74.5A2.11,2.11,0,0,0,93,75.77a1.11,1.11,0,0,0,.94.44,2.14,2.14,0,0,0,1.07-.3,2.43,2.43,0,0,0,.91-1v-5.6h2.77v6a1,1,0,0,0,.13.58.64.64,0,0,0,.46.19v2.34a5.2,5.2,0,0,1-.67.11,4.36,4.36,0,0,1-.51,0c-1,0-1.55-.39-1.69-1.16l0-.55a3.82,3.82,0,0,1-1.55,1.32,5,5,0,0,1-2.07.42m9.57-9.25,1.64,2.56.17.33.18-.33,1.62-2.56h2.84l-3.15,4.55,3.22,4.53h-2.84l-1.71-2.54-.16-.33-.15.33-1.72,2.54H99.37l3.22-4.53-3.15-4.55Zm18.17.4a1.23,1.23,0,0,0-.36-.26,7.32,7.32,0,0,0-1.8-.76,3.75,3.75,0,0,0-1.1-.16q-1.53,0-1.53,1a.81.81,0,0,0,.17.52,1.45,1.45,0,0,0,.48.37,4.09,4.09,0,0,0,.81.3l1.12.32a14.15,14.15,0,0,1,1.59.52,4.23,4.23,0,0,1,1.2.71,2.91,2.91,0,0,1,.77,1,4.17,4.17,0,0,1-.13,3.21,3.18,3.18,0,0,1-1,1.16,4.34,4.34,0,0,1-1.46.64,7.56,7.56,0,0,1-1.72.2,9.38,9.38,0,0,1-1.38-.11,8.41,8.41,0,0,1-1.39-.3,10.14,10.14,0,0,1-1.3-.48A7.32,7.32,0,0,1,112.2,77l1.25-2.48a1.9,1.9,0,0,0,.45.33,7.27,7.27,0,0,0,.94.49,10.1,10.1,0,0,0,1.25.43,5.57,5.57,0,0,0,1.41.19c1,0,1.5-.31,1.5-.92a.73.73,0,0,0-.23-.57,1.94,1.94,0,0,0-.62-.4,6.2,6.2,0,0,0-.94-.34L116,73.37a11.39,11.39,0,0,1-1.47-.56,4.17,4.17,0,0,1-1-.7,2.57,2.57,0,0,1-.6-.92,3.34,3.34,0,0,1-.2-1.21,3.69,3.69,0,0,1,1.35-3,4.43,4.43,0,0,1,1.44-.76,5.44,5.44,0,0,1,1.74-.26,6.56,6.56,0,0,1,1.26.12,8.77,8.77,0,0,1,1.2.31,8.11,8.11,0,0,1,1.06.43c.33.16.63.32.91.48Zm6.94,8.85a5.35,5.35,0,0,1-2.05-.37,4.63,4.63,0,0,1-1.54-1,4.55,4.55,0,0,1-1-1.48,4.78,4.78,0,0,1-.33-1.76,5.19,5.19,0,0,1,.33-1.85,4.49,4.49,0,0,1,1-1.54,4.31,4.31,0,0,1,1.53-1,5.77,5.77,0,0,1,4.12,0,4.31,4.31,0,0,1,1.52,1,4.41,4.41,0,0,1,1,1.49,5.1,5.1,0,0,1,.32,1.78c0,.16,0,.32,0,.48s0,.27,0,.41h-6.71a1.84,1.84,0,0,0,.66,1.39,2.1,2.1,0,0,0,1.36.47,2.47,2.47,0,0,0,1.17-.29,1.55,1.55,0,0,0,.75-.79l2.35.65a4.16,4.16,0,0,1-1.66,1.75,5.15,5.15,0,0,1-2.7.67M129.29,73a2.06,2.06,0,0,0-.62-1.36,1.85,1.85,0,0,0-1.33-.5,1.88,1.88,0,0,0-1.34.5,2.13,2.13,0,0,0-.62,1.36ZM133,65.74h2.77v2.51H133Zm0,3.55h2.77v9.08H133Zm13,9.08h-2.77v-5.1A2.08,2.08,0,0,0,142.9,72a1.07,1.07,0,0,0-.89-.4,1.52,1.52,0,0,0-.59.12,2.3,2.3,0,0,0-.57.33,2.67,2.67,0,0,0-.84,1.15v5.21h-2.76V69.29h2.49v1.52a3.25,3.25,0,0,1,1.42-1.25,4.71,4.71,0,0,1,2.11-.44,2.69,2.69,0,0,1,1.42.32,2.36,2.36,0,0,1,.83.83,3.49,3.49,0,0,1,.39,1.11,8.12,8.12,0,0,1,.09,1.18v5.81Zm5.73.17a5.28,5.28,0,0,1-2-.37,4.53,4.53,0,0,1-1.54-1,4.25,4.25,0,0,1-1-1.48,4.78,4.78,0,0,1-.33-1.76,5.28,5.28,0,0,1,.33-1.86,4.52,4.52,0,0,1,.95-1.53,4.44,4.44,0,0,1,1.53-1,5.23,5.23,0,0,1,2.07-.38,5.07,5.07,0,0,1,2.05.38,4.44,4.44,0,0,1,1.53,1,4.38,4.38,0,0,1,.94,1.49,5.1,5.1,0,0,1,.32,1.78c0,.16,0,.32,0,.48a3.62,3.62,0,0,1-.05.4h-6.71a1.88,1.88,0,0,0,.67,1.4,2.13,2.13,0,0,0,1.35.47,2.42,2.42,0,0,0,1.17-.29,1.45,1.45,0,0,0,.75-.8l2.36.66a4.29,4.29,0,0,1-1.66,1.75,5.15,5.15,0,0,1-2.7.67M153.65,73a2.07,2.07,0,0,0-.63-1.36,1.84,1.84,0,0,0-1.33-.51,1.89,1.89,0,0,0-1.34.51,2.18,2.18,0,0,0-.61,1.36Zm21.67,5.4h-2.77v-5.1a2.08,2.08,0,0,0-.33-1.31,1,1,0,0,0-.84-.4,1.46,1.46,0,0,0-.57.12,1.91,1.91,0,0,0-.52.33,2.64,2.64,0,0,0-.44.51,2.4,2.4,0,0,0-.32.64v5.21h-2.77v-5.1a2.08,2.08,0,0,0-.33-1.31,1,1,0,0,0-.85-.4,1.64,1.64,0,0,0-1.08.44,2.48,2.48,0,0,0-.77,1.16v5.21H161V69.29h2.5v1.52a3.28,3.28,0,0,1,1.35-1.26,4.36,4.36,0,0,1,2-.43,3,3,0,0,1,1,.14,2.33,2.33,0,0,1,.74.37,2.08,2.08,0,0,1,.5.57,2.38,2.38,0,0,1,.28.68,3.64,3.64,0,0,1,1.36-1.31,4.08,4.08,0,0,1,1.94-.45,2.58,2.58,0,0,1,1.39.32,2.28,2.28,0,0,1,.83.83,3.49,3.49,0,0,1,.39,1.11,8.12,8.12,0,0,1,.09,1.18v5.81Zm5.69.17a5.23,5.23,0,0,1-2.07-.38,4.49,4.49,0,0,1-1.53-1,4.42,4.42,0,0,1-.94-1.5,5.17,5.17,0,0,1,0-3.58,4.47,4.47,0,0,1,.94-1.51,4.83,4.83,0,0,1,1.53-1,5.42,5.42,0,0,1,2.07-.38,5.33,5.33,0,0,1,2.06.38,4.61,4.61,0,0,1,1.52,1,4.49,4.49,0,0,1,.95,1.51,4.94,4.94,0,0,1,.33,1.79,5.15,5.15,0,0,1-.32,1.79,4.42,4.42,0,0,1-.94,1.5,4.49,4.49,0,0,1-1.53,1,5.23,5.23,0,0,1-2.07.38m-2-4.7a2.51,2.51,0,0,0,.57,1.72,1.85,1.85,0,0,0,1.45.65,1.8,1.8,0,0,0,.8-.18,1.83,1.83,0,0,0,.63-.48,2.28,2.28,0,0,0,.42-.75,2.76,2.76,0,0,0,.16-1,2.5,2.5,0,0,0-.57-1.72,1.86,1.86,0,0,0-1.44-.65,1.84,1.84,0,0,0-1.44.66,2.33,2.33,0,0,0-.43.75,2.84,2.84,0,0,0-.15,1m13.25,4.7a3.56,3.56,0,0,1-1.82-.44,3.19,3.19,0,0,1-1.23-1.24v1.51h-2.4V65.74h2.77v5a3.2,3.2,0,0,1,1.2-1.22,3.69,3.69,0,0,1,3.36-.07,3.82,3.82,0,0,1,1.25,1,5.07,5.07,0,0,1,.81,1.51,5.71,5.71,0,0,1,.29,1.86,5,5,0,0,1-.32,1.84,4.51,4.51,0,0,1-.89,1.49,4,4,0,0,1-3,1.34m-.78-2.33a2.07,2.07,0,0,0,1.56-.68,2.36,2.36,0,0,0,.45-.73,2.68,2.68,0,0,0,0-1.85,2.51,2.51,0,0,0-.42-.77,1.92,1.92,0,0,0-.65-.52,1.85,1.85,0,0,0-2,.26,2.91,2.91,0,0,0-.83,1.12V75a2.11,2.11,0,0,0,.8.92,2.06,2.06,0,0,0,1.1.34m5.95-10.47h2.76v2.51h-2.76Zm0,3.55h2.76v9.08h-2.76Zm4.18-3.55h2.77v9.4c0,.69.29,1,.88,1a2,2,0,0,0,.46-.06,1.7,1.7,0,0,0,.46-.18l.36,2.08a5.74,5.74,0,0,1-1.19.38,6.47,6.47,0,0,1-1.26.14,2.52,2.52,0,0,1-1.84-.63,2.41,2.41,0,0,1-.64-1.8V65.74Zm5.38,0h2.77v2.51H207Zm0,3.55h2.77v9.08H207Zm10.1,8.59a9.74,9.74,0,0,1-1.3.46,5.68,5.68,0,0,1-1.48.2,3.62,3.62,0,0,1-1-.13,2.17,2.17,0,0,1-.8-.41,1.91,1.91,0,0,1-.55-.76,2.88,2.88,0,0,1-.2-1.12V71.38H210.6V69.29h1.16V66.4h2.77v2.89h1.85v2.09h-1.85v3.79a.79.79,0,0,0,.23.65.88.88,0,0,0,.57.2,2.15,2.15,0,0,0,.64-.11,4,4,0,0,0,.57-.22l.53,2.19Zm5,.66a5.31,5.31,0,0,1-2-.37,4.53,4.53,0,0,1-1.54-1,4.16,4.16,0,0,1-1-1.48,4.78,4.78,0,0,1-.33-1.76,5.28,5.28,0,0,1,.33-1.86,4.52,4.52,0,0,1,.95-1.53,4.31,4.31,0,0,1,1.53-1,5.23,5.23,0,0,1,2.07-.38,5.15,5.15,0,0,1,2.06.38A4.39,4.39,0,0,1,226.56,72a5.1,5.1,0,0,1,.32,1.78,3.85,3.85,0,0,1,0,.48,2.18,2.18,0,0,1-.05.4H220.1a1.88,1.88,0,0,0,.67,1.4,2.15,2.15,0,0,0,1.35.47,2.42,2.42,0,0,0,1.17-.29,1.45,1.45,0,0,0,.75-.8l2.36.66a4.22,4.22,0,0,1-1.66,1.75,5.15,5.15,0,0,1-2.7.67M224,73a2.11,2.11,0,0,0-.62-1.36A1.88,1.88,0,0,0,222,71.1a1.91,1.91,0,0,0-1.34.51,2.18,2.18,0,0,0-.61,1.36Zm-1.16-4.49L221,68l.89-2.25h2.51Z" transform="translate(-6.37 -5.71)"/></svg>