<?xml version="1.0" encoding="utf-8"?>
<!-- Generator: Adobe Illustrator 26.3.1, SVG Export Plug-In . SVG Version: 6.00 Build 0)  -->
<svg version="1.1" id="Calque_1" xmlns="http://www.w3.org/2000/svg" xmlns:xlink="http://www.w3.org/1999/xlink" x="0px" y="0px"
	 viewBox="0 0 823.5 227.1" style="enable-background:new 0 0 823.5 227.1;" xml:space="preserve">
<style type="text/css">
	.st0{clip-path:url(#SVGID_00000066491751995996888720000006373129341013279897_);}
	.st1{fill:url(#SVGID_00000111188777265089965890000009856384033705935019_);}
</style>
<g>
	<defs>
		<path id="SVGID_1_" d="M0,52.4c0,24.3,16.3,39.7,45,45l31.4,6.1c11.4,2.1,15.4,6.1,15.4,11.4c0,6.8-7.1,12.3-20,12.3
			c-9.5,0-18.3-2.6-23.3-8.9l-44,20.5c12.5,17.4,37,25,64.5,25c40.7,0,70.2-17.9,70.2-52c0-22.8-13.5-40.4-42.8-46.5l-36.3-7.4
			c-9.9-2.2-11.7-6.5-11.7-10.8c0-5.6,4.3-12,17.6-12c14.9,0,24.1,8.4,25.8,17.9L133,33.7C123.1,13.1,99.6,0,66.5,0
			C27.4,0,0,20.6,0,52.4 M227.3,40c14.2,0,26.5,7.7,31.1,24.3h-63.8C198.9,49.9,212.2,40,227.3,40 M145.3,81.9
			c0,49,37,81.9,81.6,81.9c30.7,0,55.9-11.9,70.7-36.3l-39.4-18.4c-8.4,12.7-20.6,15.3-31.3,15.3c-16.6,0-29.2-11.4-33.3-29.9h113.4
			V81.9C306.1,31.4,271,0,227.3,0C182.3,0,145.3,33.3,145.3,81.9 M451.3,20.8c-30.4-28.8-78.4-27.5-107.2,3
			c-13.3,14.1-20.8,32.8-20.8,52.2v88h47.5v-88C370.5,60.2,383,47.3,398.7,47s28.6,12.2,28.9,27.8c0,0.4,0,0.7,0,1.1v88h47.5v-88
			c0-15.7,12.7-28.4,28.4-28.4c15.7,0,28.4,12.7,28.4,28.4c0,0,0,0,0,0v6.3c0.1,27.2,7.6,53.9,21.5,77.2
			c23,38.2,64.4,67.7,125.3,67.7c87.5,0,134.8-60.7,144.8-120.9L778,85c-1.3,44.6-33.6,95.3-99.3,95.3c-67.1,0-99.4-52.8-99.4-98
			v-6.3c0-41.9-34-75.9-75.9-75.9C484.1,0,465.4,7.5,451.3,20.8 M641.8,81.9c0-22.5,16.9-38.9,36.9-38.9s37,16.4,37,38.9
			s-17,38.9-37,38.9S641.8,104.4,641.8,81.9 M595.7,81.9c0,37.8,27,81.9,83.1,81.9s83-44.2,83-81.9S734.8,0,678.7,0
			S595.7,44.1,595.7,81.9"/>
	</defs>
	<clipPath id="SVGID_00000124879896319436170590000002697506513808406949_">
		<use xlink:href="#SVGID_1_"  style="overflow:visible;"/>
	</clipPath>
	<g style="clip-path:url(#SVGID_00000124879896319436170590000002697506513808406949_);">
		
			<linearGradient id="SVGID_00000134935621350129121500000000140187942896000669_" gradientUnits="userSpaceOnUse" x1="90.7952" y1="52.0951" x2="103.2252" y2="52.0951" gradientTransform="matrix(5.0094 15.0587 -15.0587 5.0094 674.2897 -1716.5231)">
			<stop  offset="0" style="stop-color:#0060A6"/>
			<stop  offset="0.26" style="stop-color:#007FBC"/>
			<stop  offset="0.55" style="stop-color:#009AD0"/>
			<stop  offset="0.8" style="stop-color:#00AADC"/>
			<stop  offset="1" style="stop-color:#00B0E0"/>
		</linearGradient>
		<path style="fill:url(#SVGID_00000134935621350129121500000000140187942896000669_);" d="M67.9-22.6l537.6-178.8
			c75.1-25,156.2,15.6,181.2,90.7l59.6,179.3c25,75.1-15.6,156.2-90.7,181.2L218,428.5c-75.1,25-156.2-15.6-181.2-90.7l-59.6-179.3
			C-47.8,83.5-7.2,2.4,67.9-22.6z"/>
	</g>
</g>
</svg>
