<?xml version="1.0" encoding="UTF-8"?><svg id="Calque_1" xmlns="http://www.w3.org/2000/svg" xmlns:xlink="http://www.w3.org/1999/xlink" viewBox="0 0 791.17 787.98"><defs><clipPath id="clippath"><path d="m384.9.25c-111.22,2.67-203.42,28.7-277.18,78.52C35.38,127.75,0,185.57,1.59,251.99c.67,31.12,10.1,61.16,28.45,90.11,18.11,29.29,43.3,54.4,75.43,75.76l9.09-6.34v-.08c-27.45-17.52-50.56-40.63-70.01-69.92-19.19-29.37-29.29-56.74-29.95-82.02-.5-26.12,7.34-51.06,23.78-75.09,16.52-23.78,38.97-43.22,67.59-58.24,51.9-27.37,123.57-41.8,214.69-43.89,37.8-1,137.51,3.09,221.28,36.71l97.87-65.25C572.47,17.86,493.12,0,401.93,0c-5.67,0-11.35.08-17.02.25" style="fill:#002856; stroke-width:0px;"/></clipPath><linearGradient id="Dégradé_sans_nom_32" x1="17.04" y1="804.03" x2="100.48" y2="804.03" gradientTransform="translate(-1967.83 467.88) rotate(-90) scale(2.85)" gradientUnits="userSpaceOnUse"><stop offset="0" stop-color="#1e1f1d"/><stop offset=".2" stop-color="#1e1f1d"/><stop offset="1" stop-color="#fff"/></linearGradient><mask id="mask" x="0" y="0" width="639.81" height="417.86" maskUnits="userSpaceOnUse"><rect width="639.81" height="417.86" style="stroke-width:0px;"/><g style="isolation:isolate;"><rect width="639.81" height="417.86" style="fill:url(#Dégradé_sans_nom_32); stroke-width:0px;"/></g></mask><clipPath id="clippath-1"><rect width="639.81" height="417.86" style="fill:#002856; stroke-width:0px;"/></clipPath><clipPath id="clippath-2"><rect width="639.81" height="417.86" style="fill:#002856; stroke-width:0px;"/></clipPath><clipPath id="clippath-3"><path d="m320.66,82.27c-91.12,2.09-162.79,16.52-214.69,43.89-28.62,15.02-51.06,34.46-67.59,58.24-16.44,24.03-24.28,48.98-23.78,75.09.67,25.28,10.76,52.65,29.95,82.02,19.44,29.29,42.55,52.4,70.01,69.92v.08l68.34-50.98c-55.07-30.37-83.02-67.25-84.11-111.22-.33-20.61,6.26-40.89,20.11-60.99,13.77-19.94,33.29-37.3,58.24-52.07,42.22-24.78,96.29-38.21,162.37-39.63,66.08-1.59,129.91,8.43,191.41,29.79l11.01-7.43c-77.43-31.04-168.46-36.88-211.68-36.88-3.59,0-6.76.08-9.6.17" style="fill:none; stroke-width:0px;"/></clipPath><linearGradient id="Dégradé_sans_nom_32-2" x1="40.1" y1="792.45" x2="123.54" y2="792.45" gradientTransform="translate(-1896.08 470.18) rotate(-90) scale(2.74)" xlink:href="#Dégradé_sans_nom_32"/><mask id="mask-1" x="14.1" y="82.02" width="527.84" height="329.5" maskUnits="userSpaceOnUse"><rect x="14.1" y="82.02" width="527.83" height="329.42" style="stroke-width:0px;"/><g style="isolation:isolate;"><rect x="14.1" y="82.02" width="527.83" height="329.42" style="fill:url(#Dégradé_sans_nom_32-2); stroke-width:0px;"/></g></mask><clipPath id="clippath-4"><rect x="14.1" y="82.02" width="527.84" height="329.5" style="fill:none; stroke-width:0px;"/></clipPath><clipPath id="clippath-5"><rect x="14.1" y="82.02" width="527.83" height="329.42" style="fill:none; stroke-width:0px;"/></clipPath><linearGradient id="Dégradé_sans_nom_3" x1="40.1" y1="792.45" x2="123.54" y2="792.45" gradientTransform="translate(-1896.08 470.18) rotate(-90) scale(2.74)" gradientUnits="userSpaceOnUse"><stop offset="0" stop-color="#fff"/><stop offset=".2" stop-color="#fff"/><stop offset="1" stop-color="#002856"/></linearGradient><clipPath id="clippath-6"><path d="m676.27,91.11v.08c27.45,17.02,50.65,40.22,69.92,69.59,19.36,29.29,29.37,56.57,29.95,81.85.67,26.45-7.09,51.31-23.45,75.26-16.19,23.78-38.88,43.14-67.59,58.41-51.82,27.2-123.24,41.97-214.19,44.31-38.05,1-137.92-2.92-221.7-36.3l-97.54,65.17c71.42,38.13,156.28,55.82,254.99,53.4,111.06-2.92,203.42-29.45,276.85-79.35,72.34-49.15,107.64-106.89,105.88-173.47-.83-31.04-10.26-61.16-28.45-90.03-18.44-28.95-43.72-54.4-76.01-75.6l-8.68,6.68Z" style="fill:#002856; stroke-width:0px;"/></clipPath><linearGradient id="Dégradé_sans_nom_32-3" x1="-199.18" y1="556.64" x2="-115.74" y2="556.64" gradientTransform="translate(1992.78 628.82) rotate(90) scale(2.73)" xlink:href="#Dégradé_sans_nom_32"/><mask id="mask-2" x="151.69" y="84.44" width="639.48" height="420.87" maskUnits="userSpaceOnUse"><rect x="151.69" y="84.44" width="639.48" height="420.87" style="stroke-width:0px;"/><g style="isolation:isolate;"><rect x="151.69" y="84.44" width="639.48" height="420.87" style="fill:url(#Dégradé_sans_nom_32-3); stroke-width:0px;"/></g></mask><clipPath id="clippath-7"><rect x="151.69" y="84.44" width="639.48" height="420.87" style="fill:#002856; stroke-width:0px;"/></clipPath><clipPath id="clippath-8"><rect x="151.69" y="84.44" width="639.48" height="420.87" style="fill:#002856; stroke-width:0px;"/></clipPath><clipPath id="clippath-9"><path d="m608.02,141.93c54.9,30.45,82.94,67.42,84.11,111.06.5,20.78-6.26,41.14-19.86,61.16-13.93,19.94-33.12,37.46-58.07,51.98-42.39,24.78-96.54,38.21-162.54,40.05-65.83,1.75-129.66-8.01-191.24-29.54l-11.18,7.68c83.77,33.38,183.65,37.3,221.7,36.3,90.95-2.34,162.37-17.11,214.19-44.31,28.7-15.27,51.4-34.63,67.59-58.41,16.35-23.95,24.11-48.81,23.45-75.26-.58-25.28-10.6-52.57-29.95-81.85-19.27-29.37-42.47-52.57-69.92-69.59v-.08l-68.25,50.82Z" style="fill:none; stroke-width:0px;"/></clipPath><linearGradient id="Dégradé_sans_nom_32-4" x1="-177.1" y1="542.93" x2="-93.66" y2="542.93" gradientTransform="translate(2008.7 630.16) rotate(90) scale(2.75)" xlink:href="#Dégradé_sans_nom_32"/><mask id="mask-3" x="249.23" y="91.11" width="527.59" height="330.5" maskUnits="userSpaceOnUse"><rect x="249.23" y="91.11" width="527.58" height="330.5" style="stroke-width:0px;"/><g style="isolation:isolate;"><rect x="249.23" y="91.11" width="527.58" height="330.5" style="fill:url(#Dégradé_sans_nom_32-4); stroke-width:0px;"/></g></mask><clipPath id="clippath-10"><rect x="249.23" y="91.11" width="527.58" height="330.5" style="fill:none; stroke-width:0px;"/></clipPath><clipPath id="clippath-11"><rect x="249.23" y="91.11" width="527.58" height="330.5" style="fill:none; stroke-width:0px;"/></clipPath><linearGradient id="Dégradé_sans_nom_3-2" x1="-177.11" y1="542.93" x2="-93.67" y2="542.93" gradientTransform="translate(2008.7 630.16) rotate(90) scale(2.75)" xlink:href="#Dégradé_sans_nom_3"/></defs><path d="m788.15,774.34c-2.59-3.59-49.4-67.59-51.23-71.17,53.57-5.17,73.84-108.55-27.79-108.39h-84.52c-6.59-.5-11.01,3.75-10.85,11.1v169.05s-.08,9.26,9.68,9.85h25.7c9.85-.33,9.93-9.85,9.93-9.85v-144.68c73.76-4.17,71.51,10.85,73.43,25.2.67,35.63-49.73,32.87-49.73,32.87l.08,4.09,52.07,86.28h.08c2.34,3.75,6.42,6.01,11.1,6.01l.08.08s30.29.08,36.21,0c7.26-.08,8.59-6.51,5.76-10.43" style="fill:#002856; stroke-width:0px;"/><path d="m356.04,625.55l10.1-21.19c3.59-6.92-.17-9.76-6.09-9.68h-150.52c-8.26-.08-11.85,7.34-11.85,7.34l-10.43,21.78c-4.01,8.34-.75,10.35,6.17,9.85h55.15v141.18s.33,9.85,9.6,9.85h25.78c9.68,0,9.85-9.85,9.85-9.85v-141.18h50.23v-.08c5.42,0,10.1-3.25,12.02-8.01" style="fill:#002856; stroke-width:0px;"/><path d="m484.27,599.57c-1.42-3.59-4.92-6.17-9.09-6.17l-.08-.08h-19.61v.08c-3.92,0-7.18,2.25-8.84,5.51l-86.36,171.38c-2.75,5.34-1.92,14.44,9.43,14.44h23.86c3.59,0,6.34-.75,8.68-5.17l14.94-30.2h96.96l15.02,30.45c1.92,4.42,6.17,5.09,8.26,4.92h25.12c7.84,0,11.68-7.76,8.43-14.6l-86.69-170.55Zm-50.98,117.65l32.96-67.59,32.96,67.59h-65.92Z" style="fill:#002856; stroke-width:0px;"/><path d="m143.05,687.31c-12.18-8.84-35.46-16.6-70.17-23.53-14.6-3-21.61-7.51-21.53-17.35.08-5.17,3.5-9.93,10.43-13.02,6.93-3.09,15.85-3.75,26.53-3.59,11.01.25,22.78,3.59,36.05,9.93h.17c1.17.67,7.34,2.84,11.43-3.67l.08.08,10.93-20.86-.08-.08c2.67-5.01-.58-9.18-3.84-10.85-17.77-7.93-36.21-12.18-55.65-12.6-63-.42-81.35,38.63-80.43,57.16-.58,28.29,18.44,46.89,56.74,55.49l28.87,6.59c15.77,3.5,23.45,9.18,23.2,19.44-.25,5.67-3.67,10.51-10.6,14.18-7.01,3.75-15.85,5.59-26.12,5.34-18.61-.33-30.96-5.01-45.89-17.19-6.01-4.84-10.76-1.25-12.43.75l-.08-.08-17.02,17.94c-2,2.25-3.75,7.01.67,10.76,19.36,16.77,43.39,25.2,72.26,25.78,24.7.58,44.81-4.67,60.49-15.94,15.44-11.43,23.45-26.28,23.86-44.89.33-17.77-5.67-30.96-17.86-39.8" style="fill:#002856; stroke-width:0px;"/><path d="m384.9.25c-111.22,2.67-203.42,28.7-277.18,78.52C35.38,127.75,0,185.57,1.59,251.99c.67,31.12,10.1,61.16,28.45,90.11,18.11,29.29,43.3,54.4,75.43,75.76l9.09-6.34v-.08c-27.45-17.52-50.56-40.63-70.01-69.92-19.19-29.37-29.29-56.74-29.95-82.02-.5-26.12,7.34-51.06,23.78-75.09,16.52-23.78,38.97-43.22,67.59-58.24,51.9-27.37,123.57-41.8,214.69-43.89,37.8-1,137.51,3.09,221.28,36.71l97.87-65.25C572.47,17.86,493.12,0,401.93,0c-5.67,0-11.35.08-17.02.25" style="fill:#002856;"/><g style="clip-path:url(#clippath);"><g style="mask:url(#mask);"><rect width="639.81" height="417.86" style="fill:#002856;"/><g style="clip-path:url(#clippath-1);"><rect width="639.81" height="417.86" style="fill:#002856;"/><g style="clip-path:url(#clippath-2);"><rect width="639.81" height="417.86" style="fill:#002856; stroke-width:0px;"/></g></g></g></g><g style="clip-path:url(#clippath-3);"><g style="mask:url(#mask-1);"><g style="clip-path:url(#clippath-4);"><g style="clip-path:url(#clippath-5);"><rect x="14.1" y="82.02" width="527.83" height="329.42" style="fill:url(#Dégradé_sans_nom_3); stroke-width:0px;"/></g></g></g></g><path d="m676.27,91.11v.08c27.45,17.02,50.65,40.22,69.92,69.59,19.36,29.29,29.37,56.57,29.95,81.85.67,26.45-7.09,51.31-23.45,75.26-16.19,23.78-38.88,43.14-67.59,58.41-51.82,27.2-123.24,41.97-214.19,44.31-38.05,1-137.92-2.92-221.7-36.3l-97.54,65.17c71.42,38.13,156.28,55.82,254.99,53.4,111.06-2.92,203.42-29.45,276.85-79.35,72.34-49.15,107.64-106.89,105.88-173.47-.83-31.04-10.26-61.16-28.45-90.03-18.44-28.95-43.72-54.4-76.01-75.6l-8.68,6.68Z" style="fill:#002856;"/><g style="clip-path:url(#clippath-6);"><g style="mask:url(#mask-2);"><rect x="151.69" y="84.44" width="639.48" height="420.87" style="fill:#002856;"/><g style="clip-path:url(#clippath-7);"><rect x="151.69" y="84.44" width="639.48" height="420.87" style="fill:#002856;"/><g style="clip-path:url(#clippath-8);"><rect x="151.69" y="84.44" width="639.48" height="420.87" style="fill:#002856; stroke-width:0px;"/></g></g></g></g><g style="clip-path:url(#clippath-9);"><g style="mask:url(#mask-3);"><g style="clip-path:url(#clippath-10);"><g style="clip-path:url(#clippath-11);"><rect x="249.23" y="91.12" width="527.58" height="330.5" style="fill:url(#Dégradé_sans_nom_3-2); stroke-width:0px;"/></g></g></g></g></svg>