<svg version="1.1" xmlns="http://www.w3.org/2000/svg" viewBox="0 0 3367 1064">
	<g id="T">
		<!-- Contour -->
		<path fill="#7B7B7B"
			d="M560.092834,1.940332 C599.698242,3.262734 638.453613,9.954374 676.584045,20.500595   C711.657715,30.201378 745.362000,43.445057 777.671875,60.177635   C806.987366,75.359482 834.847473,92.908478 860.572327,113.599342   C874.895813,125.119881 888.657410,137.392700 902.118286,149.921631   C938.522400,183.805435 968.503052,222.912506 993.494812,265.762115   C1017.130066,306.285919 1034.944092,349.325317 1047.045044,394.739777   C1053.707642,419.744141 1058.519287,445.065338 1061.666870,470.698059   C1065.281738,500.135864 1066.028809,529.767090 1064.595459,559.336121   C1062.031006,612.241333 1051.794922,663.765259 1033.753662,713.608765   C1019.785217,752.199890 1001.646118,788.764893 979.110413,823.120789   C963.553162,846.838013 946.300354,869.200500 927.208435,890.199402   C901.096924,918.918945 872.293701,944.507690 840.658386,967.008545   C814.385132,985.695557 786.674072,1001.893250 757.465210,1015.409729   C721.156921,1032.211548 683.452698,1044.991821 644.178162,1053.049316   C620.946594,1057.815552 597.613892,1061.633667 573.917664,1062.993652   C567.288330,1063.374268 560.654602,1063.678101 553.086914,1064.013184   C539.396912,1064.036133 526.642944,1064.062988 513.428833,1064.054443   C502.043671,1063.328125 491.070374,1063.067017 480.205292,1061.844238   C464.590790,1060.087036 448.941193,1058.237427 433.509247,1055.345825   C400.257965,1049.115356 367.901489,1039.677246 336.422882,1027.125122   C305.398254,1014.754028 275.758698,999.728943 247.677841,981.739075   C210.277954,957.779175 175.819626,930.133423 145.937271,897.132629   C133.155075,883.016602 120.377922,868.792908 108.853157,853.662476   C84.208946,821.307800 63.813694,786.347107 47.134884,749.182922   C30.254337,711.569153 18.130222,672.442688 10.406499,632.081604   C5.180177,604.770874 1.893152,577.071655 1.914732,548.654785   C1.964463,539.476990 2.034188,530.775757 1.952636,522.075928   C1.936749,520.381104 1.332735,518.691833 0.999998,517.000000   C1.000000,517.000000 1.000000,516.500000 1.374537,516.033752   C3.548041,495.121552 4.777783,474.605499 7.286195,454.246948   C10.623317,427.162506 17.073936,400.670685 25.223455,374.631134   C40.993149,324.243530 63.663750,277.178986 93.410271,233.520844   C109.013824,210.619919 126.283104,189.044434 145.184952,168.830704   C163.124268,149.646301 182.518112,131.975479 203.132965,115.654922   C228.499847,95.572243 255.436508,77.898483 284.028564,62.784405   C324.939178,41.158573 367.864532,24.909706 413.042603,14.648554   C443.643677,7.698223 474.518188,2.947018 506.389893,1.982326   C511.573334,1.677287 516.286682,1.338643 521.000000,0.999999   C528.687561,1.000000 536.375183,1.000000 544.817627,1.303738   C550.412598,1.718428 555.252747,1.829380 560.092834,1.940332  M355.988159,938.520874   C406.083313,960.404480 458.458679,972.495239 513.052673,974.919495   C516.004333,975.050537 517.044434,976.325684 517.939514,978.748962   C522.549255,991.229004 527.401550,1003.620911 531.884583,1016.145386   C532.977417,1019.198303 534.427429,1020.134216 537.589844,1020.061951   C567.761292,1019.372498 597.752808,1016.813782 627.345337,1010.799500   C733.407410,989.243774 823.176025,938.623474 895.475159,858.093750   C972.216614,772.615906 1013.247864,671.898804 1019.692383,557.307556   C1022.342590,510.184418 1018.034790,463.471161 1006.552002,417.612640   C978.963135,307.431488 920.449707,217.059982 830.772583,147.455902   C749.170288,84.119225 656.170227,50.813351 553.003906,46.216621   C511.401642,44.362968 470.183167,47.992012 429.475861,56.938759   C348.856689,74.657402 277.375885,110.617859 214.760925,164.362137   C211.932159,166.790146 211.631714,168.730240 212.917114,171.991730   C217.733780,184.213196 222.208939,196.568970 226.980194,208.808868   C227.972458,211.354355 227.630295,212.885437 225.657150,214.858353   C217.886993,222.627579 210.057800,230.373276 202.790909,238.604782   C134.965149,315.433960 97.629219,405.077881 91.283318,507.323395   C88.070000,559.096497 93.493195,610.190247 109.112511,659.761353   C149.832352,788.993958 232.189026,881.675476 355.988159,938.520874  z" />
		<path fill="#FFFFFF"
			d="M355.644989,938.354126 C232.189026,881.675476 149.832352,788.993958 109.112511,659.761353 C93.493195,610.190247 88.070000,559.096497 91.283318,507.323395 C97.629219,405.077881 134.965149,315.433960 202.790909,238.604782 C210.057800,230.373276 217.886993,222.627579 225.657150,214.858353 C227.630295,212.885437 227.972458,211.354355 226.980194,208.808868 C222.208939,196.568970 217.733780,184.213196 212.917114,171.991730 C211.631714,168.730240 211.932159,166.790146 214.760925,164.362137 C277.375885,110.617859 348.856689,74.657402 429.475861,56.938759 C470.183167,47.992012 511.401642,44.362968 553.003906,46.216621 C656.170227,50.813351 749.170288,84.119225 830.772583,147.455902 C920.449707,217.059982 978.963135,307.431488 1006.552002,417.612640 C1018.034790,463.471161 1022.342590,510.184418 1019.692383,557.307556 C1013.247864,671.898804 972.216614,772.615906 895.475159,858.093750 C823.176025,938.623474 733.407410,989.243774 627.345337,1010.799500 C597.752808,1016.813782 567.761292,1019.372498 537.589844,1020.061951 C534.427429,1020.134216 532.977417,1019.198303 531.884583,1016.145386 C527.401550,1003.620911 522.549255,991.229004 517.939514,978.748962 C517.044434,976.325684 516.004333,975.050537 513.052673,974.919495 C458.458679,972.495239 406.083313,960.404480 355.644989,938.354126 
				 M211.193329,768.282715 C234.368027,799.713196 261.363861,827.405701 292.554688,850.919434 C349.595703,893.920715 413.603699,919.799805 485.010223,928.851013 C484.297791,927.957764 483.966949,927.398682 483.505615,926.985168 C460.315094,906.196594 447.467743,879.540955 440.913208,849.742554 C434.422028,820.232422 432.731201,790.069214 432.424316,759.981812 C431.834503,702.161255 432.260864,644.330444 432.248535,586.503845 C432.243286,561.931885 416.755005,543.693726 392.442474,540.898743 C381.912384,539.688171 371.155792,540.457520 360.502350,540.307739 C341.186249,540.036133 324.240021,528.172852 319.104340,509.568390 C316.816071,501.279053 316.734558,492.136780 317.027344,483.427856 C317.701874,463.362427 332.325500,446.044556 352.051361,443.088593 C363.802704,441.327637 375.948120,442.066071 387.919189,441.931396 C407.142151,441.715088 424.902740,429.512115 429.773865,410.975769 C432.213531,401.692108 431.934967,391.596466 432.168365,381.850861 C432.672577,360.797485 446.943085,342.514862 467.656250,339.038025 C477.722168,337.348389 488.214355,337.954803 498.513763,337.950378 C519.686035,337.941315 538.471863,354.413696 541.038086,375.446960 C541.900330,382.514313 541.591980,389.729156 541.739807,396.878204 C542.280579,423.034485 561.493652,441.895691 587.650085,441.898285 C626.978821,441.902191 666.307617,441.868958 705.636292,441.915710 C719.440979,441.932129 730.717224,447.487915 739.655945,457.939240 C748.569641,468.361298 750.020325,480.758209 750.118896,493.904236 C750.329712,522.033508 727.998230,540.889893 703.556152,540.482117 C664.904785,539.837280 626.234619,540.271667 587.572754,540.369019 C583.617615,540.378967 579.551331,540.757385 575.729309,541.725525 C554.645630,547.065857 541.765747,564.292053 541.756287,586.950562 C541.730652,648.610046 541.709656,710.269531 541.802368,771.928894 C541.812378,778.563293 542.125793,785.262634 543.076660,791.819031 C547.446350,821.947510 564.056213,842.301270 593.013428,851.800659 C616.286194,859.435303 639.501648,856.377319 662.020508,848.423462 C678.570129,842.577942 694.625305,835.336426 710.921570,828.768616 C726.581665,822.457214 737.219360,826.665894 743.032166,842.494263 C746.047913,850.706116 747.331238,859.554260 749.312317,867.763062 C919.455017,761.525391 989.652527,527.452209 879.402405,334.896759 C763.480835,132.436020 505.353088,74.783371 314.809967,199.033295 C124.177750,323.341339 76.570374,584.015259 211.193329,768.282715 z" />
		<!-- Lettre -->
		<path fill="#672972"
			d="M211.008270,767.977051 C76.570374,584.015259 124.177750,323.341339 314.809967,199.033295   C505.353088,74.783371 763.480835,132.436020 879.402405,334.896759   C989.652527,527.452209 919.455017,761.525391 749.312317,867.763062   C747.331238,859.554260 746.047913,850.706116 743.032166,842.494263   C737.219360,826.665894 726.581665,822.457214 710.921570,828.768616   C694.625305,835.336426 678.570129,842.577942 662.020508,848.423462   C639.501648,856.377319 616.286194,859.435303 593.013428,851.800659   C564.056213,842.301270 547.446350,821.947510 543.076660,791.819031   C542.125793,785.262634 541.812378,778.563293 541.802368,771.928894   C541.709656,710.269531 541.730652,648.610046 541.756287,586.950562   C541.765747,564.292053 554.645630,547.065857 575.729309,541.725525   C579.551331,540.757385 583.617615,540.378967 587.572754,540.369019   C626.234619,540.271667 664.904785,539.837280 703.556152,540.482117   C727.998230,540.889893 750.329712,522.033508 750.118896,493.904236   C750.020325,480.758209 748.569641,468.361298 739.655945,457.939240   C730.717224,447.487915 719.440979,441.932129 705.636292,441.915710   C666.307617,441.868958 626.978821,441.902191 587.650085,441.898285   C561.493652,441.895691 542.280579,423.034485 541.739807,396.878204   C541.591980,389.729156 541.900330,382.514313 541.038086,375.446960   C538.471863,354.413696 519.686035,337.941315 498.513763,337.950378   C488.214355,337.954803 477.722168,337.348389 467.656250,339.038025   C446.943085,342.514862 432.672577,360.797485 432.168365,381.850861   C431.934967,391.596466 432.213531,401.692108 429.773865,410.975769   C424.902740,429.512115 407.142151,441.715088 387.919189,441.931396   C375.948120,442.066071 363.802704,441.327637 352.051361,443.088593   C332.325500,446.044556 317.701874,463.362427 317.027344,483.427856   C316.734558,492.136780 316.816071,501.279053 319.104340,509.568390   C324.240021,528.172852 341.186249,540.036133 360.502350,540.307739   C371.155792,540.457520 381.912384,539.688171 392.442474,540.898743   C416.755005,543.693726 432.243286,561.931885 432.248535,586.503845   C432.260864,644.330444 431.834503,702.161255 432.424316,759.981812   C432.731201,790.069214 434.422028,820.232422 440.913208,849.742554   C447.467743,879.540955 460.315094,906.196594 483.505615,926.985168   C483.966949,927.398682 484.297791,927.957764 485.010223,928.851013   C413.603699,919.799805 349.595703,893.920715 292.554688,850.919434   C261.363861,827.405701 234.368027,799.713196 211.008270,767.977051  z" />
	</g>
	<g id="A">
		<!-- Contour -->
		<path fill="#7B7B7B"
			d="M1665.888916,1064.090210 C1601.934570,1062.563599 1540.608643,1048.694458 1481.526978,1024.541260   C1438.363037,1006.895508 1398.364014,983.628052 1361.381592,955.278625   C1349.822754,946.418091 1338.593628,937.021667 1327.993896,927.041809   C1313.628052,913.516052 1299.398071,899.745850 1286.211182,885.089539   C1262.807739,859.078491 1242.542603,830.666687 1224.956787,800.369568   C1205.164673,766.271118 1189.134277,730.496948 1177.354370,692.883179   C1169.137451,666.645996 1163.092773,639.900208 1158.924316,612.673645   C1153.698730,578.540405 1152.098755,544.248474 1153.366089,509.841187   C1154.517578,478.574768 1158.173218,447.498688 1165.814209,417.120392   C1171.614258,394.061249 1177.700195,370.967163 1185.595703,348.571472   C1193.770996,325.382233 1204.141602,302.982086 1215.984131,281.297394   C1231.891724,252.168976 1250.163208,224.712433 1270.841064,198.753281   C1287.363281,178.011017 1305.433838,158.653412 1325.018066,140.978790   C1343.109253,124.651649 1362.755859,109.971497 1382.317017,95.369102   C1405.966797,77.714401 1431.974976,63.846294 1458.580322,51.226353   C1491.674683,35.528419 1526.218384,23.586081 1561.848022,15.344451   C1582.297852,10.614133 1603.282593,8.099742 1624.098755,5.087801   C1635.516235,3.435768 1647.084106,2.822201 1658.791992,1.370187   C1675.687622,1.000000 1692.375122,1.000000 1709.531372,1.000002   C1714.359009,1.665764 1718.697632,2.691182 1723.080200,2.937963   C1748.435669,4.365701 1773.403931,8.288754 1798.219238,13.600624   C1830.365601,20.481724 1861.705933,30.010834 1891.734009,43.261108   C1912.014038,52.209942 1932.109009,61.923721 1951.181396,73.170212   C1971.818481,85.339333 1991.340210,99.444954 2011.005005,113.197052   C2019.634155,119.231552 2027.686523,126.179741 2035.508179,133.257446   C2045.608276,142.397186 2055.818359,151.540176 2064.903076,161.650299   C2081.566406,180.194809 2098.177490,198.876938 2113.446045,218.559906   C2130.117920,240.051819 2143.770020,263.606140 2156.475098,287.734283   C2178.063721,328.732941 2193.336914,371.988403 2203.692383,416.985535   C2207.474365,433.418427 2209.585449,450.261597 2211.945801,466.989990   C2215.652588,493.258484 2217.698242,519.690857 2216.624756,546.224060   C2216.038330,560.723450 2214.894287,575.263489 2212.876709,589.627136   C2209.753418,611.863342 2206.525879,634.149719 2201.788330,656.079041   C2194.783447,688.504150 2183.698975,719.699951 2170.036133,749.965393   C2156.808350,779.267029 2141.635010,807.508850 2122.909912,833.644226   C2111.028809,850.227173 2098.342773,866.276917 2085.301514,881.970947   C2075.388672,893.900452 2064.878174,905.443237 2053.708008,916.196960   C2023.052490,945.709351 1989.294189,971.212524 1952.477783,992.667480   C1918.413330,1012.518921 1882.614746,1028.388550 1845.031250,1040.200073   C1815.612793,1049.445557 1785.682739,1056.595581 1754.973511,1059.890259   C1738.363647,1061.672119 1721.668945,1062.665405 1704.076660,1064.006836   C1690.723511,1064.029785 1678.306152,1064.060059 1665.888916,1064.090210  M1232.015381,712.486938   C1251.097046,760.321838 1276.989014,804.085632 1309.953491,843.700378   C1334.869141,873.642334 1362.838013,900.323303 1394.047241,923.595459   C1424.343994,946.187073 1456.850586,964.969727 1491.536377,980.031372   C1524.962036,994.545898 1559.480835,1005.647522 1595.397095,1011.608215   C1618.553223,1015.451172 1641.984619,1018.363831 1665.405151,1019.659424   C1684.755737,1020.729797 1704.287720,1019.140259 1723.709595,1018.145874   C1748.633179,1016.869751 1773.203857,1012.652161 1797.400391,1006.761047   C1846.864136,994.718323 1893.508301,975.697632 1937.031494,949.102173   C1968.066162,930.138062 1996.858154,908.376770 2022.786865,882.812561   C2039.424072,866.409302 2055.328369,849.398071 2069.642090,830.899231   C2095.711182,797.207886 2117.262207,760.837463 2133.634277,721.548706   C2147.011475,689.446655 2157.755371,656.427124 2163.018799,621.910828   C2166.077148,601.854797 2168.978516,581.737671 2170.806152,561.544495   C2171.961670,548.776245 2171.265137,535.810547 2170.927490,522.945740   C2170.597900,510.382690 2169.863525,497.821014 2168.939209,485.285858   C2168.228516,475.642395 2167.574463,465.922577 2165.784668,456.446411   C2162.473877,438.915710 2158.896240,421.396027 2154.394287,404.141968   C2150.663330,389.842773 2145.846191,375.785675 2140.794434,361.881256   C2131.350830,335.887909 2119.450684,310.981262 2105.378906,287.177887   C2089.973877,261.118927 2072.598877,236.452209 2052.521973,213.703644   C2050.115479,210.977112 2048.510742,211.143234 2045.947388,212.127991   C2032.400513,217.332077 2018.850952,222.529327 2006.623047,227.222122   C1989.168701,212.122833 1972.582153,197.364029 1955.546997,183.142349   C1934.701294,165.739258 1911.552368,151.693680 1887.467163,139.353683   C1851.720093,121.038826 1814.333008,106.957756 1774.642456,99.965446   C1753.857544,96.303764 1732.912231,93.268433 1711.916504,91.192261   C1699.003662,89.915375 1685.852295,90.732307 1672.820190,91.075188   C1661.442261,91.374550 1650.031982,91.873787 1638.725586,93.105820   C1625.075562,94.593208 1611.456543,96.590210 1597.935303,98.992889   C1560.887817,105.576210 1525.602783,117.821548 1491.860229,134.220764   C1476.243530,141.810608 1461.403076,151.045258 1446.438843,159.918808   C1422.374390,174.188721 1400.588623,191.596817 1380.694336,211.119308   C1366.141235,225.400574 1352.546387,240.738892 1339.363281,256.315857   C1322.438721,276.313690 1308.313354,298.330994 1295.813354,321.362488   C1279.977905,350.539520 1266.959229,380.962555 1258.608276,413.072937   C1253.259521,433.639526 1249.669312,454.698792 1246.072021,475.671173   C1244.150269,486.875122 1243.876587,498.362457 1242.877686,509.723511   C1242.498657,514.035095 1241.198242,516.874390 1236.261963,518.474731   C1224.741821,522.209717 1213.606323,527.114502 1202.193848,531.207703   C1198.748169,532.443481 1197.785278,534.179321 1197.798340,537.708313   C1197.897461,564.340759 1200.494507,590.737488 1205.008667,616.952576   C1210.609863,649.481201 1219.453369,681.110718 1232.015381,712.486938  z" />
		<path fill="#FFFFFF"
			d="M1231.895752,712.118286 C1219.453369,681.110718 1210.609863,649.481201 1205.008667,616.952576 C1200.494507,590.737488 1197.897461,564.340759 1197.798340,537.708313 C1197.785278,534.179321 1198.748169,532.443481 1202.193848,531.207703 C1213.606323,527.114502 1224.741821,522.209717 1236.261963,518.474731 C1241.198242,516.874390 1242.498657,514.035095 1242.877686,509.723511 C1243.876587,498.362457 1244.150269,486.875122 1246.072021,475.671173 C1249.669312,454.698792 1253.259521,433.639526 1258.608276,413.072937 C1266.959229,380.962555 1279.977905,350.539520 1295.813354,321.362488 C1308.313354,298.330994 1322.438721,276.313690 1339.363281,256.315857 C1352.546387,240.738892 1366.141235,225.400574 1380.694336,211.119308 C1400.588623,191.596817 1422.374390,174.188721 1446.438843,159.918808 C1461.403076,151.045258 1476.243530,141.810608 1491.860229,134.220764 C1525.602783,117.821548 1560.887817,105.576210 1597.935303,98.992889 C1611.456543,96.590210 1625.075562,94.593208 1638.725586,93.105820 C1650.031982,91.873787 1661.442261,91.374550 1672.820190,91.075188 C1685.852295,90.732307 1699.003662,89.915375 1711.916504,91.192261 C1732.912231,93.268433 1753.857544,96.303764 1774.642456,99.965446 C1814.333008,106.957756 1851.720093,121.038826 1887.467163,139.353683 C1911.552368,151.693680 1934.701294,165.739258 1955.546997,183.142349 C1972.582153,197.364029 1989.168701,212.122833 2006.623047,227.222122 C2018.850952,222.529327 2032.400513,217.332077 2045.947388,212.127991 C2048.510742,211.143234 2050.115479,210.977112 2052.521973,213.703644 C2072.598877,236.452209 2089.973877,261.118927 2105.378906,287.177887 C2119.450684,310.981262 2131.350830,335.887909 2140.794434,361.881256 C2145.846191,375.785675 2150.663330,389.842773 2154.394287,404.141968 C2158.896240,421.396027 2162.473877,438.915710 2165.784668,456.446411 C2167.574463,465.922577 2168.228516,475.642395 2168.939209,485.285858 C2169.863525,497.821014 2170.597900,510.382690 2170.927490,522.945740 C2171.265137,535.810547 2171.961670,548.776245 2170.806152,561.544495 C2168.978516,581.737671 2166.077148,601.854797 2163.018799,621.910828 C2157.755371,656.427124 2147.011475,689.446655 2133.634277,721.548706 C2117.262207,760.837463 2095.711182,797.207886 2069.642090,830.899231 C2055.328369,849.398071 2039.424072,866.409302 2022.786865,882.812561 C1996.858154,908.376770 1968.066162,930.138062 1937.031494,949.102173 C1893.508301,975.697632 1846.864136,994.718323 1797.400391,1006.761047 C1773.203857,1012.652161 1748.633179,1016.869751 1723.709595,1018.145874 C1704.287720,1019.140259 1684.755737,1020.729797 1665.405151,1019.659424 C1641.984619,1018.363831 1618.553223,1015.451172 1595.397095,1011.608215 C1559.480835,1005.647522 1524.962036,994.545898 1491.536377,980.031372 C1456.850586,964.969727 1424.343994,946.187073 1394.047241,923.595459 C1362.838013,900.323303 1334.869141,873.642334 1309.953491,843.700378 C1276.989014,804.085632 1251.097046,760.321838 1231.895752,712.118286 M1891.099976,811.500000 C1891.099976,832.205017 1891.099976,852.910034 1891.099976,874.000183 C2038.369873,786.092712 2120.874512,603.514648 2067.549561,420.322144 C2015.130127,240.241653 1838.060059,111.917313 1634.191284,137.177780 C1450.288818,159.964340 1296.557861,312.262299 1286.499878,513.259460 C1281.965332,603.877136 1306.074219,686.935608 1358.063110,761.502258 C1394.622192,813.938293 1441.401367,854.960144 1497.962524,884.819641 C1497.871338,883.669556 1497.446411,882.838013 1496.999146,882.018616 C1473.713257,839.360291 1472.445190,795.195007 1490.245361,750.792847 C1503.306885,718.211182 1527.727905,694.429382 1556.901489,675.881653 C1608.131470,643.311340 1665.206421,627.036621 1724.636597,618.017395 C1736.869751,616.160889 1748.439575,613.191101 1757.999512,604.945374 C1769.713257,594.841980 1775.816650,582.575745 1773.243896,566.580444 C1770.538940,549.762207 1761.540405,536.783691 1749.480469,525.540894 C1735.886841,512.868591 1720.502197,503.697906 1701.346680,503.051361 C1680.885132,502.360779 1660.985962,505.884521 1641.390869,511.649994 C1616.976929,518.833313 1594.958618,531.151001 1572.746460,543.090088 C1558.031006,550.999756 1543.008667,557.933777 1525.810425,558.103577 C1514.082520,558.219360 1506.885132,552.811462 1504.267944,541.487671 C1503.487305,538.110413 1503.019165,534.567383 1503.061157,531.108337 C1503.369141,505.802765 1510.653076,482.379303 1522.954346,460.473602 C1532.972900,442.633148 1549.704468,433.252808 1567.938599,426.036926 C1608.506348,409.982910 1650.898193,403.917542 1694.247192,402.855988 C1724.493286,402.115295 1753.957397,405.782715 1782.226440,417.050079 C1829.342041,435.829254 1863.929077,466.824951 1878.730957,516.788635 C1887.687500,547.020996 1890.333740,578.302551 1890.741699,609.520081 C1891.617188,676.503540 1891.066650,743.505554 1891.099976,811.500000 M1742.691162,723.216675 C1723.837036,727.836914 1704.874634,732.060120 1686.155273,737.173950 C1660.518433,744.177368 1636.488037,754.663757 1614.994629,770.779358 C1584.545898,793.609741 1589.043579,827.440063 1604.883667,847.823853 C1617.304688,863.807861 1633.061035,873.084839 1654.230469,868.870422 C1661.060303,867.510803 1667.853882,865.828613 1674.521729,863.821472 C1694.740479,857.735474 1715.301636,851.778809 1732.567871,839.354065 C1764.364258,816.473572 1784.420654,786.198853 1785.563599,745.765015 C1785.837158,736.089905 1784.572021,726.371216 1783.969727,715.892639 C1769.619263,718.449768 1756.577026,720.773743 1742.691162,723.216675 z" />
		<!-- Lettre -->
		<path fill="#BEC63F"
			d="M1891.099976,811.000000 C1891.066650,743.505554 1891.617188,676.503540 1890.741699,609.520081   C1890.333740,578.302551 1887.687500,547.020996 1878.730957,516.788635   C1863.929077,466.824951 1829.342041,435.829254 1782.226440,417.050079   C1753.957397,405.782715 1724.493286,402.115295 1694.247192,402.855988   C1650.898193,403.917542 1608.506348,409.982910 1567.938599,426.036926   C1549.704468,433.252808 1532.972900,442.633148 1522.954346,460.473602   C1510.653076,482.379303 1503.369141,505.802765 1503.061157,531.108337   C1503.019165,534.567383 1503.487305,538.110413 1504.267944,541.487671   C1506.885132,552.811462 1514.082520,558.219360 1525.810425,558.103577   C1543.008667,557.933777 1558.031006,550.999756 1572.746460,543.090088   C1594.958618,531.151001 1616.976929,518.833313 1641.390869,511.649994   C1660.985962,505.884521 1680.885132,502.360779 1701.346680,503.051361   C1720.502197,503.697906 1735.886841,512.868591 1749.480469,525.540894   C1761.540405,536.783691 1770.538940,549.762207 1773.243896,566.580444   C1775.816650,582.575745 1769.713257,594.841980 1757.999512,604.945374   C1748.439575,613.191101 1736.869751,616.160889 1724.636597,618.017395   C1665.206421,627.036621 1608.131470,643.311340 1556.901489,675.881653   C1527.727905,694.429382 1503.306885,718.211182 1490.245361,750.792847   C1472.445190,795.195007 1473.713257,839.360291 1496.999146,882.018616   C1497.446411,882.838013 1497.871338,883.669556 1497.962524,884.819641   C1441.401367,854.960144 1394.622192,813.938293 1358.063110,761.502258   C1306.074219,686.935608 1281.965332,603.877136 1286.499878,513.259460   C1296.557861,312.262299 1450.288818,159.964340 1634.191284,137.177780   C1838.060059,111.917313 2015.130127,240.241653 2067.549561,420.322144   C2120.874512,603.514648 2038.369873,786.092712 1891.099976,874.000183   C1891.099976,852.910034 1891.099976,832.205017 1891.099976,811.000000  z" />
		<path fill="#BEC63F"
			d="M1743.113037,723.157227 C1756.577026,720.773743 1769.619263,718.449768 1783.969727,715.892639   C1784.572021,726.371216 1785.837158,736.089905 1785.563599,745.765015   C1784.420654,786.198853 1764.364258,816.473572 1732.567871,839.354065   C1715.301636,851.778809 1694.740479,857.735474 1674.521729,863.821472   C1667.853882,865.828613 1661.060303,867.510803 1654.230469,868.870422   C1633.061035,873.084839 1617.304688,863.807861 1604.883667,847.823853   C1589.043579,827.440063 1584.545898,793.609741 1614.994629,770.779358   C1636.488037,754.663757 1660.518433,744.177368 1686.155273,737.173950   C1704.874634,732.060120 1723.837036,727.836914 1743.113037,723.157227  z" />
	</g>

	<g id="E">
		<!-- Contour -->
		<path fill="#7B7B7B"
			d="M2816.894043,1064.086670 C2770.358154,1063.033936 2724.958496,1055.019165 2680.502686,1041.503418   C2633.940186,1027.347046 2590.259766,1006.933777 2549.288574,980.646240   C2525.825684,965.592346 2503.808350,948.716370 2482.907471,930.276550   C2442.304199,894.454041 2408.293701,853.141663 2380.334473,806.905762   C2352.624023,761.081177 2332.519775,711.990784 2319.762451,659.956482   C2313.565186,634.678650 2308.923828,609.099854 2307.109131,583.110474   C2305.826416,564.735107 2304.231201,546.301575 2304.488281,527.917908   C2304.849121,502.069183 2306.808105,476.278412 2310.882080,450.643646   C2315.623291,420.811096 2322.061523,391.383850 2332.343262,363.038391   C2340.742188,339.882751 2349.917725,316.874054 2360.688965,294.744324   C2377.970947,259.237732 2399.245605,226.023773 2424.970215,195.937698   C2438.444824,180.178650 2452.353516,164.710251 2467.034668,150.082703   C2487.484619,129.707397 2510.056152,111.730408 2533.797607,95.264915   C2558.182861,78.352921 2583.784912,63.542419 2610.675781,51.003773   C2649.850342,32.737488 2690.582520,19.219522 2733.076172,11.062076   C2758.174316,6.243993 2783.396729,2.624870 2809.916016,1.998077   C2815.230713,1.672374 2819.615479,1.336184 2824.000000,0.999997   C2832.020752,1.000000 2840.041748,1.000000 2848.809570,1.311374   C2854.068604,1.728796 2858.580322,1.834845 2863.553223,1.964038   C2881.655273,3.690421 2899.358643,4.916058 2916.923340,7.203036   C2947.189697,11.143707 2976.705322,18.649086 3005.606689,28.333923   C3038.176025,39.247971 3069.412598,53.243774 3099.314697,70.239952   C3137.629883,92.018021 3172.846924,118.054741 3204.427002,148.658264   C3221.515869,165.218994 3237.074951,183.434326 3252.550293,201.563797   C3268.933105,220.756409 3283.240723,241.666992 3295.487549,263.647400   C3307.921143,285.962494 3319.212402,309.048645 3329.141846,332.582703   C3337.447266,352.267639 3343.783936,372.879639 3349.703125,393.452118   C3358.311035,423.369110 3363.755371,453.967621 3366.028076,485.080933   C3366.417480,490.406860 3367.329590,495.694611 3368.000000,501.000000   C3368.000000,522.020874 3368.000000,543.041809 3367.622314,564.738525   C3364.814941,585.785767 3363.049805,606.263123 3359.821777,626.507141   C3352.372803,673.220154 3337.535400,717.731689 3317.429688,760.460999   C3304.381104,788.192932 3288.801758,814.482849 3271.077393,839.540833   C3245.741211,875.360535 3216.314941,907.355286 3183.251465,936.144714   C3163.222168,953.584778 3141.927246,969.297363 3119.479980,983.364502   C3077.427979,1009.717041 3032.589111,1030.050415 2984.824707,1043.749878   C2942.741699,1055.819824 2899.897705,1063.103027 2855.585938,1064.011108   C2842.374023,1064.013062 2829.634033,1064.049927 2816.894043,1064.086670  M2443.211670,820.270569   C2481.599365,872.424866 2528.311768,915.528381 2583.675293,949.161316   C2657.106689,993.770508 2736.931152,1017.018982 2822.691650,1019.745239   C2863.288086,1021.035828 2903.468750,1017.025269 2943.136230,1008.090393   C3022.846924,990.136047 3093.394287,954.073547 3155.396729,901.014526   C3157.838135,898.924988 3158.142090,897.132935 3156.988037,894.209900   C3152.225098,882.143555 3147.801758,869.943298 3143.067139,857.865540   C3141.888184,854.858704 3142.013184,852.833374 3144.553955,850.458984   C3149.902588,845.459839 3154.987061,840.158142 3159.951172,834.770081   C3233.290039,755.176514 3272.926025,661.279602 3278.736328,553.252075   C3280.666260,517.368469 3278.015625,481.655121 3270.731934,446.445435   C3248.653809,339.720642 3195.009521,252.053543 3109.486572,184.626144   C3035.818848,126.545570 2951.575684,95.469704 2857.737061,90.910538   C2854.487305,90.752655 2852.747803,89.740700 2851.587891,86.506844   C2847.264648,74.452232 2842.442871,62.575798 2838.157715,50.508446   C2836.889404,46.936161 2835.222412,45.748348 2831.413086,45.789238   C2797.338135,46.155003 2763.621094,49.808292 2730.427979,57.406036   C2621.661133,82.302284 2531.062256,137.478241 2460.362305,223.665115   C2384.404053,316.261841 2347.376465,423.135345 2349.908203,543.081970   C2350.412109,566.963196 2352.549316,591.015747 2356.415771,614.582092   C2368.747070,689.744995 2397.966797,758.071472 2443.211670,820.270569  z" />
		<path fill="#FFFFFF"
			d="M2443.018066,819.970581 C2397.966797,758.071472 2368.747070,689.744995 2356.415771,614.582092 C2352.549316,591.015747 2350.412109,566.963196 2349.908203,543.081970 C2347.376465,423.135345 2384.404053,316.261841 2460.362305,223.665115 C2531.062256,137.478241 2621.661133,82.302284 2730.427979,57.406036 C2763.621094,49.808292 2797.338135,46.155003 2831.413086,45.789238 C2835.222412,45.748348 2836.889404,46.936161 2838.157715,50.508446 C2842.442871,62.575798 2847.264648,74.452232 2851.587891,86.506844 C2852.747803,89.740700 2854.487305,90.752655 2857.737061,90.910538 C2951.575684,95.469704 3035.818848,126.545570 3109.486572,184.626144 C3195.009521,252.053543 3248.653809,339.720642 3270.731934,446.445435 C3278.015625,481.655121 3280.666260,517.368469 3278.736328,553.252075 C3272.926025,661.279602 3233.290039,755.176514 3159.951172,834.770081 C3154.987061,840.158142 3149.902588,845.459839 3144.553955,850.458984 C3142.013184,852.833374 3141.888184,854.858704 3143.067139,857.865540 C3147.801758,869.943298 3152.225098,882.143555 3156.988037,894.209900 C3158.142090,897.132935 3157.838135,898.924988 3155.396729,901.014526 C3093.394287,954.073547 3022.846924,990.136047 2943.136230,1008.090393 C2903.468750,1017.025269 2863.288086,1021.035828 2822.691650,1019.745239 C2736.931152,1017.018982 2657.106689,993.770508 2583.675293,949.161316 C2528.311768,915.528381 2481.599365,872.424866 2443.018066,819.970581 M2648.213379,884.547974 C2648.410156,884.447449 2648.606934,884.346863 2648.803711,884.246338 C2648.731689,884.129272 2648.633057,883.903198 2648.591797,883.913147 C2648.351807,883.971436 2648.125732,884.085083 2648.500488,883.644653 C2632.520752,865.893250 2618.604736,846.709290 2607.780029,825.348022 C2590.426514,791.102661 2581.152100,754.671326 2577.811279,716.548889 C2574.506592,678.840515 2575.545410,641.350159 2585.082520,604.604675 C2606.155273,523.411987 2655.345215,465.907135 2733.027832,434.025635 C2783.090332,413.479675 2835.641113,409.408081 2888.889404,416.929504 C2953.336182,426.032776 3004.926758,457.494843 3043.379883,509.967499 C3074.729248,552.746094 3089.650635,601.587341 3096.383545,653.706726 C3099.667236,679.127625 3082.613037,703.470032 3050.172852,703.273987 C2934.351074,702.573975 2818.522461,703.000122 2702.696289,703.000122 C2700.721436,703.000122 2698.746582,703.000122 2696.155518,703.000122 C2697.510254,711.817932 2698.458252,720.230103 2700.132324,728.495117 C2707.164551,763.208740 2722.784424,793.211731 2749.386230,817.086609 C2775.075195,840.142151 2805.421143,852.140442 2839.572021,854.991394 C2878.151123,858.212097 2915.552979,853.198364 2951.247803,837.875000 C2975.009033,827.674561 2996.507080,813.467590 3017.764160,798.903137 C3021.300049,796.480591 3025.027832,794.119629 3028.998047,792.588806 C3045.485840,786.231567 3061.187500,793.766846 3064.358887,809.889709 C3066.242432,819.465637 3067.094971,829.274170 3067.907715,839.020081 C3068.420654,845.168335 3068.003662,851.394165 3068.003662,857.552124 C3068.450195,857.255920 3069.272949,856.752930 3070.051025,856.188049 C3101.104004,833.637451 3128.747803,807.474609 3151.873779,776.844910 C3223.813965,681.562439 3249.267334,574.862671 3227.902832,457.521210 C3213.444824,378.109985 3176.724854,309.705048 3119.985352,252.483856 C3053.712646,185.648682 2973.317139,147.035004 2879.806641,136.324539 C2837.186768,131.442947 2794.776855,133.768692 2752.773438,142.863571 C2672.467041,160.252121 2603.798096,198.663101 2547.356689,258.179016 C2485.406250,323.504028 2449.518066,401.269135 2439.860107,490.913361 C2435.133301,534.787170 2437.312744,578.398621 2447.426270,621.335144 C2470.719482,720.228271 2523.905518,799.402954 2606.452393,858.595825 C2619.608887,868.030029 2634.102051,875.599670 2648.213379,884.547974 M2919.499268,607.693787 C2923.664062,607.693787 2927.846191,607.934814 2931.989502,607.636902 C2938.100586,607.197510 2944.335693,607.000610 2950.245361,605.572998 C2959.935791,603.232056 2963.358643,596.407288 2960.165039,586.980042 C2959.006104,583.559021 2957.494385,580.139954 2955.516602,577.132690 C2941.303955,555.523682 2922.817627,538.680359 2899.067139,528.104736 C2875.376953,517.555908 2850.470703,515.338684 2824.894531,517.965759 C2789.782959,521.572266 2760.409668,536.687805 2736.632812,562.442383 C2732.212891,567.229980 2729.017090,573.793457 2727.089355,580.097839 C2723.411133,592.127197 2729.670654,602.515869 2741.830322,605.790527 C2746.579346,607.069458 2751.664307,607.604431 2756.598389,607.615784 C2810.565186,607.740173 2864.532471,607.693726 2919.499268,607.693787 z" />
		<!-- Lettre -->
		<path fill="#215F92"
			d="M2918.999512,607.693726 C2864.532471,607.693726 2810.565186,607.740173 2756.598389,607.615784   C2751.664307,607.604431 2746.579346,607.069458 2741.830322,605.790527   C2729.670654,602.515869 2723.411133,592.127197 2727.089355,580.097839   C2729.017090,573.793457 2732.212891,567.229980 2736.632812,562.442383   C2760.409668,536.687805 2789.782959,521.572266 2824.894531,517.965759   C2850.470703,515.338684 2875.376953,517.555908 2899.067139,528.104736   C2922.817627,538.680359 2941.303955,555.523682 2955.516602,577.132690   C2957.494385,580.139954 2959.006104,583.559021 2960.165039,586.980042   C2963.358643,596.407288 2959.935791,603.232056 2950.245361,605.572998   C2944.335693,607.000610 2938.100586,607.197510 2931.989502,607.636902   C2927.846191,607.934814 2923.664062,607.693787 2918.999512,607.693726  z" />
		<path fill="#215F92"
			d="M2647.977295,884.031372 C2634.102051,875.599670 2619.608887,868.030029 2606.452393,858.595825   C2523.905518,799.402954 2470.719482,720.228271 2447.426270,621.335144   C2437.312744,578.398621 2435.133301,534.787170 2439.860107,490.913361   C2449.518066,401.269135 2485.406250,323.504028 2547.356689,258.179016   C2603.798096,198.663101 2672.467041,160.252121 2752.773438,142.863571   C2794.776855,133.768692 2837.186768,131.442947 2879.806641,136.324539   C2973.317139,147.035004 3053.712646,185.648682 3119.985352,252.483856   C3176.724854,309.705048 3213.444824,378.109985 3227.902832,457.521210   C3249.267334,574.862671 3223.813965,681.562439 3151.873779,776.844910   C3128.747803,807.474609 3101.104004,833.637451 3070.051025,856.188049   C3069.272949,856.752930 3068.450195,857.255920 3068.003662,857.552124   C3068.003662,851.394165 3068.420654,845.168335 3067.907715,839.020081   C3067.094971,829.274170 3066.242432,819.465637 3064.358887,809.889709   C3061.187500,793.766846 3045.485840,786.231567 3028.998047,792.588806   C3025.027832,794.119629 3021.300049,796.480591 3017.764160,798.903137   C2996.507080,813.467590 2975.009033,827.674561 2951.247803,837.875000   C2915.552979,853.198364 2878.151123,858.212097 2839.572021,854.991394   C2805.421143,852.140442 2775.075195,840.142151 2749.386230,817.086609   C2722.784424,793.211731 2707.164551,763.208740 2700.132324,728.495117   C2698.458252,720.230103 2697.510254,711.817932 2696.155518,703.000122   C2698.746582,703.000122 2700.721436,703.000122 2702.696289,703.000122   C2818.522461,703.000122 2934.351074,702.573975 3050.172852,703.273987   C3082.613037,703.470032 3099.667236,679.127625 3096.383545,653.706726   C3089.650635,601.587341 3074.729248,552.746094 3043.379883,509.967499   C3004.926758,457.494843 2953.336182,426.032776 2888.889404,416.929504   C2835.641113,409.408081 2783.090332,413.479675 2733.027832,434.025635   C2655.345215,465.907135 2606.155273,523.411987 2585.082520,604.604675   C2575.545410,641.350159 2574.506592,678.840515 2577.811279,716.548889   C2581.152100,754.671326 2590.426514,791.102661 2607.780029,825.348022   C2618.604736,846.709290 2632.520752,865.893250 2648.216064,883.873962   C2647.931641,884.103271 2647.977295,884.031372 2647.977295,884.031372  z" />
	</g>
</svg>