<?xml version="1.0" encoding="UTF-8" standalone="no"?>
<!-- Created with Inkscape (http://www.inkscape.org/) -->

<svg
   viewBox="0 0 213.58147 58.064644"
   version="1.1"
   id="svg10606"
   xmlns="http://www.w3.org/2000/svg"
   xmlns:svg="http://www.w3.org/2000/svg">
  <defs
     id="defs10603">
    <clipPath
       id="clip32">
      <path
         d="m 700,548 h 95 v 47.28125 h -95 z m 0,0"
         id="path2032" />
    </clipPath>
    <clipPath
       id="clip158">
      <path
         d="m 729,552.76172 h 10 V 556 h -10 z m 0,0"
         id="path2410" />
    </clipPath>
    <clipPath
       id="clip159">
      <path
         d="M 718.07031,570 H 723 v 6 h -4.92969 z m 0,0"
         id="path2413" />
    </clipPath>
    <clipPath
       id="clip160">
      <path
         d="M 718.07031,553 H 730 v 18 h -11.92969 z m 0,0"
         id="path2416" />
    </clipPath>
    <clipPath
       id="clip161">
      <path
         d="m 743,561 h 3.41797 v 12 H 743 Z m 0,0"
         id="path2419" />
    </clipPath>
    <clipPath
       id="clip162">
      <path
         d="m 722,576 h 11 v 5.10547 h -11 z m 0,0"
         id="path2422" />
    </clipPath>
    <clipPath
       id="clip163">
      <path
         d="m 732,575 h 11 v 6.10547 h -11 z m 0,0"
         id="path2425" />
    </clipPath>
  </defs>
  <g
     id="layer1"
     transform="translate(3.4863941,-109.42419)">
    <g
       clip-path="url(#clip32)"
       clip-rule="nonzero"
       id="g2974"
       transform="matrix(2.0485125,0,0,2.0485125,-1474.4624,-1022.9151)"
       style="stroke-width:0.172212">
      <path
         style="fill:none;stroke:#ffffff;stroke-width:0.602052;stroke-linecap:butt;stroke-linejoin:miter;stroke-miterlimit:4;stroke-opacity:1"
         d="M -0.0014625,7.125e-4 -11.974119,-2.124287 -54.384275,-9.550069"
         transform="matrix(1,0,0,-1,774.7124,568.4304)"
         id="path2972" />
    </g>
    <path
       style="fill:#0299dc;fill-opacity:1;fill-rule:nonzero;stroke:none;stroke-width:0.352778"
       d="m 143.24635,120.02686 c 11.53888,-0.59212 22.78969,-0.40822 22.78969,-0.40822 0.31182,-2.27255 -0.79217,-2.85672 -4.79317,-3.61689 -12.00302,-2.38462 -44.22709,-2.0325 -60.10306,1.76846 -13.115278,3.13678 -19.756947,7.32982 -16.516139,16.37207 0,0 4.793194,-4.74521 16.644169,-7.5859 -9.522393,6.48161 -13.083278,13.73141 -12.58715,22.0535 0.544098,9.0743 9.410355,11.26683 13.89949,11.0428 -12.011029,-26.05456 17.37233,-38.44164 40.66617,-39.62594"
       id="path7248" />
    <path
       style="fill:#0299dc;fill-opacity:1;fill-rule:nonzero;stroke:none;stroke-width:0.352778"
       d="m 166.09207,126.07639 c 0,0 -13.09127,0.56035 -21.5334,0.9522 -17.86047,0.83223 -32.8242,7.97803 -32.11203,21.96552 0.26409,5.23333 4.44111,8.81822 10.49064,9.27435 1.02425,0.11207 2.06451,0.14401 3.12877,0.0958 11.32282,-0.57604 16.70818,-8.34607 16.70818,-8.34607 2.53663,11.5469 15.15579,7.36983 15.15579,7.36983 0,0 -4.24105,-3.42486 -4.60113,-10.48262 -0.36816,-7.25782 3.26481,-15.84394 12.76318,-20.8292 m -35.80096,24.5981 c -3.5289,0.17595 -6.48963,-1.16833 -6.65767,-4.58517 -0.12003,-2.30454 0.59214,-4.22503 1.88846,-5.81743 3.99301,-4.79323 13.37136,-6.55368 21.63741,-6.56965 -1.55238,5.3533 -3.15278,9.1783 -5.2573,11.83491 -2.72868,3.40088 -6.27357,4.86524 -11.6109,5.13734"
       id="path7250" />
    <path
       style="fill:#0299dc;fill-opacity:1;fill-rule:nonzero;stroke:none;stroke-width:0.352778"
       d="m 193.93902,125.6763 c -18.82073,0.65611 -31.86398,7.11374 -31.36785,21.11727 0.20034,5.88148 5.36938,9.7624 12.64317,9.50638 9.19432,-0.31996 15.924,-6.65768 15.924,-6.65768 -4.93723,8.73019 -9.02627,14.01949 -23.78996,14.21954 0,0 0.0232,3.84898 6.54566,3.61694 14.32354,-0.50403 26.18255,-7.12182 36.20103,-41.8345 0,0 -7.71394,-0.26421 -16.15605,0.0348 m -13.43532,22.94972 c -3.5209,0.12833 -6.46565,-1.27233 -6.58568,-4.69719 -0.32808,-9.29832 12.73915,-12.21903 23.76593,-12.06701 -3.73691,12.21909 -7.6579,16.4281 -17.18025,16.7642"
       id="path7252" />
    <path
       style="fill:#0f1721;fill-opacity:1;fill-rule:nonzero;stroke:none;stroke-width:0.352778"
       d="M 32.666676,163.42972 C 18.871212,167.35872 4.5076386,159.36467 0.57064022,145.56926 -3.3503308,131.77379 4.6436573,117.41019 18.439122,113.48125 c 13.78745,-3.929 28.159037,4.065 32.088022,17.86046 3.928984,13.79541 -4.065027,28.15901 -17.860468,32.08801"
       id="path7254" />
    <path
       style="fill:#ffffff;fill-opacity:1;fill-rule:nonzero;stroke:none;stroke-width:0.352778"
       d="m 36.619672,149.52224 h -5.065278 v -12.86718 l -5.721436,9.38629 H 25.26482 l -5.721435,-9.38629 v 12.86718 H 14.48612 v -22.13351 h 5.057265 l 6.009499,9.83441 6.001504,-9.83441 h 5.065278 z m 0,0"
       id="path7256" />
    <path
       style="fill:#fff000;fill-opacity:1;fill-rule:nonzero;stroke:none;stroke-width:0.352778"
       d="m 49.558893,122.13136 -2.648664,1.78449 c 0.936254,1.38434 1.744452,2.87268 2.408623,4.45713 l 2.968724,-1.24033 c -0.744183,-1.76847 -1.664417,-3.44089 -2.728683,-5.00129"
       id="path7258" />
    <path
       style="fill:#f03d26;fill-opacity:1;fill-rule:nonzero;stroke:none;stroke-width:0.352778"
       d="m 49.558893,122.13136 c -2.648664,-3.88894 -6.20955,-7.08976 -10.378582,-9.31429 l -1.488389,2.79266 c 3.656924,1.95248 6.841726,4.78522 9.218307,8.30612 z m 0,0"
       id="path7260" />
    <g
       clip-path="url(#clip158)"
       clip-rule="nonzero"
       id="g7264"
       transform="matrix(2.0485125,0,0,2.0485125,-1474.4624,-1022.9151)"
       style="stroke-width:0.172212">
      <path
         style="fill:#fff000;fill-opacity:1;fill-rule:nonzero;stroke:none;stroke-width:0.172212"
         d="m 732.24609,552.76172 c -1.08203,0 -2.13281,0.125 -3.14453,0.35156 l 0.33985,1.5 c 3.05859,-0.70312 6.13671,-0.21875 8.73046,1.16797 l 0.72657,-1.36328 c -1.98438,-1.0586 -4.2461,-1.65625 -6.65235,-1.65625"
         id="path7262" />
    </g>
    <path
       style="fill:#5c238f;fill-opacity:1;fill-rule:nonzero;stroke:none;stroke-width:0.352778"
       d="m 47.462386,157.4922 c 2.144524,-2.46458 3.872961,-5.2893 5.097274,-8.37806 l -3.080779,-1.23232 c -1.096284,2.7447 -2.656655,5.28135 -4.609153,7.50588 z m 0,0"
       id="path7266" />
    <g
       clip-path="url(#clip159)"
       clip-rule="nonzero"
       id="g7270"
       transform="matrix(2.0485125,0,0,2.0485125,-1474.4624,-1022.9151)"
       style="stroke-width:0.172212">
      <path
         style="fill:#66ccf5;fill-opacity:1;fill-rule:nonzero;stroke:none;stroke-width:0.172212"
         d="m 718.63281,570.88281 c 0.48828,1.6836 1.27735,3.23438 2.30469,4.59766 l 1.29687,-0.98828 c -0.90234,-1.1875 -1.60937,-2.55078 -2.05468,-4.06641 z m 0,0"
         id="path7268" />
    </g>
    <g
       clip-path="url(#clip160)"
       clip-rule="nonzero"
       id="g7274"
       transform="matrix(2.0485125,0,0,2.0485125,-1474.4624,-1022.9151)"
       style="stroke-width:0.172212">
      <path
         style="fill:#00abe3;fill-opacity:1;fill-rule:nonzero;stroke:none;stroke-width:0.172212"
         d="m 718.07031,566.93359 c 0,1.3711 0.19922,2.69532 0.5625,3.94922 l 1.54688,-0.45703 c -0.008,-0.0352 -0.0195,-0.0703 -0.0312,-0.10547 -1.90235,-6.67969 1.96875,-13.64062 8.65234,-15.54297 0.21484,-0.0625 0.42578,-0.11718 0.64063,-0.16406 l -0.33985,-1.5 c -6.3125,1.42969 -11.03125,7.07422 -11.03125,13.82031"
         id="path7272" />
    </g>
    <g
       clip-path="url(#clip161)"
       clip-rule="nonzero"
       id="g7278"
       transform="matrix(2.0485125,0,0,2.0485125,-1474.4624,-1022.9151)"
       style="stroke-width:0.172212">
      <path
         style="fill:#eb008a;fill-opacity:1;fill-rule:nonzero;stroke:none;stroke-width:0.172212"
         d="m 745.30078,561.40625 -1.45703,0.60937 c 0.19141,0.45313 0.35937,0.92579 0.49609,1.41407 0.79297,2.78125 0.58203,5.61328 -0.41406,8.10547 l 1.50391,0.60156 c 0.63672,-1.61328 0.98828,-3.36719 0.98828,-5.20313 0,-1.96093 -0.39844,-3.82812 -1.11719,-5.52734"
         id="path7276" />
    </g>
    <path
       style="fill:#99d11e;fill-opacity:1;fill-rule:nonzero;stroke:none;stroke-width:0.352778"
       d="m 5.0437521,153.93937 -2.6486416,2.02448 c 1.0402547,1.37633 2.2005303,2.65667 3.4648522,3.82494 l 2.2725812,-2.47259 c -1.1202899,-1.02426 -2.152537,-2.15253 -3.0887918,-3.37683"
       id="path7280" />
    <g
       clip-path="url(#clip162)"
       clip-rule="nonzero"
       id="g7284"
       transform="matrix(2.0485125,0,0,2.0485125,-1474.4624,-1022.9151)"
       style="stroke-width:0.172212">
      <path
         style="fill:#5cbf33;fill-opacity:1;fill-rule:nonzero;stroke:none;stroke-width:0.172212"
         d="m 722.63281,577.34766 c 2.52735,2.33203 5.89844,3.75781 9.60547,3.75781 v -1.65235 c -3.17969,0 -6.20703,-1.21484 -8.49609,-3.3125 z m 0,0"
         id="path7282" />
    </g>
    <g
       clip-path="url(#clip163)"
       clip-rule="nonzero"
       id="g7288"
       transform="matrix(2.0485125,0,0,2.0485125,-1474.4624,-1022.9151)"
       style="stroke-width:0.172212">
      <path
         style="fill:#232e78;fill-opacity:1;fill-rule:nonzero;stroke:none;stroke-width:0.172212"
         d="m 735.69141,578.96875 c -1.15235,0.32812 -2.3125,0.48437 -3.45313,0.48437 v 1.65235 c 0,0 0.004,0 0.008,0 4.26953,0 8.09766,-1.89063 10.69532,-4.87891 l -1.26563,-1.02734 c -1.53906,1.74609 -3.58203,3.08594 -5.98437,3.76953"
         id="path7286" />
    </g>
  </g>
</svg>
