<?xml version="1.0" encoding="UTF-8"?>
<svg id="a" data-name="Calque 1" xmlns="http://www.w3.org/2000/svg" viewBox="0 0 168.6 119.71">
  <g>
    <path d="m62.96,18.75h-14.42c-1.59,0-2.88-1.29-2.88-2.88s1.29-2.88,2.88-2.88h14.42c1.59,0,2.88,1.29,2.88,2.88s-1.29,2.88-2.88,2.88Z" fill="#95c11f"/>
    <path d="m48.26,18.75h-30.97c-1.59,0-2.88-1.29-2.88-2.88s1.29-2.88,2.88-2.88h30.97c1.59,0,2.88,1.29,2.88,2.88s-1.29,2.88-2.88,2.88Z" fill="#95c11f"/>
    <path d="m35.27,67.58c-1.59,0-2.88-1.29-2.88-2.88V15.86c0-1.59,1.29-2.88,2.88-2.88s2.88,1.29,2.88,2.88v48.84c0,1.59-1.29,2.88-2.88,2.88Z" fill="#95c11f"/>
  </g>
  <g>
    <path d="m62.68,67.58c-1.59,0-2.88-1.29-2.88-2.88V15.86c0-1.59,1.29-2.88,2.88-2.88s2.88,1.29,2.88,2.88v48.84c0,1.59-1.29,2.88-2.88,2.88Z" fill="#009fe3"/>
    <path d="m74.83,67.58h-12.14c-1.59,0-2.88-1.29-2.88-2.88s1.29-2.88,2.88-2.88h12.14c5.19,0,9.41-4.18,9.41-9.32,0-1.59,1.29-2.88,2.88-2.88s2.88,1.29,2.88,2.88c0,8.32-6.81,15.09-15.18,15.09Z" fill="#009fe3"/>
    <path d="m101.35,67.58c-1.59,0-2.88-1.29-2.88-2.88V15.86c0-1.59,1.29-2.88,2.88-2.88s2.88,1.29,2.88,2.88v48.84c0,1.59-1.29,2.88-2.88,2.88Z" fill="#e6007e"/>
    <path d="m116.61,55.38c-1.13,0-2.2-.67-2.66-1.78l-15.26-36.63c-.61-1.47.08-3.16,1.55-3.77,1.47-.61,3.16.08,3.77,1.55l15.26,36.63c.61,1.47-.08,3.16-1.55,3.77-.36.15-.74.22-1.11.22Z" fill="#e6007e"/>
    <path d="m116.61,55.38c-.38,0-.78-.08-1.15-.24-1.46-.64-2.13-2.33-1.49-3.8l15.94-36.63c.64-1.46,2.34-2.13,3.79-1.49,1.46.64,2.13,2.33,1.49,3.8l-15.94,36.63c-.47,1.09-1.53,1.73-2.65,1.73Z" fill="#e6007e"/>
    <path d="m144.5,80.22c-8.18,0-14.84-6.96-14.84-15.52V15.86c0-1.59,1.29-2.88,2.88-2.88s2.88,1.29,2.88,2.88v48.84c0,5.29,4.15,9.75,9.07,9.75,1.59,0,2.88,1.29,2.88,2.88s-1.29,2.88-2.88,2.88Z" fill="#e6007e"/>
    <path d="m87.12,55.25c-1.59,0-2.88-1.29-2.88-2.88,0-5.04-4.25-9.17-9.47-9.2h-12.09c-1.59,0-2.88-1.29-2.88-2.88s1.29-2.88,2.88-2.88h12.1c8.4.06,15.22,6.77,15.22,14.97,0,1.59-1.29,2.88-2.88,2.88Z" fill="#009fe3"/>
    <path d="m74.83,43.17h-12.14c-1.59,0-2.88-1.29-2.88-2.88s1.29-2.88,2.88-2.88h12.14c5.19,0,9.41-4.18,9.41-9.33,0-1.59,1.29-2.88,2.88-2.88s2.88,1.29,2.88,2.88c0,8.32-6.81,15.09-15.18,15.09Z" fill="#009fe3"/>
    <path d="m87.12,30.83c-1.59,0-2.88-1.29-2.88-2.88,0-5.04-4.25-9.17-9.47-9.2h-12.09c-1.59,0-2.88-1.29-2.88-2.88s1.29-2.88,2.88-2.88h12.1c8.4.06,15.22,6.77,15.22,14.97,0,1.59-1.29,2.88-2.88,2.88Z" fill="#009fe3"/>
  </g>
  <g>
    <path d="m37.62,81.05h-1.74v10.14c0,.59-.44.86-.88.86s-.88-.27-.88-.86v-10.14h-1.74c-.59,0-.88-.44-.88-.86s.29-.88.88-.88h5.24c.59,0,.88.44.88.88s-.29.86-.88.86Z" fill="#100c08"/>
    <path d="m47.55,83.05c0,1.57-.93,2.91-2.33,3.39l2.09,4.38c.07.15.09.27.09.38,0,.49-.37.86-.93.86-.29,0-.59-.13-.75-.48l-2.36-4.98h-1.48v4.6c0,.59-.42.86-.86.86s-.9-.27-.9-.86v-11c0-.46.42-.88.88-.88h2.98c1.98,0,3.57,1.59,3.57,3.57v.17Zm-1.76-.17c0-1.03-.75-1.83-1.76-1.83h-2.16v3.81h2.18c1.01,0,1.74-.81,1.74-1.81v-.17Z" fill="#100c08"/>
    <path d="m56.92,92.06c-.35,0-.7-.18-.84-.62l-.75-2.42h-4.07l-.73,2.42c-.13.44-.51.62-.86.62-.53,0-.9-.35-.9-.81,0-.07.02-.17.04-.29l3.48-11.06c.15-.46.59-.7,1.01-.7s.86.2,1.01.7l3.48,11.06c.02.13.04.22.04.27,0,.49-.37.82-.9.82Zm-2.14-4.78l-1.48-4.85-1.48,4.85h2.97Z" fill="#100c08"/>
    <path d="m67.01,91.2c0,.46-.38.86-.88.86h-.2c-.24,0-.7-.06-.99-.73l-3.5-7.89v7.76c0,.59-.42.86-.86.86s-.9-.27-.9-.86v-11.08c0-.49.35-.92.93-.92h.2c.22,0,.66,0,.93.64l3.5,7.89v-7.65c0-.59.42-.88.86-.88s.9.29.9.88v11.12Z" fill="#100c08"/>
    <path d="m72.93,92.06h-.18c-1.92,0-3.57-1.3-3.57-3.55,0-.59.44-.88.88-.88s.88.29.88.88c0,1.17.77,1.83,1.81,1.83h.18c1.08,0,1.89-.59,1.89-1.67,0-2.56-5.53-2.58-5.53-5.9v-.33c0-1.98,1.81-3.24,3.48-3.24h.17c1.76,0,3.46.93,3.46,2.8v.11c0,.49-.35.82-.84.82s-.81-.31-.92-.81c-.22-.99-.73-1.19-1.7-1.19h-.17c-.81,0-1.72.51-1.72,1.41v.37c0,1.76,5.53,2.16,5.53,5.95,0,2.07-1.59,3.39-3.64,3.39Z" fill="#100c08"/>
    <path d="m82.6,86.44h-2.09v4.76c0,.59-.44.86-.88.86s-.88-.27-.88-.86v-11c0-.46.38-.88.88-.88h2.97c1.98,0,3.44,1.57,3.44,3.55s-1.46,3.57-3.44,3.57Zm0-5.38h-2.09v3.64h2.09c1.03,0,1.68-.81,1.68-1.83s-.66-1.81-1.68-1.81Z" fill="#100c08"/>
    <path d="m94.9,88.56c0,2-1.59,3.5-3.57,3.5h-.18c-1.96,0-3.57-1.5-3.57-3.5v-5.86c0-1.98,1.61-3.5,3.59-3.5h.17c1.98,0,3.57,1.52,3.57,3.5v5.86Zm-1.76-5.86c0-1.03-.81-1.76-1.81-1.76h-.18c-1.01,0-1.81.75-1.81,1.76v5.86c0,1.03.81,1.78,1.81,1.78h.18c1.01,0,1.81-.75,1.81-1.78v-5.86Z" fill="#100c08"/>
    <path d="m104.9,83.05c0,1.57-.93,2.91-2.33,3.39l2.09,4.38c.07.15.09.27.09.38,0,.49-.37.86-.93.86-.29,0-.59-.13-.75-.48l-2.36-4.98h-1.48v4.6c0,.59-.42.86-.86.86s-.9-.27-.9-.86v-11c0-.46.42-.88.88-.88h2.98c1.98,0,3.57,1.59,3.57,3.57v.17Zm-1.76-.17c0-1.03-.75-1.83-1.76-1.83h-2.16v3.81h2.18c1.01,0,1.74-.81,1.74-1.81v-.17Z" fill="#100c08"/>
    <path d="m112.03,81.05h-1.74v10.14c0,.59-.44.86-.88.86s-.88-.27-.88-.86v-10.14h-1.74c-.59,0-.88-.44-.88-.86s.29-.88.88-.88h5.24c.59,0,.88.44.88.88s-.29.86-.88.86Z" fill="#100c08"/>
    <path d="m117.65,92.06h-.18c-1.92,0-3.57-1.3-3.57-3.55,0-.59.44-.88.88-.88s.88.29.88.88c0,1.17.77,1.83,1.81,1.83h.18c1.08,0,1.89-.59,1.89-1.67,0-2.56-5.53-2.58-5.53-5.9v-.33c0-1.98,1.81-3.24,3.48-3.24h.17c1.76,0,3.46.93,3.46,2.8v.11c0,.49-.35.82-.84.82s-.8-.31-.92-.81c-.22-.99-.73-1.19-1.7-1.19h-.17c-.8,0-1.72.51-1.72,1.41v.37c0,1.76,5.53,2.16,5.53,5.95,0,2.07-1.59,3.39-3.64,3.39Z" fill="#100c08"/>
  </g>
  <g>
    <path d="m37.58,103.43c0,1.4-1.14,2.54-2.54,2.54h-2.06c-.27,0-.51-.24-.51-.51v-8.22c0-.27.24-.51.51-.51h2.06c1.43,0,2.43,1.04,2.43,2.43h0c0,1.02-.47,1.72-1.04,2.04.56.32,1.15,1.02,1.15,2.1v.12Zm-1.12-4.26c0-.86-.58-1.42-1.42-1.42h-1.55v2.95h1.55c.8,0,1.42-.63,1.42-1.52h0Zm.11,4.14c0-.87-.71-1.59-1.52-1.59h-1.55v3.24h1.55c.84,0,1.52-.68,1.52-1.52v-.12Z" fill="#100c08"/>
    <path d="m44.58,103.52c0,1.42-1.14,2.53-2.53,2.53h-.13c-1.4,0-2.54-1.11-2.54-2.53v-4.33c0-1.39,1.14-2.53,2.54-2.53h.13c1.39,0,2.53,1.14,2.53,2.53v4.33Zm-1.02-4.32c0-.84-.67-1.52-1.51-1.52h-.13c-.84,0-1.52.7-1.52,1.51v4.33c0,.84.68,1.52,1.52,1.52h.13c.84,0,1.51-.68,1.51-1.52v-4.32Z" fill="#100c08"/>
    <path d="m52.07,99.4c0,1.18-.75,2.14-1.83,2.46l1.66,3.46c.04.07.05.15.05.23,0,.28-.21.49-.53.49-.16,0-.33-.07-.44-.28l-1.82-3.82h-1.36v3.61c0,.33-.25.49-.51.49s-.51-.16-.51-.49v-8.3c0-.27.24-.51.51-.51h2.25c1.4,0,2.54,1.14,2.54,2.54v.12Zm-1.02-.12c0-.84-.68-1.52-1.52-1.52h-1.74v3.17h1.79c.84,0,1.47-.68,1.47-1.52v-.12Z" fill="#100c08"/>
    <path d="m59.14,103.43c0,1.4-1.14,2.54-2.53,2.54h-2.17c-.27,0-.51-.24-.51-.51v-8.22c0-.27.24-.51.51-.51h2.17c1.39,0,2.53,1.14,2.53,2.53v4.17Zm-1-4.16c0-.84-.67-1.52-1.51-1.52h-1.67v7.21h1.66c.84,0,1.52-.68,1.52-1.52v-4.16Z" fill="#100c08"/>
    <path d="m66.03,105.97h-4.18c-.27,0-.51-.24-.51-.51v-8.22c0-.27.24-.51.51-.51h4.18c.36,0,.51.25.51.51s-.15.51-.51.51h-3.68v2.94h2.55c.33,0,.51.25.51.51s-.17.51-.51.51h-2.55v3.25h3.68c.36,0,.51.25.51.51s-.15.51-.51.51Z" fill="#100c08"/>
    <path d="m73.3,106.04c-.2,0-.4-.09-.48-.35l-.59-1.92h-3.3l-.6,1.92c-.08.25-.27.35-.47.35-.31,0-.52-.21-.52-.48,0-.04.01-.09.03-.16l2.61-8.37c.08-.25.33-.37.6-.37.28,0,.53.12.61.37l2.61,8.37c.01.07.03.12.03.16,0,.27-.21.48-.52.48Zm-1.39-3.29l-1.34-4.28-1.32,4.28h2.66Z" fill="#100c08"/>
    <path d="m80.62,103.52c0,1.42-1.14,2.53-2.53,2.53h-.13c-1.4,0-2.54-1.11-2.54-2.53v-6.35c0-.33.25-.51.51-.51s.51.17.51.51v6.35c0,.84.68,1.52,1.52,1.52h.13c.84,0,1.51-.68,1.51-1.52v-6.35c0-.33.25-.51.51-.51s.51.17.51.51v6.35Z" fill="#100c08"/>
    <path d="m87.77,105.32c.17.36-.05.72-.47.72-.2,0-.35-.09-.44-.27l-1.7-3.42-1.71,3.42c-.09.2-.27.27-.43.27-.41,0-.66-.36-.48-.72l2.05-4.12-1.88-3.81c-.17-.36.05-.74.47-.74.16,0,.35.08.44.28l1.55,3.13,1.55-3.13c.09-.2.27-.28.44-.28.41,0,.64.37.47.74l-1.9,3.81,2.04,4.12Z" fill="#100c08"/>
    <path d="m101.05,105.55c0,.33-.25.49-.51.49s-.51-.16-.51-.49v-6.54l-1.76,4.05c-.11.25-.33.35-.56.35-.25,0-.47-.12-.57-.35l-1.82-4.05v6.54c0,.33-.25.49-.51.49s-.51-.16-.51-.49v-8.3c0-.36.13-.59.6-.59h.04c.36,0,.51.19.6.39l2.14,4.79,2.12-4.79c.09-.2.24-.39.61-.39h.04c.47,0,.59.23.59.59v8.3Z" fill="#100c08"/>
    <path d="m108.14,105.97h-4.18c-.27,0-.51-.24-.51-.51v-8.22c0-.27.24-.51.51-.51h4.18c.36,0,.51.25.51.51s-.15.51-.51.51h-3.68v2.94h2.55c.33,0,.51.25.51.51s-.17.51-.51.51h-2.55v3.25h3.68c.36,0,.51.25.51.51s-.15.51-.51.51Zm-.88-10.77l-1.95.98c-.08.04-.17.05-.24.05-.28,0-.49-.27-.49-.52,0-.17.08-.35.29-.44l1.95-.99c.09-.03.16-.05.24-.05.28,0,.49.27.49.53,0,.17-.09.35-.29.44Z" fill="#100c08"/>
    <path d="m113.71,97.75h-1.47v7.79c0,.33-.25.49-.51.49s-.51-.16-.51-.49v-7.79h-1.47c-.33,0-.51-.25-.51-.51s.17-.51.51-.51h3.96c.33,0,.51.25.51.51s-.17.51-.51.51Z" fill="#100c08"/>
    <path d="m120.92,99.4c0,1.18-.75,2.14-1.83,2.46l1.66,3.46c.04.07.05.15.05.23,0,.28-.21.49-.54.49-.16,0-.33-.07-.44-.28l-1.82-3.82h-1.36v3.61c0,.33-.25.49-.51.49s-.51-.16-.51-.49v-8.3c0-.27.24-.51.51-.51h2.25c1.4,0,2.54,1.14,2.54,2.54v.12Zm-1.02-.12c0-.84-.68-1.52-1.52-1.52h-1.74v3.17h1.79c.84,0,1.47-.68,1.47-1.52v-.12Z" fill="#100c08"/>
    <path d="m127.78,103.52c0,1.42-1.14,2.53-2.53,2.53h-.13c-1.4,0-2.54-1.11-2.54-2.53v-4.33c0-1.39,1.14-2.53,2.54-2.53h.13c1.39,0,2.53,1.14,2.53,2.53v4.33Zm-1.02-4.32c0-.84-.67-1.52-1.51-1.52h-.13c-.84,0-1.52.7-1.52,1.51v4.33c0,.84.68,1.52,1.52,1.52h.13c.84,0,1.51-.68,1.51-1.52v-4.32Z" fill="#100c08"/>
    <path d="m132.65,101.79h-1.64v3.76c0,.33-.25.49-.51.49s-.51-.16-.51-.49v-8.3c0-.27.24-.51.51-.51h2.15c1.4,0,2.54,1.11,2.54,2.51s-1.14,2.54-2.54,2.54Zm0-4.04h-1.64v3.02h1.64c.84,0,1.52-.68,1.52-1.52s-.68-1.5-1.52-1.5Z" fill="#100c08"/>
    <path d="m141.72,103.52c0,1.42-1.14,2.53-2.53,2.53h-.13c-1.4,0-2.54-1.11-2.54-2.53v-4.33c0-1.39,1.14-2.53,2.54-2.53h.13c1.39,0,2.53,1.14,2.53,2.53v4.33Zm-1.02-4.32c0-.84-.67-1.52-1.51-1.52h-.13c-.84,0-1.52.7-1.52,1.51v4.33c0,.84.68,1.52,1.52,1.52h.13c.84,0,1.51-.68,1.51-1.52v-4.32Z" fill="#100c08"/>
    <path d="m148.08,105.97h-3.65c-.27,0-.51-.24-.51-.51v-8.3c0-.33.25-.51.51-.51s.51.17.51.51v7.79h3.14c.33,0,.51.25.51.51s-.17.51-.51.51Z" fill="#100c08"/>
    <path d="m154.88,105.97h-4.18c-.27,0-.51-.24-.51-.51v-8.22c0-.27.24-.51.51-.51h4.18c.36,0,.51.25.51.51s-.15.51-.51.51h-3.68v2.94h2.55c.33,0,.51.25.51.51s-.17.51-.51.51h-2.55v3.25h3.68c.36,0,.51.25.51.51s-.15.51-.51.51Z" fill="#100c08"/>
  </g>
</svg>