<?xml version="1.0" encoding="UTF-8"?>
<svg id="Calque_1" data-name="Calque 1" xmlns="http://www.w3.org/2000/svg" xmlns:xlink="http://www.w3.org/1999/xlink" viewBox="0 0 419.46 146.91">
  <defs>
    <linearGradient id="Dégradé_sans_nom" data-name="Dégradé sans nom" x1="73.96" y1="-884" x2="119.07" y2="-899.98" gradientTransform="translate(-32.43 -836.43) scale(1 -1)" gradientUnits="userSpaceOnUse">
      <stop offset="0" stop-color="red"/>
      <stop offset=".15" stop-color="red" stop-opacity=".99"/>
      <stop offset=".27" stop-color="red" stop-opacity=".95"/>
      <stop offset=".38" stop-color="red" stop-opacity=".89"/>
      <stop offset=".47" stop-color="red" stop-opacity=".79"/>
      <stop offset=".57" stop-color="red" stop-opacity=".68"/>
      <stop offset=".66" stop-color="red" stop-opacity=".53"/>
      <stop offset=".74" stop-color="red" stop-opacity=".36"/>
      <stop offset=".83" stop-color="red" stop-opacity=".17"/>
      <stop offset=".89" stop-color="red" stop-opacity="0"/>
    </linearGradient>
  </defs>
  <path d="m411.4,41.28c-1.81,10.39-5.93,20.23-12.07,28.81h-.27l-12.8-28.81h-8.51l7,15.55c-2.74,6.95-9.78,16.64-21.4,16.64-6.85,0-10.88-3.29-11.79-8.87,2.76.64,5.58.92,8.41.83,7.59,0,16.28-3.57,16.28-13.54,0-7.59-5.76-11.79-13.45-11.79-11.7,0-19.74,7.4-19.74,20.39-.12,3.9.73,7.76,2.46,11.25-1.56,1.17-3.44,1.81-5.39,1.83-2.65,0-4.3-.74-4.3-4.76V28.94h-7.95v12.81c-2.57-1.11-5.34-1.67-8.14-1.65-13.72,0-20.21,9-20.21,20.94s5.85,19.66,17.46,19.66c5.69,0,9.88-1.92,12.29-4.77,1.83,3.49,5.32,4.77,9.84,4.77,4.06-.02,8.05-1.16,11.5-3.3,3.29,2.2,7.57,3.3,12.64,3.3,14.72,0,21.95-10.15,25.15-16.1l7,15.09h5.48c8.88-9.88,16-25.6,18.57-38.41,0,0-8.06,0-8.06,0Zm-93.91,32.1c-6.4,0-9.6-5.58-9.6-12.34,0-8.6,3.47-13.63,11.71-13.63,2.89-.09,5.76.57,8.32,1.91v19.95c-2.07,2.57-5.81,4.11-10.43,4.11Zm44.9-26.81c4.2,0,6.22,1.92,6.22,5.39,0,5.76-4.39,7-9.79,7-2.54.11-5.07-.23-7.49-1,.16-7.26,5.03-11.39,11.06-11.39Z" fill="red"/>
  <path d="m181.14,41.2c-5.25-.27-10.79.75-15.56,4.51v24.27c-2.67,2.3-6.05,3.62-9.57,3.72-5.74,0-9.38-3.47-10.42-8.62-.26-1.27-.39-2.56-.38-3.85h0v-11.66h12.7v-7h-12.7v-11.82h-7.72v11.82h-9.17v7h9.17v11.54h0c0,1.66.17,3.32.51,4.95,1.5,8.63,9.1,14.85,17.85,14.64h0c3.71.04,7.34-1.06,10.42-3.13v2.13h7.14v-29.24c2.31-1.27,4.91-1.93,7.55-1.89,1.81,0,3.61.34,5.3,1l3.31-6.79c-2.72-.93-5.56-1.46-8.43-1.58h0Z" fill="red"/>
  <path d="m296.54,68.57c0-7.77-5.66-9.68-10.76-10.86-4.32-1-10.09-1.19-10.09-4.93s4-5,6.44-5c4.18,0,7.06,1.14,10.48,2.9l3-6c-4.1-2.16-8.65-3.35-13.29-3.47-6.47,0-14,3.59-14,11.59s5.89,9.43,12.55,10.74c4,.79,7.28,1.76,7.57,5.18h0s.79,5.19-8.59,5.19h-10c-5.85,0-6.08-2.56-6.08-6.11v-12.14c0-11.08-8.39-14-15.54-14-6.55,0-12.55,2-15.81,4.17v26.94c0,.8-2.6,1.26-3.94,1.27s-4.15-.93-4.15-2.59v-25.74l-1.48-.89c-4.59-2.22-9.64-3.33-14.74-3.25-7,0-12.5,2.51-16,7.26-3.31,4.5-4.4,10.6-3.08,17.17,1.64,8.69,9.32,14.93,18.17,14.74h.06c4.13.1,8.14-1.38,11.23-4.12,2.17,2.58,6,4.08,10.36,4.08,4.19-.05,8.24-1.5,11.5-4.13v-26.44c2.63-1.16,5.48-1.72,8.35-1.62,4.93,0,7.7,1.54,7.7,8.45h0v11.74c0,4.77.76,11.74,12.22,11.74h12.87c8.74,0,12.4-4,13.93-7.37.73-1.36,1.11-2.88,1.11-4.42v-.08h.01Zm-79.82,1.28c-2.63,2.4-6.05,3.75-9.61,3.8-6.27,0-9.41-4.49-10.26-8.7-1-4.9-.18-9.26,2.29-12.27,2.2-2.7,5.52-4.13,9.59-4.13h0c2.71.03,5.41.45,8,1.25,0,2.64-.02,17.98,0,20.06h0Z" fill="red"/>
  <path d="m93.28,15.24c3.93-2.14,5.39-7.06,3.25-11-2.14-3.93-7.06-5.39-11-3.25-3.93,2.14-5.39,7.06-3.25,11,2.14,3.93,7.06,5.39,11,3.25h0Z" fill="red"/>
  <path d="m122.9,20.1c-.24-1.33-1.57-2.25-4.63-1.87-19.22,2.4-30.07,4.13-69.18,8.4-3.2.35-5.88.8-6.18,3-.49,3.52,8.64,3.75,15,5.25,3.25.65,6.4,1.7,9.4,3.11,1.11.38,1.7,1.58,1.33,2.69-.09.27-.23.51-.42.72-7.43,10.77-17.44,26.06-20.26,31.57s1.92,8.21,6.56,4.09c11-9.78,14.4-14.18,24.25-21.89,1.35-1.06,2.42-.83,2.78.78.19.89.4,2,.59,3.41.21,1.99.21,4.01,0,6v.2c0,.47-.09,1.07-.17,1.81-1.23,11.14-8.11,22.77-15.53,29.7,7.15-2.49,13.6-6.67,18.79-12.18h.08c1.14-1.22,2.2-2.5,3.17-3.86,4.44-6.05,7.38-13.06,8.58-20.46.34-1.73.6-3.47.76-5.22,1.5-15.9,8.14-21.62,21.82-30.1,2.1-1.27,3.62-3.19,3.26-5.15Z" fill="red"/>
  <path d="m76.63,79.24c-3.53,4.76-8.33,8.44-13.85,10.6-6.56,2.44-13.67,3.04-20.55,1.73-1.35-.24-2.66-.55-3.95-.91C15.9,84.45,2.78,61.27,8.99,38.89,14.81,17.9,35.69,4.82,57.11,8.76h0c2.09.38,4.09-1,4.47-3.09.38-2.09-1-4.09-3.09-4.47h0C31.46-3.64,5.62,14.36.78,41.39c-4.6,25.73,11.5,50.63,36.86,56.99,1.07.27,2.15.52,3.26.72,8.54,1.54,17.33.86,25.53-2,7.42-6.93,14.3-18.56,15.53-29.7.08-.74.14-1.34.17-1.81-.59,4.96-2.48,9.66-5.5,13.64h0Z" fill="url(#Dégradé_sans_nom)"/>
  <g>
    <path d="m145.65,146.26h-8.18v-38.42c1.38-.22,3.1-.4,5.16-.55,2.05-.15,3.99-.23,5.81-.23,5.02,0,8.96,1.08,11.81,3.25s4.28,5.41,4.28,9.73c0,2.81-.7,5.18-2.11,7.11-1.41,1.93-3.15,3.37-5.22,4.32l10.97,14.8h-9.74l-9.22-12.98h-3.57v12.98Zm0-19.73h2.79c2.34,0,4.21-.48,5.61-1.43,1.41-.95,2.11-2.55,2.11-4.8,0-2.08-.69-3.61-2.08-4.61-1.39-.99-3.27-1.49-5.65-1.49-.39,0-.87.01-1.43.03-.56.02-1.02.05-1.36.1v12.2Z" fill="red"/>
    <path d="m169.99,126.98c0-2.94.52-5.63,1.56-8.08,1.04-2.44,2.47-4.54,4.28-6.29s3.94-3.12,6.36-4.09c2.42-.97,5.04-1.46,7.85-1.46s5.38.49,7.82,1.46c2.44.97,4.58,2.34,6.39,4.09,1.82,1.75,3.25,3.85,4.28,6.29,1.04,2.45,1.56,5.14,1.56,8.08s-.52,5.64-1.56,8.08c-1.04,2.45-2.47,4.54-4.28,6.29-1.82,1.75-3.95,3.12-6.39,4.09-2.45.97-5.05,1.46-7.82,1.46s-5.43-.49-7.85-1.46c-2.42-.97-4.54-2.34-6.36-4.09-1.82-1.75-3.25-3.85-4.28-6.29-1.04-2.44-1.56-5.14-1.56-8.08Zm31.67,0c0-1.9-.29-3.62-.88-5.16-.58-1.54-1.4-2.86-2.43-3.96s-2.27-1.95-3.7-2.53-2.96-.88-4.61-.88-3.18.29-4.61.88-2.66,1.43-3.7,2.53-1.85,2.42-2.43,3.96c-.58,1.54-.88,3.26-.88,5.16s.29,3.62.88,5.16c.58,1.54,1.4,2.86,2.43,3.96,1.04,1.1,2.27,1.95,3.7,2.53s2.96.88,4.61.88,3.18-.29,4.61-.88,2.66-1.43,3.7-2.53c1.04-1.1,1.85-2.42,2.43-3.96.58-1.54.88-3.25.88-5.16Z" fill="red"/>
    <path d="m216.13,107.71h8.24v23.36c0,1.73.19,3.17.58,4.32.39,1.15.94,2.07,1.65,2.76.71.69,1.57,1.18,2.56,1.46.99.28,2.12.42,3.37.42,1.43,0,2.67-.05,3.73-.16,1.06-.11,2.09-.25,3.08-.42v-31.74h8.24v37.32c-.87.26-1.91.51-3.15.75-1.23.24-2.53.43-3.89.58-1.36.15-2.74.28-4.12.39-1.39.11-2.68.16-3.89.16-2.21,0-4.29-.23-6.26-.68s-3.71-1.23-5.22-2.34c-1.51-1.1-2.72-2.55-3.6-4.35-.89-1.79-1.33-4.06-1.33-6.78v-25.05Z" fill="red"/>
    <path d="m281.29,139.05v7.2h-24.99v-38.55h24.6v7.2h-16.48v8.44h15.12v7.07h-15.12v8.63h16.87Z" fill="red"/>
    <path d="m314.33,133.67v-25.96h7.92v38.55h-7.79l-17.91-25.64v25.64h-7.92v-38.55h8.31l17.39,25.96Z" fill="red"/>
  </g>
</svg>