<svg id="layer" xmlns="http://www.w3.org/2000/svg" viewBox="0 0 600 227.9"><defs><style>.cls-1{fill:#0072bc;}</style></defs><path class="cls-1" d="M40,20.35v29.7H22v22.6H40v33.4c0,18.4,5.6,31,19.3,43.3.9-.5,17.2-10.2,18.9-11.2-10.7-8.6-15.5-18.5-15.5-32.1V72.65H81.8V50.05H62.6V20.35Zm260.4-1.5a13.8,13.8,0,1,0,13.8-13.8,13.83,13.83,0,0,0-13.8,13.8m107.8,100.4c0,6.1-5,9.7-13.5,9.7-6.4,0-15.5-4.8-20.1-10.5-1,1.5-12.1,17.4-12.8,18.5a48.21,48.21,0,0,0,31.8,12.3c17.5,0,36.3-12.5,36.3-31,0-16.4-9.4-22.8-18.6-26.8l-9.5-4.2-3-1.2c-5.5-2.1-12.3-4.8-12.3-10.1,0-5.1,4.6-8.2,12.4-8.2,5.8,0,10.7,2.2,15.8,7.1.9-1.2,12-15.7,12.8-16.8a44.34,44.34,0,0,0-29.7-11c-15.9,0-33.1,11-33.1,28.9,0,16,9.9,22.5,19.7,26.8l9.5,4.2c7.1,3,14.3,6.9,14.3,12.3m61-98.8v29.7h-18v22.6h18v33.4c0,18.4,5.6,31,19.3,43.3.9-.5,17.2-10.2,18.9-11.2-10.7-8.6-15.5-18.5-15.5-32.1V72.75H511V50.15H491.9V20.45ZM576.6,47c25.5,0,45.4,22.5,45.4,51.1s-19.9,51.1-45.4,51.1-45.4-22.5-45.4-51.1S551.1,47,576.6,47m0,79.7c14.5,0,22.4-14.7,22.4-28.5s-7.8-28.5-22.4-28.5-22.4,14.7-22.4,28.5,7.8,28.5,22.4,28.5M325.8,50.15h-23v95.9h23Zm-73.2-1.8h0l-23.4,83.9a11.41,11.41,0,0,1-9.3,8.2,11.17,11.17,0,0,1-11.2-5.2l-36.2-57.9a11.32,11.32,0,1,1,19.2-12l22.6,36.2,20.2-71.5a81.08,81.08,0,0,0-116,21.3h0l44.6,59.8,5.6-29.7,17.6,28.2-5.9,30.9a11.31,11.31,0,0,1-20.2,4.6l-52.4-69.8a81,81,0,1,0,159.5,19.9,79,79,0,0,0-14.7-46.9m333.2,183.8h10.6V222h3l4.9,10.2h12l-6.9-11.9c2.7-1.6,5.3-5.4,5.3-10.6,0-8.3-5.3-12.3-15.1-12.3H585.9v34.8Zm10.6-18.7v-7.2h3c2.7,0,4.3,1.2,4.3,3.6s-1.4,3.6-4.1,3.6Zm-44.3,18.7h10.6V219h11.8v-8.5H562.7v-4.9h13.2v-8.2H552.1Zm-21.9-4.6c0,3.3,2.2,5.4,6.1,5.4s6-2.2,6-5.4-2.3-5.5-6-5.5-6.1,2.4-6.1,5.5m-44.4-12.8c0,10.7,7,18.1,18.8,18.1s18.6-7.5,18.6-18.1c0-10.4-7.1-18.2-18.7-18.2s-18.7,7.8-18.7,18.2m26.4,0c0,5.6-3.1,8.6-7.7,8.6s-7.7-3-7.7-8.6c0-5.9,3.3-8.7,7.7-8.7s7.7,2.8,7.7,8.7m-52.7,17.4h10.6v-25h8.8v-9.9H450.8v9.9h8.7ZM415.6,230a32.7,32.7,0,0,0,13.7,3c9,0,14.2-3.7,14.2-11.3,0-8.4-7.6-10-12.5-11.4-2-.6-3.9-1-3.9-2.6,0-1.4,1.1-2,3.1-2,3.4,0,8.6,1.8,11.4,3.4V199a35.71,35.71,0,0,0-12.7-2.2c-7.9,0-13.1,3.8-13.1,10.6,0,7.8,6.2,10.1,10.7,11.6,2.8.9,5.5,1,5.5,3,0,1.4-1.2,2.2-3.5,2.2a27.33,27.33,0,0,1-12.9-4.1V230Zm-21.1,2.2h10.6v-34.9H394.5Zm-48.8,0h9.9l4.5-18.5h.4l4.5,18.5h10l11-34.9H375l-4.7,20.1h-.4l-4.8-20.1h-9.3l-4.8,20.1h-.4l-4.8-20.1H334.7Zm-36.8-25h-8.7v-9.9h28.1v9.9h-8.8v25H309Z" transform="translate(-22 -5.05)"/></svg>