<?xml version="1.0" encoding="UTF-8" standalone="no"?>
<!-- Created with Inkscape (http://www.inkscape.org/) -->
<svg
   xmlns:svg="http://www.w3.org/2000/svg"
   xmlns="http://www.w3.org/2000/svg"
   version="1.0"
   width="49.77"
   height="65.449997"
   id="svg3590">
  <defs
     id="defs3592">
    <clipPath
       id="clipPath873">
      <path
         d="M 0.12003,1077.24 L 822.12003,1077.24 L 822.12003,0.12 L 0.12003,0.12 L 0.12003,1077.24 z"
         id="path875" />
    </clipPath>
    <clipPath
       id="clipPath867">
      <path
         d="M -0.023987,1077.083 L 822.02401,1077.083 L 822.02401,-0.083 L -0.023987,-0.083 L -0.023987,1077.083 z"
         id="path869" />
    </clipPath>
    <clipPath
       id="clipPath861">
      <path
         d="M 789.834,847.991 L 763.433,848.791 L 743.433,849.591 L 737.833,850.391 L 737.033,855.191 L 737.033,870.391 L 736.233,935.192 L 737.033,949.592 L 737.833,954.392 L 754.633,954.392 L 776.233,955.192 L 836.234,955.992 L 851.022,955.482 L 851.022,849.639 L 849.834,849.591 L 822.634,848.791 L 789.834,847.991"
         id="path863" />
    </clipPath>
    <clipPath
       id="clipPath855">
      <path
         d="M 736.233,975.992 L 736.233,828.39 L 877.783,828.39 L 877.783,975.992"
         id="path857" />
    </clipPath>
    <radialGradient
       cx="0"
       cy="0"
       r="1"
       fx="0"
       fy="0"
       id="radialGradient843"
       gradientUnits="userSpaceOnUse"
       gradientTransform="matrix(27.98592,0,0,-27.98592,782.70056,917.13769)">
      <stop
         id="stop845"
         style="stop-color:#1379bb;stop-opacity:1"
         offset="0" />
      <stop
         id="stop847"
         style="stop-color:#192559;stop-opacity:1"
         offset="1" />
    </radialGradient>
    <clipPath
       id="clipPath835">
      <path
         d="M 0.12003,1077.24 L 822.12003,1077.24 L 822.12003,0.12 L 0.12003,0.12 L 0.12003,1077.24 z"
         id="path837" />
    </clipPath>
    <clipPath
       id="clipPath829">
      <path
         d="M -0.023987,1077.083 L 822.02401,1077.083 L 822.02401,-0.083 L -0.023987,-0.083 L -0.023987,1077.083 z"
         id="path831" />
    </clipPath>
    <clipPath
       id="clipPath823">
      <path
         d="M 789.834,847.991 L 763.433,848.791 L 743.433,849.591 L 737.833,850.391 L 737.033,855.191 L 737.033,870.391 L 736.233,935.192 L 737.033,949.592 L 737.833,954.392 L 754.633,954.392 L 776.233,955.192 L 836.234,955.992 L 851.022,955.482 L 851.022,849.639 L 849.834,849.591 L 822.634,848.791 L 789.834,847.991"
         id="path825" />
    </clipPath>
    <clipPath
       id="clipPath817">
      <path
         d="M 736.233,975.992 L 736.233,828.39 L 877.783,828.39 L 877.783,975.992"
         id="path819" />
    </clipPath>
    <clipPath
       id="clipPath811">
      <path
         d="M 765.806,914.799 C 776.892,917.706 787.854,915.283 790.553,914.618 C 790.349,922.136 789.985,930.054 789.985,930.054 C 789.985,930.054 781.182,930.691 772.381,930.691 C 763.578,930.691 754.778,930.054 754.778,930.054 C 754.778,930.054 754.271,919.06 754.117,910.68 C 754.902,910.982 759.567,913.284 765.806,914.799"
         id="path813" />
    </clipPath>
    <radialGradient
       cx="0"
       cy="0"
       r="1"
       fx="0"
       fy="0"
       id="radialGradient747"
       gradientUnits="userSpaceOnUse"
       gradientTransform="matrix(27.986639,0,0,-27.986639,782.69861,917.13562)">
      <stop
         id="stop749"
         style="stop-color:#ef6a55;stop-opacity:1"
         offset="0" />
      <stop
         id="stop751"
         style="stop-color:#e51a22;stop-opacity:1"
         offset="1" />
    </radialGradient>
    <clipPath
       id="clipPath739">
      <path
         d="M 0.12003,1077.24 L 822.12003,1077.24 L 822.12003,0.12 L 0.12003,0.12 L 0.12003,1077.24 z"
         id="path741" />
    </clipPath>
    <clipPath
       id="clipPath733">
      <path
         d="M -0.023987,1077.083 L 822.02401,1077.083 L 822.02401,-0.083 L -0.023987,-0.083 L -0.023987,1077.083 z"
         id="path735" />
    </clipPath>
    <clipPath
       id="clipPath727">
      <path
         d="M 789.834,847.991 L 763.433,848.791 L 743.433,849.591 L 737.833,850.391 L 737.033,855.191 L 737.033,870.391 L 736.233,935.192 L 737.033,949.592 L 737.833,954.392 L 754.633,954.392 L 776.233,955.192 L 836.234,955.992 L 851.022,955.482 L 851.022,849.639 L 849.834,849.591 L 822.634,848.791 L 789.834,847.991"
         id="path729" />
    </clipPath>
    <clipPath
       id="clipPath721">
      <path
         d="M 736.233,975.992 L 736.233,828.39 L 877.783,828.39 L 877.783,975.992"
         id="path723" />
    </clipPath>
    <clipPath
       id="clipPath715">
      <path
         d="M 754.776,882.993 C 754.776,882.993 763.578,882.332 772.381,882.332 C 781.182,882.332 789.985,882.993 789.985,882.993 C 789.985,882.993 790.688,898.253 790.688,906.511 C 790.688,914.772 789.985,930.054 789.985,930.054 C 789.985,930.054 781.182,930.691 772.381,930.691 C 763.578,930.691 754.776,930.054 754.776,930.054 C 754.776,930.054 754.074,914.772 754.074,906.511 C 754.074,898.253 754.776,882.993 754.776,882.993"
         id="path717" />
    </clipPath>
  </defs>
  <g
     transform="translate(-352.11625,-502.13785)"
     id="layer1">
    <g
       transform="matrix(1.25,0,0,-1.25,-588.475,1668.0022)"
       id="g3558">
      <g
         id="g711">
        <g
           clip-path="url(#clipPath715)"
           id="g713">
          <g
             clip-path="url(#clipPath721)"
             id="g719">
            <g
               clip-path="url(#clipPath727)"
               id="g725">
              <g
                 clip-path="url(#clipPath733)"
                 id="g731">
                <g
                   clip-path="url(#clipPath739)"
                   id="g737">
                  <path
                     d="M 754.776,882.993 C 754.776,882.993 763.578,882.332 772.381,882.332 C 781.182,882.332 789.985,882.993 789.985,882.993 C 789.985,882.993 790.688,898.253 790.688,906.511 C 790.688,914.772 789.985,930.054 789.985,930.054 C 789.985,930.054 781.182,930.691 772.381,930.691 C 763.578,930.691 754.776,930.054 754.776,930.054 C 754.776,930.054 754.074,914.772 754.074,906.511 C 754.074,898.253 754.776,882.993 754.776,882.993"
                     id="path743"
                     style="fill:#e51a22;fill-opacity:1;fill-rule:nonzero;stroke:none" />
                  <g
                     id="g745">
                    <path
                       d="M 0.12003,1077.24 L 822.12003,1077.24 L 822.12003,0.12 L 0.12003,0.12 L 0.12003,1077.24 z"
                       id="path753"
                       style="fill:url(#radialGradient747);stroke:none" />
                  </g>
                </g>
              </g>
            </g>
          </g>
        </g>
      </g>
      <g
         id="g807">
        <g
           clip-path="url(#clipPath811)"
           id="g809">
          <g
             clip-path="url(#clipPath817)"
             id="g815">
            <g
               clip-path="url(#clipPath823)"
               id="g821">
              <g
                 clip-path="url(#clipPath829)"
                 id="g827">
                <g
                   clip-path="url(#clipPath835)"
                   id="g833">
                  <path
                     d="M 765.806,914.799 C 776.892,917.706 787.854,915.283 790.553,914.618 C 790.349,922.136 789.985,930.054 789.985,930.054 C 789.985,930.054 781.182,930.691 772.381,930.691 C 763.578,930.691 754.778,930.054 754.778,930.054 C 754.778,930.054 754.271,919.06 754.117,910.68 C 754.902,910.982 759.567,913.284 765.806,914.799"
                     id="path839"
                     style="fill:#192559;fill-opacity:1;fill-rule:nonzero;stroke:none" />
                  <g
                     id="g841">
                    <path
                       d="M 0.12003,1077.24 L 822.12003,1077.24 L 822.12003,0.12 L 0.12003,0.12 L 0.12003,1077.24 z"
                       id="path849"
                       style="fill:url(#radialGradient843);stroke:none" />
                  </g>
                </g>
              </g>
            </g>
          </g>
        </g>
      </g>
      <g
         id="g851">
        <g
           clip-path="url(#clipPath855)"
           id="g853">
          <g
             clip-path="url(#clipPath861)"
             id="g859">
            <g
               clip-path="url(#clipPath867)"
               id="g865">
              <g
                 clip-path="url(#clipPath873)"
                 id="g871">
                <path
                   d="M 790.686,907.056 C 788.021,902.52 784.271,898.226 782.382,898.788 C 779.778,899.564 779.663,906.307 781.356,915.196 C 786.827,914.924 790.124,913.814 790.578,913.653 C 790.561,914.322 790.542,914.998 790.523,915.672 C 787.634,916.518 784.667,916.944 781.733,917.068 C 782.338,919.933 783.115,922.982 784.044,926.099 C 784.252,927.349 782.936,927.589 782.936,927.589 L 782.949,927.601 L 780.242,928.251 C 779.772,927.38 776.34,921.55 772.929,916.621 C 762.792,915.254 754.659,911.449 754.127,911.195 C 754.117,910.706 754.109,910.224 754.102,909.753 C 760.637,912.581 766.538,914.063 771.599,914.75 C 770.909,913.804 770.235,912.929 769.605,912.176 C 764.947,906.615 759.63,901.719 754.22,898.017 C 754.231,897.623 754.242,897.227 754.253,896.833 C 763.733,902.752 770.305,909.68 774.478,915.067 C 775.769,915.176 776.992,915.232 778.146,915.249 C 776.228,904.958 777.2,897.142 780.918,896.036 C 783.619,895.231 787.347,898.557 790.671,904.106 C 790.682,904.953 790.688,905.768 790.688,906.517 C 790.688,906.722 790.686,906.85 790.686,907.056 z M 778.513,917.087 C 777.628,917.062 776.75,917.011 775.882,916.94 C 777.91,919.744 779.2,921.964 779.84,923.143 L 780.047,923.093 C 779.438,921.033 778.928,919.023 778.513,917.087"
                   id="path877"
                   style="fill:#ffffff;fill-opacity:1;fill-rule:nonzero;stroke:none" />
                <path
                   d="M 761.829,895.472 L 761.817,895.468 L 758.088,888.801 C 757.5,887.736 757.272,887.61 756.559,887.538 C 756.531,887.513 756.468,887.224 756.468,887.224 L 759.144,887.187 C 759.174,887.212 759.238,887.5 759.238,887.5 C 759.21,887.538 758.634,887.6 758.634,887.6 C 758.482,887.62 758.403,887.655 758.373,887.713 C 758.319,887.813 758.378,888.011 758.583,888.421 L 759.56,890.31 L 762.102,890.295 C 762.1,890.295 762.1,890.293 762.1,890.288 C 762.1,890.148 762.422,888.215 762.422,888.215 C 762.437,888.118 762.446,888.037 762.446,887.968 C 762.446,887.862 762.426,887.788 762.387,887.736 C 762.335,887.665 762.24,887.624 762.073,887.6 L 761.546,887.538 C 761.519,887.513 761.457,887.224 761.457,887.224 L 764.434,887.187 C 764.464,887.212 764.526,887.5 764.526,887.5 C 763.65,887.612 763.57,887.68 763.436,888.452 L 762.635,893.177 L 762.207,895.56 C 762.167,895.584 761.829,895.472 761.829,895.472 z M 761.475,893.92 C 761.489,893.848 761.996,890.785 761.996,890.785 C 761.996,890.785 759.786,890.823 759.784,890.823 C 759.835,890.825 761.395,893.768 761.475,893.92"
                   id="path879"
                   style="fill:#ffffff;fill-opacity:1;fill-rule:nonzero;stroke:none" />
                <path
                   d="M 769.71,892.84 C 769.553,892.84 769.339,892.784 769.122,892.686 C 768.745,892.515 767.744,891.965 766.567,890.549 C 766.591,890.556 766.857,891.674 766.857,891.674 C 766.931,891.982 766.981,892.243 766.981,892.44 C 766.981,892.574 766.957,892.679 766.903,892.748 C 766.854,892.808 766.781,892.84 766.691,892.84 C 766.376,892.84 765.458,892.208 764.801,891.541 C 764.795,891.504 764.933,891.252 764.933,891.252 C 765.289,891.552 765.775,891.862 765.9,891.862 C 765.959,891.802 765.892,891.503 765.82,891.2 L 765.145,888.184 L 764.893,887.076 C 764.933,887.039 765.924,887.376 765.924,887.376 C 766.018,888.085 766.346,889.468 766.431,889.702 C 766.826,890.413 768.289,891.988 768.922,891.988 C 768.996,891.988 769.048,891.968 769.081,891.926 C 769.185,891.795 769.117,891.466 769.017,891.049 L 768.29,888.04 C 768.171,887.56 768.168,887.283 768.279,887.143 C 768.334,887.073 768.419,887.038 768.533,887.038 C 768.719,887.038 769.769,887.608 770.397,888.236 C 770.403,888.274 770.265,888.525 770.265,888.525 C 769.847,888.252 769.385,887.976 769.285,887.976 C 769.241,888.02 769.289,888.236 769.341,888.465 L 770.042,891.424 C 770.199,892.052 770.195,892.479 770.028,892.692 C 769.953,892.788 769.843,892.84 769.71,892.84"
                   id="path881"
                   style="fill:#ffffff;fill-opacity:1;fill-rule:nonzero;stroke:none" />
                <path
                   d="M 771.998,892.131 C 771.395,891.637 771.034,890.901 771.034,890.165 C 771.034,889.39 771.487,888.844 772.274,888.668 C 771.689,888.344 771.473,888.182 771.473,887.959 C 771.473,887.824 771.634,887.568 772.09,887.292 C 770.624,886.626 769.968,886.049 769.968,885.476 C 769.968,884.608 771.043,884.154 772.106,884.154 C 772.953,884.154 774.982,884.672 774.982,885.953 C 774.982,886.441 774.549,886.957 773.727,887.446 L 773.421,887.623 C 772.972,887.878 772.463,888.167 772.463,888.384 C 772.473,888.487 772.508,888.556 772.688,888.685 C 773.466,888.982 773.978,889.246 774.295,889.512 C 774.617,889.782 775.158,890.374 775.158,891.318 C 775.158,891.548 775.104,891.773 775.007,891.972 C 775.018,891.944 775.115,891.956 775.115,891.956 L 775.267,891.976 C 775.528,892.003 775.896,892.229 776.277,892.598 C 776.284,892.632 776.221,892.772 776.221,892.772 C 775.92,892.682 775.574,892.606 774.573,892.527 C 774.355,892.72 774.015,892.84 773.685,892.84 C 773.257,892.84 772.542,892.596 771.998,892.131 z M 772.074,890.415 C 772.074,890.896 772.194,891.35 772.421,891.728 C 772.677,892.141 772.971,892.351 773.296,892.351 C 774.017,892.351 774.168,891.701 774.168,891.156 C 774.168,889.957 773.392,889.192 772.858,889.192 C 772.374,889.192 772.074,889.66 772.074,890.415 z M 771.059,885.7 C 771.059,886.273 771.54,886.764 772.415,887.088 C 772.416,887.077 772.685,886.92 772.685,886.92 L 773.206,886.615 C 773.828,886.257 774.143,885.904 774.143,885.564 C 774.143,884.963 773.259,884.692 772.632,884.692 C 772.263,884.692 771.059,884.765 771.059,885.7"
                   id="path883"
                   style="fill:#ffffff;fill-opacity:1;fill-rule:nonzero;stroke:none" />
                <path
                   d="M 777.183,892.069 C 776.306,891.393 775.717,890.119 775.717,888.898 C 775.717,887.524 776.429,887.038 777.039,887.038 C 777.438,887.038 778.508,887.176 779.794,888.475 C 779.796,888.516 779.609,888.767 779.609,888.767 C 778.72,887.97 778.081,887.801 777.692,887.801 C 777.081,887.801 776.77,888.298 776.77,889.275 L 776.807,889.57 C 777.79,889.838 780.128,890.651 780.128,891.87 C 780.128,892.432 779.673,892.84 779.045,892.84 C 778.528,892.84 777.78,892.531 777.183,892.069 z M 778.07,892.155 L 778.072,892.156 C 778.168,892.216 778.35,892.264 778.493,892.264 C 778.715,892.264 779.089,892.14 779.089,891.68 C 779.089,890.957 778.413,890.448 776.83,889.98 C 777.126,891.526 777.853,892.036 778.07,892.155"
                   id="path885"
                   style="fill:#ffffff;fill-opacity:1;fill-rule:nonzero;stroke:none" />
                <path
                   d="M 782.281,891.023 C 782.317,891.186 782.421,891.674 782.421,891.674 C 782.484,891.992 782.516,892.232 782.516,892.409 C 782.516,892.579 782.488,892.691 782.43,892.76 C 782.388,892.813 782.326,892.84 782.253,892.84 C 781.93,892.84 781.092,892.244 780.424,891.541 C 780.42,891.504 780.557,891.252 780.557,891.252 C 780.913,891.538 781.423,891.862 781.538,891.862 C 781.602,891.795 781.525,891.41 781.445,891.023 L 781.03,889.056 L 780.592,887.076 C 780.633,887.039 781.649,887.376 781.649,887.376 C 781.702,887.82 781.853,888.519 782.061,889.488 L 782.158,889.932 C 782.338,890.459 782.56,890.89 782.854,891.285 C 783.113,891.632 783.322,891.8 783.494,891.8 C 783.623,891.8 783.778,891.744 783.887,891.656 C 783.99,891.567 784.128,891.566 784.274,891.654 C 784.403,891.744 784.52,891.885 784.599,892.043 C 784.679,892.188 784.678,892.377 784.598,892.512 C 784.482,892.713 784.247,892.84 783.982,892.84 C 783.64,892.84 782.888,892.11 782.281,891.023"
                   id="path887"
                   style="fill:#ffffff;fill-opacity:1;fill-rule:nonzero;stroke:none" />
                <path
                   d="M 785.533,892.18 C 785.095,891.777 784.871,891.336 784.871,890.867 C 784.871,890.359 785.29,890.069 785.732,889.762 L 786.062,889.526 C 786.674,889.054 786.727,888.753 786.727,888.484 C 786.727,888.044 786.341,887.737 785.994,887.737 C 785.548,887.737 785.198,887.909 784.889,888.277 C 784.767,888.415 784.65,888.432 784.474,888.337 C 784.261,888.231 784.095,887.993 784.095,887.795 C 784.108,887.376 784.843,887.038 785.317,887.038 C 786.392,887.038 787.529,888.109 787.529,889.124 C 787.529,889.58 787.381,889.924 786.599,890.441 C 786.28,890.648 785.685,891.031 785.685,891.43 C 785.685,891.892 786.035,892.176 786.357,892.176 C 786.706,892.176 787.042,892.003 787.272,891.7 L 787.399,891.623 L 787.703,891.744 C 787.842,891.872 787.913,892.024 787.928,892.231 L 787.798,892.512 C 787.615,892.706 787.295,892.84 787.021,892.84 C 786.455,892.84 785.866,892.485 785.533,892.18"
                   id="path889"
                   style="fill:#ffffff;fill-opacity:1;fill-rule:nonzero;stroke:none" />
              </g>
            </g>
          </g>
        </g>
      </g>
    </g>
  </g>
</svg>
