<svg xmlns="http://www.w3.org/2000/svg" viewBox="55 45 100 75"><path fill="#d20a28" stroke="#000000" d="M148.61 118.475l-85.39-8.532c-6.188-17.859-3.938-38.953 7.015-57.39l71.328-7.157c-8.531 22.813-6.234 49.641 7.047 73.079z"/><path fill="#720918" d="M94.935 63.226c.431.19.906.256 1.373.194a2.67 2.67 0 0 1-.16.364 5.341 5.341 0 0 0-.194.411c-.252.571-.424.88-.995.88-.561 0-.731-.33-.994-.9a15.095 15.095 0 0 0-.185-.379 2.622 2.622 0 0 1-.159-.365 2.63 2.63 0 0 0 1.326-.194l-.012-.011zm12.117-7.925c-.16 0-.444 0-.472.094a.935.935 0 0 0 .218.561c.605.583.57.96.5 1.039-.07.082.002.525-.376-.072a2.047 2.047 0 0 0-2.483-.826c-.149 0-.182 0-.182.205a.73.73 0 0 0 .191.446 2.104 2.104 0 0 0-1.714.535c-.106.118 0 .355.083.48.04.067.1.12.171.15a2.409 2.409 0 0 0-1.14 2.283c.376 2.127 2.581 3.141 6.045 2.764a27.645 27.645 0 0 0 6.195-1.576c1.292-.445 2.753-.959 4.445-1.45 2.39-.806 5-.654 7.281.423a3.428 3.428 0 0 1 1.751 2.045 1.825 1.825 0 0 1-.402 1.585 4.277 4.277 0 0 1-3.804 1.464 33.173 33.173 0 0 1-4.94-.573 86.48 86.48 0 0 0-5.246-.766 31.347 31.347 0 0 0-5.451-.08h-1.215a15.248 15.248 0 0 1-3.214-.107 7.359 7.359 0 0 1-3.726-1.37c-.094-.229.572-.475 1.144-.585a.365.365 0 0 0 0-.72c-.297-.059-1.144-.329-1.144-.798a6.286 6.286 0 0 0-.446-1.736 2.12 2.12 0 0 0 .118-1.645 1.141 1.141 0 0 0-.411-.65 2.116 2.116 0 0 0-1.76.444 5.938 5.938 0 0 0-2.047-.433h-.125c-.76.017-1.508.18-2.206.48a2.139 2.139 0 0 0-1.795-.48 1.141 1.141 0 0 0-.411.65 2.125 2.125 0 0 0 .138 1.634l.107.183a7.304 7.304 0 0 0-.171 1.654c0 .343-.916.674-1.303.767-.137 0-.33.069-.354.226a.502.502 0 0 0 .354.491c.663.15 1.143.48 1.143.591-.094.514-1.04.925-1.349 1.039-.308.118-.284.15-.26.32a.526.526 0 0 0 .399.39c.4 0 1.142.227 1.257.547a1.15 1.15 0 0 1-.298.64 16.485 16.485 0 0 1-4.983-1.21c-.926-.457-2.447-1.278-2.733-1.484a15.513 15.513 0 0 1-2.467-2.455 3.356 3.356 0 0 0-.515-.856 1.956 1.956 0 0 0-1.407-.651l-.275-.379c-.377-.491-1.233-.603-2.638-.318l-.185-.15c-.8-.583-2.046.355-2.171.473-.126.118-.095.274 0 .422a.366.366 0 0 0 .39.217 1.82 1.82 0 0 1 .628 0c.107.195.233.38.377.55l-.527.263c-.125.094-.106.273 0 .422.05.153.195.255.356.252.302-.02.605.02.892.117l.457.48.15.16c-.252.125-.516.228-.573.263a.43.43 0 0 0 0 .445c.053.15.196.252.356.252.302-.02.605.02.892.117l.251.423c.14.358.35.684.617.96.326.289.72.492 1.144.59.419.091.81.28 1.143.55l.217.182.388.32c.229.184.31.33.31.389s-.12.094-.238.193a.46.46 0 0 0 0 .504c.07.152.237.237.402.205.914-.183 1.536 0 1.599.194.059.194-.171.353-.571.628a.4.4 0 0 0-.072.514.366.366 0 0 0 .458.171c1.04-.389 1.894-.286 2.012 0 .118.286-.185.48-.79.88a.399.399 0 0 0-.07.525.366.366 0 0 0 .479.148c1.142-.514 2.036-.422 2.197-.124.16.297-.288.787-1.03 1.255-.095 0 0 .151-.07.254a.365.365 0 0 0 .524.376h.072a2.769 2.769 0 0 1 2.287-.31c.138.086.271.177.4.275 0 0 .136-.095-.23.217-5.085 4.372-6.344 5.71-8.001 6.264h-.217a3.974 3.974 0 0 0-.811-.15 1.235 1.235 0 0 0-1.074.538h-.527c-.63 0-1.21.25-1.668 1.255a3.127 3.127 0 0 0-.206 1.267c.003.137.083.26.206.32.276.092.568.124.857.095a.365.365 0 0 0 .356-.33 1.45 1.45 0 0 1 .125-.41 1.892 1.892 0 0 0 0 .431c.026.171.169.3.341.31.324.023.65.023.973 0a.365.365 0 0 0 .252-.148c.059-.095 0-.16 0-.286a2.79 2.79 0 0 1 .473-1.143 6.851 6.851 0 0 0-.208 1.2.365.365 0 0 0 .333.388c1.173.115 2.356.084 3.52-.095.892-.262 1.065-.547 1.28-.98l.125-.252c.143-.323.374-.6.666-.8.305-.347.748-.54 1.21-.527a.4.4 0 0 1 .194.275c.049.154.191.26.353.263a.365.365 0 0 0 .345-.275c.194-.776.617-1.255.891-1.22.275.035.377.317.458.729a.365.365 0 0 0 .72 0c.071-1.04.514-1.667.811-1.667.218 0 .502.365.617 1.016a.366.366 0 0 0 .7-.095 2.454 2.454 0 0 1 .538-1.782.503.503 0 0 1 .342-.182c.32 0 .743.492.88 1.348a.37.37 0 0 0 .733-.095v-.094a2.6 2.6 0 0 1 .473-1.828.698.698 0 0 1 .48-.263c.378 0 .777.366 1.029.994a.365.365 0 0 0 .711-.124c0-.423.741-.96 1.804-1.073l.414.011a4.042 4.042 0 0 0 1.783-.297 6.469 6.469 0 0 0 1.326-1.233 9.246 9.246 0 0 1 3.089-2.435 23.17 23.17 0 0 1 3.248-.992c-.32.12-.592.34-.776.628a3.298 3.298 0 0 0 .47 3.882l.151.193c.755.982.789 1.142.591 1.325-.377.355-.812.698-1.143.96-.331.262-.39.308-.492.4l-.321.32c-.237.252-.48.616-.629.628h-.194a3.761 3.761 0 0 0-.767-.136 1.143 1.143 0 0 0-1.004.48h-.342a1.69 1.69 0 0 0-1.613 1.14 2.728 2.728 0 0 0-.217 1.2c.005.14.09.264.217.32.277.086.568.118.857.095a.365.365 0 0 0 .356-.274.365.365 0 0 0 .33.274c.305.023.61.023.915 0a.36.36 0 0 0 .261-.15.491.491 0 0 0 0-.286 2.43 2.43 0 0 1 .356-.9 6.378 6.378 0 0 0-.16.97.365.365 0 0 0 .33.399s.846.071 1.692.071a6.63 6.63 0 0 0 1.612-.15c.96-.274 1.143-.57 1.326-1.14a.364.364 0 0 0 0-.083 1.14 1.14 0 0 1 .264-.59c.827-1.005 1.736-1.383 2.113-1.143l.174.106a.366.366 0 0 0 .512-.492c-.217-.376-.285-.709-.17-.833.118-.124.651-.169 1.325.109a.366.366 0 0 0 .275 0 .365.365 0 0 0 0-.665c-.754-.308-1.258-.787-1.143-1.14.118-.353.676-.616 1.464-.65a.365.365 0 0 0 .081-.72l-.388-.119a3.257 3.257 0 0 1-1.922-.913c-.035-.184.474-.562 1.555-.829.479.175.935.405 1.36.686a13.15 13.15 0 0 0 2.974 1.347c1.79.325 3.6.538 5.417.64a2.283 2.283 0 0 1 .88 2.568c-.16.32-.472.926-.742.946h-.228a4.49 4.49 0 0 0-.846-.138 1.327 1.327 0 0 0-1.143.503h-.377a1.8 1.8 0 0 0-1.69 1.142 2.819 2.819 0 0 0-.22 1.244c.006.14.091.263.22.319.283.086.581.119.877.094a.343.343 0 0 1 .674 0c.34.023.68.023 1.02 0a.367.367 0 0 0 .26-.147.57.57 0 0 0 0-.298 2.8 2.8 0 0 1 .55-1.14c-.12.394-.2.8-.238 1.21a.365.365 0 0 0 .344.399c.071 0 1.04.071 2.036.071a8.077 8.077 0 0 0 1.804-.15c.8-.217 1.35-1.062 1.624-2.488a4.21 4.21 0 0 0 .071-.63c0-.56-.083-1.256-.083-2.227 0-1.244.48-2.033.926-2.056h.107a.365.365 0 0 0 .057-.72c-.891-.206-1.244-.549-1.233-.686 0-.137.194-.296.674-.445h.137a.365.365 0 0 0-.229-.686c-.766.138-1.42.002-1.578-.306-.158-.309.002-.572.333-.937l.058-.095a.365.365 0 0 0-.072-.422.515.515 0 0 0-.478-.095 7.355 7.355 0 0 1-2.562.937h-.353a8.2 8.2 0 0 1-1.83-.332 4.709 4.709 0 0 1-2.4-1.805 8.022 8.022 0 0 0-.652-.718l-.298-.274.573.057c1.312-.03 2.625.024 3.93.162l-.01.007c2.839.171 5.383-.88 6.492-2.684a3.823 3.823 0 0 0 0-4.087 7.419 7.419 0 0 0-4.967-3.29 14.874 14.874 0 0 0-6.722.33c-.983.253-2.046.562-3.28.984a53.836 53.836 0 0 1-6.98 2.042 4.702 4.702 0 0 1-2.73-.26.673.673 0 0 1-.22-.434c0-.15.436-.434 1.717-.446 5.624 0 7.189-2.945 7.349-3.277a.381.381 0 0 0-.583-.46 6.865 6.865 0 0 1-3.647.892 1.93 1.93 0 0 1-.57-.478 2.584 2.584 0 0 0-1.941-1.096z"/><path fill="#ffdc00" d="M99.616 63.812a.617.617 0 0 0-.236.356c-.118.536.56 1.473 1.52 2.18-1.126-.193-1.766-.057-2.11.379v-.005c-.32.365.07 1.211.514 1.886-1.36-.125-2.81.307-2.925 1.14a.89.89 0 0 0 0 .125 1.141 1.141 0 0 1-.238-.591c.071-.686 1.052-1.209 2.287-1.14a1.734 1.734 0 0 1-.194-1.69c.3-.535.944-.773 1.52-.56a1.69 1.69 0 0 1-.926-1.646c.059-.343.719-.423.788-.434zM92.87 62.52c.572.3 1.255.3 1.828 0a1.957 1.957 0 0 0 1.83 0c.136-.095-.002.674-.299 1.142-.422.62-.535 1.489-1.564 1.477l-.002-.004c-1.006 0-1.142-.867-1.497-1.473-.355-.606-.433-1.21-.296-1.142zm.848-1.156h.012s.638.094.935.094c.275 0 .982-.094.982-.094a.104.104 0 0 1 .083.147l-.97.538h-.095l-1.018-.538a.104.104 0 0 1 .069-.147h.002zm2.985-1.81h.002c.346.008.69.058 1.023.15-.07.178-.19.332-.344.446a1.327 1.327 0 0 1-.97.41.88.88 0 0 1-1.04-.731c.28-.157.592-.247.913-.263a4.12 4.12 0 0 1 .416-.012zm-3.923-.002c.068.002.136.006.203.011.652.06.915.216.915.261a.88.88 0 0 1-1.04.732 1.33 1.33 0 0 1-.995-.411h.023a1.028 1.028 0 0 1-.342-.445c.402-.111.82-.16 1.236-.148zm35.381 11.811c.042-.006.08-.003.123-.011h-.095l-.028.011zm-21.548-15.887c.834.8.8 1.537.423 1.655a.55.55 0 0 1-.64-.162 1.932 1.932 0 0 0-2.149-.729s.994.32.777.787c0 .071-.172.083-.287.095a.731.731 0 0 1-.284 0 1.35 1.35 0 0 0-1.726.297s.71-.137.857.16c-1.085.525-1.91 1.346-1.716 2.42.389 2.216 2.928 2.751 5.648 2.465 3.223-.342 5.977-1.758 10.562-3.083 4.584-1.325 8.79.107 9.487 2.73.366 1.37-.847 3.426-4.574 3.277-3.727-.149-4.662-.695-10.206-1.345-2.204-.18-4.42-.18-6.625 0a15.492 15.492 0 0 1-3.28-.118c-1.143-.171-4.01-.721-4.045-1.498-.036-.776 1.474-.944 1.474-.944s-1.406-.286-1.486-1.142a6.697 6.697 0 0 0-.41-1.837l.105-.162c.31-.57.265-1.266-.117-1.79a1.91 1.91 0 0 0-1.52.547 5.605 5.605 0 0 0-2.218-.651 5.57 5.57 0 0 0-2.287.56 1.91 1.91 0 0 0-1.636-.56 1.678 1.678 0 0 0-.117 1.793c.056.107.12.21.194.307a5.705 5.705 0 0 0-.365 1.738c-.06.754-1.44 1.14-1.451 1.14 0 0 1.564.366 1.44 1.018-.138.856-1.498 1.278-1.498 1.278s1.42.123 1.578.83c.07.31-.207.585-.561.984a16.28 16.28 0 0 1-5.29-1.23 32.086 32.086 0 0 1-2.84-1.535 15.841 15.841 0 0 1-2.457-2.455 3.19 3.19 0 0 0-.458-.79 1.635 1.635 0 0 0-1.395-.535c-.137-.206-.308-.434-.365-.526-.366-.492-1.588-.33-2.483-.148a1.462 1.462 0 0 0-.264-.251c-.583-.434-1.645.445-1.645.445s.788-.107.945.136l.686-.251a.788.788 0 0 0-.376.697l.148.216a5.183 5.183 0 0 1 2.55-.182 5.627 5.627 0 0 0-1.213.561l-.095-.072c-.697-.445-1.838.388-1.838.388.39-.022.78.044 1.14.194l.095.083.55-.445a1.312 1.312 0 0 0-.194.826l.083.108.183.194s2.64-.765 3.361 0a3.112 3.112 0 0 0-2.035.49c-.698-.446-1.841.39-1.841.39.39-.023.782.043 1.143.193l.107.095.434-.39a1.38 1.38 0 0 0-.171.88c.122.313.304.6.536.844.617.59 1.498.412 2.287 1.142l.582.492c.228.15.389.384.446.65a.697.697 0 0 1-.308.57c.995-.193 1.852 0 2.01.435.159.433-.148.743-.663 1.142 1.143-.434 2.286-.366 2.484.148.197.514-.184.936-.869 1.37 1.143-.548 2.366-.536 2.675 0 .309.537-.206 1.202-1.065 1.75h.072a3.115 3.115 0 0 1 2.6-.31 12.354 12.354 0 0 0 2.618-2.09 9.914 9.914 0 0 1-2.354 3.164c-.33.32-2.492 2.078-2.869 2.432-1.84 1.428-3.75 3.014-3.888 3.072-.446.194-1.05.64-1.462.63-.331-.1-.672-.17-1.016-.205-.374.01-.712.224-.88.558-.237 0-.607-.07-.721-.07-.527 0-1.006.572-1.326 1.28a2.852 2.852 0 0 0-.171 1.14c.223.062.455.082.686.06a4.008 4.008 0 0 1 1.393-2.15 4.804 4.804 0 0 0-.536 2.161c.3.021.6.021.9 0 0-.629.83-2.364 1.717-2.285h.194c-.777.263-.938 2.285-.938 2.285a14.06 14.06 0 0 0 3.43-.072c.961-.285.882-.526 1.144-1.063.159-.31.385-.579.663-.787a1.83 1.83 0 0 1 1.578-.591.732.732 0 0 1 .423.514c.236-.913.766-1.566 1.291-1.497.525.07.665.446.779 1.029.07-1.142.59-2.034 1.199-2.01.609.023.829.56.972 1.313 0-1.21.49-2.203 1.141-2.227.65-.024 1.145.698 1.248 1.655v-.095c-.095-1.325.48-2.432 1.291-2.48a1.594 1.594 0 0 1 1.381 1.22c0-.674.946-1.299 2.137-1.426h.45a4.165 4.165 0 0 0 1.602-.238c1.326-.857 1.635-2.283 4.446-3.688a22.878 22.878 0 0 1 3.692-1.142 10.43 10.43 0 0 1 3.548-.473h.083c.306.098.592.249.846.445a10.554 10.554 0 0 1 1.818 2.183c.252.446.083.217.96.826.903.552 1.87.988 2.882 1.3 1.773.36 3.566.608 5.37.743h.095a2.614 2.614 0 0 1 1.04 3.06c-.218.423-.549.926-1.051.914a6.198 6.198 0 0 0-1.065-.194 1.074 1.074 0 0 0-.915.524l-.56-.07c-.548 0-1.051.548-1.406 1.222-.138.337-.2.7-.185 1.063.24.062.487.083.733.06a3.483 3.483 0 0 1 1.36-2.16 4.29 4.29 0 0 0-.547 2.008c.314.02.63.02.944 0 0-.536.869-2.282 1.819-2.202h.205c-.811.252-.993 2.202-.993 2.202 1.24.108 2.49.088 3.726-.058.946-.262 1.27-1.713 1.36-2.203a3.9 3.9 0 0 0 .072-.57 24.853 24.853 0 0 1-.083-2.285c0-1.325.525-2.387 1.268-2.421h.107c-.949-.182-1.578-.605-1.555-1.039h-.026c0-.314.364-.579.885-.764-.87.134-1.604-.034-1.843-.503a1.233 1.233 0 0 1 .356-1.405 8.6 8.6 0 0 1-2.777.856h-.356a9.336 9.336 0 0 1-1.931-.252c-1.669-.445-2.376-1.792-3.211-2.614a3.007 3.007 0 0 0-1.326-.9s-.072-.119.945 0c1.014.118 1.819.227 4.78.41 4.766.286 8-2.912 6.09-6.224-1.908-3.312-6.978-4.054-11.27-2.954-2.571.651-5.83 2.135-10.344 3.072a5.08 5.08 0 0 1-2.974-.286c-.423-.206-1.062-1.417 1.705-1.438 5.384 0 6.86-2.73 7.03-3.072a8.385 8.385 0 0 1-3.902.912.63.63 0 0 1-.238-.058c-.739-.427-.81-1.254-2.282-1.43z"/><path fill="#ffdc00" d="M113.888 74.007l-.406-.156c-1.156-.187-2.219-.75-2.219-1.25 0-.469.813-.906 1.844-1.125l-.25-.437a4.293 4.293 0 0 0-2.062-1.875c-.344-.032-.688-.032-1 .062-1.313.281-2.688.531-3.032 1.125-.625 1.125-.437 2.563.407 3.5.875 1.031 1.187 1.469.75 1.969-.532.5-1.063 1-1.688 1.406-.437.375-.656.813-1.125.813-.312-.063-.625-.157-.906-.157-.375 0-.719.157-.875.47l-.5-.063c-.531 0-1.031.53-1.375 1.125a3.79 3.79 0 0 0-.156 1.062c.25.031.437.031.718 0 .125-.75.532-1.406 1.125-1.906a4.903 4.903 0 0 0-.437 2h.812c0-.469.782-2.188 1.625-2.125h.188c-.719.281-.875 2.125-.875 2.125 1.062.125 2.094.125 3.187 0 .844-.219.938-.406 1.063-.875.031-.313.187-.594.375-.813.844-1.062 1.937-1.593 2.594-1.187l.156.094c-.281-.532-.344-1-.125-1.282a1.986 1.986 0 0 1 1.781 0h-.031c-.938-.375-1.5-1-1.375-1.562.094-.594.875-.906 1.812-.938z"/><path fill="#720918" d="M94.935 90.47c.431.19.906.256 1.373.194a2.67 2.67 0 0 1-.16.364 5.341 5.341 0 0 0-.194.411c-.252.57-.424.88-.995.88-.561 0-.731-.33-.994-.9a15.2 15.2 0 0 0-.185-.38 2.622 2.622 0 0 1-.159-.364 2.63 2.63 0 0 0 1.326-.194l-.012-.011zm12.117-7.925c-.16 0-.444 0-.472.094a.935.935 0 0 0 .218.561c.605.583.57.96.5 1.039-.07.082.002.525-.376-.072a2.047 2.047 0 0 0-2.483-.826c-.149 0-.182 0-.182.205a.73.73 0 0 0 .191.446 2.104 2.104 0 0 0-1.714.535c-.106.118 0 .355.083.48.04.067.1.12.171.15a2.409 2.409 0 0 0-1.14 2.283c.376 2.126 2.581 3.141 6.045 2.764a27.645 27.645 0 0 0 6.195-1.576c1.292-.445 2.753-.959 4.445-1.45a9.75 9.75 0 0 1 7.281.423 3.428 3.428 0 0 1 1.751 2.045 1.825 1.825 0 0 1-.402 1.585 4.277 4.277 0 0 1-3.804 1.463 33.173 33.173 0 0 1-4.94-.572 86.48 86.48 0 0 0-5.246-.766 31.347 31.347 0 0 0-5.451-.08h-1.215a15.248 15.248 0 0 1-3.214-.107 7.359 7.359 0 0 1-3.726-1.37c-.094-.229.572-.475 1.144-.585a.365.365 0 0 0 0-.72c-.297-.059-1.144-.33-1.144-.798a6.286 6.286 0 0 0-.446-1.736 2.12 2.12 0 0 0 .118-1.645 1.141 1.141 0 0 0-.411-.651 2.116 2.116 0 0 0-1.76.445 5.938 5.938 0 0 0-2.047-.434h-.125c-.76.018-1.508.18-2.206.48a2.139 2.139 0 0 0-1.795-.48 1.141 1.141 0 0 0-.411.651 2.125 2.125 0 0 0 .138 1.634l.107.183a7.304 7.304 0 0 0-.171 1.654c0 .343-.916.674-1.303.766-.137 0-.33.07-.354.227a.502.502 0 0 0 .354.491c.663.149 1.143.48 1.143.591-.094.514-1.04.925-1.349 1.039-.308.118-.284.149-.26.32a.526.526 0 0 0 .399.39c.4 0 1.142.227 1.257.547a1.15 1.15 0 0 1-.298.64 16.485 16.485 0 0 1-4.983-1.21c-.926-.457-2.447-1.278-2.733-1.484a15.513 15.513 0 0 1-2.467-2.455 3.356 3.356 0 0 0-.515-.856 1.956 1.956 0 0 0-1.407-.651l-.275-.379c-.377-.491-1.233-.603-2.638-.318l-.185-.15c-.8-.583-2.046.355-2.171.473-.126.118-.095.273 0 .422a.366.366 0 0 0 .39.217 1.82 1.82 0 0 1 .628 0c.107.195.233.38.377.55l-.527.262c-.125.095-.106.274 0 .423.05.153.195.255.356.251.302-.02.605.02.892.118l.457.48.15.16c-.252.125-.516.228-.573.262a.43.43 0 0 0 0 .446c.053.15.196.251.356.251.302-.02.605.02.892.118l.251.422c.14.358.35.685.617.96.326.29.72.493 1.144.591.419.091.81.28 1.143.55l.217.182.388.32c.229.184.31.33.31.388 0 .06-.12.095-.238.194a.46.46 0 0 0 0 .503c.07.153.237.238.402.206.914-.183 1.536 0 1.599.194.059.193-.171.353-.571.627a.4.4 0 0 0-.072.515.366.366 0 0 0 .458.17c1.04-.388 1.894-.285 2.012 0 .118.287-.185.48-.79.88a.399.399 0 0 0-.07.526.366.366 0 0 0 .479.148c1.142-.514 2.036-.422 2.197-.125.16.298-.288.788-1.03 1.256-.095 0 0 .15-.07.254a.365.365 0 0 0 .524.376h.072a2.769 2.769 0 0 1 2.287-.31c.138.085.271.177.4.275 0 0 .136-.095-.23.217-5.085 4.372-6.344 5.71-8.001 6.264h-.217a3.974 3.974 0 0 0-.811-.15 1.235 1.235 0 0 0-1.074.537h-.527c-.63 0-1.21.252-1.668 1.256a3.127 3.127 0 0 0-.206 1.267c.003.137.083.26.206.32.276.092.568.124.857.095a.365.365 0 0 0 .356-.33 1.45 1.45 0 0 1 .125-.41 1.892 1.892 0 0 0 0 .431c.026.171.169.3.341.31.324.023.65.023.973 0a.365.365 0 0 0 .252-.148c.059-.095 0-.16 0-.287.07-.411.232-.802.473-1.142a6.851 6.851 0 0 0-.208 1.2.365.365 0 0 0 .333.388c1.173.115 2.356.083 3.52-.095.892-.262 1.065-.547 1.28-.98l.125-.252c.143-.324.374-.6.666-.801.305-.346.748-.54 1.21-.526a.4.4 0 0 1 .194.274c.049.155.191.26.353.264a.365.365 0 0 0 .345-.275c.194-.776.617-1.255.891-1.22.275.035.377.317.458.728a.365.365 0 0 0 .72 0c.071-1.038.514-1.666.811-1.666.218 0 .502.364.617 1.016a.366.366 0 0 0 .7-.095 2.454 2.454 0 0 1 .538-1.782.503.503 0 0 1 .342-.182c.32 0 .743.492.88 1.348a.37.37 0 0 0 .733-.095v-.095a2.598 2.598 0 0 1 .473-1.827.698.698 0 0 1 .48-.263c.378 0 .777.366 1.029.994a.365.365 0 0 0 .711-.124c0-.423.741-.96 1.804-1.074l.414.012a4.029 4.029 0 0 0 1.783-.298 6.469 6.469 0 0 0 1.326-1.232 9.246 9.246 0 0 1 3.089-2.435 23.17 23.17 0 0 1 3.248-.992c-.32.12-.592.34-.776.628a3.298 3.298 0 0 0 .47 3.881l.151.194c.755.982.789 1.142.591 1.325-.377.354-.812.698-1.143.96-.331.262-.39.308-.492.4l-.321.32c-.237.252-.48.616-.629.628h-.194a3.761 3.761 0 0 0-.767-.136 1.143 1.143 0 0 0-1.004.48h-.342a1.69 1.69 0 0 0-1.613 1.14 2.728 2.728 0 0 0-.217 1.2c.005.14.09.264.217.32.277.086.568.118.857.095a.365.365 0 0 0 .356-.274.365.365 0 0 0 .33.274c.305.023.61.023.915 0 .105-.01.2-.065.261-.15a.491.491 0 0 0 0-.286 2.43 2.43 0 0 1 .356-.9 6.378 6.378 0 0 0-.16.97.365.365 0 0 0 .33.399s.846.071 1.692.071a6.63 6.63 0 0 0 1.612-.15c.96-.274 1.143-.57 1.326-1.14a.364.364 0 0 0 0-.083 1.14 1.14 0 0 1 .264-.59c.827-1.005 1.736-1.383 2.113-1.143l.174.106a.366.366 0 0 0 .512-.492c-.217-.377-.285-.709-.17-.833.118-.124.651-.169 1.325.109a.366.366 0 0 0 .275 0 .365.365 0 0 0 0-.665c-.754-.308-1.258-.787-1.143-1.14.118-.353.676-.617 1.464-.65a.365.365 0 0 0 .081-.721l-.388-.118a3.257 3.257 0 0 1-1.922-.914c-.035-.183.474-.561 1.555-.828.479.174.935.404 1.36.685a13.15 13.15 0 0 0 2.974 1.348c1.79.324 3.6.538 5.417.64a2.283 2.283 0 0 1 .88 2.568c-.16.32-.472.926-.742.946h-.228a4.49 4.49 0 0 0-.846-.138 1.327 1.327 0 0 0-1.143.503h-.377a1.8 1.8 0 0 0-1.69 1.142 2.819 2.819 0 0 0-.22 1.244c.006.14.091.263.22.319.283.086.581.118.877.094a.343.343 0 0 1 .674 0c.34.023.68.023 1.02 0a.367.367 0 0 0 .26-.147.57.57 0 0 0 0-.298 2.8 2.8 0 0 1 .55-1.14c-.12.394-.2.799-.238 1.21a.365.365 0 0 0 .344.398c.071 0 1.04.072 2.036.072a8.077 8.077 0 0 0 1.804-.15c.8-.218 1.35-1.062 1.624-2.488a4.21 4.21 0 0 0 .071-.63c0-.56-.083-1.256-.083-2.227 0-1.244.48-2.033.926-2.056h.107a.365.365 0 0 0 .057-.72c-.891-.206-1.244-.549-1.233-.686 0-.137.194-.296.674-.445h.137a.365.365 0 0 0-.229-.686c-.766.137-1.42.002-1.578-.307-.158-.308.002-.572.333-.937l.058-.094a.365.365 0 0 0-.072-.423.515.515 0 0 0-.478-.094 7.355 7.355 0 0 1-2.562.937h-.353a8.2 8.2 0 0 1-1.83-.333 4.709 4.709 0 0 1-2.4-1.804 8.022 8.022 0 0 0-.652-.718l-.298-.275.573.058a30.52 30.52 0 0 1 3.93.162l-.01.007c2.839.17 5.383-.88 6.492-2.684a3.823 3.823 0 0 0 0-4.088 7.419 7.419 0 0 0-4.967-3.288 14.874 14.874 0 0 0-6.722.33c-.983.251-2.046.561-3.28.983a53.836 53.836 0 0 1-6.98 2.042 4.702 4.702 0 0 1-2.73-.26.673.673 0 0 1-.22-.434c0-.15.436-.434 1.717-.446 5.624 0 7.189-2.945 7.349-3.277a.381.381 0 0 0-.583-.46 6.865 6.865 0 0 1-3.647.892 1.93 1.93 0 0 1-.57-.478 2.584 2.584 0 0 0-1.941-1.096z"/><path fill="#ffdc00" d="M99.616 91.056a.617.617 0 0 0-.236.355c-.118.537.56 1.474 1.52 2.181-1.126-.193-1.766-.057-2.11.379v-.005c-.32.365.07 1.211.514 1.886-1.36-.126-2.81.307-2.925 1.14a.89.89 0 0 0 0 .124 1.141 1.141 0 0 1-.238-.59c.071-.686 1.052-1.209 2.287-1.14a1.734 1.734 0 0 1-.194-1.69c.3-.536.944-.774 1.52-.56a1.69 1.69 0 0 1-.926-1.646c.059-.343.719-.423.788-.434zm-6.746-1.292c.572.3 1.255.3 1.828 0a1.957 1.957 0 0 0 1.83 0c.136-.095-.002.674-.299 1.142-.422.62-.535 1.489-1.564 1.477l-.002-.005c-1.006 0-1.142-.866-1.497-1.472-.355-.606-.433-1.21-.296-1.142zm.848-1.157h.012s.638.095.935.095c.275 0 .982-.095.982-.095a.104.104 0 0 1 .083.148l-.97.538h-.095l-1.018-.538a.104.104 0 0 1 .069-.148h.002zm2.985-1.809h.002c.346.007.69.058 1.023.15-.07.178-.19.332-.344.445a1.327 1.327 0 0 1-.97.411.88.88 0 0 1-1.04-.731c.28-.157.592-.247.913-.263a4.12 4.12 0 0 1 .416-.012zm-3.923-.002c.068.002.136.006.203.011.652.06.915.216.915.261a.88.88 0 0 1-1.04.732 1.33 1.33 0 0 1-.995-.411h.023a1.028 1.028 0 0 1-.342-.446c.402-.11.82-.16 1.236-.147zm35.381 11.811c.042-.006.08-.003.123-.011h-.095l-.028.011zM106.613 82.72c.834.8.8 1.537.423 1.655a.55.55 0 0 1-.64-.162 1.932 1.932 0 0 0-2.149-.73s.994.32.777.788c0 .07-.172.083-.287.094a.731.731 0 0 1-.284 0 1.35 1.35 0 0 0-1.726.298s.71-.137.857.16c-1.085.525-1.91 1.346-1.716 2.42.389 2.216 2.928 2.751 5.648 2.465 3.223-.343 5.977-1.759 10.562-3.083 4.584-1.325 8.79.107 9.487 2.73.366 1.37-.847 3.426-4.574 3.277-3.727-.149-4.662-.695-10.206-1.345a40.483 40.483 0 0 0-6.625 0 15.492 15.492 0 0 1-3.28-.118c-1.143-.171-4.01-.721-4.045-1.498-.036-.776 1.474-.944 1.474-.944s-1.406-.287-1.486-1.142a6.697 6.697 0 0 0-.41-1.837l.105-.162c.31-.57.265-1.266-.117-1.79a1.91 1.91 0 0 0-1.52.546 5.605 5.605 0 0 0-2.218-.65 5.57 5.57 0 0 0-2.287.56 1.91 1.91 0 0 0-1.636-.56 1.678 1.678 0 0 0-.117 1.793c.056.107.12.21.194.307a5.705 5.705 0 0 0-.365 1.738c-.06.753-1.44 1.14-1.451 1.14 0 0 1.564.366 1.44 1.017-.138.857-1.498 1.279-1.498 1.279s1.42.123 1.578.83c.07.31-.207.584-.561.984a16.28 16.28 0 0 1-5.29-1.23 32.086 32.086 0 0 1-2.84-1.535 15.841 15.841 0 0 1-2.457-2.455 3.19 3.19 0 0 0-.458-.79 1.635 1.635 0 0 0-1.395-.535c-.137-.206-.308-.434-.365-.526-.366-.492-1.588-.33-2.483-.148a1.462 1.462 0 0 0-.264-.252c-.583-.433-1.645.446-1.645.446s.788-.107.945.136l.686-.252a.788.788 0 0 0-.376.697l.148.217a5.183 5.183 0 0 1 2.55-.182 5.627 5.627 0 0 0-1.213.56l-.095-.07c-.697-.446-1.838.387-1.838.387.39-.022.78.044 1.14.194l.095.083.55-.446a1.312 1.312 0 0 0-.194.827l.083.108.183.194s2.64-.766 3.361 0a3.112 3.112 0 0 0-2.035.49c-.698-.446-1.841.39-1.841.39.39-.023.782.043 1.143.193l.107.095.434-.39a1.38 1.38 0 0 0-.171.879c.122.314.304.6.536.845.617.59 1.498.412 2.287 1.142l.582.492c.228.15.389.383.446.65a.697.697 0 0 1-.308.57c.995-.193 1.852 0 2.01.434.159.434-.148.743-.663 1.143 1.143-.434 2.286-.367 2.484.147.197.514-.184.936-.869 1.371 1.143-.548 2.366-.536 2.675 0 .309.537-.206 1.201-1.065 1.75h.072a3.11 3.11 0 0 1 2.6-.31 12.354 12.354 0 0 0 2.618-2.09 9.914 9.914 0 0 1-2.354 3.164c-.33.32-2.492 2.078-2.869 2.432-1.84 1.427-3.75 3.014-3.888 3.072-.446.194-1.05.64-1.462.63-.331-.1-.672-.17-1.016-.206-.374.01-.712.225-.88.559-.237 0-.607-.07-.721-.07-.527 0-1.006.571-1.326 1.28a2.852 2.852 0 0 0-.171 1.14c.223.061.455.082.686.06a4.008 4.008 0 0 1 1.393-2.15 4.804 4.804 0 0 0-.536 2.16c.3.022.6.022.9 0 0-.628.83-2.363 1.717-2.284h.194c-.777.262-.938 2.285-.938 2.285a14.06 14.06 0 0 0 3.43-.072c.961-.286.882-.526 1.144-1.064a2.3 2.3 0 0 1 .663-.787 1.83 1.83 0 0 1 1.578-.59.732.732 0 0 1 .423.514c.236-.913.766-1.566 1.291-1.498.525.071.665.447.779 1.03.07-1.142.59-2.034 1.199-2.01.609.023.829.56.972 1.313 0-1.21.49-2.204 1.141-2.227.65-.024 1.145.697 1.248 1.654v-.094c-.095-1.325.48-2.433 1.291-2.481a1.594 1.594 0 0 1 1.381 1.22c0-.673.946-1.298 2.137-1.425h.45a4.165 4.165 0 0 0 1.602-.238c1.326-.857 1.635-2.283 4.446-3.688a22.878 22.878 0 0 1 3.692-1.143c1.147-.36 2.347-.52 3.548-.473h.083c.306.099.592.25.846.446a10.554 10.554 0 0 1 1.818 2.183c.252.445.083.217.96.826.903.552 1.87.988 2.882 1.3 1.773.36 3.566.607 5.37.743h.095a2.614 2.614 0 0 1 1.04 3.06c-.218.423-.549.926-1.051.914a6.198 6.198 0 0 0-1.065-.194 1.074 1.074 0 0 0-.915.524l-.56-.07c-.548 0-1.051.548-1.406 1.221-.138.338-.2.7-.185 1.064.24.062.487.082.733.06a3.483 3.483 0 0 1 1.36-2.16 4.29 4.29 0 0 0-.547 2.008c.314.02.63.02.944 0 0-.536.869-2.282 1.819-2.202h.205c-.811.252-.993 2.202-.993 2.202 1.24.108 2.49.088 3.726-.058.946-.262 1.27-1.713 1.36-2.204a3.9 3.9 0 0 0 .072-.57 24.853 24.853 0 0 1-.083-2.284c0-1.325.525-2.387 1.268-2.421h.107c-.949-.182-1.578-.605-1.555-1.039h-.026c0-.314.364-.579.885-.764-.87.133-1.604-.034-1.843-.503a1.233 1.233 0 0 1 .356-1.405 8.6 8.6 0 0 1-2.777.856h-.356a9.336 9.336 0 0 1-1.931-.252c-1.669-.445-2.376-1.792-3.211-2.615a3.007 3.007 0 0 0-1.326-.9s-.072-.118.945 0c1.014.119 1.819.228 4.78.411 4.766.286 8-2.912 6.09-6.224-1.908-3.312-6.978-4.054-11.27-2.954-2.571.651-5.83 2.135-10.344 3.072a5.08 5.08 0 0 1-2.974-.287c-.423-.205-1.062-1.416 1.705-1.437 5.384 0 6.86-2.73 7.03-3.072a8.385 8.385 0 0 1-3.902.912.63.63 0 0 1-.238-.058c-.739-.427-.81-1.254-2.282-1.431z"/><path fill="#ffdc00" d="M113.888 101.251l-.406-.156c-1.156-.188-2.219-.75-2.219-1.25 0-.469.813-.906 1.844-1.125l-.25-.438a4.293 4.293 0 0 0-2.062-1.874c-.344-.032-.688-.032-1 .062-1.313.281-2.688.531-3.032 1.125-.625 1.125-.437 2.563.407 3.5.875 1.031 1.187 1.469.75 1.969-.532.5-1.063 1-1.688 1.406-.437.375-.656.813-1.125.813-.312-.063-.625-.157-.906-.157-.375 0-.719.156-.875.469l-.5-.063c-.531 0-1.031.532-1.375 1.126a3.79 3.79 0 0 0-.156 1.062c.25.031.437.031.718 0 .125-.75.532-1.406 1.125-1.906a4.903 4.903 0 0 0-.437 2h.812c0-.469.782-2.188 1.625-2.125h.188c-.719.281-.875 2.125-.875 2.125 1.062.125 2.094.125 3.187 0 .844-.219.938-.406 1.063-.875.031-.313.187-.594.375-.813.844-1.062 1.937-1.594 2.594-1.187l.156.094c-.281-.532-.344-1-.125-1.282a1.986 1.986 0 0 1 1.781 0h-.031c-.938-.375-1.5-1-1.375-1.562.094-.594.875-.906 1.812-.938z"/></svg>